<?xml version="1.0" encoding="UTF-8"?>
<!DOCTYPE svg  PUBLIC '-//W3C//DTD SVG 1.1//EN'  'http://www.w3.org/Graphics/SVG/1.1/DTD/svg11.dtd'>
<svg version="1.1" xmlns="http://www.w3.org/2000/svg">
<defs>
<font id="KyivTypeSerif-Black" horiz-adv-x="560">
<font-face font-family="KyivType Serif Black" font-weight="900" ascent="800" bbox="-531 -245 1065 1030" cap-height="700" descent="-200" panose-1="0 0 10 0 0 0 0 0 0 0" underline-position="-100" underline-thickness="50" unicode-range="U+0020-2013" units-per-em="1000" x-height="500"/>
<missing-glyph/>
<glyph glyph-name="space" horiz-adv-x="250" unicode=" "/>
<glyph d="M105 512h-80v188h335v-188h-80l-18 -216h-139zM104.5 23.5q-35.5 35.5 -35.5 88.5t35.5 88.5t88.5 35.5t88.5 -35.5t35.5 -88.5q0 -52 -35.5 -88t-88.5 -36t-88.5 35.5z" glyph-name="exclam" horiz-adv-x="385" unicode="!"/>
<glyph d="M398 700l-104 -279h-10l-75 201l-75 -201h-10l-104 279h378z" glyph-name="quotedbl" horiz-adv-x="419" unicode='"'/>
<glyph d="M574 416v-132h95v-183h-95v-116h-169v116h-110v-116h-169v116h-95v183h95v132h-95v183h95v116h169v-116h110v116h169v-116h95v-183h-95zM405 416h-110v-132h110v132z" glyph-name="numbersign" horiz-adv-x="700" unicode="#"/>
<glyph d="M416 423q80 -22 130.5 -43.5t86.5 -65.5t36 -117q0 -69 -33.5 -116.5t-89 -71.5t-122.5 -24h-4v-115h-139v147q-34 18 -56 40v-57h-185v265h192q16 -48 61.5 -79t94.5 -31q30 0 49.5 10t19.5 33q0 20 -27.5 32.5t-95.5 30.5l-35 10q-69 19 -122.5 43t-95 72.5 t-41.5 125.5q0 67 33.5 112.5t88 68t119.5 22.5v115h139v-144q22 -10 43 -26v40h185v-260h-182v1q-19 41 -61 70t-94 29q-27 0 -42.5 -11.5t-15.5 -34.5q0 -20 23.5 -30.5t76.5 -23.5q11 -4 21.5 -6.5t18.5 -4.5z" glyph-name="dollar" horiz-adv-x="700" unicode="$"/>
<glyph d="M111.5 360.5q-42.5 24.5 -67 66.5t-24.5 93t24.5 93.5t67 67t93.5 24.5t93.5 -24.5t67 -67t24.5 -93.5t-24.5 -93t-67 -66.5t-93.5 -24.5t-93.5 24.5zM753 700l-477 -700h-161l478 700h160zM237.5 487.5q13.5 13.5 13.5 32.5t-13.5 32.5t-32.5 13.5t-32.5 -13t-13.5 -33 q0 -19 13.5 -32.5t32.5 -13.5t32.5 13.5zM570.5 19.5q-42.5 24.5 -67 67t-24.5 93.5t24.5 93.5t67 67t93.5 24.5t93.5 -24.5t67 -67t24.5 -93.5t-24.5 -93.5t-67 -67t-93.5 -24.5t-93.5 24.5zM696.5 147.5q13.5 13.5 13.5 32.5t-13.5 32.5t-32.5 13.5t-32.5 -13.5 t-13.5 -32.5t13.5 -32.5t32.5 -13.5t32.5 13.5z" glyph-name="percent" horiz-adv-x="869" unicode="%"/>
<glyph d="M143.5 11.5q-63.5 26.5 -98.5 76t-35 114.5q0 77 45 129.5t123 68.5l-102 122v178h401v40h189v-257h-189v36q0 2 -2 2h-162l191 -227q12 39 14 55h-41v93h263v-168h-59q-2 0 -3 -2q-14 -49 -31 -83v-1h93v-188h-224l-26 31q-87 -46 -198 -46q-85 0 -148.5 26.5zM378 163 l-96 114h-12q-28 0 -45 -17t-17 -45q0 -30 23 -48t59 -18q49 0 88 14z" glyph-name="ampersand" horiz-adv-x="765" unicode="&amp;"/>
<glyph d="M238 700l-104 -279h-10l-104 279h218z" glyph-name="quotesingle" horiz-adv-x="259" unicode="'"/>
<glyph d="M245.5 -56.5q-73.5 58.5 -114.5 164.5t-41 242t41 242t114.5 164.5t168.5 58.5v-168q-43 0 -76.5 -37.5t-52 -105t-18.5 -154.5t18.5 -154t52 -104.5t76.5 -37.5v-169q-95 0 -168.5 58.5z" glyph-name="parenleft" horiz-adv-x="500" unicode="("/>
<glyph d="M254.5 756.5q73.5 -58.5 114.5 -164.5t41 -242t-41 -242t-114.5 -164.5t-168.5 -58.5v169q43 0 76.5 37.5t52 104.5t18.5 154t-18.5 154.5t-52 105t-76.5 37.5v168q95 0 168.5 -58.5z" glyph-name="parenright" horiz-adv-x="500" unicode=")"/>
<glyph d="M212 574h119l19 -69l-68 -20l-78 69l9 -100h-37l9 100l-77 -69l-69 20l19 69h119l-147 45v69l64 17l88 -105l-50 141l63 53l63 -53l-50 -141l88 105l64 -17v-69z" glyph-name="asterisk" horiz-adv-x="390" unicode="*"/>
<glyph d="M500 266h-136v-136h-168v136h-136v168h136v136h168v-136h136v-168z" glyph-name="plus" unicode="+"/>
<glyph d="M135 -5q-44 14 -67 45t-23 70q0 32 15 61t42.5 47t64.5 18q52 0 89.5 -33.5t37.5 -92.5q0 -51 -28 -109.5t-68 -90.5h-101q22 35 38 85z" glyph-name="comma" horiz-adv-x="329" unicode=","/>
<glyph d="M60 384h300v-168h-300v168z" glyph-name="hyphen" horiz-adv-x="400" unicode="-"/>
<glyph d="M81 24q-36 36 -36 88q0 53 35.5 88.5t88.5 35.5t88.5 -35.5t35.5 -88.5t-35.5 -88.5t-88.5 -35.5q-52 0 -88 36z" glyph-name="period" horiz-adv-x="339" unicode="."/>
<glyph d="M523 700l-338 -700h-184l338 700h184z" glyph-name="slash" horiz-adv-x="523" unicode="/"/>
<glyph d="M196 31q-74 46 -115 129t-41 190q0 104 42 187.5t116 130.5t167 47q95 0 169 -46t114.5 -129t40.5 -190q0 -104 -41.5 -187.5t-115.5 -130.5t-167 -47q-95 0 -169 46zM452.5 215q33.5 52 33.5 135t-33.5 135t-87.5 52t-88 -52t-34 -135t34 -135t88 -52t87.5 52z" glyph-name="zero" horiz-adv-x="730" unicode="0"/>
<glyph d="M44 171h141v292l-140 -85v201l199 121h129v-529h139v-171h-468v171z" glyph-name="one" horiz-adv-x="518" unicode="1"/>
<glyph d="M31 0v162l200 107l15 7l-14 1q-70 0 -118.5 30t-72 76.5t-23.5 94.5q0 61 35 115t102.5 88t162.5 34q86 0 154.5 -31t107 -86t38.5 -124q0 -70 -51 -133t-130 -103l-149 -74h154q2 0 2 2v46h194v-242h-194v30h-413zM391 405.5q30 23.5 30 62.5q0 40 -30 63.5t-80 23.5 q-49 0 -78 -23.5t-29 -63.5q0 -39 29 -62.5t78 -23.5q50 0 80 23.5z" glyph-name="two" horiz-adv-x="641" unicode="2"/>
<glyph d="M184 259q0 -22 14 -46t40.5 -40t63.5 -16q45 0 70 22.5t25 53.5q0 32 -23 51t-57 19q-36 0 -59 -20l-6 -5l-81 113l187 136h-155q-2 0 -2 -2v-64h-171v269h171v-30h368v-172l-151 -116h22q45 0 81.5 -25.5t56.5 -69.5t20 -97q0 -68 -33 -121.5t-91 -83.5t-132 -30 q-45 0 -92 20.5t-64 51.5v-57h-172v259h170z" glyph-name="three" horiz-adv-x="601" unicode="3"/>
<glyph d="M227 150h121v53h-328v163l301 334h226v-338h6h2v1h123v-161h-123v1h-8v-53h90v-150h-410v150zM349 349v163l-148 -163h148z" glyph-name="four" horiz-adv-x="692" unicode="4"/>
<glyph d="M196 210q11 -27 36.5 -41.5t55.5 -14.5q38 0 65.5 23.5t27.5 66.5q0 38 -27.5 60.5t-62.5 22.5q-27 0 -49.5 -11t-34.5 -33h-180l42 417h309q2 0 2 2v28h178v-235h-178v39h-162l-9 -103q59 30 129 30q65 0 121 -26.5t90 -77.5t34 -121q0 -74 -36.5 -129t-95 -84.5 t-120.5 -29.5q-83 0 -136 49v-42h-178v210h179z" glyph-name="five" horiz-adv-x="599" unicode="5"/>
<glyph d="M186.5 28q-69.5 43 -108 123.5t-38.5 188.5q0 112 40 197.5t107.5 131.5t146.5 46q29 0 63.5 -8.5t58.5 -23.5v32h156v-221h-188q-5 18 -25.5 31.5t-58.5 13.5q-54 0 -84.5 -42t-30.5 -100v-9q32 34 76 53t96 19q78 0 134 -31.5t84 -82.5t28 -109q0 -64 -34.5 -122 t-101.5 -94t-160 -36q-91 0 -160.5 43zM426 166.5q27 24.5 27 64.5q0 39 -27.5 63.5t-70.5 24.5q-45 0 -73 -24.5t-28 -63.5t28 -64t73 -25q44 0 71 24.5z" glyph-name="six" horiz-adv-x="663" unicode="6"/>
<glyph d="M190 169l6 18q32 97 80.5 185.5t105.5 156.5h-192q-2 0 -2 -2v-106h-178v319h178v-40h396v-171q-64 -70 -114 -158t-81 -185l-6 -17h126v-169h-424v169h105z" glyph-name="seven" horiz-adv-x="594" unicode="7"/>
<glyph d="M169 11.5q-71 26.5 -110 76t-39 114.5q0 51 29 91t83 66q-43 25 -67 62.5t-24 82.5q0 63 36 111t102.5 74t155.5 26t155.5 -26t102.5 -74t36 -111q0 -45 -24 -82.5t-67 -62.5q54 -26 83 -66t29 -91q0 -65 -39 -114.5t-110 -76t-166 -26.5t-166 26.5zM413 442.5 q29 18.5 29 49.5t-29 50t-78 19t-78 -19t-29 -50t29 -49.5t78 -18.5t78 18.5zM419.5 161.5q31.5 20.5 31.5 55.5q0 33 -31.5 53t-84.5 20t-84.5 -20t-31.5 -53q0 -35 31.5 -55.5t84.5 -20.5t84.5 20.5z" glyph-name="eight" horiz-adv-x="670" unicode="8"/>
<glyph d="M475.5 672q69.5 -43 108 -123.5t38.5 -188.5q0 -112 -40 -197.5t-107 -131.5t-147 -46q-29 0 -63 8.5t-58 23.5v-32h-156v221h187q5 -17 26 -31t59 -14q53 0 84 42t31 100v9q-32 -34 -76 -53t-96 -19q-79 0 -134.5 31t-83.5 82t-28 110q0 64 34.5 122t101.5 94t160 36 q90 0 159.5 -43zM236.5 533.5q-27.5 -24.5 -27.5 -64.5q0 -39 27.5 -63.5t71.5 -24.5q45 0 72.5 24.5t27.5 63.5t-27.5 64t-72.5 25q-44 0 -71.5 -24.5z" glyph-name="nine" horiz-adv-x="663" unicode="9"/>
<glyph d="M81 24q-36 36 -36 88q0 53 35.5 88.5t88.5 35.5t88.5 -35.5t35.5 -88.5t-35.5 -88.5t-88.5 -35.5q-52 0 -88 36zM81 305q-36 36 -36 88q0 53 35.5 88.5t88.5 35.5t88.5 -35.5t35.5 -88.5t-35.5 -88.5t-88.5 -35.5q-52 0 -88 36z" glyph-name="colon" horiz-adv-x="339" unicode=":"/>
<glyph d="M135 -5q-44 14 -67 45t-23 70q0 32 15 61t42.5 47t64.5 18q52 0 89.5 -33.5t37.5 -92.5q0 -51 -28 -109.5t-68 -90.5h-101q22 35 38 85zM81 305q-36 36 -36 88q0 53 35.5 88.5t88.5 35.5t88.5 -35.5t35.5 -88.5t-35.5 -88.5t-88.5 -35.5q-52 0 -88 36z" glyph-name="semicolon" horiz-adv-x="340" unicode=";"/>
<glyph d="M500 428l-161 -73l161 -73v-186l-440 200v108l440 200v-176z" glyph-name="less" unicode="&lt;"/>
<glyph d="M60 564h440v-169h-440v169zM60 305h440v-169h-440v169z" glyph-name="equal" unicode="="/>
<glyph d="M60 272l161 73l-161 73v186l440 -200v-108l-440 -200v176z" glyph-name="greater" unicode="&gt;"/>
<glyph d="M218 317q0 48 28.5 79t91.5 51q42 14 55.5 26t12.5 26q0 17 -21.5 28t-53.5 11q-50 0 -80 -26t-30 -74v-13h-187v290h179v-40q20 18 64.5 29t93.5 11q73 0 131 -25t91 -70.5t33 -104.5q0 -63 -42 -108t-136 -78q-31 -11 -40 -19.5t-9 -30.5h-177q-4 19 -4 38zM226.5 23.5 q-35.5 35.5 -35.5 88.5t35.5 88.5t88.5 35.5t88.5 -35.5t35.5 -88.5q0 -52 -35.5 -88t-88.5 -36t-88.5 35.5z" glyph-name="question" horiz-adv-x="659" unicode="?"/>
<glyph d="M225 -119q-84 48 -132 132t-48 185t48 185t132 132t185 48t185 -48t132 -132t48 -185q0 -107 -56 -198h-243v41q-27 -24 -64 -36.5t-79 -12.5q-65 0 -100.5 32t-35.5 87q0 115 197 127q39 2 56 9t17 20q0 25 -42 25q-27 0 -44.5 -10.5t-24.5 -28.5v-1h-109v158h106v-23 q41 25 98 25q75 0 117.5 -42.5t42.5 -116.5v-120h72q8 27 8 65q0 78 -37 142.5t-101.5 101.5t-142.5 37t-142.5 -37t-101.5 -101.5t-37 -142.5t37 -142.5t101.5 -101.5t142.5 -37q59 0 102 15t84 45l55 -64q-49 -39 -107 -59.5t-134 -20.5q-101 0 -185 48zM446.5 133 q28.5 23 28.5 49v5q-22 -12 -65 -17q-31 -4 -46 -12t-15 -23q0 -12 9 -18.5t26 -6.5q34 0 62.5 23z" glyph-name="at" horiz-adv-x="820" unicode="@"/>
<glyph d="M14 188h75l105 324h-84v188h465l153 -512h76v-188h-377v188h74l-14 52h-183l-15 -52h86v-188h-361v188zM449 379l-36 132h-30l-39 -132h105z" glyph-name="A" horiz-adv-x="818" unicode="A"/>
<glyph d="M105 188v324h-80v188h433q107 0 168.5 -48t61.5 -132q0 -57 -29.5 -98.5t-83.5 -62.5v-12q63 -18 98 -61t35 -106q0 -84 -61.5 -132t-168.5 -48h-453v188h80zM457.5 440q15.5 14 15.5 35q0 22 -15.5 35.5t-39.5 13.5h-113v-98h113q24 0 39.5 14zM474.5 190 q15.5 14 15.5 36t-16 36.5t-40 14.5h-129v-101h129q25 0 40.5 14z" glyph-name="B" horiz-adv-x="723" unicode="B"/>
<glyph d="M186 35.5q-79 45.5 -125 127.5t-46 187t46 187t125 127.5t173 45.5q87 0 145 -36v41h188v-319h-196q-12 53 -46 84.5t-81 31.5q-60 0 -98 -45.5t-38 -116.5t38 -116.5t98 -45.5q47 0 81 31.5t46 84.5h196v-314h-188v36q-58 -36 -145 -36q-94 0 -173 45.5z" glyph-name="C" horiz-adv-x="718" unicode="C"/>
<glyph d="M524 657q93 -43 143.5 -122.5t50.5 -184.5t-50.5 -184.5t-143.5 -122.5t-216 -43h-283v188h80v324h-80v188h283q123 0 216 -43zM455 230q45 42 45 120t-45 120t-132 42h-19v-324h19q87 0 132 42z" glyph-name="D" horiz-adv-x="733" unicode="D"/>
<glyph d="M25 0v188h80v324h-80v188h465v40h189v-344h-189v119q0 2 -2 2h-192v-78h17h2v2h120v-182h-120v2h-2h-17v-78h199q2 0 2 2v119h192v-354h-188v50h-476z" glyph-name="E" horiz-adv-x="704" unicode="E"/>
<glyph d="M105 188v324h-80v188h447v40h188v-334h-188v104q0 2 -2 2h-166v-68h22h2v2h105v-182h-105v2h-2h-22v-78h172v-188h-451v188h80z" glyph-name="F" horiz-adv-x="685" unicode="F"/>
<glyph d="M504 37.5q-2 0.5 -3 -0.5q-61 -52 -157 -52q-90 0 -165 46t-119.5 129t-44.5 190t44.5 190t121.5 129t170 46q92 0 153 -53v53h188v-270h-185v1q-20 28 -52.5 44.5t-71.5 16.5q-67 0 -109 -44t-42 -113q0 -74 40.5 -121.5t104.5 -47.5q43 0 75 18.5t51 49.5v1h-128v145 h388v-179h-51v-216h-206v35q0 2 -2 2.5z" glyph-name="G" horiz-adv-x="773" unicode="G"/>
<glyph d="M25 188h80v324h-80v188h359v-188h-80v-78h212v78h-80v188h359v-188h-80v-324h80v-188h-359v188h80v78h-212v-78h80v-188h-359v188z" glyph-name="H" horiz-adv-x="820" unicode="H"/>
<glyph d="M25 188h80v324h-80v188h359v-188h-80v-324h80v-188h-359v188z" glyph-name="I" horiz-adv-x="409" unicode="I"/>
<glyph d="M201 339v-34q0 -28 13 -51.5t31.5 -37t35.5 -13.5q34 0 56.5 28.5t22.5 73.5v207h-145v188h407v-188h-60v-262q0 -81 -28.5 -141t-80 -92t-117.5 -32q-40 0 -68.5 13t-65.5 45v-58h-187v354h186z" glyph-name="J" horiz-adv-x="637" unicode="J"/>
<glyph d="M25 188h80v324h-80v188h367v-188h-88v-78h97l53 78h-2v188h292v-188h-58l-105 -145l122 -179h52v-188h-312v188h3l-54 78h-88v-78h87v-188h-366v188z" glyph-name="K" horiz-adv-x="769" unicode="K"/>
<glyph d="M25 0v188h80v324h-80v188h407v-188h-128v-324h165q2 0 2 2v154h198v-394h-198v50h-446z" glyph-name="L" horiz-adv-x="684" unicode="L"/>
<glyph d="M25 188h80v324h-80v188h383l88 -458l87 458h382v-188h-80v-324h80v-188h-318v188h49v323h-7l-110 -511h-169l-110 511h-6v-323h49v-188h-318v188z" glyph-name="M" horiz-adv-x="990" unicode="M"/>
<glyph d="M294 422v-234h96v-188h-365v188h80v324h-80v188h326l208 -352v164h-65v188h318v-188h-65v-512h-201z" glyph-name="N" horiz-adv-x="832" unicode="N"/>
<glyph d="M195.5 32.5q-84.5 47.5 -132.5 131t-48 186.5t48 186.5t132.5 131t189.5 47.5t189.5 -47.5t132.5 -131t48 -186.5t-48 -186.5t-132.5 -131t-189.5 -47.5t-189.5 47.5zM490.5 241.5q41.5 43.5 41.5 108.5t-41.5 108.5t-105.5 43.5q-41 0 -75 -20t-53 -54.5t-19 -77.5 t19 -77.5t53 -54.5t75 -20q64 0 105.5 43.5z" glyph-name="O" horiz-adv-x="770" unicode="O"/>
<glyph d="M105 188v324h-80v188h411q122 0 192.5 -60t70.5 -165t-70.5 -165t-192.5 -60h-132v-62h136v-188h-415v188h80zM462 416.5q19 17.5 19 43.5q0 27 -19 44.5t-48 17.5h-110v-123h110q29 0 48 17.5z" glyph-name="P" horiz-adv-x="709" unicode="P"/>
<glyph d="M286 -12v44q-80 18 -141.5 65.5t-95.5 117.5t-34 153q0 98 47.5 177.5t131 124.5t186.5 45t186.5 -45t131 -124.5t47.5 -177.5q0 -83 -34 -153t-95.5 -117.5t-141.5 -65.5v-44h128v-188h-444v188h128zM455 225q34 20 53 54.5t19 77.5t-19 77.5t-53 54.5t-75 20t-75 -20 t-53 -54.5t-19 -77.5t19 -77.5t53 -54.5t75 -20t75 20z" glyph-name="Q" horiz-adv-x="761" unicode="Q"/>
<glyph d="M105 188v324h-80v188h431q112 0 177 -56t65 -154q0 -66 -30 -114t-86 -74l86 -114h57v-188h-302v188h3l-60 90h-62v-90h69v-188h-348v188h80zM462.5 425q17.5 16 17.5 40q0 25 -17.5 41t-44.5 16h-114v-113h114q27 0 44.5 16z" glyph-name="R" horiz-adv-x="744" unicode="R"/>
<glyph d="M209 265q16 -48 61.5 -79t94.5 -31q30 0 49.5 10t19.5 33q0 20 -27.5 32.5t-95.5 30.5l-35 10q-69 19 -122.5 43t-95 72.5t-41.5 125.5q0 68 33.5 113.5t88.5 67.5t121 22q108 0 179 -55v40h186v-260h-183v1q-19 41 -60.5 70t-93.5 29q-27 0 -42.5 -11.5t-15.5 -34.5 q0 -20 23.5 -30.5t76.5 -23.5q11 -4 21.5 -6.5t18.5 -4.5l23 -6q80 -22 130.5 -43.5t86.5 -65.5t36 -117q0 -72 -35 -119.5t-92.5 -70t-126.5 -22.5q-57 0 -105.5 18.5t-84.5 53.5v-57h-186v265h193z" glyph-name="S" horiz-adv-x="657" unicode="S"/>
<glyph d="M290 188v329h-80q-2 0 -2 -2v-134h-188v359h188v-40h362v40h189v-359h-189v134q0 2 -2 2h-80v-329h144v-188h-486v188h144z" glyph-name="T" horiz-adv-x="779" unicode="T"/>
<glyph d="M247.5 22.5q-72.5 37.5 -114 104.5t-41.5 153v232h-72v188h355v-188h-81v-224q0 -45 33.5 -75t83.5 -30q46 0 76 30t30 75v224h-80v188h355v-188h-73v-232q0 -86 -40 -153t-110 -104.5t-158 -37.5q-91 0 -163.5 37.5z" glyph-name="U" horiz-adv-x="811" unicode="U"/>
<glyph d="M76 512h-78v188h397v-188h-82l103 -324h13l103 324h-85v188h385v-188h-77l-178 -512h-324z" glyph-name="V" horiz-adv-x="830" unicode="V"/>
<glyph d="M76 512h-67v188h328v-188h-41l55 -323h10l55 322v1h-38v188h321v-188h-39l56 -323h10l55 323h-41v188h325v-188h-67l-107 -512h-282l-72 385l-72 -385h-282z" glyph-name="W" horiz-adv-x="1074" unicode="W"/>
<glyph d="M18 188h76l156 161l-158 163h-74v188h360v-188h-55l76 -82l75 82h-55v188h356v-188h-76l-156 -161l158 -163h74v-188h-360v188h55l-75 82l-76 -82h55v-188h-356v188z" glyph-name="X" horiz-adv-x="793" unicode="X"/>
<glyph d="M165 188h128v58l-216 266h-73v188h369v-188h-65l91 -113l91 113h-65v188h365v-188h-75l-214 -264v-60h128v-188h-464v188z" glyph-name="Y" horiz-adv-x="794" unicode="Y"/>
<glyph d="M351 517h-150q-2 0 -2 -2v-94h-184v319h189v-40h413v-168l-330 -349h154q2 0 2 2v114h194v-339h-194v40h-428v169z" glyph-name="Z" horiz-adv-x="652" unicode="Z"/>
<glyph d="M120 800h310v-168h-141v-563h141v-169h-310v900z" glyph-name="bracketleft" horiz-adv-x="500" unicode="["/>
<glyph d="M185 700l338 -700h-184l-338 700h184z" glyph-name="backslash" horiz-adv-x="524" unicode="\"/>
<glyph d="M70 -100v169h141v563h-141v168h310v-900h-310z" glyph-name="bracketright" horiz-adv-x="500" unicode="]"/>
<glyph d="M217 700h126l201 -349h-185l-80 140l-80 -140h-183z" glyph-name="asciicircum" unicode="^"/>
<glyph d="M30 20h440v-168h-440v168z" glyph-name="underscore" horiz-adv-x="499" unicode="_"/>
<glyph d="M54 29.5q-44 39.5 -44 108.5q0 142 244 157q48 3 69 11t21 25q0 30 -52 30q-33 0 -55 -12.5t-30 -35.5v-1h-159v198h155v-31q50 31 122 31q92 0 145 -52.5t53 -144.5v-144h48v-169h-216v50q-34 -29 -79.5 -44.5t-97.5 -15.5q-80 0 -124 39.5zM295 150q26 13 42.5 33.5 t16.5 42.5v6q-29 -16 -80 -22q-38 -5 -56.5 -15t-18.5 -29q0 -29 42 -29q28 0 54 13z" glyph-name="a" horiz-adv-x="591" unicode="a"/>
<glyph d="M242 34v-34h-152v532h-70v168h239v-222q53 32 122 32t123.5 -33.5t85 -92.5t30.5 -134q0 -76 -30 -135t-84.5 -92t-124.5 -33q-81 0 -139 44zM405.5 184.5q25.5 25.5 25.5 65.5t-25.5 66t-65.5 26t-65.5 -26t-25.5 -66t25.5 -65.5t65.5 -25.5t65.5 25.5z" glyph-name="b" horiz-adv-x="635" unicode="b"/>
<glyph d="M270 -10q-71 0 -129.5 34t-92 93.5t-33.5 132.5t33.5 132.5t92 93.5t129.5 34q67 0 117 -31v31h155v-226h-167v1q-9 26 -33 42.5t-54 16.5q-40 0 -66 -27t-26 -67t26 -66.5t66 -26.5q30 0 54 16t33 42v1h168v-226h-156v32q-49 -32 -117 -32z" glyph-name="c" horiz-adv-x="578" unicode="c"/>
<glyph d="M129.5 22q-54.5 32 -84.5 90t-30 133q0 73 30.5 131t85 91t123.5 33q68 0 122 -31v63h-75v168h244v-531h65v-169h-217v33q-58 -43 -139 -43q-70 0 -124.5 32zM360.5 184.5q25.5 25.5 25.5 65.5t-25.5 66t-65.5 26t-65.5 -26t-25.5 -66t25.5 -65.5t65.5 -25.5t65.5 25.5z " glyph-name="d" horiz-adv-x="630" unicode="d"/>
<glyph d="M262 -10q-69 0 -125.5 30.5t-89 87.5t-32.5 133q0 80 35 141t96.5 94.5t139.5 33.5t138 -33t93.5 -92t33.5 -136q0 -26 -4 -47h-359q10 -31 35.5 -49t63.5 -18q42 0 67 27h184v-172h-157v34q-49 -34 -119 -34zM338.5 346.5q-25.5 16.5 -57.5 16.5q-31 0 -55.5 -16 t-35.5 -45h185q-11 28 -36.5 44.5z" glyph-name="e" horiz-adv-x="574" unicode="e"/>
<glyph d="M85 169v163h-65v168h65v51q0 53 21 91.5t57 58t78 19.5q24 0 47.5 -7t41.5 -19v26h157v-190h-157v7q0 16 -12 26.5t-31 10.5t-31 -10.5t-12 -27.5v-36h171v-168h-161v-1v-162h98v-169h-332v169h65z" glyph-name="f" horiz-adv-x="412" unicode="f"/>
<glyph d="M120.5 -168.5q-69.5 41.5 -69.5 120.5q0 31 18.5 55t50.5 39q-59 10 -89.5 47t-30.5 84q0 34 21.5 63.5t63.5 39.5h1q-12 26 -12 57q0 66 49 110t143 53v37h-101v162h339v-162h-101v-37q6 1 18 1q51 0 91.5 -23.5t62.5 -61.5t22 -79q0 -82 -70 -127.5t-192 -45.5 q-44 0 -71.5 6.5t-60.5 17.5q-23 9 -31 9q-11 0 -19.5 -6t-8.5 -15q0 -23 43.5 -32.5t148.5 -9.5q121 0 191 -45.5t70 -124.5q0 -81 -74 -127.5t-202 -46.5q-131 0 -200.5 41.5zM398 304q23 11 23 31q0 22 -22.5 33t-63.5 11q-40 0 -62.5 -11.5t-22.5 -32.5q0 -20 22.5 -31 t62.5 -11t63 11zM395.5 -66q25.5 11 25.5 31q0 21 -25.5 32.5t-71.5 11.5t-71 -11.5t-25 -32.5q0 -20 25 -31t71 -11t71.5 11z" glyph-name="g" horiz-adv-x="600" unicode="g"/>
<glyph d="M85 169v363h-70v168h239v-225q49 35 114 35q60 0 106.5 -27.5t72 -77t25.5 -112.5v-124h48v-169h-272v169h52v98q0 32 -20.5 53.5t-52.5 21.5t-52.5 -21.5t-20.5 -53.5v-98h53v-169h-287v169h65z" glyph-name="h" horiz-adv-x="640" unicode="h"/>
<glyph d="M20 169h66v163h-66v168h234v-331h66v-169h-300v169zM34 745h238l-114 -200h-10z" glyph-name="i" horiz-adv-x="340" unicode="i"/>
<glyph d="M44 -24v-2q0 -13 12 -22t29 -9q18 0 29 11.5t11 28.5v134v215h-108v168h277v-541q0 -51 -22 -89.5t-58 -59t-76 -20.5q-22 0 -46.5 9t-41.5 25v-34h-156v186h150zM78 745h238l-114 -200h-10z" glyph-name="j" horiz-adv-x="340" unicode="j"/>
<glyph d="M25 169h65v363h-70v168h239v-390h49l38 52h-2v138h226v-168h-65l-48 -69l66 -94h65v-169h-244v138h2l-38 52h-49v-51h45v-139h-279v169z" glyph-name="k" horiz-adv-x="603" unicode="k"/>
<glyph d="M25 169h66v363h-71v168h239v-531h66v-169h-300v169z" glyph-name="l" horiz-adv-x="345" unicode="l"/>
<glyph d="M85 169v163h-65v168h217v-36q52 46 126 46q88 0 142 -59q57 59 146 59q102 0 160.5 -58t58.5 -159v-124h48v-169h-268v169h48v98q0 32 -19 53.5t-49 21.5t-49 -21.5t-19 -53.5v-98h47v-169h-267v169h48v98q0 32 -19 53.5t-49 21.5t-49 -21.5t-19 -53.5v-98h48v-169h-282 v169h65z" glyph-name="m" horiz-adv-x="938" unicode="m"/>
<glyph d="M85 169v163h-65v168h217v-38q54 48 131 48q60 0 106.5 -27.5t72 -77t25.5 -112.5v-124h48v-169h-272v169h52v98q0 32 -20.5 53.5t-52.5 21.5t-52.5 -21.5t-20.5 -53.5v-98h53v-169h-287v169h65z" glyph-name="n" horiz-adv-x="640" unicode="n"/>
<glyph d="M149.5 23q-63.5 33 -99 92t-35.5 135q0 75 36 134t100 92.5t144 33.5q82 0 145.5 -33t99 -92t35.5 -135q0 -75 -36 -134t-100 -92.5t-144 -33.5q-82 0 -145.5 33zM361.5 184.5q25.5 25.5 25.5 65.5q0 41 -25.5 66.5t-66.5 25.5q-40 0 -65.5 -25.5t-25.5 -66.5 q0 -40 25.5 -65.5t65.5 -25.5q41 0 66.5 25.5z" glyph-name="o" horiz-adv-x="590" unicode="o"/>
<glyph d="M85 -32v364h-65v168h217v-34q58 44 139 44q70 0 124.5 -33t84.5 -92t30 -135q0 -75 -30.5 -134t-85 -92.5t-123.5 -33.5t-122 32v-63h121v-159h-355v168h65zM401 184.5q26 25.5 26 65.5t-26 66t-66 26q-39 0 -65 -26t-26 -66t26 -65.5t65 -25.5q40 0 66 25.5z" glyph-name="p" horiz-adv-x="630" unicode="p"/>
<glyph d="M376 -41v63q-53 -32 -122 -32t-123.5 33.5t-85 92.5t-30.5 134q0 76 30.5 135t84.5 92t124 33q81 0 139 -44v34h217v-168h-65v-364h65v-168h-355v159h121zM360.5 184.5q25.5 25.5 25.5 65.5t-25.5 66t-65.5 26t-65.5 -26t-25.5 -66t25.5 -65.5t65.5 -25.5t65.5 25.5z" glyph-name="q" horiz-adv-x="630" unicode="q"/>
<glyph d="M85 169v163h-65v168h217v-39q11 20 30 32t40 12q28 0 53 -18v23h156v-249h-156v22q0 25 -14.5 41.5t-37.5 16.5t-38.5 -17t-15.5 -42v-113h115v-169h-349v169h65z" glyph-name="r" horiz-adv-x="527" unicode="r"/>
<glyph d="M151 187q16 -30 50 -48.5t73 -18.5q19 0 31 6t12 17q0 14 -19 21.5t-81 21.5q-86 18 -141 54t-55 113q0 78 55 117.5t136 39.5q68 0 120 -23v23h150v-198h-139v1q-13 26 -40.5 44t-61.5 18q-42 0 -42 -24q0 -13 15.5 -20t49.5 -14l25 -6q79 -21 117.5 -35t65.5 -45.5 t27 -87.5q0 -79 -57.5 -118.5t-142.5 -39.5q-82 0 -138 39v-24h-146v187h136z" glyph-name="s" horiz-adv-x="513" unicode="s"/>
<glyph d="M124 38.5q-39 38.5 -39 111.5v182h-85v168h21q41 0 62.5 22t21.5 62v36h149v-120h141v-168h-141v-123q0 -20 10.5 -30.5t30.5 -10.5l100 1v-169h-159q-73 0 -112 38.5z" glyph-name="t" horiz-adv-x="415" unicode="t"/>
<glyph d="M166.5 17.5q-46.5 27.5 -72.5 77t-26 112.5v125h-48v168h220v-267q0 -32 20.5 -53t52.5 -21t52.5 21t20.5 53v99h-75v168h309v-168h-65v-163h65v-169h-217v38q-54 -48 -130 -48q-60 0 -106.5 27.5z" glyph-name="u" horiz-adv-x="640" unicode="u"/>
<glyph d="M74 332h-56v168h288v-168h-42l59 -173h5l60 173h-41v168h282v-168h-56l-135 -332h-228z" glyph-name="v" horiz-adv-x="647" unicode="v"/>
<glyph d="M64 332h-45v168h224v-168h-1l20 -216h7l47 216h-32v168h266v-168h-30l43 -216h7l22 216h-1v168h227v-168h-46l-68 -332h-244l-44 216l-44 -216h-240z" glyph-name="w" horiz-adv-x="837" unicode="w"/>
<glyph d="M15 169h72l82 80l-84 83h-70v168h270v-125h-40l56 -68l56 68h-41v125h268v-168h-72l-83 -81l85 -82h70v-169h-271v125h41l-56 68l-56 -68h40v-125h-267v169z" glyph-name="x" horiz-adv-x="599" unicode="x"/>
<glyph d="M183 59v-59q0 -24 10.5 -38t25.5 -14q12 0 20 7t8 19v2q0 14 -11 38l-162 318h-55v168h292v-168h-41l46 -105l28 -64v0l56 169h-48v168h277v-168h-58l-119 -276q-13 -32 -13 -64v-22q0 -52 -20.5 -93t-56.5 -64t-81 -23q-59 0 -95 46v-36h-158v259h155z" glyph-name="y" horiz-adv-x="638" unicode="y"/>
<glyph d="M16 0v144l243 217h-88q-2 0 -2 -2v-53h-153v229h156v-35h303v-144l-232 -209h96q2 0 2 2v56h154v-235h-154v30h-325z" glyph-name="z" horiz-adv-x="505" unicode="z"/>
<glyph d="M178.5 -82q-45.5 33 -45.5 111q0 39 16 111q12 58 12 78q0 26 -11 37t-34 11h-51v168h51q23 0 34 11t11 37q0 20 -12 78q-16 72 -16 111q0 78 45.5 111t125.5 33q51 0 126 -15v-169q-45 14 -75 14q-45 0 -45 -41q0 -15 5 -43q9 -54 9 -81q0 -56 -23.5 -86.5t-76.5 -43.5 q53 -13 76.5 -43.5t23.5 -86.5q0 -27 -9 -81q-5 -28 -5 -43q0 -41 45 -41q30 0 75 14v-169q-75 -15 -126 -15q-80 0 -125.5 33z" glyph-name="braceleft" horiz-adv-x="500" unicode="{"/>
<glyph d="M120 800h169v-900h-169v900z" glyph-name="bar" horiz-adv-x="409" unicode="|"/>
<glyph d="M321.5 782q45.5 -33 45.5 -111q0 -39 -16 -111q-12 -58 -12 -78q0 -26 11 -37t34 -11h51v-168h-51q-23 0 -34 -11t-11 -37q0 -20 12 -78q16 -72 16 -111q0 -78 -45.5 -111t-125.5 -33q-51 0 -126 15v169q45 -14 75 -14q45 0 45 41q0 15 -5 43q-9 54 -9 81q0 56 23.5 86.5 t76.5 43.5q-53 13 -76.5 43.5t-23.5 86.5q0 27 9 81q5 28 5 43q0 41 -45 41q-30 0 -75 -14v169q75 15 126 15q80 0 125.5 -33z" glyph-name="braceright" horiz-adv-x="500" unicode="}"/>
<glyph d="M91 412.5q35 49.5 98 49.5q31 0 51 -8.5t39 -22.5q23 -15 35 -15q23 0 23 32h169q0 -103 -35 -152.5t-98 -49.5q-31 0 -51 8.5t-39 22.5q-23 15 -35 15q-23 0 -23 -32h-169q0 103 35 152.5z" glyph-name="asciitilde" unicode="~"/>
<glyph glyph-name="uni00A0" horiz-adv-x="250" unicode=" "/>
<glyph d="M281.5 476.5q35.5 -35.5 35.5 -88.5q0 -52 -35.5 -88t-88.5 -36t-88.5 35.5t-35.5 88.5t35.5 88.5t88.5 35.5t88.5 -35.5zM360 -12v-188h-335v188h80l18 216h139l18 -216h80z" glyph-name="exclamdown" horiz-adv-x="385" unicode="¡"/>
<glyph d="M155 138q-50 36 -78 91.5t-28 122.5t28 122.5t78 91.5t113 44v120h139v-142l14 -7v31h155v-226h-167v1q-9 26 -33 42.5t-54 16.5q-40 0 -66 -27t-26 -67t26 -66.5t66 -26.5q30 0 54 16t33 42v1h168v-226h-156v32q-7 -5 -14 -8v-146h-139v124q-63 8 -113 44z" glyph-name="cent" horiz-adv-x="700" unicode="¢"/>
<glyph d="M36.5 22q-43.5 37 -43.5 102q0 59 38.5 99.5t108.5 40.5q28 0 55 -6l-5 9l-15 27h-131v112h71q-19 50 -19 96q0 64 29 112.5t80.5 74.5t117.5 26q78 0 135 -37v22h159v-234h-183v1q-5 40 -27 60t-51 20t-48 -19t-19 -54q0 -28 15 -68h192v-112h-154q11 -39 11 -82 q0 -14 -1 -21q32 -16 55.5 -24.5t43.5 -8.5q24 0 34.5 14t10.5 45q0 13 -2 33h179q5 -29 5 -61q0 -114 -61.5 -159t-138.5 -45q-51 0 -96.5 17.5t-90.5 47.5q-30 -32 -69.5 -48.5t-80.5 -16.5q-61 0 -104.5 37zM169.5 100.5q15.5 7.5 27.5 21.5q-40 30 -61 30q-13 0 -21 -8 t-8 -21q0 -14 8.5 -22t24.5 -8q14 0 29.5 7.5z" glyph-name="sterling" horiz-adv-x="700" unicode="£"/>
<glyph d="M93 226q-27 59 -27 124t27 124l-95 95l133 133l95 -95q59 27 124 27t124 -27l95 95l133 -133l-95 -95q27 -59 27 -124t-27 -124l95 -95l-133 -133l-95 95q-59 -27 -124 -27t-124 27l-95 -95l-133 133zM418.5 282q27.5 28 27.5 68q0 41 -27.5 68.5t-68.5 27.5 q-40 0 -68 -27.5t-28 -68.5q0 -40 28 -68t68 -28q41 0 68.5 28z" glyph-name="currency" horiz-adv-x="700" unicode="¤"/>
<glyph d="M144 147h114v41h-237v111h199l-30 41h-169v111h88l-44 61h-65v188h329v-188h-58l81 -113l81 113h-58v188h325v-188h-66l-44 -61h89v-111h-169l-30 -41h199v-111h-236v-41h114v-147h-413v147z" glyph-name="yen" horiz-adv-x="700" unicode="¥"/>
<glyph d="M120 800h169v-380h-169v380zM120 280h169v-380h-169v380z" glyph-name="brokenbar" horiz-adv-x="409" unicode="¦"/>
<glyph d="M212.5 -76.5q-61.5 23.5 -101.5 72.5t-46 121h198q2 -24 26 -41.5t60 -17.5q29 0 48.5 6t19.5 20q0 16 -18 24.5t-74 18.5q-95 17 -151.5 35t-92 52.5t-37.5 93.5q0 77 85 119q-42 39 -45 112q0 63 37 103.5t95.5 59t124.5 18.5q112 0 189 -50.5t87 -161.5h-196 q-8 26 -31 38.5t-52 12.5q-27 0 -44 -5.5t-17 -22.5q0 -16 22.5 -24t82.5 -18q91 -16 148.5 -34.5t92 -52t34.5 -87.5q0 -77 -82 -124q42 -40 42 -107q0 -55 -34 -97t-95 -64.5t-140 -22.5q-74 0 -135.5 23.5zM440.5 273q17.5 10 17.5 28q0 26 -39 36t-125 19 q-22 0 -39.5 -10t-17.5 -28q0 -25 40 -35.5t124 -19.5q22 0 39.5 10z" glyph-name="section" horiz-adv-x="700" unicode="§"/>
<glyph d="M225 33q-84 48 -132 132t-48 185t48 185t132 132t185 48t185 -48t132 -132t48 -185t-48 -185t-132 -132t-185 -48t-185 48zM554.5 102q65.5 38 103.5 103.5t38 144.5t-38 144.5t-103.5 103.5t-144.5 38t-144.5 -38t-103.5 -103.5t-38 -144.5t38 -144.5t103.5 -103.5 t144.5 -38t144.5 38zM384 144q-57 0 -103.5 27.5t-73.5 75t-27 105.5t27 105.5t73.5 75t103.5 27.5q53 0 94 -25v15h124v-171h-134v1q-7 21 -26 34t-44 13q-31 0 -52 -21.5t-21 -53.5t21 -53.5t52 -21.5q25 0 44 13t26 34v1h134v-171h-124v15q-41 -25 -94 -25z" glyph-name="copyright" horiz-adv-x="820" unicode="©"/>
<glyph d="M234 300l109 -200h-206l-106 194v12l106 194h206zM532 300l109 -200h-206l-106 194v12l106 194h206z" glyph-name="guillemotleft" horiz-adv-x="672" unicode="«"/>
<glyph d="M500 434v-304h-169v136h-271v168h440z" glyph-name="logicalnot" unicode="¬"/>
<glyph d="M138.5 378.5q-41.5 23.5 -65 65t-23.5 91.5t23.5 91.5t65 65t91.5 23.5t91.5 -23.5t65 -65t23.5 -91.5t-23.5 -91.5t-65 -65t-91.5 -23.5t-91.5 23.5zM311.5 396q36.5 21 57.5 57.5t21 81.5t-21 81.5t-57.5 57.5t-81.5 21t-81.5 -21t-57.5 -57.5t-21 -81.5t21 -81.5 t57.5 -57.5t81.5 -21t81.5 21zM152 493v94h-24v55h126q33 0 52 -16.5t19 -44.5q0 -40 -34 -55l25 -33h17v-55h-88v55l-17 26h-18v-26h20v-55h-102v55h24zM256 562.5q5 4.5 5 11.5t-5 11.5t-13 4.5h-33v-32h33q8 0 13 4.5z" glyph-name="registered" horiz-adv-x="460" unicode="®"/>
<glyph d="M109 417q-37 21 -58 57.5t-21 80.5t21 81t58 58t81 21t80.5 -21t57.5 -58t21 -81t-21 -80.5t-57.5 -57.5t-80.5 -21t-81 21zM225.5 519.5q14.5 14.5 14.5 35.5q0 22 -14.5 36.5t-35.5 14.5q-22 0 -36.5 -14.5t-14.5 -36.5q0 -21 14.5 -35.5t36.5 -14.5q21 0 35.5 14.5z " glyph-name="degree" horiz-adv-x="379" unicode="°"/>
<glyph d="M364 534h136v-169h-136v-135h-168v135h-136v169h136v135h168v-135zM60 1v169h440v-169h-440z" glyph-name="plusminus" unicode="±"/>
<glyph d="M290 -12v312h-9q-62 0 -112.5 26.5t-79.5 72t-29 101.5t29 101.5t79.5 72t112.5 26.5h298v-188h-81v-524h81v-188h-425v188h136z" glyph-name="paragraph" horiz-adv-x="645" unicode="¶"/>
<glyph d="M81 215q-36 36 -36 88q0 53 35.5 88.5t88.5 35.5t88.5 -35.5t35.5 -88.5t-35.5 -88.5t-88.5 -35.5q-52 0 -88 36z" glyph-name="periodcentered" horiz-adv-x="339" unicode="·"/>
<glyph d="M439 300l-109 200h206l106 -194v-12l-106 -194h-206zM140 300l-109 200h206l106 -194v-12l-106 -194h-206z" glyph-name="guillemotright" horiz-adv-x="672" unicode="»"/>
<glyph d="M423.5 476.5q35.5 -35.5 35.5 -88.5q0 -52 -35.5 -88t-88.5 -36t-88.5 35.5t-35.5 88.5t35.5 88.5t88.5 35.5t88.5 -35.5zM431 183q0 -48 -28.5 -79t-91.5 -51q-42 -14 -55.5 -26t-12.5 -26q0 -17 21.5 -28t54.5 -11q49 0 79 26t30 74v13h187v-290h-179v40 q-20 -18 -64.5 -29t-93.5 -11q-73 0 -131 25t-90.5 70.5t-32.5 104.5q0 63 42 108t135 78q31 11 40 20t9 30h177q4 -19 4 -38z" glyph-name="questiondown" horiz-adv-x="649" unicode="¿"/>
<glyph d="M14 188h75l105 324h-84v188h465l153 -512h76v-188h-377v188h74l-14 52h-183l-15 -52h86v-188h-361v188zM449 379l-36 132h-30l-39 -132h105zM303 785l-67 160h182l66 -160h-181z" glyph-name="Agrave" horiz-adv-x="818" unicode="À"/>
<glyph d="M14 188h75l105 324h-84v188h465l153 -512h76v-188h-377v188h74l-14 52h-183l-15 -52h86v-188h-361v188zM449 379l-36 132h-30l-39 -132h105zM386 945h182l-67 -160h-181z" glyph-name="Aacute" horiz-adv-x="818" unicode="Á"/>
<glyph d="M14 188h75l105 324h-84v188h465l153 -512h76v-188h-377v188h74l-14 52h-183l-15 -52h86v-188h-361v188zM449 379l-36 132h-30l-39 -132h105zM442 785l-40 57l-40 -57h-191l114 160h234l114 -160h-191z" glyph-name="Acircumflex" horiz-adv-x="818" unicode="Â"/>
<glyph d="M14 188h75l105 324h-84v188h465l153 -512h76v-188h-377v188h74l-14 52h-183l-15 -52h86v-188h-361v188zM449 379l-36 132h-30l-39 -132h105zM229 914q32 45 89 45q24 0 41.5 -7t40.5 -21t32 -14q21 0 21 34h154q0 -95 -32 -140t-89 -45q-24 0 -41.5 7t-40.5 21t-32 14 q-21 0 -21 -33h-154q0 94 32 139z" glyph-name="Atilde" horiz-adv-x="818" unicode="Ã"/>
<glyph d="M14 188h75l105 324h-84v188h465l153 -512h76v-188h-377v188h74l-14 52h-183l-15 -52h86v-188h-361v188zM449 379l-36 132h-30l-39 -132h105zM601 945l-103 -200h-9l-87 169l-87 -169h-9l-103 200h398z" glyph-name="Adieresis" horiz-adv-x="818" unicode="Ä"/>
<glyph d="M14 188h75l105 324h-84v188h465l153 -512h76v-188h-377v188h74l-14 52h-183l-15 -52h86v-188h-361v188zM449 379l-36 132h-30l-39 -132h105zM329 759.5q-33 19.5 -52.5 53t-19.5 72.5t19.5 72.5t52.5 53t73 19.5q39 0 72.5 -19.5t53 -53t19.5 -72.5t-19.5 -72.5t-53 -53 t-72.5 -19.5q-40 0 -73 19.5zM420.5 867.5q7.5 7.5 7.5 17.5q0 11 -7.5 18.5t-18.5 7.5t-18.5 -7.5t-7.5 -18.5q0 -10 7.5 -17.5t18.5 -7.5t18.5 7.5z" glyph-name="Aring" horiz-adv-x="818" unicode="Å"/>
<glyph d="M427 0v188h74l-14 52h-183l-15 -52h86v-188h-361v188h75l105 324h-84v188h742v40h188v-344h-188v119q0 2 -2 2h-242l23 -78h62h2v2h101v-182h-101v2h-2h-9l23 -78h149q2 0 2 2v119h192v-354h-188v50h-435zM449 379l-36 132h-30l-39 -132h105z" glyph-name="AE" horiz-adv-x="1066" unicode="Æ"/>
<glyph d="M186 35.5q-79 45.5 -125 127.5t-46 187t46 187t125 127.5t173 45.5q87 0 145 -36v41h188v-319h-196q-12 53 -46 84.5t-81 31.5q-60 0 -98 -45.5t-38 -116.5t38 -116.5t98 -45.5q47 0 81 31.5t46 84.5h196v-314h-188v36q-58 -36 -145 -36q-94 0 -173 45.5zM209 -245 l67 160h181l-66 -160h-182z" glyph-name="Ccedilla" horiz-adv-x="718" unicode="Ç"/>
<glyph d="M25 0v188h80v324h-80v188h465v40h189v-344h-189v119q0 2 -2 2h-192v-78h17h2v2h120v-182h-120v2h-2h-17v-78h199q2 0 2 2v119h192v-354h-188v50h-476zM245 785l-67 160h182l66 -160h-181z" glyph-name="Egrave" horiz-adv-x="704" unicode="È"/>
<glyph d="M25 0v188h80v324h-80v188h465v40h189v-344h-189v119q0 2 -2 2h-192v-78h17h2v2h120v-182h-120v2h-2h-17v-78h199q2 0 2 2v119h192v-354h-188v50h-476zM328 945h182l-67 -160h-181z" glyph-name="Eacute" horiz-adv-x="704" unicode="É"/>
<glyph d="M25 0v188h80v324h-80v188h465v40h189v-344h-189v119q0 2 -2 2h-192v-78h17h2v2h120v-182h-120v2h-2h-17v-78h199q2 0 2 2v119h192v-354h-188v50h-476zM384 785l-40 57l-40 -57h-191l114 160h234l114 -160h-191z" glyph-name="Ecircumflex" horiz-adv-x="704" unicode="Ê"/>
<glyph d="M25 0v188h80v324h-80v188h465v40h189v-344h-189v119q0 2 -2 2h-192v-78h17h2v2h120v-182h-120v2h-2h-17v-78h199q2 0 2 2v119h192v-354h-188v50h-476zM543 945l-103 -200h-9l-87 169l-87 -169h-9l-103 200h398z" glyph-name="Edieresis" horiz-adv-x="704" unicode="Ë"/>
<glyph d="M25 188h80v324h-80v188h359v-188h-80v-324h80v-188h-359v188zM106 785l-67 160h182l66 -160h-181z" glyph-name="Igrave" horiz-adv-x="409" unicode="Ì"/>
<glyph d="M25 188h80v324h-80v188h359v-188h-80v-324h80v-188h-359v188zM189 945h182l-67 -160h-181z" glyph-name="Iacute" horiz-adv-x="409" unicode="Í"/>
<glyph d="M25 188h80v324h-80v188h359v-188h-80v-324h80v-188h-359v188zM245 785l-40 57l-40 -57h-191l114 160h234l114 -160h-191z" glyph-name="Icircumflex" horiz-adv-x="409" unicode="Î"/>
<glyph d="M25 188h80v324h-80v188h359v-188h-80v-324h80v-188h-359v188zM403 945l-103 -200h-9l-87 169l-87 -169h-9l-103 200h398z" glyph-name="Idieresis" horiz-adv-x="409" unicode="Ï"/>
<glyph d="M105 188v92h-80v140h80v92h-80v188h283q123 0 216 -43t143.5 -122.5t50.5 -184.5t-50.5 -184.5t-143.5 -122.5t-216 -43h-283v188h80zM455 230q45 42 45 120t-45 120t-132 42h-19v-92h92v-140h-92v-92h19q87 0 132 42z" glyph-name="Eth" horiz-adv-x="733" unicode="Ð"/>
<glyph d="M294 422v-234h96v-188h-365v188h80v324h-80v188h326l208 -352v164h-65v188h318v-188h-65v-512h-201zM243 914q32 45 89 45q24 0 41.5 -7t40.5 -21t32 -14q21 0 21 34h154q0 -95 -32 -140t-89 -45q-24 0 -41.5 7t-40.5 21t-32 14q-21 0 -21 -33h-154q0 94 32 139z" glyph-name="Ntilde" horiz-adv-x="832" unicode="Ñ"/>
<glyph d="M195.5 32.5q-84.5 47.5 -132.5 131t-48 186.5t48 186.5t132.5 131t189.5 47.5t189.5 -47.5t132.5 -131t48 -186.5t-48 -186.5t-132.5 -131t-189.5 -47.5t-189.5 47.5zM490.5 241.5q41.5 43.5 41.5 108.5t-41.5 108.5t-105.5 43.5q-41 0 -75 -20t-53 -54.5t-19 -77.5 t19 -77.5t53 -54.5t75 -20q64 0 105.5 43.5zM286 785l-67 160h182l66 -160h-181z" glyph-name="Ograve" horiz-adv-x="770" unicode="Ò"/>
<glyph d="M195.5 32.5q-84.5 47.5 -132.5 131t-48 186.5t48 186.5t132.5 131t189.5 47.5t189.5 -47.5t132.5 -131t48 -186.5t-48 -186.5t-132.5 -131t-189.5 -47.5t-189.5 47.5zM490.5 241.5q41.5 43.5 41.5 108.5t-41.5 108.5t-105.5 43.5q-41 0 -75 -20t-53 -54.5t-19 -77.5 t19 -77.5t53 -54.5t75 -20q64 0 105.5 43.5zM369 945h182l-67 -160h-181z" glyph-name="Oacute" horiz-adv-x="770" unicode="Ó"/>
<glyph d="M195.5 32.5q-84.5 47.5 -132.5 131t-48 186.5t48 186.5t132.5 131t189.5 47.5t189.5 -47.5t132.5 -131t48 -186.5t-48 -186.5t-132.5 -131t-189.5 -47.5t-189.5 47.5zM490.5 241.5q41.5 43.5 41.5 108.5t-41.5 108.5t-105.5 43.5q-41 0 -75 -20t-53 -54.5t-19 -77.5 t19 -77.5t53 -54.5t75 -20q64 0 105.5 43.5zM425 785l-40 57l-40 -57h-191l114 160h234l114 -160h-191z" glyph-name="Ocircumflex" horiz-adv-x="770" unicode="Ô"/>
<glyph d="M195.5 32.5q-84.5 47.5 -132.5 131t-48 186.5t48 186.5t132.5 131t189.5 47.5t189.5 -47.5t132.5 -131t48 -186.5t-48 -186.5t-132.5 -131t-189.5 -47.5t-189.5 47.5zM490.5 241.5q41.5 43.5 41.5 108.5t-41.5 108.5t-105.5 43.5q-41 0 -75 -20t-53 -54.5t-19 -77.5 t19 -77.5t53 -54.5t75 -20q64 0 105.5 43.5zM212 914q32 45 89 45q24 0 41.5 -7t40.5 -21t32 -14q21 0 21 34h154q0 -95 -32 -140t-89 -45q-24 0 -41.5 7t-40.5 21t-32 14q-21 0 -21 -33h-154q0 94 32 139z" glyph-name="Otilde" horiz-adv-x="770" unicode="Õ"/>
<glyph d="M195.5 32.5q-84.5 47.5 -132.5 131t-48 186.5t48 186.5t132.5 131t189.5 47.5t189.5 -47.5t132.5 -131t48 -186.5t-48 -186.5t-132.5 -131t-189.5 -47.5t-189.5 47.5zM490.5 241.5q41.5 43.5 41.5 108.5t-41.5 108.5t-105.5 43.5q-41 0 -75 -20t-53 -54.5t-19 -77.5 t19 -77.5t53 -54.5t75 -20q64 0 105.5 43.5zM584 945l-103 -200h-9l-87 169l-87 -169h-9l-103 200h398z" glyph-name="Odieresis" horiz-adv-x="770" unicode="Ö"/>
<glyph d="M37 226l124 124l-124 124l119 119l124 -124l124 124l119 -119l-124 -124l124 -124l-119 -119l-124 124l-124 -124z" glyph-name="multiply" unicode="×"/>
<glyph d="M229 17l-11 -17h-181l73 100q-46 49 -70.5 113t-24.5 137q0 103 48 186.5t132.5 131t189.5 47.5q84 0 156 -32l12 17h181l-74 -100q46 -49 70.5 -113t24.5 -137q0 -103 -48 -186.5t-132.5 -131t-189.5 -47.5q-84 0 -156 32zM385 512q-44 0 -80 -21t-56.5 -58t-20.5 -83 q0 -38 15 -71l169 230q-12 3 -27 3zM465 209q36 21 56.5 58t20.5 83q0 37 -14 71l-170 -230q13 -3 27 -3q44 0 80 21z" glyph-name="Oslash" horiz-adv-x="770" unicode="Ø"/>
<glyph d="M247.5 22.5q-72.5 37.5 -114 104.5t-41.5 153v232h-72v188h355v-188h-81v-224q0 -45 33.5 -75t83.5 -30q46 0 76 30t30 75v224h-80v188h355v-188h-73v-232q0 -86 -40 -153t-110 -104.5t-158 -37.5q-91 0 -163.5 37.5zM307 785l-67 160h182l66 -160h-181z" glyph-name="Ugrave" horiz-adv-x="811" unicode="Ù"/>
<glyph d="M247.5 22.5q-72.5 37.5 -114 104.5t-41.5 153v232h-72v188h355v-188h-81v-224q0 -45 33.5 -75t83.5 -30q46 0 76 30t30 75v224h-80v188h355v-188h-73v-232q0 -86 -40 -153t-110 -104.5t-158 -37.5q-91 0 -163.5 37.5zM390 945h182l-67 -160h-181z" glyph-name="Uacute" horiz-adv-x="811" unicode="Ú"/>
<glyph d="M247.5 22.5q-72.5 37.5 -114 104.5t-41.5 153v232h-72v188h355v-188h-81v-224q0 -45 33.5 -75t83.5 -30q46 0 76 30t30 75v224h-80v188h355v-188h-73v-232q0 -86 -40 -153t-110 -104.5t-158 -37.5q-91 0 -163.5 37.5zM446 785l-40 57l-40 -57h-191l114 160h234l114 -160 h-191z" glyph-name="Ucircumflex" horiz-adv-x="811" unicode="Û"/>
<glyph d="M247.5 22.5q-72.5 37.5 -114 104.5t-41.5 153v232h-72v188h355v-188h-81v-224q0 -45 33.5 -75t83.5 -30q46 0 76 30t30 75v224h-80v188h355v-188h-73v-232q0 -86 -40 -153t-110 -104.5t-158 -37.5q-91 0 -163.5 37.5zM605 945l-103 -200h-9l-87 169l-87 -169h-9l-103 200 h398z" glyph-name="Udieresis" horiz-adv-x="811" unicode="Ü"/>
<glyph d="M165 188h128v58l-216 266h-73v188h369v-188h-65l91 -113l91 113h-65v188h365v-188h-75l-214 -264v-60h128v-188h-464v188zM381 945h182l-67 -160h-181z" glyph-name="Yacute" horiz-adv-x="794" unicode="Ý"/>
<glyph d="M105 188v324h-80v188h415v-151h-136v-43h181q95 0 148.5 -41t53.5 -115q0 -73 -53.5 -114.5t-148.5 -41.5h-181v-43h136v-151h-415v188h80zM467 312q12 11 12 28t-12 28t-30 11h-133v-78h133q18 0 30 11z" glyph-name="Thorn" horiz-adv-x="707" unicode="Þ"/>
<glyph d="M105 -32v364h-105v168h105v12q0 108 59 168t163 60q52 0 95.5 -16t75.5 -46v42h157v-348h-95q-14 2 -22 2q-19 0 -34 -6t-15 -18q0 -10 12 -14.5t46 -11.5l33 -7q94 -22 143 -59.5t49 -103.5q0 -50 -29.5 -88.5t-75 -59.5t-90.5 -21q-56 0 -116 39v-24h-147v187h142 q17 -33 37.5 -49.5t56.5 -17.5q19 0 32.5 8t13.5 24q0 11 -13.5 16.5t-62.5 17.5q-65 15 -104.5 31t-65.5 47.5t-26 85.5q0 67 43.5 103.5t112.5 51.5v5q0 23 -32 41t-88 18q-48 0 -75 -17t-27 -49q0 -11 5 -33q6 -30 8.5 -52t2.5 -60v-399h120v-159h-394v168h105z" glyph-name="germandbls" horiz-adv-x="779" unicode="ß"/>
<glyph d="M54 29.5q-44 39.5 -44 108.5q0 142 244 157q48 3 69 11t21 25q0 30 -52 30q-33 0 -55 -12.5t-30 -35.5v-1h-159v198h155v-31q50 31 122 31q92 0 145 -52.5t53 -144.5v-144h48v-169h-216v50q-34 -29 -79.5 -44.5t-97.5 -15.5q-80 0 -124 39.5zM295 150q26 13 42.5 33.5 t16.5 42.5v6q-29 -16 -80 -22q-38 -5 -56.5 -15t-18.5 -29q0 -29 42 -29q28 0 54 13zM179 585l-67 160h182l66 -160h-181z" glyph-name="agrave" horiz-adv-x="591" unicode="à"/>
<glyph d="M54 29.5q-44 39.5 -44 108.5q0 142 244 157q48 3 69 11t21 25q0 30 -52 30q-33 0 -55 -12.5t-30 -35.5v-1h-159v198h155v-31q50 31 122 31q92 0 145 -52.5t53 -144.5v-144h48v-169h-216v50q-34 -29 -79.5 -44.5t-97.5 -15.5q-80 0 -124 39.5zM295 150q26 13 42.5 33.5 t16.5 42.5v6q-29 -16 -80 -22q-38 -5 -56.5 -15t-18.5 -29q0 -29 42 -29q28 0 54 13zM262 745h182l-67 -160h-181z" glyph-name="aacute" horiz-adv-x="591" unicode="á"/>
<glyph d="M54 29.5q-44 39.5 -44 108.5q0 142 244 157q48 3 69 11t21 25q0 30 -52 30q-33 0 -55 -12.5t-30 -35.5v-1h-159v198h155v-31q50 31 122 31q92 0 145 -52.5t53 -144.5v-144h48v-169h-216v50q-34 -29 -79.5 -44.5t-97.5 -15.5q-80 0 -124 39.5zM295 150q26 13 42.5 33.5 t16.5 42.5v6q-29 -16 -80 -22q-38 -5 -56.5 -15t-18.5 -29q0 -29 42 -29q28 0 54 13zM318 585l-40 57l-40 -57h-191l114 160h234l114 -160h-191z" glyph-name="acircumflex" horiz-adv-x="591" unicode="â"/>
<glyph d="M54 29.5q-44 39.5 -44 108.5q0 142 244 157q48 3 69 11t21 25q0 30 -52 30q-33 0 -55 -12.5t-30 -35.5v-1h-159v198h155v-31q50 31 122 31q92 0 145 -52.5t53 -144.5v-144h48v-169h-216v50q-34 -29 -79.5 -44.5t-97.5 -15.5q-80 0 -124 39.5zM295 150q26 13 42.5 33.5 t16.5 42.5v6q-29 -16 -80 -22q-38 -5 -56.5 -15t-18.5 -29q0 -29 42 -29q28 0 54 13zM105 714q32 45 89 45q24 0 41.5 -7t40.5 -21t32 -14q21 0 21 34h154q0 -95 -32 -140t-89 -45q-24 0 -41.5 7t-40.5 21t-32 14q-21 0 -21 -33h-154q0 94 32 139z" glyph-name="atilde" horiz-adv-x="591" unicode="ã"/>
<glyph d="M54 29.5q-44 39.5 -44 108.5q0 142 244 157q48 3 69 11t21 25q0 30 -52 30q-33 0 -55 -12.5t-30 -35.5v-1h-159v198h155v-31q50 31 122 31q92 0 145 -52.5t53 -144.5v-144h48v-169h-216v50q-34 -29 -79.5 -44.5t-97.5 -15.5q-80 0 -124 39.5zM295 150q26 13 42.5 33.5 t16.5 42.5v6q-29 -16 -80 -22q-38 -5 -56.5 -15t-18.5 -29q0 -29 42 -29q28 0 54 13zM477 745l-103 -200h-9l-87 169l-87 -169h-9l-103 200h398z" glyph-name="adieresis" horiz-adv-x="591" unicode="ä"/>
<glyph d="M54 29.5q-44 39.5 -44 108.5q0 142 244 157q48 3 69 11t21 25q0 30 -52 30q-33 0 -55 -12.5t-30 -35.5v-1h-159v198h155v-31q50 31 122 31q92 0 145 -52.5t53 -144.5v-144h48v-169h-216v50q-34 -29 -79.5 -44.5t-97.5 -15.5q-80 0 -124 39.5zM295 150q26 13 42.5 33.5 t16.5 42.5v6q-29 -16 -80 -22q-38 -5 -56.5 -15t-18.5 -29q0 -29 42 -29q28 0 54 13zM205 559.5q-33 19.5 -52.5 53t-19.5 72.5t19.5 72.5t52.5 53t73 19.5q39 0 72.5 -19.5t53 -53t19.5 -72.5t-19.5 -72.5t-53 -53t-72.5 -19.5q-40 0 -73 19.5zM296.5 667.5 q7.5 7.5 7.5 17.5q0 11 -7.5 18.5t-18.5 7.5t-18.5 -7.5t-7.5 -18.5q0 -10 7.5 -17.5t18.5 -7.5t18.5 7.5z" glyph-name="aring" horiz-adv-x="591" unicode="å"/>
<glyph d="M594 -10q-53 0 -99.5 20.5t-78.5 58.5q-96 -79 -208 -79q-98 0 -148 39t-50 109q0 142 244 157q48 3 69 11t21 25q0 30 -52 30q-33 0 -55 -12.5t-30 -35.5v-1h-159v198h155v-31q50 31 122 31q85 0 134 -49q66 49 159 49q78 0 138 -33t93.5 -92t33.5 -136q0 -26 -4 -47 h-360q11 -32 36.5 -49.5t63.5 -17.5q40 0 67 27h183v-172h-156v34q-49 -34 -119 -34zM669.5 346.5q-25.5 16.5 -56.5 16.5t-56 -16t-36 -45h186q-12 28 -37.5 44.5zM295 150q26 13 42.5 33.5t16.5 42.5v6q-29 -16 -80 -22q-38 -5 -56.5 -15t-18.5 -29q0 -29 42 -29 q28 0 54 13z" glyph-name="ae" horiz-adv-x="906" unicode="æ"/>
<glyph d="M270 -10q-71 0 -129.5 34t-92 93.5t-33.5 132.5t33.5 132.5t92 93.5t129.5 34q67 0 117 -31v31h155v-226h-167v1q-9 26 -33 42.5t-54 16.5q-40 0 -66 -27t-26 -67t26 -66.5t66 -26.5q30 0 54 16t33 42v1h168v-226h-156v32q-49 -32 -117 -32zM142 -245l67 160h181 l-66 -160h-182z" glyph-name="ccedilla" horiz-adv-x="578" unicode="ç"/>
<glyph d="M262 -10q-69 0 -125.5 30.5t-89 87.5t-32.5 133q0 80 35 141t96.5 94.5t139.5 33.5t138 -33t93.5 -92t33.5 -136q0 -26 -4 -47h-359q10 -31 35.5 -49t63.5 -18q42 0 67 27h184v-172h-157v34q-49 -34 -119 -34zM338.5 346.5q-25.5 16.5 -57.5 16.5q-31 0 -55.5 -16 t-35.5 -45h185q-11 28 -36.5 44.5zM182 585l-67 160h182l66 -160h-181z" glyph-name="egrave" horiz-adv-x="574" unicode="è"/>
<glyph d="M262 -10q-69 0 -125.5 30.5t-89 87.5t-32.5 133q0 80 35 141t96.5 94.5t139.5 33.5t138 -33t93.5 -92t33.5 -136q0 -26 -4 -47h-359q10 -31 35.5 -49t63.5 -18q42 0 67 27h184v-172h-157v34q-49 -34 -119 -34zM338.5 346.5q-25.5 16.5 -57.5 16.5q-31 0 -55.5 -16 t-35.5 -45h185q-11 28 -36.5 44.5zM265 745h182l-67 -160h-181z" glyph-name="eacute" horiz-adv-x="574" unicode="é"/>
<glyph d="M262 -10q-69 0 -125.5 30.5t-89 87.5t-32.5 133q0 80 35 141t96.5 94.5t139.5 33.5t138 -33t93.5 -92t33.5 -136q0 -26 -4 -47h-359q10 -31 35.5 -49t63.5 -18q42 0 67 27h184v-172h-157v34q-49 -34 -119 -34zM338.5 346.5q-25.5 16.5 -57.5 16.5q-31 0 -55.5 -16 t-35.5 -45h185q-11 28 -36.5 44.5zM321 585l-40 57l-40 -57h-191l114 160h234l114 -160h-191z" glyph-name="ecircumflex" horiz-adv-x="574" unicode="ê"/>
<glyph d="M262 -10q-69 0 -125.5 30.5t-89 87.5t-32.5 133q0 80 35 141t96.5 94.5t139.5 33.5t138 -33t93.5 -92t33.5 -136q0 -26 -4 -47h-359q10 -31 35.5 -49t63.5 -18q42 0 67 27h184v-172h-157v34q-49 -34 -119 -34zM338.5 346.5q-25.5 16.5 -57.5 16.5q-31 0 -55.5 -16 t-35.5 -45h185q-11 28 -36.5 44.5zM480 745l-103 -200h-9l-87 169l-87 -169h-9l-103 200h398z" glyph-name="edieresis" horiz-adv-x="574" unicode="ë"/>
<glyph d="M20 169h66v163h-66v168h234v-331h66v-169h-300v169zM54 585l-67 160h182l66 -160h-181z" glyph-name="igrave" horiz-adv-x="340" unicode="ì"/>
<glyph d="M20 169h66v163h-66v168h234v-331h66v-169h-300v169zM137 745h182l-67 -160h-181z" glyph-name="iacute" horiz-adv-x="340" unicode="í"/>
<glyph d="M20 169h66v163h-66v168h234v-331h66v-169h-300v169zM193 585l-40 57l-40 -57h-191l114 160h234l114 -160h-191z" glyph-name="icircumflex" horiz-adv-x="340" unicode="î"/>
<glyph d="M20 169h66v163h-66v168h234v-331h66v-169h-300v169zM352 745l-103 -200h-9l-87 169l-87 -169h-9l-103 200h398z" glyph-name="idieresis" horiz-adv-x="340" unicode="ï"/>
<glyph d="M495 479q37 -63 58.5 -115t21.5 -114q0 -74 -35.5 -133.5t-99.5 -93t-147 -33.5q-79 0 -142.5 33t-99.5 91t-36 131q0 71 33 128t91.5 91t132.5 36l-10 19l-7 12h-134v119h69l-33 60h207l34 -60h118v-119h-51l12 -22zM357 188q25 25 25 62t-25 62t-62 25t-61.5 -25 t-24.5 -62t24.5 -62t61.5 -25t62 25z" glyph-name="eth" horiz-adv-x="590" unicode="ð"/>
<glyph d="M85 169v163h-65v168h217v-38q54 48 131 48q60 0 106.5 -27.5t72 -77t25.5 -112.5v-124h48v-169h-272v169h52v98q0 32 -20.5 53.5t-52.5 21.5t-52.5 -21.5t-20.5 -53.5v-98h53v-169h-287v169h65zM144 714q32 45 89 45q24 0 41.5 -7t40.5 -21t32 -14q21 0 21 34h154 q0 -95 -32 -140t-89 -45q-24 0 -41.5 7t-40.5 21t-32 14q-21 0 -21 -33h-154q0 94 32 139z" glyph-name="ntilde" horiz-adv-x="640" unicode="ñ"/>
<glyph d="M149.5 23q-63.5 33 -99 92t-35.5 135q0 75 36 134t100 92.5t144 33.5q82 0 145.5 -33t99 -92t35.5 -135q0 -75 -36 -134t-100 -92.5t-144 -33.5q-82 0 -145.5 33zM361.5 184.5q25.5 25.5 25.5 65.5q0 41 -25.5 66.5t-66.5 25.5q-40 0 -65.5 -25.5t-25.5 -66.5 q0 -40 25.5 -65.5t65.5 -25.5q41 0 66.5 25.5zM196 585l-67 160h182l66 -160h-181z" glyph-name="ograve" horiz-adv-x="590" unicode="ò"/>
<glyph d="M149.5 23q-63.5 33 -99 92t-35.5 135q0 75 36 134t100 92.5t144 33.5q82 0 145.5 -33t99 -92t35.5 -135q0 -75 -36 -134t-100 -92.5t-144 -33.5q-82 0 -145.5 33zM361.5 184.5q25.5 25.5 25.5 65.5q0 41 -25.5 66.5t-66.5 25.5q-40 0 -65.5 -25.5t-25.5 -66.5 q0 -40 25.5 -65.5t65.5 -25.5q41 0 66.5 25.5zM279 745h182l-67 -160h-181z" glyph-name="oacute" horiz-adv-x="590" unicode="ó"/>
<glyph d="M149.5 23q-63.5 33 -99 92t-35.5 135q0 75 36 134t100 92.5t144 33.5q82 0 145.5 -33t99 -92t35.5 -135q0 -75 -36 -134t-100 -92.5t-144 -33.5q-82 0 -145.5 33zM361.5 184.5q25.5 25.5 25.5 65.5q0 41 -25.5 66.5t-66.5 25.5q-40 0 -65.5 -25.5t-25.5 -66.5 q0 -40 25.5 -65.5t65.5 -25.5q41 0 66.5 25.5zM335 585l-40 57l-40 -57h-191l114 160h234l114 -160h-191z" glyph-name="ocircumflex" horiz-adv-x="590" unicode="ô"/>
<glyph d="M149.5 23q-63.5 33 -99 92t-35.5 135q0 75 36 134t100 92.5t144 33.5q82 0 145.5 -33t99 -92t35.5 -135q0 -75 -36 -134t-100 -92.5t-144 -33.5q-82 0 -145.5 33zM361.5 184.5q25.5 25.5 25.5 65.5q0 41 -25.5 66.5t-66.5 25.5q-40 0 -65.5 -25.5t-25.5 -66.5 q0 -40 25.5 -65.5t65.5 -25.5q41 0 66.5 25.5zM122 714q32 45 89 45q24 0 41.5 -7t40.5 -21t32 -14q21 0 21 34h154q0 -95 -32 -140t-89 -45q-24 0 -41.5 7t-40.5 21t-32 14q-21 0 -21 -33h-154q0 94 32 139z" glyph-name="otilde" horiz-adv-x="590" unicode="õ"/>
<glyph d="M149.5 23q-63.5 33 -99 92t-35.5 135q0 75 36 134t100 92.5t144 33.5q82 0 145.5 -33t99 -92t35.5 -135q0 -75 -36 -134t-100 -92.5t-144 -33.5q-82 0 -145.5 33zM361.5 184.5q25.5 25.5 25.5 65.5q0 41 -25.5 66.5t-66.5 25.5q-40 0 -65.5 -25.5t-25.5 -66.5 q0 -40 25.5 -65.5t65.5 -25.5q41 0 66.5 25.5zM494 745l-103 -200h-9l-87 169l-87 -169h-9l-103 200h398z" glyph-name="odieresis" horiz-adv-x="590" unicode="ö"/>
<glyph d="M206 520q-30 30 -30 74q0 45 30 75t74 30q45 0 74.5 -30t29.5 -75q0 -44 -29.5 -74t-74.5 -30q-44 0 -74 30zM38 434h484v-168h-484v168zM206 32q-30 30 -30 74t30 74t74 30t74 -30t30 -74t-30 -74t-74 -30t-74 30z" glyph-name="divide" unicode="÷"/>
<glyph d="M179 10l-8 -10h-161l67 80q-62 68 -62 170q0 75 36 134t100 92.5t144 33.5q62 0 116 -20l9 10h161l-66 -80q29 -33 44.5 -76.5t15.5 -93.5q0 -75 -36 -134t-100 -92.5t-144 -33.5q-62 0 -116 20zM286 346q-40 0 -68.5 -28t-28.5 -68q0 -15 4 -27l102 123h-9zM372.5 182 q28.5 28 28.5 68q0 14 -3 27l-102 -123h7q41 0 69.5 28z" glyph-name="oslash" horiz-adv-x="590" unicode="ø"/>
<glyph d="M166.5 17.5q-46.5 27.5 -72.5 77t-26 112.5v125h-48v168h220v-267q0 -32 20.5 -53t52.5 -21t52.5 21t20.5 53v99h-75v168h309v-168h-65v-163h65v-169h-217v38q-54 -48 -130 -48q-60 0 -106.5 27.5zM214 585l-67 160h182l66 -160h-181z" glyph-name="ugrave" horiz-adv-x="640" unicode="ù"/>
<glyph d="M166.5 17.5q-46.5 27.5 -72.5 77t-26 112.5v125h-48v168h220v-267q0 -32 20.5 -53t52.5 -21t52.5 21t20.5 53v99h-75v168h309v-168h-65v-163h65v-169h-217v38q-54 -48 -130 -48q-60 0 -106.5 27.5zM297 745h182l-67 -160h-181z" glyph-name="uacute" horiz-adv-x="640" unicode="ú"/>
<glyph d="M166.5 17.5q-46.5 27.5 -72.5 77t-26 112.5v125h-48v168h220v-267q0 -32 20.5 -53t52.5 -21t52.5 21t20.5 53v99h-75v168h309v-168h-65v-163h65v-169h-217v38q-54 -48 -130 -48q-60 0 -106.5 27.5zM353 585l-40 57l-40 -57h-191l114 160h234l114 -160h-191z" glyph-name="ucircumflex" horiz-adv-x="640" unicode="û"/>
<glyph d="M166.5 17.5q-46.5 27.5 -72.5 77t-26 112.5v125h-48v168h220v-267q0 -32 20.5 -53t52.5 -21t52.5 21t20.5 53v99h-75v168h309v-168h-65v-163h65v-169h-217v38q-54 -48 -130 -48q-60 0 -106.5 27.5zM512 745l-103 -200h-9l-87 169l-87 -169h-9l-103 200h398z" glyph-name="udieresis" horiz-adv-x="640" unicode="ü"/>
<glyph d="M183 59v-59q0 -24 10.5 -38t25.5 -14q12 0 20 7t8 19v2q0 14 -11 38l-162 318h-55v168h292v-168h-41l46 -105l28 -64v0l56 169h-48v168h277v-168h-58l-119 -276q-13 -32 -13 -64v-22q0 -52 -20.5 -93t-56.5 -64t-81 -23q-59 0 -95 46v-36h-158v259h155zM308 745h182 l-67 -160h-181z" glyph-name="yacute" horiz-adv-x="638" unicode="ý"/>
<glyph d="M90 -32v564h-70v168h239v-223q52 33 122 33t124.5 -33t84.5 -92t30 -135q0 -75 -30.5 -134t-85 -92.5t-123.5 -33.5t-122 32v-63h121v-159h-355v168h65zM405.5 184.5q25.5 25.5 25.5 65.5t-25.5 66t-65.5 26t-65.5 -26t-25.5 -66t25.5 -65.5t65.5 -25.5t65.5 25.5z" glyph-name="thorn" horiz-adv-x="635" unicode="þ"/>
<glyph d="M20 169h66v163h-66v168h234v-331h66v-169h-300v169z" glyph-name="dotlessi" horiz-adv-x="340" unicode="ı"/>
<glyph d="M44 -24v-2q0 -13 12 -22t29 -9q18 0 29 11.5t11 28.5v134v215h-108v168h277v-541q0 -51 -22 -89.5t-58 -59t-76 -20.5q-22 0 -46.5 9t-41.5 25v-34h-156v186h150z" glyph-name="uni0237" horiz-adv-x="340" unicode="ȷ"/>
<glyph d="M-399 585l-67 160h182l66 -160h-181z" glyph-name="gravecomb" horiz-adv-x="0" unicode="̀"/>
<glyph d="M-316 745h182l-67 -160h-181z" glyph-name="acutecomb" horiz-adv-x="0" unicode="́"/>
<glyph d="M-260 585l-40 57l-40 -57h-191l114 160h234l114 -160h-191z" glyph-name="uni0302" horiz-adv-x="0" unicode="̂"/>
<glyph d="M-473 714q32 45 89 45q24 0 41.5 -7t40.5 -21t32 -14q21 0 21 34h154q0 -95 -32 -140t-89 -45q-24 0 -41.5 7t-40.5 21t-32 14q-21 0 -21 -33h-154q0 94 32 139z" glyph-name="tildecomb" horiz-adv-x="0" unicode="̃"/>
<glyph d="M-419 745h238l-114 -200h-10z" glyph-name="uni0307" horiz-adv-x="0" unicode="̇"/>
<glyph d="M-101 745l-103 -200h-9l-87 169l-87 -169h-9l-103 200h398z" glyph-name="uni0308" horiz-adv-x="0" unicode="̈"/>
<glyph d="M-373 559.5q-33 19.5 -52.5 53t-19.5 72.5t19.5 72.5t52.5 53t73 19.5q39 0 72.5 -19.5t53 -53t19.5 -72.5t-19.5 -72.5t-53 -53t-72.5 -19.5q-40 0 -73 19.5zM-281.5 667.5q7.5 7.5 7.5 17.5q0 11 -7.5 18.5t-18.5 7.5t-18.5 -7.5t-7.5 -18.5q0 -10 7.5 -17.5t18.5 -7.5 t18.5 7.5z" glyph-name="uni030A" horiz-adv-x="0" unicode="̊"/>
<glyph d="M-456 -245l67 160h181l-66 -160h-182z" glyph-name="uni0327" horiz-adv-x="0" unicode="̧"/>
<glyph d="M60 384h440v-168h-440v168z" glyph-name="endash" horiz-adv-x="540" unicode="–"/>
<glyph d="M234 350l109 -200h-206l-106 194v12l106 194h206zM532 350l109 -200h-206l-106 194v12l106 194h206z" glyph-name="guillemotleft.case" horiz-adv-x="672"/>
<glyph d="M439 350l-109 200h206l106 -194v-12l-106 -194h-206zM140 350l-109 200h206l106 -194v-12l-106 -194h-206z" glyph-name="guillemotright.case" horiz-adv-x="672"/>
<glyph d="M225 33q-84 48 -132 132t-48 185t48 185t132 132t185 48t185 -48t132 -132t48 -185q0 -107 -56 -198h-243v41q-27 -24 -64 -36.5t-79 -12.5q-65 0 -100.5 32t-35.5 87q0 115 197 127q39 2 56 9t17 20q0 25 -42 25q-27 0 -44.5 -10.5t-24.5 -28.5v-1h-109v158h106v-23 q41 25 98 25q75 0 117.5 -42.5t42.5 -116.5v-120h72q8 27 8 65q0 78 -37 142.5t-101.5 101.5t-142.5 37t-142.5 -37t-101.5 -101.5t-37 -142.5t37 -142.5t101.5 -101.5t142.5 -37q59 0 102 15t84 45l55 -64q-49 -39 -107 -59.5t-134 -20.5q-101 0 -185 48zM446.5 285 q28.5 23 28.5 49v5q-22 -12 -65 -17q-31 -4 -46 -12t-15 -23q0 -12 9 -18.5t26 -6.5q34 0 62.5 23z" glyph-name="at.case" horiz-adv-x="820"/>
</font>
</defs>
</svg>
