<?xml version="1.0" encoding="UTF-8"?>
<!DOCTYPE svg  PUBLIC '-//W3C//DTD SVG 1.1//EN'  'http://www.w3.org/Graphics/SVG/1.1/DTD/svg11.dtd'>
<svg version="1.1" xmlns="http://www.w3.org/2000/svg">
<defs>
<font id="KyivTypeSerif-Light2" horiz-adv-x="560">
<font-face font-family="KyivType Serif Light2" font-weight="300" ascent="800" bbox="-487 -245 1047 1026" cap-height="700" descent="-200" panose-1="0 0 4 0 0 0 0 0 0 0" underline-position="-100" underline-thickness="50" unicode-range="U+0020-2013" units-per-em="1000" x-height="500"/>
<missing-glyph/>
<glyph glyph-name="space" horiz-adv-x="250" unicode=" "/>
<glyph d="M141 663h-114v37h282v-37h-114l-6 -459h-43zM136 6.5q-13 13.5 -13 32.5t13 32t32 13t32 -13t13 -32t-13 -32.5t-32 -13.5t-32 13.5z" glyph-name="exclam" horiz-adv-x="335" unicode="!"/>
<glyph d="M116 700l-29 -184h-10l-29 184h68zM268 700l-29 -184h-10l-29 184h68z" glyph-name="quotedbl" horiz-adv-x="316" unicode='"'/>
<glyph d="M472 467v-234h144v-53h-144v-195h-35v195h-173v-195h-35v195h-145v53h145v234h-145v53h145v195h35v-195h173v195h35v-195h144v-53h-144zM437 467h-173v-234h173v234z" glyph-name="numbersign" horiz-adv-x="700" unicode="#"/>
<glyph d="M225.5 23.5q-56.5 29.5 -92.5 75.5v-122h-37v296h37v-62q0 -48 38.5 -92t101.5 -70.5t134 -26.5q89 0 144 38t55 99q0 43 -30.5 71.5t-75.5 46t-124 39.5q-86 25 -139 47.5t-90 63.5t-37 105q0 84 66 133.5t175 49.5h4v115h32v-118q64 -5 118.5 -32t87.5 -67v129h37v-287 h-36v57q0 38 -36.5 77t-95.5 63.5t-122 24.5q-87 0 -137.5 -36t-50.5 -98q0 -47 30.5 -77.5t77 -49t128.5 -41.5q84 -24 137.5 -46t89.5 -60.5t36 -96.5q0 -57 -31.5 -99t-88.5 -65t-131 -23h-13v-115h-32v118q-73 6 -129.5 35.5z" glyph-name="dollar" horiz-adv-x="700" unicode="$"/>
<glyph d="M118 401.5q-37 21.5 -58.5 59t-21.5 82.5t21.5 82t58.5 58.5t82 21.5t82.5 -21.5t59 -58.5t21.5 -82t-21.5 -82.5t-59 -59t-82.5 -21.5t-82 21.5zM598 700l-406 -700h-36l406 700h36zM287 449.5q35 37.5 35 93.5t-35 93t-87 37t-86.5 -37t-34.5 -93t34.5 -93.5 t86.5 -37.5t87 37.5zM470.5 16.5q-37.5 21.5 -59 59t-21.5 82.5t21.5 82t59 58.5t82.5 21.5t82 -21.5t58.5 -58.5t21.5 -82t-21.5 -82.5t-58.5 -59t-82 -21.5t-82.5 21.5zM640 64.5q35 37.5 35 93.5q0 55 -35 92.5t-87 37.5t-87 -37.5t-35 -92.5q0 -56 35 -93.5t87 -37.5 t87 37.5z" glyph-name="percent" horiz-adv-x="737" unicode="%"/>
<glyph d="M154 12q-57 27 -88 75.5t-31 112.5q0 59 29 104.5t82 71.5t122 27h6l-204 256v41h440v67h37v-247h-36v124q0 7 -11 13.5t-19 6.5h-347l403 -505q48 73 61 179h-115v35h272v-35h-106q-6 0 -12 -10q-20 -114 -77 -196l75 -95h113v-37h-151l-74 91q-44 -51 -104 -78.5 t-132 -27.5q-76 0 -133 27zM500 118l-201 254h-21q-87 -2 -138.5 -48.5t-51.5 -121.5q0 -82 54 -132.5t145 -50.5q131 0 213 99z" glyph-name="ampersand" horiz-adv-x="748" unicode="&amp;"/>
<glyph d="M116 700l-29 -184h-10l-29 184h68z" glyph-name="quotesingle" horiz-adv-x="164" unicode="'"/>
<glyph d="M235 -57q-59 58 -91.5 163.5t-32.5 243.5t32.5 243.5t91.5 163.5t137 58v-34q-63 0 -110.5 -53t-73.5 -150.5t-26 -227.5t26 -227.5t73.5 -150.5t110.5 -53v-34q-78 0 -137 58z" glyph-name="parenleft" horiz-adv-x="500" unicode="("/>
<glyph d="M265 757q59 -58 91.5 -163.5t32.5 -243.5t-32.5 -243.5t-91.5 -163.5t-137 -58v34q63 0 110.5 53t73.5 150.5t26 227.5t-26 227.5t-73.5 150.5t-110.5 53v34q78 0 137 -58z" glyph-name="parenright" horiz-adv-x="500" unicode=")"/>
<glyph d="M212 574h119l19 -69l-68 -20l-78 69l9 -100h-37l9 100l-77 -69l-69 20l19 69h119l-147 45v69l64 17l88 -105l-50 141l63 53l63 -53l-50 -141l88 105l64 -17v-69z" glyph-name="asterisk" horiz-adv-x="390" unicode="*"/>
<glyph d="M482 333h-184v-185h-35v185h-185v35h185v184h35v-184h184v-35z" glyph-name="plus" unicode="+"/>
<glyph d="M76 -89q20 19 34.5 43t19.5 46q-4 -4 -12 -4q-18 1 -29.5 13.5t-11.5 29.5q0 18 13 31.5t32 13.5q20 0 32.5 -13t12.5 -35q0 -29 -18 -68t-40 -58h-33v1z" glyph-name="comma" horiz-adv-x="242" unicode=","/>
<glyph d="M78 320h246v-39h-246v39z" glyph-name="hyphen" horiz-adv-x="400" unicode="-"/>
<glyph d="M90 6.5q-13 13.5 -13 32.5t13 32t32 13t32 -13t13 -32q0 -20 -13 -33t-32 -13t-32 13.5z" glyph-name="period" horiz-adv-x="244" unicode="."/>
<glyph d="M420 700l-338 -700h-37l338 700h37z" glyph-name="slash" horiz-adv-x="465" unicode="/"/>
<glyph d="M201.5 32q-67.5 47 -105.5 130.5t-38 187.5t38 187.5t105.5 130.5t152.5 47t152.5 -47t106 -130t38.5 -188q0 -104 -38.5 -187.5t-106 -130.5t-152.5 -47t-152.5 47zM477.5 62q54.5 42 85.5 117.5t31 170.5t-31 170.5t-85.5 118t-123.5 42.5t-123.5 -42.5t-85 -118 t-30.5 -170.5t30.5 -170.5t85 -117.5t123.5 -42t123.5 42z" glyph-name="zero" horiz-adv-x="708" unicode="0"/>
<glyph d="M12 35h172v608l-155 -111v42l175 126h34v-665h149v-35h-375v35z" glyph-name="one" horiz-adv-x="379" unicode="1"/>
<glyph d="M46 0v35l305 210q69 48 110 100q-59 -53 -163 -53q-75 0 -134.5 27.5t-93 75.5t-33.5 107q0 60 34.5 108.5t95.5 76.5t139 28t139.5 -27t96 -75.5t34.5 -110.5q0 -76 -52.5 -145t-142.5 -129l-259 -179h392q13 0 13 9v121h37v-243h-37v64h-481zM418 346.5 q49 22.5 76.5 62.5t27.5 90q0 54 -27.5 95.5t-77 64.5t-111.5 23t-111.5 -23t-77 -64t-27.5 -93q0 -51 27.5 -91.5t77 -63.5t111.5 -23q63 0 112 22.5z" glyph-name="two" horiz-adv-x="610" unicode="2"/>
<glyph d="M69 271v-61q0 -49 30.5 -93t80.5 -71t107 -27t101 23.5t69 64.5t25 93q0 51 -24 91t-65 62.5t-92 22.5q-31 0 -60.5 -7t-46.5 -21l-10 -8l-22 28l307 283h-354q-8 0 -11.5 -2t-3.5 -8v-117h-35v240h35v-64h426v-40l-288 -266q36 13 79 13q61 0 112 -27t80.5 -74 t29.5 -105q0 -62 -32.5 -111.5t-90 -77t-129.5 -27.5q-71 0 -126 28.5t-91 77.5v-97h-35v277h34z" glyph-name="three" horiz-adv-x="600" unicode="3"/>
<glyph d="M411 35v162h-400v33l398 470h57v-456h113q2 0 2 2v93h34v-219h-34v77h-115v-162h115v-35h-288v35h118zM413 244v410l-349 -410h349z" glyph-name="four" horiz-adv-x="642" unicode="4"/>
<glyph d="M85 212v-17q0 -43 30.5 -83.5t79.5 -65.5t102 -25q57 0 103.5 25t72.5 69.5t26 101.5t-26 101.5t-71.5 69t-103.5 24.5q-68 0 -119 -25.5t-72 -70.5l-37 1l57 383h337q7 0 9.5 2t2.5 6v51h36v-199h-36v91h-321l-43 -283q30 37 80 57.5t113 20.5q78 0 135 -31t87 -83 t30 -113q0 -62 -30 -115t-88 -85.5t-138 -32.5q-73 0 -128.5 28t-86.5 76v-96h-33v218h32z" glyph-name="five" horiz-adv-x="603" unicode="5"/>
<glyph d="M197 30.5q-66 45.5 -102.5 127.5t-36.5 190q0 109 36.5 192t102.5 129t151 46q62 0 114 -26.5t80 -70.5v90h34v-211h-37v17q0 41 -27.5 79.5t-72 62.5t-92.5 24q-70 0 -123 -40.5t-82.5 -114t-29.5 -170.5q0 -37 4 -65q20 79 83.5 126t151.5 47q73 0 131 -32t90.5 -88 t32.5 -125q0 -64 -34 -117.5t-92.5 -84.5t-129.5 -31q-86 0 -152 45.5zM451 44.5q46 26.5 73 71.5t27 100q0 61 -27 109.5t-74.5 76t-106.5 27.5t-107 -26.5t-75.5 -71.5t-28.5 -99q1 -49 28.5 -98.5t77 -82.5t112.5 -33q55 0 101 26.5z" glyph-name="six" horiz-adv-x="632" unicode="6"/>
<glyph d="M223 35q0 3 2 11q22 166 102 329.5t184 275.5h-415q-8 0 -11.5 -2t-3.5 -8v-126h-36v252h36v-67h479v-40q-105 -114 -181.5 -274.5t-98.5 -339.5q0 -7 -1 -11h171v-35h-344v35h117z" glyph-name="seven" horiz-adv-x="567" unicode="7"/>
<glyph d="M193.5 10q-63.5 25 -99.5 69t-36 100q0 65 49 112.5t134 65.5q-76 17 -122 62.5t-46 105.5q0 53 34 95.5t94 66.5t136 24t136 -24t94 -66.5t34 -95.5q0 -60 -46 -105.5t-122 -62.5q85 -18 134.5 -65.5t49.5 -112.5q0 -56 -36 -100t-100 -69t-144 -25t-143.5 25z M446.5 393.5q48.5 19.5 75.5 54t27 78.5t-27 78.5t-75.5 54t-109.5 19.5t-109 -19.5t-75.5 -54t-27.5 -78.5q0 -43 27.5 -78t75.5 -54.5t109 -19.5t109.5 19.5zM452 39q51 21 79.5 57.5t28.5 82.5q0 45 -28.5 82t-79.5 57.5t-115 20.5t-115 -20.5t-79.5 -57.5t-28.5 -82 q0 -46 28.5 -82.5t79.5 -57.5t115 -21t115 21z" glyph-name="eight" horiz-adv-x="674" unicode="8"/>
<glyph d="M435 669.5q66 -45.5 102.5 -127.5t36.5 -190q0 -109 -36.5 -192t-102.5 -129t-151 -46q-62 0 -114 26.5t-80 70.5v-90h-34v211h37v-17q0 -41 27.5 -79.5t71.5 -62.5t92 -24q70 0 123.5 40.5t83 114t29.5 170.5q0 37 -4 66q-20 -79 -83.5 -126.5t-151.5 -47.5 q-73 0 -131 32t-90.5 88t-32.5 125q0 64 34 117.5t92.5 84.5t129.5 31q86 0 152 -45.5zM180.5 655.5q-46.5 -26.5 -73.5 -71.5t-27 -100q0 -61 27.5 -109.5t75 -76t106.5 -27.5t106.5 26.5t75.5 71.5t28 99q-1 49 -28.5 98.5t-76.5 82.5t-112 33q-55 0 -101.5 -26.5z" glyph-name="nine" horiz-adv-x="632" unicode="9"/>
<glyph d="M90 6.5q-13 13.5 -13 32.5t13 32t32 13t32 -13t13 -32q0 -20 -13 -33t-32 -13t-32 13.5zM90 382.5q-13 13.5 -13 32.5t13 32t32 13t32 -13t13 -32q0 -20 -13 -33t-32 -13t-32 13.5z" glyph-name="colon" horiz-adv-x="244" unicode=":"/>
<glyph d="M76 -89q20 19 34.5 43t19.5 46q-4 -4 -12 -4q-18 1 -29.5 13.5t-11.5 29.5q0 18 13 31.5t32 13.5q20 0 32.5 -13t12.5 -35q0 -29 -18 -68t-40 -58h-33v1zM90 382.5q-13 13.5 -13 32.5t13 32t32 13t32 -13t13 -32q0 -20 -13 -33t-32 -13t-32 13.5z" glyph-name="semicolon" horiz-adv-x="244" unicode=";"/>
<glyph d="M482 517l-353 -166l353 -167v-39l-404 191v28l404 192v-39z" glyph-name="less" unicode="&lt;"/>
<glyph d="M78 462h404v-35h-404v35zM78 274h404v-35h-404v35z" glyph-name="equal" unicode="="/>
<glyph d="M78 183l353 167l-353 166v40l404 -192v-28l-404 -191v38z" glyph-name="greater" unicode="&gt;"/>
<glyph d="M243 233q5 53 30.5 86.5t72.5 70.5q32 26 50 44.5t30 44t12 58.5q0 68 -44 105.5t-111 37.5q-39 0 -79.5 -21t-68 -58t-29.5 -82v-62h-34v284h34v-119q25 41 73.5 67t107.5 26q56 0 103 -20.5t75 -61.5t28 -98q0 -59 -28.5 -95.5t-84.5 -74.5q-34 -25 -54.5 -45 t-34 -49.5t-13.5 -70.5h-33q-2 11 -2 33zM239 6q-13 13 -13 33q0 19 13 32t32 13t32 -13t13 -32t-13 -32.5t-32 -13.5t-32 13z" glyph-name="question" horiz-adv-x="579" unicode="?"/>
<glyph d="M225 -119q-84 48 -132 132t-48 185t48 185t132 132t185 48t185 -48t132 -132t48 -185q0 -112 -56 -198h-177v109q-19 -54 -71 -86t-118 -32q-65 0 -99 29t-34 76q0 66 57.5 92.5t149.5 33.5q56 3 85 13.5t29 36.5q0 49 -34 81t-88 32q-26 0 -56 -13t-50.5 -33.5 t-20.5 -41.5v-34h-30v168h30v-66q23 22 57.5 36.5t71.5 14.5q73 0 119 -45t46 -119v-221h120q43 77 43 167q0 94 -45 171.5t-122.5 122.5t-171.5 45t-171.5 -45t-122 -122.5t-44.5 -171.5t44.5 -171.5t122 -122t171.5 -44.5q69 0 130 24t108 69l18 -18q-50 -49 -116 -75.5 t-140 -26.5q-101 0 -185 48zM454.5 46.5q40.5 21.5 64 58.5t23.5 80v36q-23 -20 -106 -26q-91 -8 -131 -30t-40 -66q0 -35 27 -54.5t73 -19.5q49 0 89.5 21.5z" glyph-name="at" horiz-adv-x="820" unicode="@"/>
<glyph d="M-81 37h93l270 613l-5 13h-113v37h179l284 -663h94v-37h-299v37h145l-83 191h-349l-84 -191h149v-37h-281v37zM469 264l-157 364h-2l-160 -364h319z" glyph-name="A" horiz-adv-x="642" unicode="A"/>
<glyph d="M141 37v626h-114v37h337q110 0 173.5 -48t63.5 -132q0 -60 -34.5 -102.5t-100.5 -61.5v-5q81 -14 123.5 -58.5t42.5 -112.5q0 -84 -63 -132t-173 -48h-369v37h114zM495 407q48 39 48 109q0 69 -48 108t-135 39h-162v-295h162q87 0 135 39zM525 76q48 39 48 108t-49 108.5 t-134 39.5h-192v-295h193q86 0 134 39z" glyph-name="B" horiz-adv-x="672" unicode="B"/>
<glyph d="M205 32.5q-74 47.5 -116.5 131t-42.5 186.5q0 104 42.5 187.5t116.5 130.5t165 47q64 0 120.5 -26t93.5 -68v120h37v-289h-38v60q0 41 -31 79.5t-80.5 62.5t-102.5 24q-76 0 -136.5 -42t-94.5 -116.5t-34 -169.5t34.5 -170t95 -116.5t136.5 -41.5q59 0 112.5 26t86 69 t32.5 91v66h38v-282h-37v98q-40 -48 -100 -76.5t-132 -28.5q-91 0 -165 47.5z" glyph-name="C" horiz-adv-x="721" unicode="C"/>
<glyph d="M507 656q85 -44 132.5 -123.5t47.5 -182.5q0 -102 -47.5 -181.5t-132.5 -124t-195 -44.5h-285v37h114v626h-114v37h285q110 0 195 -44zM478.5 75.5q71.5 38.5 111 109.5t39.5 165t-39.5 165t-111 109.5t-165.5 38.5h-115v-626h115q94 0 165.5 38.5z" glyph-name="D" horiz-adv-x="732" unicode="D"/>
<glyph d="M27 0v37h114v626h-114v37h488v67h37v-281h-36v154q0 7 -8 15t-19 8h-292v-295h158q6 0 9.5 4t3.5 9v88h32v-238h-32v88q0 5 -3.5 9t-9.5 4h-158v-295h339q12 0 21.5 8.5t9.5 16.5v156h37v-286h-37v68h-540z" glyph-name="E" horiz-adv-x="657" unicode="E"/>
<glyph d="M141 37v626h-114v37h497v67h37v-282h-37v153q0 8 -8 16.5t-19 8.5h-299v-293h160q6 0 9.5 3.5t3.5 8.5v89h32v-239h-32v89q0 5 -3.5 9t-9.5 4h-160v-297h147v-37h-318v37h114z" glyph-name="F" horiz-adv-x="588" unicode="F"/>
<glyph d="M619 97q-39 -51 -101.5 -81.5t-149.5 -30.5q-91 0 -164.5 47t-115.5 130.5t-42 187.5t42 187.5t116 130.5t166 47q76 0 135.5 -26t97.5 -70v122h37v-284h-36v57q0 40 -32 78t-86 62t-115 24q-76 0 -137 -41.5t-95.5 -116.5t-34.5 -170t34.5 -170t96 -117t137.5 -42 q65 0 119 23t85.5 62.5t31.5 87.5v134h-212v36h379v-36h-110v-345h-39v106q0 10 -7 8z" glyph-name="G" horiz-adv-x="778" unicode="G"/>
<glyph d="M27 37h114v626h-114v37h303v-37h-132v-295h424v295h-132v37h303v-37h-114v-626h114v-37h-303v37h132v295h-424v-295h132v-37h-303v37z" glyph-name="H" horiz-adv-x="820" unicode="H"/>
<glyph d="M27 37h114v626h-114v37h285v-37h-114v-626h114v-37h-285v37z" glyph-name="I" horiz-adv-x="339" unicode="I"/>
<glyph d="M54 280v-72q0 -47 21 -90t61 -69.5t92 -26.5q69 0 108.5 50.5t39.5 137.5v453h-173v37h344v-37h-114v-444q0 -70 -26 -123t-72 -82t-104 -29q-112 0 -177 91v-117h-37v321h37z" glyph-name="J" horiz-adv-x="554" unicode="J"/>
<glyph d="M27 37h114v626h-114v37h283v-37h-112v-295h125l248 295h-129v37h257v-37h-83l-248 -294l290 -332h89v-37h-297v37h137l-263 296h-126v-296h110v-37h-281v37z" glyph-name="K" horiz-adv-x="699" unicode="K"/>
<glyph d="M27 0v37h114v626h-114v37h311v-37h-140v-626h320q12 0 21.5 9t9.5 18v216h37v-348h-38v68h-521z" glyph-name="L" horiz-adv-x="612" unicode="L"/>
<glyph d="M31 37h114v615l-6 11h-112v37h193l284 -629l277 629h190v-37h-113v-626h113v-37h-283v37h113v614h-1l-286 -651h-40l-290 642h-2v-605h133v-37h-284v37z" glyph-name="M" horiz-adv-x="998" unicode="M"/>
<glyph d="M179 617v-580h139v-37h-291v37h114v614l-9 12h-113v37h170l460 -631v594h-135v37h285v-37h-113v-690h-36z" glyph-name="N" horiz-adv-x="821" unicode="N"/>
<glyph d="M222 32.5q-82 47.5 -129 130.5t-47 187t47 187t129 130.5t185 47.5t185.5 -47.5t129.5 -130.5t47 -187t-47 -187t-129.5 -130.5t-185.5 -47.5t-185 47.5zM563 63.5q69 41.5 108 116.5t39 170q0 96 -39 170.5t-108 116t-156 41.5t-156 -41.5t-108 -116t-39 -170.5 q0 -95 39 -170t108 -116.5t156 -41.5t156 41.5z" glyph-name="O" horiz-adv-x="814" unicode="O"/>
<glyph d="M141 37v626h-114v37h313q121 0 190.5 -54.5t69.5 -148.5q0 -95 -69.5 -149t-190.5 -54h-142v-257h141v-37h-312v37h114zM489 373.5q54 44.5 54 122.5q0 79 -54 123.5t-150 44.5h-141v-335h141q96 0 150 44.5z" glyph-name="P" horiz-adv-x="628" unicode="P"/>
<glyph d="M379 -163v154q-95 6 -171 54t-119 128t-43 179q0 103 46.5 186t129 130t184.5 47q103 0 185.5 -47t129.5 -130t47 -186q0 -99 -43 -179t-119 -128t-172 -54v-154h130v-37h-315v37h130zM561.5 66.5q68.5 41.5 107.5 116t39 168.5t-39 168t-107.5 115.5t-155.5 41.5 q-86 0 -154.5 -41.5t-107 -115.5t-38.5 -168t38.5 -168.5t107 -116t154.5 -41.5q87 0 155.5 41.5z" glyph-name="Q" horiz-adv-x="813" unicode="Q"/>
<glyph d="M141 37v626h-114v37h305q122 0 191.5 -52.5t69.5 -143.5q0 -75 -50 -124t-138 -63l237 -280h90v-37h-316v37h155l-228 268h-145v-268h106v-37h-277v37h114zM482 383q54 43 54 119t-54 119t-151 43h-133v-324h133q97 0 151 43z" glyph-name="R" horiz-adv-x="658" unicode="R"/>
<glyph d="M95 273v-62q0 -48 38.5 -92t101.5 -70.5t134 -26.5q89 0 143.5 38t54.5 99q0 43 -30 71.5t-75.5 46t-124.5 39.5q-86 25 -139 47.5t-90 63.5t-37 105q0 84 66 133.5t176 49.5q75 0 139 -28t103 -74v129h37v-287h-36v57q0 38 -36.5 77t-95.5 63.5t-122 24.5 q-87 0 -137.5 -36t-50.5 -98q0 -47 30 -77.5t77.5 -49t128.5 -41.5q84 -24 137 -46t89 -60.5t36 -96.5q0 -57 -31.5 -99t-88 -65t-130.5 -23q-88 0 -156.5 31t-110.5 83v-122h-37v296h37z" glyph-name="S" horiz-adv-x="674" unicode="S"/>
<glyph d="M304 37v626h-219q-8 0 -15.5 -8.5t-7.5 -16.5v-156h-36v285h37v-67h540v67h37v-285h-37v156q0 8 -7.5 16.5t-15.5 8.5h-219v-626h142v-37h-341v37h142z" glyph-name="T" horiz-adv-x="665" unicode="T"/>
<glyph d="M254 23q-64 38 -99 107t-35 161v372h-113v37h308v-37h-138v-371q0 -125 63.5 -196.5t171.5 -71.5q70 0 123 33t82 94t29 142v370h-138v37h290v-37h-114v-371q0 -92 -34.5 -161.5t-98 -107.5t-148.5 -38t-149 38z" glyph-name="U" horiz-adv-x="804" unicode="U"/>
<glyph d="M20 663h-93v37h301v-37h-145l258 -614l259 614h-150v37h283v-37h-93l-278 -663h-63z" glyph-name="V" horiz-adv-x="659" unicode="V"/>
<glyph d="M34 663h-91v37h292v-37h-141l209 -614h1l173 467l-55 147h-84v37h306v-37h-163l227 -614h1l209 614h-145v37h274v-37h-90l-224 -663h-65l-173 464l-172 -464h-65z" glyph-name="W" horiz-adv-x="990" unicode="W"/>
<glyph d="M-73 37h110l251 315l-246 311h-106v37h336v-37h-161l219 -277l219 277h-158v37h310v-37h-106l-239 -300l257 -326h105v-37h-341v37h166l-229 291l-229 -291h172v-37h-330v37z" glyph-name="X" horiz-adv-x="643" unicode="X"/>
<glyph d="M137 37h140v237l-267 389h-96v37h315v-37h-154l242 -355l241 355h-154v37h293v-37h-95l-267 -389v-237h140v-37h-338v37z" glyph-name="Y" horiz-adv-x="611" unicode="Y"/>
<glyph d="M490 663h-359q-11 0 -19.5 -8t-8.5 -15v-152h-36v279h37v-67h455v-34l-451 -629h408q13 0 22.5 9t9.5 17v154h37v-284h-37v67h-509v34z" glyph-name="Z" horiz-adv-x="616" unicode="Z"/>
<glyph d="M152 800h246v-35h-196v-830h196v-35h-246v900z" glyph-name="bracketleft" horiz-adv-x="500" unicode="["/>
<glyph d="M82 700l338 -700h-37l-338 700h37z" glyph-name="backslash" horiz-adv-x="465" unicode="\"/>
<glyph d="M102 -100v35h196v830h-196v35h246v-900h-246z" glyph-name="bracketright" horiz-adv-x="500" unicode="]"/>
<glyph d="M265 700h30l171 -296h-40l-146 254l-147 -254h-39z" glyph-name="asciicircum" unicode="^"/>
<glyph d="M30 20h386v-35h-386v35z" glyph-name="underscore" horiz-adv-x="446" unicode="_"/>
<glyph d="M84.5 24q-41.5 36 -41.5 95q0 81 70 113.5t181 39.5q70 5 105.5 17.5t35.5 40.5q0 67 -41 107.5t-107 40.5q-33 0 -71 -16t-63.5 -41.5t-25.5 -53.5v-43h-34v209h33v-84q30 27 73 44t90 17q90 0 143.5 -54t53.5 -145v-276h88v-35h-137v131q-25 -65 -89 -104t-145 -39 q-77 0 -118.5 36zM329 51q50 27 79 73.5t29 101.5v52q-15 -13 -46.5 -20.5t-83.5 -12.5q-111 -8 -161.5 -37t-50.5 -86q0 -47 33 -72.5t90 -25.5q61 0 111 27z" glyph-name="a" horiz-adv-x="589" unicode="a"/>
<glyph d="M243 27q-53 37 -78 100v-127h-50v665h-96v35h146v-327q25 63 78 100t123 37q65 0 118.5 -34t84 -93.5t30.5 -132.5t-30.5 -132.5t-84 -93.5t-118.5 -34q-70 0 -123 37zM451 54.5q43 28.5 68 80t25 115.5t-25 115.5t-68 80t-96 28.5q-54 0 -98 -29.5t-69 -80.5t-25 -114 t25 -114t69 -80.5t98 -29.5q53 0 96 28.5z" glyph-name="b" horiz-adv-x="648" unicode="b"/>
<glyph d="M395 9.5q-46 -19.5 -100 -19.5q-69 0 -125 34t-88 93.5t-32 132.5q0 74 32 133.5t88 93t125 33.5q48 0 91 -17.5t69 -44.5v99h34v-226h-35v44q0 27 -23.5 53t-60 42.5t-74.5 16.5q-55 0 -99.5 -29t-69.5 -81t-25 -117t25 -116.5t69.5 -80.5t99.5 -29q43 0 82.5 17.5 t64 47t25.5 61.5v47h34v-213h-33v77q-28 -32 -74 -51.5z" glyph-name="c" horiz-adv-x="577" unicode="c"/>
<glyph d="M164 24q-53 34 -83.5 93.5t-30.5 132.5t30.5 132t83.5 93t118 34q72 0 124 -37t77 -100v293h-96v35h147v-665h95v-35h-144v129q-25 -64 -78.5 -101.5t-124.5 -37.5q-65 0 -118 34zM391 55.5q44 29.5 69 80.5t25 114t-25 114t-69 80.5t-98 29.5q-53 0 -96 -28.5t-68 -80 t-25 -115.5t25 -115.5t68 -80t96 -28.5q54 0 98 29.5z" glyph-name="d" horiz-adv-x="648" unicode="d"/>
<glyph d="M408 9q-47 -19 -103 -19q-73 0 -131 32.5t-91 91t-33 135.5q0 75 33.5 134.5t91 93t126.5 33.5q73 0 129.5 -33t88.5 -92.5t32 -134.5q0 -11 -1 -17h-449q3 -62 30.5 -109.5t73 -74t101.5 -26.5q43 0 83.5 17t65.5 45t25 57v23h36v-181h-34v75q-27 -31 -74 -50z M438.5 419.5q-53.5 57.5 -138.5 57.5q-54 0 -98.5 -27.5t-71 -76t-29.5 -107.5h396q-5 96 -58.5 153.5z" glyph-name="e" horiz-adv-x="613" unicode="e"/>
<glyph d="M114 35v430h-95v35h95v49q0 80 45 125.5t123 45.5q45 0 85.5 -15t60.5 -36v78h34v-196h-33v30q0 27 -20.5 51t-54 39t-70.5 15q-61 0 -95 -31.5t-34 -87.5q0 -12 4 -38l3 -29h229v-35h-227l1 -33v-397h143v-35h-289v35h95z" glyph-name="f" horiz-adv-x="359" unicode="f"/>
<glyph d="M205.5 -190.5q-63.5 19.5 -98 55t-34.5 83.5q0 56 48.5 94.5t135.5 49.5q-112 7 -175.5 35.5t-63.5 93.5q0 28 21 48.5t52 20.5q15 0 37 -8q-19 29 -19 67q0 69 60 111.5t165 47.5v87h-114v34h278v-34h-115v-87q110 -4 172.5 -46.5t62.5 -112.5q0 -49 -31.5 -85.5 t-89 -56t-133.5 -19.5q-73 0 -112.5 12.5t-78.5 35.5q-23 14 -39 20t-37 6q-20 0 -32 -12t-12 -28q0 -41 34 -62t84 -29t138 -15q17 -1 47.5 -3.5t51.5 -5.5q104 -11 166.5 -49.5t62.5 -108.5q0 -48 -34.5 -84t-98.5 -55.5t-150 -19.5q-85 0 -148.5 19.5zM510.5 256 q54.5 35 54.5 93q0 59 -54 94.5t-147 35.5t-148 -35.5t-55 -94.5q0 -58 55 -93t148 -35q92 0 146.5 35zM521 -142.5q61 34.5 61 92.5q0 59 -61 93.5t-166 34.5t-166 -34.5t-61 -93.5q0 -58 61 -92.5t166 -34.5t166 34.5z" glyph-name="g" horiz-adv-x="669" unicode="g"/>
<glyph d="M115 35v630h-96v35h146v-320q23 60 71.5 95t110.5 35q99 0 154.5 -64.5t55.5 -179.5v-231h90v-35h-241v35h100v228q0 99 -45 154.5t-125 55.5q-48 0 -87 -27.5t-61.5 -76t-22.5 -108.5v-226h108v-35h-254v35h96z" glyph-name="h" horiz-adv-x="661" unicode="h"/>
<glyph d="M19 35h111v430h-111v35h162v-465h111v-35h-273v35zM111 745h80l-35 -168h-10z" glyph-name="i" horiz-adv-x="303" unicode="i"/>
<glyph d="M-53 -36v-17q0 -34 15.5 -62.5t41 -45t53.5 -16.5q37 0 62 29.5t25 77.5q0 35 -5 80q-5 73 -5 94v361h-116v35h167v-556q0 -68 -35.5 -111t-89.5 -43q-37 0 -67 17.5t-45 40.5v-63h-33v179h32zM118 745h80l-35 -168h-10z" glyph-name="j" horiz-adv-x="302" unicode="j"/>
<glyph d="M19 35h95v630h-95v35h146v-433h95l179 198h-93v35h216v-35h-79l-182 -202l200 -228h104v-35h-269v35h101l-179 198h-93v-198h90v-35h-236v35z" glyph-name="k" horiz-adv-x="602" unicode="k"/>
<glyph d="M19 35h112v630h-112v35h162v-665h120v-35h-282v35z" glyph-name="l" horiz-adv-x="319" unicode="l"/>
<glyph d="M114 35v430h-95v35h144v-118q24 59 70.5 93.5t105.5 34.5q74 0 121 -38t64 -111q21 67 72 108t115 41q98 0 150 -63t52 -181v-231h89v-35h-247v35h107v228q0 103 -40.5 156.5t-119.5 53.5q-45 0 -82.5 -27.5t-59 -75t-21.5 -106.5v-229h107v-35h-265v35h107v228 q0 103 -41 156.5t-119 53.5q-45 0 -82.5 -27.5t-59 -76t-21.5 -108.5v-226h107v-35h-253v35h95z" glyph-name="m" horiz-adv-x="1017" unicode="m"/>
<glyph d="M114 35v430h-95v35h144v-120q24 60 72.5 95t110.5 35q99 0 155 -64.5t56 -179.5v-231h89v-35h-248v35h108v228q0 99 -45 154.5t-125 55.5q-48 0 -87 -27.5t-61.5 -76t-22.5 -108.5v-226h108v-35h-254v35h95z" glyph-name="n" horiz-adv-x="661" unicode="n"/>
<glyph d="M179.5 24q-60.5 34 -95 93.5t-34.5 132.5t34.5 132.5t95 93.5t135.5 34q74 0 135 -34t95.5 -93.5t34.5 -132.5t-34.5 -132.5t-95.5 -93.5t-135 -34q-75 0 -135.5 34zM423.5 54q48.5 29 76 80.5t27.5 115.5t-27.5 116t-76 81t-108.5 29t-109 -29t-76.5 -80.5t-27.5 -116.5 q0 -64 27.5 -115.5t76.5 -80.5t109 -29t108.5 29z" glyph-name="o" horiz-adv-x="629" unicode="o"/>
<glyph d="M114 -165v630h-95v35h144v-129q25 64 78 101.5t124 37.5q65 0 118.5 -34t84 -93.5t30.5 -132.5t-30.5 -132.5t-84 -93.5t-118.5 -34q-71 0 -123.5 37t-77.5 101v-294h146v-34h-291v35h95zM450.5 54.5q43.5 28.5 68.5 80t25 115.5t-25 115.5t-68.5 80t-96.5 28.5 t-97 -29.5t-69 -80.5t-25 -114t25 -114t69 -80.5t97 -29.5t96.5 28.5z" glyph-name="p" horiz-adv-x="648" unicode="p"/>
<glyph d="M483 -166v294q-25 -64 -77 -101t-123 -37q-65 0 -118.5 34t-84 93.5t-30.5 132.5t30.5 132.5t84 93.5t118.5 34q71 0 124 -37.5t78 -101.5v129h144v-35h-95v-630h95v-35h-291v34h145zM391 55.5q44 29.5 69 80.5t25 114t-25 114t-69 80.5t-98 29.5q-53 0 -96 -28.5 t-68 -80t-25 -115.5t25 -115.5t68 -80t96 -28.5q54 0 98 29.5z" glyph-name="q" horiz-adv-x="648" unicode="q"/>
<glyph d="M114 35v430h-95v35h144v-108q19 53 60 85.5t88 32.5q43 0 75.5 -16t52.5 -42v88h34v-245h-33v69q0 27 -18.5 52t-50 40.5t-66.5 15.5q-36 0 -68 -24.5t-52 -67t-20 -94.5v-251h120v-35h-266v35h95z" glyph-name="r" horiz-adv-x="524" unicode="r"/>
<glyph d="M84 194v-44q0 -34 29.5 -63.5t78.5 -46.5t106 -17q66 0 104.5 24t38.5 67q0 40 -39 64t-134 42q-110 23 -160.5 59.5t-50.5 96.5q0 63 47 98.5t129 35.5q57 0 105 -16t78 -44v96h34v-220h-34v43q0 27 -27 52t-70.5 40t-89.5 15q-62 0 -97 -24.5t-35 -67.5q0 -42 39 -66.5 t135 -44.5q111 -23 161 -57.5t50 -92.5q0 -63 -50.5 -98.5t-136.5 -35.5q-66 0 -123.5 19t-87.5 51v-74h-32v209h32z" glyph-name="s" horiz-adv-x="539" unicode="s"/>
<glyph d="M163.5 35.5q-42.5 44.5 -42.5 124.5v305h-120v35h109q12 0 19.5 7t7.5 20v99h35v-126h244v-35h-244v-310q0 -63 33 -95.5t91 -32.5q37 0 69.5 12t52.5 30v-40q-22 -16 -59 -27t-76 -11q-77 0 -119.5 44.5z" glyph-name="t" horiz-adv-x="436" unicode="t"/>
<glyph d="M159.5 54.5q-55.5 64.5 -55.5 179.5v231h-89v35h140v-263q0 -99 45 -154.5t125 -55.5q48 0 87 27.5t61.5 76t22.5 108.5v226h-112v35h258v-35h-95v-430h95v-35h-144v122q-24 -61 -73 -96.5t-111 -35.5q-99 0 -154.5 64.5z" glyph-name="u" horiz-adv-x="661" unicode="u"/>
<glyph d="M16 465h-79v35h263v-35h-127l190 -423l189 423h-130v35h248v-35h-79l-209 -465h-56z" glyph-name="v" horiz-adv-x="507" unicode="v"/>
<glyph d="M38 465h-78v35h252v-35h-121l146 -421l140 348l-29 73h-73v35h255v-35h-127l168 -422l147 422h-126v35h241v-35h-78l-161 -465h-60l-138 348l-140 -348h-58z" glyph-name="w" horiz-adv-x="793" unicode="w"/>
<glyph d="M-22 35h77l185 216l-181 214h-80v35h235v-35h-92l156 -182l155 182h-96v35h219v-35h-80l-175 -205l189 -225h73v-35h-238v35h101l-163 193l-164 -193h103v-35h-224v35z" glyph-name="x" horiz-adv-x="540" unicode="x"/>
<glyph d="M77 5v-47q0 -35 15.5 -65.5t41.5 -48.5t55 -18q37 0 61.5 28t24.5 74v17q0 22 -6.5 44t-23.5 56l-218 420h-72v35h262v-35h-129l193 -381q8 -16 16 -45q4 23 11 39l170 387h-138v35h248v-35h-72l-181 -410q-10 -26 -14.5 -45.5t-4.5 -43.5v-21q0 -69 -35.5 -112 t-91.5 -43q-37 0 -67 17t-45 39v-60h-33v219h33z" glyph-name="y" horiz-adv-x="542" unicode="y"/>
<glyph d="M59 0v32l352 433h-280q-7 0 -14 -7t-7 -13v-145h-35v251h35v-51h364v-33l-350 -432h289q10 0 17 6.5t7 13.5v147h35v-267h-35v65h-378z" glyph-name="z" horiz-adv-x="543" unicode="z"/>
<glyph d="M209 -83.5q-38 31.5 -38 95.5q0 31 16 121t16 117q0 40 -19 61.5t-53 21.5h-38v35h38q34 0 53 21t19 62q0 27 -16 117t-16 120q0 64 38 95.5t96 31.5q48 0 87 -15v-37q-38 18 -79 18q-40 0 -66 -23.5t-26 -70.5q0 -23 14 -107q16 -90 16 -122q0 -42 -18 -70t-53 -38 q35 -10 53 -38t18 -70q0 -33 -16 -121q-14 -84 -14 -108q0 -47 26 -70.5t66 -23.5q42 0 79 18v-37q-39 -15 -87 -15q-58 0 -96 31.5z" glyph-name="braceleft" horiz-adv-x="500" unicode="{"/>
<glyph d="M152 800h35v-900h-35v900z" glyph-name="bar" horiz-adv-x="339" unicode="|"/>
<glyph d="M291 783.5q38 -31.5 38 -95.5q0 -31 -16 -121t-16 -117q0 -40 19 -61.5t53 -21.5h38v-35h-38q-34 0 -53 -21t-19 -62q0 -27 16 -117t16 -120q0 -64 -38 -95.5t-96 -31.5q-48 0 -87 15v37q38 -18 79 -18q40 0 66 23.5t26 70.5q0 23 -14 107q-16 90 -16 122q0 42 18 70 t53 38q-35 10 -53 38t-18 70q0 33 16 121q14 84 14 108q0 47 -26 70.5t-66 23.5q-41 0 -79 -18v37q39 15 87 15q58 0 96 -31.5z" glyph-name="braceright" horiz-adv-x="500" unicode="}"/>
<glyph d="M106 369.5q28 26.5 67 26.5q26 0 48.5 -7.5t62.5 -23.5q32 -13 53.5 -19.5t43.5 -6.5q27 0 47 16.5t20 39.5h35q0 -39 -28 -65t-68 -26q-26 0 -50.5 7.5t-59.5 22.5q-34 13 -55 19.5t-43 6.5q-27 0 -46.5 -16.5t-19.5 -39.5h-35q0 39 28 65.5z" glyph-name="asciitilde" unicode="~"/>
<glyph glyph-name="uni00A0" horiz-adv-x="250" unicode=" "/>
<glyph d="M199 494q13 -13 13 -33q0 -19 -13 -32t-32 -13t-32 13t-13 32t13 32.5t32 13.5t32 -13zM309 -163v-37h-283v37h114l6 459h43l6 -459h114z" glyph-name="exclamdown" horiz-adv-x="335" unicode="¡"/>
<glyph d="M196.5 129.5q-53.5 34.5 -83.5 93t-30 129.5t30 129.5t83.5 93t119.5 37.5v118h32v-119q42 -4 79.5 -20.5t60.5 -40.5v99h34v-226h-35v44q0 27 -23.5 53t-60 42.5t-74.5 16.5q-55 0 -99.5 -29t-69.5 -81t-25 -117t25 -116.5t69.5 -80.5t99.5 -29q43 0 82.5 18t64.5 47.5 t25 60.5v47h35v-212h-34v76q-25 -29 -65.5 -47.5t-88.5 -22.5v-123h-32v122q-66 3 -119.5 37.5z" glyph-name="cent" horiz-adv-x="700" unicode="¢"/>
<glyph d="M48 12.5q-32 27.5 -32 71.5q0 43 29.5 70.5t78.5 27.5q27 0 55.5 -10.5t64.5 -29.5q1 5 0.5 8.5t-0.5 6.5q-1 29 -13 59t-35 74q-16 30 -23 45h-130v30h115q-31 67 -31 128q0 67 28 117.5t78.5 78t117.5 27.5q68 0 120.5 -27.5t83.5 -74.5v119h34v-267h-37v59 q0 41 -26.5 76.5t-71 56.5t-94.5 21q-81 0 -130 -50.5t-49 -135.5q0 -31 7 -59t22 -69h306v-30h-295q4 -10 14 -30q23 -49 34.5 -82t11.5 -68q0 -14 -2 -30q14 -8 21 -13q65 -38 106.5 -56t85.5 -18q58 0 90 36t32 101q0 26 -6 56h36q6 -34 6 -64q0 -85 -43.5 -133.5 t-116.5 -48.5q-54 0 -103.5 23.5t-122.5 69.5q-17 -42 -53 -67.5t-81 -25.5q-50 0 -82 27.5zM196.5 38.5q29.5 21.5 40.5 56.5q-73 45 -119 45q-31 0 -49.5 -16.5t-18.5 -43.5q0 -28 22 -45.5t58 -17.5q37 0 66.5 21.5z" glyph-name="sterling" horiz-adv-x="700" unicode="£"/>
<glyph d="M191 217q-23 27 -36 61.5t-13 71.5t13 71.5t36 61.5l-92 92l26 26l92 -92q27 24 61.5 37t71.5 13t71.5 -13t61.5 -37l92 92l26 -26l-92 -92q24 -27 37 -61.5t13 -71.5t-13 -71.5t-37 -61.5l92 -92l-26 -26l-92 92q-27 -23 -61.5 -36t-71.5 -13t-71.5 13t-61.5 36l-92 -92 l-26 26zM436.5 202q39.5 23 62.5 62.5t23 85.5q0 47 -23 86.5t-62.5 62.5t-86.5 23q-46 0 -85.5 -23t-62.5 -62.5t-23 -86.5q0 -46 23 -85.5t62.5 -62.5t85.5 -23q47 0 86.5 23z" glyph-name="currency" horiz-adv-x="700" unicode="¤"/>
<glyph d="M184 33h138v148h-232v29h232v65l-21 29h-211v29h191l-223 330h-95v37h311v-37h-152l239 -355l239 355h-152v37h289v-37h-95l-222 -330h190v-29h-211l-21 -30v-64h232v-29h-232v-148h139v-33h-333v33z" glyph-name="yen" horiz-adv-x="700" unicode="¥"/>
<glyph d="M152 800h35v-380h-35v380zM152 280h35v-380h-35v380z" glyph-name="brokenbar" horiz-adv-x="339" unicode="¦"/>
<glyph d="M205.5 -53.5q-68.5 46.5 -79.5 136.5h38q11 -72 67.5 -109.5t131.5 -37.5q59 0 109 25t50 80q0 35 -19 55.5t-49 30t-84 20.5l-26 6q-74 14 -118.5 28t-76 44t-31.5 82q0 54 38.5 87.5t100.5 45.5q-54 16 -84.5 44.5t-31.5 78.5q0 77 60.5 115t143.5 38q87 0 148.5 -45.5 t71.5 -132.5h-38q-10 71 -61.5 106.5t-123.5 35.5q-59 0 -105.5 -26.5t-46.5 -84.5q0 -34 22 -53.5t54.5 -29t93.5 -21.5q82 -16 126.5 -29t77 -42.5t32.5 -81.5q0 -55 -39.5 -89t-100.5 -48q56 -16 86.5 -44.5t30.5 -81.5q0 -52 -31.5 -85.5t-79 -48.5t-96.5 -15 q-92 0 -160.5 46.5zM497.5 223q51.5 26 51.5 77q0 36 -21 56.5t-57.5 32t-111.5 26.5q7 -2 -36 8q-63 -5 -110.5 -30.5t-47.5 -75.5q0 -53 57.5 -80t163.5 -43q60 3 111.5 29z" glyph-name="section" horiz-adv-x="700" unicode="§"/>
<glyph d="M225 33q-84 48 -132 132t-48 185t48 185t132 132t185 48t185 -48t132 -132t48 -185t-48 -185t-132 -132t-185 -48t-185 48zM582.5 55.5q77.5 44.5 122 122t44.5 172.5t-44.5 172.5t-122 122t-172.5 44.5t-172.5 -44.5t-122 -122t-44.5 -172.5t44.5 -172.5t122 -122 t172.5 -44.5t172.5 44.5zM484.5 159.5q-36.5 -15.5 -80.5 -15.5q-56 0 -100.5 27t-70 74.5t-25.5 106.5t25.5 106.5t70 74.5t100.5 27q43 0 79.5 -15.5t57.5 -40.5v60h31v-169h-32v33q0 26 -19.5 49.5t-50.5 37.5t-65 14q-44 0 -78.5 -22.5t-54 -63t-19.5 -91.5t19.5 -91.5 t54 -63t78.5 -22.5q34 0 65.5 14t51 37.5t20.5 49.5v33h31v-168h-30v59q-22 -25 -58.5 -40.5z" glyph-name="copyright" horiz-adv-x="820" unicode="©"/>
<glyph d="M121 300l109 -200h-40l-106 194v12l106 194h40zM295 300l109 -200h-40l-106 194v12l106 194h40z" glyph-name="guillemotleft" horiz-adv-x="488" unicode="«"/>
<glyph d="M482 368v-220h-35v185h-369v35h404z" glyph-name="logicalnot" unicode="¬"/>
<glyph d="M138.5 378.5q-41.5 23.5 -65 65t-23.5 91.5t23.5 91.5t65 65t91.5 23.5t91.5 -23.5t65 -65t23.5 -91.5t-23.5 -91.5t-65 -65t-91.5 -23.5t-91.5 23.5zM311.5 396q36.5 21 57.5 58t21 81q0 45 -21 81.5t-57.5 57.5t-81.5 21t-81.5 -21t-57.5 -57.5t-21 -81.5t21 -81.5 t57.5 -57.5t81.5 -21t81.5 21zM168 461v158h-31v23h91q35 0 55.5 -16t20.5 -43q0 -20 -12.5 -34.5t-33.5 -21.5l53 -66h26v-23h-92v23h30l-49 61h-30v-61h32v-23h-91v23h31zM261.5 554q12.5 10 12.5 27q0 18 -12.5 28t-34.5 10h-31v-75h31q22 0 34.5 10z" glyph-name="registered" horiz-adv-x="460" unicode="®"/>
<glyph d="M71 503.5q-36 36.5 -36 87.5t36 87.5t88 36.5q33 0 61.5 -17t45.5 -45.5t17 -61.5t-17 -61.5t-45.5 -45.5t-61.5 -17q-52 0 -88 36.5zM226 524q28 28 28 67t-28 67t-67 28q-40 0 -67.5 -28t-27.5 -67t27.5 -67t67.5 -28q39 0 67 28z" glyph-name="degree" horiz-adv-x="317" unicode="°"/>
<glyph d="M298 423h184v-35h-184v-185h-35v185h-185v35h185v184h35v-184zM78 99v35h404v-35h-404z" glyph-name="plusminus" unicode="±"/>
<glyph d="M290 -163v463h-9q-62 0 -112.5 26.5t-79.5 72t-29 101.5t29 101.5t79.5 72t112.5 26.5h181v-37h-114v-826h114v-37h-292v37h120z" glyph-name="paragraph" horiz-adv-x="605" unicode="¶"/>
<glyph d="M90 268.5q-13 13.5 -13 32.5t13 32t32 13t32 -13t13 -32q0 -20 -13 -33t-32 -13t-32 13.5z" glyph-name="periodcentered" horiz-adv-x="244" unicode="·"/>
<glyph d="M367 300l-109 200h40l106 -194v-12l-106 -194h-40zM193 300l-109 200h40l106 -194v-12l-106 -194h-40z" glyph-name="guillemotright" horiz-adv-x="488" unicode="»"/>
<glyph d="M324 493.5q13 -13.5 13 -32.5t-13 -32t-32 -13t-32 13t-13 32q0 20 13 33t32 13t32 -13.5zM319 267q-5 -53 -30 -86t-73 -71q-47 -39 -69 -69t-22 -78q0 -68 44 -105.5t111 -37.5q39 0 79.5 21t68 58t28.5 82v62h35v-284h-34v119q-25 -41 -74 -67t-107 -26 q-56 0 -103 20.5t-75 61.5t-28 98q0 59 28.5 95.5t84.5 74.5q33 24 53.5 44.5t34 50t13.5 70.5h34q3 -15 1 -33z" glyph-name="questiondown" horiz-adv-x="562" unicode="¿"/>
<glyph d="M-81 37h93l270 613l-5 13h-113v37h179l284 -663h94v-37h-299v37h145l-83 191h-349l-84 -191h149v-37h-281v37zM469 264l-157 364h-2l-160 -364h319zM281 781l-85 164h55l63 -164h-33z" glyph-name="Agrave" horiz-adv-x="642" unicode="À"/>
<glyph d="M-81 37h93l270 613l-5 13h-113v37h179l284 -663h94v-37h-299v37h145l-83 191h-349l-84 -191h149v-37h-281v37zM469 264l-157 364h-2l-160 -364h319zM349 945h55l-85 -164h-33z" glyph-name="Aacute" horiz-adv-x="642" unicode="Á"/>
<glyph d="M-81 37h93l270 613l-5 13h-113v37h179l284 -663h94v-37h-299v37h145l-83 191h-349l-84 -191h149v-37h-281v37zM469 264l-157 364h-2l-160 -364h319zM416 785l-124 128l-126 -128h-44l154 160h49l154 -160h-63z" glyph-name="Acircumflex" horiz-adv-x="642" unicode="Â"/>
<glyph d="M-81 37h93l270 613l-5 13h-113v37h179l284 -663h94v-37h-299v37h145l-83 191h-349l-84 -191h149v-37h-281v37zM469 264l-157 364h-2l-160 -364h319zM139.5 889.5q26.5 25.5 65.5 25.5q25 0 48.5 -6.5t54.5 -19.5q29 -12 48.5 -17.5t40.5 -5.5q24 0 41 14.5t17 34.5h32 q0 -40 -26.5 -66t-65.5 -26q-25 0 -48.5 6.5t-53.5 19.5q-31 12 -50 18t-40 6q-24 0 -41 -14.5t-17 -34.5h-32q0 40 26.5 65.5z" glyph-name="Atilde" horiz-adv-x="642" unicode="Ã"/>
<glyph d="M-81 37h93l270 613l-5 13h-113v37h179l284 -663h94v-37h-299v37h145l-83 191h-349l-84 -191h149v-37h-281v37zM469 264l-157 364h-2l-160 -364h319zM188 945h72l-31 -168h-10zM324 945h72l-31 -168h-10z" glyph-name="Adieresis" horiz-adv-x="642" unicode="Ä"/>
<glyph d="M-81 37h93l270 613l-5 13h-113v37h179l284 -663h94v-37h-299v37h145l-83 191h-349l-84 -191h149v-37h-281v37zM469 264l-157 364h-2l-160 -364h319zM211.5 812.5q-36.5 36.5 -36.5 88.5t36.5 88.5t88.5 36.5t88.5 -36.5t36.5 -88.5t-36.5 -88.5t-88.5 -36.5t-88.5 36.5z M368.5 841.5q26.5 23.5 26.5 59.5t-26.5 60t-68.5 24t-68.5 -24t-26.5 -60t26.5 -59.5t68.5 -23.5t68.5 23.5z" glyph-name="Aring" horiz-adv-x="642" unicode="Å"/>
<glyph d="M422 0v37h145l-83 191h-349l-84 -191h149v-37h-281v37h93l270 613l-5 13h-113v37h675v67h37v-281h-37v154q0 7 -8 15t-18 8h-455l127 -295h198q6 0 9 4t3 9v88h32v-238h-32v88q0 5 -3 9t-9 4h-183l127 -295h233q12 0 21.5 8.5t9.5 16.5v156h37v-286h-37v68h-469zM469 264 l-157 364h-2l-160 -364h319z" glyph-name="AE" horiz-adv-x="981" unicode="Æ"/>
<glyph d="M205 32.5q-74 47.5 -116.5 131t-42.5 186.5q0 104 42.5 187.5t116.5 130.5t165 47q64 0 120.5 -26t93.5 -68v120h37v-289h-38v60q0 41 -31 79.5t-80.5 62.5t-102.5 24q-76 0 -136.5 -42t-94.5 -116.5t-34 -169.5t34.5 -170t95 -116.5t136.5 -41.5q59 0 112.5 26t86 69 t32.5 91v66h38v-282h-37v98q-40 -48 -100 -76.5t-132 -28.5q-91 0 -165 47.5zM272 -245l85 164h33l-63 -164h-55z" glyph-name="Ccedilla" horiz-adv-x="721" unicode="Ç"/>
<glyph d="M27 0v37h114v626h-114v37h488v67h37v-281h-36v154q0 7 -8 15t-19 8h-292v-295h158q6 0 9.5 4t3.5 9v88h32v-238h-32v88q0 5 -3.5 9t-9.5 4h-158v-295h339q12 0 21.5 8.5t9.5 16.5v156h37v-286h-37v68h-540zM304 781l-85 164h55l63 -164h-33z" glyph-name="Egrave" horiz-adv-x="657" unicode="È"/>
<glyph d="M27 0v37h114v626h-114v37h488v67h37v-281h-36v154q0 7 -8 15t-19 8h-292v-295h158q6 0 9.5 4t3.5 9v88h32v-238h-32v88q0 5 -3.5 9t-9.5 4h-158v-295h339q12 0 21.5 8.5t9.5 16.5v156h37v-286h-37v68h-540zM372 945h55l-85 -164h-33z" glyph-name="Eacute" horiz-adv-x="657" unicode="É"/>
<glyph d="M27 0v37h114v626h-114v37h488v67h37v-281h-36v154q0 7 -8 15t-19 8h-292v-295h158q6 0 9.5 4t3.5 9v88h32v-238h-32v88q0 5 -3.5 9t-9.5 4h-158v-295h339q12 0 21.5 8.5t9.5 16.5v156h37v-286h-37v68h-540zM439 785l-124 128l-126 -128h-44l154 160h49l154 -160h-63z" glyph-name="Ecircumflex" horiz-adv-x="657" unicode="Ê"/>
<glyph d="M27 0v37h114v626h-114v37h488v67h37v-281h-36v154q0 7 -8 15t-19 8h-292v-295h158q6 0 9.5 4t3.5 9v88h32v-238h-32v88q0 5 -3.5 9t-9.5 4h-158v-295h339q12 0 21.5 8.5t9.5 16.5v156h37v-286h-37v68h-540zM211 945h72l-31 -168h-10zM347 945h72l-31 -168h-10z" glyph-name="Edieresis" horiz-adv-x="657" unicode="Ë"/>
<glyph d="M27 37h114v626h-114v37h285v-37h-114v-626h114v-37h-285v37zM151 781l-85 164h55l63 -164h-33z" glyph-name="Igrave" horiz-adv-x="339" unicode="Ì"/>
<glyph d="M27 37h114v626h-114v37h285v-37h-114v-626h114v-37h-285v37zM219 945h55l-85 -164h-33z" glyph-name="Iacute" horiz-adv-x="339" unicode="Í"/>
<glyph d="M27 37h114v626h-114v37h285v-37h-114v-626h114v-37h-285v37zM286 785l-124 128l-126 -128h-44l154 160h49l154 -160h-63z" glyph-name="Icircumflex" horiz-adv-x="339" unicode="Î"/>
<glyph d="M27 37h114v626h-114v37h285v-37h-114v-626h114v-37h-285v37zM58 945h72l-31 -168h-10zM194 945h72l-31 -168h-10z" glyph-name="Idieresis" horiz-adv-x="339" unicode="Ï"/>
<glyph d="M141 37v295h-111v36h111v295h-114v37h285q110 0 195 -44t132.5 -123.5t47.5 -182.5q0 -102 -47.5 -181.5t-132.5 -124t-195 -44.5h-285v37h114zM478.5 75.5q71.5 38.5 111 109.5t39.5 165t-39.5 165t-111 109.5t-165.5 38.5h-115v-295h158v-36h-158v-295h115 q94 0 165.5 38.5z" glyph-name="Eth" horiz-adv-x="732" unicode="Ð"/>
<glyph d="M179 617v-580h139v-37h-291v37h114v614l-9 12h-113v37h170l460 -631v594h-135v37h285v-37h-113v-690h-36zM250.5 889.5q26.5 25.5 65.5 25.5q25 0 48.5 -6.5t54.5 -19.5q29 -12 48.5 -17.5t40.5 -5.5q24 0 41 14.5t17 34.5h32q0 -40 -26.5 -66t-65.5 -26q-25 0 -48.5 6.5 t-53.5 19.5q-31 12 -50 18t-40 6q-24 0 -41 -14.5t-17 -34.5h-32q0 40 26.5 65.5z" glyph-name="Ntilde" horiz-adv-x="821" unicode="Ñ"/>
<glyph d="M222 32.5q-82 47.5 -129 130.5t-47 187t47 187t129 130.5t185 47.5t185.5 -47.5t129.5 -130.5t47 -187t-47 -187t-129.5 -130.5t-185.5 -47.5t-185 47.5zM563 63.5q69 41.5 108 116.5t39 170q0 96 -39 170.5t-108 116t-156 41.5t-156 -41.5t-108 -116t-39 -170.5 q0 -95 39 -170t108 -116.5t156 -41.5t156 41.5zM388 781l-85 164h55l63 -164h-33z" glyph-name="Ograve" horiz-adv-x="814" unicode="Ò"/>
<glyph d="M222 32.5q-82 47.5 -129 130.5t-47 187t47 187t129 130.5t185 47.5t185.5 -47.5t129.5 -130.5t47 -187t-47 -187t-129.5 -130.5t-185.5 -47.5t-185 47.5zM563 63.5q69 41.5 108 116.5t39 170q0 96 -39 170.5t-108 116t-156 41.5t-156 -41.5t-108 -116t-39 -170.5 q0 -95 39 -170t108 -116.5t156 -41.5t156 41.5zM456 945h55l-85 -164h-33z" glyph-name="Oacute" horiz-adv-x="814" unicode="Ó"/>
<glyph d="M222 32.5q-82 47.5 -129 130.5t-47 187t47 187t129 130.5t185 47.5t185.5 -47.5t129.5 -130.5t47 -187t-47 -187t-129.5 -130.5t-185.5 -47.5t-185 47.5zM563 63.5q69 41.5 108 116.5t39 170q0 96 -39 170.5t-108 116t-156 41.5t-156 -41.5t-108 -116t-39 -170.5 q0 -95 39 -170t108 -116.5t156 -41.5t156 41.5zM523 785l-124 128l-126 -128h-44l154 160h49l154 -160h-63z" glyph-name="Ocircumflex" horiz-adv-x="814" unicode="Ô"/>
<glyph d="M222 32.5q-82 47.5 -129 130.5t-47 187t47 187t129 130.5t185 47.5t185.5 -47.5t129.5 -130.5t47 -187t-47 -187t-129.5 -130.5t-185.5 -47.5t-185 47.5zM563 63.5q69 41.5 108 116.5t39 170q0 96 -39 170.5t-108 116t-156 41.5t-156 -41.5t-108 -116t-39 -170.5 q0 -95 39 -170t108 -116.5t156 -41.5t156 41.5zM246.5 889.5q26.5 25.5 65.5 25.5q25 0 48.5 -6.5t54.5 -19.5q29 -12 48.5 -17.5t40.5 -5.5q24 0 41 14.5t17 34.5h32q0 -40 -26.5 -66t-65.5 -26q-25 0 -48.5 6.5t-53.5 19.5q-31 12 -50 18t-40 6q-24 0 -41 -14.5t-17 -34.5 h-32q0 40 26.5 65.5z" glyph-name="Otilde" horiz-adv-x="814" unicode="Õ"/>
<glyph d="M222 32.5q-82 47.5 -129 130.5t-47 187t47 187t129 130.5t185 47.5t185.5 -47.5t129.5 -130.5t47 -187t-47 -187t-129.5 -130.5t-185.5 -47.5t-185 47.5zM563 63.5q69 41.5 108 116.5t39 170q0 96 -39 170.5t-108 116t-156 41.5t-156 -41.5t-108 -116t-39 -170.5 q0 -95 39 -170t108 -116.5t156 -41.5t156 41.5zM295 945h72l-31 -168h-10zM431 945h72l-31 -168h-10z" glyph-name="Odieresis" horiz-adv-x="814" unicode="Ö"/>
<glyph d="M109 204l146 146l-146 146l25 25l146 -145l146 145l25 -25l-145 -146l145 -146l-25 -25l-146 146l-146 -146z" glyph-name="multiply" unicode="×"/>
<glyph d="M276.5 7.5q-61.5 22.5 -108.5 63.5l-68 -71h-47l89 95q-46 49 -71 114t-25 141q0 104 47 187t129 130.5t185 47.5q69 0 130.5 -22.5t108.5 -63.5l68 71h47l-89 -95q46 -49 71.5 -114.5t25.5 -140.5q0 -104 -47 -187t-129.5 -130.5t-185.5 -47.5q-69 0 -130.5 22.5z M521 656.5q-53 22.5 -114 22.5q-88 0 -157 -42t-107.5 -116.5t-38.5 -170.5q0 -64 19 -119.5t54 -99.5l437 462q-40 41 -93 63.5zM564 63q69 42 108 116.5t39 170.5q0 64 -19 119.5t-54 99.5l-437 -462q39 -41 92 -63.5t114 -22.5q88 0 157 42z" glyph-name="Oslash" horiz-adv-x="814" unicode="Ø"/>
<glyph d="M254 23q-64 38 -99 107t-35 161v372h-113v37h308v-37h-138v-371q0 -125 63.5 -196.5t171.5 -71.5q70 0 123 33t82 94t29 142v370h-138v37h290v-37h-114v-371q0 -92 -34.5 -161.5t-98 -107.5t-148.5 -38t-149 38zM391 781l-85 164h55l63 -164h-33z" glyph-name="Ugrave" horiz-adv-x="804" unicode="Ù"/>
<glyph d="M254 23q-64 38 -99 107t-35 161v372h-113v37h308v-37h-138v-371q0 -125 63.5 -196.5t171.5 -71.5q70 0 123 33t82 94t29 142v370h-138v37h290v-37h-114v-371q0 -92 -34.5 -161.5t-98 -107.5t-148.5 -38t-149 38zM459 945h55l-85 -164h-33z" glyph-name="Uacute" horiz-adv-x="804" unicode="Ú"/>
<glyph d="M254 23q-64 38 -99 107t-35 161v372h-113v37h308v-37h-138v-371q0 -125 63.5 -196.5t171.5 -71.5q70 0 123 33t82 94t29 142v370h-138v37h290v-37h-114v-371q0 -92 -34.5 -161.5t-98 -107.5t-148.5 -38t-149 38zM526 785l-124 128l-126 -128h-44l154 160h49l154 -160h-63 z" glyph-name="Ucircumflex" horiz-adv-x="804" unicode="Û"/>
<glyph d="M254 23q-64 38 -99 107t-35 161v372h-113v37h308v-37h-138v-371q0 -125 63.5 -196.5t171.5 -71.5q70 0 123 33t82 94t29 142v370h-138v37h290v-37h-114v-371q0 -92 -34.5 -161.5t-98 -107.5t-148.5 -38t-149 38zM298 945h72l-31 -168h-10zM434 945h72l-31 -168h-10z" glyph-name="Udieresis" horiz-adv-x="804" unicode="Ü"/>
<glyph d="M137 37h140v237l-267 389h-96v37h315v-37h-154l242 -355l241 355h-154v37h293v-37h-95l-267 -389v-237h140v-37h-338v37zM358 945h55l-85 -164h-33z" glyph-name="Yacute" horiz-adv-x="611" unicode="Ý"/>
<glyph d="M141 37v626h-114v37h312v-37h-141v-117h148q118 0 185.5 -52.5t67.5 -143.5t-67.5 -143.5t-185.5 -52.5h-148v-117h141v-37h-312v37h114zM489.5 232q51.5 43 51.5 118t-51.5 118t-143.5 43h-148v-322h148q92 0 143.5 43z" glyph-name="Thorn" horiz-adv-x="630" unicode="Þ"/>
<glyph d="M116 -165v630h-99v35h99v49q0 89 56.5 140t154.5 51q64 0 116 -23.5t69 -55.5v86h34v-287h-31q-24 17 -69 17q-58 0 -92 -24t-34 -67q0 -42 38.5 -69t125.5 -45q102 -22 148.5 -57t46.5 -91q0 -62 -46 -98.5t-121 -36.5q-63 0 -119.5 19t-84.5 50v-73h-32v209h31v-43 q0 -34 28 -63.5t76 -47t103 -17.5q58 0 91.5 24.5t33.5 67.5q0 39 -37 63.5t-123 42.5q-105 23 -152 59t-47 96q0 62 46.5 98t127.5 36q28 0 56 -5v57q0 39 -27 71.5t-71.5 51t-93.5 18.5q-77 0 -119.5 -37t-42.5 -104q0 -22 5 -52q6 -44 6 -75v-601h137v-34h-287v35h99z " glyph-name="germandbls" horiz-adv-x="712" unicode="ß"/>
<glyph d="M84.5 24q-41.5 36 -41.5 95q0 81 70 113.5t181 39.5q70 5 105.5 17.5t35.5 40.5q0 67 -41 107.5t-107 40.5q-33 0 -71 -16t-63.5 -41.5t-25.5 -53.5v-43h-34v209h33v-84q30 27 73 44t90 17q90 0 143.5 -54t53.5 -145v-276h88v-35h-137v131q-25 -65 -89 -104t-145 -39 q-77 0 -118.5 36zM329 51q50 27 79 73.5t29 101.5v52q-15 -13 -46.5 -20.5t-83.5 -12.5q-111 -8 -161.5 -37t-50.5 -86q0 -47 33 -72.5t90 -25.5q61 0 111 27zM258 581l-85 164h55l63 -164h-33z" glyph-name="agrave" horiz-adv-x="589" unicode="à"/>
<glyph d="M84.5 24q-41.5 36 -41.5 95q0 81 70 113.5t181 39.5q70 5 105.5 17.5t35.5 40.5q0 67 -41 107.5t-107 40.5q-33 0 -71 -16t-63.5 -41.5t-25.5 -53.5v-43h-34v209h33v-84q30 27 73 44t90 17q90 0 143.5 -54t53.5 -145v-276h88v-35h-137v131q-25 -65 -89 -104t-145 -39 q-77 0 -118.5 36zM329 51q50 27 79 73.5t29 101.5v52q-15 -13 -46.5 -20.5t-83.5 -12.5q-111 -8 -161.5 -37t-50.5 -86q0 -47 33 -72.5t90 -25.5q61 0 111 27zM326 745h55l-85 -164h-33z" glyph-name="aacute" horiz-adv-x="589" unicode="á"/>
<glyph d="M84.5 24q-41.5 36 -41.5 95q0 81 70 113.5t181 39.5q70 5 105.5 17.5t35.5 40.5q0 67 -41 107.5t-107 40.5q-33 0 -71 -16t-63.5 -41.5t-25.5 -53.5v-43h-34v209h33v-84q30 27 73 44t90 17q90 0 143.5 -54t53.5 -145v-276h88v-35h-137v131q-25 -65 -89 -104t-145 -39 q-77 0 -118.5 36zM329 51q50 27 79 73.5t29 101.5v52q-15 -13 -46.5 -20.5t-83.5 -12.5q-111 -8 -161.5 -37t-50.5 -86q0 -47 33 -72.5t90 -25.5q61 0 111 27zM393 585l-124 128l-126 -128h-44l154 160h49l154 -160h-63z" glyph-name="acircumflex" horiz-adv-x="589" unicode="â"/>
<glyph d="M84.5 24q-41.5 36 -41.5 95q0 81 70 113.5t181 39.5q70 5 105.5 17.5t35.5 40.5q0 67 -41 107.5t-107 40.5q-33 0 -71 -16t-63.5 -41.5t-25.5 -53.5v-43h-34v209h33v-84q30 27 73 44t90 17q90 0 143.5 -54t53.5 -145v-276h88v-35h-137v131q-25 -65 -89 -104t-145 -39 q-77 0 -118.5 36zM329 51q50 27 79 73.5t29 101.5v52q-15 -13 -46.5 -20.5t-83.5 -12.5q-111 -8 -161.5 -37t-50.5 -86q0 -47 33 -72.5t90 -25.5q61 0 111 27zM116.5 689.5q26.5 25.5 65.5 25.5q25 0 48.5 -6.5t54.5 -19.5q29 -12 48.5 -17.5t40.5 -5.5q24 0 41 14.5 t17 34.5h32q0 -40 -26.5 -66t-65.5 -26q-25 0 -48.5 6.5t-53.5 19.5q-31 12 -50 18t-40 6q-24 0 -41 -14.5t-17 -34.5h-32q0 40 26.5 65.5z" glyph-name="atilde" horiz-adv-x="589" unicode="ã"/>
<glyph d="M84.5 24q-41.5 36 -41.5 95q0 81 70 113.5t181 39.5q70 5 105.5 17.5t35.5 40.5q0 67 -41 107.5t-107 40.5q-33 0 -71 -16t-63.5 -41.5t-25.5 -53.5v-43h-34v209h33v-84q30 27 73 44t90 17q90 0 143.5 -54t53.5 -145v-276h88v-35h-137v131q-25 -65 -89 -104t-145 -39 q-77 0 -118.5 36zM329 51q50 27 79 73.5t29 101.5v52q-15 -13 -46.5 -20.5t-83.5 -12.5q-111 -8 -161.5 -37t-50.5 -86q0 -47 33 -72.5t90 -25.5q61 0 111 27zM165 745h72l-31 -168h-10zM301 745h72l-31 -168h-10z" glyph-name="adieresis" horiz-adv-x="589" unicode="ä"/>
<glyph d="M84.5 24q-41.5 36 -41.5 95q0 81 70 113.5t181 39.5q70 5 105.5 17.5t35.5 40.5q0 67 -41 107.5t-107 40.5q-33 0 -71 -16t-63.5 -41.5t-25.5 -53.5v-43h-34v209h33v-84q30 27 73 44t90 17q90 0 143.5 -54t53.5 -145v-276h88v-35h-137v131q-25 -65 -89 -104t-145 -39 q-77 0 -118.5 36zM329 51q50 27 79 73.5t29 101.5v52q-15 -13 -46.5 -20.5t-83.5 -12.5q-111 -8 -161.5 -37t-50.5 -86q0 -47 33 -72.5t90 -25.5q61 0 111 27zM188.5 612.5q-36.5 36.5 -36.5 88.5t36.5 88.5t88.5 36.5t88.5 -36.5t36.5 -88.5t-36.5 -88.5t-88.5 -36.5 t-88.5 36.5zM345.5 641.5q26.5 23.5 26.5 59.5t-26.5 60t-68.5 24t-68.5 -24t-26.5 -60t26.5 -59.5t68.5 -23.5t68.5 23.5z" glyph-name="aring" horiz-adv-x="589" unicode="å"/>
<glyph d="M790 9q-47 -19 -103 -19q-84 0 -146.5 45t-86.5 122q-22 -76 -87.5 -122.5t-151.5 -46.5q-84 0 -128 36t-44 95q0 81 70 113.5t181 39.5q70 5 105.5 17.5t35.5 40.5q0 67 -41 107.5t-107 40.5q-33 0 -71 -16t-63.5 -41.5t-25.5 -53.5v-43h-34v209h33v-84q30 27 73 44 t90 17q71 0 118.5 -36.5t61.5 -101.5q28 63 86 100.5t128 37.5q73 0 129.5 -33t88.5 -92.5t32 -134.5q0 -11 -1 -17h-449q3 -62 30.5 -109.5t73 -74t101.5 -26.5q43 0 83.5 17t65.5 45t25 57v23h36v-181h-34v75q-27 -31 -74 -50zM820.5 419.5q-53.5 57.5 -138.5 57.5 q-54 0 -98.5 -27.5t-71 -76t-29.5 -107.5h396q-5 96 -58.5 153.5zM332 51q49 27 77 73.5t28 101.5v52q-15 -13 -46.5 -20.5t-83.5 -12.5q-111 -8 -161.5 -37t-50.5 -86q0 -47 34.5 -72.5t94.5 -25.5q59 0 108 27z" glyph-name="ae" horiz-adv-x="995" unicode="æ"/>
<glyph d="M395 9.5q-46 -19.5 -100 -19.5q-69 0 -125 34t-88 93.5t-32 132.5q0 74 32 133.5t88 93t125 33.5q48 0 91 -17.5t69 -44.5v99h34v-226h-35v44q0 27 -23.5 53t-60 42.5t-74.5 16.5q-55 0 -99.5 -29t-69.5 -81t-25 -117t25 -116.5t69.5 -80.5t99.5 -29q43 0 82.5 17.5 t64 47t25.5 61.5v47h34v-213h-33v77q-28 -32 -74 -51.5zM203 -245l85 164h33l-63 -164h-55z" glyph-name="ccedilla" horiz-adv-x="577" unicode="ç"/>
<glyph d="M408 9q-47 -19 -103 -19q-73 0 -131 32.5t-91 91t-33 135.5q0 75 33.5 134.5t91 93t126.5 33.5q73 0 129.5 -33t88.5 -92.5t32 -134.5q0 -11 -1 -17h-449q3 -62 30.5 -109.5t73 -74t101.5 -26.5q43 0 83.5 17t65.5 45t25 57v23h36v-181h-34v75q-27 -31 -74 -50z M438.5 419.5q-53.5 57.5 -138.5 57.5q-54 0 -98.5 -27.5t-71 -76t-29.5 -107.5h396q-5 96 -58.5 153.5zM275 581l-85 164h55l63 -164h-33z" glyph-name="egrave" horiz-adv-x="613" unicode="è"/>
<glyph d="M408 9q-47 -19 -103 -19q-73 0 -131 32.5t-91 91t-33 135.5q0 75 33.5 134.5t91 93t126.5 33.5q73 0 129.5 -33t88.5 -92.5t32 -134.5q0 -11 -1 -17h-449q3 -62 30.5 -109.5t73 -74t101.5 -26.5q43 0 83.5 17t65.5 45t25 57v23h36v-181h-34v75q-27 -31 -74 -50z M438.5 419.5q-53.5 57.5 -138.5 57.5q-54 0 -98.5 -27.5t-71 -76t-29.5 -107.5h396q-5 96 -58.5 153.5zM343 745h55l-85 -164h-33z" glyph-name="eacute" horiz-adv-x="613" unicode="é"/>
<glyph d="M408 9q-47 -19 -103 -19q-73 0 -131 32.5t-91 91t-33 135.5q0 75 33.5 134.5t91 93t126.5 33.5q73 0 129.5 -33t88.5 -92.5t32 -134.5q0 -11 -1 -17h-449q3 -62 30.5 -109.5t73 -74t101.5 -26.5q43 0 83.5 17t65.5 45t25 57v23h36v-181h-34v75q-27 -31 -74 -50z M438.5 419.5q-53.5 57.5 -138.5 57.5q-54 0 -98.5 -27.5t-71 -76t-29.5 -107.5h396q-5 96 -58.5 153.5zM410 585l-124 128l-126 -128h-44l154 160h49l154 -160h-63z" glyph-name="ecircumflex" horiz-adv-x="613" unicode="ê"/>
<glyph d="M408 9q-47 -19 -103 -19q-73 0 -131 32.5t-91 91t-33 135.5q0 75 33.5 134.5t91 93t126.5 33.5q73 0 129.5 -33t88.5 -92.5t32 -134.5q0 -11 -1 -17h-449q3 -62 30.5 -109.5t73 -74t101.5 -26.5q43 0 83.5 17t65.5 45t25 57v23h36v-181h-34v75q-27 -31 -74 -50z M438.5 419.5q-53.5 57.5 -138.5 57.5q-54 0 -98.5 -27.5t-71 -76t-29.5 -107.5h396q-5 96 -58.5 153.5zM182 745h72l-31 -168h-10zM318 745h72l-31 -168h-10z" glyph-name="edieresis" horiz-adv-x="613" unicode="ë"/>
<glyph d="M19 35h111v430h-111v35h162v-465h111v-35h-273v35zM132 581l-85 164h55l63 -164h-33z" glyph-name="igrave" horiz-adv-x="303" unicode="ì"/>
<glyph d="M19 35h111v430h-111v35h162v-465h111v-35h-273v35zM200 745h55l-85 -164h-33z" glyph-name="iacute" horiz-adv-x="303" unicode="í"/>
<glyph d="M19 35h111v430h-111v35h162v-465h111v-35h-273v35zM267 585l-124 128l-126 -128h-44l154 160h49l154 -160h-63z" glyph-name="icircumflex" horiz-adv-x="303" unicode="î"/>
<glyph d="M19 35h111v430h-111v35h162v-465h111v-35h-273v35zM39 745h72l-31 -168h-10zM175 745h72l-31 -168h-10z" glyph-name="idieresis" horiz-adv-x="303" unicode="ï"/>
<glyph d="M580 250q0 -73 -35 -132.5t-95.5 -93.5t-135.5 -34q-74 0 -134.5 34t-95 93.5t-34.5 132.5t34.5 132t95 93t134.5 34q62 0 110 -25q-5 9 -17 25l-57 74h-174v32h150l-73 95h43l74 -95h148v-32h-124l116 -149q70 -86 70 -184zM422 54q48 29 75.5 80.5t27.5 115.5 t-27.5 115.5t-75.5 80.5t-107 29q-60 0 -108 -29t-75 -80t-27 -116t27 -116t75 -80t108 -29q59 0 107 29z" glyph-name="eth" horiz-adv-x="629" unicode="ð"/>
<glyph d="M114 35v430h-95v35h144v-120q24 60 72.5 95t110.5 35q99 0 155 -64.5t56 -179.5v-231h89v-35h-248v35h108v228q0 99 -45 154.5t-125 55.5q-48 0 -87 -27.5t-61.5 -76t-22.5 -108.5v-226h108v-35h-254v35h95zM167.5 689.5q26.5 25.5 65.5 25.5q25 0 48.5 -6.5t54.5 -19.5 q29 -12 48.5 -17.5t40.5 -5.5q24 0 41 14.5t17 34.5h32q0 -40 -26.5 -66t-65.5 -26q-25 0 -48.5 6.5t-53.5 19.5q-31 12 -50 18t-40 6q-24 0 -41 -14.5t-17 -34.5h-32q0 40 26.5 65.5z" glyph-name="ntilde" horiz-adv-x="661" unicode="ñ"/>
<glyph d="M179.5 24q-60.5 34 -95 93.5t-34.5 132.5t34.5 132.5t95 93.5t135.5 34q74 0 135 -34t95.5 -93.5t34.5 -132.5t-34.5 -132.5t-95.5 -93.5t-135 -34q-75 0 -135.5 34zM423.5 54q48.5 29 76 80.5t27.5 115.5t-27.5 116t-76 81t-108.5 29t-109 -29t-76.5 -80.5t-27.5 -116.5 q0 -64 27.5 -115.5t76.5 -80.5t109 -29t108.5 29zM296 581l-85 164h55l63 -164h-33z" glyph-name="ograve" horiz-adv-x="629" unicode="ò"/>
<glyph d="M179.5 24q-60.5 34 -95 93.5t-34.5 132.5t34.5 132.5t95 93.5t135.5 34q74 0 135 -34t95.5 -93.5t34.5 -132.5t-34.5 -132.5t-95.5 -93.5t-135 -34q-75 0 -135.5 34zM423.5 54q48.5 29 76 80.5t27.5 115.5t-27.5 116t-76 81t-108.5 29t-109 -29t-76.5 -80.5t-27.5 -116.5 q0 -64 27.5 -115.5t76.5 -80.5t109 -29t108.5 29zM364 745h55l-85 -164h-33z" glyph-name="oacute" horiz-adv-x="629" unicode="ó"/>
<glyph d="M179.5 24q-60.5 34 -95 93.5t-34.5 132.5t34.5 132.5t95 93.5t135.5 34q74 0 135 -34t95.5 -93.5t34.5 -132.5t-34.5 -132.5t-95.5 -93.5t-135 -34q-75 0 -135.5 34zM423.5 54q48.5 29 76 80.5t27.5 115.5t-27.5 116t-76 81t-108.5 29t-109 -29t-76.5 -80.5t-27.5 -116.5 q0 -64 27.5 -115.5t76.5 -80.5t109 -29t108.5 29zM431 585l-124 128l-126 -128h-44l154 160h49l154 -160h-63z" glyph-name="ocircumflex" horiz-adv-x="629" unicode="ô"/>
<glyph d="M179.5 24q-60.5 34 -95 93.5t-34.5 132.5t34.5 132.5t95 93.5t135.5 34q74 0 135 -34t95.5 -93.5t34.5 -132.5t-34.5 -132.5t-95.5 -93.5t-135 -34q-75 0 -135.5 34zM423.5 54q48.5 29 76 80.5t27.5 115.5t-27.5 116t-76 81t-108.5 29t-109 -29t-76.5 -80.5t-27.5 -116.5 q0 -64 27.5 -115.5t76.5 -80.5t109 -29t108.5 29zM154.5 689.5q26.5 25.5 65.5 25.5q25 0 48.5 -6.5t54.5 -19.5q29 -12 48.5 -17.5t40.5 -5.5q24 0 41 14.5t17 34.5h32q0 -40 -26.5 -66t-65.5 -26q-25 0 -48.5 6.5t-53.5 19.5q-31 12 -50 18t-40 6q-24 0 -41 -14.5 t-17 -34.5h-32q0 40 26.5 65.5z" glyph-name="otilde" horiz-adv-x="629" unicode="õ"/>
<glyph d="M179.5 24q-60.5 34 -95 93.5t-34.5 132.5t34.5 132.5t95 93.5t135.5 34q74 0 135 -34t95.5 -93.5t34.5 -132.5t-34.5 -132.5t-95.5 -93.5t-135 -34q-75 0 -135.5 34zM423.5 54q48.5 29 76 80.5t27.5 115.5t-27.5 116t-76 81t-108.5 29t-109 -29t-76.5 -80.5t-27.5 -116.5 q0 -64 27.5 -115.5t76.5 -80.5t109 -29t108.5 29zM203 745h72l-31 -168h-10zM339 745h72l-31 -168h-10z" glyph-name="odieresis" horiz-adv-x="629" unicode="ö"/>
<glyph d="M253.5 501q-10.5 11 -10.5 27t10.5 26.5t26.5 10.5t27 -10.5t11 -26.5t-11 -27t-27 -11t-26.5 11zM76 368h408v-35h-408v35zM253.5 146q-10.5 11 -10.5 27t10.5 26.5t26.5 10.5t27 -10.5t11 -26.5t-11 -27t-27 -11t-26.5 11z" glyph-name="divide" unicode="÷"/>
<glyph d="M149 46l-44 -46h-44l62 67q-35 36 -54 82.5t-19 100.5q0 73 34.5 132.5t95 93.5t135.5 34q47 0 89.5 -14.5t76.5 -41.5l44 46h44l-63 -67q35 -36 54.5 -82.5t19.5 -100.5q0 -73 -34.5 -132.5t-95.5 -93.5t-135 -34q-96 0 -166 56zM315 476q-60 0 -109 -29t-76.5 -80.5 t-27.5 -116.5q0 -42 13.5 -80.5t37.5 -67.5l298 319q-55 55 -136 55zM423.5 54q48.5 29 76 80.5t27.5 115.5q0 42 -13.5 80.5t-37.5 67.5l-298 -319q56 -54 137 -54q60 0 108.5 29z" glyph-name="oslash" horiz-adv-x="629" unicode="ø"/>
<glyph d="M159.5 54.5q-55.5 64.5 -55.5 179.5v231h-89v35h140v-263q0 -99 45 -154.5t125 -55.5q48 0 87 27.5t61.5 76t22.5 108.5v226h-112v35h258v-35h-95v-430h95v-35h-144v122q-24 -61 -73 -96.5t-111 -35.5q-99 0 -154.5 64.5zM306 581l-85 164h55l63 -164h-33z" glyph-name="ugrave" horiz-adv-x="661" unicode="ù"/>
<glyph d="M159.5 54.5q-55.5 64.5 -55.5 179.5v231h-89v35h140v-263q0 -99 45 -154.5t125 -55.5q48 0 87 27.5t61.5 76t22.5 108.5v226h-112v35h258v-35h-95v-430h95v-35h-144v122q-24 -61 -73 -96.5t-111 -35.5q-99 0 -154.5 64.5zM374 745h55l-85 -164h-33z" glyph-name="uacute" horiz-adv-x="661" unicode="ú"/>
<glyph d="M159.5 54.5q-55.5 64.5 -55.5 179.5v231h-89v35h140v-263q0 -99 45 -154.5t125 -55.5q48 0 87 27.5t61.5 76t22.5 108.5v226h-112v35h258v-35h-95v-430h95v-35h-144v122q-24 -61 -73 -96.5t-111 -35.5q-99 0 -154.5 64.5zM441 585l-124 128l-126 -128h-44l154 160h49 l154 -160h-63z" glyph-name="ucircumflex" horiz-adv-x="661" unicode="û"/>
<glyph d="M159.5 54.5q-55.5 64.5 -55.5 179.5v231h-89v35h140v-263q0 -99 45 -154.5t125 -55.5q48 0 87 27.5t61.5 76t22.5 108.5v226h-112v35h258v-35h-95v-430h95v-35h-144v122q-24 -61 -73 -96.5t-111 -35.5q-99 0 -154.5 64.5zM213 745h72l-31 -168h-10zM349 745h72l-31 -168 h-10z" glyph-name="udieresis" horiz-adv-x="661" unicode="ü"/>
<glyph d="M77 5v-47q0 -35 15.5 -65.5t41.5 -48.5t55 -18q37 0 61.5 28t24.5 74v17q0 22 -6.5 44t-23.5 56l-218 420h-72v35h262v-35h-129l193 -381q8 -16 16 -45q4 23 11 39l170 387h-138v35h248v-35h-72l-181 -410q-10 -26 -14.5 -45.5t-4.5 -43.5v-21q0 -69 -35.5 -112 t-91.5 -43q-37 0 -67 17t-45 39v-60h-33v219h33zM325 745h55l-85 -164h-33z" glyph-name="yacute" horiz-adv-x="542" unicode="ý"/>
<glyph d="M115 -165v831h-96v35h146v-331q25 65 78 102.5t123 37.5q65 0 118.5 -34t84 -93.5t30.5 -132.5t-30.5 -132.5t-84 -93.5t-118.5 -34q-70 0 -123 38t-78 102v-296h145v-34h-291v35h96zM451 54.5q43 28.5 68 80t25 115.5t-25 115.5t-68 80t-96 28.5q-54 0 -98 -29.5 t-69 -80.5t-25 -114t25 -114t69 -80.5t98 -29.5q53 0 96 28.5z" glyph-name="thorn" horiz-adv-x="648" unicode="þ"/>
<glyph d="M19 35h111v430h-111v35h162v-465h111v-35h-273v35z" glyph-name="dotlessi" horiz-adv-x="303" unicode="ı"/>
<glyph d="M-53 -36v-17q0 -34 15.5 -62.5t41 -45t53.5 -16.5q37 0 62 29.5t25 77.5q0 35 -5 80q-5 73 -5 94v361h-116v35h167v-556q0 -68 -35.5 -111t-89.5 -43q-37 0 -67 17.5t-45 40.5v-63h-33v179h32z" glyph-name="uni0237" horiz-adv-x="302" unicode="ȷ"/>
<glyph d="M-319 581l-85 164h55l63 -164h-33z" glyph-name="gravecomb" horiz-adv-x="0" unicode="̀"/>
<glyph d="M-251 745h55l-85 -164h-33z" glyph-name="acutecomb" horiz-adv-x="0" unicode="́"/>
<glyph d="M-184 585l-124 128l-126 -128h-44l154 160h49l154 -160h-63z" glyph-name="uni0302" horiz-adv-x="0" unicode="̂"/>
<glyph d="M-460.5 689.5q26.5 25.5 65.5 25.5q25 0 48.5 -6.5t54.5 -19.5q29 -12 48.5 -17.5t40.5 -5.5q24 0 41 14.5t17 34.5h32q0 -40 -26.5 -66t-65.5 -26q-25 0 -48.5 6.5t-53.5 19.5q-31 12 -50 18t-40 6q-24 0 -41 -14.5t-17 -34.5h-32q0 40 26.5 65.5z" glyph-name="tildecomb" horiz-adv-x="0" unicode="̃"/>
<glyph d="M-340 745h80l-35 -168h-10z" glyph-name="uni0307" horiz-adv-x="0" unicode="̇"/>
<glyph d="M-404 745h72l-31 -168h-10zM-268 745h72l-31 -168h-10z" glyph-name="uni0308" horiz-adv-x="0" unicode="̈"/>
<glyph d="M-388.5 612.5q-36.5 36.5 -36.5 88.5t36.5 88.5t88.5 36.5t88.5 -36.5t36.5 -88.5t-36.5 -88.5t-88.5 -36.5t-88.5 36.5zM-231.5 641.5q26.5 23.5 26.5 59.5t-26.5 60t-68.5 24t-68.5 -24t-26.5 -60t26.5 -59.5t68.5 -23.5t68.5 23.5z" glyph-name="uni030A" horiz-adv-x="0" unicode="̊"/>
<glyph d="M-394 -245l85 164h33l-63 -164h-55z" glyph-name="uni0327" horiz-adv-x="0" unicode="̧"/>
<glyph d="M78 318h386v-35h-386v35z" glyph-name="endash" horiz-adv-x="540" unicode="–"/>
<glyph d="M121 350l109 -200h-40l-106 194v12l106 194h40zM295 350l109 -200h-40l-106 194v12l106 194h40z" glyph-name="guillemotleft.case" horiz-adv-x="488"/>
<glyph d="M367 350l-109 200h40l106 -194v-12l-106 -194h-40zM193 350l-109 200h40l106 -194v-12l-106 -194h-40z" glyph-name="guillemotright.case" horiz-adv-x="488"/>
<glyph d="M225 33q-84 48 -132 132t-48 185t48 185t132 132t185 48t185 -48t132 -132t48 -185q0 -112 -56 -198h-177v109q-19 -54 -71 -86t-118 -32q-65 0 -99 29t-34 76q0 66 57.5 92.5t149.5 33.5q56 3 85 13.5t29 36.5q0 49 -34 81t-88 32q-26 0 -56 -13t-50.5 -33.5 t-20.5 -41.5v-34h-30v168h30v-66q23 22 57.5 36.5t71.5 14.5q73 0 119 -45t46 -119v-221h120q43 77 43 167q0 94 -45 171.5t-122.5 122.5t-171.5 45t-171.5 -45t-122 -122.5t-44.5 -171.5t44.5 -171.5t122 -122t171.5 -44.5q69 0 130 24t108 69l18 -18q-50 -49 -116 -75.5 t-140 -26.5q-101 0 -185 48zM454.5 198.5q40.5 21.5 64 58.5t23.5 80v36q-23 -20 -106 -26q-91 -8 -131 -30t-40 -66q0 -35 27 -54.5t73 -19.5q49 0 89.5 21.5z" glyph-name="at.case" horiz-adv-x="820"/>
</font>
</defs>
</svg>
