<?xml version="1.0" encoding="UTF-8"?>
<!DOCTYPE svg  PUBLIC '-//W3C//DTD SVG 1.1//EN'  'http://www.w3.org/Graphics/SVG/1.1/DTD/svg11.dtd'>
<svg version="1.1" xmlns="http://www.w3.org/2000/svg">
<defs>
<font id="KyivTypeSans-Medium2" horiz-adv-x="560">
<font-face font-family="KyivType Sans Medium2" font-weight="500" ascent="800" bbox="-491 -245 998 1028" cap-height="700" descent="-200" panose-1="0 0 6 0 0 0 0 0 0 0" underline-position="-100" underline-thickness="50" unicode-range="U+0020-2013" units-per-em="1000" x-height="500"/>
<missing-glyph/>
<glyph glyph-name="space" horiz-adv-x="250" unicode=" "/>
<glyph d="M93 700h130l-39 -470h-52zM106.5 13q-21.5 22 -21.5 54t22 53.5t53 21.5q32 0 53.5 -21.5t21.5 -53.5t-21.5 -54t-53.5 -22t-53.5 22z" glyph-name="exclam" horiz-adv-x="320" unicode="!"/>
<glyph d="M38 705h125l-58 -220h-10zM193 705h125l-58 -220h-10z" glyph-name="quotedbl" horiz-adv-x="355" unicode='"'/>
<glyph d="M212 150h-137v103h137v195h-137v102h137v165h57v-165h163v165h57v-165h136v-102h-136v-195h136v-103h-136v-165h-57v165h-163v-165h-57v165zM432 253v195h-163v-195h163z" glyph-name="numbersign" horiz-adv-x="700" unicode="#"/>
<glyph d="M146.5 58q-74.5 65 -86.5 173h68q13 -87 75.5 -136.5t155.5 -49.5q80 0 127 31t47 88q0 42 -25 67.5t-64 40t-108 30.5q-80 20 -131.5 40.5t-88.5 61.5t-37 107q0 92 69.5 146t180.5 58v115h50v-116q106 -8 175 -70.5t79 -168.5h-70q-12 84 -68.5 131.5t-143.5 47.5 q-72 0 -119.5 -31t-47.5 -87q0 -40 25.5 -64t62.5 -37.5t107 -30.5q85 -21 138 -42t89.5 -62.5t36.5 -110.5q0 -93 -70.5 -146t-185.5 -57v-116h-50v116q-116 7 -190.5 72z" glyph-name="dollar" horiz-adv-x="700" unicode="$"/>
<glyph d="M117.5 395q-38.5 22 -60.5 60t-22 84t22 84t60.5 60t84.5 22t84 -22t60 -60t22 -84t-22 -84t-60 -60t-84 -22t-84.5 22zM567 700h57l-418 -700h-57zM269.5 455.5q26.5 32.5 26.5 83.5t-26.5 83.5t-67.5 32.5q-42 0 -68.5 -32.5t-26.5 -83.5t27 -83.5t68 -32.5t67.5 32.5z M487.5 17q-38.5 22 -60.5 60.5t-22 84.5t22 84t60.5 60t84.5 22t84 -22t60 -60t22 -84t-22 -84.5t-60 -60.5t-84 -22t-84.5 22zM639.5 78q26.5 33 26.5 84t-26.5 83.5t-67.5 32.5t-68 -32.5t-27 -83.5q0 -52 27 -84.5t68 -32.5t67.5 33z" glyph-name="percent" horiz-adv-x="773" unicode="%"/>
<glyph d="M152.5 12q-58.5 27 -90.5 75.5t-32 112.5q0 87 59.5 141.5t160.5 61.5h4l-180 236v61h507v-63h-369l332 -430q40 77 49 177h67q-11 -138 -70 -231l115 -153h-137l-56 71q-44 -42 -100.5 -64t-122.5 -22q-78 0 -136.5 27zM472 118l-180 240h-16q-63 -4 -101.5 -45 t-38.5 -104q0 -72 45 -117t123 -45q102 0 168 71z" glyph-name="ampersand" horiz-adv-x="729" unicode="&amp;"/>
<glyph d="M38 705h125l-58 -220h-10z" glyph-name="quotesingle" horiz-adv-x="200" unicode="'"/>
<glyph d="M240.5 -56.5q-64.5 58.5 -100.5 164t-36 242.5t36 242.5t100.5 164t148.5 58.5v-56q-56 0 -98 -50t-64.5 -142.5t-22.5 -216.5t22.5 -216.5t64.5 -142.5t98 -50v-56q-84 0 -148.5 58.5z" glyph-name="parenleft" horiz-adv-x="500" unicode="("/>
<glyph d="M260.5 756.5q64.5 -58.5 100.5 -164t36 -242.5q0 -136 -36 -242t-100.5 -164.5t-148.5 -58.5v56q56 0 98 50t64.5 142.5t22.5 216.5t-22.5 216.5t-64.5 142.5t-98 50v56q84 0 148.5 -58.5z" glyph-name="parenright" horiz-adv-x="500" unicode=")"/>
<glyph d="M185 554l-77 -69l-69 20l19 69h119l-147 45v69l64 17l88 -105l-50 141l63 53l63 -53l-50 -141l88 105l64 -17v-69l-148 -45h119l19 -69l-68 -20l-78 69l9 -100h-37z" glyph-name="asterisk" horiz-adv-x="390" unicode="*"/>
<glyph d="M485 322h-176v-177h-57v177h-177v57h177v176h57v-176h176v-57z" glyph-name="plus" unicode="+"/>
<glyph d="M87 -103q26 22 44.5 50.5t24.5 58.5q-11 -11 -25 -11q-30 4 -48 24.5t-18 47.5q0 31 21 53t54 22t54.5 -21.5t21.5 -58.5q0 -43 -23 -93.5t-53 -73.5h-53v2z" glyph-name="comma" horiz-adv-x="280" unicode=","/>
<glyph d="M75 334h255v-67h-255v67z" glyph-name="hyphen" horiz-adv-x="405" unicode="-"/>
<glyph d="M86.5 13q-21.5 22 -21.5 54t22 53.5t53 21.5q32 0 53.5 -21.5t21.5 -53.5t-21.5 -54t-53.5 -22t-53.5 22z" glyph-name="period" horiz-adv-x="280" unicode="."/>
<glyph d="M376 700h61l-338 -700h-61z" glyph-name="slash" horiz-adv-x="475" unicode="/"/>
<glyph d="M202.5 32q-69.5 47 -109 130t-39.5 188t39.5 188t109 130t157.5 47t158 -47t109.5 -130t39.5 -188t-39.5 -188t-109.5 -130t-158 -47t-157.5 47zM459.5 85q43.5 38 68 107t24.5 158t-24.5 158.5t-68 107.5t-99.5 38t-99.5 -38t-67.5 -107.5t-24 -158.5t24 -158t67.5 -107 t99.5 -38t99.5 38z" glyph-name="zero" horiz-adv-x="720" unicode="0"/>
<glyph d="M182 596l-158 -105v75l196 134h74v-700h-112v596z" glyph-name="one" horiz-adv-x="413" unicode="1"/>
<glyph d="M320 242q58 41 89 87q-22 -19 -53 -29.5t-66 -9.5q-76 3 -133 31t-88.5 74.5t-31.5 103.5q0 60 34.5 109.5t98 78t146.5 28.5q81 0 144.5 -27.5t99.5 -77t36 -112.5q0 -75 -56.5 -143.5t-156.5 -133.5l-178 -119h403v-102h-562v56zM439 378q46 43 46 110q0 78 -47 124 t-122 46q-74 0 -121 -45t-47 -117q0 -71 47 -116t121 -45q77 0 123 43z" glyph-name="two" horiz-adv-x="631" unicode="2"/>
<glyph d="M149.5 15q-59.5 29 -94 80.5t-36.5 116.5h67q4 -71 55.5 -115.5t128.5 -44.5q52 0 91 21.5t60.5 59t21.5 84.5q0 66 -38 108t-100 42q-27 0 -53 -8.5t-45 -22.5l-11 -8l-35 43l252 228h-373v101h506v-60l-266 -244q35 17 76 17q89 -5 145 -59.5t56 -140.5 q0 -65 -34 -116.5t-96 -81t-143 -29.5q-75 0 -134.5 29z" glyph-name="three" horiz-adv-x="584" unicode="3"/>
<glyph d="M393 173h-381v57l375 470h116v-436h134v-91h-134v-173h-110v173zM393 264v352l-286 -352h286z" glyph-name="four" horiz-adv-x="641" unicode="4"/>
<glyph d="M171.5 12.5q-59.5 26.5 -94.5 74.5t-40 111h68q7 -64 57.5 -104t124.5 -40q54 0 95 22.5t63.5 63t22.5 91.5q0 74 -47.5 121t-125.5 47q-59 0 -104.5 -25t-65.5 -68l-63 1l56 393h432v-99h-383l-33 -220q32 35 81 53.5t109 18.5q74 0 132.5 -27.5t92 -78t33.5 -118.5 q0 -71 -35 -126t-97.5 -86t-142.5 -31q-76 0 -135.5 26.5z" glyph-name="five" horiz-adv-x="623" unicode="5"/>
<glyph d="M199 32.5q-69 47.5 -106.5 130.5t-37.5 187q0 106 38 189t108.5 129.5t162.5 46.5q67 0 121.5 -24.5t89 -68.5t42.5 -100h-72q-11 57 -58.5 91.5t-114.5 34.5q-59 0 -106 -31.5t-74 -96t-27 -157.5q0 -24 3 -48q22 65 81 103t141 38q71 0 128 -29.5t89.5 -82.5t32.5 -120 q0 -64 -34.5 -118.5t-98.5 -87.5t-148 -33q-91 0 -160 47.5zM443.5 67q38.5 24 60.5 65.5t22 90.5q0 51 -21 91t-59 62.5t-87 22.5q-48 0 -87 -20.5t-62 -56t-24 -78.5q0 -50 22 -96.5t61 -75.5t89 -29q47 0 85.5 24z" glyph-name="six" horiz-adv-x="683" unicode="6"/>
<glyph d="M284 319q83 161 195 278h-461v103h558v-60q-111 -120 -187.5 -292.5t-89.5 -347.5h-117q19 158 102 319z" glyph-name="seven" horiz-adv-x="586" unicode="7"/>
<glyph d="M191 10.5q-67 25.5 -104.5 70.5t-37.5 102q0 63 45.5 109t130.5 66q-71 18 -114 63.5t-43 101.5q0 55 35 98t98 67.5t142 24.5t142 -24.5t98 -67.5t35 -98q0 -56 -43 -101.5t-114 -63.5q85 -20 130.5 -66t45.5 -109q0 -57 -37.5 -102t-104.5 -70.5t-152 -25.5t-152 25.5z M464.5 420q47.5 39 47.5 100t-47.5 100t-121.5 39q-75 0 -122 -38.5t-47 -100.5q0 -61 47 -100t122 -39q74 0 121.5 39zM472 81q50 41 50 105q0 42 -23 75t-63.5 51.5t-92.5 18.5t-92.5 -18.5t-63.5 -51.5t-23 -75q0 -64 50 -105t129 -41t129 41z" glyph-name="eight" horiz-adv-x="685" unicode="8"/>
<glyph d="M484 667.5q69 -47.5 106.5 -130.5t37.5 -187q0 -106 -38 -189t-108.5 -129.5t-162.5 -46.5q-67 0 -121.5 24.5t-89 68.5t-42.5 100h72q11 -57 58.5 -91.5t114.5 -34.5q59 0 106 31.5t74 96t27 157.5q0 24 -3 48q-22 -65 -81 -103t-141 -38q-71 0 -128 29.5t-89.5 82.5 t-32.5 120q0 64 34.5 118.5t98.5 87.5t148 33q91 0 160 -47.5zM239.5 633q-38.5 -24 -60.5 -65.5t-22 -90.5q0 -51 21 -91t59 -62.5t87 -22.5q48 0 87 20.5t62 56t24 78.5q0 50 -22 96.5t-61 75.5t-89 29q-47 0 -85.5 -24z" glyph-name="nine" horiz-adv-x="683" unicode="9"/>
<glyph d="M86.5 13q-21.5 22 -21.5 54t22 53.5t53 21.5q32 0 53.5 -21.5t21.5 -53.5t-21.5 -54t-53.5 -22t-53.5 22zM86.5 353q-21.5 22 -21.5 54t22 53.5t53 21.5q32 0 53.5 -21.5t21.5 -53.5t-21.5 -54t-53.5 -22t-53.5 22z" glyph-name="colon" horiz-adv-x="280" unicode=":"/>
<glyph d="M87 -103q26 22 44.5 50.5t24.5 58.5q-11 -11 -25 -11q-30 4 -48 24.5t-18 47.5q0 31 21 53t54 22t54.5 -21.5t21.5 -58.5q0 -43 -23 -93.5t-53 -73.5h-53v2zM86.5 353q-21.5 22 -21.5 54t22 53.5t53 21.5q32 0 53.5 -21.5t21.5 -53.5t-21.5 -54t-53.5 -22t-53.5 22z" glyph-name="semicolon" horiz-adv-x="281" unicode=";"/>
<glyph d="M485 502l-321 -150l321 -151v-64l-410 192v42l410 193v-62z" glyph-name="less" unicode="&lt;"/>
<glyph d="M75 479h410v-57h-410v57zM75 279h410v-57h-410v57z" glyph-name="equal" unicode="="/>
<glyph d="M75 198l321 151l-321 151v64l410 -193v-42l-410 -192v61z" glyph-name="greater" unicode="&gt;"/>
<glyph d="M231 254q0 53 24 87.5t71 65.5q36 29 54.5 56.5t18.5 68.5q0 56 -37 87t-96 31q-72 0 -113 -46.5t-43 -121.5h-68q2 107 67 170t175 63q62 0 115 -20.5t84.5 -60.5t31.5 -97q0 -56 -30.5 -93t-81.5 -64q-40 -26 -62.5 -45t-35.5 -44.5t-13 -61.5h-57q-4 12 -4 25z M219.5 13q-21.5 22 -21.5 54t21.5 53.5t53.5 21.5t53.5 -21.5t21.5 -53.5t-21.5 -54t-53.5 -22t-53.5 22z" glyph-name="question" horiz-adv-x="562" unicode="?"/>
<glyph d="M225 -119q-84 48 -132 132t-48 185t48 185t132 132t185 48t185 -48t132 -132t48 -185q0 -112 -56 -198h-205v89q-22 -46 -67 -72t-103 -26q-62 0 -98.5 29.5t-36.5 77.5q0 57 48.5 87t154.5 37q55 4 77.5 16.5t22.5 37.5q0 40 -29 65t-75 25q-49 0 -82.5 -27.5 t-41.5 -75.5h-51q10 70 59.5 110.5t124.5 40.5q80 0 129 -44.5t49 -120.5v-200h107q37 68 37 149q0 92 -43.5 167t-118.5 118.5t-167 43.5q-91 0 -166 -43.5t-118.5 -118.5t-43.5 -167q0 -91 43.5 -166t118.5 -118.5t166 -43.5q135 0 230 87l24 -26q-50 -47 -114.5 -72.5 t-139.5 -25.5q-101 0 -185 48zM442 58.5q32 19.5 51.5 52t19.5 70.5v36q-27 -20 -88 -26q-67 -7 -97.5 -27t-30.5 -58q0 -32 20 -49.5t56 -17.5q37 0 69 19.5z" glyph-name="at" horiz-adv-x="820" unicode="@"/>
<glyph d="M293 700h122l277 -700h-128l-79 201h-318l-79 -201h-73zM466 259l-138 347h-4l-138 -347h280z" glyph-name="A" horiz-adv-x="708" unicode="A"/>
<glyph d="M386 700q122 0 190 -48t68 -133q0 -59 -35 -101t-99 -60v-4q77 -16 119 -60t42 -108q0 -85 -70.5 -135.5t-193.5 -50.5h-295v700h274zM492.5 413.5q38.5 34.5 38.5 96.5q0 63 -39 97t-110 34h-153v-262h155q70 0 108.5 34.5zM511 93.5q41 34.5 41 97.5q0 62 -41.5 97 t-115.5 35h-166v-264h167q74 0 115 34.5z" glyph-name="B" horiz-adv-x="722" unicode="B"/>
<glyph d="M230 31.5q-81 46.5 -126.5 129.5t-45.5 189q0 107 45.5 190t126.5 129t185 46q86 0 157.5 -36.5t116.5 -101.5t54 -149h-71q-15 94 -81 152.5t-159 58.5q-74 0 -131 -36.5t-89 -102t-32 -150.5q0 -84 32 -150t89.5 -102.5t130.5 -36.5q62 0 113 27t84 75t43 110h71 q-9 -84 -54 -149.5t-116.5 -102t-157.5 -36.5q-104 0 -185 46.5z" glyph-name="C" horiz-adv-x="791" unicode="C"/>
<glyph d="M332 700q115 0 202.5 -44t135.5 -123t48 -183q0 -103 -48 -182.5t-135.5 -123.5t-202.5 -44h-220v700h220zM525 140q69 76 69 210q0 135 -69 211t-190 76h-103v-573h103q121 0 190 76z" glyph-name="D" horiz-adv-x="775" unicode="D"/>
<glyph d="M112 700h431v-62h-313v-258h221v-59h-221v-258h353v-63h-471v700z" glyph-name="E" horiz-adv-x="613" unicode="E"/>
<glyph d="M112 700h443v-66h-323v-260h234v-63h-234v-311h-120v700z" glyph-name="F" horiz-adv-x="566" unicode="F"/>
<glyph d="M222 31.5q-77 46.5 -120.5 129t-43.5 187.5q0 107 45.5 190.5t126 130t182.5 46.5q85 0 153 -32t112 -90t58 -134h-73q-20 84 -80.5 133.5t-149.5 49.5q-74 0 -131 -37t-89 -103.5t-32 -152.5t32 -153t88.5 -104.5t126.5 -37.5q58 0 104.5 26.5t74.5 74.5t31 108v46h-207 v56h326v-365h-108v139q-30 -72 -96 -113t-156 -41q-97 0 -174 46.5z" glyph-name="G" horiz-adv-x="824" unicode="G"/>
<glyph d="M112 700h120v-316h357v316h120v-700h-120v316h-357v-316h-120v700z" glyph-name="H" horiz-adv-x="820" unicode="H"/>
<glyph d="M112 700h120v-700h-120v700z" glyph-name="I" horiz-adv-x="343" unicode="I"/>
<glyph d="M151 16.5q-56 31.5 -87 90t-31 136.5v47h69v-43q0 -83 43 -133t113 -50q68 0 108.5 47.5t40.5 127.5v461h120v-452q0 -81 -30.5 -140t-86 -91t-129.5 -32t-130 31.5z" glyph-name="J" horiz-adv-x="626" unicode="J"/>
<glyph d="M112 700h119v-316h97l259 316h79l-244 -305l282 -395h-143l-231 316h-99v-316h-119v700z" glyph-name="K" horiz-adv-x="726" unicode="K"/>
<glyph d="M112 700h120v-632h343v-68h-463v700z" glyph-name="L" horiz-adv-x="603" unicode="L"/>
<glyph d="M112 700h159l229 -551l227 551h155v-700h-119v617l-252 -617h-79l-251 613v-613h-69v700z" glyph-name="M" horiz-adv-x="993" unicode="M"/>
<glyph d="M110 700h122l402 -531v531h66v-710h-74l-449 587v-577h-67v700z" glyph-name="N" horiz-adv-x="810" unicode="N"/>
<glyph d="M235 32.5q-83 47.5 -130 130.5t-47 187t47 187.5t130 130.5t187 47t186.5 -47t129.5 -130.5t47 -187.5t-47 -187t-129.5 -130.5t-186.5 -47.5t-187 47.5zM547.5 90.5q54.5 36.5 85 103.5t30.5 156q0 90 -30.5 157t-85 103.5t-125.5 36.5t-126 -36.5t-85.5 -103.5 t-30.5 -157q0 -89 30.5 -156t85.5 -103.5t126 -36.5t125.5 36.5z" glyph-name="O" horiz-adv-x="843" unicode="O"/>
<glyph d="M346 700q132 0 205 -55.5t73 -154.5q0 -98 -73.5 -154t-204.5 -56h-115v-280h-119v700h234zM462 377.5q42 39.5 42 110.5t-42 110.5t-117 39.5h-114v-300h114q75 0 117 39.5z" glyph-name="P" horiz-adv-x="669" unicode="P"/>
<glyph d="M204.5 53q-69.5 49 -108 126t-38.5 171q0 104 47 187.5t130 130.5t187 47t186.5 -47t129.5 -130.5t47 -187.5q0 -94 -38.5 -171t-107.5 -126t-157 -61v-192h-120v192q-88 12 -157.5 61zM547.5 90.5q54.5 36.5 85 103.5t30.5 156q0 90 -30.5 157t-85 103.5t-125.5 36.5 t-126 -36.5t-85.5 -103.5t-30.5 -157q0 -89 30.5 -156t85.5 -103.5t126 -36.5t125.5 36.5z" glyph-name="Q" horiz-adv-x="843" unicode="Q"/>
<glyph d="M352 700q130 0 204.5 -55t74.5 -151q0 -69 -43 -117t-119 -67l229 -310h-137l-216 289h-16h-98v-289h-119v700h240zM472 385.5q43 38.5 43 106.5t-43 106.5t-120 38.5h-121v-290h121q77 0 120 38.5z" glyph-name="R" horiz-adv-x="713" unicode="R"/>
<glyph d="M128.5 50.5q-83.5 65.5 -95.5 180.5h69q13 -87 76 -136.5t156 -49.5q81 0 128.5 31t47.5 88q0 42 -25 67.5t-65 40t-109 30.5q-81 20 -133.5 40.5t-89.5 61.5t-37 107t37 112t98.5 69t134.5 23q78 0 141 -28t102.5 -82t46.5 -130h-72q-12 84 -69 131.5t-144 47.5 q-72 0 -119.5 -31t-47.5 -87q0 -40 25 -64t63 -37.5t108 -30.5q86 -21 139.5 -42t90.5 -62.5t37 -110.5q0 -98 -78 -151t-204 -53q-128 0 -211.5 65.5z" glyph-name="S" horiz-adv-x="661" unicode="S"/>
<glyph d="M270 632h-252v68h625v-68h-253v-632h-120v632z" glyph-name="T" horiz-adv-x="660" unicode="T"/>
<glyph d="M240 22.5q-68 37.5 -105 107t-37 161.5v409h120v-406q0 -113 53.5 -173.5t149.5 -60.5q94 0 149 64.5t55 173.5v402h70v-405q0 -94 -36 -164t-103 -108t-157 -38q-91 0 -159 37.5z" glyph-name="U" horiz-adv-x="788" unicode="U"/>
<glyph d="M22 700h128l236 -603h3l236 603h74l-277 -700h-124z" glyph-name="V" horiz-adv-x="718" unicode="V"/>
<glyph d="M32 700h124l168 -581l162 581h104l168 -581l170 581h70l-200 -700h-122l-164 570l-158 -570h-122z" glyph-name="W" horiz-adv-x="1027" unicode="W"/>
<glyph d="M278 347l-251 353h139l200 -273l206 273h81l-240 -319l269 -381h-140l-215 298l-224 -298h-82z" glyph-name="X" horiz-adv-x="698" unicode="X"/>
<glyph d="M279 269l-274 431h133l228 -365l228 365h78l-273 -432v-268h-120v269z" glyph-name="Y" horiz-adv-x="676" unicode="Y"/>
<glyph d="M40 58l414 577h-393v65h540v-57l-414 -578h414v-65h-561v58z" glyph-name="Z" horiz-adv-x="643" unicode="Z"/>
<glyph d="M140 800h270v-57h-175v-786h175v-57h-270v900z" glyph-name="bracketleft" horiz-adv-x="500" unicode="["/>
<glyph d="M38 700h61l338 -700h-61z" glyph-name="backslash" horiz-adv-x="475" unicode="\"/>
<glyph d="M360 -100h-270v57h175v786h-175v57h270v-900z" glyph-name="bracketright" horiz-adv-x="500" unicode="]"/>
<glyph d="M257 700h47l175 -305h-64l-135 235l-135 -235h-64z" glyph-name="asciicircum" unicode="^"/>
<glyph d="M30 5h400v-57h-400v57z" glyph-name="underscore" horiz-adv-x="460" unicode="_"/>
<glyph d="M80 25q-43 36 -43 96q0 75 65 109.5t174 42.5q65 5 98 19.5t33 43.5q0 54 -35.5 86t-92.5 32q-59 0 -100 -35t-51 -96h-59q12 87 73 137t153 50q96 0 154.5 -55t58.5 -149v-249h64v-57h-160v110q-27 -57 -83 -89t-128 -32q-78 0 -121 36zM321.5 69q39.5 23 63 64t23.5 90 l1 47q-25 -23 -106 -31q-84 -9 -121.5 -35t-37.5 -73q0 -41 24.5 -63t66.5 -22q47 0 86.5 23z" glyph-name="a" horiz-adv-x="600" unicode="a"/>
<glyph d="M264.5 21.5q-48.5 31.5 -73.5 86.5v-108h-101v710h105v-314q25 54 72.5 84t109.5 30q68 0 122.5 -33.5t86 -92.5t31.5 -134q0 -74 -31.5 -133.5t-86 -93t-122.5 -33.5q-64 0 -112.5 31.5zM434.5 77q35.5 24 55.5 68.5t20 104.5t-20 104.5t-55.5 68.5t-80.5 24 q-46 0 -83 -26t-58 -71t-21 -100t21 -100t58 -71t83 -26q45 0 80.5 24z" glyph-name="b" horiz-adv-x="662" unicode="b"/>
<glyph d="M173.5 23.5q-60.5 33.5 -94.5 93t-34 133.5q0 75 34 134t94.5 92.5t136.5 33.5q99 0 165 -54t80 -145h-62q-14 63 -58.5 100.5t-108.5 37.5q-78 0 -126 -55t-48 -144q0 -58 22 -103t61.5 -70t90.5 -25q64 0 108.5 37.5t58.5 100.5h62q-14 -91 -80 -145.5t-165 -54.5 q-76 0 -136.5 33.5z" glyph-name="c" horiz-adv-x="593" unicode="c"/>
<glyph d="M163 23.5q-55 33.5 -86.5 93t-31.5 133.5q0 75 31.5 134t86.5 92.5t123 33.5q62 0 109.5 -30t71.5 -84v314h105v-710h-100v108q-26 -56 -74 -87t-112 -31q-68 0 -123 33.5zM391 79q37 26 58.5 71t21.5 100t-21.5 100t-58.5 71t-83 26q-44 0 -79.5 -24t-55.5 -68.5 t-20 -104.5t20 -104.5t55.5 -68.5t79.5 -24q46 0 83 26z" glyph-name="d" horiz-adv-x="662" unicode="d"/>
<glyph d="M174.5 23q-60.5 33 -95 92.5t-34.5 133.5q0 75 35 134.5t96 93t137 33.5q75 0 134.5 -33.5t93.5 -92.5t34 -133q0 -14 -1 -20h-424q5 -84 53 -134t123 -50q58 0 101.5 28t61.5 75h63q-18 -71 -83 -115.5t-158 -44.5q-76 0 -136.5 33zM423 408.5q-44 50.5 -112 50.5 q-67 0 -111.5 -51t-49.5 -132v-5h321q-4 87 -48 137.5z" glyph-name="e" horiz-adv-x="610" unicode="e"/>
<glyph d="M38 443v57h97v53q0 87 52 137t142 50q79 0 128.5 -41.5t49.5 -110.5h-59v3q-1 42 -33.5 69t-82.5 27q-51 0 -84 -27.5t-33 -80.5q0 -20 9 -52l6 -27h208v-57h-203q5 -15 5 -39v-404h-105v443h-97z" glyph-name="f" horiz-adv-x="445" unicode="f"/>
<glyph d="M145.5 -168.5q-77.5 41.5 -77.5 114.5q0 52 42 88t117 50q-101 12 -159 41.5t-58 89.5q0 28 20 49t53 25q19 0 34 -6q-17 26 -17 62q0 67 56 110t155 52v123h103v-123q103 -7 162 -50t59 -112q0 -75 -72 -119t-195 -44q-71 0 -111 13t-77 35q-21 13 -35 18.5t-33 5.5 t-30.5 -11t-11.5 -27q0 -41 42 -61.5t101 -28t169 -14.5q130 -7 200 -45t70 -116q0 -75 -78.5 -118t-214.5 -43t-213.5 41.5zM485.5 257.5q43.5 32.5 43.5 87.5q0 57 -43 89.5t-118 32.5q-76 0 -119 -32.5t-43 -89.5q0 -56 43 -88t119 -32q74 0 117.5 32.5zM494 -130 q49 31 49 84q0 58 -47 88t-136 30q-85 0 -134 -31.5t-49 -86.5q0 -53 49 -84t134 -31t134 31z" glyph-name="g" horiz-adv-x="672" unicode="g"/>
<glyph d="M195 710v-310q24 52 69 81t104 29q99 0 155.5 -62.5t56.5 -172.5v-275h-106v267q0 85 -36 132t-100 47q-40 0 -73 -24t-51.5 -65.5t-18.5 -92.5v-264h-105v710h105z" glyph-name="h" horiz-adv-x="660" unicode="h"/>
<glyph d="M90 500h105v-500h-105v500zM78 745h130l-60 -180h-10z" glyph-name="i" horiz-adv-x="285" unicode="i"/>
<glyph d="M-51 -192.5q-39 17.5 -61 48.5t-22 69h59v-1q0 -35 32 -59t76 -24q46 0 76.5 26.5t30.5 77.5q0 21 -4.5 42.5t-5.5 25.5q-7 33 -11 56.5t-4 53.5v377h105v-516q0 -94 -49 -144t-135 -50q-48 0 -87 17.5zM103 745h130l-60 -180h-10z" glyph-name="j" horiz-adv-x="305" unicode="j"/>
<glyph d="M90 710h105v-430h72l192 220h69l-182 -212l210 -288h-122l-169 221h-70v-221h-105v710z" glyph-name="k" horiz-adv-x="573" unicode="k"/>
<glyph d="M90 710h105v-710h-105v710z" glyph-name="l" horiz-adv-x="285" unicode="l"/>
<glyph d="M191 500v-101q24 52 67.5 81.5t99.5 29.5q67 0 112.5 -33.5t64.5 -94.5q23 60 69.5 94t109.5 34q94 0 147.5 -59.5t53.5 -165.5v-285h-106v277q0 81 -32 125t-89 44q-38 0 -68 -22.5t-47.5 -62.5t-17.5 -90v-271h-106v277q0 81 -31.5 125t-88.5 44q-38 0 -68.5 -24 t-48 -65.5t-17.5 -92.5v-264h-105v500h101z" glyph-name="m" horiz-adv-x="995" unicode="m"/>
<glyph d="M191 500v-103q24 53 70.5 83t106.5 30q99 0 155.5 -62.5t56.5 -172.5v-275h-106v267q0 85 -36 132t-100 47q-40 0 -73 -24t-51.5 -65.5t-18.5 -92.5v-264h-105v500h101z" glyph-name="n" horiz-adv-x="660" unicode="n"/>
<glyph d="M178.5 24q-62.5 34 -98 93t-35.5 133t35.5 133.5t98 93t139.5 33.5t139.5 -33.5t97.5 -93t35 -133.5t-35 -133t-97.5 -93t-139.5 -34t-139.5 34zM403.5 73q37.5 25 58.5 71t21 106t-21 106.5t-58.5 71.5t-85.5 25t-85.5 -25t-58.5 -71t-21 -107q0 -60 21 -106t58.5 -71 t85.5 -25t85.5 25z" glyph-name="o" horiz-adv-x="635" unicode="o"/>
<glyph d="M191 500v-107q25 55 73.5 86t112.5 31q68 0 122.5 -33.5t86 -92.5t31.5 -134q0 -74 -31.5 -133.5t-86 -93t-122.5 -33.5q-62 0 -109.5 30.5t-72.5 84.5v-305h-105v700h101zM434.5 77q35.5 24 55.5 68.5t20 104.5t-20 104.5t-55.5 68.5t-80.5 24q-46 0 -83 -26t-58 -71 t-21 -100t21 -100t58 -71t83 -26q45 0 80.5 24z" glyph-name="p" horiz-adv-x="662" unicode="p"/>
<glyph d="M467 105q-24 -54 -71.5 -84.5t-109.5 -30.5q-68 0 -123 33.5t-86.5 93t-31.5 133.5q0 75 31.5 134t86.5 92.5t123 33.5q64 0 112 -31t74 -86v107h100v-700h-105v305zM391 79q37 26 58.5 71t21.5 100t-21.5 100t-58.5 71t-83 26q-44 0 -79.5 -24t-55.5 -68.5t-20 -104.5 t20 -104.5t55.5 -68.5t79.5 -24q46 0 83 26z" glyph-name="q" horiz-adv-x="662" unicode="q"/>
<glyph d="M191 500v-107q23 55 66.5 86t99.5 31q77 0 121 -48.5t44 -138.5v-24h-104v21q0 60 -25 90t-72 30q-35 0 -64 -23t-45.5 -63t-16.5 -88v-266h-105v500h101z" glyph-name="r" horiz-adv-x="528" unicode="r"/>
<glyph d="M109 33.5q-69 45.5 -80 131.5h63q9 -61 59.5 -93t119.5 -32q50 0 91 19t41 60q0 22 -14.5 35t-37.5 20.5t-70 18.5l-39 9q-91 19 -144 53t-53 107q0 76 63.5 113t150.5 37q92 0 155.5 -44t72.5 -127h-63q-10 59 -55 89t-111 30q-48 0 -86 -19.5t-38 -62.5q0 -23 17 -37 t43.5 -22.5t77.5 -19.5l21 -5q63 -14 105 -29t70.5 -45.5t28.5 -80.5q0 -51 -32.5 -85t-83 -50t-105.5 -16q-98 0 -167 45.5z" glyph-name="s" horiz-adv-x="534" unicode="s"/>
<glyph d="M132 155v288h-113v57h90q13 0 20.5 7.5t7.5 21.5v91h101l-1 -120h197v-57h-197v-283q0 -56 25.5 -82t79.5 -26q37 0 92 15v-57q-24 -9 -60 -14.5t-65 -5.5q-177 0 -177 165z" glyph-name="t" horiz-adv-x="466" unicode="t"/>
<glyph d="M137 53q-57 63 -57 173v274h106l1 -266q0 -85 35.5 -132.5t99.5 -47.5q40 0 73 24t51.5 65.5t18.5 93.5v263h105v-500h-100v104q-24 -54 -70.5 -84t-106.5 -30q-99 0 -156 63z" glyph-name="u" horiz-adv-x="660" unicode="u"/>
<glyph d="M10 500h113l174 -419h3l175 419h65l-209 -500h-112z" glyph-name="v" horiz-adv-x="549" unicode="v"/>
<glyph d="M21 500h106l124 -400l124 400h95l123 -398l124 398h63l-152 -500h-102l-126 404l-125 -404h-102z" glyph-name="w" horiz-adv-x="799" unicode="w"/>
<glyph d="M223 245l-197 255h125l146 -183l151 183h73l-183 -225l209 -275h-125l-159 204l-166 -204h-73z" glyph-name="x" horiz-adv-x="567" unicode="x"/>
<glyph d="M72 -164.5q-47 45.5 -47 124.5v26h59v-30q0 -50 29 -80.5t74 -30.5q41 0 66.5 25t25.5 65v10q0 22 -7 45.5t-28 63.5l-234 446h117l172 -333q7 -15 15 -36t10 -33q3 17 10 33l149 369h66l-173 -419q-9 -23 -13 -43t-4 -47v-28q0 -80 -46.5 -126.5t-120.5 -46.5 q-73 0 -120 45.5z" glyph-name="y" horiz-adv-x="557" unicode="y"/>
<glyph d="M34 49l312 394h-295v57h425v-48l-312 -394h311v-58h-441v49z" glyph-name="z" horiz-adv-x="515" unicode="z"/>
<glyph d="M197 -82q-40 33 -40 102q0 31 16 117t16 114q0 35 -16.5 53t-46.5 18h-43v57h43q30 0 46.5 18t16.5 53q0 28 -16 114t-16 117q0 69 40 101.5t109 32.5q23 0 50.5 -4t48.5 -11v-58q-37 15 -75 15q-35 0 -56.5 -19.5t-21.5 -58.5q0 -19 12 -95q15 -79 15 -116 q0 -95 -82 -118q82 -22 82 -117q0 -37 -15 -116q-12 -76 -12 -95q0 -40 21.5 -59.5t56.5 -19.5q38 0 75 15v-58q-21 -7 -48.5 -11t-50.5 -4q-69 0 -109 33z" glyph-name="braceleft" horiz-adv-x="500" unicode="{"/>
<glyph d="M140 800h58v-900h-58v900z" glyph-name="bar" horiz-adv-x="338" unicode="|"/>
<glyph d="M303.5 782.5q40.5 -32.5 40.5 -101.5q0 -31 -16 -117t-16 -114q0 -35 16.5 -53t46.5 -18h43v-57h-43q-30 0 -46.5 -18t-16.5 -53q0 -28 16 -114t16 -117q0 -69 -40.5 -102t-108.5 -33q-24 0 -51 4t-49 11v58q39 -15 75 -15q35 0 56.5 19.5t21.5 59.5q0 19 -12 95 q-14 84 -14 116q0 95 81 117q-81 23 -81 118q0 32 14 116q12 76 12 95q0 39 -21.5 58.5t-56.5 19.5q-36 0 -75 -15v58q22 7 49 11t51 4q68 0 108.5 -32.5z" glyph-name="braceright" horiz-adv-x="500" unicode="}"/>
<glyph d="M103 376.5q29 30.5 73 30.5q27 0 51 -7.5t56 -22.5q28 -12 47.5 -18.5t39.5 -6.5q25 0 42 15.5t17 36.5h58q0 -49 -29 -79.5t-73 -30.5q-27 0 -51 7.5t-56 22.5q-28 12 -47.5 18.5t-39.5 6.5q-24 0 -41.5 -15.5t-17.5 -36.5h-58q0 49 29 79.5z" glyph-name="asciitilde" unicode="~"/>
<glyph glyph-name="uni00A0" horiz-adv-x="250" unicode=" "/>
<glyph d="M213.5 487.5q21.5 -21.5 21.5 -53.5t-21.5 -53.5t-53.5 -21.5t-53.5 21.5t-21.5 53.5t22 53.5t53 21.5q32 0 53.5 -21.5zM228 -200h-130l39 470h52z" glyph-name="exclamdown" horiz-adv-x="320" unicode="¡"/>
<glyph d="M472 191q45 37 59 101h62q-14 -85 -73 -138t-149 -60v-124h-50v124q-69 5 -123 40t-84.5 91.5t-30.5 126.5t30 127t84.5 91.5t123.5 39.5v120h50v-120q90 -7 149 -59.5t73 -137.5h-62q-14 63 -59 100.5t-109 37.5q-78 0 -126 -55t-48 -144q0 -58 22 -103t61.5 -70 t90.5 -25q64 0 109 37z" glyph-name="cent" horiz-adv-x="700" unicode="¢"/>
<glyph d="M58.5 16q-34.5 31 -34.5 79q0 47 33 78.5t88 31.5q25 0 51 -7.5t60 -21.5v8q-3 25 -15 48.5t-33 57.5q-16 26 -23 39h-134v43h110q-36 68 -36 131q0 64 29.5 112t83 74.5t123.5 26.5q72 0 126.5 -28t86 -78.5t34.5 -117.5h-67q-4 76 -50 118.5t-114 42.5 q-66 0 -106 -40.5t-40 -110.5q0 -26 5.5 -50.5t16.5 -59.5l6 -20h266v-43h-251l9 -24q16 -39 23.5 -65.5t7.5 -53.5q0 -12 -2 -34q66 -34 104 -49t79 -15q52 0 79 27t27 80q0 17 -5 44h59q6 -34 6 -64q0 -90 -47 -140t-122 -50q-52 0 -100 21t-111 60q-20 -38 -55.5 -59.5 t-78.5 -21.5q-54 0 -88.5 31zM204.5 45q26.5 17 39.5 47q-38 22 -64 33.5t-50 11.5q-26 0 -42.5 -14.5t-16.5 -36.5q0 -25 20.5 -41.5t53.5 -16.5t59.5 17z" glyph-name="sterling" horiz-adv-x="700" unicode="£"/>
<glyph d="M175 219q-21 27 -33.5 61t-12.5 70q0 73 46 132l-93 93l44 44l93 -93q27 22 61 34t70 12q73 0 132 -46l93 93l44 -44l-93 -93q46 -59 46 -132q0 -36 -12 -70t-34 -61l93 -93l-44 -44l-93 93q-59 -46 -132 -46q-36 0 -70 12t-61 34l-93 -93l-44 44zM429.5 213.5 q36.5 21.5 58 57.5t21.5 79t-21.5 79.5t-58 58t-79.5 21.5t-79 -21.5t-57.5 -58t-21.5 -79.5t21.5 -79t57.5 -57.5t79 -21.5t79.5 21.5z" glyph-name="currency" horiz-adv-x="700" unicode="¤"/>
<glyph d="M290 172h-215v43h212v61l-15 24h-197v43h173l-220 357h132l216 -354h1l216 354h80l-220 -357h183v-43h-207l-16 -25v-60h223v-43h-226v-172h-120v172z" glyph-name="yen" horiz-adv-x="700" unicode="¥"/>
<glyph d="M140 800h58v-380h-58v380zM140 280h58v-380h-58v380z" glyph-name="brokenbar" horiz-adv-x="338" unicode="¦"/>
<glyph d="M192.5 -52q-70.5 48 -81.5 139h66q9 -63 60 -97t118 -34q50 0 91.5 20t41.5 62q0 28 -16.5 44.5t-42.5 25.5t-77 21l-21 5q-72 16 -119 32.5t-79.5 48.5t-32.5 85q0 52 34 85t90 49q-45 19 -70.5 48.5t-26.5 76.5q0 54 31.5 89.5t80.5 52t104 16.5q93 0 157.5 -46.5 t74.5 -135.5h-65q-11 61 -57 92.5t-110 31.5q-49 0 -86.5 -20.5t-37.5 -64.5q0 -27 19.5 -43.5t49 -25.5t87.5 -22q75 -16 122.5 -32t80 -47.5t32.5 -83.5t-34.5 -86.5t-89.5 -51.5q46 -18 72 -47.5t26 -77.5q0 -53 -33 -88.5t-84 -52t-107 -16.5q-97 0 -167.5 48z M487 233.5q36 20.5 36 57.5q0 31 -22 50t-55.5 30t-97.5 26l-48 12q-45 -4 -79 -24.5t-34 -58.5q0 -33 31.5 -55.5t76 -35.5t112.5 -27q44 5 80 25.5z" glyph-name="section" horiz-adv-x="700" unicode="§"/>
<glyph d="M225 33q-84 48 -132 132t-48 185t48 185t132 132t185 48t185 -48t132 -132t48 -185t-48 -185t-132 -132t-185 -48t-185 48zM577 65.5q75 43.5 118.5 118.5t43.5 166q0 92 -43.5 167t-118.5 118.5t-167 43.5q-91 0 -166 -43.5t-118.5 -118.5t-43.5 -167q0 -91 43.5 -166 t118.5 -118.5t166 -43.5q92 0 167 43.5zM307 169q-48 27 -75.5 74.5t-27.5 106.5t27.5 106.5t75.5 74.5t109 27q79 0 132 -43t65 -116h-53q-11 49 -46 78t-85 29q-62 0 -100 -43t-38 -113t38 -112.5t100 -42.5q50 0 85 29t46 78h53q-12 -73 -65 -116.5t-132 -43.5 q-61 0 -109 27z" glyph-name="copyright" horiz-adv-x="820" unicode="©"/>
<glyph d="M170 300l109 -200h-68l-106 194v12l106 194h68zM365 300l109 -200h-68l-106 194v12l106 194h68z" glyph-name="guillemotleft" horiz-adv-x="549" unicode="«"/>
<glyph d="M485 379v-234h-57v177h-353v57h410z" glyph-name="logicalnot" unicode="¬"/>
<glyph d="M133.5 378.5q-41.5 23.5 -65 65t-23.5 91.5t23.5 91.5t65 65t91.5 23.5t91.5 -23.5t65 -65t23.5 -91.5t-23.5 -91.5t-65 -65t-91.5 -23.5t-91.5 23.5zM307 395q37 21 58 58t21 82t-21 82t-58 58t-82 21t-82 -21t-58 -58t-21 -82t21 -82t58 -58t82 -21t82 21zM221 642 q39 0 61 -16.5t22 -45.5q0 -19 -11 -33t-30 -22l64 -87h-50l-58 79h-32v-79h-40v204h74zM252 552q11 10 11 28q0 17 -11 26t-31 9h-34v-73h34q20 0 31 10z" glyph-name="registered" horiz-adv-x="440" unicode="®"/>
<glyph d="M99 472.5q-30 17.5 -47.5 47.5t-17.5 65t17.5 65t47.5 47.5t65 17.5t65 -17.5t47.5 -47.5t17.5 -65t-17.5 -65t-47.5 -47.5t-65 -17.5t-65 17.5zM226 523.5q26 25.5 26 61.5q0 37 -26 62.5t-62 25.5t-61.5 -25.5t-25.5 -62.5q0 -36 25.5 -61.5t61.5 -25.5t62 25.5z" glyph-name="degree" horiz-adv-x="328" unicode="°"/>
<glyph d="M309 442h176v-58h-176v-176h-57v176h-177v58h177v176h57v-176zM75 83v57h410v-57h-410z" glyph-name="plusminus" unicode="±"/>
<glyph d="M281 300q-62 0 -112.5 26.5t-79.5 72t-29 101.5t29 101.5t79.5 72t112.5 26.5h124v-900h-115v500h-9z" glyph-name="paragraph" horiz-adv-x="545" unicode="¶"/>
<glyph d="M86.5 248q-21.5 22 -21.5 54t22 53.5t53 21.5q32 0 53.5 -21.5t21.5 -53.5t-21.5 -54t-53.5 -22t-53.5 22z" glyph-name="periodcentered" horiz-adv-x="280" unicode="·"/>
<glyph d="M379 300l-109 200h68l106 -194v-12l-106 -194h-68zM184 300l-109 200h68l106 -194v-12l-106 -194h-68z" glyph-name="guillemotright" horiz-adv-x="519" unicode="»"/>
<glyph d="M348.5 488.5q21.5 -21.5 21.5 -53.5t-21.5 -53.5t-53.5 -21.5t-53.5 21.5t-21.5 53.5t21.5 53.5t53.5 21.5t53.5 -21.5zM337 247q0 -53 -24.5 -87.5t-70.5 -64.5q-37 -29 -55.5 -57.5t-18.5 -69.5q0 -55 37 -86t96 -31q72 0 113 46t43 122h69q-1 -70 -31 -123t-84 -82 t-127 -29q-63 0 -115.5 20.5t-84 61t-31.5 97.5t30 93.5t82 64.5q59 37 85 68t26 82h57q4 -16 4 -25z" glyph-name="questiondown" horiz-adv-x="562" unicode="¿"/>
<glyph d="M293 700h122l277 -700h-128l-79 201h-318l-79 -201h-73zM466 259l-138 347h-4l-138 -347h280zM317 775l-105 170h107l57 -170h-59z" glyph-name="Agrave" horiz-adv-x="708" unicode="À"/>
<glyph d="M293 700h122l277 -700h-128l-79 201h-318l-79 -201h-73zM466 259l-138 347h-4l-138 -347h280zM390 945h107l-105 -170h-59z" glyph-name="Aacute" horiz-adv-x="708" unicode="Á"/>
<glyph d="M293 700h122l277 -700h-128l-79 201h-318l-79 -201h-73zM466 259l-138 347h-4l-138 -347h280zM429 785l-99 108l-99 -108h-68l139 160h103l139 -160h-115z" glyph-name="Acircumflex" horiz-adv-x="708" unicode="Â"/>
<glyph d="M293 700h122l277 -700h-128l-79 201h-318l-79 -201h-73zM466 259l-138 347h-4l-138 -347h280zM192.5 898q28.5 32 73.5 32q26 0 49.5 -6.5t53.5 -19.5q27 -10 43 -15t33 -5q20 0 34 12t14 32h52q0 -57 -28.5 -89t-73.5 -32q-26 0 -50.5 7t-53.5 19q-27 10 -43 15t-32 5 q-21 0 -34.5 -12t-13.5 -32h-52q0 57 28.5 89z" glyph-name="Atilde" horiz-adv-x="708" unicode="Ã"/>
<glyph d="M293 700h122l277 -700h-128l-79 201h-318l-79 -201h-73zM466 259l-138 347h-4l-138 -347h280zM217 945h123l-57 -180h-9zM369 945h122l-57 -180h-9z" glyph-name="Adieresis" horiz-adv-x="708" unicode="Ä"/>
<glyph d="M293 700h122l277 -700h-128l-79 201h-318l-79 -201h-73zM466 259l-138 347h-4l-138 -347h280zM287.5 780.5q-30.5 17.5 -48 48t-17.5 66.5t17.5 66.5t48 48.5t66.5 18t66.5 -18t48.5 -48.5t18 -66.5t-18 -66t-48.5 -48t-66.5 -18t-66.5 17.5zM419.5 850q23.5 17 23.5 45 t-23.5 45.5t-65.5 17.5t-65 -17.5t-23 -45.5t23 -45t65 -17t65.5 17z" glyph-name="Aring" horiz-adv-x="708" unicode="Å"/>
<glyph d="M666 63h307v-63h-409l-79 201h-318l-79 -201h-73l278 700h640v-62h-487l99 -258h299v-59h-277zM186 259h280l-138 347h-4z" glyph-name="AE" horiz-adv-x="1003" unicode="Æ"/>
<glyph d="M230 31.5q-81 46.5 -126.5 129.5t-45.5 189q0 107 45.5 190t126.5 129t185 46q86 0 157.5 -36.5t116.5 -101.5t54 -149h-71q-15 94 -81 152.5t-159 58.5q-74 0 -131 -36.5t-89 -102t-32 -150.5q0 -84 32 -150t89.5 -102.5t130.5 -36.5q62 0 113 27t84 75t43 110h71 q-9 -84 -54 -149.5t-116.5 -102t-157.5 -36.5q-104 0 -185 46.5zM383 -245h-107l105 170h59z" glyph-name="Ccedilla" horiz-adv-x="791" unicode="Ç"/>
<glyph d="M112 700h431v-62h-313v-258h221v-59h-221v-258h353v-63h-471v700zM289 775l-105 170h107l57 -170h-59z" glyph-name="Egrave" horiz-adv-x="613" unicode="È"/>
<glyph d="M112 700h431v-62h-313v-258h221v-59h-221v-258h353v-63h-471v700zM362 945h107l-105 -170h-59z" glyph-name="Eacute" horiz-adv-x="613" unicode="É"/>
<glyph d="M112 700h431v-62h-313v-258h221v-59h-221v-258h353v-63h-471v700zM401 785l-99 108l-99 -108h-68l139 160h103l139 -160h-115z" glyph-name="Ecircumflex" horiz-adv-x="613" unicode="Ê"/>
<glyph d="M112 700h431v-62h-313v-258h221v-59h-221v-258h353v-63h-471v700zM189 945h123l-57 -180h-9zM341 945h122l-57 -180h-9z" glyph-name="Edieresis" horiz-adv-x="613" unicode="Ë"/>
<glyph d="M112 700h120v-700h-120v700zM135 775l-105 170h107l57 -170h-59z" glyph-name="Igrave" horiz-adv-x="343" unicode="Ì"/>
<glyph d="M112 700h120v-700h-120v700zM208 945h107l-105 -170h-59z" glyph-name="Iacute" horiz-adv-x="343" unicode="Í"/>
<glyph d="M112 700h120v-700h-120v700zM247 785l-99 108l-99 -108h-68l139 160h103l139 -160h-115z" glyph-name="Icircumflex" horiz-adv-x="343" unicode="Î"/>
<glyph d="M112 700h120v-700h-120v700zM35 945h123l-57 -180h-9zM187 945h122l-57 -180h-9z" glyph-name="Idieresis" horiz-adv-x="343" unicode="Ï"/>
<glyph d="M534.5 656q87.5 -44 135.5 -123t48 -183q0 -103 -48 -182.5t-135.5 -123.5t-202.5 -44h-220v328h-72v45h72v327h220q115 0 202.5 -44zM525 140q69 76 69 210q0 135 -69 211t-190 76h-103v-264h137v-45h-137v-264h103q121 0 190 76z" glyph-name="Eth" horiz-adv-x="775" unicode="Ð"/>
<glyph d="M110 700h122l402 -531v531h66v-710h-74l-449 587v-577h-67v700zM243.5 898q28.5 32 73.5 32q26 0 49.5 -6.5t53.5 -19.5q27 -10 43 -15t33 -5q20 0 34 12t14 32h52q0 -57 -28.5 -89t-73.5 -32q-26 0 -50.5 7t-53.5 19q-27 10 -43 15t-32 5q-21 0 -34.5 -12t-13.5 -32h-52 q0 57 28.5 89z" glyph-name="Ntilde" horiz-adv-x="810" unicode="Ñ"/>
<glyph d="M235 32.5q-83 47.5 -130 130.5t-47 187t47 187.5t130 130.5t187 47t186.5 -47t129.5 -130.5t47 -187.5t-47 -187t-129.5 -130.5t-186.5 -47.5t-187 47.5zM547.5 90.5q54.5 36.5 85 103.5t30.5 156q0 90 -30.5 157t-85 103.5t-125.5 36.5t-126 -36.5t-85.5 -103.5 t-30.5 -157q0 -89 30.5 -156t85.5 -103.5t126 -36.5t125.5 36.5zM385 775l-105 170h107l57 -170h-59z" glyph-name="Ograve" horiz-adv-x="843" unicode="Ò"/>
<glyph d="M235 32.5q-83 47.5 -130 130.5t-47 187t47 187.5t130 130.5t187 47t186.5 -47t129.5 -130.5t47 -187.5t-47 -187t-129.5 -130.5t-186.5 -47.5t-187 47.5zM547.5 90.5q54.5 36.5 85 103.5t30.5 156q0 90 -30.5 157t-85 103.5t-125.5 36.5t-126 -36.5t-85.5 -103.5 t-30.5 -157q0 -89 30.5 -156t85.5 -103.5t126 -36.5t125.5 36.5zM458 945h107l-105 -170h-59z" glyph-name="Oacute" horiz-adv-x="843" unicode="Ó"/>
<glyph d="M235 32.5q-83 47.5 -130 130.5t-47 187t47 187.5t130 130.5t187 47t186.5 -47t129.5 -130.5t47 -187.5t-47 -187t-129.5 -130.5t-186.5 -47.5t-187 47.5zM547.5 90.5q54.5 36.5 85 103.5t30.5 156q0 90 -30.5 157t-85 103.5t-125.5 36.5t-126 -36.5t-85.5 -103.5 t-30.5 -157q0 -89 30.5 -156t85.5 -103.5t126 -36.5t125.5 36.5zM497 785l-99 108l-99 -108h-68l139 160h103l139 -160h-115z" glyph-name="Ocircumflex" horiz-adv-x="843" unicode="Ô"/>
<glyph d="M235 32.5q-83 47.5 -130 130.5t-47 187t47 187.5t130 130.5t187 47t186.5 -47t129.5 -130.5t47 -187.5t-47 -187t-129.5 -130.5t-186.5 -47.5t-187 47.5zM547.5 90.5q54.5 36.5 85 103.5t30.5 156q0 90 -30.5 157t-85 103.5t-125.5 36.5t-126 -36.5t-85.5 -103.5 t-30.5 -157q0 -89 30.5 -156t85.5 -103.5t126 -36.5t125.5 36.5zM260.5 898q28.5 32 73.5 32q26 0 49.5 -6.5t53.5 -19.5q27 -10 43 -15t33 -5q20 0 34 12t14 32h52q0 -57 -28.5 -89t-73.5 -32q-26 0 -50.5 7t-53.5 19q-27 10 -43 15t-32 5q-21 0 -34.5 -12t-13.5 -32h-52 q0 57 28.5 89z" glyph-name="Otilde" horiz-adv-x="843" unicode="Õ"/>
<glyph d="M235 32.5q-83 47.5 -130 130.5t-47 187t47 187.5t130 130.5t187 47t186.5 -47t129.5 -130.5t47 -187.5t-47 -187t-129.5 -130.5t-186.5 -47.5t-187 47.5zM547.5 90.5q54.5 36.5 85 103.5t30.5 156q0 90 -30.5 157t-85 103.5t-125.5 36.5t-126 -36.5t-85.5 -103.5 t-30.5 -157q0 -89 30.5 -156t85.5 -103.5t126 -36.5t125.5 36.5zM285 945h123l-57 -180h-9zM437 945h122l-57 -180h-9z" glyph-name="Odieresis" horiz-adv-x="843" unicode="Ö"/>
<glyph d="M97 208l142 142l-142 142l41 42l142 -142l142 142l42 -42l-142 -142l142 -142l-42 -41l-142 142l-142 -142z" glyph-name="multiply" unicode="×"/>
<glyph d="M300 4.5q-57 19.5 -102 56.5l-58 -61h-74l87 97q-46 50 -70.5 114t-24.5 139q0 104 47 187.5t130 130.5t187 47q64 0 121 -19.5t103 -56.5l58 61h74l-88 -97q46 -49 70.5 -113.5t24.5 -139.5q0 -104 -47 -187t-129.5 -130.5t-186.5 -47.5q-65 0 -122 19.5zM510 626.5 q-39 23.5 -88 23.5q-72 0 -127.5 -37t-86.5 -105t-31 -158q0 -98 50 -167l348 374q-26 46 -65 69.5zM549.5 88q55.5 37 86.5 104.5t31 157.5q0 96 -50 167l-348 -373q53 -93 153 -93q72 0 127.5 37z" glyph-name="Oslash" horiz-adv-x="843" unicode="Ø"/>
<glyph d="M240 22.5q-68 37.5 -105 107t-37 161.5v409h120v-406q0 -113 53.5 -173.5t149.5 -60.5q94 0 149 64.5t55 173.5v402h70v-405q0 -94 -36 -164t-103 -108t-157 -38q-91 0 -159 37.5zM372 775l-105 170h107l57 -170h-59z" glyph-name="Ugrave" horiz-adv-x="788" unicode="Ù"/>
<glyph d="M240 22.5q-68 37.5 -105 107t-37 161.5v409h120v-406q0 -113 53.5 -173.5t149.5 -60.5q94 0 149 64.5t55 173.5v402h70v-405q0 -94 -36 -164t-103 -108t-157 -38q-91 0 -159 37.5zM445 945h107l-105 -170h-59z" glyph-name="Uacute" horiz-adv-x="788" unicode="Ú"/>
<glyph d="M240 22.5q-68 37.5 -105 107t-37 161.5v409h120v-406q0 -113 53.5 -173.5t149.5 -60.5q94 0 149 64.5t55 173.5v402h70v-405q0 -94 -36 -164t-103 -108t-157 -38q-91 0 -159 37.5zM484 785l-99 108l-99 -108h-68l139 160h103l139 -160h-115z" glyph-name="Ucircumflex" horiz-adv-x="788" unicode="Û"/>
<glyph d="M240 22.5q-68 37.5 -105 107t-37 161.5v409h120v-406q0 -113 53.5 -173.5t149.5 -60.5q94 0 149 64.5t55 173.5v402h70v-405q0 -94 -36 -164t-103 -108t-157 -38q-91 0 -159 37.5zM272 945h123l-57 -180h-9zM424 945h122l-57 -180h-9z" glyph-name="Udieresis" horiz-adv-x="788" unicode="Ü"/>
<glyph d="M279 269l-274 431h133l228 -365l228 365h78l-273 -432v-268h-120v269zM377 945h107l-105 -170h-59z" glyph-name="Yacute" horiz-adv-x="676" unicode="Ý"/>
<glyph d="M228 700v-133h118q128 0 201 -56.5t73 -155.5q0 -98 -73 -154.5t-201 -56.5h-118v-144h-116v700h116zM460.5 243.5q42.5 39.5 42.5 110.5t-42.5 110.5t-118.5 39.5h-114v-300h114q76 0 118.5 39.5z" glyph-name="Thorn" horiz-adv-x="664" unicode="Þ"/>
<glyph d="M38 443v57h97v50q0 86 63.5 138t173.5 52q107 0 173 -50.5t66 -137.5v-95q-47 5 -76 5q-50 0 -88 -20t-38 -63q0 -25 18.5 -40.5t43.5 -23t86 -23.5q58 -13 99 -29t68 -46t27 -78q0 -51 -31 -85t-78.5 -50t-98.5 -16q-88 0 -148.5 41.5t-72.5 122.5h54q11 -55 56 -84 t107 -29q47 0 86 19.5t39 59.5q0 28 -18 44.5t-43.5 24.5t-86.5 23q-57 13 -96 28t-65.5 45t-26.5 78q0 65 46.5 99.5t113.5 42.5h22v54q0 60 -42 93t-108 33q-65 0 -105 -29.5t-40 -84.5q0 -18 9 -47q8 -27 12 -49t4 -56v-617h-105v643h-97z" glyph-name="germandbls" horiz-adv-x="771" unicode="ß"/>
<glyph d="M80 25q-43 36 -43 96q0 75 65 109.5t174 42.5q65 5 98 19.5t33 43.5q0 54 -35.5 86t-92.5 32q-59 0 -100 -35t-51 -96h-59q12 87 73 137t153 50q96 0 154.5 -55t58.5 -149v-249h64v-57h-160v110q-27 -57 -83 -89t-128 -32q-78 0 -121 36zM321.5 69q39.5 23 63 64t23.5 90 l1 47q-25 -23 -106 -31q-84 -9 -121.5 -35t-37.5 -73q0 -41 24.5 -63t66.5 -22q47 0 86.5 23zM249 575l-105 170h107l57 -170h-59z" glyph-name="agrave" horiz-adv-x="600" unicode="à"/>
<glyph d="M80 25q-43 36 -43 96q0 75 65 109.5t174 42.5q65 5 98 19.5t33 43.5q0 54 -35.5 86t-92.5 32q-59 0 -100 -35t-51 -96h-59q12 87 73 137t153 50q96 0 154.5 -55t58.5 -149v-249h64v-57h-160v110q-27 -57 -83 -89t-128 -32q-78 0 -121 36zM321.5 69q39.5 23 63 64t23.5 90 l1 47q-25 -23 -106 -31q-84 -9 -121.5 -35t-37.5 -73q0 -41 24.5 -63t66.5 -22q47 0 86.5 23zM322 745h107l-105 -170h-59z" glyph-name="aacute" horiz-adv-x="600" unicode="á"/>
<glyph d="M80 25q-43 36 -43 96q0 75 65 109.5t174 42.5q65 5 98 19.5t33 43.5q0 54 -35.5 86t-92.5 32q-59 0 -100 -35t-51 -96h-59q12 87 73 137t153 50q96 0 154.5 -55t58.5 -149v-249h64v-57h-160v110q-27 -57 -83 -89t-128 -32q-78 0 -121 36zM321.5 69q39.5 23 63 64t23.5 90 l1 47q-25 -23 -106 -31q-84 -9 -121.5 -35t-37.5 -73q0 -41 24.5 -63t66.5 -22q47 0 86.5 23zM361 585l-99 108l-99 -108h-68l139 160h103l139 -160h-115z" glyph-name="acircumflex" horiz-adv-x="600" unicode="â"/>
<glyph d="M80 25q-43 36 -43 96q0 75 65 109.5t174 42.5q65 5 98 19.5t33 43.5q0 54 -35.5 86t-92.5 32q-59 0 -100 -35t-51 -96h-59q12 87 73 137t153 50q96 0 154.5 -55t58.5 -149v-249h64v-57h-160v110q-27 -57 -83 -89t-128 -32q-78 0 -121 36zM321.5 69q39.5 23 63 64t23.5 90 l1 47q-25 -23 -106 -31q-84 -9 -121.5 -35t-37.5 -73q0 -41 24.5 -63t66.5 -22q47 0 86.5 23zM124.5 698q28.5 32 73.5 32q26 0 49.5 -6.5t53.5 -19.5q27 -10 43 -15t33 -5q20 0 34 12t14 32h52q0 -57 -28.5 -89t-73.5 -32q-26 0 -50.5 7t-53.5 19q-27 10 -43 15t-32 5 q-21 0 -34.5 -12t-13.5 -32h-52q0 57 28.5 89z" glyph-name="atilde" horiz-adv-x="600" unicode="ã"/>
<glyph d="M80 25q-43 36 -43 96q0 75 65 109.5t174 42.5q65 5 98 19.5t33 43.5q0 54 -35.5 86t-92.5 32q-59 0 -100 -35t-51 -96h-59q12 87 73 137t153 50q96 0 154.5 -55t58.5 -149v-249h64v-57h-160v110q-27 -57 -83 -89t-128 -32q-78 0 -121 36zM321.5 69q39.5 23 63 64t23.5 90 l1 47q-25 -23 -106 -31q-84 -9 -121.5 -35t-37.5 -73q0 -41 24.5 -63t66.5 -22q47 0 86.5 23zM149 745h123l-57 -180h-9zM301 745h122l-57 -180h-9z" glyph-name="adieresis" horiz-adv-x="600" unicode="ä"/>
<glyph d="M80 25q-43 36 -43 96q0 75 65 109.5t174 42.5q65 5 98 19.5t33 43.5q0 54 -35.5 86t-92.5 32q-59 0 -100 -35t-51 -96h-59q12 87 73 137t153 50q96 0 154.5 -55t58.5 -149v-249h64v-57h-160v110q-27 -57 -83 -89t-128 -32q-78 0 -121 36zM321.5 69q39.5 23 63 64t23.5 90 l1 47q-25 -23 -106 -31q-84 -9 -121.5 -35t-37.5 -73q0 -41 24.5 -63t66.5 -22q47 0 86.5 23zM219.5 580.5q-30.5 17.5 -48 48t-17.5 66.5t17.5 66.5t48 48.5t66.5 18t66.5 -18t48.5 -48.5t18 -66.5t-18 -66t-48.5 -48t-66.5 -18t-66.5 17.5zM351.5 650q23.5 17 23.5 45 t-23.5 45.5t-65.5 17.5t-65 -17.5t-23 -45.5t23 -45t65 -17t65.5 17z" glyph-name="aring" horiz-adv-x="600" unicode="å"/>
<glyph d="M81 25q-44 36 -44 96q0 75 65 109.5t174 42.5q65 5 98 19.5t33 43.5q0 54 -35.5 86t-92.5 32q-59 0 -100 -35t-51 -96h-59q12 87 72 137t151 50q63 0 108.5 -28t65.5 -79q31 50 85 78.5t120 28.5q75 0 134.5 -33.5t93.5 -92.5t34 -133q0 -14 -1 -20h-424q5 -84 53 -134 t123 -50q58 0 101.5 28t61.5 75h63q-18 -71 -83 -115.5t-158 -44.5q-82 0 -145 40t-92 108q-23 -72 -85 -110.5t-141 -38.5q-81 0 -125 36zM781 408.5q-44 50.5 -112 50.5q-67 0 -111.5 -51t-49.5 -132v-5h321q-4 87 -48 137.5zM321.5 69q39.5 23 63 64t23.5 90l1 47 q-25 -23 -106 -31q-84 -9 -121.5 -35t-37.5 -73q0 -41 24.5 -63t66.5 -22q47 0 86.5 23z" glyph-name="ae" horiz-adv-x="968" unicode="æ"/>
<glyph d="M173.5 23.5q-60.5 33.5 -94.5 93t-34 133.5q0 75 34 134t94.5 92.5t136.5 33.5q99 0 165 -54t80 -145h-62q-14 63 -58.5 100.5t-108.5 37.5q-78 0 -126 -55t-48 -144q0 -58 22 -103t61.5 -70t90.5 -25q64 0 108.5 37.5t58.5 100.5h62q-14 -91 -80 -145.5t-165 -54.5 q-76 0 -136.5 33.5zM278 -245h-107l105 170h59z" glyph-name="ccedilla" horiz-adv-x="593" unicode="ç"/>
<glyph d="M174.5 23q-60.5 33 -95 92.5t-34.5 133.5q0 75 35 134.5t96 93t137 33.5q75 0 134.5 -33.5t93.5 -92.5t34 -133q0 -14 -1 -20h-424q5 -84 53 -134t123 -50q58 0 101.5 28t61.5 75h63q-18 -71 -83 -115.5t-158 -44.5q-76 0 -136.5 33zM423 408.5q-44 50.5 -112 50.5 q-67 0 -111.5 -51t-49.5 -132v-5h321q-4 87 -48 137.5zM268 575l-105 170h107l57 -170h-59z" glyph-name="egrave" horiz-adv-x="610" unicode="è"/>
<glyph d="M174.5 23q-60.5 33 -95 92.5t-34.5 133.5q0 75 35 134.5t96 93t137 33.5q75 0 134.5 -33.5t93.5 -92.5t34 -133q0 -14 -1 -20h-424q5 -84 53 -134t123 -50q58 0 101.5 28t61.5 75h63q-18 -71 -83 -115.5t-158 -44.5q-76 0 -136.5 33zM423 408.5q-44 50.5 -112 50.5 q-67 0 -111.5 -51t-49.5 -132v-5h321q-4 87 -48 137.5zM341 745h107l-105 -170h-59z" glyph-name="eacute" horiz-adv-x="610" unicode="é"/>
<glyph d="M174.5 23q-60.5 33 -95 92.5t-34.5 133.5q0 75 35 134.5t96 93t137 33.5q75 0 134.5 -33.5t93.5 -92.5t34 -133q0 -14 -1 -20h-424q5 -84 53 -134t123 -50q58 0 101.5 28t61.5 75h63q-18 -71 -83 -115.5t-158 -44.5q-76 0 -136.5 33zM423 408.5q-44 50.5 -112 50.5 q-67 0 -111.5 -51t-49.5 -132v-5h321q-4 87 -48 137.5zM380 585l-99 108l-99 -108h-68l139 160h103l139 -160h-115z" glyph-name="ecircumflex" horiz-adv-x="610" unicode="ê"/>
<glyph d="M174.5 23q-60.5 33 -95 92.5t-34.5 133.5q0 75 35 134.5t96 93t137 33.5q75 0 134.5 -33.5t93.5 -92.5t34 -133q0 -14 -1 -20h-424q5 -84 53 -134t123 -50q58 0 101.5 28t61.5 75h63q-18 -71 -83 -115.5t-158 -44.5q-76 0 -136.5 33zM423 408.5q-44 50.5 -112 50.5 q-67 0 -111.5 -51t-49.5 -132v-5h321q-4 87 -48 137.5zM168 745h123l-57 -180h-9zM320 745h122l-57 -180h-9z" glyph-name="edieresis" horiz-adv-x="610" unicode="ë"/>
<glyph d="M90 500h105v-500h-105v500zM106 575l-105 170h107l57 -170h-59z" glyph-name="igrave" horiz-adv-x="285" unicode="ì"/>
<glyph d="M90 500h105v-500h-105v500zM179 745h107l-105 -170h-59z" glyph-name="iacute" horiz-adv-x="285" unicode="í"/>
<glyph d="M90 500h105v-500h-105v500zM218 585l-99 108l-99 -108h-68l139 160h103l139 -160h-115z" glyph-name="icircumflex" horiz-adv-x="285" unicode="î"/>
<glyph d="M90 500h105v-500h-105v500zM6 745h123l-57 -180h-9zM158 745h122l-57 -180h-9z" glyph-name="idieresis" horiz-adv-x="285" unicode="ï"/>
<glyph d="M178 23.5q-62 33.5 -97.5 93t-35.5 132.5t34.5 132t95.5 93t137 34q53 0 96 -25q-16 25 -27 39l-42 53h-172v45h142l-72 90h72l73 -90h144v-45h-115l84 -106q48 -56 71.5 -107.5t23.5 -111.5q0 -74 -35 -133t-97.5 -93t-140.5 -34q-77 0 -139 33.5zM403.5 73 q37.5 25 58.5 71t21 106t-21 106.5t-58.5 71.5t-85.5 25t-85.5 -25t-58.5 -71t-21 -107q0 -60 21 -106t58.5 -71t85.5 -25t85.5 25z" glyph-name="eth" horiz-adv-x="635" unicode="ð"/>
<glyph d="M191 500v-103q24 53 70.5 83t106.5 30q99 0 155.5 -62.5t56.5 -172.5v-275h-106v267q0 85 -36 132t-100 47q-40 0 -73 -24t-51.5 -65.5t-18.5 -92.5v-264h-105v500h101zM174.5 698q28.5 32 73.5 32q26 0 49.5 -6.5t53.5 -19.5q27 -10 43 -15t33 -5q20 0 34 12t14 32h52 q0 -57 -28.5 -89t-73.5 -32q-26 0 -50.5 7t-53.5 19q-27 10 -43 15t-32 5q-21 0 -34.5 -12t-13.5 -32h-52q0 57 28.5 89z" glyph-name="ntilde" horiz-adv-x="660" unicode="ñ"/>
<glyph d="M178.5 24q-62.5 34 -98 93t-35.5 133t35.5 133.5t98 93t139.5 33.5t139.5 -33.5t97.5 -93t35 -133.5t-35 -133t-97.5 -93t-139.5 -34t-139.5 34zM403.5 73q37.5 25 58.5 71t21 106t-21 106.5t-58.5 71.5t-85.5 25t-85.5 -25t-58.5 -71t-21 -107q0 -60 21 -106t58.5 -71 t85.5 -25t85.5 25zM281 575l-105 170h107l57 -170h-59z" glyph-name="ograve" horiz-adv-x="635" unicode="ò"/>
<glyph d="M178.5 24q-62.5 34 -98 93t-35.5 133t35.5 133.5t98 93t139.5 33.5t139.5 -33.5t97.5 -93t35 -133.5t-35 -133t-97.5 -93t-139.5 -34t-139.5 34zM403.5 73q37.5 25 58.5 71t21 106t-21 106.5t-58.5 71.5t-85.5 25t-85.5 -25t-58.5 -71t-21 -107q0 -60 21 -106t58.5 -71 t85.5 -25t85.5 25zM354 745h107l-105 -170h-59z" glyph-name="oacute" horiz-adv-x="635" unicode="ó"/>
<glyph d="M178.5 24q-62.5 34 -98 93t-35.5 133t35.5 133.5t98 93t139.5 33.5t139.5 -33.5t97.5 -93t35 -133.5t-35 -133t-97.5 -93t-139.5 -34t-139.5 34zM403.5 73q37.5 25 58.5 71t21 106t-21 106.5t-58.5 71.5t-85.5 25t-85.5 -25t-58.5 -71t-21 -107q0 -60 21 -106t58.5 -71 t85.5 -25t85.5 25zM393 585l-99 108l-99 -108h-68l139 160h103l139 -160h-115z" glyph-name="ocircumflex" horiz-adv-x="635" unicode="ô"/>
<glyph d="M178.5 24q-62.5 34 -98 93t-35.5 133t35.5 133.5t98 93t139.5 33.5t139.5 -33.5t97.5 -93t35 -133.5t-35 -133t-97.5 -93t-139.5 -34t-139.5 34zM403.5 73q37.5 25 58.5 71t21 106t-21 106.5t-58.5 71.5t-85.5 25t-85.5 -25t-58.5 -71t-21 -107q0 -60 21 -106t58.5 -71 t85.5 -25t85.5 25zM156.5 698q28.5 32 73.5 32q26 0 49.5 -6.5t53.5 -19.5q27 -10 43 -15t33 -5q20 0 34 12t14 32h52q0 -57 -28.5 -89t-73.5 -32q-26 0 -50.5 7t-53.5 19q-27 10 -43 15t-32 5q-21 0 -34.5 -12t-13.5 -32h-52q0 57 28.5 89z" glyph-name="otilde" horiz-adv-x="635" unicode="õ"/>
<glyph d="M178.5 24q-62.5 34 -98 93t-35.5 133t35.5 133.5t98 93t139.5 33.5t139.5 -33.5t97.5 -93t35 -133.5t-35 -133t-97.5 -93t-139.5 -34t-139.5 34zM403.5 73q37.5 25 58.5 71t21 106t-21 106.5t-58.5 71.5t-85.5 25t-85.5 -25t-58.5 -71t-21 -107q0 -60 21 -106t58.5 -71 t85.5 -25t85.5 25zM181 745h123l-57 -180h-9zM333 745h122l-57 -180h-9z" glyph-name="odieresis" horiz-adv-x="635" unicode="ö"/>
<glyph d="M246 504.5q-14 14.5 -14 34.5q0 21 14 35t34 14q21 0 35 -14t14 -35q0 -20 -14 -34.5t-35 -14.5q-20 0 -34 14.5zM70 379h421v-57h-421v57zM246 127q-14 14 -14 35q0 20 14 34t34 14q21 0 35 -14t14 -34q0 -21 -14 -35t-35 -14q-20 0 -34 14z" glyph-name="divide" unicode="÷"/>
<glyph d="M153 43l-41 -43h-61l66 71q-34 35 -53 81t-19 98q0 74 35.5 133.5t98 93t139.5 33.5q92 0 160 -49l38 39h61l-62 -66q36 -36 55.5 -83t19.5 -101q0 -74 -35 -133t-97.5 -93t-139.5 -34q-94 0 -165 53zM318 459q-50 0 -89.5 -26t-61.5 -73.5t-22 -109.5q0 -61 35 -108 l242 257q-36 60 -104 60zM407 68q39 26 61 73t22 109q0 67 -34 116l-243 -257q36 -67 105 -67q50 0 89 26z" glyph-name="oslash" horiz-adv-x="635" unicode="ø"/>
<glyph d="M137 53q-57 63 -57 173v274h106l1 -266q0 -85 35.5 -132.5t99.5 -47.5q40 0 73 24t51.5 65.5t18.5 93.5v263h105v-500h-100v104q-24 -54 -70.5 -84t-106.5 -30q-99 0 -156 63zM288 575l-105 170h107l57 -170h-59z" glyph-name="ugrave" horiz-adv-x="660" unicode="ù"/>
<glyph d="M137 53q-57 63 -57 173v274h106l1 -266q0 -85 35.5 -132.5t99.5 -47.5q40 0 73 24t51.5 65.5t18.5 93.5v263h105v-500h-100v104q-24 -54 -70.5 -84t-106.5 -30q-99 0 -156 63zM361 745h107l-105 -170h-59z" glyph-name="uacute" horiz-adv-x="660" unicode="ú"/>
<glyph d="M137 53q-57 63 -57 173v274h106l1 -266q0 -85 35.5 -132.5t99.5 -47.5q40 0 73 24t51.5 65.5t18.5 93.5v263h105v-500h-100v104q-24 -54 -70.5 -84t-106.5 -30q-99 0 -156 63zM400 585l-99 108l-99 -108h-68l139 160h103l139 -160h-115z" glyph-name="ucircumflex" horiz-adv-x="660" unicode="û"/>
<glyph d="M137 53q-57 63 -57 173v274h106l1 -266q0 -85 35.5 -132.5t99.5 -47.5q40 0 73 24t51.5 65.5t18.5 93.5v263h105v-500h-100v104q-24 -54 -70.5 -84t-106.5 -30q-99 0 -156 63zM188 745h123l-57 -180h-9zM340 745h122l-57 -180h-9z" glyph-name="udieresis" horiz-adv-x="660" unicode="ü"/>
<glyph d="M72 -164.5q-47 45.5 -47 124.5v26h59v-30q0 -50 29 -80.5t74 -30.5q41 0 66.5 25t25.5 65v10q0 22 -7 45.5t-28 63.5l-234 446h117l172 -333q7 -15 15 -36t10 -33q3 17 10 33l149 369h66l-173 -419q-9 -23 -13 -43t-4 -47v-28q0 -80 -46.5 -126.5t-120.5 -46.5 q-73 0 -120 45.5zM322 745h107l-105 -170h-59z" glyph-name="yacute" horiz-adv-x="557" unicode="ý"/>
<glyph d="M195 710v-314q25 54 72.5 84t109.5 30q68 0 122.5 -33.5t86 -92.5t31.5 -134q0 -74 -31.5 -133.5t-86 -93t-122.5 -33.5q-62 0 -109.5 30.5t-72.5 84.5v-305h-105v910h105zM434.5 77q35.5 24 55.5 68.5t20 104.5t-20 104.5t-55.5 68.5t-80.5 24q-46 0 -83 -26t-58 -71 t-21 -100t21 -100t58 -71t83 -26q45 0 80.5 24z" glyph-name="thorn" horiz-adv-x="662" unicode="þ"/>
<glyph d="M90 500h105v-500h-105v500z" glyph-name="dotlessi" horiz-adv-x="285" unicode="ı"/>
<glyph d="M-51 -192.5q-39 17.5 -61 48.5t-22 69h59v-1q0 -35 32 -59t76 -24q46 0 76.5 26.5t30.5 77.5q0 21 -4.5 42.5t-5.5 25.5q-7 33 -11 56.5t-4 53.5v377h105v-516q0 -94 -49 -144t-135 -50q-48 0 -87 17.5z" glyph-name="uni0237" horiz-adv-x="305" unicode="ȷ"/>
<glyph d="M-337 575l-105 170h107l57 -170h-59z" glyph-name="gravecomb" horiz-adv-x="0" unicode="̀"/>
<glyph d="M-264 745h107l-105 -170h-59z" glyph-name="acutecomb" horiz-adv-x="0" unicode="́"/>
<glyph d="M-225 585l-99 108l-99 -108h-68l139 160h103l139 -160h-115z" glyph-name="uni0302" horiz-adv-x="0" unicode="̂"/>
<glyph d="M-461.5 698q28.5 32 73.5 32q26 0 49.5 -6.5t53.5 -19.5q27 -10 43 -15t33 -5q20 0 34 12t14 32h52q0 -57 -28.5 -89t-73.5 -32q-26 0 -50.5 7t-53.5 19q-27 10 -43 15t-32 5q-21 0 -34.5 -12t-13.5 -32h-52q0 57 28.5 89z" glyph-name="tildecomb" horiz-adv-x="0" unicode="̃"/>
<glyph d="M-365 745h130l-60 -180h-10z" glyph-name="uni0307" horiz-adv-x="0" unicode="̇"/>
<glyph d="M-437 745h123l-57 -180h-9zM-285 745h122l-57 -180h-9z" glyph-name="uni0308" horiz-adv-x="0" unicode="̈"/>
<glyph d="M-366.5 580.5q-30.5 17.5 -48 48t-17.5 66.5t17.5 66.5t48 48.5t66.5 18t66.5 -18t48.5 -48.5t18 -66.5t-18 -66t-48.5 -48t-66.5 -18t-66.5 17.5zM-234.5 650q23.5 17 23.5 45t-23.5 45.5t-65.5 17.5t-65 -17.5t-23 -45.5t23 -45t65 -17t65.5 17z" glyph-name="uni030A" horiz-adv-x="0" unicode="̊"/>
<glyph d="M-326 -245h-107l105 170h59z" glyph-name="uni0327" horiz-adv-x="0" unicode="̧"/>
<glyph d="M75 329h400v-57h-400v57z" glyph-name="endash" horiz-adv-x="550" unicode="–"/>
<glyph d="M140 350l109 -200h-68l-106 194v12l106 194h68zM335 350l109 -200h-68l-106 194v12l106 194h68z" glyph-name="guillemotleft.case" horiz-adv-x="519"/>
<glyph d="M379 350l-109 200h68l106 -194v-12l-106 -194h-68zM184 350l-109 200h68l106 -194v-12l-106 -194h-68z" glyph-name="guillemotright.case" horiz-adv-x="519"/>
<glyph d="M225 33q-84 48 -132 132t-48 185t48 185t132 132t185 48t185 -48t132 -132t48 -185q0 -112 -56 -198h-205v89q-22 -46 -67 -72t-103 -26q-62 0 -98.5 29.5t-36.5 77.5q0 57 48.5 87t154.5 37q55 4 77.5 16.5t22.5 37.5q0 40 -29 65t-75 25q-49 0 -82.5 -27.5t-41.5 -75.5 h-51q10 70 59.5 110.5t124.5 40.5q80 0 129 -44.5t49 -120.5v-200h107q37 68 37 149q0 92 -43.5 167t-118.5 118.5t-167 43.5q-91 0 -166 -43.5t-118.5 -118.5t-43.5 -167q0 -91 43.5 -166t118.5 -118.5t166 -43.5q135 0 230 87l24 -26q-50 -47 -114.5 -72.5t-139.5 -25.5 q-101 0 -185 48zM442 210.5q32 19.5 51.5 52t19.5 70.5v36q-27 -20 -88 -26q-67 -7 -97.5 -27t-30.5 -58q0 -32 20 -49.5t56 -17.5q37 0 69 19.5z" glyph-name="at.case" horiz-adv-x="820"/>
<glyph d="M-365 745h130l-60 -180h-10z" glyph-name="uni0307.cv01" horiz-adv-x="0"/>
</font>
</defs>
</svg>
