<?xml version="1.0" encoding="UTF-8"?>
<!DOCTYPE svg  PUBLIC '-//W3C//DTD SVG 1.1//EN'  'http://www.w3.org/Graphics/SVG/1.1/DTD/svg11.dtd'>
<svg version="1.1" xmlns="http://www.w3.org/2000/svg">
<defs>
<font id="KyivTypeSerif-Black2" horiz-adv-x="560">
<font-face font-family="KyivType Serif Black2" font-weight="900" ascent="800" bbox="-509 -245 1039 1030" cap-height="700" descent="-200" panose-1="0 0 10 0 0 0 0 0 0 0" underline-position="-100" underline-thickness="50" unicode-range="U+0020-2013" units-per-em="1000" x-height="500"/>
<missing-glyph/>
<glyph glyph-name="space" horiz-adv-x="250" unicode=" "/>
<glyph d="M103 595h-90v105h371v-105h-90l-26 -298h-140zM109 24q-36 36 -36 89t36 89t89 36t89 -36t36 -89t-36 -89t-89 -36t-89 36z" glyph-name="exclam" horiz-adv-x="396" unicode="!"/>
<glyph d="M400 700l-105 -280h-10l-75 200l-75 -200h-10l-105 280h380z" glyph-name="quotedbl" horiz-adv-x="420" unicode='"'/>
<glyph d="M518 415v-130h122v-185h-122v-115h-95v115h-145v-115h-95v115h-123v185h123v130h-123v185h123v115h95v-115h145v115h95v-115h122v-185h-122zM423 415h-145v-130h145v130z" glyph-name="numbersign" horiz-adv-x="700" unicode="#"/>
<glyph d="M243 16q-34 9 -44 11l-40 11v-73h-104v318h106v-15q7 -45 51 -87t107 -68.5t123 -26.5q31 0 52 14t21 38q0 20 -20 36t-49.5 27.5t-95.5 34.5q-86 32 -143 61t-101 82.5t-44 133.5q0 63 31.5 108.5t87 69.5t125.5 24h6v115h80v-130q27 -3 55.5 -10.5t36.5 -9.5 q7 -2 15.5 -4.5t19.5 -4.5v64h103v-300h-101v15q-6 32 -48 68.5t-100 61t-110 24.5q-27 0 -43 -13t-16 -36q0 -21 21.5 -38t49.5 -28.5t95 -35.5q98 -36 153.5 -62t97.5 -74.5t42 -121.5q0 -103 -66.5 -156.5t-178.5 -53.5h-26v-115h-80v132q-35 5 -69 14z" glyph-name="dollar" horiz-adv-x="700" unicode="$"/>
<glyph d="M115.5 383q-39.5 23 -62.5 62.5t-23 87.5t23 87.5t62.5 62t87.5 22.5t87.5 -22.5t62 -62t22.5 -87.5t-22.5 -87.5t-62 -62.5t-87.5 -23t-87.5 23zM668 700l-438 -700h-92l438 700h92zM238.5 465q13.5 25 13.5 68t-13.5 67.5t-35.5 24.5q-23 0 -36 -24.5t-13 -67.5t13 -68 t36 -25q22 0 35.5 25zM515.5 18q-39.5 23 -62.5 62.5t-23 87.5t23 87.5t62.5 62t87.5 22.5t87.5 -22.5t62 -62t22.5 -87.5t-22.5 -87.5t-62 -62.5t-87.5 -23t-87.5 23zM638.5 100q13.5 25 13.5 68t-13.5 67.5t-35.5 24.5q-23 0 -36 -24.5t-13 -67.5t13 -68t36 -25 q22 0 35.5 25z" glyph-name="percent" horiz-adv-x="805" unicode="%"/>
<glyph d="M151 11q-66 26 -101 74t-35 111q0 78 51 130.5t141 69.5l-147 209v95h472v55h105v-275h-104v28q0 21 -24.5 42.5t-57.5 35.5t-56 14h-95l255 -361q28 48 30 130h-63v57h270v-95h-48q-19 0 -47 -39q-46 -83 -66 -112l48 -75h81v-105h-258l-22 29q-80 -44 -175 -44 q-88 0 -154 26zM418 104l-154 223h-6q-27 -12 -42.5 -45t-15.5 -75q0 -55 27.5 -93.5t76.5 -38.5q62 0 114 29z" glyph-name="ampersand" horiz-adv-x="778" unicode="&amp;"/>
<glyph d="M240 700l-105 -280h-10l-105 280h220z" glyph-name="quotesingle" horiz-adv-x="260" unicode="'"/>
<glyph d="M250 -55.5q-74 59.5 -115.5 165.5t-41.5 240q0 135 41.5 241t115.5 165t168 59v-92q-68 0 -107 -99t-39 -274t39 -274t107 -99v-92q-94 0 -168 59.5z" glyph-name="parenleft" horiz-adv-x="500" unicode="("/>
<glyph d="M251 755.5q74 -59.5 115.5 -165t41.5 -240.5q0 -134 -41.5 -240t-115.5 -165.5t-168 -59.5v92q45 0 78 44.5t50.5 129t17.5 199.5t-17.5 199.5t-50.5 129t-78 44.5v92q94 0 168 -59.5z" glyph-name="parenright" horiz-adv-x="500" unicode=")"/>
<glyph d="M212 574h119l19 -69l-68 -20l-78 69l9 -100h-37l9 100l-77 -69l-69 20l19 69h119l-147 45v69l64 17l88 -105l-50 141l63 53l63 -53l-50 -141l88 105l64 -17v-69z" glyph-name="asterisk" horiz-adv-x="390" unicode="*"/>
<glyph d="M490 303h-162v-163h-95v163h-163v95h163v162h95v-162h162v-95z" glyph-name="plus" unicode="+"/>
<glyph d="M106 -86q32 16 56.5 42.5t35.5 58.5q-23 -20 -46 -20q-48 7 -77.5 40.5t-29.5 77.5q0 51 35 88t90 37q53 0 89.5 -35.5t36.5 -95.5q0 -55 -30.5 -112.5t-74.5 -84.5h-85v4z" glyph-name="comma" horiz-adv-x="330" unicode=","/>
<glyph d="M70 358h270v-115h-270v115z" glyph-name="hyphen" horiz-adv-x="400" unicode="-"/>
<glyph d="M81 24q-36 36 -36 89t36 89t89 36t89 -36t36 -89t-36 -89t-89 -36t-89 36z" glyph-name="period" horiz-adv-x="340" unicode="."/>
<glyph d="M466 700l-338 -700h-103l338 700h103z" glyph-name="slash" horiz-adv-x="491" unicode="/"/>
<glyph d="M203.5 31.5q-73.5 46.5 -114.5 130t-41 188.5q0 104 41.5 187.5t115 130.5t165.5 47q93 0 166.5 -46.5t115 -129.5t41.5 -189q0 -104 -41.5 -187.5t-115.5 -130.5t-166 -47q-93 0 -166.5 46.5zM432 116q27 33 41.5 93.5t14.5 140.5t-14.5 140.5t-41.5 94t-62 33.5 t-61.5 -33.5t-41 -94t-14.5 -140.5t14.5 -140.5t41 -93.5t61.5 -33t62 33z" glyph-name="zero" horiz-adv-x="740" unicode="0"/>
<glyph d="M24 97h134v424l-134 -96v115l218 160h106v-603h124v-97h-448v97z" glyph-name="one" horiz-adv-x="473" unicode="1"/>
<glyph d="M34 0v89l226 148q34 26 57 60q-19 -9 -41 -9q-78 0 -135 28.5t-87 75t-30 101.5q0 61 35.5 111.5t102.5 80.5t157 30q86 0 153 -28t105 -78.5t38 -115.5q0 -75 -64.5 -139.5t-188.5 -143.5l-84 -46h181q55 0 55 35v55h107v-304h-108v50h-479zM397 383.5q27 34.5 27 89.5 q0 77 -29 116.5t-79 39.5q-49 0 -77.5 -38.5t-28.5 -102.5t28.5 -101.5t77.5 -37.5q54 0 81 34.5z" glyph-name="two" horiz-adv-x="651" unicode="2"/>
<glyph d="M123 276v-5q0 -38 25.5 -83t66 -75.5t81.5 -30.5q44 0 66.5 35t22.5 92q0 59 -23.5 90t-58.5 31q-37 0 -67 -27l-10 -9l-48 64l204 173h-175q-38 0 -52 -7.5t-14 -31.5v-34h-95v292h96v-50h437v-94l-240 -216q11 5 28 7.5t31 2.5q54 0 97.5 -23.5t68.5 -66.5t25 -97 q0 -64 -33 -115t-95 -81t-147 -30q-48 0 -85.5 11t-103.5 36v-64h-96v306h94z" glyph-name="three" horiz-adv-x="601" unicode="3"/>
<glyph d="M344 86v101h-339v89l349 424h185v-358h61q2 0 2 1v41h72v-222h-72v25h-63v-101h95v-86h-400v86h110zM344 335v224l-183 -224h183z" glyph-name="four" horiz-adv-x="686" unicode="4"/>
<glyph d="M135 221v-4q4 -26 31.5 -57.5t62.5 -54t59 -22.5q35 0 59.5 35.5t24.5 96.5q0 68 -29 104.5t-71 36.5q-36 0 -67.5 -16.5t-51.5 -49.5l-99 2l53 408h284q31 0 42.5 6t11.5 27v27h99v-279h-100v54h-265l-19 -149q66 53 157 53q71 0 130 -26t94.5 -75.5t35.5 -117.5 q0 -66 -33.5 -118t-94 -81.5t-137.5 -29.5q-93 0 -176 36v-57h-100v251h99z" glyph-name="five" horiz-adv-x="600" unicode="5"/>
<glyph d="M198 30q-71 45 -110.5 126t-39.5 186q0 109 40.5 194t109 132t149.5 47q78 0 163 -23v46h89v-254h-103v4q-1 22 -26.5 53.5t-60 54.5t-60.5 23q-31 0 -55.5 -31.5t-38.5 -87.5t-14 -126v-7q56 90 178 90q70 0 123 -30.5t81 -81.5t28 -113q0 -67 -35.5 -123.5t-101.5 -90 t-155 -33.5q-90 0 -161 45zM436.5 113q27.5 41 27.5 108t-27.5 107.5t-73.5 40.5q-43 0 -72 -32t-34 -84q4 -83 33 -132t74 -49t72.5 41z" glyph-name="six" horiz-adv-x="678" unicode="6"/>
<glyph d="M170 95q1 9 5 20q30 110 92 218.5t147 198.5h-222q-39 0 -52.5 -7.5t-13.5 -31.5v-80h-100v342h100v-55h451v-93q-81 -99 -136 -225t-69 -265l-3 -22h131v-95h-420v95h90z" glyph-name="seven" horiz-adv-x="577" unicode="7"/>
<glyph d="M180 10.5q-72 25.5 -112 72t-40 105.5t40 103t123 67q-61 18 -98 63t-37 96q0 58 36.5 103t102 70t150.5 25t151 -25t102.5 -70t36.5 -103q0 -51 -37.5 -95.5t-98.5 -63.5q84 -23 124 -67t40 -103t-40 -105.5t-112.5 -72t-165.5 -25.5t-165 25.5zM423.5 424.5 q29.5 32.5 29.5 86.5t-29.5 86.5t-78.5 32.5t-78.5 -32.5t-29.5 -86.5t29.5 -86.5t78.5 -32.5t78.5 32.5zM428.5 105q31.5 34 31.5 90t-31.5 89t-83.5 33t-83.5 -33t-31.5 -89t31.5 -90t83.5 -34t83.5 34z" glyph-name="eight" horiz-adv-x="690" unicode="8"/>
<glyph d="M481 670.5q71 -44.5 110.5 -125.5t39.5 -186q0 -109 -40.5 -194.5t-109 -132.5t-149.5 -47q-77 0 -164 23v-46h-88v255h103v-5q1 -22 26 -53t59.5 -54t61.5 -23q31 0 55 31.5t38 87t14 126.5v6q-57 -90 -178 -90q-70 0 -123 30.5t-81 82t-28 112.5q0 67 35.5 123.5 t102 90t154.5 33.5q91 0 162 -44.5zM241.5 588q-27.5 -41 -27.5 -108t28 -108t73 -41q43 0 72.5 32t33.5 84q-4 83 -32.5 132.5t-74.5 49.5q-45 0 -72.5 -41z" glyph-name="nine" horiz-adv-x="678" unicode="9"/>
<glyph d="M81 24q-36 36 -36 89t36 89t89 36t89 -36t36 -89t-36 -89t-89 -36t-89 36zM81 304q-36 36 -36 89t36 89t89 36t89 -36t36 -89t-36 -89t-89 -36t-89 36z" glyph-name="colon" horiz-adv-x="340" unicode=":"/>
<glyph d="M106 -86q32 16 56.5 42.5t35.5 58.5q-23 -20 -46 -20q-48 7 -77.5 40.5t-29.5 77.5q0 51 35 88t90 37q53 0 89.5 -35.5t36.5 -95.5q0 -55 -30.5 -112.5t-74.5 -84.5h-85v4zM81 304q-36 36 -36 89t36 89t89 36t89 -36t36 -89t-36 -89t-89 -36t-89 36z" glyph-name="semicolon" horiz-adv-x="341" unicode=";"/>
<glyph d="M490 477l-267 -124l267 -125v-105l-420 195v64l420 196v-101z" glyph-name="less" unicode="&lt;"/>
<glyph d="M70 508h420v-95h-420v95zM70 288h420v-95h-420v95z" glyph-name="equal" unicode="="/>
<glyph d="M70 223l267 125l-267 124v106l420 -196v-64l-420 -195v100z" glyph-name="greater" unicode="&gt;"/>
<glyph d="M216 323q0 43 21.5 73.5t64.5 57.5q30 20 42 43t12 52t-18 49t-49 20t-60.5 -23t-51 -60.5t-29.5 -80.5l-1 -11h-100l1 300h98v-61q37 15 75 24t88 9q65 0 121.5 -20t91 -59t34.5 -94t-37 -93t-112 -70q-46 -22 -67 -43t-21 -58h-96q-7 22 -7 45zM196 24q-36 36 -36 89 t36 89t89 36t89 -36t36 -89t-36 -89t-89 -36t-89 36z" glyph-name="question" horiz-adv-x="589" unicode="?"/>
<glyph d="M225 -119q-84 48 -132 132t-48 185t48 185t132 132t185 48t185 -48t132 -132t48 -185q0 -109 -56 -198h-246v64q-45 -72 -149 -72q-64 0 -99 30.5t-35 82.5q0 108 171 120q59 5 83 20t25 47q0 54 -46 54q-23 0 -48.5 -14t-44 -36t-20.5 -44v-7h-64v188h63v-35q24 4 36 7 q6 1 32.5 5.5t53.5 4.5q84 0 131 -44t47 -123v-172h86q28 56 28 122q0 87 -41.5 158.5t-113 113t-158.5 41.5t-158.5 -41.5t-112.5 -113t-41 -158.5t41 -158.5t112.5 -112.5t158.5 -41q126 0 215 78l35 -39q-103 -92 -250 -92q-101 0 -185 48zM425 84q21 14 34 38.5t13 56.5 v41q-24 -25 -66 -32q-68 -12 -68 -66q0 -23 12.5 -37.5t32.5 -14.5q21 0 42 14z" glyph-name="at" horiz-adv-x="820" unicode="@"/>
<glyph d="M-32 105h82l159 444l-15 46h-77v105h373l186 -595h82v-105h-405v105h101l-40 130h-205l-46 -130h122v-105h-317v105zM392 315l-67 217h-15l-77 -217h159z" glyph-name="A" horiz-adv-x="736" unicode="A"/>
<glyph d="M105 105v490h-90v105h391q129 0 202 -47.5t73 -132.5q0 -60 -39.5 -101.5t-112.5 -60.5v-9q84 -16 129.5 -59.5t45.5 -109.5q0 -84 -72 -132t-199 -48h-418v105h90zM447.5 421.5q23.5 27.5 23.5 76.5t-23.5 76.5t-65.5 27.5h-71v-208h71q42 0 65.5 27.5zM464 126.5 q23 27.5 23 77.5t-23 77.5t-65 27.5h-88v-210h89q41 0 64 27.5z" glyph-name="B" horiz-adv-x="719" unicode="B"/>
<glyph d="M203 33q-81 46 -127 128.5t-46 188.5t46 188.5t127 128.5t182 46q30 0 56.5 -4t70.5 -13q11 -3 21 -4.5t19 -3.5v55h105v-325h-107v4q-4 42 -30 84.5t-63.5 70t-72.5 27.5q-62 0 -98 -64.5t-36 -189.5q0 -126 36.5 -189.5t98.5 -63.5q37 0 77 30t67.5 76t31.5 91v4h107 l1 -338h-105l-1 53l-39 -8q-45 -9 -75.5 -13.5t-63.5 -4.5q-101 0 -182 46z" glyph-name="C" horiz-adv-x="718" unicode="C"/>
<glyph d="M545 656.5q90 -43.5 139.5 -123t49.5 -183.5q0 -103 -49.5 -182.5t-139.5 -123.5t-208 -44h-322v105h90v490h-90v105h322q118 0 208 -43.5zM472.5 165.5q41.5 60.5 41.5 184.5q0 125 -41.5 185t-127.5 60h-35v-490h35q86 0 127.5 60.5z" glyph-name="D" horiz-adv-x="764" unicode="D"/>
<glyph d="M15 0v105h90v490h-90v105h514v55h105v-327h-104v65q0 21 -17.5 46t-46 42t-60.5 17h-100v-198h29q25 0 40.5 17t15.5 38v10h66v-230h-66v10q0 21 -15.5 38t-40.5 17h-29v-197h103q38 0 72 19.5t54.5 48t20.5 52.5v65h106v-348h-105v60h-542z" glyph-name="E" horiz-adv-x="684" unicode="E"/>
<glyph d="M105 105v490h-90v105h508v55h105v-332h-103v57q0 23 -17.5 50t-46 46t-60.5 19h-91v-192h31q25 0 40.5 17t15.5 38v10h59v-230h-59v10q0 21 -15.5 38t-40.5 17h-31v-198h146v-105h-441v105h90z" glyph-name="F" horiz-adv-x="646" unicode="F"/>
<glyph d="M596.5 43.5q-7.5 8.5 -17.5 7.5q-20 -5 -53 -24q-42 -21 -73.5 -31.5t-76.5 -10.5q-97 0 -176 46t-124.5 129.5t-45.5 189.5q0 107 45.5 190t125.5 129t180 46q40 0 73.5 -7t102.5 -26v61h105v-301h-102v5q-6 34 -32 70.5t-62 60t-70 23.5q-69 0 -107.5 -63.5 t-38.5 -187.5q0 -128 38 -192.5t105 -64.5q48 0 81.5 25t41.5 81v96h-124v83h396v-100h-70v-303h-114v46q0 14 -7.5 22.5z" glyph-name="G" horiz-adv-x="783" unicode="G"/>
<glyph d="M15 105h90v490h-90v105h380v-105h-85v-197h200v197h-85v105h380v-105h-90v-490h90v-105h-380v105h85v198h-200v-198h85v-105h-380v105z" glyph-name="H" horiz-adv-x="820" unicode="H"/>
<glyph d="M15 105h90v490h-90v105h385v-105h-90v-490h90v-105h-385v105z" glyph-name="I" horiz-adv-x="415" unicode="I"/>
<glyph d="M121 316v-22q0 -39 23 -84t55 -75.5t57 -30.5q30 0 43 36t13 111v344h-147v105h434v-105h-80v-339q0 -86 -31.5 -147t-84.5 -92.5t-116 -31.5q-29 0 -54.5 6t-73.5 20l-36 11v-65h-105v359h103z" glyph-name="J" horiz-adv-x="602" unicode="J"/>
<glyph d="M15 105h90v490h-90v105h389v-105h-94v-197h59l165 197h-70v105h286v-105h-86l-127 -158l202 -332h65v-105h-369v105h54l-119 198h-60v-198h94v-105h-389v105z" glyph-name="K" horiz-adv-x="770" unicode="K"/>
<glyph d="M15 0v105h90v490h-90v105h419v-105h-124v-490h86q38 0 72 20.5t54.5 50t20.5 54.5v88h109v-378h-110v60h-527z" glyph-name="L" horiz-adv-x="662" unicode="L"/>
<glyph d="M35 105h90v436l-28 54h-82v105h349l149 -438l119 438h343v-105h-90v-490h90v-105h-364v105h74v462h-3l-167 -567h-91l-190 519h-3v-414h89v-105h-285v105z" glyph-name="M" horiz-adv-x="990" unicode="M"/>
<glyph d="M211 493v-388h123v-105h-319v105h90v447l-35 43h-75v105h323l268 -382v277h-92v105h280v-105h-82v-619h-109z" glyph-name="N" horiz-adv-x="786" unicode="N"/>
<glyph d="M208.5 32q-83.5 47 -131 130t-47.5 188t47.5 188t131 130t189.5 47t189.5 -47t130.5 -130t47 -188t-47 -188t-130.5 -130t-189.5 -47t-189.5 47zM505.5 165q37.5 63 37.5 185t-37.5 185.5t-107.5 63.5t-107.5 -63.5t-37.5 -185.5t37.5 -185t107.5 -63t107.5 63z" glyph-name="O" horiz-adv-x="795" unicode="O"/>
<glyph d="M105 105v490h-90v105h381q133 0 208.5 -56.5t75.5 -155.5q0 -100 -75.5 -156.5t-208.5 -56.5h-86v-170h128v-105h-423v105h90zM441.5 391.5q23.5 31.5 23.5 88.5t-23.5 88.5t-64.5 31.5h-67v-240h67q41 0 64.5 31.5z" glyph-name="P" horiz-adv-x="700" unicode="P"/>
<glyph d="M300 -95v109q-80 18 -141 66.5t-95 120.5t-34 158q0 103 47 184t130 126.5t188 45.5t188 -45.5t130 -126.5t47 -184q0 -86 -33.5 -158t-94.5 -120.5t-142 -66.5v-109h124v-105h-438v105h124zM502.5 168.5q37.5 63.5 37.5 185.5t-37.5 185t-107.5 63t-107.5 -63 t-37.5 -185t37.5 -185.5t107.5 -63.5t107.5 63.5z" glyph-name="Q" horiz-adv-x="790" unicode="Q"/>
<glyph d="M105 105v490h-90v105h390q131 0 206 -53t75 -146q0 -54 -32.5 -95.5t-88.5 -67.5l136 -233h68v-105h-359v105h50l-109 199h-41v-199h70v-105h-365v105h90zM449.5 409q24.5 29 24.5 81t-24 81t-68 29h-72v-220h72q43 0 67.5 29z" glyph-name="R" horiz-adv-x="735" unicode="R"/>
<glyph d="M138 283v-15q7 -45 51 -87t107 -68.5t123 -26.5q31 0 52 14t21 38q0 20 -20 36t-49.5 27.5t-95.5 34.5q-86 32 -143 61t-101 82.5t-44 133.5q0 95 68 148.5t177 53.5q100 0 212 -44v64h103v-300h-101v15q-6 32 -48 68.5t-100 61t-110 24.5q-27 0 -43 -13t-16 -36 q0 -21 21.5 -38t49.5 -28.5t95 -35.5q98 -36 153.5 -62t97.5 -74.5t42 -121.5q0 -104 -67.5 -157t-181.5 -53q-73 0 -134.5 14.5t-120.5 38.5v-73h-104v318h106z" glyph-name="S" horiz-adv-x="654" unicode="S"/>
<glyph d="M280 105v493h-44q-21 0 -46 -19t-42 -47t-17 -51v-71h-103v345h105v-55h500v55h105v-345h-104v71q0 23 -17 51t-42 47t-46 19h-44v-493h132v-105h-469v105h132z" glyph-name="T" horiz-adv-x="765" unicode="T"/>
<glyph d="M237 20.5q-68 35.5 -105.5 100.5t-37.5 150v324h-86v105h383v-105h-90v-320q0 -86 36 -127.5t99 -41.5q38 0 68.5 22.5t47.5 62.5t17 91v313h-90v105h288v-105h-86v-317q0 -89 -36 -155t-101.5 -102t-151.5 -36q-87 0 -155 35.5z" glyph-name="U" horiz-adv-x="772" unicode="U"/>
<glyph d="M47 595h-82v105h419v-105h-105l144 -427h6l143 427h-123v105h328v-105h-82l-206 -595h-236z" glyph-name="V" horiz-adv-x="741" unicode="V"/>
<glyph d="M46 595h-76v105h355v-105h-56l100 -417h5l65 287l-39 130h-50v105h360v-105h-74l101 -417h5l101 417h-73v105h269v-105h-76l-152 -595h-214l-92 386l-92 -386h-214z" glyph-name="W" horiz-adv-x="1008" unicode="W"/>
<glyph d="M-28 105h100l174 233l-191 257h-78v105h398v-105h-84l112 -158l111 158h-84v105h291v-105h-82l-157 -206l207 -284h77v-105h-405v105h92l-129 185l-127 -185h104v-105h-329v105z" glyph-name="X" horiz-adv-x="723" unicode="X"/>
<glyph d="M132 105h124v160l-202 330h-82v105h407v-105h-97l130 -238l132 238h-97v105h303v-105h-82l-202 -331v-159h124v-105h-458v105z" glyph-name="Y" horiz-adv-x="720" unicode="Y"/>
<glyph d="M356 598h-99q-34 0 -63.5 -17t-47.5 -42t-18 -46v-53h-101v315h105v-55h477v-90l-343 -507h95q41 0 76 19.5t55.5 48t20.5 52.5v62h106v-340h-108v55h-501v90z" glyph-name="Z" horiz-adv-x="634" unicode="Z"/>
<glyph d="M120 800h310v-95h-140v-710h140v-95h-310v900z" glyph-name="bracketleft" horiz-adv-x="500" unicode="["/>
<glyph d="M128 700l338 -700h-103l-338 700h103z" glyph-name="backslash" horiz-adv-x="491" unicode="\"/>
<glyph d="M70 -100v95h140v710h-140v95h310v-900h-310z" glyph-name="bracketright" horiz-adv-x="500" unicode="]"/>
<glyph d="M243 700h74l184 -320h-105l-116 203l-117 -203h-104z" glyph-name="asciicircum" unicode="^"/>
<glyph d="M30 20h410v-95h-410v95z" glyph-name="underscore" horiz-adv-x="470" unicode="_"/>
<glyph d="M54 27.5q-43 37.5 -43 100.5q0 132 210 149q73 6 103 24t30 58q0 37 -14 53t-42 16t-60 -19t-55.5 -47t-26.5 -53v-8h-89v232h88v-43l36 6q37 7 62.5 10.5t54.5 3.5q102 0 159 -54t57 -151v-210h64v-95h-229v77q-56 -87 -184 -87q-78 0 -121 37.5zM300 101q26 17 42 48 t16 70v53q-29 -31 -82 -40q-83 -14 -83 -83q0 -29 15.5 -47t39.5 -18q26 0 52 17z" glyph-name="a" horiz-adv-x="600" unicode="a"/>
<glyph d="M257 64v-64h-164v605h-80v95h252v-257q48 67 137 67q65 0 116.5 -32.5t81 -91.5t29.5 -136q0 -78 -29 -137t-80.5 -91t-117.5 -32q-95 0 -145 74zM418.5 130.5q23.5 38.5 23.5 119.5t-23.5 119.5t-64.5 38.5q-43 0 -70.5 -45t-27.5 -113t27.5 -113t70.5 -45 q41 0 64.5 38.5z" glyph-name="b" horiz-adv-x="657" unicode="b"/>
<glyph d="M299 -10q-78 0 -139.5 33.5t-96.5 92.5t-35 134t35 134t96.5 92.5t139.5 33.5q57 0 135 -20v43h89l-1 -246h-93v8q-3 26 -23.5 55.5t-49 49t-51.5 19.5q-44 0 -69 -43.5t-25 -125.5t25 -125t69 -43q25 0 55 19.5t52.5 48.5t26.5 55v8h93v-246h-88v44q-79 -21 -145 -21z " glyph-name="c" horiz-adv-x="584" unicode="c"/>
<glyph d="M137.5 22q-51.5 32 -80.5 90.5t-29 135.5q0 76 29.5 134.5t81 90.5t116.5 32q89 0 137 -67v167h-83v95h255v-605h78v-95h-242v63q-50 -73 -145 -73q-66 0 -117.5 32zM373.5 137q27.5 45 27.5 113t-27.5 113t-70.5 45q-41 0 -64.5 -38.5t-23.5 -119.5t23.5 -119.5 t64.5 -38.5q43 0 70.5 45z" glyph-name="d" horiz-adv-x="654" unicode="d"/>
<glyph d="M296 -10q-77 0 -138 32t-95.5 90t-34.5 134q0 78 34.5 138t96.5 93t142 33t140.5 -32.5t93.5 -91t34 -135.5q0 -20 -2 -30h-360q6 -73 31 -112t64 -39q23 0 51.5 16.5t50.5 40t26 41.5v6h101v-207h-89v45q-81 -22 -146 -22zM298 429q-38 0 -61 -37.5t-29 -110.5h182 q-13 148 -92 148z" glyph-name="e" horiz-adv-x="601" unicode="e"/>
<glyph d="M90 95v310h-77v95h77v29q0 90 40 140.5t105 50.5q29 0 53.5 -3t62.5 -10l27 -5v33h89v-207h-88v8q0 14 -24 38.5t-55 43.5t-51 19q-16 0 -26 -9.5t-10 -23.5q0 -13 4 -23.5t12 -27.5q2 -4 9.5 -19.5t11.5 -33.5h158v-95h-150q5 -20 5 -45v-265h114v-95h-364v95h77z" glyph-name="f" horiz-adv-x="389" unicode="f"/>
<glyph d="M114.5 -169q-74.5 41 -74.5 118q0 45 37.5 76.5t104.5 45.5q-95 11 -152.5 45.5t-57.5 90.5q0 32 20.5 56t59.5 29q12 0 24 -6q-12 23 -12 53q0 65 49.5 108.5t141.5 54.5v71h-101v92h358v-92h-101v-71q58 -2 102.5 -24.5t68.5 -59t24 -79.5q0 -81 -72.5 -126.5 t-198.5 -45.5q-67 0 -107 14t-78 37q-20 12 -31 17t-23 5q-18 0 -29 -9t-11 -23q0 -32 32.5 -49t83 -24.5t139.5 -14.5q18 -1 61 -5q121 -9 183.5 -49.5t62.5 -110.5q0 -78 -76.5 -121.5t-213.5 -43.5q-139 0 -213.5 41zM403 265q24 26 24 74q0 49 -24 75t-68 26t-68.5 -26 t-24.5 -75q0 -48 24.5 -74t68.5 -26t68 26zM401.5 -113.5q25.5 23.5 25.5 68.5q0 46 -25 70t-73 24t-73 -24t-25 -70q0 -45 25.5 -68.5t72.5 -23.5t72.5 23.5z" glyph-name="g" horiz-adv-x="619" unicode="g"/>
<glyph d="M90 95v510h-80v95h253v-260q42 70 133 70q87 0 137.5 -59t50.5 -161v-195h66v-95h-302v95h62v182q0 63 -17.5 95.5t-50.5 32.5q-36 0 -57.5 -38.5t-21.5 -102.5v-169h60v-95h-310v95h77z" glyph-name="h" horiz-adv-x="663" unicode="h"/>
<glyph d="M13 95h77v310h-77v95h250v-405h77v-95h-327v95zM51 745h230l-110 -200h-10z" glyph-name="i" horiz-adv-x="353" unicode="i"/>
<glyph d="M19 -22v-7q0 -20 19 -42t44.5 -37t40.5 -15q16 0 25.5 9.5t9.5 24.5q0 17 -4.5 32t-14.5 40q-14 35 -21.5 64.5t-7.5 71.5v286h-99v95h272v-519q0 -88 -41 -139.5t-104 -51.5q-48 0 -116 22v-45h-89v211h86zM75 745h230l-110 -200h-10z" glyph-name="j" horiz-adv-x="348" unicode="j"/>
<glyph d="M15 95h78v510h-80v95h252v-415h36l119 136h-62v79h235v-95h-79l-75 -90l137 -220h71v-95h-297v80h38l-85 135h-38v-135h60v-80h-310v95z" glyph-name="k" horiz-adv-x="612" unicode="k"/>
<glyph d="M15 95h78v510h-80v95h252v-605h78v-95h-328v95z" glyph-name="l" horiz-adv-x="355" unicode="l"/>
<glyph d="M90 95v310h-77v95h241v-64q45 74 137 74q52 0 90 -24t59 -70q42 94 152 94q91 0 142 -58t51 -162v-195h66v-95h-296v95h56v182q0 63 -16.5 95.5t-46.5 32.5q-33 0 -53.5 -35t-20.5 -88v-187h56v-95h-286v95h56v182q0 63 -16.5 95.5t-46.5 32.5q-34 0 -54 -38.5 t-20 -102.5v-169h56v-95h-306v95h77z" glyph-name="m" horiz-adv-x="964" unicode="m"/>
<glyph d="M90 95v310h-77v95h241v-66q46 76 142 76q87 0 137.5 -59t50.5 -161v-195h66v-95h-302v95h62v182q0 63 -17.5 95.5t-50.5 32.5q-36 0 -57.5 -38.5t-21.5 -102.5v-169h60v-95h-310v95h77z" glyph-name="n" horiz-adv-x="663" unicode="n"/>
<glyph d="M164.5 23q-64.5 33 -100.5 92t-36 135t36 135t101 92t148 33q84 0 148.5 -33t100.5 -92t36 -135q0 -75 -36.5 -134.5t-101.5 -92.5t-147 -33q-84 0 -148.5 33zM385.5 125q24.5 42 24.5 125t-24.5 125.5t-72.5 42.5t-73 -42.5t-25 -125.5t25 -125t73 -42t72.5 42z" glyph-name="o" horiz-adv-x="625" unicode="o"/>
<glyph d="M90 -105v510h-77v95h241v-63q49 73 146 73q65 0 117 -32t81 -91t29 -137q0 -77 -29.5 -136t-81 -91.5t-116.5 -32.5q-90 0 -137 68v-168h125v-90h-375v95h77zM416 130.5q23 38.5 23 119.5t-23 119.5t-64 38.5q-43 0 -70.5 -45t-27.5 -113t27.5 -113t70.5 -45 q41 0 64 38.5z" glyph-name="p" horiz-adv-x="654" unicode="p"/>
<glyph d="M392 -110v168q-48 -68 -137 -68q-65 0 -116.5 32.5t-81 91.5t-29.5 136q0 78 29 137t80.5 91t117.5 32q96 0 145 -73v63h242v-95h-78v-510h78v-95h-376v90h126zM373.5 137q27.5 45 27.5 113t-27.5 113t-70.5 45q-41 0 -64.5 -38.5t-23.5 -119.5t23.5 -119.5t64.5 -38.5 q43 0 70.5 45z" glyph-name="q" horiz-adv-x="654" unicode="q"/>
<glyph d="M90 95v310h-77v95h241v-68q15 37 43 56.5t64 19.5q13 0 28 -4.5t30 -9.5v47h89v-265h-86v14q0 24 -15.5 49.5t-38 42.5t-40.5 17q-29 0 -47 -34t-18 -94v-176h122v-95h-372v95h77z" glyph-name="r" horiz-adv-x="528" unicode="r"/>
<glyph d="M98 199v-8q5 -27 40 -55.5t86 -47.5t98 -19q25 0 40.5 8.5t15.5 23.5q0 11 -8.5 19.5t-32.5 17.5t-72 22q-82 22 -132.5 46t-78 60.5t-27.5 90.5q0 74 52.5 113.5t138.5 39.5q46 0 77.5 -6t82.5 -19v47h85v-223h-79v6q-4 25 -38 51t-79.5 43t-77.5 17q-19 0 -31 -8 t-12 -21q0 -21 25.5 -34.5t99.5 -36.5q89 -27 135.5 -49t69.5 -52.5t23 -80.5q0 -78 -52 -117.5t-140 -39.5q-41 0 -101.5 7.5t-100.5 17.5v-40h-84v227h77z" glyph-name="s" horiz-adv-x="513" unicode="s"/>
<glyph d="M128.5 37q-43.5 42 -43.5 118v250h-82v95h44q56 0 91 32t35 96v22h85v-150h142v-95h-142v-245q0 -32 15.5 -48t43.5 -16q21 0 46 5.5t45 12.5v-98q-76 -21 -158 -21q-78 0 -121.5 42z" glyph-name="t" horiz-adv-x="420" unicode="t"/>
<glyph d="M129.5 49.5q-50.5 59.5 -50.5 161.5v194h-66v95h240v-276q0 -63 17.5 -96t50.5 -33q36 0 57.5 38.5t21.5 103.5v168h-82v95h332v-95h-77v-310h77v-95h-241v67q-45 -77 -142 -77q-87 0 -137.5 59.5z" glyph-name="u" horiz-adv-x="663" unicode="u"/>
<glyph d="M44 405h-62v95h321v-95h-68l99 -265h3l100 265h-82v95h249v-95h-62l-162 -405h-172z" glyph-name="v" horiz-adv-x="585" unicode="v"/>
<glyph d="M40 405h-59v95h267v-95h-28l69 -283h3l52 192l-30 91h-41v95h282v-95h-46l78 -284h4l69 284h-52v95h212v-95h-59l-113 -405h-184l-64 241l-66 -241h-182z" glyph-name="w" horiz-adv-x="800" unicode="w"/>
<glyph d="M-28 95h89l112 143l-127 167h-70v95h311v-73h-55l80 -110l82 110h-67v73h230v-95h-74l-101 -125l140 -185h69v-95h-326v73h71l-92 128l-94 -128h75v-73h-253v95z" glyph-name="x" horiz-adv-x="556" unicode="x"/>
<glyph d="M124 65v-43q0 -28 20 -61t48.5 -55.5t51.5 -22.5q12 0 20 8t8 21v1q0 11 -9.5 33t-41.5 89l-15 31l-167 339h-60v95h317v-95h-59l83 -195q19 -46 28 -72q3 12 9 33l79 234h-83v95h248v-95h-68l-114 -295q-9 -28 -13.5 -50t-4.5 -49v-16q0 -98 -40.5 -151.5t-109.5 -53.5 q-32 0 -67 7.5t-58 19.5v-46h-90v294h88z" glyph-name="y" horiz-adv-x="573" unicode="y"/>
<glyph d="M17 0v78l263 342h-64q-21 0 -43.5 -15t-37.5 -36t-15 -39v-32h-86v255h89v-53h366v-78l-258 -338h62q31 0 56 14.5t39.5 35.5t14.5 40v34h86v-251h-87v43h-385z" glyph-name="z" horiz-adv-x="511" unicode="z"/>
<glyph d="M177.5 -80q-44.5 35 -44.5 112q0 35 16 113q6 29 11 58t5 49q0 28 -12 39.5t-37 11.5h-51v95h51q25 0 37 11t12 39q0 21 -5 50t-11 58q-16 80 -16 112q0 77 44.5 112t129.5 35q25 0 59.5 -4.5t60.5 -11.5v-94q-41 12 -69 12q-54 0 -54 -53q0 -19 9 -75q12 -74 12 -104 q0 -55 -23.5 -88t-76.5 -47q53 -13 76.5 -46t23.5 -88q0 -30 -12 -104q-9 -56 -9 -76q0 -53 54 -53q29 0 69 12v-94q-26 -7 -60.5 -11.5t-59.5 -4.5q-85 0 -129.5 35z" glyph-name="braceleft" horiz-adv-x="500" unicode="{"/>
<glyph d="M120 800h95v-900h-95v900z" glyph-name="bar" horiz-adv-x="335" unicode="|"/>
<glyph d="M322.5 780q44.5 -35 44.5 -112q0 -32 -16 -112q-2 -9 -8.5 -45.5t-6.5 -62.5q0 -28 11.5 -39t36.5 -11h51v-95h-51q-25 0 -36.5 -11.5t-11.5 -39.5q0 -25 6.5 -61.5t8.5 -45.5q16 -78 16 -113q0 -77 -44.5 -112t-129.5 -35q-25 0 -59.5 4.5t-60.5 11.5v94q41 -12 69 -12 q27 0 40.5 12.5t13.5 40.5q0 20 -9 76q-12 74 -12 104q0 55 23.5 88t76.5 46q-53 14 -76.5 47t-23.5 88q0 30 12 104q9 56 9 75q0 28 -13.5 40.5t-40.5 12.5q-28 0 -69 -12v94q26 7 60.5 11.5t59.5 4.5q85 0 129.5 -35z" glyph-name="braceright" horiz-adv-x="500" unicode="}"/>
<glyph d="M99 389q31 37 81 37q28 0 50.5 -8t51.5 -23q22 -10 37.5 -15.5t31.5 -5.5q20 0 33.5 13t13.5 32h95q0 -67 -31 -104t-81 -37q-29 0 -51 8t-50 22q-26 12 -40 17t-30 5q-20 0 -33.5 -13.5t-13.5 -32.5h-95q0 68 31 105z" glyph-name="asciitilde" unicode="~"/>
<glyph glyph-name="uni00A0" horiz-adv-x="250" unicode=" "/>
<glyph d="M287 476q36 -36 36 -89t-36 -89t-89 -36t-89 36t-36 89t36 89t89 36t89 -36zM384 -95v-105h-371v105h90l25 298h140l26 -298h90z" glyph-name="exclamdown" horiz-adv-x="396" unicode="¡"/>
<glyph d="M182.5 134q-55.5 35 -86.5 91.5t-31 126.5t31 127t86.5 91.5t126.5 40.5v119h80v-130q30 -2 44 -4q13 -2 39 -4v43h88v-246h-94v8q-3 26 -23.5 55.5t-48.5 49t-51 19.5q-44 0 -69 -43t-25 -126q0 -82 25 -125t69 -43q25 0 54.5 19.5t52 48.5t26.5 55v8h94v-246h-89v44 l-41 -4q-37 -4 -51 -5v-134h-80v123q-71 6 -126.5 41z" glyph-name="cent" horiz-adv-x="700" unicode="¢"/>
<glyph d="M70 20q-39 35 -39 92q0 55 38.5 93t106.5 38q40 0 90 -10q-2 6 -4 8q-7 13 -19.5 27.5t-25.5 28.5q-11 9 -20 20h-139v66h99q-42 64 -42 128q0 95 63 149.5t166 54.5q59 0 102.5 -19.5t70.5 -55.5v65h90v-222h-102q-2 64 -34.5 95t-76.5 31q-39 0 -63 -24.5t-24 -72.5 q0 -30 14 -77q10 -39 13 -52h199v-66h-179q8 -38 8 -80q0 -34 -2 -40q42 -13 73 -20t61 -7q43 0 60 12.5t17 43.5q0 13 -3 25h98q6 -34 6 -64q0 -66 -25 -111.5t-67 -68t-93 -22.5q-48 0 -92.5 16t-91.5 44q-26 -30 -60 -45t-73 -15q-61 0 -100 35zM247 86q-37 21 -59 31 t-41 10t-30.5 -9.5t-11.5 -24.5q0 -17 17 -30t45 -13q49 0 80 36z" glyph-name="sterling" horiz-adv-x="700" unicode="£"/>
<glyph d="M147 221q-39 59 -39 129q0 71 39 129l-93 94l74 74l93 -94q58 40 129 40t129 -40l94 94l74 -74l-94 -94q40 -58 40 -129t-40 -129l94 -93l-74 -74l-94 93q-58 -39 -129 -39q-70 0 -129 39l-93 -93l-74 74zM419.5 231.5q31.5 18.5 50 50t18.5 68.5q0 38 -18.5 69.5t-50 50 t-69.5 18.5q-37 0 -68.5 -18.5t-50 -50t-18.5 -69.5q0 -37 18.5 -68.5t50 -50t68.5 -18.5q38 0 69.5 18.5z" glyph-name="currency" horiz-adv-x="700" unicode="¤"/>
<glyph d="M134 84h117v100h-200v66h181v42l-19 28h-162v66h116l-107 209h-77v105h386v-105h-93l125 -238l127 238h-94v105h284v-105h-78l-107 -209h117v-66h-162l-19 -30v-40h181v-66h-200v-100h117v-84h-433v84z" glyph-name="yen" horiz-adv-x="700" unicode="¥"/>
<glyph d="M120 800h95v-380h-95v380zM120 280h95v-380h-95v380z" glyph-name="brokenbar" horiz-adv-x="335" unicode="¦"/>
<glyph d="M224.5 -78q-57.5 22 -94.5 65.5t-44 105.5h111q7 -45 48.5 -73.5t94.5 -28.5q37 0 63.5 10.5t26.5 30.5q0 23 -25 36t-96 35q-71 17 -121.5 37.5t-84.5 56.5t-35 91q0 48 27.5 82t74.5 54q-66 51 -67 127q0 58 34.5 95.5t88.5 54.5t114 17q101 0 170.5 -47.5t79.5 -140.5 h-110q-10 45 -48 70t-88 25q-33 0 -55.5 -10.5t-22.5 -33.5q0 -20 25 -32t88 -31l20 -6q106 -25 170 -64t64 -114q0 -48 -26 -83.5t-72 -57.5q68 -50 68 -122q0 -55 -35 -93.5t-93 -58t-126 -19.5q-67 0 -124.5 22zM468 249q11 11 11 27q0 32 -38.5 50t-113.5 39 q-45 11 -66 19q-17 -4 -28 -15t-11 -28q0 -32 42 -51t120 -41q33 -9 57 -17q16 6 27 17z" glyph-name="section" horiz-adv-x="700" unicode="§"/>
<glyph d="M225 33q-84 48 -132 132t-48 185t48 185t132 132t185 48t185 -48t132 -132t48 -185t-48 -185t-132 -132t-185 -48t-185 48zM570 76.5q72 41.5 113.5 113.5t41.5 160t-41.5 160t-113.5 113.5t-160 41.5t-160 -41.5t-113.5 -113.5t-41.5 -160t41.5 -160t113.5 -113.5 t160 -41.5t160 41.5zM407 144q-62 0 -111.5 27t-77.5 74.5t-28 106.5q0 60 28 107.5t77.5 74t111.5 26.5q45 0 107 -16v30h72v-192h-77v6q-2 20 -18.5 43.5t-38.5 39t-40 15.5q-35 0 -55 -34t-20 -100q0 -65 20 -99t55 -34q20 0 43.5 15.5t41 38t20.5 43.5v7h77v-192h-73v30 q-66 -17 -114 -17z" glyph-name="copyright" horiz-adv-x="820" unicode="©"/>
<glyph d="M172 300l109 -200h-115l-106 194v12l106 194h115zM402 300l109 -200h-115l-106 194v12l106 194h115z" glyph-name="guillemotleft" horiz-adv-x="571" unicode="«"/>
<glyph d="M490 398v-258h-95v163h-325v95h420z" glyph-name="logicalnot" unicode="¬"/>
<glyph d="M138.5 378.5q-41.5 23.5 -65 65t-23.5 91.5t23.5 91.5t65 65t91.5 23.5t91.5 -23.5t65 -65t23.5 -91.5t-23.5 -91.5t-65 -65t-91.5 -23.5t-91.5 23.5zM311 397q37 22 58 59t21 79q0 45 -21 81.5t-57.5 57.5t-81.5 21t-81.5 -21t-57.5 -57.5t-21 -81.5t21 -81.5 t57.5 -57.5t81.5 -21q44 0 81 22zM152 474v131h-27v37h114q38 0 60 -15.5t22 -42.5q0 -15 -9.5 -27.5t-25.5 -19.5l40 -63h15v-36h-98v36h12l-32 53h-11v-53h18v-36h-105v36h27zM252 560.5q7 7.5 7 20.5q0 12 -7 18.5t-20 6.5h-20v-53h20q13 0 20 7.5z" glyph-name="registered" horiz-adv-x="460" unicode="®"/>
<glyph d="M102.5 453.5q-32.5 18.5 -51 51t-18.5 70.5t18.5 70.5t51 51t70.5 18.5t70.5 -18.5t51 -51t18.5 -70.5t-18.5 -70.5t-51 -51t-70.5 -18.5t-70.5 18.5zM226 522q22 22 22 53t-22 53t-53 22t-53 -21.5t-22 -53.5q0 -31 22 -53t53 -22t53 22z" glyph-name="degree" horiz-adv-x="345" unicode="°"/>
<glyph d="M328 473h162v-95h-162v-163h-95v163h-163v95h163v162h95v-162zM70 55v95h420v-95h-420z" glyph-name="plusminus" unicode="±"/>
<glyph d="M290 -95v395h-9q-62 0 -112.5 26.5t-79.5 72t-29 101.5t29 101.5t79.5 72t112.5 26.5h309v-105h-90v-690h90v-105h-418v105h118z" glyph-name="paragraph" horiz-adv-x="623" unicode="¶"/>
<glyph d="M81 214q-36 36 -36 89t36 89t89 36t89 -36t36 -89t-36 -89t-89 -36t-89 36z" glyph-name="periodcentered" horiz-adv-x="340" unicode="·"/>
<glyph d="M399 300l-109 200h115l106 -194v-12l-106 -194h-115zM169 300l-109 200h115l106 -194v-12l-106 -194h-115z" glyph-name="guillemotright" horiz-adv-x="571" unicode="»"/>
<glyph d="M388 476q36 -36 36 -89t-36 -89t-89 -36t-89 36t-36 89t36 89t89 36t89 -36zM368 177q0 -42 -21 -72.5t-64 -58.5q-29 -20 -41.5 -42t-12.5 -49q0 -31 18 -52t48 -21q31 0 60.5 23t51 61t29.5 81l2 11h99v-301h-98v61q-38 -15 -76 -24t-88 -9q-65 0 -121 20t-90.5 59 t-34.5 94t37 93.5t112 70.5q45 21 66.5 42t21.5 59h95q7 -24 7 -46z" glyph-name="questiondown" horiz-adv-x="584" unicode="¿"/>
<glyph d="M-32 105h82l159 444l-15 46h-77v105h373l186 -595h82v-105h-405v105h101l-40 130h-205l-46 -130h122v-105h-317v105zM392 315l-67 217h-15l-77 -217h159zM298 765l-145 180h192l48 -180h-95z" glyph-name="Agrave" horiz-adv-x="736" unicode="À"/>
<glyph d="M-32 105h82l159 444l-15 46h-77v105h373l186 -595h82v-105h-405v105h101l-40 130h-205l-46 -130h122v-105h-317v105zM392 315l-67 217h-15l-77 -217h159zM356 945h192l-145 -180h-95z" glyph-name="Aacute" horiz-adv-x="736" unicode="Á"/>
<glyph d="M-32 105h82l159 444l-15 46h-77v105h373l186 -595h82v-105h-405v105h101l-40 130h-205l-46 -130h122v-105h-317v105zM392 315l-67 217h-15l-77 -217h159zM357 785l-54 78l-55 -78h-107l114 160h191l114 -160h-203z" glyph-name="Acircumflex" horiz-adv-x="736" unicode="Â"/>
<glyph d="M-32 105h82l159 444l-15 46h-77v105h373l186 -595h82v-105h-405v105h101l-40 130h-205l-46 -130h122v-105h-317v105zM392 315l-67 217h-15l-77 -217h159zM186 910.5q32 42.5 88 42.5q27 0 50.5 -6.5t52.5 -17.5q15 -6 29.5 -10.5t25.5 -4.5q30 0 30 35h84 q0 -84 -31.5 -126.5t-87.5 -42.5q-27 0 -50.5 6t-53.5 18q-15 6 -29 10.5t-25 4.5q-30 0 -30 -35h-85q0 84 32 126.5z" glyph-name="Atilde" horiz-adv-x="736" unicode="Ã"/>
<glyph d="M-32 105h82l159 444l-15 46h-77v105h373l186 -595h82v-105h-405v105h101l-40 130h-205l-46 -130h122v-105h-317v105zM392 315l-67 217h-15l-77 -217h159zM546 945l-99 -200h-9l-87 177l-88 -177h-9l-99 200h391z" glyph-name="Adieresis" horiz-adv-x="736" unicode="Ä"/>
<glyph d="M-32 105h82l159 444l-15 46h-77v105h373l186 -595h82v-105h-405v105h101l-40 130h-205l-46 -130h122v-105h-317v105zM392 315l-67 217h-15l-77 -217h159zM277 759.5q-33 19.5 -52.5 53t-19.5 72.5t19.5 72.5t52.5 53t73 19.5q39 0 72.5 -19.5t53 -53t19.5 -72.5 t-19.5 -72.5t-53 -53t-72.5 -19.5q-40 0 -73 19.5zM410.5 866q17.5 6 17.5 19t-17.5 19t-60.5 6t-60 -6t-17 -19t17 -19t60 -6t60.5 6z" glyph-name="Aring" horiz-adv-x="736" unicode="Å"/>
<glyph d="M353 0v105h101l-40 130h-205l-46 -130h122v-105h-317v105h82l159 444l-15 46h-77v105h716v55h105v-327h-103v65q0 23 -16.5 47.5t-53.5 41t-95 16.5h-160l63 -198h75q25 0 40.5 17t15.5 38v10h58v-230h-58v10q0 21 -15.5 38t-40.5 17h-46l63 -197h81q22 0 49 20t46 48.5 t19 51.5v65h106v-348h-105v60h-508zM392 315l-67 217h-15l-77 -217h159z" glyph-name="AE" horiz-adv-x="989" unicode="Æ"/>
<glyph d="M203 33q-81 46 -127 128.5t-46 188.5t46 188.5t127 128.5t182 46q30 0 56.5 -4t70.5 -13q11 -3 21 -4.5t19 -3.5v55h105v-325h-107v4q-4 42 -30 84.5t-63.5 70t-72.5 27.5q-62 0 -98 -64.5t-36 -189.5q0 -126 36.5 -189.5t98.5 -63.5q37 0 77 30t67.5 76t31.5 91v4h107 l1 -338h-105l-1 53l-39 -8q-45 -9 -75.5 -13.5t-63.5 -4.5q-101 0 -182 46zM198 -245l145 180h95l-48 -180h-192z" glyph-name="Ccedilla" horiz-adv-x="718" unicode="Ç"/>
<glyph d="M15 0v105h90v490h-90v105h514v55h105v-327h-104v65q0 21 -17.5 46t-46 42t-60.5 17h-100v-198h29q25 0 40.5 17t15.5 38v10h66v-230h-66v10q0 21 -15.5 38t-40.5 17h-29v-197h103q38 0 72 19.5t54.5 48t20.5 52.5v65h106v-348h-105v60h-542zM283 765l-145 180h192 l48 -180h-95z" glyph-name="Egrave" horiz-adv-x="684" unicode="È"/>
<glyph d="M15 0v105h90v490h-90v105h514v55h105v-327h-104v65q0 21 -17.5 46t-46 42t-60.5 17h-100v-198h29q25 0 40.5 17t15.5 38v10h66v-230h-66v10q0 21 -15.5 38t-40.5 17h-29v-197h103q38 0 72 19.5t54.5 48t20.5 52.5v65h106v-348h-105v60h-542zM341 945h192l-145 -180h-95z " glyph-name="Eacute" horiz-adv-x="684" unicode="É"/>
<glyph d="M15 0v105h90v490h-90v105h514v55h105v-327h-104v65q0 21 -17.5 46t-46 42t-60.5 17h-100v-198h29q25 0 40.5 17t15.5 38v10h66v-230h-66v10q0 21 -15.5 38t-40.5 17h-29v-197h103q38 0 72 19.5t54.5 48t20.5 52.5v65h106v-348h-105v60h-542zM342 785l-54 78l-55 -78h-107 l114 160h191l114 -160h-203z" glyph-name="Ecircumflex" horiz-adv-x="684" unicode="Ê"/>
<glyph d="M15 0v105h90v490h-90v105h514v55h105v-327h-104v65q0 21 -17.5 46t-46 42t-60.5 17h-100v-198h29q25 0 40.5 17t15.5 38v10h66v-230h-66v10q0 21 -15.5 38t-40.5 17h-29v-197h103q38 0 72 19.5t54.5 48t20.5 52.5v65h106v-348h-105v60h-542zM531 945l-99 -200h-9l-87 177 l-88 -177h-9l-99 200h391z" glyph-name="Edieresis" horiz-adv-x="684" unicode="Ë"/>
<glyph d="M15 105h90v490h-90v105h385v-105h-90v-490h90v-105h-385v105zM155 765l-145 180h192l48 -180h-95z" glyph-name="Igrave" horiz-adv-x="415" unicode="Ì"/>
<glyph d="M15 105h90v490h-90v105h385v-105h-90v-490h90v-105h-385v105zM213 945h192l-145 -180h-95z" glyph-name="Iacute" horiz-adv-x="415" unicode="Í"/>
<glyph d="M15 105h90v490h-90v105h385v-105h-90v-490h90v-105h-385v105zM214 785l-54 78l-55 -78h-107l114 160h191l114 -160h-203z" glyph-name="Icircumflex" horiz-adv-x="415" unicode="Î"/>
<glyph d="M15 105h90v490h-90v105h385v-105h-90v-490h90v-105h-385v105zM403 945l-99 -200h-9l-87 177l-88 -177h-9l-99 200h391z" glyph-name="Idieresis" horiz-adv-x="415" unicode="Ï"/>
<glyph d="M105 105v205h-80v80h80v205h-90v105h322q118 0 208 -43.5t139.5 -123t49.5 -183.5q0 -103 -49.5 -182.5t-139.5 -123.5t-208 -44h-322v105h90zM472.5 165.5q41.5 60.5 41.5 184.5q0 125 -41.5 185t-127.5 60h-35v-205h95v-80h-95v-205h35q86 0 127.5 60.5z" glyph-name="Eth" horiz-adv-x="764" unicode="Ð"/>
<glyph d="M211 493v-388h123v-105h-319v105h90v447l-35 43h-75v105h323l268 -382v277h-92v105h280v-105h-82v-619h-109zM229 910.5q32 42.5 88 42.5q27 0 50.5 -6.5t52.5 -17.5q15 -6 29.5 -10.5t25.5 -4.5q30 0 30 35h84q0 -84 -31.5 -126.5t-87.5 -42.5q-27 0 -50.5 6t-53.5 18 q-15 6 -29 10.5t-25 4.5q-30 0 -30 -35h-85q0 84 32 126.5z" glyph-name="Ntilde" horiz-adv-x="786" unicode="Ñ"/>
<glyph d="M208.5 32q-83.5 47 -131 130t-47.5 188t47.5 188t131 130t189.5 47t189.5 -47t130.5 -130t47 -188t-47 -188t-130.5 -130t-189.5 -47t-189.5 47zM505.5 165q37.5 63 37.5 185t-37.5 185.5t-107.5 63.5t-107.5 -63.5t-37.5 -185.5t37.5 -185t107.5 -63t107.5 63zM346 765 l-145 180h192l48 -180h-95z" glyph-name="Ograve" horiz-adv-x="795" unicode="Ò"/>
<glyph d="M208.5 32q-83.5 47 -131 130t-47.5 188t47.5 188t131 130t189.5 47t189.5 -47t130.5 -130t47 -188t-47 -188t-130.5 -130t-189.5 -47t-189.5 47zM505.5 165q37.5 63 37.5 185t-37.5 185.5t-107.5 63.5t-107.5 -63.5t-37.5 -185.5t37.5 -185t107.5 -63t107.5 63zM404 945 h192l-145 -180h-95z" glyph-name="Oacute" horiz-adv-x="795" unicode="Ó"/>
<glyph d="M208.5 32q-83.5 47 -131 130t-47.5 188t47.5 188t131 130t189.5 47t189.5 -47t130.5 -130t47 -188t-47 -188t-130.5 -130t-189.5 -47t-189.5 47zM505.5 165q37.5 63 37.5 185t-37.5 185.5t-107.5 63.5t-107.5 -63.5t-37.5 -185.5t37.5 -185t107.5 -63t107.5 63zM405 785 l-54 78l-55 -78h-107l114 160h191l114 -160h-203z" glyph-name="Ocircumflex" horiz-adv-x="795" unicode="Ô"/>
<glyph d="M208.5 32q-83.5 47 -131 130t-47.5 188t47.5 188t131 130t189.5 47t189.5 -47t130.5 -130t47 -188t-47 -188t-130.5 -130t-189.5 -47t-189.5 47zM505.5 165q37.5 63 37.5 185t-37.5 185.5t-107.5 63.5t-107.5 -63.5t-37.5 -185.5t37.5 -185t107.5 -63t107.5 63z M234 910.5q32 42.5 88 42.5q27 0 50.5 -6.5t52.5 -17.5q15 -6 29.5 -10.5t25.5 -4.5q30 0 30 35h84q0 -84 -31.5 -126.5t-87.5 -42.5q-27 0 -50.5 6t-53.5 18q-15 6 -29 10.5t-25 4.5q-30 0 -30 -35h-85q0 84 32 126.5z" glyph-name="Otilde" horiz-adv-x="795" unicode="Õ"/>
<glyph d="M208.5 32q-83.5 47 -131 130t-47.5 188t47.5 188t131 130t189.5 47t189.5 -47t130.5 -130t47 -188t-47 -188t-130.5 -130t-189.5 -47t-189.5 47zM505.5 165q37.5 63 37.5 185t-37.5 185.5t-107.5 63.5t-107.5 -63.5t-37.5 -185.5t37.5 -185t107.5 -63t107.5 63zM594 945 l-99 -200h-9l-87 177l-88 -177h-9l-99 200h391z" glyph-name="Odieresis" horiz-adv-x="795" unicode="Ö"/>
<glyph d="M77 214l136 136l-136 136l67 68l136 -136l136 136l68 -68l-136 -136l136 -136l-68 -67l-136 136l-136 -136z" glyph-name="multiply" unicode="×"/>
<glyph d="M198 43l-39 -43h-104l76 92q-49 49 -75 115t-26 143q0 105 47.5 188t131 130t189.5 47q113 0 200 -57l38 42h105l-76 -91q48 -49 74 -115t26 -144q0 -105 -47 -188t-130.5 -130t-189.5 -47q-114 0 -200 58zM448.5 582q-19.5 22 -50.5 22q-72 0 -111 -64.5t-39 -189.5 q0 -61 10 -105l220 268q-10 47 -29.5 69zM509 161.5q39 64.5 39 188.5q0 56 -11 105l-219 -268q10 -46 29 -68t51 -22q72 0 111 64.5z" glyph-name="Oslash" horiz-adv-x="795" unicode="Ø"/>
<glyph d="M237 20.5q-68 35.5 -105.5 100.5t-37.5 150v324h-86v105h383v-105h-90v-320q0 -86 36 -127.5t99 -41.5q38 0 68.5 22.5t47.5 62.5t17 91v313h-90v105h288v-105h-86v-317q0 -89 -36 -155t-101.5 -102t-151.5 -36q-87 0 -155 35.5zM366 765l-145 180h192l48 -180h-95z" glyph-name="Ugrave" horiz-adv-x="772" unicode="Ù"/>
<glyph d="M237 20.5q-68 35.5 -105.5 100.5t-37.5 150v324h-86v105h383v-105h-90v-320q0 -86 36 -127.5t99 -41.5q38 0 68.5 22.5t47.5 62.5t17 91v313h-90v105h288v-105h-86v-317q0 -89 -36 -155t-101.5 -102t-151.5 -36q-87 0 -155 35.5zM424 945h192l-145 -180h-95z" glyph-name="Uacute" horiz-adv-x="772" unicode="Ú"/>
<glyph d="M237 20.5q-68 35.5 -105.5 100.5t-37.5 150v324h-86v105h383v-105h-90v-320q0 -86 36 -127.5t99 -41.5q38 0 68.5 22.5t47.5 62.5t17 91v313h-90v105h288v-105h-86v-317q0 -89 -36 -155t-101.5 -102t-151.5 -36q-87 0 -155 35.5zM425 785l-54 78l-55 -78h-107l114 160 h191l114 -160h-203z" glyph-name="Ucircumflex" horiz-adv-x="772" unicode="Û"/>
<glyph d="M237 20.5q-68 35.5 -105.5 100.5t-37.5 150v324h-86v105h383v-105h-90v-320q0 -86 36 -127.5t99 -41.5q38 0 68.5 22.5t47.5 62.5t17 91v313h-90v105h288v-105h-86v-317q0 -89 -36 -155t-101.5 -102t-151.5 -36q-87 0 -155 35.5zM614 945l-99 -200h-9l-87 177l-88 -177 h-9l-99 200h391z" glyph-name="Udieresis" horiz-adv-x="772" unicode="Ü"/>
<glyph d="M132 105h124v160l-202 330h-82v105h407v-105h-97l130 -238l132 238h-97v105h303v-105h-82l-202 -331v-159h124v-105h-458v105zM381 945h192l-145 -180h-95z" glyph-name="Yacute" horiz-adv-x="720" unicode="Ý"/>
<glyph d="M105 105v490h-90v105h423v-86h-128v-86h111q119 0 186 -47t67 -131q0 -83 -67.5 -130.5t-185.5 -47.5h-111v-86h128v-86h-423v105h90zM444 264.5q20 28.5 20 80.5t-20 80.5t-56 28.5h-78v-218h78q36 0 56 28.5z" glyph-name="Thorn" horiz-adv-x="709" unicode="Þ"/>
<glyph d="M100 -105v510h-97v95h97v14q0 106 61 166t165 60q102 0 219 -46v41h89v-356h-54q-5 16 -33 31t-55 15q-17 0 -30.5 -8t-13.5 -21q0 -19 25.5 -34.5t91.5 -36.5q106 -33 150 -73.5t44 -105.5q0 -50 -24.5 -86t-65 -54.5t-87.5 -18.5q-31 0 -80 7.5t-86 17.5v-40h-82v227 h78v-8q5 -27 32 -55.5t67.5 -47.5t81.5 -19q21 0 34.5 9t13.5 26q0 15 -16.5 26.5t-71.5 29.5q-78 25 -124 49t-70 59.5t-24 89.5q0 68 46.5 105.5t124.5 44.5q14 0 30 -4v8q0 19 -43 47.5t-100.5 50t-97.5 21.5q-36 0 -55.5 -12.5t-19.5 -38.5q0 -14 4.5 -25.5t13.5 -29.5 q16 -33 25.5 -65t9.5 -87v-483h125v-90h-395v95h97z" glyph-name="germandbls" horiz-adv-x="777" unicode="ß"/>
<glyph d="M54 27.5q-43 37.5 -43 100.5q0 132 210 149q73 6 103 24t30 58q0 37 -14 53t-42 16t-60 -19t-55.5 -47t-26.5 -53v-8h-89v232h88v-43l36 6q37 7 62.5 10.5t54.5 3.5q102 0 159 -54t57 -151v-210h64v-95h-229v77q-56 -87 -184 -87q-78 0 -121 37.5zM300 101q26 17 42 48 t16 70v53q-29 -31 -82 -40q-83 -14 -83 -83q0 -29 15.5 -47t39.5 -18q26 0 52 17zM230 565l-145 180h192l48 -180h-95z" glyph-name="agrave" horiz-adv-x="600" unicode="à"/>
<glyph d="M54 27.5q-43 37.5 -43 100.5q0 132 210 149q73 6 103 24t30 58q0 37 -14 53t-42 16t-60 -19t-55.5 -47t-26.5 -53v-8h-89v232h88v-43l36 6q37 7 62.5 10.5t54.5 3.5q102 0 159 -54t57 -151v-210h64v-95h-229v77q-56 -87 -184 -87q-78 0 -121 37.5zM300 101q26 17 42 48 t16 70v53q-29 -31 -82 -40q-83 -14 -83 -83q0 -29 15.5 -47t39.5 -18q26 0 52 17zM288 745h192l-145 -180h-95z" glyph-name="aacute" horiz-adv-x="600" unicode="á"/>
<glyph d="M54 27.5q-43 37.5 -43 100.5q0 132 210 149q73 6 103 24t30 58q0 37 -14 53t-42 16t-60 -19t-55.5 -47t-26.5 -53v-8h-89v232h88v-43l36 6q37 7 62.5 10.5t54.5 3.5q102 0 159 -54t57 -151v-210h64v-95h-229v77q-56 -87 -184 -87q-78 0 -121 37.5zM300 101q26 17 42 48 t16 70v53q-29 -31 -82 -40q-83 -14 -83 -83q0 -29 15.5 -47t39.5 -18q26 0 52 17zM289 585l-54 78l-55 -78h-107l114 160h191l114 -160h-203z" glyph-name="acircumflex" horiz-adv-x="600" unicode="â"/>
<glyph d="M54 27.5q-43 37.5 -43 100.5q0 132 210 149q73 6 103 24t30 58q0 37 -14 53t-42 16t-60 -19t-55.5 -47t-26.5 -53v-8h-89v232h88v-43l36 6q37 7 62.5 10.5t54.5 3.5q102 0 159 -54t57 -151v-210h64v-95h-229v77q-56 -87 -184 -87q-78 0 -121 37.5zM300 101q26 17 42 48 t16 70v53q-29 -31 -82 -40q-83 -14 -83 -83q0 -29 15.5 -47t39.5 -18q26 0 52 17zM118 710.5q32 42.5 88 42.5q27 0 50.5 -6.5t52.5 -17.5q15 -6 29.5 -10.5t25.5 -4.5q30 0 30 35h84q0 -84 -31.5 -126.5t-87.5 -42.5q-27 0 -50.5 6t-53.5 18q-15 6 -29 10.5t-25 4.5 q-30 0 -30 -35h-85q0 84 32 126.5z" glyph-name="atilde" horiz-adv-x="600" unicode="ã"/>
<glyph d="M54 27.5q-43 37.5 -43 100.5q0 132 210 149q73 6 103 24t30 58q0 37 -14 53t-42 16t-60 -19t-55.5 -47t-26.5 -53v-8h-89v232h88v-43l36 6q37 7 62.5 10.5t54.5 3.5q102 0 159 -54t57 -151v-210h64v-95h-229v77q-56 -87 -184 -87q-78 0 -121 37.5zM300 101q26 17 42 48 t16 70v53q-29 -31 -82 -40q-83 -14 -83 -83q0 -29 15.5 -47t39.5 -18q26 0 52 17zM478 745l-99 -200h-9l-87 177l-88 -177h-9l-99 200h391z" glyph-name="adieresis" horiz-adv-x="600" unicode="ä"/>
<glyph d="M54 27.5q-43 37.5 -43 100.5q0 132 210 149q73 6 103 24t30 58q0 37 -14 53t-42 16t-60 -19t-55.5 -47t-26.5 -53v-8h-89v232h88v-43l36 6q37 7 62.5 10.5t54.5 3.5q102 0 159 -54t57 -151v-210h64v-95h-229v77q-56 -87 -184 -87q-78 0 -121 37.5zM300 101q26 17 42 48 t16 70v53q-29 -31 -82 -40q-83 -14 -83 -83q0 -29 15.5 -47t39.5 -18q26 0 52 17zM209 559.5q-33 19.5 -52.5 53t-19.5 72.5t19.5 72.5t52.5 53t73 19.5q39 0 72.5 -19.5t53 -53t19.5 -72.5t-19.5 -72.5t-53 -53t-72.5 -19.5q-40 0 -73 19.5zM342.5 666q17.5 6 17.5 19 t-17.5 19t-60.5 6t-60 -6t-17 -19t17 -19t60 -6t60.5 6z" glyph-name="aring" horiz-adv-x="600" unicode="å"/>
<glyph d="M616 -10q-70 0 -126 29.5t-88 81.5q-28 -56 -83.5 -83.5t-115.5 -27.5q-95 0 -143.5 37t-48.5 101q0 132 210 149q73 6 103 24t30 58q0 37 -14 53t-42 16t-60 -19t-55.5 -47t-26.5 -53v-8h-89v232h88v-43l36 6q37 7 62.5 10.5t54.5 3.5q95 0 149 -51q66 51 164 51 q79 0 138.5 -32.5t92 -91.5t32.5 -135q0 -20 -2 -30h-355q6 -73 31 -112t64 -39q21 0 48.5 16.5t49 40t25.5 41.5v6h101v-207h-89v45q-81 -22 -141 -22zM618 429q-38 0 -61 -37.5t-29 -110.5h177q-13 148 -87 148zM299.5 98.5q25.5 14.5 42 39.5t16.5 57v77q-29 -31 -82 -40 q-83 -14 -83 -83q0 -29 15.5 -47t39.5 -18q26 0 51.5 14.5z" glyph-name="ae" horiz-adv-x="916" unicode="æ"/>
<glyph d="M299 -10q-78 0 -139.5 33.5t-96.5 92.5t-35 134t35 134t96.5 92.5t139.5 33.5q57 0 135 -20v43h89l-1 -246h-93v8q-3 26 -23.5 55.5t-49 49t-51.5 19.5q-44 0 -69 -43.5t-25 -125.5t25 -125t69 -43q25 0 55 19.5t52.5 48.5t26.5 55v8h93v-246h-88v44q-79 -21 -145 -21z M133 -245l145 180h95l-48 -180h-192z" glyph-name="ccedilla" horiz-adv-x="584" unicode="ç"/>
<glyph d="M296 -10q-77 0 -138 32t-95.5 90t-34.5 134q0 78 34.5 138t96.5 93t142 33t140.5 -32.5t93.5 -91t34 -135.5q0 -20 -2 -30h-360q6 -73 31 -112t64 -39q23 0 51.5 16.5t50.5 40t26 41.5v6h101v-207h-89v45q-81 -22 -146 -22zM298 429q-38 0 -61 -37.5t-29 -110.5h182 q-13 148 -92 148zM244 565l-145 180h192l48 -180h-95z" glyph-name="egrave" horiz-adv-x="601" unicode="è"/>
<glyph d="M296 -10q-77 0 -138 32t-95.5 90t-34.5 134q0 78 34.5 138t96.5 93t142 33t140.5 -32.5t93.5 -91t34 -135.5q0 -20 -2 -30h-360q6 -73 31 -112t64 -39q23 0 51.5 16.5t50.5 40t26 41.5v6h101v-207h-89v45q-81 -22 -146 -22zM298 429q-38 0 -61 -37.5t-29 -110.5h182 q-13 148 -92 148zM302 745h192l-145 -180h-95z" glyph-name="eacute" horiz-adv-x="601" unicode="é"/>
<glyph d="M296 -10q-77 0 -138 32t-95.5 90t-34.5 134q0 78 34.5 138t96.5 93t142 33t140.5 -32.5t93.5 -91t34 -135.5q0 -20 -2 -30h-360q6 -73 31 -112t64 -39q23 0 51.5 16.5t50.5 40t26 41.5v6h101v-207h-89v45q-81 -22 -146 -22zM298 429q-38 0 -61 -37.5t-29 -110.5h182 q-13 148 -92 148zM303 585l-54 78l-55 -78h-107l114 160h191l114 -160h-203z" glyph-name="ecircumflex" horiz-adv-x="601" unicode="ê"/>
<glyph d="M296 -10q-77 0 -138 32t-95.5 90t-34.5 134q0 78 34.5 138t96.5 93t142 33t140.5 -32.5t93.5 -91t34 -135.5q0 -20 -2 -30h-360q6 -73 31 -112t64 -39q23 0 51.5 16.5t50.5 40t26 41.5v6h101v-207h-89v45q-81 -22 -146 -22zM298 429q-38 0 -61 -37.5t-29 -110.5h182 q-13 148 -92 148zM492 745l-99 -200h-9l-87 177l-88 -177h-9l-99 200h391z" glyph-name="edieresis" horiz-adv-x="601" unicode="ë"/>
<glyph d="M13 95h77v310h-77v95h250v-405h77v-95h-327v95zM114 565l-145 180h192l48 -180h-95z" glyph-name="igrave" horiz-adv-x="353" unicode="ì"/>
<glyph d="M13 95h77v310h-77v95h250v-405h77v-95h-327v95zM172 745h192l-145 -180h-95z" glyph-name="iacute" horiz-adv-x="353" unicode="í"/>
<glyph d="M13 95h77v310h-77v95h250v-405h77v-95h-327v95zM173 585l-54 78l-55 -78h-107l114 160h191l114 -160h-203z" glyph-name="icircumflex" horiz-adv-x="353" unicode="î"/>
<glyph d="M13 95h77v310h-77v95h250v-405h77v-95h-327v95zM362 745l-99 -200h-9l-87 177l-88 -177h-9l-99 200h391z" glyph-name="idieresis" horiz-adv-x="353" unicode="ï"/>
<glyph d="M565 385q33 -60 33 -135t-36 -134.5t-101 -92.5t-149 -33q-82 0 -147 33t-101 91.5t-36 133.5q0 74 35.5 132.5t99 91.5t144.5 33q25 0 46 -3q-18 28 -28 41l-13 17h-172v70h120l-60 80h118l62 -80h148v-70h-94l25 -33q73 -82 106 -142zM379.5 127q23.5 42 23.5 123 t-23.5 123t-66.5 42t-66.5 -42t-23.5 -123t23.5 -123t66.5 -42t66.5 42z" glyph-name="eth" horiz-adv-x="625" unicode="ð"/>
<glyph d="M90 95v310h-77v95h241v-66q46 76 142 76q87 0 137.5 -59t50.5 -161v-195h66v-95h-302v95h62v182q0 63 -17.5 95.5t-50.5 32.5q-36 0 -57.5 -38.5t-21.5 -102.5v-169h60v-95h-310v95h77zM160 710.5q32 42.5 88 42.5q27 0 50.5 -6.5t52.5 -17.5q15 -6 29.5 -10.5t25.5 -4.5 q30 0 30 35h84q0 -84 -31.5 -126.5t-87.5 -42.5q-27 0 -50.5 6t-53.5 18q-15 6 -29 10.5t-25 4.5q-30 0 -30 -35h-85q0 84 32 126.5z" glyph-name="ntilde" horiz-adv-x="663" unicode="ñ"/>
<glyph d="M164.5 23q-64.5 33 -100.5 92t-36 135t36 135t101 92t148 33q84 0 148.5 -33t100.5 -92t36 -135q0 -75 -36.5 -134.5t-101.5 -92.5t-147 -33q-84 0 -148.5 33zM385.5 125q24.5 42 24.5 125t-24.5 125.5t-72.5 42.5t-73 -42.5t-25 -125.5t25 -125t73 -42t72.5 42zM261 565 l-145 180h192l48 -180h-95z" glyph-name="ograve" horiz-adv-x="625" unicode="ò"/>
<glyph d="M164.5 23q-64.5 33 -100.5 92t-36 135t36 135t101 92t148 33q84 0 148.5 -33t100.5 -92t36 -135q0 -75 -36.5 -134.5t-101.5 -92.5t-147 -33q-84 0 -148.5 33zM385.5 125q24.5 42 24.5 125t-24.5 125.5t-72.5 42.5t-73 -42.5t-25 -125.5t25 -125t73 -42t72.5 42zM319 745 h192l-145 -180h-95z" glyph-name="oacute" horiz-adv-x="625" unicode="ó"/>
<glyph d="M164.5 23q-64.5 33 -100.5 92t-36 135t36 135t101 92t148 33q84 0 148.5 -33t100.5 -92t36 -135q0 -75 -36.5 -134.5t-101.5 -92.5t-147 -33q-84 0 -148.5 33zM385.5 125q24.5 42 24.5 125t-24.5 125.5t-72.5 42.5t-73 -42.5t-25 -125.5t25 -125t73 -42t72.5 42zM320 585 l-54 78l-55 -78h-107l114 160h191l114 -160h-203z" glyph-name="ocircumflex" horiz-adv-x="625" unicode="ô"/>
<glyph d="M164.5 23q-64.5 33 -100.5 92t-36 135t36 135t101 92t148 33q84 0 148.5 -33t100.5 -92t36 -135q0 -75 -36.5 -134.5t-101.5 -92.5t-147 -33q-84 0 -148.5 33zM385.5 125q24.5 42 24.5 125t-24.5 125.5t-72.5 42.5t-73 -42.5t-25 -125.5t25 -125t73 -42t72.5 42z M149 710.5q32 42.5 88 42.5q27 0 50.5 -6.5t52.5 -17.5q15 -6 29.5 -10.5t25.5 -4.5q30 0 30 35h84q0 -84 -31.5 -126.5t-87.5 -42.5q-27 0 -50.5 6t-53.5 18q-15 6 -29 10.5t-25 4.5q-30 0 -30 -35h-85q0 84 32 126.5z" glyph-name="otilde" horiz-adv-x="625" unicode="õ"/>
<glyph d="M164.5 23q-64.5 33 -100.5 92t-36 135t36 135t101 92t148 33q84 0 148.5 -33t100.5 -92t36 -135q0 -75 -36.5 -134.5t-101.5 -92.5t-147 -33q-84 0 -148.5 33zM385.5 125q24.5 42 24.5 125t-24.5 125.5t-72.5 42.5t-73 -42.5t-25 -125.5t25 -125t73 -42t72.5 42zM509 745 l-99 -200h-9l-87 177l-88 -177h-9l-99 200h391z" glyph-name="odieresis" horiz-adv-x="625" unicode="ö"/>
<glyph d="M232.5 509.5q-19.5 19.5 -19.5 48.5t19.5 48t47.5 19q29 0 48.5 -19t19.5 -48t-19.5 -48.5t-48.5 -19.5q-28 0 -47.5 19.5zM59 398h442v-95h-442v95zM232.5 94.5q-19.5 19.5 -19.5 48.5t19.5 48t47.5 19q29 0 48.5 -19.5t19.5 -47.5t-19.5 -48t-48.5 -20 q-28 0 -47.5 19.5z" glyph-name="divide" unicode="÷"/>
<glyph d="M162 27l-25 -27h-94l60 68q-36 34 -55.5 80.5t-19.5 101.5q0 76 36 135t101 92t148 33q86 0 150 -36l25 26h95l-60 -67q36 -34 55.5 -81t19.5 -102q0 -75 -36.5 -134.5t-101.5 -92.5t-147 -33q-86 0 -151 37zM342 404.5q-13 15.5 -34 15.5q-48 0 -74 -43.5t-26 -126.5 q0 -31 3 -58l150 164q-6 33 -19 48.5zM391.5 123.5q26.5 43.5 26.5 126.5q0 35 -4 58l-149 -163q10 -65 52 -65q48 0 74.5 43.5z" glyph-name="oslash" horiz-adv-x="625" unicode="ø"/>
<glyph d="M129.5 49.5q-50.5 59.5 -50.5 161.5v194h-66v95h240v-276q0 -63 17.5 -96t50.5 -33q36 0 57.5 38.5t21.5 103.5v168h-82v95h332v-95h-77v-310h77v-95h-241v67q-45 -77 -142 -77q-87 0 -137.5 59.5zM269 565l-145 180h192l48 -180h-95z" glyph-name="ugrave" horiz-adv-x="663" unicode="ù"/>
<glyph d="M129.5 49.5q-50.5 59.5 -50.5 161.5v194h-66v95h240v-276q0 -63 17.5 -96t50.5 -33q36 0 57.5 38.5t21.5 103.5v168h-82v95h332v-95h-77v-310h77v-95h-241v67q-45 -77 -142 -77q-87 0 -137.5 59.5zM327 745h192l-145 -180h-95z" glyph-name="uacute" horiz-adv-x="663" unicode="ú"/>
<glyph d="M129.5 49.5q-50.5 59.5 -50.5 161.5v194h-66v95h240v-276q0 -63 17.5 -96t50.5 -33q36 0 57.5 38.5t21.5 103.5v168h-82v95h332v-95h-77v-310h77v-95h-241v67q-45 -77 -142 -77q-87 0 -137.5 59.5zM328 585l-54 78l-55 -78h-107l114 160h191l114 -160h-203z" glyph-name="ucircumflex" horiz-adv-x="663" unicode="û"/>
<glyph d="M129.5 49.5q-50.5 59.5 -50.5 161.5v194h-66v95h240v-276q0 -63 17.5 -96t50.5 -33q36 0 57.5 38.5t21.5 103.5v168h-82v95h332v-95h-77v-310h77v-95h-241v67q-45 -77 -142 -77q-87 0 -137.5 59.5zM517 745l-99 -200h-9l-87 177l-88 -177h-9l-99 200h391z" glyph-name="udieresis" horiz-adv-x="663" unicode="ü"/>
<glyph d="M124 65v-43q0 -28 20 -61t48.5 -55.5t51.5 -22.5q12 0 20 8t8 21v1q0 11 -9.5 33t-41.5 89l-15 31l-167 339h-60v95h317v-95h-59l83 -195q19 -46 28 -72q3 12 9 33l79 234h-83v95h248v-95h-68l-114 -295q-9 -28 -13.5 -50t-4.5 -49v-16q0 -98 -40.5 -151.5t-109.5 -53.5 q-32 0 -67 7.5t-58 19.5v-46h-90v294h88zM297 745h192l-145 -180h-95z" glyph-name="yacute" horiz-adv-x="573" unicode="ý"/>
<glyph d="M93 -105v710h-80v95h252v-258q47 68 137 68q66 0 117.5 -32t80.5 -91t29 -137q0 -77 -29.5 -136t-81 -91.5t-116.5 -32.5q-89 0 -137 68v-168h126v-90h-376v95h78zM418.5 130.5q23.5 38.5 23.5 119.5t-23.5 119.5t-64.5 38.5q-43 0 -70.5 -45t-27.5 -113t27.5 -113 t70.5 -45q41 0 64.5 38.5z" glyph-name="thorn" horiz-adv-x="657" unicode="þ"/>
<glyph d="M13 95h77v310h-77v95h250v-405h77v-95h-327v95z" glyph-name="dotlessi" horiz-adv-x="353" unicode="ı"/>
<glyph d="M19 -22v-7q0 -20 19 -42t44.5 -37t40.5 -15q16 0 25.5 9.5t9.5 24.5q0 17 -4.5 32t-14.5 40q-14 35 -21.5 64.5t-7.5 71.5v286h-99v95h272v-519q0 -88 -41 -139.5t-104 -51.5q-48 0 -116 22v-45h-89v211h86z" glyph-name="uni0237" horiz-adv-x="348" unicode="ȷ"/>
<glyph d="M-352 565l-145 180h192l48 -180h-95z" glyph-name="gravecomb" horiz-adv-x="0" unicode="̀"/>
<glyph d="M-294 745h192l-145 -180h-95z" glyph-name="acutecomb" horiz-adv-x="0" unicode="́"/>
<glyph d="M-293 585l-54 78l-55 -78h-107l114 160h191l114 -160h-203z" glyph-name="uni0302" horiz-adv-x="0" unicode="̂"/>
<glyph d="M-464 710.5q32 42.5 88 42.5q27 0 50.5 -6.5t52.5 -17.5q15 -6 29.5 -10.5t25.5 -4.5q30 0 30 35h84q0 -84 -31.5 -126.5t-87.5 -42.5q-27 0 -50.5 6t-53.5 18q-15 6 -29 10.5t-25 4.5q-30 0 -30 -35h-85q0 84 32 126.5z" glyph-name="tildecomb" horiz-adv-x="0" unicode="̃"/>
<glyph d="M-415 745h230l-110 -200h-10z" glyph-name="uni0307" horiz-adv-x="0" unicode="̇"/>
<glyph d="M-104 745l-99 -200h-9l-87 177l-88 -177h-9l-99 200h391z" glyph-name="uni0308" horiz-adv-x="0" unicode="̈"/>
<glyph d="M-373 559.5q-33 19.5 -52.5 53t-19.5 72.5t19.5 72.5t52.5 53t73 19.5q39 0 72.5 -19.5t53 -53t19.5 -72.5t-19.5 -72.5t-53 -53t-72.5 -19.5q-40 0 -73 19.5zM-239.5 666q17.5 6 17.5 19t-17.5 19t-60.5 6t-60 -6t-17 -19t17 -19t60 -6t60.5 6z" glyph-name="uni030A" horiz-adv-x="0" unicode="̊"/>
<glyph d="M-467 -245l145 180h95l-48 -180h-192z" glyph-name="uni0327" horiz-adv-x="0" unicode="̧"/>
<glyph d="M70 348h410v-95h-410v95z" glyph-name="endash" horiz-adv-x="540" unicode="–"/>
<glyph d="M172 350l109 -200h-115l-106 194v12l106 194h115zM402 350l109 -200h-115l-106 194v12l106 194h115z" glyph-name="guillemotleft.case" horiz-adv-x="571"/>
<glyph d="M399 350l-109 200h115l106 -194v-12l-106 -194h-115zM169 350l-109 200h115l106 -194v-12l-106 -194h-115z" glyph-name="guillemotright.case" horiz-adv-x="571"/>
<glyph d="M225 33q-84 48 -132 132t-48 185t48 185t132 132t185 48t185 -48t132 -132t48 -185q0 -109 -56 -198h-246v64q-45 -72 -149 -72q-64 0 -99 30.5t-35 82.5q0 108 171 120q59 5 83 20t25 47q0 54 -46 54q-23 0 -48.5 -14t-44 -36t-20.5 -44v-7h-64v188h63v-35q24 4 36 7 q6 1 32.5 5.5t53.5 4.5q84 0 131 -44t47 -123v-172h86q28 56 28 122q0 87 -41.5 158.5t-113 113t-158.5 41.5t-158.5 -41.5t-112.5 -113t-41 -158.5t41 -158.5t112.5 -112.5t158.5 -41q126 0 215 78l35 -39q-103 -92 -250 -92q-101 0 -185 48zM425 236q21 14 34 38.5 t13 56.5v41q-24 -25 -66 -32q-68 -12 -68 -66q0 -23 12.5 -37.5t32.5 -14.5q21 0 42 14z" glyph-name="at.case" horiz-adv-x="820"/>
</font>
</defs>
</svg>
