<?xml version="1.0" encoding="UTF-8"?>
<!DOCTYPE svg  PUBLIC '-//W3C//DTD SVG 1.1//EN'  'http://www.w3.org/Graphics/SVG/1.1/DTD/svg11.dtd'>
<svg version="1.1" xmlns="http://www.w3.org/2000/svg">
<defs>
<font id="KyivTypeSerif-Bold3" horiz-adv-x="820">
<font-face font-family="KyivType Serif Bold3" font-weight="700" ascent="800" bbox="-486 -261 1026 1029" cap-height="700" descent="-200" panose-1="0 0 8 0 0 0 0 0 0 0" underline-position="-100" underline-thickness="50" unicode-range="U+0020-2013" units-per-em="1000" x-height="500"/>
<missing-glyph/>
<glyph glyph-name="space" horiz-adv-x="250" unicode=" "/>
<glyph d="M115 680h-106v20h362v-20h-106l-23 -418h-104zM122.5 17.5q-27.5 27.5 -27.5 67.5t27.5 67.5t67.5 27.5q41 0 68 -27t27 -68t-27 -68t-68 -27q-40 0 -67.5 27.5z" glyph-name="exclam" horiz-adv-x="380" unicode="!"/>
<glyph d="M351 700l-77 -244h-10l-73 234l-74 -234h-10l-76 244h320z" glyph-name="quotedbl" horiz-adv-x="381" unicode='"'/>
<glyph d="M460 435v-169h150v-136h-150v-145h-20v145h-180v-145h-20v145h-150v136h150v169h-150v135h150v145h20v-145h180v145h20v-145h150v-135h-150zM440 435h-180v-169h180v169z" glyph-name="numbersign" horiz-adv-x="700" unicode="#"/>
<glyph d="M222 7q-57 16 -120 41v-103h-20l-1 347h19v-45q2 -55 57 -109.5t139.5 -89.5t168.5 -35q55 0 90 25.5t35 65.5q0 32 -25 56t-63 41t-105 41q-96 37 -155.5 67.5t-102.5 82.5t-43 128q0 58 29.5 102t84.5 68.5t131 24.5h10v115h20v-116q97 -6 215 -58v106h20v-323h-18v42 q0 40 -53 86.5t-131 78.5t-145 32q-51 0 -80.5 -23.5t-29.5 -61.5q0 -35 27.5 -61t68.5 -45.5t114 -46.5q94 -37 152.5 -67.5t100 -77t41.5 -111.5q0 -96 -64.5 -147.5t-181.5 -51.5h-36v-115h-20v116q-72 5 -129 21z" glyph-name="dollar" horiz-adv-x="700" unicode="$"/>
<glyph d="M119 406q-37 21 -58 58t-21 81t21 81t58 58t81 21t81 -21t58 -58t21 -81t-21 -81t-58 -58t-81 -21t-81 21zM580 700l-398 -700h-22l398 700h22zM257.5 442.5q21.5 37.5 21.5 102.5t-21.5 102.5t-57.5 37.5t-57.5 -37.5t-21.5 -102.5t21.5 -102.5t57.5 -37.5t57.5 37.5z M459 16q-37 21 -58 58t-21 81t21 81t58 58t81 21t81 -21t58 -58t21 -81t-21 -81t-58 -58t-81 -21t-81 21zM597.5 52.5q21.5 37.5 21.5 102.5t-21.5 102.5t-57.5 37.5t-57.5 -37.5t-21.5 -102.5t21.5 -102.5t57.5 -37.5t57.5 37.5z" glyph-name="percent" horiz-adv-x="734" unicode="%"/>
<glyph d="M157.5 11q-63.5 26 -97.5 73.5t-34 109.5q0 82 60 135.5t164 65.5h3l-201 290v15h510v70h20v-278h-18v61q0 29 -34 58.5t-80.5 49t-78.5 19.5h-144l356 -511q48 73 55 205h-100v20h277v-20h-63q-15 0 -30.5 -13.5t-35.5 -40.5q-44 -101 -93 -164l93 -136h84v-20h-242 l-39 52q-37 -33 -83.5 -50t-98.5 -17q-86 0 -149.5 26zM478 67l-214 312h-8q-48 -16 -76.5 -65.5t-28.5 -114.5q0 -84 41 -140.5t115 -56.5q100 0 171 65z" glyph-name="ampersand" horiz-adv-x="775" unicode="&amp;"/>
<glyph d="M194 700l-77 -244h-10l-76 244h163z" glyph-name="quotesingle" horiz-adv-x="224" unicode="'"/>
<glyph d="M246.5 -55.5q-68.5 59.5 -107 165t-38.5 240.5t38.5 240.5t107 165t155.5 59.5v-16q-80 0 -124.5 -118t-44.5 -331t44.5 -331t124.5 -118v-16q-87 0 -155.5 59.5z" glyph-name="parenleft" horiz-adv-x="500" unicode="("/>
<glyph d="M253.5 755.5q68.5 -59.5 107 -165t38.5 -240.5t-38.5 -240.5t-107 -165t-155.5 -59.5v16q80 0 124.5 118t44.5 331t-44.5 331t-124.5 118v16q87 0 155.5 -59.5z" glyph-name="parenright" horiz-adv-x="500" unicode=")"/>
<glyph d="M212 574h119l19 -69l-68 -20l-78 69l9 -100h-37l9 100l-77 -69l-69 20l19 69h119l-147 45v69l64 17l88 -105l-50 141l63 53l63 -53l-50 -141l88 105l64 -17v-69z" glyph-name="asterisk" horiz-adv-x="390" unicode="*"/>
<glyph d="M480 340h-190v-190h-20v190h-190v20h190v190h20v-190h190v-20z" glyph-name="plus" horiz-adv-x="560" unicode="+"/>
<glyph d="M100 -84q43 17 73.5 45t43.5 62q-32 -27 -66 -27q-39 0 -66.5 26t-27.5 65t27 66t69 27t68.5 -28t26.5 -74q0 -49 -27.5 -98t-65.5 -70h-55v6z" glyph-name="comma" horiz-adv-x="297" unicode=","/>
<glyph d="M80 324h240v-48h-240v48z" glyph-name="hyphen" horiz-adv-x="400" unicode="-"/>
<glyph d="M84.5 17.5q-27.5 27.5 -27.5 67.5q0 41 27.5 68t67.5 27q41 0 68 -27t27 -68q0 -40 -27 -67.5t-68 -27.5q-40 0 -67.5 27.5z" glyph-name="period" horiz-adv-x="304" unicode="."/>
<glyph d="M408 700l-338 -700h-20l338 700h20z" glyph-name="slash" horiz-adv-x="458" unicode="/"/>
<glyph d="M208 32q-71 47 -111 130.5t-40 187.5t40 187.5t111 130.5t160 47q88 0 159 -47t111.5 -130.5t40.5 -187.5t-40.5 -187.5t-111.5 -130.5t-159 -47q-89 0 -160 47zM452.5 45.5q36.5 43.5 56.5 122.5t20 182t-20 182t-57 123t-84 44q-48 0 -84.5 -44t-57 -123t-20.5 -182 t20.5 -182t57 -122.5t84.5 -43.5t84.5 43.5z" glyph-name="zero" horiz-adv-x="735" unicode="0"/>
<glyph d="M5 20h143v589l-138 -110v26l216 175h61v-680h124v-20h-406v20z" glyph-name="one" horiz-adv-x="404" unicode="1"/>
<glyph d="M40 0v16l275 202q68 50 108 114q-47 -34 -108 -34q-82 0 -146 26.5t-100 74t-36 107.5q0 61 36 108.5t100 74t146 26.5t146.5 -25.5t100.5 -72t36 -107.5q0 -55 -35.5 -104.5t-88.5 -92t-157 -116.5l-107 -78h282q76 0 76 50v86h18v-325h-20v70h-526zM425.5 363 q37.5 48 37.5 122q0 105 -40 160.5t-108 55.5q-65 0 -105.5 -53.5t-40.5 -141.5q0 -85 40.5 -138t105.5 -53q73 0 110.5 48z" glyph-name="two" horiz-adv-x="642" unicode="2"/>
<glyph d="M59 285v-30q0 -53 35.5 -112t89.5 -98.5t104 -39.5q60 0 93 50.5t33 133.5q0 84 -34.5 130.5t-86.5 46.5q-24 0 -47.5 -8.5t-41.5 -23.5l-13 -11l-14 16l255 241h-257q-37 0 -56 -3.5t-27.5 -15.5t-8.5 -36v-44h-19v289h20v-70h482v-19l-322 -306q44 19 94 19 q62 0 113.5 -23.5t81.5 -67t30 -100.5q0 -60 -32.5 -108.5t-95.5 -77.5t-150 -29q-48 0 -84.5 8.5t-86.5 26.5l-53 18v-83h-20v327h18z" glyph-name="three" horiz-adv-x="600" unicode="3"/>
<glyph d="M368 20v159h-370v16l402 505h107v-410h119q2 0 2 2v87h20v-262h-20v62h-121v-159h106v-20h-351v20h106zM368 290v339l-272 -339h272z" glyph-name="four" horiz-adv-x="664" unicode="4"/>
<glyph d="M73 225v-12q0 -38 37.5 -86.5t89.5 -83t91 -34.5q54 0 88.5 51t34.5 135q0 97 -40.5 150t-105.5 53q-54 0 -99 -23.5t-72 -70.5l-18 3l62 393h286q44 0 59.5 8t15.5 37v36h19v-280h-20v79h-360l-36 -235q31 37 80 58.5t113 21.5q77 0 138 -27t95.5 -76.5t34.5 -113.5 q0 -59 -30 -109t-91 -80.5t-150 -30.5q-122 0 -221 53v-83h-19v267h18z" glyph-name="five" horiz-adv-x="601" unicode="5"/>
<glyph d="M205 31q-70 46 -109 128t-39 186q0 107 39.5 191t107.5 131.5t152 47.5q63 0 116 -13.5t89 -32.5v73h20v-261h-18v12q0 37 -37 86t-86.5 84.5t-84.5 35.5q-42 0 -77 -43.5t-55 -123t-20 -182.5q0 -10 2 -30q21 65 73.5 101t130.5 36q66 0 118.5 -30.5t82 -83.5t29.5 -120 q0 -68 -35.5 -122.5t-98 -85t-141.5 -30.5q-89 0 -159 46zM437.5 28.5q31.5 26.5 49.5 74t18 109.5q0 64 -18 112.5t-50.5 75.5t-75.5 27q-59 0 -101 -47t-49 -119q4 -73 24 -132t53.5 -93t76.5 -34q41 0 72.5 26.5z" glyph-name="six" horiz-adv-x="671" unicode="6"/>
<glyph d="M176 20q0 7 2 17q25 140 103.5 283.5t191.5 259.5h-317q-54 0 -73 -10t-19 -45v-79h-20v324h20v-70h502v-18q-101 -123 -168 -290t-74 -351v-21h150v-20h-389v20h91z" glyph-name="seven" horiz-adv-x="562" unicode="7"/>
<glyph d="M192.5 9.5q-69.5 24.5 -109 68t-39.5 96.5q0 67 51 115t157 68q-52 9 -93 35.5t-64 62.5t-23 73q0 53 36 95.5t99 66.5t142 24t142 -24t99 -66.5t36 -95.5q0 -37 -23 -73t-64 -62.5t-93 -35.5q106 -20 157 -68t51 -115q0 -53 -39.5 -96.5t-109 -68t-156.5 -24.5 t-156.5 24.5zM456.5 408.5q40.5 46.5 40.5 121.5t-40.5 121t-107.5 46q-66 0 -107 -46t-41 -121t41 -121.5t107 -46.5q67 0 107.5 46.5zM462 49.5q43 47.5 43 124.5q0 76 -43 123.5t-113 47.5q-69 0 -112 -47.5t-43 -123.5q0 -77 43 -124.5t112 -47.5q70 0 113 47.5z" glyph-name="eight" horiz-adv-x="698" unicode="8"/>
<glyph d="M466 669q70 -46 109.5 -128t39.5 -186q0 -106 -39.5 -190.5t-108 -132t-152.5 -47.5q-63 0 -116 13.5t-88 32.5v-73h-20v261h18v-12q0 -37 36.5 -85.5t86.5 -84t85 -35.5q42 0 76.5 43.5t54.5 122.5t20 182q0 20 -2 30q-20 -65 -72.5 -101t-131.5 -36q-66 0 -118.5 30.5 t-82 83.5t-29.5 120q0 68 35.5 122.5t98.5 85t142 30.5q88 0 158 -46zM234 672.5q-32 -26.5 -50 -74.5t-18 -109q0 -64 18 -113t50.5 -76t75.5 -27q60 0 101.5 47t48.5 119q-4 73 -23.5 132.5t-53.5 93.5t-77 34q-40 0 -72 -26.5z" glyph-name="nine" horiz-adv-x="671" unicode="9"/>
<glyph d="M84.5 17.5q-27.5 27.5 -27.5 67.5q0 41 27.5 68t67.5 27q41 0 68 -27t27 -68q0 -40 -27 -67.5t-68 -27.5q-40 0 -67.5 27.5zM84.5 333.5q-27.5 27.5 -27.5 67.5q0 41 27.5 68t67.5 27q41 0 68 -27t27 -68q0 -40 -27 -67.5t-68 -27.5q-40 0 -67.5 27.5z" glyph-name="colon" horiz-adv-x="304" unicode=":"/>
<glyph d="M100 -84q43 17 73.5 45t43.5 62q-32 -27 -66 -27q-39 0 -66.5 26t-27.5 65t27 66t69 27t68.5 -28t26.5 -74q0 -49 -27.5 -98t-65.5 -70h-55v6zM84.5 333.5q-27.5 27.5 -27.5 67.5q0 41 27.5 68t67.5 27q41 0 68 -27t27 -68q0 -40 -27 -67.5t-68 -27.5q-40 0 -67.5 27.5z " glyph-name="semicolon" horiz-adv-x="305" unicode=";"/>
<glyph d="M480 527l-375 -177l375 -177v-23l-400 190v20l400 190v-23z" glyph-name="less" horiz-adv-x="560" unicode="&lt;"/>
<glyph d="M80 450h400v-20h-400v20zM80 270h400v-20h-400v20z" glyph-name="equal" horiz-adv-x="560" unicode="="/>
<glyph d="M80 173l375 177l-375 177v23l400 -190v-20l-400 -190v23z" glyph-name="greater" horiz-adv-x="560" unicode="&gt;"/>
<glyph d="M225 293q2 41 18 69t50 72q28 36 43.5 68.5t15.5 76.5q0 53 -26.5 86.5t-68.5 33.5q-33 0 -70 -30.5t-66 -79t-40 -99.5l-2 -30h-14l1 301h17v-98q48 27 83 39.5t91 12.5t107.5 -16.5t84.5 -52t33 -88.5q0 -36 -15.5 -62.5t-38 -44.5t-61.5 -43q-39 -24 -63 -43.5 t-40.5 -48.5t-16.5 -69h-15q-7 22 -7 46zM191.5 17.5q-27.5 27.5 -27.5 67.5q0 41 27.5 68t67.5 27q41 0 68 -27t27 -68q0 -40 -27 -67.5t-68 -27.5q-40 0 -67.5 27.5z" glyph-name="question" horiz-adv-x="536" unicode="?"/>
<glyph d="M225 -119q-84 48 -132 132t-48 185t48 185t132 132t185 48t185 -48t132 -132t48 -185q0 -112 -56 -198h-222v98q-18 -53 -62 -80t-107 -27t-97.5 29t-34.5 77q0 55 44.5 82.5t122.5 34.5q72 6 103 25t31 62q0 47 -20.5 72.5t-56.5 25.5q-28 0 -63.5 -20t-61 -51 t-25.5 -60v-21h-19v201h20v-55q19 3 51 11q58 13 91 13q86 0 135.5 -45.5t49.5 -125.5v-227h110q47 81 47 179q0 96 -45.5 175t-124.5 124.5t-175 45.5t-175 -45.5t-124.5 -124.5t-45.5 -175t45.5 -175t124.5 -124.5t175 -45.5q70 0 133 25.5t111 71.5l14 -13 q-50 -49 -116.5 -76.5t-141.5 -27.5q-101 0 -185 48zM435 42.5q28 19.5 45 54.5t17 81v66q-21 -31 -83 -41q-57 -8 -84 -32t-27 -67q0 -36 20 -58.5t52 -22.5t60 19.5z" glyph-name="at" unicode="@"/>
<glyph d="M-82 20h90l239 593l-21 67h-85v20h234l246 -680h91v-20h-385v20h138l-76 209h-274l-84 -209h159v-20h-272v20zM382 249l-124 334l-135 -334h259z" glyph-name="A" horiz-adv-x="643" unicode="A"/>
<glyph d="M119 20v660h-106v20h340q137 0 214.5 -47.5t77.5 -132.5q0 -61 -45 -103.5t-129 -60.5v-5q97 -14 150 -58t53 -113q0 -84 -76.5 -132t-210.5 -48h-374v20h106zM458.5 401.5q38.5 41.5 38.5 118.5t-38.5 118.5t-111.5 41.5h-75v-320h75q73 0 111.5 41.5zM480 61.5 q38 41.5 38 118.5q0 78 -38.5 119t-109.5 41h-98v-320h100q70 0 108 41.5z" glyph-name="B" horiz-adv-x="698" unicode="B"/>
<glyph d="M216 31.5q-80 46.5 -124.5 129.5t-44.5 189t44.5 189t124.5 129.5t181 46.5q38 0 73 -7.5t85 -23.5l44 -13v90h20v-315h-19v28q0 46 -33.5 98.5t-83 88t-94.5 35.5q-84 0 -133 -88t-49 -258q0 -172 49.5 -259t133.5 -87q50 0 105 39.5t91 98t36 112.5v31h18v-333h-20v82 l-37 -12q-63 -20 -102 -28.5t-84 -8.5q-101 0 -181 46.5z" glyph-name="C" horiz-adv-x="719" unicode="C"/>
<glyph d="M545.5 655.5q86.5 -44.5 134.5 -124t48 -181.5t-48 -181.5t-134.5 -124t-197.5 -44.5h-335v20h106v660h-106v20h335q111 0 197.5 -44.5zM511.5 103.5q56.5 83.5 56.5 246.5q0 164 -56.5 247t-163.5 83h-76v-660h76q107 0 163.5 83.5z" glyph-name="D" horiz-adv-x="774" unicode="D"/>
<glyph d="M13 0v20h106v660h-106v20h538v70h20v-298h-18v62q0 29 -24 63.5t-64 58.5t-85 24h-108v-320h86q35 0 56.5 24t21.5 54v45h14v-265h-14v44q0 30 -21.5 54t-56.5 24h-86v-320h125q53 0 100.5 27.5t76 67t28.5 72.5v62h18v-319h-20v70h-587z" glyph-name="E" horiz-adv-x="659" unicode="E"/>
<glyph d="M119 20v660h-106v20h546v70h20v-312h-18v62q0 32 -24 70t-64 64t-85 26h-116v-320h86q35 0 56.5 24t21.5 54v45h14v-265h-14v44q0 30 -21.5 54t-56.5 24h-86v-320h127v-20h-386v20h106z" glyph-name="F" horiz-adv-x="595" unicode="F"/>
<glyph d="M672 68q-9 11 -23 11q-21 -8 -57 -31q-50 -31 -91.5 -47t-104.5 -16q-101 0 -180.5 46.5t-124 129.5t-44.5 189t44.5 189t124.5 129.5t181 46.5q42 0 76.5 -7t93.5 -24q49 -14 45 -13v90h20v-315h-17v28q0 47 -33.5 99t-84.5 87.5t-101 35.5q-88 0 -138.5 -88t-50.5 -258 q0 -173 50.5 -260t138.5 -87q70 0 117 38.5t47 119.5v179h-155v20h395v-20h-99v-380h-20v77q0 20 -9 31z" glyph-name="G" horiz-adv-x="788" unicode="G"/>
<glyph d="M13 20h106v660h-106v20h365v-20h-106v-320h277v320h-106v20h365v-20h-106v-660h106v-20h-365v20h106v320h-277v-320h106v-20h-365v20z" glyph-name="H" unicode="H"/>
<glyph d="M13 20h106v660h-106v20h365v-20h-106v-660h106v-20h-365v20z" glyph-name="I" horiz-adv-x="390" unicode="I"/>
<glyph d="M38 285v-31q0 -50 29.5 -109.5t74 -100t85.5 -40.5t58 46.5t17 148.5v481h-159v20h418v-20h-106v-435q0 -83 -31.5 -141.5t-82.5 -88.5t-109 -30q-29 0 -55.5 5.5t-63.5 17.5q-46 14 -73 20v-89h-20v346h18z" glyph-name="J" horiz-adv-x="558" unicode="J"/>
<glyph d="M13 20h106v660h-106v20h365v-20h-106v-320h57l275 320h-137v20h268v-20h-104l-190 -220l291 -440h85v-20h-379v20h119l-221 320h-64v-320h106v-20h-365v20z" glyph-name="K" horiz-adv-x="742" unicode="K"/>
<glyph d="M13 0v20h106v660h-106v20h386v-20h-127v-660h119q53 0 100.5 28.5t76 70t28.5 75.5v90h18v-354h-20v70h-581z" glyph-name="L" horiz-adv-x="627" unicode="L"/>
<glyph d="M41 20h106v584l-39 76h-95v20h264l245 -498l201 498h258v-20h-106v-660h106v-20h-365v20h106v619h-1l-252 -639h-16l-285 573v-553h134v-20h-261v20z" glyph-name="M" horiz-adv-x="993" unicode="M"/>
<glyph d="M140 591v-571h148v-20h-275v20h106v598l-50 62h-86v20h262l384 -498v478h-128v20h255v-20h-106v-722h-16z" glyph-name="N" horiz-adv-x="767" unicode="N"/>
<glyph d="M222.5 31.5q-82.5 46.5 -129 129.5t-46.5 189t46.5 189t129 129.5t187.5 46.5t188 -46.5t129.5 -129.5t46.5 -189t-46.5 -189t-129.5 -129.5t-188 -46.5t-187.5 46.5zM561 92q53 88 53 258t-53 258t-151 88t-150.5 -87.5t-52.5 -258.5q0 -170 52.5 -258t150.5 -88t151 88 z" glyph-name="O" unicode="O"/>
<glyph d="M119 20v660h-106v20h333q136 0 213 -53t77 -147q0 -93 -77 -146.5t-213 -53.5h-74v-280h127v-20h-386v20h106zM444.5 367q38.5 47 38.5 133q0 87 -38.5 133.5t-109.5 46.5h-63v-360h63q71 0 109.5 47z" glyph-name="P" horiz-adv-x="666" unicode="P"/>
<glyph d="M341 -180v172q-87 14 -153.5 63t-103.5 125t-37 170q0 106 46.5 189t129 129.5t187.5 46.5t188 -46.5t129.5 -129.5t46.5 -189q0 -94 -37 -170t-103.5 -125t-153.5 -63v-172h123v-20h-386v20h124zM561 92q53 88 53 258t-53 258t-151 88t-150.5 -87.5t-52.5 -258.5 q0 -170 52.5 -258t150.5 -88t151 88z" glyph-name="Q" unicode="Q"/>
<glyph d="M119 20v660h-106v20h329q140 0 219.5 -50.5t79.5 -139.5q0 -54 -40.5 -94t-109.5 -61l210 -335h84v-20h-381v20h123l-190 304h-65v-304h85v-20h-344v20h106zM453 387.5q41 43.5 41 124.5t-41 124.5t-117 43.5h-64v-336h64q76 0 117 43.5z" glyph-name="R" horiz-adv-x="699" unicode="R"/>
<glyph d="M72 292v-45q1 -55 56.5 -109.5t140 -89.5t168.5 -35q54 0 89 25.5t35 65.5q0 32 -25 56t-63.5 41t-104.5 41q-96 37 -155.5 67.5t-102.5 82.5t-43 128q0 58 29.5 102t85 68.5t131.5 24.5q64 0 124.5 -17t120.5 -42v106h20v-323h-19v42q0 40 -53 86.5t-131 78.5t-145 32 q-50 0 -80 -23.5t-30 -61.5q0 -35 27.5 -61t68.5 -45.5t114 -46.5q94 -37 152.5 -67.5t100 -77t41.5 -111.5q0 -96 -64 -147.5t-182 -51.5q-90 0 -159.5 17t-145.5 46v-103h-20v347h19z" glyph-name="S" horiz-adv-x="659" unicode="S"/>
<glyph d="M282 20v660h-86q-29 0 -63.5 -26.5t-58.5 -65t-24 -70.5v-60h-18v312h20v-70h613v70h20v-312h-18v60q0 32 -24 70.5t-58.5 65t-63.5 26.5h-86v-660h127v-20h-407v20h127z" glyph-name="T" horiz-adv-x="717" unicode="T"/>
<glyph d="M236.5 20q-62.5 35 -96.5 100t-34 152v408h-106v20h374v-20h-115v-408q0 -252 187 -252q56 0 99 33t67 92.5t24 136.5v398h-115v20h241v-20h-106v-398q0 -140 -72.5 -218.5t-200.5 -78.5q-84 0 -146.5 35z" glyph-name="U" horiz-adv-x="758" unicode="U"/>
<glyph d="M18 680h-88v20h390v-20h-138l217 -572l215 572h-160v20h270v-20h-89l-254 -680h-108z" glyph-name="V" horiz-adv-x="652" unicode="V"/>
<glyph d="M22 680h-88v20h350v-20h-99l173 -560l112 330l-73 230h-69v20h367v-20h-133l180 -559l175 559h-122v20h231v-20h-88l-211 -680h-109l-138 419l-137 -419h-109z" glyph-name="W" horiz-adv-x="958" unicode="W"/>
<glyph d="M-76 20h121l216 315l-235 345h-92v20h402v-20h-135l179 -258l178 258h-133v20h252v-20h-96l-189 -275l261 -385h91v-20h-413v20h147l-206 299l-203 -299h165v-20h-310v20z" glyph-name="X" horiz-adv-x="647" unicode="X"/>
<glyph d="M111 20h127v261l-218 399h-92v20h397v-20h-141l201 -371l202 371h-141v20h256v-20h-93l-218 -402v-258h127v-20h-407v20z" glyph-name="Y" horiz-adv-x="625" unicode="Y"/>
<glyph d="M412 680h-163q-47 0 -88.5 -24t-66.5 -58.5t-25 -63.5v-62h-18v298h20v-70h514v-13l-393 -667h172q57 0 105.5 27.5t77.5 67t29 72.5v62h18v-319h-20v70h-556v13z" glyph-name="Z" horiz-adv-x="615" unicode="Z"/>
<glyph d="M132 800h286v-20h-161v-860h161v-20h-286v900z" glyph-name="bracketleft" horiz-adv-x="500" unicode="["/>
<glyph d="M70 700l338 -700h-20l-338 700h20z" glyph-name="backslash" horiz-adv-x="458" unicode="\"/>
<glyph d="M82 -100v20h161v860h-161v20h286v-900h-286z" glyph-name="bracketright" horiz-adv-x="500" unicode="]"/>
<glyph d="M270 700h20l167 -290h-23l-154 267l-154 -267h-23z" glyph-name="asciicircum" horiz-adv-x="560" unicode="^"/>
<glyph d="M30 20h380v-20h-380v20z" glyph-name="underscore" horiz-adv-x="440" unicode="_"/>
<glyph d="M64.5 24.5q-41.5 35.5 -41.5 92.5q0 126 203 144q88 8 127 31t39 74q0 65 -24.5 96.5t-69.5 31.5q-34 0 -79 -27.5t-77.5 -66.5t-32.5 -71v-27h-19v247h20v-68l57 12q42 9 67.5 13t54.5 4q104 0 162.5 -55.5t58.5 -153.5v-281h84v-20h-203v118q-23 -64 -76.5 -96.5 t-131.5 -32.5q-77 0 -118.5 35.5zM314.5 47q34.5 24 55.5 68t21 102v86q-26 -37 -102 -50q-71 -10 -104.5 -41t-33.5 -86q0 -47 25 -75t65 -28q39 0 73.5 24z" glyph-name="a" horiz-adv-x="602" unicode="a"/>
<glyph d="M297.5 21.5q-43.5 31.5 -66.5 89.5v-111h-128v680h-93v20h221v-311q23 59 66.5 90t105.5 31t112.5 -32.5t79.5 -91.5t29 -136t-29 -136t-79.5 -91.5t-112.5 -32.5t-105.5 31.5zM455 76.5q33 56.5 33 173.5t-33 173.5t-91 56.5q-40 0 -71.5 -30.5t-49.5 -83t-18 -116.5 t18 -116.5t49.5 -83t71.5 -30.5q58 0 91 56.5z" glyph-name="b" horiz-adv-x="668" unicode="b"/>
<glyph d="M317 -10q-79 0 -140.5 33.5t-96.5 92.5t-35 134q0 76 35 135t96.5 92t140.5 33q63 0 158 -29v73h20v-252h-19v27q0 32 -27 71.5t-65.5 66.5t-69.5 27q-63 0 -98.5 -62.5t-35.5 -181.5t35.5 -181t98.5 -62q35 0 77 27.5t72 67.5t32 75v28h18v-248h-20v65 q-100 -32 -176 -32z" glyph-name="c" horiz-adv-x="585" unicode="c"/>
<glyph d="M153 22.5q-50 32.5 -79 91.5t-29 136t29 136t79 91.5t112 32.5q63 0 106.5 -31t65.5 -90v291h-93v20h222v-680h93v-20h-222v111q-22 -58 -66 -89.5t-106 -31.5t-112 32.5zM375.5 50.5q31.5 30.5 49.5 83t18 116.5t-18 116.5t-49.5 83t-70.5 30.5q-58 0 -91 -56.5 t-33 -173.5t33 -173.5t91 -56.5q39 0 70.5 30.5z" glyph-name="d" horiz-adv-x="668" unicode="d"/>
<glyph d="M323 -10q-81 0 -144 32.5t-98.5 92t-35.5 135.5t34 135t94.5 92t137.5 33q79 0 138 -32.5t91.5 -91t34.5 -135.5v-11h-395q2 -111 39 -172.5t95 -61.5q36 0 80.5 26.5t76 63.5t31.5 67v16h18v-222h-20v65q-98 -32 -177 -32zM405.5 435.5q-33.5 58.5 -94.5 58.5t-95 -61.5 t-36 -172.5h261q-2 117 -35.5 175.5z" glyph-name="e" horiz-adv-x="624" unicode="e"/>
<glyph d="M103 20v460h-93v20h93v22q0 94 38.5 146t106.5 52q36 0 67 -4.5t71 -12.5l45 -9v56h20v-215h-19v17q0 22 -35.5 58t-82.5 63t-78 27q-32 0 -49.5 -16.5t-17.5 -45.5q0 -17 5.5 -32t17.5 -36q20 -39 29 -70h176v-20h-173q7 -35 7 -72v-388h137v-20h-358v20h93z" glyph-name="f" horiz-adv-x="360" unicode="f"/>
<glyph d="M123.5 -168.5q-78.5 41.5 -78.5 115.5q0 59 55.5 98t157.5 52q-135 10 -211.5 39.5t-76.5 97.5q0 29 20.5 47.5t51.5 18.5q21 0 48 -12q-16 22 -16 56q0 66 54 108.5t150 52.5v102h-106v20h340v-20h-106v-101q99 -10 154.5 -52.5t55.5 -109.5q0 -77 -73 -122t-198 -45 q-60 0 -102.5 10t-68.5 24t-54 35q-24 18 -40.5 26t-37.5 8q-23 0 -37 -12t-14 -32q0 -45 40 -69.5t98 -34.5t161 -20q82 -8 121 -13q114 -16 171.5 -52.5t57.5 -99.5q0 -74 -79 -115.5t-219 -41.5t-218.5 41.5zM447.5 232.5q37.5 40.5 37.5 112.5t-37 112.5t-103 40.5 t-103.5 -40.5t-37.5 -112.5t37.5 -112.5t103.5 -40.5q65 0 102.5 40.5zM452 -158.5q39 37.5 39 105.5t-39 105t-110 37t-110 -37t-39 -105t39 -105.5t110 -37.5t110 37.5z" glyph-name="g" horiz-adv-x="652" unicode="g"/>
<glyph d="M103 20v660h-93v20h221v-309q20 58 62.5 88.5t103.5 30.5q89 0 137 -60.5t48 -171.5v-258h88v-20h-300v20h83v258q0 198 -104 198q-34 0 -61 -27t-42 -76t-15 -113v-240h84v-20h-305v20h93z" glyph-name="h" horiz-adv-x="678" unicode="h"/>
<glyph d="M10 20h99v460h-99v20h227v-480h99v-20h-326v20zM89 745h164l-77 -188h-10z" glyph-name="i" horiz-adv-x="343" unicode="i"/>
<glyph d="M-26 -26v-13q0 -33 27 -68.5t63.5 -59t59.5 -23.5t37 16t14 42q0 19 -6 36.5t-18 42.5q-20 41 -31 77.5t-11 90.5v365h-99v20h227v-517q0 -90 -35 -141.5t-95 -51.5q-26 0 -50.5 5.5t-57.5 14.5l-25 7v-59h-20v216h20zM91 745h164l-77 -188h-10z" glyph-name="j" horiz-adv-x="336" unicode="j"/>
<glyph d="M10 20h93v660h-93v20h221v-440h49l201 220h-116v20h232v-20h-89l-135 -148l212 -312h87v-20h-321v20h87l-156 220h-51v-220h83v-20h-304v20z" glyph-name="k" horiz-adv-x="614" unicode="k"/>
<glyph d="M10 20h99v660h-99v20h227v-680h102v-20h-329v20z" glyph-name="l" horiz-adv-x="349" unicode="l"/>
<glyph d="M103 20v460h-93v20h221v-107q20 57 61 87t99 30q66 0 109 -36t59 -105q17 68 60.5 104.5t109.5 36.5q86 0 131.5 -60t45.5 -172v-258h88v-20h-298v20h82v258q0 101 -24 149.5t-73 48.5q-32 0 -57.5 -25t-40 -68.5t-14.5 -97.5v-265h81v-20h-291v20h81v258 q0 101 -24 149.5t-72 48.5q-33 0 -58.5 -27t-40 -76t-14.5 -113v-240h82v-20h-303v20h93z" glyph-name="m" horiz-adv-x="1002" unicode="m"/>
<glyph d="M103 20v460h-93v20h221v-109q20 58 62.5 88.5t103.5 30.5q89 0 137 -60.5t48 -171.5v-258h88v-20h-303v20h86v258q0 198 -104 198q-34 0 -61 -27t-42 -76t-15 -113v-240h84v-20h-305v20h93z" glyph-name="n" horiz-adv-x="678" unicode="n"/>
<glyph d="M181 23q-64 33 -100 92.5t-36 134.5t36 134.5t100 92.5t145 33t145 -33.5t100 -92.5t36 -134t-36 -134t-100 -92.5t-145 -33.5t-145 33zM433 69q38 62 38 181t-38 181.5t-107 62.5q-70 0 -108 -62.5t-38 -181.5t38 -181t108 -62q69 0 107 62z" glyph-name="o" horiz-adv-x="651" unicode="o"/>
<glyph d="M103 -180v660h-93v20h221v-111q23 59 66.5 90t105.5 31t112.5 -32.5t79.5 -91.5t29 -136t-29 -136t-79.5 -91.5t-112.5 -32.5t-105.5 31.5t-66.5 89.5v-291h136v-20h-357v20h93zM455 76.5q33 56.5 33 173.5t-33 173.5t-91 56.5q-40 0 -71.5 -30.5t-49.5 -83t-18 -116.5 t18 -116.5t49.5 -83t71.5 -30.5q58 0 91 56.5z" glyph-name="p" horiz-adv-x="668" unicode="p"/>
<glyph d="M437 -180v291q-22 -58 -66 -89.5t-106 -31.5t-112 32.5t-79 91.5t-29 136t29 136t79 91.5t112 32.5q63 0 106.5 -31t65.5 -90v111h222v-20h-93v-660h93v-20h-358v20h136zM375.5 50.5q31.5 30.5 49.5 83t18 116.5t-18 116.5t-49.5 83t-70.5 30.5q-58 0 -91 -56.5 t-33 -173.5t33 -173.5t91 -56.5q39 0 70.5 30.5z" glyph-name="q" horiz-adv-x="668" unicode="q"/>
<glyph d="M103 20v460h-93v20h221v-105q19 55 58.5 85t90.5 30q24 0 44.5 -7t44.5 -20v79h20v-269h-17v30q0 30 -23 64.5t-56 58t-60 23.5q-28 0 -51.5 -24.5t-37 -70t-13.5 -105.5v-249h127v-20h-348v20h93z" glyph-name="r" horiz-adv-x="528" unicode="r"/>
<glyph d="M55 205v-27q0 -36 45 -74t114 -63.5t136 -25.5q44 0 69.5 16.5t25.5 45.5q0 26 -30 45.5t-116 41.5q-97 26 -152.5 54t-80 63.5t-24.5 85.5q0 67 49 105t137 38q61 0 104 -10.5t93 -29.5v82h20v-239h-19v24q0 32 -45 66t-107.5 56t-106.5 22q-35 0 -56.5 -15.5 t-21.5 -41.5q0 -23 14 -39.5t50.5 -33t105.5 -36.5q94 -27 144 -53t69.5 -55t19.5 -70q0 -73 -47 -110.5t-137 -37.5q-49 0 -126.5 10.5t-124.5 22.5v-65h-20v248h18z" glyph-name="s" horiz-adv-x="524" unicode="s"/>
<glyph d="M145 35q-46 45 -46 124v321h-95v20h86q50 0 83.5 29.5t33.5 90.5v42h20v-162h183v-20h-183v-356q0 -52 26.5 -79t71.5 -27q26 0 54 12t41 28v-26q-21 -18 -61 -30t-87 -12q-81 0 -127 45z" glyph-name="t" horiz-adv-x="430" unicode="t"/>
<glyph d="M144 50.5q-48 60.5 -48 171.5v258h-88v20h217v-278q0 -198 103 -198q35 0 62 27t42 76t15 113v240h-99v20h320v-20h-93v-460h93v-20h-221v109q-21 -58 -63.5 -88.5t-102.5 -30.5q-89 0 -137 60.5z" glyph-name="u" horiz-adv-x="678" unicode="u"/>
<glyph d="M15 480h-74v20h323v-20h-111l164 -392l163 392h-129v20h224v-20h-73l-199 -480h-87z" glyph-name="v" horiz-adv-x="515" unicode="v"/>
<glyph d="M22 480h-74v20h290v-20h-82l132 -386l88 235l-51 151h-58v20h283v-20h-90l139 -387l132 387h-116v20h212v-20h-75l-163 -480h-94l-108 300l-109 -300h-94z" glyph-name="w" horiz-adv-x="773" unicode="w"/>
<glyph d="M-57 20h96l162 214l-179 246h-74v20h311v-20h-82l129 -171l131 171h-98v20h200v-20h-78l-143 -188l197 -272h71v-20h-331v20h105l-147 198l-150 -198h112v-20h-232v20z" glyph-name="x" horiz-adv-x="519" unicode="x"/>
<glyph d="M64 46v-33q0 -39 29.5 -85.5t71.5 -79t77 -32.5q22 0 36 16t14 43v7q0 17 -13.5 48t-60.5 130q-6 10 -10 19t-7 15l-191 386h-67v20h313v-20h-99l152 -332q16 -36 23 -67q5 25 16 58l131 341h-130v20h228v-20h-77l-135 -354q-12 -33 -17 -59.5t-5 -59.5v-13 q0 -100 -36 -152t-100 -52q-60 0 -141 26v-59h-20v289h18z" glyph-name="y" horiz-adv-x="519" unicode="y"/>
<glyph d="M34 0v14l312 466h-132q-28 0 -59.5 -20.5t-52.5 -50.5t-21 -54v-62h-18v271h20v-64h410v-13l-312 -467h126q43 0 78.5 19.5t55.5 49t20 56.5v62h18v-267h-20v60h-425z" glyph-name="z" horiz-adv-x="528" unicode="z"/>
<glyph d="M188.5 -80q-41.5 35 -41.5 107q0 19 5 51t11 64q19 89 19 133q0 34 -15 49.5t-45 15.5h-46v20h46q30 0 45 15.5t15 49.5q0 44 -19 133q-6 32 -11 64t-5 51q0 72 41.5 107t119.5 35q22 0 54 -4.5t50 -11.5v-20q-39 14 -69 14q-35 0 -55 -19t-20 -59q0 -22 14 -112 q1 -10 8 -56t7 -69q0 -50 -21 -82.5t-68 -45.5q47 -13 68 -45.5t21 -82.5q0 -23 -6.5 -68t-8.5 -56q-14 -90 -14 -113q0 -40 20 -59t55 -19q30 0 69 14v-20q-18 -7 -50 -11.5t-54 -4.5q-78 0 -119.5 35z" glyph-name="braceleft" horiz-adv-x="500" unicode="{"/>
<glyph d="M132 800h20v-900h-20v900z" glyph-name="bar" horiz-adv-x="284" unicode="|"/>
<glyph d="M311.5 780q41.5 -35 41.5 -107q0 -19 -5 -51t-11 -64q-19 -89 -19 -133q0 -34 15 -49.5t45 -15.5h46v-20h-46q-30 0 -45 -15.5t-15 -49.5q0 -44 19 -133q6 -32 11 -64t5 -51q0 -72 -41.5 -107t-119.5 -35q-22 0 -54 4.5t-50 11.5v20q39 -14 69 -14q35 0 55 19t20 59 q0 22 -14 112q-1 10 -8 56t-7 69q0 50 21 82.5t68 45.5q-47 13 -68 45.5t-21 82.5q0 23 6.5 68t8.5 56q14 90 14 113q0 40 -20 59t-55 19q-30 0 -69 -14v20q18 7 50 11.5t54 4.5q78 0 119.5 -35z" glyph-name="braceright" horiz-adv-x="500" unicode="}"/>
<glyph d="M107 364.5q27 23.5 64 23.5q26 0 50.5 -7.5t62.5 -22.5q36 -14 58.5 -21t46.5 -7q28 0 49.5 18t21.5 41h20q0 -32 -27 -55.5t-64 -23.5q-26 0 -50.5 7.5t-62.5 22.5q-36 14 -58.5 21t-46.5 7q-28 0 -49.5 -18t-21.5 -41h-20q0 32 27 55.5z" glyph-name="asciitilde" horiz-adv-x="560" unicode="~"/>
<glyph glyph-name="uni00A0" horiz-adv-x="250" unicode=" "/>
<glyph d="M257.5 482.5q27.5 -27.5 27.5 -67.5t-27.5 -67.5t-67.5 -27.5t-67.5 27.5t-27.5 67.5q0 41 27.5 68t67.5 27t67.5 -27.5zM371 -180v-20h-362v20h106l23 418h104l23 -418h106z" glyph-name="exclamdown" horiz-adv-x="380" unicode="¡"/>
<glyph d="M207 129q-59 34 -91.5 92t-32.5 131t32.5 131t91.5 92t134 37v118h20v-118q35 -1 71 -8.5t82 -20.5v73h20l-1 -252h-19v27q0 32 -27 71.5t-65 66.5t-70 27q-62 0 -97.5 -62.5t-35.5 -181.5q0 -118 35.5 -180.5t97.5 -62.5q36 0 78 27.5t71.5 67.5t31.5 75v28h19v-247h-20 v64q-101 -31 -171 -32v-122h-20v122q-75 3 -134 37z" glyph-name="cent" horiz-adv-x="700" unicode="¢"/>
<glyph d="M85 16q-33 31 -33 77t34.5 79t94.5 33q49 0 127 -24q0 2 -2 10q-7 26 -24.5 50.5t-46.5 58.5l-32 40h-142v20h126q-25 35 -39.5 71t-14.5 79q0 96 62.5 151t165.5 55q76 0 130.5 -30t81.5 -84v117h20v-230h-20v22q0 54 -23 92t-61 57.5t-81 19.5q-62 0 -99 -38.5 t-37 -110.5q0 -25 4.5 -48t13.5 -55q12 -42 17 -68h245v-20h-240q3 -8 10 -32t11 -45t4 -40q0 -20 -1 -33.5t-1 -16.5q68 -24 106.5 -34.5t81.5 -10.5q62 0 89.5 20.5t27.5 63.5q0 8 -4 32h16q7 -32 7 -66q0 -85 -42 -139t-123 -54q-48 0 -94 18t-103 51q-20 -33 -51 -51 t-71 -18q-57 0 -90 31zM235 21q28 16 44 42q-51 28 -79.5 40t-55.5 12q-29 0 -46 -13.5t-17 -34.5q0 -25 25.5 -43.5t65.5 -18.5q35 0 63 16z" glyph-name="sterling" horiz-adv-x="700" unicode="£"/>
<glyph d="M202 216q-24 27 -38 61.5t-14 72.5t14 72.5t38 61.5l-92 92l14 14l92 -92q27 24 61.5 38t72.5 14t72.5 -14t61.5 -38l92 92l14 -14l-92 -92q24 -27 38 -61.5t14 -72.5t-14 -72.5t-38 -61.5l92 -92l-14 -14l-92 92q-27 -24 -61.5 -38t-72.5 -14t-72.5 14t-61.5 38l-92 -92 l-14 14zM440 194.5q41 24.5 65.5 65.5t24.5 90t-24.5 90t-65.5 65.5t-90 24.5t-90 -24.5t-65.5 -65.5t-24.5 -90t24.5 -90t65.5 -65.5t90 -24.5t90 24.5z" glyph-name="currency" horiz-adv-x="700" unicode="¤"/>
<glyph d="M147 20h127v160h-187v20h187v81l-11 19h-176v20h165l-196 360h-92v20h397v-20h-142l202 -371l202 371h-142v20h256v-20h-93l-195 -360h165v-20h-175l-12 -22v-78h187v-20h-187v-160h127v-20h-407v20z" glyph-name="yen" horiz-adv-x="700" unicode="¥"/>
<glyph d="M132 800h20v-380h-20v380zM132 280h20v-380h-20v380z" glyph-name="brokenbar" horiz-adv-x="284" unicode="¦"/>
<glyph d="M196 -54.5q-68 45.5 -80 126.5h21q8 -48 39 -82t75 -51t91 -17q53 0 93 19.5t40 57.5q0 25 -15.5 41t-40 26.5t-71.5 25.5l-37 12q-91 28 -149 66.5t-58 110.5q0 57 35.5 93.5t93.5 53.5q-47 23 -74.5 55t-27.5 80q0 53 31 87.5t78.5 50t100.5 15.5q88 0 149 -45t70 -123 h-20q-12 68 -65.5 106.5t-127.5 38.5q-48 0 -83 -20t-35 -61q0 -33 32.5 -51.5t108.5 -42.5l26 -8q58 -17 100 -35.5t73.5 -52t31.5 -84.5q0 -57 -34.5 -94.5t-89.5 -56.5q47 -21 75 -53t28 -80q0 -54 -34.5 -88.5t-85.5 -50t-104 -15.5q-92 0 -160 45.5zM520 267 q0 31 -24 53t-58.5 36t-92.5 33q-11 4 -37.5 13t-46.5 17q-30 -7 -50.5 -24.5t-20.5 -47.5t28 -53t66.5 -39t98.5 -37q33 -11 65 -23q72 24 72 72z" glyph-name="section" horiz-adv-x="700" unicode="§"/>
<glyph d="M225 33q-84 48 -132 132t-48 185t48 185t132 132t185 48t185 -48t132 -132t48 -185t-48 -185t-132 -132t-185 -48t-185 48zM585 50.5q79 45.5 124.5 124.5t45.5 175t-45.5 175t-124.5 124.5t-175 45.5t-175 -45.5t-124.5 -124.5t-45.5 -175t45.5 -175t124.5 -124.5 t175 -45.5t175 45.5zM422 144q-63 0 -112.5 26.5t-77.5 74t-28 107.5t28 107.5t77.5 74t112.5 26.5q31 0 61 -6.5t66 -18.5v51h20v-198h-20v22q0 27 -21 58.5t-52 53.5t-57 22q-50 0 -78 -49t-28 -143q0 -93 28 -142t78 -49q28 0 61 21.5t56.5 53.5t24.5 59v21h19v-198h-20 v51q-81 -25 -138 -25z" glyph-name="copyright" unicode="©"/>
<glyph d="M108 300l109 -200h-21l-106 194v12l106 194h21zM268 300l109 -200h-21l-106 194v12l106 194h21z" glyph-name="guillemotleft" horiz-adv-x="467" unicode="«"/>
<glyph d="M480 360v-210h-20v190h-380v20h400z" glyph-name="logicalnot" horiz-adv-x="560" unicode="¬"/>
<glyph d="M138.5 378.5q-41.5 23.5 -65 65t-23.5 91.5t23.5 91.5t65 65t91.5 23.5t91.5 -23.5t65 -65t23.5 -91.5t-23.5 -91.5t-65 -65t-91.5 -23.5t-91.5 23.5zM311 397.5q37 22.5 58 59.5t21 78q0 45 -21 81.5t-57.5 57.5t-81.5 21t-81.5 -21t-57.5 -57.5t-21 -81.5t21 -81.5 t57.5 -57.5t81.5 -21q44 0 81 22.5zM158 456v167h-31l1 19h96q41 0 64.5 -15t23.5 -41q0 -29 -40 -46l55 -84h19v-18h-104v18h28l-49 75h-15l1 -75h22v-18h-101l-1 18h31zM253 557q11 10 11 29q0 18 -11 27.5t-31 9.5h-15v-76h15q20 0 31 10z" glyph-name="registered" horiz-adv-x="460" unicode="®"/>
<glyph d="M70.5 510.5q-35.5 35.5 -35.5 84.5q0 50 35.5 85t84.5 35q50 0 85 -35t35 -85q0 -49 -35 -84.5t-85 -35.5q-49 0 -84.5 35.5zM225.5 524.5q29.5 29.5 29.5 70.5t-29.5 70.5t-70.5 29.5t-70.5 -29.5t-29.5 -70.5t29.5 -70.5t70.5 -29.5t70.5 29.5z" glyph-name="degree" horiz-adv-x="310" unicode="°"/>
<glyph d="M290 410h190v-20h-190v-190h-20v190h-190v20h190v190h20v-190zM80 110v20h400v-20h-400z" glyph-name="plusminus" horiz-adv-x="560" unicode="±"/>
<glyph d="M290 -180v480h-9q-62 0 -112.5 26.5t-79.5 72t-29 101.5t29 101.5t79.5 72t112.5 26.5h268v-20h-106v-860h106v-20h-365v20h106z" glyph-name="paragraph" horiz-adv-x="600" unicode="¶"/>
<glyph d="M84.5 234.5q-27.5 27.5 -27.5 67.5q0 41 27.5 68t67.5 27q41 0 68 -27t27 -68q0 -40 -27 -67.5t-68 -27.5q-40 0 -67.5 27.5z" glyph-name="periodcentered" horiz-adv-x="304" unicode="·"/>
<glyph d="M359 300l-109 200h21l106 -194v-12l-106 -194h-21zM199 300l-109 200h21l106 -194v-12l-106 -194h-21z" glyph-name="guillemotright" horiz-adv-x="467" unicode="»"/>
<glyph d="M339 483q27 -27 27 -68q0 -40 -27 -67.5t-68 -27.5q-40 0 -67.5 27.5t-27.5 67.5q0 41 27.5 68t67.5 27q41 0 68 -27zM305 207q-2 -41 -18 -69t-50 -72q-28 -36 -43.5 -68.5t-15.5 -76.5q0 -53 26.5 -86.5t68.5 -33.5q33 0 70 30.5t66 79t40 99.5l2 30h14l-1 -301h-17v98 q-48 -27 -83 -39.5t-91 -12.5t-107.5 16.5t-84.5 52t-33 88.5q0 36 15.5 62.5t38 44.5t61.5 43q39 24 63 43.5t40.5 48.5t16.5 69h15q7 -22 7 -46z" glyph-name="questiondown" horiz-adv-x="530" unicode="¿"/>
<glyph d="M-82 20h90l239 593l-21 67h-85v20h234l246 -680h91v-20h-385v20h138l-76 209h-274l-84 -209h159v-20h-272v20zM382 249l-124 334l-135 -334h259zM293 757l-180 188h144l43 -188h-7z" glyph-name="Agrave" horiz-adv-x="643" unicode="À"/>
<glyph d="M-82 20h90l239 593l-21 67h-85v20h234l246 -680h91v-20h-385v20h138l-76 209h-274l-84 -209h159v-20h-272v20zM382 249l-124 334l-135 -334h259zM341 945h144l-180 -188h-7z" glyph-name="Aacute" horiz-adv-x="643" unicode="Á"/>
<glyph d="M-82 20h90l239 593l-21 67h-85v20h234l246 -680h91v-20h-385v20h138l-76 209h-274l-84 -209h159v-20h-272v20zM382 249l-124 334l-135 -334h259zM328 785l-92 113l-92 -113h-24l129 160h101l129 -160h-151z" glyph-name="Acircumflex" horiz-adv-x="643" unicode="Â"/>
<glyph d="M-82 20h90l239 593l-21 67h-85v20h234l246 -680h91v-20h-385v20h138l-76 209h-274l-84 -209h159v-20h-272v20zM382 249l-124 334l-135 -334h259zM142.5 900q29.5 34 78.5 34q29 0 55.5 -6t63.5 -17q31 -9 49.5 -13.5t36.5 -4.5q20 0 33 10t13 31h13q0 -59 -29 -93.5 t-78 -34.5q-29 0 -55.5 6t-63.5 17q-29 9 -49 14t-38 5q-20 0 -33 -10.5t-13 -31.5h-13q0 60 29.5 94z" glyph-name="Atilde" horiz-adv-x="643" unicode="Ã"/>
<glyph d="M-82 20h90l239 593l-21 67h-85v20h234l246 -680h91v-20h-385v20h138l-76 209h-274l-84 -209h159v-20h-272v20zM382 249l-124 334l-135 -334h259zM139 945h148l-69 -188h-9zM305 945h148l-69 -188h-9z" glyph-name="Adieresis" horiz-adv-x="643" unicode="Ä"/>
<glyph d="M-82 20h90l239 593l-21 67h-85v20h234l246 -680h91v-20h-385v20h138l-76 209h-274l-84 -209h159v-20h-272v20zM382 249l-124 334l-135 -334h259zM229.5 772.5q-31.5 18.5 -49.5 50t-18 68.5q0 38 18 69.5t49.5 50t69.5 18.5q37 0 69 -18.5t50.5 -50.5t18.5 -69 t-18.5 -68.5t-50.5 -50t-69 -18.5q-38 0 -69.5 18.5zM393.5 856q28.5 12 28.5 35q0 24 -28.5 35.5t-94.5 11.5t-94.5 -11.5t-28.5 -35.5q0 -23 28.5 -35t94.5 -12t94.5 12z" glyph-name="Aring" horiz-adv-x="643" unicode="Å"/>
<glyph d="M327 0v20h138l-76 209h-274l-84 -209h159v-20h-272v20h90l239 593l-21 67h-85v20h681v70h20v-298h-18v62q0 31 -23.5 65t-70 57.5t-111.5 23.5h-237l116 -320h132q35 0 56.5 24t21.5 54v45h14v-265h-14v44q0 30 -21.5 54t-56.5 24h-125l116 -320h73q40 0 82 28t69.5 67.5 t27.5 71.5v62h19v-319h-20v70h-545zM382 249l-124 334l-135 -334h259z" glyph-name="AE" horiz-adv-x="931" unicode="Æ"/>
<glyph d="M216 31.5q-80 46.5 -124.5 129.5t-44.5 189t44.5 189t124.5 129.5t181 46.5q38 0 73 -7.5t85 -23.5l44 -13v90h20v-315h-19v28q0 46 -33.5 98.5t-83 88t-94.5 35.5q-84 0 -133 -88t-49 -258q0 -172 49.5 -259t133.5 -87q50 0 105 39.5t91 98t36 112.5v31h18v-333h-20v82 l-37 -12q-63 -20 -102 -28.5t-84 -8.5q-101 0 -181 46.5zM206 -245l180 188h7l-43 -188h-144z" glyph-name="Ccedilla" horiz-adv-x="719" unicode="Ç"/>
<glyph d="M13 0v20h106v660h-106v20h538v70h20v-298h-18v62q0 29 -24 63.5t-64 58.5t-85 24h-108v-320h86q35 0 56.5 24t21.5 54v45h14v-265h-14v44q0 30 -21.5 54t-56.5 24h-86v-320h125q53 0 100.5 27.5t76 67t28.5 72.5v62h18v-319h-20v70h-587zM323 757l-180 188h144l43 -188 h-7z" glyph-name="Egrave" horiz-adv-x="659" unicode="È"/>
<glyph d="M13 0v20h106v660h-106v20h538v70h20v-298h-18v62q0 29 -24 63.5t-64 58.5t-85 24h-108v-320h86q35 0 56.5 24t21.5 54v45h14v-265h-14v44q0 30 -21.5 54t-56.5 24h-86v-320h125q53 0 100.5 27.5t76 67t28.5 72.5v62h18v-319h-20v70h-587zM371 945h144l-180 -188h-7z" glyph-name="Eacute" horiz-adv-x="659" unicode="É"/>
<glyph d="M13 0v20h106v660h-106v20h538v70h20v-298h-18v62q0 29 -24 63.5t-64 58.5t-85 24h-108v-320h86q35 0 56.5 24t21.5 54v45h14v-265h-14v44q0 30 -21.5 54t-56.5 24h-86v-320h125q53 0 100.5 27.5t76 67t28.5 72.5v62h18v-319h-20v70h-587zM358 785l-92 113l-92 -113h-24 l129 160h101l129 -160h-151z" glyph-name="Ecircumflex" horiz-adv-x="659" unicode="Ê"/>
<glyph d="M13 0v20h106v660h-106v20h538v70h20v-298h-18v62q0 29 -24 63.5t-64 58.5t-85 24h-108v-320h86q35 0 56.5 24t21.5 54v45h14v-265h-14v44q0 30 -21.5 54t-56.5 24h-86v-320h125q53 0 100.5 27.5t76 67t28.5 72.5v62h18v-319h-20v70h-587zM169 945h148l-69 -188h-9z M335 945h148l-69 -188h-9z" glyph-name="Edieresis" horiz-adv-x="659" unicode="Ë"/>
<glyph d="M13 20h106v660h-106v20h365v-20h-106v-660h106v-20h-365v20zM189 757l-180 188h144l43 -188h-7z" glyph-name="Igrave" horiz-adv-x="390" unicode="Ì"/>
<glyph d="M13 20h106v660h-106v20h365v-20h-106v-660h106v-20h-365v20zM237 945h144l-180 -188h-7z" glyph-name="Iacute" horiz-adv-x="390" unicode="Í"/>
<glyph d="M13 20h106v660h-106v20h365v-20h-106v-660h106v-20h-365v20zM224 785l-92 113l-92 -113h-24l129 160h101l129 -160h-151z" glyph-name="Icircumflex" horiz-adv-x="390" unicode="Î"/>
<glyph d="M13 20h106v660h-106v20h365v-20h-106v-660h106v-20h-365v20zM35 945h148l-69 -188h-9zM201 945h148l-69 -188h-9z" glyph-name="Idieresis" horiz-adv-x="390" unicode="Ï"/>
<glyph d="M119 20v320h-93v20h93v320h-106v20h335q111 0 197.5 -44.5t134.5 -124t48 -181.5t-48 -181.5t-134.5 -124t-197.5 -44.5h-335v20h106zM511.5 103.5q56.5 83.5 56.5 246.5q0 164 -56.5 247t-163.5 83h-76v-320h117v-20h-117v-320h76q107 0 163.5 83.5z" glyph-name="Eth" horiz-adv-x="774" unicode="Ð"/>
<glyph d="M140 591v-571h148v-20h-275v20h106v598l-50 62h-86v20h262l384 -498v478h-128v20h255v-20h-106v-722h-16zM227.5 900q29.5 34 78.5 34q29 0 55.5 -6t63.5 -17q31 -9 49.5 -13.5t36.5 -4.5q20 0 33 10t13 31h13q0 -59 -29 -93.5t-78 -34.5q-29 0 -55.5 6t-63.5 17 q-29 9 -49 14t-38 5q-20 0 -33 -10.5t-13 -31.5h-13q0 60 29.5 94z" glyph-name="Ntilde" horiz-adv-x="767" unicode="Ñ"/>
<glyph d="M222.5 31.5q-82.5 46.5 -129 129.5t-46.5 189t46.5 189t129 129.5t187.5 46.5t188 -46.5t129.5 -129.5t46.5 -189t-46.5 -189t-129.5 -129.5t-188 -46.5t-187.5 46.5zM561 92q53 88 53 258t-53 258t-151 88t-150.5 -87.5t-52.5 -258.5q0 -170 52.5 -258t150.5 -88t151 88 zM404 757l-180 188h144l43 -188h-7z" glyph-name="Ograve" unicode="Ò"/>
<glyph d="M222.5 31.5q-82.5 46.5 -129 129.5t-46.5 189t46.5 189t129 129.5t187.5 46.5t188 -46.5t129.5 -129.5t46.5 -189t-46.5 -189t-129.5 -129.5t-188 -46.5t-187.5 46.5zM561 92q53 88 53 258t-53 258t-151 88t-150.5 -87.5t-52.5 -258.5q0 -170 52.5 -258t150.5 -88t151 88 zM452 945h144l-180 -188h-7z" glyph-name="Oacute" unicode="Ó"/>
<glyph d="M222.5 31.5q-82.5 46.5 -129 129.5t-46.5 189t46.5 189t129 129.5t187.5 46.5t188 -46.5t129.5 -129.5t46.5 -189t-46.5 -189t-129.5 -129.5t-188 -46.5t-187.5 46.5zM561 92q53 88 53 258t-53 258t-151 88t-150.5 -87.5t-52.5 -258.5q0 -170 52.5 -258t150.5 -88t151 88 zM439 785l-92 113l-92 -113h-24l129 160h101l129 -160h-151z" glyph-name="Ocircumflex" unicode="Ô"/>
<glyph d="M222.5 31.5q-82.5 46.5 -129 129.5t-46.5 189t46.5 189t129 129.5t187.5 46.5t188 -46.5t129.5 -129.5t46.5 -189t-46.5 -189t-129.5 -129.5t-188 -46.5t-187.5 46.5zM561 92q53 88 53 258t-53 258t-151 88t-150.5 -87.5t-52.5 -258.5q0 -170 52.5 -258t150.5 -88t151 88 zM253.5 900q29.5 34 78.5 34q29 0 55.5 -6t63.5 -17q31 -9 49.5 -13.5t36.5 -4.5q20 0 33 10t13 31h13q0 -59 -29 -93.5t-78 -34.5q-29 0 -55.5 6t-63.5 17q-29 9 -49 14t-38 5q-20 0 -33 -10.5t-13 -31.5h-13q0 60 29.5 94z" glyph-name="Otilde" unicode="Õ"/>
<glyph d="M222.5 31.5q-82.5 46.5 -129 129.5t-46.5 189t46.5 189t129 129.5t187.5 46.5t188 -46.5t129.5 -129.5t46.5 -189t-46.5 -189t-129.5 -129.5t-188 -46.5t-187.5 46.5zM561 92q53 88 53 258t-53 258t-151 88t-150.5 -87.5t-52.5 -258.5q0 -170 52.5 -258t150.5 -88t151 88 zM250 945h148l-69 -188h-9zM416 945h148l-69 -188h-9z" glyph-name="Odieresis" unicode="Ö"/>
<glyph d="M117 202l148 148l-148 148l15 15l148 -148l148 148l15 -15l-148 -148l148 -148l-15 -15l-148 148l-148 -148z" glyph-name="multiply" horiz-adv-x="560" unicode="×"/>
<glyph d="M274 8q-63 23 -111 65l-70 -73h-27l83 87q-49 50 -75.5 117t-26.5 146q0 106 46.5 189t129 129.5t187.5 46.5q73 0 136 -22.5t111 -65.5l70 73h27l-83 -86q49 -49 76 -117t27 -147q0 -106 -46.5 -189t-129.5 -129.5t-188 -46.5q-73 0 -136 23zM410 696 q-98 0 -150.5 -87.5t-52.5 -258.5q0 -104 24 -178l352 378q-49 146 -173 146zM561 92q53 88 53 258q0 101 -25 178l-351 -378q48 -146 172 -146q98 0 151 88z" glyph-name="Oslash" unicode="Ø"/>
<glyph d="M236.5 20q-62.5 35 -96.5 100t-34 152v408h-106v20h374v-20h-115v-408q0 -252 187 -252q56 0 99 33t67 92.5t24 136.5v398h-115v20h241v-20h-106v-398q0 -140 -72.5 -218.5t-200.5 -78.5q-84 0 -146.5 35zM424 757l-180 188h144l43 -188h-7z" glyph-name="Ugrave" horiz-adv-x="758" unicode="Ù"/>
<glyph d="M236.5 20q-62.5 35 -96.5 100t-34 152v408h-106v20h374v-20h-115v-408q0 -252 187 -252q56 0 99 33t67 92.5t24 136.5v398h-115v20h241v-20h-106v-398q0 -140 -72.5 -218.5t-200.5 -78.5q-84 0 -146.5 35zM472 945h144l-180 -188h-7z" glyph-name="Uacute" horiz-adv-x="758" unicode="Ú"/>
<glyph d="M236.5 20q-62.5 35 -96.5 100t-34 152v408h-106v20h374v-20h-115v-408q0 -252 187 -252q56 0 99 33t67 92.5t24 136.5v398h-115v20h241v-20h-106v-398q0 -140 -72.5 -218.5t-200.5 -78.5q-84 0 -146.5 35zM459 785l-92 113l-92 -113h-24l129 160h101l129 -160h-151z" glyph-name="Ucircumflex" horiz-adv-x="758" unicode="Û"/>
<glyph d="M236.5 20q-62.5 35 -96.5 100t-34 152v408h-106v20h374v-20h-115v-408q0 -252 187 -252q56 0 99 33t67 92.5t24 136.5v398h-115v20h241v-20h-106v-398q0 -140 -72.5 -218.5t-200.5 -78.5q-84 0 -146.5 35zM270 945h148l-69 -188h-9zM436 945h148l-69 -188h-9z" glyph-name="Udieresis" horiz-adv-x="758" unicode="Ü"/>
<glyph d="M111 20h127v261l-218 399h-92v20h397v-20h-141l201 -371l202 371h-141v20h256v-20h-93l-218 -402v-258h127v-20h-407v20zM376 945h144l-180 -188h-7z" glyph-name="Yacute" horiz-adv-x="625" unicode="Ý"/>
<glyph d="M119 20v660h-106v20h386v-20h-127v-130h74q136 0 213 -53t77 -147q0 -93 -77 -146.5t-213 -53.5h-74v-130h127v-20h-386v20h106zM444.5 217q38.5 47 38.5 133q0 87 -38.5 133.5t-109.5 46.5h-63v-360h63q71 0 109.5 47z" glyph-name="Thorn" horiz-adv-x="680" unicode="Þ"/>
<glyph d="M103 -180v660h-93v20h93v29q0 99 60 155t162 56q64 0 118 -13.5t122 -35.5v59h20v-335h-15q-5 15 -25 30.5t-47.5 25.5t-54.5 10q-34 0 -54 -15.5t-20 -41.5q0 -34 34.5 -60.5t119.5 -53.5q78 -24 120.5 -50.5t59 -57t16.5 -70.5q0 -69 -42.5 -106t-118.5 -37 q-43 0 -109 10.5t-106 22.5v-65h-18v248h16v-27q0 -36 38 -74t96.5 -63.5t116.5 -25.5q37 0 58 15.5t21 43.5q0 27 -25.5 47.5t-98.5 42.5q-85 27 -134 55.5t-70 64.5t-21 86q0 66 48 103t134 37q35 0 62 -6v29q0 30 -57 70t-131.5 69.5t-119.5 29.5q-43 0 -66 -19t-23 -55 q0 -18 5.5 -32.5t17.5 -35.5q19 -37 29 -68.5t10 -83.5v-588h134v-20h-355v20h93z" glyph-name="germandbls" horiz-adv-x="752" unicode="ß"/>
<glyph d="M64.5 24.5q-41.5 35.5 -41.5 92.5q0 126 203 144q88 8 127 31t39 74q0 65 -24.5 96.5t-69.5 31.5q-34 0 -79 -27.5t-77.5 -66.5t-32.5 -71v-27h-19v247h20v-68l57 12q42 9 67.5 13t54.5 4q104 0 162.5 -55.5t58.5 -153.5v-281h84v-20h-203v118q-23 -64 -76.5 -96.5 t-131.5 -32.5q-77 0 -118.5 35.5zM314.5 47q34.5 24 55.5 68t21 102v86q-26 -37 -102 -50q-71 -10 -104.5 -41t-33.5 -86q0 -47 25 -75t65 -28q39 0 73.5 24zM277 557l-180 188h144l43 -188h-7z" glyph-name="agrave" horiz-adv-x="602" unicode="à"/>
<glyph d="M64.5 24.5q-41.5 35.5 -41.5 92.5q0 126 203 144q88 8 127 31t39 74q0 65 -24.5 96.5t-69.5 31.5q-34 0 -79 -27.5t-77.5 -66.5t-32.5 -71v-27h-19v247h20v-68l57 12q42 9 67.5 13t54.5 4q104 0 162.5 -55.5t58.5 -153.5v-281h84v-20h-203v118q-23 -64 -76.5 -96.5 t-131.5 -32.5q-77 0 -118.5 35.5zM314.5 47q34.5 24 55.5 68t21 102v86q-26 -37 -102 -50q-71 -10 -104.5 -41t-33.5 -86q0 -47 25 -75t65 -28q39 0 73.5 24zM325 745h144l-180 -188h-7z" glyph-name="aacute" horiz-adv-x="602" unicode="á"/>
<glyph d="M64.5 24.5q-41.5 35.5 -41.5 92.5q0 126 203 144q88 8 127 31t39 74q0 65 -24.5 96.5t-69.5 31.5q-34 0 -79 -27.5t-77.5 -66.5t-32.5 -71v-27h-19v247h20v-68l57 12q42 9 67.5 13t54.5 4q104 0 162.5 -55.5t58.5 -153.5v-281h84v-20h-203v118q-23 -64 -76.5 -96.5 t-131.5 -32.5q-77 0 -118.5 35.5zM314.5 47q34.5 24 55.5 68t21 102v86q-26 -37 -102 -50q-71 -10 -104.5 -41t-33.5 -86q0 -47 25 -75t65 -28q39 0 73.5 24zM312 585l-92 113l-92 -113h-24l129 160h101l129 -160h-151z" glyph-name="acircumflex" horiz-adv-x="602" unicode="â"/>
<glyph d="M64.5 24.5q-41.5 35.5 -41.5 92.5q0 126 203 144q88 8 127 31t39 74q0 65 -24.5 96.5t-69.5 31.5q-34 0 -79 -27.5t-77.5 -66.5t-32.5 -71v-27h-19v247h20v-68l57 12q42 9 67.5 13t54.5 4q104 0 162.5 -55.5t58.5 -153.5v-281h84v-20h-203v118q-23 -64 -76.5 -96.5 t-131.5 -32.5q-77 0 -118.5 35.5zM314.5 47q34.5 24 55.5 68t21 102v86q-26 -37 -102 -50q-71 -10 -104.5 -41t-33.5 -86q0 -47 25 -75t65 -28q39 0 73.5 24zM126.5 700q29.5 34 78.5 34q29 0 55.5 -6t63.5 -17q31 -9 49.5 -13.5t36.5 -4.5q20 0 33 10t13 31h13 q0 -59 -29 -93.5t-78 -34.5q-29 0 -55.5 6t-63.5 17q-29 9 -49 14t-38 5q-20 0 -33 -10.5t-13 -31.5h-13q0 60 29.5 94z" glyph-name="atilde" horiz-adv-x="602" unicode="ã"/>
<glyph d="M64.5 24.5q-41.5 35.5 -41.5 92.5q0 126 203 144q88 8 127 31t39 74q0 65 -24.5 96.5t-69.5 31.5q-34 0 -79 -27.5t-77.5 -66.5t-32.5 -71v-27h-19v247h20v-68l57 12q42 9 67.5 13t54.5 4q104 0 162.5 -55.5t58.5 -153.5v-281h84v-20h-203v118q-23 -64 -76.5 -96.5 t-131.5 -32.5q-77 0 -118.5 35.5zM314.5 47q34.5 24 55.5 68t21 102v86q-26 -37 -102 -50q-71 -10 -104.5 -41t-33.5 -86q0 -47 25 -75t65 -28q39 0 73.5 24zM123 745h148l-69 -188h-9zM289 745h148l-69 -188h-9z" glyph-name="adieresis" horiz-adv-x="602" unicode="ä"/>
<glyph d="M64.5 24.5q-41.5 35.5 -41.5 92.5q0 126 203 144q88 8 127 31t39 74q0 65 -24.5 96.5t-69.5 31.5q-34 0 -79 -27.5t-77.5 -66.5t-32.5 -71v-27h-19v247h20v-68l57 12q42 9 67.5 13t54.5 4q104 0 162.5 -55.5t58.5 -153.5v-281h84v-20h-203v118q-23 -64 -76.5 -96.5 t-131.5 -32.5q-77 0 -118.5 35.5zM314.5 47q34.5 24 55.5 68t21 102v86q-26 -37 -102 -50q-71 -10 -104.5 -41t-33.5 -86q0 -47 25 -75t65 -28q39 0 73.5 24zM213.5 572.5q-31.5 18.5 -49.5 50t-18 68.5q0 38 18 69.5t49.5 50t69.5 18.5q37 0 69 -18.5t50.5 -50.5t18.5 -69 t-18.5 -68.5t-50.5 -50t-69 -18.5q-38 0 -69.5 18.5zM377.5 656q28.5 12 28.5 35q0 24 -28.5 35.5t-94.5 11.5t-94.5 -11.5t-28.5 -35.5q0 -23 28.5 -35t94.5 -12t94.5 12z" glyph-name="aring" horiz-adv-x="602" unicode="å"/>
<glyph d="M657 -10q-88 0 -154 43t-94 116q-25 -87 -84.5 -123.5t-130.5 -36.5q-84 0 -127.5 35t-43.5 93q0 126 203 144q88 8 127 31t39 74q0 65 -24.5 96.5t-69.5 31.5q-34 0 -79 -27.5t-77.5 -66.5t-32.5 -71v-27h-19v247h20v-68l57 12q42 9 67.5 13t54.5 4q58 0 101.5 -19.5 t69.5 -57.5q33 37 80.5 57t103.5 20q78 0 137.5 -32.5t91.5 -91t32 -135.5v-11h-391q1 -111 38 -172.5t96 -61.5q34 0 77.5 26.5t74.5 64t31 66.5v16h19v-222h-20v65q-100 -32 -173 -32zM736 435.5q-33 58.5 -92 58.5q-60 0 -94.5 -61.5t-35.5 -172.5h257q-2 117 -35 175.5z M314.5 44.5q34.5 21.5 55.5 61.5t21 92v105q-26 -37 -102 -50q-71 -10 -104.5 -41t-33.5 -86q0 -47 25 -75t65 -28q39 0 73.5 21.5z" glyph-name="ae" horiz-adv-x="954" unicode="æ"/>
<glyph d="M317 -10q-79 0 -140.5 33.5t-96.5 92.5t-35 134q0 76 35 135t96.5 92t140.5 33q63 0 158 -29v73h20v-252h-19v27q0 32 -27 71.5t-65.5 66.5t-69.5 27q-63 0 -98.5 -62.5t-35.5 -181.5t35.5 -181t98.5 -62q35 0 77 27.5t72 67.5t32 75v28h18v-248h-20v65 q-100 -32 -176 -32zM141 -245l180 188h7l-43 -188h-144z" glyph-name="ccedilla" horiz-adv-x="585" unicode="ç"/>
<glyph d="M323 -10q-81 0 -144 32.5t-98.5 92t-35.5 135.5t34 135t94.5 92t137.5 33q79 0 138 -32.5t91.5 -91t34.5 -135.5v-11h-395q2 -111 39 -172.5t95 -61.5q36 0 80.5 26.5t76 63.5t31.5 67v16h18v-222h-20v65q-98 -32 -177 -32zM405.5 435.5q-33.5 58.5 -94.5 58.5t-95 -61.5 t-36 -172.5h261q-2 117 -35.5 175.5zM302 557l-180 188h144l43 -188h-7z" glyph-name="egrave" horiz-adv-x="624" unicode="è"/>
<glyph d="M323 -10q-81 0 -144 32.5t-98.5 92t-35.5 135.5t34 135t94.5 92t137.5 33q79 0 138 -32.5t91.5 -91t34.5 -135.5v-11h-395q2 -111 39 -172.5t95 -61.5q36 0 80.5 26.5t76 63.5t31.5 67v16h18v-222h-20v65q-98 -32 -177 -32zM405.5 435.5q-33.5 58.5 -94.5 58.5t-95 -61.5 t-36 -172.5h261q-2 117 -35.5 175.5zM350 745h144l-180 -188h-7z" glyph-name="eacute" horiz-adv-x="624" unicode="é"/>
<glyph d="M323 -10q-81 0 -144 32.5t-98.5 92t-35.5 135.5t34 135t94.5 92t137.5 33q79 0 138 -32.5t91.5 -91t34.5 -135.5v-11h-395q2 -111 39 -172.5t95 -61.5q36 0 80.5 26.5t76 63.5t31.5 67v16h18v-222h-20v65q-98 -32 -177 -32zM405.5 435.5q-33.5 58.5 -94.5 58.5t-95 -61.5 t-36 -172.5h261q-2 117 -35.5 175.5zM337 585l-92 113l-92 -113h-24l129 160h101l129 -160h-151z" glyph-name="ecircumflex" horiz-adv-x="624" unicode="ê"/>
<glyph d="M323 -10q-81 0 -144 32.5t-98.5 92t-35.5 135.5t34 135t94.5 92t137.5 33q79 0 138 -32.5t91.5 -91t34.5 -135.5v-11h-395q2 -111 39 -172.5t95 -61.5q36 0 80.5 26.5t76 63.5t31.5 67v16h18v-222h-20v65q-98 -32 -177 -32zM405.5 435.5q-33.5 58.5 -94.5 58.5t-95 -61.5 t-36 -172.5h261q-2 117 -35.5 175.5zM148 745h148l-69 -188h-9zM314 745h148l-69 -188h-9z" glyph-name="edieresis" horiz-adv-x="624" unicode="ë"/>
<glyph d="M10 20h99v460h-99v20h227v-480h99v-20h-326v20zM165 557l-180 188h144l43 -188h-7z" glyph-name="igrave" horiz-adv-x="343" unicode="ì"/>
<glyph d="M10 20h99v460h-99v20h227v-480h99v-20h-326v20zM213 745h144l-180 -188h-7z" glyph-name="iacute" horiz-adv-x="343" unicode="í"/>
<glyph d="M10 20h99v460h-99v20h227v-480h99v-20h-326v20zM200 585l-92 113l-92 -113h-24l129 160h101l129 -160h-151z" glyph-name="icircumflex" horiz-adv-x="343" unicode="î"/>
<glyph d="M10 20h99v460h-99v20h227v-480h99v-20h-326v20zM11 745h148l-69 -188h-9zM177 745h148l-69 -188h-9z" glyph-name="idieresis" horiz-adv-x="343" unicode="ï"/>
<glyph d="M550.5 408.5q29.5 -39.5 43 -76.5t13.5 -82q0 -75 -36 -134t-100 -92.5t-145 -33.5t-145 33t-100 92.5t-36 134.5t36 134.5t100 92.5t145 33q38 0 65.5 -7t54.5 -20q-20 38 -45 63l-41 44h-192v20h174l-92 100h27l92 -100h164v-20h-146l79 -86q55 -56 84.5 -95.5zM428 69 q36 62 36 181t-36 181.5t-102 62.5t-102.5 -62.5t-36.5 -181.5t36.5 -181t102.5 -62t102 62z" glyph-name="eth" horiz-adv-x="651" unicode="ð"/>
<glyph d="M103 20v460h-93v20h221v-109q20 58 62.5 88.5t103.5 30.5q89 0 137 -60.5t48 -171.5v-258h88v-20h-303v20h86v258q0 198 -104 198q-34 0 -61 -27t-42 -76t-15 -113v-240h84v-20h-305v20h93zM175.5 700q29.5 34 78.5 34q29 0 55.5 -6t63.5 -17q31 -9 49.5 -13.5t36.5 -4.5 q20 0 33 10t13 31h13q0 -59 -29 -93.5t-78 -34.5q-29 0 -55.5 6t-63.5 17q-29 9 -49 14t-38 5q-20 0 -33 -10.5t-13 -31.5h-13q0 60 29.5 94z" glyph-name="ntilde" horiz-adv-x="678" unicode="ñ"/>
<glyph d="M181 23q-64 33 -100 92.5t-36 134.5t36 134.5t100 92.5t145 33t145 -33.5t100 -92.5t36 -134t-36 -134t-100 -92.5t-145 -33.5t-145 33zM433 69q38 62 38 181t-38 181.5t-107 62.5q-70 0 -108 -62.5t-38 -181.5t38 -181t108 -62q69 0 107 62zM320 557l-180 188h144 l43 -188h-7z" glyph-name="ograve" horiz-adv-x="651" unicode="ò"/>
<glyph d="M181 23q-64 33 -100 92.5t-36 134.5t36 134.5t100 92.5t145 33t145 -33.5t100 -92.5t36 -134t-36 -134t-100 -92.5t-145 -33.5t-145 33zM433 69q38 62 38 181t-38 181.5t-107 62.5q-70 0 -108 -62.5t-38 -181.5t38 -181t108 -62q69 0 107 62zM368 745h144l-180 -188h-7z " glyph-name="oacute" horiz-adv-x="651" unicode="ó"/>
<glyph d="M181 23q-64 33 -100 92.5t-36 134.5t36 134.5t100 92.5t145 33t145 -33.5t100 -92.5t36 -134t-36 -134t-100 -92.5t-145 -33.5t-145 33zM433 69q38 62 38 181t-38 181.5t-107 62.5q-70 0 -108 -62.5t-38 -181.5t38 -181t108 -62q69 0 107 62zM355 585l-92 113l-92 -113 h-24l129 160h101l129 -160h-151z" glyph-name="ocircumflex" horiz-adv-x="651" unicode="ô"/>
<glyph d="M181 23q-64 33 -100 92.5t-36 134.5t36 134.5t100 92.5t145 33t145 -33.5t100 -92.5t36 -134t-36 -134t-100 -92.5t-145 -33.5t-145 33zM433 69q38 62 38 181t-38 181.5t-107 62.5q-70 0 -108 -62.5t-38 -181.5t38 -181t108 -62q69 0 107 62zM169.5 700q29.5 34 78.5 34 q29 0 55.5 -6t63.5 -17q31 -9 49.5 -13.5t36.5 -4.5q20 0 33 10t13 31h13q0 -59 -29 -93.5t-78 -34.5q-29 0 -55.5 6t-63.5 17q-29 9 -49 14t-38 5q-20 0 -33 -10.5t-13 -31.5h-13q0 60 29.5 94z" glyph-name="otilde" horiz-adv-x="651" unicode="õ"/>
<glyph d="M181 23q-64 33 -100 92.5t-36 134.5t36 134.5t100 92.5t145 33t145 -33.5t100 -92.5t36 -134t-36 -134t-100 -92.5t-145 -33.5t-145 33zM433 69q38 62 38 181t-38 181.5t-107 62.5q-70 0 -108 -62.5t-38 -181.5t38 -181t108 -62q69 0 107 62zM166 745h148l-69 -188h-9z M332 745h148l-69 -188h-9z" glyph-name="odieresis" horiz-adv-x="651" unicode="ö"/>
<glyph d="M258.5 498.5q-8.5 8.5 -8.5 21.5t8.5 21.5t21.5 8.5t21.5 -8.5t8.5 -21.5t-8.5 -21.5t-21.5 -8.5t-21.5 8.5zM80 360h400v-20h-400v20zM258.5 158.5q-8.5 8.5 -8.5 21.5t8.5 21.5t21.5 8.5t21.5 -8.5t8.5 -21.5t-8.5 -21.5t-21.5 -8.5t-21.5 8.5z" glyph-name="divide" horiz-adv-x="560" unicode="÷"/>
<glyph d="M226.5 5q-46.5 15 -82.5 42l-45 -47h-27l56 59q-40 35 -61.5 84t-21.5 107q0 75 36 134.5t100 92.5t145 33q106 0 182 -57l45 47h27l-57 -59q40 -35 62 -84t22 -107q0 -75 -36 -134t-100 -92.5t-145 -33.5q-53 0 -99.5 15zM326 494q-70 0 -108 -62.5t-38 -181.5 q0 -69 17 -120l251 261q-34 103 -122 103zM433 69q38 62 38 181q0 69 -17 120l-251 -261q35 -102 123 -102q69 0 107 62z" glyph-name="oslash" horiz-adv-x="651" unicode="ø"/>
<glyph d="M144 50.5q-48 60.5 -48 171.5v258h-88v20h217v-278q0 -198 103 -198q35 0 62 27t42 76t15 113v240h-99v20h320v-20h-93v-460h93v-20h-221v109q-21 -58 -63.5 -88.5t-102.5 -30.5q-89 0 -137 60.5zM322 557l-180 188h144l43 -188h-7z" glyph-name="ugrave" horiz-adv-x="678" unicode="ù"/>
<glyph d="M144 50.5q-48 60.5 -48 171.5v258h-88v20h217v-278q0 -198 103 -198q35 0 62 27t42 76t15 113v240h-99v20h320v-20h-93v-460h93v-20h-221v109q-21 -58 -63.5 -88.5t-102.5 -30.5q-89 0 -137 60.5zM370 745h144l-180 -188h-7z" glyph-name="uacute" horiz-adv-x="678" unicode="ú"/>
<glyph d="M144 50.5q-48 60.5 -48 171.5v258h-88v20h217v-278q0 -198 103 -198q35 0 62 27t42 76t15 113v240h-99v20h320v-20h-93v-460h93v-20h-221v109q-21 -58 -63.5 -88.5t-102.5 -30.5q-89 0 -137 60.5zM357 585l-92 113l-92 -113h-24l129 160h101l129 -160h-151z" glyph-name="ucircumflex" horiz-adv-x="678" unicode="û"/>
<glyph d="M144 50.5q-48 60.5 -48 171.5v258h-88v20h217v-278q0 -198 103 -198q35 0 62 27t42 76t15 113v240h-99v20h320v-20h-93v-460h93v-20h-221v109q-21 -58 -63.5 -88.5t-102.5 -30.5q-89 0 -137 60.5zM168 745h148l-69 -188h-9zM334 745h148l-69 -188h-9z" glyph-name="udieresis" horiz-adv-x="678" unicode="ü"/>
<glyph d="M64 46v-33q0 -39 29.5 -85.5t71.5 -79t77 -32.5q22 0 36 16t14 43v7q0 17 -13.5 48t-60.5 130q-6 10 -10 19t-7 15l-191 386h-67v20h313v-20h-99l152 -332q16 -36 23 -67q5 25 16 58l131 341h-130v20h228v-20h-77l-135 -354q-12 -33 -17 -59.5t-5 -59.5v-13 q0 -100 -36 -152t-100 -52q-60 0 -141 26v-59h-20v289h18zM306 745h144l-180 -188h-7z" glyph-name="yacute" horiz-adv-x="519" unicode="ý"/>
<glyph d="M103 -180v860h-93v20h221v-311q23 59 66.5 90t105.5 31t112.5 -32.5t79.5 -91.5t29 -136t-29 -136t-79.5 -91.5t-112.5 -32.5t-105.5 31.5t-66.5 89.5v-291h136v-20h-357v20h93zM455 76.5q33 56.5 33 173.5t-33 173.5t-91 56.5q-40 0 -71.5 -30.5t-49.5 -83t-18 -116.5 t18 -116.5t49.5 -83t71.5 -30.5q58 0 91 56.5z" glyph-name="thorn" horiz-adv-x="668" unicode="þ"/>
<glyph d="M10 20h99v460h-99v20h227v-480h99v-20h-326v20z" glyph-name="dotlessi" horiz-adv-x="343" unicode="ı"/>
<glyph d="M-26 -26v-13q0 -33 27 -68.5t63.5 -59t59.5 -23.5t37 16t14 42q0 19 -6 36.5t-18 42.5q-20 41 -31 77.5t-11 90.5v365h-99v20h227v-517q0 -90 -35 -141.5t-95 -51.5q-26 0 -50.5 5.5t-57.5 14.5l-25 7v-59h-20v216h20z" glyph-name="uni0237" horiz-adv-x="336" unicode="ȷ"/>
<glyph d="M-306 557l-180 188h144l43 -188h-7z" glyph-name="gravecomb" horiz-adv-x="0" unicode="̀"/>
<glyph d="M-258 745h144l-180 -188h-7z" glyph-name="acutecomb" horiz-adv-x="0" unicode="́"/>
<glyph d="M-271 585l-92 113l-92 -113h-24l129 160h101l129 -160h-151z" glyph-name="uni0302" horiz-adv-x="0" unicode="̂"/>
<glyph d="M-456.5 700q29.5 34 78.5 34q29 0 55.5 -6t63.5 -17q31 -9 49.5 -13.5t36.5 -4.5q20 0 33 10t13 31h13q0 -59 -29 -93.5t-78 -34.5q-29 0 -55.5 6t-63.5 17q-29 9 -49 14t-38 5q-20 0 -33 -10.5t-13 -31.5h-13q0 60 29.5 94z" glyph-name="tildecomb" horiz-adv-x="0" unicode="̃"/>
<glyph d="M-382 745h164l-77 -188h-10z" glyph-name="uni0307" horiz-adv-x="0" unicode="̇"/>
<glyph d="M-457 745h148l-69 -188h-9zM-291 745h148l-69 -188h-9z" glyph-name="uni0308" horiz-adv-x="0" unicode="̈"/>
<glyph d="M-369.5 572.5q-31.5 18.5 -49.5 50t-18 68.5q0 38 18 69.5t49.5 50t69.5 18.5q37 0 69 -18.5t50.5 -50.5t18.5 -69t-18.5 -68.5t-50.5 -50t-69 -18.5q-38 0 -69.5 18.5zM-205.5 656q28.5 12 28.5 35q0 24 -28.5 35.5t-94.5 11.5t-94.5 -11.5t-28.5 -35.5q0 -23 28.5 -35 t94.5 -12t94.5 12z" glyph-name="uni030A" horiz-adv-x="0" unicode="̊"/>
<glyph d="M-460 -245l180 188h7l-43 -188h-144z" glyph-name="uni0327" horiz-adv-x="0" unicode="̧"/>
<glyph d="M80 310h380v-20h-380v20z" glyph-name="endash" horiz-adv-x="540" unicode="–"/>
<glyph d="M108 350l109 -200h-21l-106 194v12l106 194h21zM268 350l109 -200h-21l-106 194v12l106 194h21z" glyph-name="guillemotleft.case" horiz-adv-x="467"/>
<glyph d="M359 350l-109 200h21l106 -194v-12l-106 -194h-21zM199 350l-109 200h21l106 -194v-12l-106 -194h-21z" glyph-name="guillemotright.case" horiz-adv-x="467"/>
<glyph d="M225 33q-84 48 -132 132t-48 185t48 185t132 132t185 48t185 -48t132 -132t48 -185q0 -112 -56 -198h-222v98q-18 -53 -62 -80t-107 -27t-97.5 29t-34.5 77q0 55 44.5 82.5t122.5 34.5q72 6 103 25t31 62q0 47 -20.5 72.5t-56.5 25.5q-28 0 -63.5 -20t-61 -51t-25.5 -60 v-21h-19v201h20v-55q19 3 51 11q58 13 91 13q86 0 135.5 -45.5t49.5 -125.5v-227h110q47 81 47 179q0 96 -45.5 175t-124.5 124.5t-175 45.5t-175 -45.5t-124.5 -124.5t-45.5 -175t45.5 -175t124.5 -124.5t175 -45.5q70 0 133 25.5t111 71.5l14 -13q-50 -49 -116.5 -76.5 t-141.5 -27.5q-101 0 -185 48zM435 194.5q28 19.5 45 54.5t17 81v66q-21 -31 -83 -41q-57 -8 -84 -32t-27 -67q0 -36 20 -58.5t52 -22.5t60 19.5z" glyph-name="at.case"/>
</font>
</defs>
</svg>
