<?xml version="1.0" encoding="UTF-8"?>
<!DOCTYPE svg  PUBLIC '-//W3C//DTD SVG 1.1//EN'  'http://www.w3.org/Graphics/SVG/1.1/DTD/svg11.dtd'>
<svg version="1.1" xmlns="http://www.w3.org/2000/svg">
<defs>
<font id="KyivTypeSerif-Bold" horiz-adv-x="560">
<font-face font-family="KyivType Serif Bold" font-weight="700" ascent="800" bbox="-514 -245 1044 1029" cap-height="700" descent="-200" panose-1="0 0 8 0 0 0 0 0 0 0" underline-position="-100" underline-thickness="50" unicode-range="U+0020-2013" units-per-em="1000" x-height="500"/>
<missing-glyph/>
<glyph glyph-name="space" horiz-adv-x="250" unicode=" "/>
<glyph d="M119 561h-92v139h313v-139h-92l-13 -299h-104zM115.5 17.5q-27.5 27.5 -27.5 67.5t27.5 67.5t67.5 27.5q41 0 68 -27t27 -68t-27 -68t-68 -27q-40 0 -67.5 27.5z" glyph-name="exclam" horiz-adv-x="366" unicode="!"/>
<glyph d="M351 700l-77 -244h-10l-73 233l-74 -233h-10l-77 244h321z" glyph-name="quotedbl" horiz-adv-x="381" unicode='"'/>
<glyph d="M541 435v-169h111v-136h-111v-145h-125v145h-131v-145h-125v145h-112v136h112v169h-112v135h112v145h125v-145h131v145h125v-145h111v-135h-111zM416 435h-131v-169h131v169z" glyph-name="numbersign" horiz-adv-x="700" unicode="#"/>
<glyph d="M194 69v-75h-138v273h142v-12q4 -38 33 -70.5t74 -51.5t95 -19q51 0 82.5 18.5t31.5 52.5q0 25 -21 42t-54.5 28.5t-99.5 29.5q-5 1 -20 5q-70 19 -121.5 42t-91 69t-39.5 118q0 64 32 108t86.5 66t120.5 22h2v115h104v-132q59 -16 99 -56v71h138v-267h-136v10 q-5 31 -32.5 61t-70 49.5t-91.5 19.5q-46 0 -73 -19.5t-27 -54.5q0 -26 20 -43.5t51 -28.5t89 -26l23 -6q90 -25 139.5 -44.5t88 -62t38.5 -113.5q0 -65 -33.5 -111t-90 -69t-125.5 -23h-10v-115h-104v134q-68 19 -111 65z" glyph-name="dollar" horiz-adv-x="700" unicode="$"/>
<glyph d="M113.5 373.5q-40.5 23.5 -64 64.5t-23.5 90t23.5 89.5t64 64t89.5 23.5t90 -23.5t64.5 -64t23.5 -89.5t-23.5 -90t-64.5 -64.5t-90 -23.5t-89.5 23.5zM703 700l-454 -700h-120l454 700h120zM255.5 475.5q21.5 21.5 21.5 52.5t-21.5 52t-52.5 21t-52 -21t-21 -52t21 -52.5 t52 -21.5t52.5 21.5zM538.5 18.5q-40.5 23.5 -64 64.5t-23.5 90t23.5 89.5t64 64t89.5 23.5t90 -23.5t64.5 -64t23.5 -89.5t-23.5 -90t-64.5 -64.5t-90 -23.5t-89.5 23.5zM680.5 120.5q21.5 21.5 21.5 52.5t-21.5 52t-52.5 21t-52 -21t-21 -52t21 -52.5t52 -21.5t52.5 21.5z " glyph-name="percent" horiz-adv-x="825" unicode="%"/>
<glyph d="M147.5 12q-61.5 27 -95 76t-33.5 114q0 54 24.5 98t68 71t97.5 31h2l-136 164v134h410v49h139v-252h-139v69q0 2 -2 2h-235l265 -319q20 41 26 75h-58v94h261v-125h-77q-2 0 -3 -2q-7 -36 -20.5 -70.5t-31.5 -59.5l17 -22h115v-139h-195l-45 52q-88 -67 -212 -67 q-81 0 -142.5 27zM420 151l-128 154h-18q-50 0 -79.5 -26t-29.5 -68q0 -47 33.5 -75.5t89.5 -28.5q79 0 132 44z" glyph-name="ampersand" horiz-adv-x="758" unicode="&amp;"/>
<glyph d="M194 700l-77 -244h-10l-77 244h164z" glyph-name="quotesingle" horiz-adv-x="224" unicode="'"/>
<glyph d="M241.5 -56.5q-68.5 58.5 -106 164t-37.5 242.5q0 138 37.5 243.5t106 163.5t157.5 58v-125q-50 0 -89 -42.5t-60.5 -120t-21.5 -177.5t21.5 -177.5t60.5 -120t89 -42.5v-125q-89 0 -157.5 58.5z" glyph-name="parenleft" horiz-adv-x="500" unicode="("/>
<glyph d="M258.5 756.5q68.5 -58.5 106 -164t37.5 -242.5q0 -138 -37.5 -243.5t-106 -163.5t-157.5 -58v125q50 0 89 42.5t60.5 120t21.5 177.5t-21.5 177.5t-60.5 120t-89 42.5v125q89 0 157.5 -58.5z" glyph-name="parenright" horiz-adv-x="500" unicode=")"/>
<glyph d="M212 574h119l19 -69l-68 -20l-78 69l9 -100h-37l9 100l-77 -69l-69 20l19 69h119l-147 45v69l64 17l88 -105l-50 141l63 53l63 -53l-50 -141l88 105l64 -17v-69z" glyph-name="asterisk" horiz-adv-x="390" unicode="*"/>
<glyph d="M494 288h-151v-152h-125v152h-152v125h152v151h125v-151h151v-125z" glyph-name="plus" unicode="+"/>
<glyph d="M128 -5h-1q-34 10 -52 34.5t-18 54.5q0 38 26 67t68 29q40 0 68.5 -26t28.5 -71q0 -43 -24.5 -94.5t-57.5 -78.5h-77q26 37 39 85z" glyph-name="comma" horiz-adv-x="297" unicode=","/>
<glyph d="M66 363h282v-125h-282v125z" glyph-name="hyphen" horiz-adv-x="400" unicode="-"/>
<glyph d="M84.5 17.5q-27.5 27.5 -27.5 67.5q0 41 27.5 68t67.5 27q41 0 68 -27t27 -68q0 -40 -27 -67.5t-68 -27.5q-40 0 -67.5 27.5z" glyph-name="period" horiz-adv-x="304" unicode="."/>
<glyph d="M489 700l-338 -700h-136l338 700h136z" glyph-name="slash" horiz-adv-x="504" unicode="/"/>
<glyph d="M197.5 31.5q-71.5 46.5 -111.5 129.5t-40 189q0 104 40.5 187.5t112.5 130.5t162 47q91 0 162.5 -46.5t111.5 -129.5t40 -189q0 -104 -40.5 -187.5t-112 -130.5t-161.5 -47q-92 0 -163.5 46.5zM446.5 144q37.5 30 58.5 83.5t21 122.5t-21 122.5t-58.5 83.5t-85.5 30 t-85.5 -30t-58.5 -83.5t-21 -122.5t21 -122.5t58.5 -83.5t85.5 -30t85.5 30z" glyph-name="zero" horiz-adv-x="721" unicode="0"/>
<glyph d="M29 127h158v398l-146 -94v149l188 120h97v-573h143v-127h-440v127z" glyph-name="one" horiz-adv-x="471" unicode="1"/>
<glyph d="M36 0v120l237 140l36 23q-9 -3 -22.5 -4t-33.5 -1q-72 0 -123.5 30t-78 77.5t-26.5 100.5q0 61 34.5 113.5t100 84t154.5 31.5q83 0 148.5 -30t103 -82.5t37.5 -119.5q0 -71 -50.5 -136t-130.5 -111l-194 -113h239q2 0 2 2v72h144v-233h-144v36h-433zM416 400.5 q42 31.5 42 81.5q0 51 -41.5 83t-107.5 32t-106.5 -32t-40.5 -83q0 -50 40.5 -81.5t106.5 -31.5q65 0 107 31.5z" glyph-name="two" horiz-adv-x="629" unicode="2"/>
<glyph d="M147 263v-14q0 -60 41.5 -100t108.5 -40q61 0 97 32.5t36 80.5q0 47 -34 76.5t-84 29.5q-22 0 -42 -6t-33 -17l-7 -6l-63 86l230 188h-227q-2 0 -2 -2v-87h-125v252h125v-36h385v-129l-191 -158q9 1 29 1q51 0 93.5 -27t67.5 -73t25 -101q0 -66 -34 -118t-93 -81 t-133 -29q-53 0 -100.5 21t-68.5 55v-61h-126v263h125z" glyph-name="three" horiz-adv-x="601" unicode="3"/>
<glyph d="M358 117v85h-345v121l326 377h165v-379h46l2 1v49h104v-196h-104v27h-48v-85h99v-117h-366v117h121zM364 316v244l-213 -244h213z" glyph-name="four" horiz-adv-x="674" unicode="4"/>
<glyph d="M160 210v-6q4 -42 43 -68t89 -26q56 0 94.5 34.5t38.5 91.5q0 53 -38 86t-92 33q-41 0 -73.5 -15.5t-47.5 -44.5h-131l47 405h319q2 0 2 2v34h132v-216h-132v57h-208l-20 -156q62 40 141 40q70 0 127 -28.5t89.5 -80.5t32.5 -120q0 -70 -34.5 -125t-93 -86t-126.5 -31 q-50 0 -91 16t-69 47v-53h-126v210h127z" glyph-name="five" horiz-adv-x="601" unicode="5"/>
<glyph d="M190 29q-68 44 -106 125t-38 189q0 111 39 195.5t105.5 130.5t147.5 46q40 0 80 -13.5t66 -37.5v47h115v-215h-138v6q-2 35 -35 59t-86 24q-73 0 -115.5 -57t-42.5 -145v-7q32 40 80.5 63t106.5 23q80 0 139 -31.5t89.5 -84.5t30.5 -116t-34 -119.5t-98 -91t-149 -34.5 q-89 0 -157 44zM450 137.5q39 35.5 39 88.5q0 37 -19 66.5t-51 46.5t-69 17q-61 0 -100.5 -36t-39.5 -90q0 -32 18 -61.5t50.5 -48t74.5 -18.5q58 0 97 35.5z" glyph-name="six" horiz-adv-x="650" unicode="6"/>
<glyph d="M204 125l5 16q31 124 89 237.5t129 194.5h-271q-2 0 -2 -2v-115h-132v293h132v-49h422v-128q-158 -171 -226 -432q-2 -10 -4 -15h142v-125h-395v125h111z" glyph-name="seven" horiz-adv-x="585" unicode="7"/>
<glyph d="M177.5 11q-68.5 26 -106 74t-37.5 110q0 56 35.5 98t98.5 65q-54 23 -85 63t-31 90q0 60 35.5 106t99.5 71.5t148 25.5t148 -25.5t99.5 -71.5t35.5 -106q0 -50 -31 -90t-85 -63q63 -23 99 -65.5t36 -97.5q0 -62 -37.5 -110t-106 -74t-158.5 -26q-89 0 -157.5 26z M440.5 438q40.5 26 40.5 68q0 41 -40.5 67t-105.5 26t-105.5 -26t-40.5 -67q0 -42 40.5 -68t105.5 -26t105.5 26zM447.5 129.5q43.5 28.5 43.5 72.5t-43.5 71.5t-112.5 27.5t-112 -27.5t-43 -71.5t43 -72.5t112 -28.5t112.5 28.5z" glyph-name="eight" horiz-adv-x="670" unicode="8"/>
<glyph d="M460 671q68 -44 106 -125t38 -189q0 -111 -39 -195.5t-105.5 -130.5t-147.5 -46q-40 0 -79.5 13.5t-65.5 37.5v-47h-116v215h138v-6q2 -35 35 -59t86 -24q73 0 115.5 57t42.5 145v7q-32 -41 -80.5 -63.5t-106.5 -22.5q-80 0 -139 31.5t-89.5 84.5t-30.5 116t34 119.5 t98 91t149 34.5q89 0 157 -44zM201 562.5q-39 -35.5 -39 -88.5q0 -37 19 -66.5t50.5 -46.5t68.5 -17q62 0 101.5 36t39.5 90q0 32 -18 61.5t-51 48t-74 18.5q-58 0 -97 -35.5z" glyph-name="nine" horiz-adv-x="650" unicode="9"/>
<glyph d="M84.5 17.5q-27.5 27.5 -27.5 67.5q0 41 27.5 68t67.5 27q41 0 68 -27t27 -68q0 -40 -27 -67.5t-68 -27.5q-40 0 -67.5 27.5zM84.5 333.5q-27.5 27.5 -27.5 67.5q0 41 27.5 68t67.5 27q41 0 68 -27t27 -68q0 -40 -27 -67.5t-68 -27.5q-40 0 -67.5 27.5z" glyph-name="colon" horiz-adv-x="304" unicode=":"/>
<glyph d="M128 -5h-1q-34 10 -52 34.5t-18 54.5q0 38 26 67t68 29q40 0 68.5 -26t28.5 -71q0 -43 -24.5 -94.5t-57.5 -78.5h-77q26 37 39 85zM84.5 333.5q-27.5 27.5 -27.5 67.5q0 41 27.5 68t67.5 27q41 0 68 -27t27 -68q0 -40 -27 -67.5t-68 -27.5q-40 0 -67.5 27.5z" glyph-name="semicolon" horiz-adv-x="305" unicode=";"/>
<glyph d="M494 457l-224 -103l224 -104v-138l-428 197v82l428 198v-132z" glyph-name="less" unicode="&lt;"/>
<glyph d="M66 531h428v-125h-428v125zM66 295h428v-125h-428v125z" glyph-name="equal" unicode="="/>
<glyph d="M66 243l224 104l-224 103v139l428 -198v-82l-428 -197v131z" glyph-name="greater" unicode="&gt;"/>
<glyph d="M228 286q2 50 30 81t85 59q47 25 64 43t17 43q0 33 -30.5 52.5t-77.5 19.5q-54 0 -93 -32t-39 -86v-30h-137v287h132v-63q21 25 67.5 40t98.5 15q67 0 121 -24t85 -68t31 -103q0 -61 -38 -104t-118 -77q-36 -19 -51 -37t-15 -52h-130q-2 13 -2 36zM233.5 17.5 q-27.5 27.5 -27.5 67.5q0 41 27.5 68t67.5 27q41 0 68 -27t27 -68q0 -40 -27 -67.5t-68 -27.5q-40 0 -67.5 27.5z" glyph-name="question" horiz-adv-x="635" unicode="?"/>
<glyph d="M225 -119q-84 48 -132 132t-48 185t48 185t132 132t185 48t185 -48t132 -132t48 -185q0 -109 -56 -198h-219v64q-25 -34 -67.5 -53.5t-91.5 -19.5q-65 0 -100 31t-35 84q0 122 202 134q44 2 65 10t21 24q0 19 -20 32.5t-52 13.5q-31 0 -57 -15t-29 -36v-13l-85 1v160h83 v-34q42 30 105 30q75 0 119 -43t44 -117v-153h91q17 46 17 98q0 83 -39.5 152t-108.5 108.5t-152 39.5t-151.5 -39.5t-108 -108.5t-39.5 -152t39.5 -151.5t108 -108t151.5 -39.5q63 0 112 17.5t90 52.5l44 -48q-99 -88 -246 -88q-101 0 -185 48zM437.5 102q28.5 15 45.5 39 t17 49v4q-22 -14 -80 -19q-53 -5 -77 -17.5t-24 -35.5q0 -16 15.5 -25.5t42.5 -9.5q32 0 60.5 15z" glyph-name="at" horiz-adv-x="820" unicode="@"/>
<glyph d="M-24 139h83l164 421l-1 1h-98v139h359l202 -561h86v-139h-346v139h97l-33 92h-249l-35 -92h107v-139h-336v139zM450 347l-74 206h-17l-78 -206h169z" glyph-name="A" horiz-adv-x="747" unicode="A"/>
<glyph d="M119 139v422h-92v139h401q106 0 167.5 -48t61.5 -132q0 -57 -30 -99.5t-85 -62.5v-10q67 -17 103 -60.5t36 -107.5q0 -84 -61.5 -132t-168.5 -48h-424v139h92zM472.5 432q26.5 22 26.5 57t-26.5 56t-70.5 21h-137v-156h137q44 0 70.5 22zM494.5 155q26.5 21 26.5 56 q0 36 -27.5 57.5t-70.5 21.5h-158v-156h158q45 0 71.5 21z" glyph-name="B" horiz-adv-x="705" unicode="B"/>
<glyph d="M190 34q-77 46 -121.5 128.5t-44.5 187.5t44.5 187.5t121.5 128.5t170 46q50 0 93.5 -15.5t74.5 -42.5v70h139v-309h-144v22q-5 56 -50 94t-108 38q-53 0 -95.5 -28t-66.5 -78t-24 -113t24 -113t66.5 -78t95.5 -28q43 0 79 17.5t58.5 47.5t25.5 67v25h145v-300h-139v58 q-31 -27 -77 -42.5t-97 -15.5q-93 0 -170 46z" glyph-name="C" horiz-adv-x="717" unicode="C"/>
<glyph d="M516 656.5q90 -43.5 139.5 -123t49.5 -183.5t-49.5 -183.5t-139.5 -123t-209 -43.5h-280v139h92v422h-92v139h280q119 0 209 -43.5zM489 195.5q61 56.5 61 154.5t-61 154.5t-171 56.5h-53v-422h53q110 0 171 56.5z" glyph-name="D" horiz-adv-x="729" unicode="D"/>
<glyph d="M27 0v139h92v422h-92v139h470v49h139v-322h-139v134q0 2 -2 2h-236v-147h62l2 1v43h102v-219h-102v42q0 1 -2 1h-62v-148h257q2 0 2 2v136h142v-330h-139v56h-494z" glyph-name="E" horiz-adv-x="689" unicode="E"/>
<glyph d="M119 139v422h-92v139h467v49h139v-315h-139v125q0 2 -2 2h-227v-138h71q2 0 2 1v44h96v-222h-96v44l-2 1h-71v-152h169v-139h-407v139h92z" glyph-name="F" horiz-adv-x="658" unicode="F"/>
<glyph d="M540 58.5q-2 0.5 -3 -0.5q-32 -35 -79.5 -54t-108.5 -19q-89 0 -163.5 46.5t-118 129.5t-43.5 189t44 189t120 129.5t168 46.5q57 0 102.5 -18t76.5 -52v79h139v-274h-137v12q-9 43 -55 74.5t-108 31.5q-56 0 -100.5 -28t-69.5 -77.5t-25 -112.5q0 -64 25 -115.5 t69 -80.5t99 -29q43 0 79.5 15.5t59.5 41.5t28 56v28h-156v119h381v-132h-71v-258h-151v61q0 2 -2 2.5z" glyph-name="G" horiz-adv-x="773" unicode="G"/>
<glyph d="M27 139h92v422h-92v139h337v-139h-99v-147h290v147h-99v139h337v-139h-92v-422h92v-139h-337v139h99v147h-290v-147h99v-139h-337v139z" glyph-name="H" horiz-adv-x="820" unicode="H"/>
<glyph d="M27 139h92v422h-92v139h330v-139h-92v-422h92v-139h-330v139z" glyph-name="I" horiz-adv-x="384" unicode="I"/>
<glyph d="M153 322v-60q0 -53 33.5 -89.5t83.5 -36.5q51 0 79 34.5t28 91.5v299h-155v139h385v-139h-82v-316q0 -80 -28.5 -139t-79.5 -90t-117 -31q-49 0 -82 16t-64 47v-71h-138v345h137z" glyph-name="J" horiz-adv-x="613" unicode="J"/>
<glyph d="M27 139h92v422h-92v139h327v-139h-89v-148h108l116 148h-66v139h305v-139h-71l-154 -198l184 -224h61v-139h-327v139h75l-125 149h-106v-149h82v-139h-320v139z" glyph-name="K" horiz-adv-x="754" unicode="K"/>
<glyph d="M27 0v139h92v422h-92v139h371v-139h-133v-422h227q2 0 2 2v182h146v-379h-146v56h-467z" glyph-name="L" horiz-adv-x="660" unicode="L"/>
<glyph d="M27 139h91v422h-91v139h318l153 -515l153 515h316v-139h-90v-422h90v-139h-308v139h77v409h-5l-168 -548h-133l-168 548h-4v-409h77v-139h-308v139z" glyph-name="M" horiz-adv-x="994" unicode="M"/>
<glyph d="M259 490v-351h109v-139h-341v139h92v421l-1 1h-93v139h269l295 -455v316h-93v139h314v-139h-81v-569h-147z" glyph-name="N" horiz-adv-x="831" unicode="N"/>
<glyph d="M203 32.5q-84 47.5 -131.5 130.5t-47.5 187t47.5 187t131.5 130.5t188 47.5t188 -47.5t131.5 -130.5t47.5 -187t-47.5 -187t-131.5 -130.5t-188 -47.5t-188 47.5zM499.5 161.5q47.5 27.5 74.5 77t27 111.5t-27 111.5t-74.5 77t-108.5 27.5t-108.5 -27.5t-74.5 -77 t-27 -111.5t27 -111.5t74.5 -77t108.5 -27.5t108.5 27.5z" glyph-name="O" horiz-adv-x="782" unicode="O"/>
<glyph d="M119 139v422h-92v139h375q122 0 192 -58.5t70 -160.5t-70 -161t-192 -59h-137v-122h138v-139h-376v139h92zM478 403.5q31 25.5 31 69.5t-31 69.5t-83 25.5h-130v-190h130q52 0 83 25.5z" glyph-name="P" horiz-adv-x="680" unicode="P"/>
<glyph d="M317 -61v79q-85 14 -151.5 62t-104 121.5t-37.5 161.5q0 100 47.5 180t130 126t185.5 46t186 -46t130.5 -126t47.5 -180q0 -88 -37 -161t-103.5 -121.5t-151.5 -62.5v-79h127v-139h-397v139h128zM491.5 173.5q46.5 27.5 73 75t26.5 106.5t-26.5 106.5t-73 74.5t-104.5 27 q-57 0 -103.5 -27t-73 -74.5t-26.5 -106.5t26.5 -106.5t73 -75t103.5 -27.5q58 0 104.5 27.5z" glyph-name="Q" horiz-adv-x="775" unicode="Q"/>
<glyph d="M119 139v422h-92v139h381q117 0 185 -55t68 -150q0 -70 -36.5 -119t-103.5 -70l137 -167h72v-139h-325v139h69l-109 137h-100v-137h71v-139h-309v139h92zM474.5 411.5q30.5 24.5 30.5 65.5t-30.5 66t-81.5 25h-128v-181h128q51 0 81.5 24.5z" glyph-name="R" horiz-adv-x="711" unicode="R"/>
<glyph d="M169 267v-12q4 -38 33 -70.5t74 -51.5t95 -19q51 0 82.5 18.5t31.5 52.5q0 25 -21 42t-54.5 28.5t-99.5 29.5q-5 1 -20 5q-70 19 -121.5 42t-91 69t-39.5 118q0 64 32.5 108t86.5 66t121 22q61 0 113.5 -19t90.5 -54v71h138v-267h-136v10q-5 31 -32.5 61t-70 49.5 t-91.5 19.5q-46 0 -73 -19.5t-27 -54.5q0 -26 20 -43.5t51 -28.5t89 -26l23 -6q90 -25 139.5 -44.5t88 -62t38.5 -113.5q0 -66 -34 -111.5t-91.5 -68.5t-127.5 -23q-69 0 -125.5 22t-95.5 62v-75h-138v273h142z" glyph-name="S" horiz-adv-x="662" unicode="S"/>
<glyph d="M296 139v424h-133q-2 0 -2 -2v-145h-139v333h139v-49h417v49h139v-333h-139v145q0 2 -2 2h-134v-424h144v-139h-434v139h144z" glyph-name="T" horiz-adv-x="738" unicode="T"/>
<glyph d="M242.5 23q-69.5 38 -109 106.5t-39.5 155.5v276h-86v139h335v-139h-101v-271q0 -72 44 -117t115 -45q67 0 109 45t42 117v271h-101v139h335v-139h-86v-276q0 -87 -38.5 -155.5t-106.5 -106.5t-154 -38q-89 0 -158.5 38z" glyph-name="U" horiz-adv-x="794" unicode="U"/>
<glyph d="M35 561h-86v139h360v-139h-103l158 -421h7l157 421h-105v139h351v-139h-84l-216 -561h-223z" glyph-name="V" horiz-adv-x="723" unicode="V"/>
<glyph d="M50 561h-79v139h313v-139h-76l107 -422h7l105 394l-8 28h-70v139h313v-139h-82l115 -422h7l109 422h-78v139h311v-139h-79l-146 -561h-207l-105 389l-105 -389h-205z" glyph-name="W" horiz-adv-x="1015" unicode="W"/>
<glyph d="M-30 139h87l189 212l-188 210h-85v139h348v-139h-89l123 -145l124 145h-90v139h345v-139h-86l-187 -208l191 -214h85v-139h-350v139h88l-123 145l-123 -145h90v-139h-349v139z" glyph-name="X" horiz-adv-x="707" unicode="X"/>
<glyph d="M157 139h133v116l-235 306h-82v139h347v-139h-95l143 -193l143 193h-96v139h344v-139h-82l-234 -305v-117h133v-139h-419v139z" glyph-name="Y" horiz-adv-x="732" unicode="Y"/>
<glyph d="M396 563h-231q-2 0 -2 -2v-117h-135v305h139v-49h423v-125l-376 -438h254q2 0 2 2v131h143v-319h-143v49h-452v125z" glyph-name="Z" horiz-adv-x="634" unicode="Z"/>
<glyph d="M132 800h286v-125h-161v-650h161v-125h-286v900z" glyph-name="bracketleft" horiz-adv-x="500" unicode="["/>
<glyph d="M151 700l338 -700h-136l-338 700h136z" glyph-name="backslash" horiz-adv-x="504" unicode="\"/>
<glyph d="M82 -100v125h161v650h-161v125h286v-900h-286z" glyph-name="bracketright" horiz-adv-x="500" unicode="]"/>
<glyph d="M232 700h96l191 -332h-138l-101 177l-102 -177h-137z" glyph-name="asciicircum" unicode="^"/>
<glyph d="M30 20h422v-125h-422v125z" glyph-name="underscore" horiz-adv-x="482" unicode="_"/>
<glyph d="M68 29q-44 40 -44 107q0 76 66 114.5t181 44.5q105 5 105 43q0 29 -24 46t-62 17q-43 0 -74 -17.5t-34 -50.5v-16h-119v200h116v-48q25 19 59 30t74 11q92 0 144.5 -52.5t52.5 -144.5v-188h62v-125h-186v72q-31 -38 -83.5 -60.5t-113.5 -22.5q-76 0 -120 40zM307 118 q35 18 56 47.5t21 61.5v16q-25 -19 -97 -25q-64 -5 -95 -20.5t-31 -46.5q0 -24 19 -37.5t52 -13.5q40 0 75 18z" glyph-name="a" horiz-adv-x="590" unicode="a"/>
<glyph d="M285 6q-40 16 -67 45v-51h-119v575h-79v125h204v-247q26 27 65 42t85 15q67 0 121 -33.5t85 -93t31 -133.5q0 -75 -30 -134.5t-84 -92.5t-123 -33q-49 0 -89 16zM437 153.5q37 38.5 37 96.5t-37 96.5t-93 38.5q-54 0 -90.5 -38.5t-36.5 -96.5t36.5 -96.5t90.5 -38.5 q56 0 93 38.5z" glyph-name="b" horiz-adv-x="638" unicode="b"/>
<glyph d="M353 2.5q-35 -12.5 -76 -12.5q-70 0 -127 34t-90 93.5t-33 132.5t33 132.5t90 93.5t127 34q39 0 73 -11.5t58 -31.5v55h116v-224h-124v15q-7 31 -38.5 52.5t-71.5 21.5q-56 0 -93 -39.5t-37 -97.5t37 -97t93 -39q42 0 75 22t40 56v17h124v-220h-116v48q-25 -22 -60 -34.5 z" glyph-name="c" horiz-adv-x="577" unicode="c"/>
<glyph d="M142 23q-54 33 -84.5 91.5t-30.5 132.5q0 73 31 131t85 91.5t122 33.5q93 0 150 -57v129h-83v125h208v-575h75v-125h-189v55q-28 -30 -69.5 -47.5t-91.5 -17.5q-69 0 -123 33zM385.5 153.5q36.5 38.5 36.5 96.5t-36.5 96.5t-91.5 38.5q-56 0 -93 -38.5t-37 -96.5 t37 -96.5t93 -38.5q55 0 91.5 38.5z" glyph-name="d" horiz-adv-x="635" unicode="d"/>
<glyph d="M353.5 1.5q-35.5 -11.5 -77.5 -11.5q-70 0 -127 31t-89.5 88.5t-32.5 134.5q0 78 34.5 138.5t94.5 94t135 33.5q76 0 134.5 -33t91.5 -92t33 -135q0 -22 -3 -46h-391q11 -47 47.5 -75t89.5 -28q37 0 67 17t35 36v9h135v-174h-116v44q-25 -20 -60.5 -31.5zM371.5 370 q-35.5 28 -84.5 28q-48 0 -83.5 -28.5t-46.5 -73.5h261q-11 46 -46.5 74z" glyph-name="e" horiz-adv-x="587" unicode="e"/>
<glyph d="M96 125v250h-76v125h76v47q0 81 46.5 127t118.5 46q29 0 57.5 -8.5t44.5 -22.5v40h116v-191h-116v15q0 23 -22 38t-55 15t-52.5 -17t-19.5 -46v-43h193v-125h-186v-9v-241h113v-125h-314v125h76z" glyph-name="f" horiz-adv-x="394" unicode="f"/>
<glyph d="M131.5 -168q-71.5 42 -71.5 119q0 36 22.5 64t62.5 44q-65 11 -100.5 45t-35.5 83q0 34 23.5 63t64.5 33h4q-13 26 -13 58q0 67 51 109t149 51v54h-102v121h315v-121h-102v-54q97 -1 151 -46t54 -114q0 -78 -71 -123t-187 -45q-52 0 -84.5 8t-63.5 21q-32 13 -48 13 q-13 0 -21 -7t-8 -17q0 -27 28 -39.5t73 -17t138 -8.5q114 -4 182.5 -47.5t68.5 -119.5q0 -78 -75 -123.5t-203 -45.5q-130 0 -201.5 42zM437.5 295.5q33.5 17.5 33.5 46.5q0 31 -33.5 48t-91.5 17q-59 0 -92 -17t-33 -48q0 -29 33.5 -46.5t91.5 -17.5t91.5 17.5zM439 -86.5 q38 17.5 38 47.5q0 31 -37.5 49t-104.5 18q-66 0 -103.5 -18t-37.5 -49q0 -30 38 -47.5t103 -17.5q66 0 104 17.5z" glyph-name="g" horiz-adv-x="624" unicode="g"/>
<glyph d="M97 125v450h-79v125h204v-252q24 30 59.5 46t77.5 16q62 0 109.5 -28t73 -79.5t25.5 -119.5v-158h62v-125h-259v125h70v140q0 54 -30 87t-79 33q-47 0 -78 -34t-31 -86v-140h72v-125h-273v125h76z" glyph-name="h" horiz-adv-x="647" unicode="h"/>
<glyph d="M20 125h82v250h-82v125h207v-375h81v-125h-288v125zM47 745h196l-93 -188h-11z" glyph-name="i" horiz-adv-x="325" unicode="i"/>
<glyph d="M10 -29v-7q0 -26 18 -43t44 -17q25 0 41.5 18t16.5 47v143v263h-112v125h237v-548q0 -48 -20 -85t-53.5 -57t-71.5 -20q-27 0 -54 12.5t-42 31.5v-44h-115v181h111zM85 745h196l-93 -188h-11z" glyph-name="j" horiz-adv-x="325" unicode="j"/>
<glyph d="M22 125h76v450h-78v125h203v-399h70l72 86h-37v113h237v-125h-70l-94 -116l109 -134h79v-125h-263v113h39l-74 86h-68v-86h57v-113h-258v125z" glyph-name="k" horiz-adv-x="601" unicode="k"/>
<glyph d="M24 125h81v450h-85v125h210v-575h85v-125h-291v125z" glyph-name="l" horiz-adv-x="335" unicode="l"/>
<glyph d="M96 125v250h-76v125h189v-53q25 30 62 46.5t81 16.5q105 0 154 -83q24 39 67.5 61t96.5 22q101 0 158 -60t57 -167v-158h61v-125h-257v125h68v140q0 56 -27 88t-75 32q-44 0 -73.5 -34t-29.5 -86v-140h70v-125h-266v125h70v140q0 56 -27.5 88t-75.5 32q-44 0 -73 -34 t-29 -86v-140h68v-125h-269v125h76z" glyph-name="m" horiz-adv-x="965" unicode="m"/>
<glyph d="M96 125v250h-76v125h189v-55q26 31 64.5 48t84.5 17q62 0 109 -28t72.5 -79.5t25.5 -119.5v-158h63v-125h-262v125h73v140q0 54 -30 87t-80 33q-47 0 -77.5 -34t-30.5 -86v-140h72v-125h-273v125h76z" glyph-name="n" horiz-adv-x="646" unicode="n"/>
<glyph d="M159.5 23.5q-62.5 33.5 -97.5 92.5t-35 134q0 74 35.5 133.5t98 93t140.5 33.5q79 0 141.5 -33.5t97.5 -92.5t35 -134q0 -74 -35.5 -133.5t-98 -93t-140.5 -33.5q-79 0 -141.5 33.5zM399 153.5q39 38.5 39 96.5t-39 96.5t-98 38.5t-98 -38.5t-39 -96.5t39 -96.5t98 -38.5 t98 38.5z" glyph-name="o" horiz-adv-x="602" unicode="o"/>
<glyph d="M95 -75v450h-75v125h189v-56q27 31 68 48.5t91 17.5q69 0 124 -33.5t85.5 -92.5t30.5 -134q0 -74 -31 -133.5t-86 -93t-123 -33.5q-45 0 -83.5 15.5t-64.5 42.5v-130h130v-118h-330v125h75zM434 153.5q37 38.5 37 96.5t-37 96.5t-93 38.5q-55 0 -91.5 -38.5t-36.5 -96.5 t36.5 -96.5t91.5 -38.5q56 0 93 38.5z" glyph-name="p" horiz-adv-x="635" unicode="p"/>
<glyph d="M415 -82v130q-26 -27 -64.5 -42.5t-83.5 -15.5q-68 0 -123 33.5t-86 93t-31 133.5q0 75 30.5 134t85.5 92.5t124 33.5q50 0 91 -17.5t68 -48.5v56h189v-125h-75v-450h75v-125h-330v118h130zM385.5 153.5q36.5 38.5 36.5 96.5t-36.5 96.5t-91.5 38.5q-56 0 -93 -38.5 t-37 -96.5t37 -96.5t93 -38.5q55 0 91.5 38.5z" glyph-name="q" horiz-adv-x="635" unicode="q"/>
<glyph d="M96 125v250h-76v125h189v-53q14 27 40 43.5t56 16.5q48 0 80 -34v46h116v-246h-116v39q0 31 -22.5 52t-56.5 21t-59.5 -29t-25.5 -72v-159h116v-125h-317v125h76z" glyph-name="r" horiz-adv-x="520" unicode="r"/>
<glyph d="M132 189v-8q6 -40 48.5 -64.5t98.5 -24.5q35 0 56.5 11t21.5 32q0 16 -11 26t-37 17.5t-78 18.5q-91 19 -145 56t-54 108q0 72 52.5 110.5t133.5 38.5q79 0 136 -31v43h116v-205h-111v16q-5 28 -39 49t-77 21q-37 0 -57.5 -11t-20.5 -32q0 -23 25 -34t92 -26 q71 -16 114.5 -33.5t69 -49t25.5 -81.5q0 -74 -55 -112t-141 -38q-49 0 -90 12t-69 35v-37h-109v193h105z" glyph-name="s" horiz-adv-x="517" unicode="s"/>
<glyph d="M140 38.5q-41 41.5 -41 120.5v216h-99v125h48q29 0 44.5 16t15.5 44v60h116v-120h179v-125h-179v-191q0 -62 70 -62q42 0 109 13v-125q-78 -13 -140 -13q-82 0 -123 41.5z" glyph-name="t" horiz-adv-x="423" unicode="t"/>
<glyph d="M179 18q-47 28 -72.5 79.5t-25.5 119.5v158h-62v125h189v-265q0 -54 30 -87t79 -33q47 0 78 34t31 86v140h-89v125h289v-125h-75v-250h75v-125h-189v62q-25 -34 -63.5 -53t-85.5 -19q-62 0 -109 28z" glyph-name="u" horiz-adv-x="646" unicode="u"/>
<glyph d="M36 375h-64v125h277v-125h-68l102 -254h2l102 254h-68v125h271v-125h-63l-161 -375h-169z" glyph-name="v" horiz-adv-x="562" unicode="v"/>
<glyph d="M46 375h-56v125h231v-125h-41l64 -277h3l83 277h-59v125h261v-125h-57l81 -277h3l64 277h-43v125h233v-125h-56l-99 -375h-182l-75 259l-79 -259h-177z" glyph-name="w" horiz-adv-x="803" unicode="w"/>
<glyph d="M15 125h70l112 126l-111 124h-71v125h251v-107h-45l71 -85l72 85h-49v107h251v-125h-72l-110 -123l114 -127h68v-125h-252v107h48l-74 88l-74 -88h51v-107h-250v125z" glyph-name="x" horiz-adv-x="581" unicode="x"/>
<glyph d="M140 39v-53q0 -34 16 -54.5t39 -20.5t37 11t14 34v13q0 13 -3.5 23t-12.5 30l-181 353h-62v125h280v-125h-69l93 -192q5 -10 13 -32q4 -8 10 -24q0 3 1 6.5t2 5.5l95 236h-75v125h268v-125h-62l-142 -323q-9 -21 -13.5 -36.5t-4.5 -34.5v-26q0 -72 -42 -118t-108 -46 q-29 0 -53 11.5t-39 31.5v-37h-119v242h118z" glyph-name="y" horiz-adv-x="576" unicode="y"/>
<glyph d="M30 0v108l277 279h-151q-2 0 -2 -2v-81h-119v236h120v-40h317v-112l-269 -272h161q2 0 2 2v86h119v-246h-119v42h-336z" glyph-name="z" horiz-adv-x="515" unicode="z"/>
<glyph d="M190 -83q-43 32 -43 105q0 38 16 116q13 63 13 90q0 60 -54 60h-46v125h46q54 0 54 60q0 26 -13 89q-16 80 -16 116q0 73 43 105t114 32q55 0 112 -15v-126q-42 15 -76 15q-29 0 -45.5 -14.5t-16.5 -44.5q0 -14 8 -64q11 -66 11 -94q0 -51 -21.5 -80.5t-67.5 -41.5 q46 -12 67.5 -41t21.5 -80q0 -28 -11 -96q-8 -48 -8 -63q0 -30 16.5 -44.5t45.5 -14.5q34 0 76 15v-126q-57 -15 -112 -15q-71 0 -114 32z" glyph-name="braceleft" horiz-adv-x="500" unicode="{"/>
<glyph d="M132 800h125v-900h-125v900z" glyph-name="bar" horiz-adv-x="389" unicode="|"/>
<glyph d="M310 783q43 -32 43 -105q0 -38 -16 -116q-13 -63 -13 -90q0 -60 54 -60h46v-125h-46q-54 0 -54 -60q0 -26 13 -89q16 -80 16 -116q0 -73 -43 -105t-114 -32q-55 0 -112 15v126q42 -15 76 -15q29 0 45.5 14.5t16.5 44.5q0 14 -8 64q-11 66 -11 94q0 51 21.5 80.5 t67.5 41.5q-46 12 -67.5 41t-21.5 80q0 28 11 96q8 48 8 63q0 30 -16.5 44.5t-45.5 14.5q-34 0 -76 -15v126q57 15 112 15q71 0 114 -32z" glyph-name="braceright" horiz-adv-x="500" unicode="}"/>
<glyph d="M96 398.5q33 42.5 88 42.5q29 0 50.5 -8t46.5 -23q34 -19 55 -19q17 0 27 11t10 29h125q0 -82 -32.5 -124t-87.5 -42q-29 0 -51 8t-46 22q-19 10 -30.5 14.5t-24.5 4.5q-17 0 -27.5 -11t-10.5 -29h-125q0 82 33 124.5z" glyph-name="asciitilde" unicode="~"/>
<glyph glyph-name="uni00A0" horiz-adv-x="250" unicode=" "/>
<glyph d="M250.5 482.5q27.5 -27.5 27.5 -67.5t-27.5 -67.5t-67.5 -27.5t-67.5 27.5t-27.5 67.5q0 41 27.5 68t67.5 27t67.5 -27.5zM339 -61v-139h-313v139h92l13 299h104l12 -299h92z" glyph-name="exclamdown" horiz-adv-x="366" unicode="¡"/>
<glyph d="M167.5 136q-50.5 36 -79 92.5t-28.5 123.5q0 68 28.5 124.5t79 92t113.5 42.5v119h104v-131q32 -8 57 -30v55h116v-224h-125v15q-4 30 -37 52t-73 22q-55 0 -92 -39.5t-37 -97.5t37 -97t92 -39q42 0 76.5 24t38.5 54v17h124v-220h-116v48q-23 -25 -61 -34v-135h-104v123 q-63 7 -113.5 43z" glyph-name="cent" horiz-adv-x="700" unicode="¢"/>
<glyph d="M38.5 18.5q-39.5 33.5 -39.5 91.5q0 54 35.5 90t97.5 36q26 0 73 -17q-2 6 -2 11q-1 16 -18 50l-12 28h-130v84h85q-22 56 -22 106q0 66 28.5 115t79.5 76t118 27q94 0 157 -53v49h118v-247h-134v22q-4 47 -38.5 75.5t-79.5 28.5q-48 0 -77.5 -30t-29.5 -83q0 -33 20 -86 h233v-84h-202l7 -22q10 -30 15 -52t5 -44q0 -16 -1 -23q46 -26 77 -39.5t61 -13.5q71 0 71 87q0 21 -3 42h132q5 -29 5 -62q0 -104 -55.5 -150t-130.5 -46q-52 0 -100 20.5t-102 55.5q-25 -36 -64 -56t-81 -20q-57 0 -96.5 33.5zM175.5 86q19.5 11 30.5 29q-42 29 -77 29 q-16 0 -25.5 -9.5t-9.5 -25.5q0 -15 11 -24.5t30 -9.5q21 0 40.5 11z" glyph-name="sterling" horiz-adv-x="700" unicode="£"/>
<glyph d="M125 223q-34 58 -34 127t34 127l-94 94l98 98l94 -94q57 35 127 35t127 -35l94 94l98 -98l-94 -94q35 -57 35 -127t-35 -127l94 -94l-98 -98l-94 94q-58 -34 -127 -34t-127 34l-94 -94l-98 98zM436 265q35 35 35 85q0 51 -35 86t-86 35q-50 0 -85 -35t-35 -86 q0 -50 35 -85t85 -35q51 0 86 35z" glyph-name="currency" horiz-adv-x="700" unicode="¤"/>
<glyph d="M159 110h123v76h-238v84h223v10l-38 48h-185v84h124l-105 149h-76v139h319v-139h-86l132 -192l133 191l-88 1v139h316v-139h-76l-105 -149h124v-84h-185l-37 -48v-10h222v-84h-237v-76h123v-110h-383v110z" glyph-name="yen" horiz-adv-x="700" unicode="¥"/>
<glyph d="M132 800h125v-380h-125v380zM132 280h125v-380h-125v380z" glyph-name="brokenbar" horiz-adv-x="389" unicode="¦"/>
<glyph d="M172 -48q-76 52 -86 154h146q5 -40 39.5 -64t83.5 -24q39 0 69.5 13t30.5 41q0 21 -13 33t-36.5 18.5t-72.5 14.5q-89 16 -141.5 32.5t-87 49.5t-35.5 89q0 44 28.5 75t75.5 48q-67 38 -70 115q0 59 35 98t89.5 56.5t115.5 17.5q103 0 175 -49t83 -152h-145 q-9 40 -41 60.5t-76 20.5q-37 0 -65 -13t-28 -44q0 -28 29 -40t97 -24q89 -15 143 -31.5t88 -48.5t34 -85q0 -44 -28 -76t-75 -52q33 -18 50.5 -45t17.5 -68q0 -54 -33 -93t-89.5 -59t-124.5 -20q-107 0 -183 52zM459.5 257.5q30.5 16.5 30.5 45.5q0 24 -19.5 37t-51 20 t-92.5 15l-20 3q-37 -1 -66 -16.5t-29 -45.5q0 -35 46 -50.5t135 -25.5q36 1 66.5 17.5z" glyph-name="section" horiz-adv-x="700" unicode="§"/>
<glyph d="M225 33q-84 48 -132 132t-48 185t48 185t132 132t185 48t185 -48t132 -132t48 -185t-48 -185t-132 -132t-185 -48t-185 48zM563.5 87q69.5 40 109.5 109.5t40 153.5t-40 153.5t-109.5 109.5t-153.5 40t-153.5 -40t-109.5 -109.5t-40 -153.5t40 -153.5t109.5 -109.5 t153.5 -40t153.5 40zM450.5 154q-28.5 -10 -60.5 -10q-56 0 -102 27.5t-72 75t-26 105.5q0 59 26 106.5t72 74.5t102 27q33 0 61 -10t48 -27v31h93v-169h-100v12q-5 27 -31.5 45t-60.5 18q-44 0 -73 -30.5t-29 -77.5t29 -77.5t73 -30.5q34 0 60.5 18t31.5 46v12h100v-169 h-93v31q-20 -18 -48.5 -28z" glyph-name="copyright" horiz-adv-x="820" unicode="©"/>
<glyph d="M197 300l109 -200h-152l-106 194v12l106 194h152zM455 300l109 -200h-152l-106 194v12l106 194h152z" glyph-name="guillemotleft" horiz-adv-x="612" unicode="«"/>
<glyph d="M494 413v-277h-125v152h-303v125h428z" glyph-name="logicalnot" unicode="¬"/>
<glyph d="M138.5 378.5q-41.5 23.5 -65 65t-23.5 91.5t23.5 91.5t65 65t91.5 23.5t91.5 -23.5t65 -65t23.5 -91.5t-23.5 -91.5t-65 -65t-91.5 -23.5t-91.5 23.5zM311.5 396q36.5 21 57.5 57.5t21 81.5t-21 81.5t-57.5 57.5t-81.5 21t-81.5 -21t-57.5 -57.5t-21 -81.5t21 -81.5 t57.5 -57.5t81.5 -21t81.5 21zM158 483v114h-26v45h114q33 0 52.5 -16t19.5 -44q0 -20 -10 -34.5t-28 -21.5l34 -43h20v-45h-88v45h10l-28 37h-23v-37h25v-45h-98v45h26zM258.5 559q7.5 6 7.5 17t-7.5 17.5t-20.5 6.5h-33v-47h33q13 0 20.5 6z" glyph-name="registered" horiz-adv-x="460" unicode="®"/>
<glyph d="M105 438.5q-34 19.5 -53.5 53.5t-19.5 75t19.5 75t53.5 53.5t75 19.5t75 -19.5t53.5 -53.5t19.5 -75t-19.5 -75t-53.5 -53.5t-75 -19.5t-75 19.5zM226 521q19 19 19 46t-19 46t-46 19q-28 0 -46.5 -19t-18.5 -46t18.5 -46t46.5 -19q27 0 46 19z" glyph-name="degree" horiz-adv-x="359" unicode="°"/>
<glyph d="M343 498h151v-125h-151v-152h-125v152h-152v125h152v151h125v-151zM66 33v125h428v-125h-428z" glyph-name="plusminus" unicode="±"/>
<glyph d="M290 -61v361h-9q-62 0 -112.5 26.5t-79.5 72t-29 101.5t29 101.5t79.5 72t112.5 26.5h254v-139h-92v-622h92v-139h-376v139h131z" glyph-name="paragraph" horiz-adv-x="632" unicode="¶"/>
<glyph d="M84.5 234.5q-27.5 27.5 -27.5 67.5q0 41 27.5 68t67.5 27q41 0 68 -27t27 -68q0 -40 -27 -67.5t-68 -27.5q-40 0 -67.5 27.5z" glyph-name="periodcentered" horiz-adv-x="304" unicode="·"/>
<glyph d="M415 300l-109 200h152l106 -194v-12l-106 -194h-152zM157 300l-109 200h152l106 -194v-12l-106 -194h-152z" glyph-name="guillemotright" horiz-adv-x="612" unicode="»"/>
<glyph d="M389.5 482.5q27.5 -27.5 27.5 -67.5t-27.5 -67.5t-67.5 -27.5t-67.5 27.5t-27.5 67.5q0 41 27.5 68t67.5 27t67.5 -27.5zM395 214q-2 -50 -30 -81t-85 -59q-46 -24 -63.5 -42t-17.5 -41q0 -35 30 -55t77 -20q54 0 93 32t39 86v30h137v-287h-131v63q-21 -24 -68 -39.5 t-99 -15.5q-67 0 -121 24t-85 68t-31 103q0 61 38 104t118 77q36 19 51 37t15 52h130q3 -19 3 -36z" glyph-name="questiondown" horiz-adv-x="622" unicode="¿"/>
<glyph d="M-24 139h83l164 421l-1 1h-98v139h359l202 -561h86v-139h-346v139h97l-33 92h-249l-35 -92h107v-139h-336v139zM450 347l-74 206h-17l-78 -206h169zM280 785l-69 160h134l66 -160h-131z" glyph-name="Agrave" horiz-adv-x="747" unicode="À"/>
<glyph d="M-24 139h83l164 421l-1 1h-98v139h359l202 -561h86v-139h-346v139h97l-33 92h-249l-35 -92h107v-139h-336v139zM450 347l-74 206h-17l-78 -206h169zM369 945h134l-69 -160h-131z" glyph-name="Aacute" horiz-adv-x="747" unicode="Á"/>
<glyph d="M-24 139h83l164 421l-1 1h-98v139h359l202 -561h86v-139h-346v139h97l-33 92h-249l-35 -92h107v-139h-336v139zM450 347l-74 206h-17l-78 -206h169zM424 785l-67 81l-68 -81h-146l129 160h170l129 -160h-147z" glyph-name="Acircumflex" horiz-adv-x="747" unicode="Â"/>
<glyph d="M-24 139h83l164 421l-1 1h-98v139h359l202 -561h86v-139h-346v139h97l-33 92h-249l-35 -92h107v-139h-336v139zM450 347l-74 206h-17l-78 -206h169zM188 905.5q30 38.5 80 38.5q24 0 44.5 -7t43.5 -20l15 -7.5t20 -8t17 -2.5q15 0 24.5 10.5t9.5 28.5h114 q0 -75 -29.5 -113.5t-80.5 -38.5q-24 0 -42.5 7t-45.5 20q-17 9 -28.5 13.5t-22.5 4.5q-16 0 -25 -10.5t-9 -28.5h-115q0 75 30 113.5z" glyph-name="Atilde" horiz-adv-x="747" unicode="Ã"/>
<glyph d="M-24 139h83l164 421l-1 1h-98v139h359l202 -561h86v-139h-346v139h97l-33 92h-249l-35 -92h107v-139h-336v139zM450 347l-74 206h-17l-78 -206h169zM526 945l-84 -188h-10l-78 175l-78 -175h-10l-84 188h344z" glyph-name="Adieresis" horiz-adv-x="747" unicode="Ä"/>
<glyph d="M-24 139h83l164 421l-1 1h-98v139h359l202 -561h86v-139h-346v139h97l-33 92h-249l-35 -92h107v-139h-336v139zM450 347l-74 206h-17l-78 -206h169zM287.5 772.5q-31.5 18.5 -50 50t-18.5 68.5t18.5 69t50 50.5t68.5 18.5q38 0 70 -18.5t50.5 -50.5t18.5 -69t-18.5 -68.5 t-50.5 -50t-70 -18.5q-37 0 -68.5 18.5zM388.5 860q12.5 13 12.5 32q0 18 -12.5 31t-31.5 13t-31.5 -13t-12.5 -31q0 -19 12.5 -32t31.5 -13t31.5 13z" glyph-name="Aring" horiz-adv-x="747" unicode="Å"/>
<glyph d="M425 0v139h97l-33 92h-249l-35 -92h107v-139h-336v139h83l164 421l-1 1h-98v139h714v49h139v-322h-139v134q0 2 -2 2h-314l55 -147h105l2 1v43h94v-219h-94v42q0 1 -2 1h-60l55 -148h181q2 0 2 2v136h142v-330h-139v56h-438zM450 347l-74 206h-17l-78 -206h169z" glyph-name="AE" horiz-adv-x="1030" unicode="Æ"/>
<glyph d="M190 34q-77 46 -121.5 128.5t-44.5 187.5t44.5 187.5t121.5 128.5t170 46q50 0 93.5 -15.5t74.5 -42.5v70h139v-309h-144v22q-5 56 -50 94t-108 38q-53 0 -95.5 -28t-66.5 -78t-24 -113t24 -113t66.5 -78t95.5 -28q43 0 79 17.5t58.5 47.5t25.5 67v25h145v-300h-139v58 q-31 -27 -77 -42.5t-97 -15.5q-93 0 -170 46zM229 -245l69 160h131l-66 -160h-134z" glyph-name="Ccedilla" horiz-adv-x="717" unicode="Ç"/>
<glyph d="M27 0v139h92v422h-92v139h470v49h139v-322h-139v134q0 2 -2 2h-236v-147h62l2 1v43h102v-219h-102v42q0 1 -2 1h-62v-148h257q2 0 2 2v136h142v-330h-139v56h-494zM262 785l-69 160h134l66 -160h-131z" glyph-name="Egrave" horiz-adv-x="689" unicode="È"/>
<glyph d="M27 0v139h92v422h-92v139h470v49h139v-322h-139v134q0 2 -2 2h-236v-147h62l2 1v43h102v-219h-102v42q0 1 -2 1h-62v-148h257q2 0 2 2v136h142v-330h-139v56h-494zM351 945h134l-69 -160h-131z" glyph-name="Eacute" horiz-adv-x="689" unicode="É"/>
<glyph d="M27 0v139h92v422h-92v139h470v49h139v-322h-139v134q0 2 -2 2h-236v-147h62l2 1v43h102v-219h-102v42q0 1 -2 1h-62v-148h257q2 0 2 2v136h142v-330h-139v56h-494zM406 785l-67 81l-68 -81h-146l129 160h170l129 -160h-147z" glyph-name="Ecircumflex" horiz-adv-x="689" unicode="Ê"/>
<glyph d="M27 0v139h92v422h-92v139h470v49h139v-322h-139v134q0 2 -2 2h-236v-147h62l2 1v43h102v-219h-102v42q0 1 -2 1h-62v-148h257q2 0 2 2v136h142v-330h-139v56h-494zM508 945l-84 -188h-10l-78 175l-78 -175h-10l-84 188h344z" glyph-name="Edieresis" horiz-adv-x="689" unicode="Ë"/>
<glyph d="M27 139h92v422h-92v139h330v-139h-92v-422h92v-139h-330v139zM115 785l-69 160h134l66 -160h-131z" glyph-name="Igrave" horiz-adv-x="384" unicode="Ì"/>
<glyph d="M27 139h92v422h-92v139h330v-139h-92v-422h92v-139h-330v139zM204 945h134l-69 -160h-131z" glyph-name="Iacute" horiz-adv-x="384" unicode="Í"/>
<glyph d="M27 139h92v422h-92v139h330v-139h-92v-422h92v-139h-330v139zM259 785l-67 81l-68 -81h-146l129 160h170l129 -160h-147z" glyph-name="Icircumflex" horiz-adv-x="384" unicode="Î"/>
<glyph d="M27 139h92v422h-92v139h330v-139h-92v-422h92v-139h-330v139zM361 945l-84 -188h-10l-78 175l-78 -175h-10l-84 188h344z" glyph-name="Idieresis" horiz-adv-x="384" unicode="Ï"/>
<glyph d="M119 139v153h-89v116h89v153h-92v139h280q119 0 209 -43.5t139.5 -123t49.5 -183.5t-49.5 -183.5t-139.5 -123t-209 -43.5h-280v139h92zM489 195.5q61 56.5 61 154.5t-61 154.5t-171 56.5h-53v-153h120v-116h-120v-153h53q110 0 171 56.5z" glyph-name="Eth" horiz-adv-x="729" unicode="Ð"/>
<glyph d="M259 490v-351h109v-139h-341v139h92v421l-1 1h-93v139h269l295 -455v316h-93v139h314v-139h-81v-569h-147zM247 905.5q30 38.5 80 38.5q24 0 44.5 -7t43.5 -20l15 -7.5t20 -8t17 -2.5q15 0 24.5 10.5t9.5 28.5h114q0 -75 -29.5 -113.5t-80.5 -38.5q-24 0 -42.5 7 t-45.5 20q-17 9 -28.5 13.5t-22.5 4.5q-16 0 -25 -10.5t-9 -28.5h-115q0 75 30 113.5z" glyph-name="Ntilde" horiz-adv-x="831" unicode="Ñ"/>
<glyph d="M203 32.5q-84 47.5 -131.5 130.5t-47.5 187t47.5 187t131.5 130.5t188 47.5t188 -47.5t131.5 -130.5t47.5 -187t-47.5 -187t-131.5 -130.5t-188 -47.5t-188 47.5zM499.5 161.5q47.5 27.5 74.5 77t27 111.5t-27 111.5t-74.5 77t-108.5 27.5t-108.5 -27.5t-74.5 -77 t-27 -111.5t27 -111.5t74.5 -77t108.5 -27.5t108.5 27.5zM314 785l-69 160h134l66 -160h-131z" glyph-name="Ograve" horiz-adv-x="782" unicode="Ò"/>
<glyph d="M203 32.5q-84 47.5 -131.5 130.5t-47.5 187t47.5 187t131.5 130.5t188 47.5t188 -47.5t131.5 -130.5t47.5 -187t-47.5 -187t-131.5 -130.5t-188 -47.5t-188 47.5zM499.5 161.5q47.5 27.5 74.5 77t27 111.5t-27 111.5t-74.5 77t-108.5 27.5t-108.5 -27.5t-74.5 -77 t-27 -111.5t27 -111.5t74.5 -77t108.5 -27.5t108.5 27.5zM403 945h134l-69 -160h-131z" glyph-name="Oacute" horiz-adv-x="782" unicode="Ó"/>
<glyph d="M203 32.5q-84 47.5 -131.5 130.5t-47.5 187t47.5 187t131.5 130.5t188 47.5t188 -47.5t131.5 -130.5t47.5 -187t-47.5 -187t-131.5 -130.5t-188 -47.5t-188 47.5zM499.5 161.5q47.5 27.5 74.5 77t27 111.5t-27 111.5t-74.5 77t-108.5 27.5t-108.5 -27.5t-74.5 -77 t-27 -111.5t27 -111.5t74.5 -77t108.5 -27.5t108.5 27.5zM458 785l-67 81l-68 -81h-146l129 160h170l129 -160h-147z" glyph-name="Ocircumflex" horiz-adv-x="782" unicode="Ô"/>
<glyph d="M203 32.5q-84 47.5 -131.5 130.5t-47.5 187t47.5 187t131.5 130.5t188 47.5t188 -47.5t131.5 -130.5t47.5 -187t-47.5 -187t-131.5 -130.5t-188 -47.5t-188 47.5zM499.5 161.5q47.5 27.5 74.5 77t27 111.5t-27 111.5t-74.5 77t-108.5 27.5t-108.5 -27.5t-74.5 -77 t-27 -111.5t27 -111.5t74.5 -77t108.5 -27.5t108.5 27.5zM222 905.5q30 38.5 80 38.5q24 0 44.5 -7t43.5 -20l15 -7.5t20 -8t17 -2.5q15 0 24.5 10.5t9.5 28.5h114q0 -75 -29.5 -113.5t-80.5 -38.5q-24 0 -42.5 7t-45.5 20q-17 9 -28.5 13.5t-22.5 4.5q-16 0 -25 -10.5 t-9 -28.5h-115q0 75 30 113.5z" glyph-name="Otilde" horiz-adv-x="782" unicode="Õ"/>
<glyph d="M203 32.5q-84 47.5 -131.5 130.5t-47.5 187t47.5 187t131.5 130.5t188 47.5t188 -47.5t131.5 -130.5t47.5 -187t-47.5 -187t-131.5 -130.5t-188 -47.5t-188 47.5zM499.5 161.5q47.5 27.5 74.5 77t27 111.5t-27 111.5t-74.5 77t-108.5 27.5t-108.5 -27.5t-74.5 -77 t-27 -111.5t27 -111.5t74.5 -77t108.5 -27.5t108.5 27.5zM560 945l-84 -188h-10l-78 175l-78 -175h-10l-84 188h344z" glyph-name="Odieresis" horiz-adv-x="782" unicode="Ö"/>
<glyph d="M61 219l131 131l-131 131l88 89l131 -131l131 131l89 -89l-131 -131l131 -131l-89 -88l-131 131l-131 -131z" glyph-name="multiply" unicode="×"/>
<glyph d="M203 34l-29 -34h-150l88 105q-42 49 -65 111.5t-23 133.5q0 104 47.5 187t131.5 130.5t188 47.5q103 0 188 -49l30 34h149l-88 -105q42 -49 65 -111.5t23 -133.5q0 -104 -47.5 -187t-131.5 -130.5t-188 -47.5q-103 0 -188 49zM391 571q-62 0 -111 -28.5t-76.5 -78.5 t-27.5 -114q0 -70 34 -124l274 322q-40 23 -93 23zM502 157.5q49 28.5 76.5 78.5t27.5 114q0 70 -34 124l-274 -322q40 -23 93 -23q62 0 111 28.5z" glyph-name="Oslash" horiz-adv-x="782" unicode="Ø"/>
<glyph d="M242.5 23q-69.5 38 -109 106.5t-39.5 155.5v276h-86v139h335v-139h-101v-271q0 -72 44 -117t115 -45q67 0 109 45t42 117v271h-101v139h335v-139h-86v-276q0 -87 -38.5 -155.5t-106.5 -106.5t-154 -38q-89 0 -158.5 38zM320 785l-69 160h134l66 -160h-131z" glyph-name="Ugrave" horiz-adv-x="794" unicode="Ù"/>
<glyph d="M242.5 23q-69.5 38 -109 106.5t-39.5 155.5v276h-86v139h335v-139h-101v-271q0 -72 44 -117t115 -45q67 0 109 45t42 117v271h-101v139h335v-139h-86v-276q0 -87 -38.5 -155.5t-106.5 -106.5t-154 -38q-89 0 -158.5 38zM409 945h134l-69 -160h-131z" glyph-name="Uacute" horiz-adv-x="794" unicode="Ú"/>
<glyph d="M242.5 23q-69.5 38 -109 106.5t-39.5 155.5v276h-86v139h335v-139h-101v-271q0 -72 44 -117t115 -45q67 0 109 45t42 117v271h-101v139h335v-139h-86v-276q0 -87 -38.5 -155.5t-106.5 -106.5t-154 -38q-89 0 -158.5 38zM464 785l-67 81l-68 -81h-146l129 160h170 l129 -160h-147z" glyph-name="Ucircumflex" horiz-adv-x="794" unicode="Û"/>
<glyph d="M242.5 23q-69.5 38 -109 106.5t-39.5 155.5v276h-86v139h335v-139h-101v-271q0 -72 44 -117t115 -45q67 0 109 45t42 117v271h-101v139h335v-139h-86v-276q0 -87 -38.5 -155.5t-106.5 -106.5t-154 -38q-89 0 -158.5 38zM566 945l-84 -188h-10l-78 175l-78 -175h-10 l-84 188h344z" glyph-name="Udieresis" horiz-adv-x="794" unicode="Ü"/>
<glyph d="M157 139h133v116l-235 306h-82v139h347v-139h-95l143 -193l143 193h-96v139h344v-139h-82l-234 -305v-117h133v-139h-419v139zM378 945h134l-69 -160h-131z" glyph-name="Yacute" horiz-adv-x="732" unicode="Ý"/>
<glyph d="M119 139v422h-92v139h376v-124h-138v-57h174q102 0 159.5 -44.5t57.5 -124.5q0 -79 -58 -124t-159 -45h-174v-57h138v-124h-376v139h92zM483 299q21 18 21 47t-21 47t-57 18h-161v-130h161q36 0 57 18z" glyph-name="Thorn" horiz-adv-x="679" unicode="Þ"/>
<glyph d="M110 -75v450h-104v125h104v26q0 101 59 157.5t164 56.5q53 0 97.5 -16t69.5 -43v48h116v-325h-89q-12 3 -28 3q-25 0 -45.5 -11.5t-20.5 -31.5q0 -23 25.5 -35.5t87.5 -25.5q96 -22 144.5 -59t48.5 -101q0 -46 -27 -82t-70 -55.5t-89 -19.5q-84 0 -145 45v-35h-109v193 h106v-4q6 -41 41 -67.5t88 -27.5q33 0 54 13.5t21 38.5q0 20 -22 31.5t-84 25.5q-65 14 -106.5 31.5t-66 48.5t-24.5 81q0 66 47.5 104t118.5 43h15v22q0 37 -37.5 62t-100.5 25q-59 0 -92 -25t-33 -72q0 -10 4 -38q7 -49 7 -96v-467h126v-118h-355v125h104z" glyph-name="germandbls" horiz-adv-x="747" unicode="ß"/>
<glyph d="M68 29q-44 40 -44 107q0 76 66 114.5t181 44.5q105 5 105 43q0 29 -24 46t-62 17q-43 0 -74 -17.5t-34 -50.5v-16h-119v200h116v-48q25 19 59 30t74 11q92 0 144.5 -52.5t52.5 -144.5v-188h62v-125h-186v72q-31 -38 -83.5 -60.5t-113.5 -22.5q-76 0 -120 40zM307 118 q35 18 56 47.5t21 61.5v16q-25 -19 -97 -25q-64 -5 -95 -20.5t-31 -46.5q0 -24 19 -37.5t52 -13.5q40 0 75 18zM200 585l-69 160h134l66 -160h-131z" glyph-name="agrave" horiz-adv-x="590" unicode="à"/>
<glyph d="M68 29q-44 40 -44 107q0 76 66 114.5t181 44.5q105 5 105 43q0 29 -24 46t-62 17q-43 0 -74 -17.5t-34 -50.5v-16h-119v200h116v-48q25 19 59 30t74 11q92 0 144.5 -52.5t52.5 -144.5v-188h62v-125h-186v72q-31 -38 -83.5 -60.5t-113.5 -22.5q-76 0 -120 40zM307 118 q35 18 56 47.5t21 61.5v16q-25 -19 -97 -25q-64 -5 -95 -20.5t-31 -46.5q0 -24 19 -37.5t52 -13.5q40 0 75 18zM289 745h134l-69 -160h-131z" glyph-name="aacute" horiz-adv-x="590" unicode="á"/>
<glyph d="M68 29q-44 40 -44 107q0 76 66 114.5t181 44.5q105 5 105 43q0 29 -24 46t-62 17q-43 0 -74 -17.5t-34 -50.5v-16h-119v200h116v-48q25 19 59 30t74 11q92 0 144.5 -52.5t52.5 -144.5v-188h62v-125h-186v72q-31 -38 -83.5 -60.5t-113.5 -22.5q-76 0 -120 40zM307 118 q35 18 56 47.5t21 61.5v16q-25 -19 -97 -25q-64 -5 -95 -20.5t-31 -46.5q0 -24 19 -37.5t52 -13.5q40 0 75 18zM344 585l-67 81l-68 -81h-146l129 160h170l129 -160h-147z" glyph-name="acircumflex" horiz-adv-x="590" unicode="â"/>
<glyph d="M68 29q-44 40 -44 107q0 76 66 114.5t181 44.5q105 5 105 43q0 29 -24 46t-62 17q-43 0 -74 -17.5t-34 -50.5v-16h-119v200h116v-48q25 19 59 30t74 11q92 0 144.5 -52.5t52.5 -144.5v-188h62v-125h-186v72q-31 -38 -83.5 -60.5t-113.5 -22.5q-76 0 -120 40zM307 118 q35 18 56 47.5t21 61.5v16q-25 -19 -97 -25q-64 -5 -95 -20.5t-31 -46.5q0 -24 19 -37.5t52 -13.5q40 0 75 18zM108 705.5q30 38.5 80 38.5q24 0 44.5 -7t43.5 -20l15 -7.5t20 -8t17 -2.5q15 0 24.5 10.5t9.5 28.5h114q0 -75 -29.5 -113.5t-80.5 -38.5q-24 0 -42.5 7 t-45.5 20q-17 9 -28.5 13.5t-22.5 4.5q-16 0 -25 -10.5t-9 -28.5h-115q0 75 30 113.5z" glyph-name="atilde" horiz-adv-x="590" unicode="ã"/>
<glyph d="M68 29q-44 40 -44 107q0 76 66 114.5t181 44.5q105 5 105 43q0 29 -24 46t-62 17q-43 0 -74 -17.5t-34 -50.5v-16h-119v200h116v-48q25 19 59 30t74 11q92 0 144.5 -52.5t52.5 -144.5v-188h62v-125h-186v72q-31 -38 -83.5 -60.5t-113.5 -22.5q-76 0 -120 40zM307 118 q35 18 56 47.5t21 61.5v16q-25 -19 -97 -25q-64 -5 -95 -20.5t-31 -46.5q0 -24 19 -37.5t52 -13.5q40 0 75 18zM446 745l-84 -188h-10l-78 175l-78 -175h-10l-84 188h344z" glyph-name="adieresis" horiz-adv-x="590" unicode="ä"/>
<glyph d="M68 29q-44 40 -44 107q0 76 66 114.5t181 44.5q105 5 105 43q0 29 -24 46t-62 17q-43 0 -74 -17.5t-34 -50.5v-16h-119v200h116v-48q25 19 59 30t74 11q92 0 144.5 -52.5t52.5 -144.5v-188h62v-125h-186v72q-31 -38 -83.5 -60.5t-113.5 -22.5q-76 0 -120 40zM307 118 q35 18 56 47.5t21 61.5v16q-25 -19 -97 -25q-64 -5 -95 -20.5t-31 -46.5q0 -24 19 -37.5t52 -13.5q40 0 75 18zM207.5 572.5q-31.5 18.5 -50 50t-18.5 68.5t18.5 69t50 50.5t68.5 18.5q38 0 70 -18.5t50.5 -50.5t18.5 -69t-18.5 -68.5t-50.5 -50t-70 -18.5q-37 0 -68.5 18.5 zM308.5 660q12.5 13 12.5 32q0 18 -12.5 31t-31.5 13t-31.5 -13t-12.5 -31q0 -19 12.5 -32t31.5 -13t31.5 13z" glyph-name="aring" horiz-adv-x="590" unicode="å"/>
<glyph d="M701.5 1.5q-35.5 -11.5 -77.5 -11.5q-60 0 -109.5 25.5t-80.5 71.5q-37 -45 -94.5 -71.5t-123.5 -26.5q-94 0 -143 39.5t-49 107.5q0 76 66 114.5t181 44.5q105 5 105 43q0 29 -24 46t-62 17q-43 0 -74 -17.5t-34 -50.5v-16h-119v200h116v-48q25 19 59 30t74 11 q50 0 88.5 -18t62.5 -52q32 34 77 52t99 18q76 0 134.5 -33t91.5 -92t33 -135q0 -22 -3 -46h-391q11 -47 47.5 -75t89.5 -28q37 0 67 17t35 36v9h136v-174h-117v44q-25 -20 -60.5 -31.5zM719.5 370q-35.5 28 -84.5 28q-48 0 -83 -28.5t-46 -73.5h260q-11 46 -46.5 74z M307 118q35 18 56 47.5t21 61.5v16q-25 -19 -97 -25q-64 -5 -95 -20.5t-31 -46.5q0 -24 19 -37.5t52 -13.5q40 0 75 18z" glyph-name="ae" horiz-adv-x="935" unicode="æ"/>
<glyph d="M353 2.5q-35 -12.5 -76 -12.5q-70 0 -127 34t-90 93.5t-33 132.5t33 132.5t90 93.5t127 34q39 0 73 -11.5t58 -31.5v55h116v-224h-124v15q-7 31 -38.5 52.5t-71.5 21.5q-56 0 -93 -39.5t-37 -97.5t37 -97t93 -39q42 0 75 22t40 56v17h124v-220h-116v48q-25 -22 -60 -34.5 zM161 -245l69 160h131l-66 -160h-134z" glyph-name="ccedilla" horiz-adv-x="577" unicode="ç"/>
<glyph d="M353.5 1.5q-35.5 -11.5 -77.5 -11.5q-70 0 -127 31t-89.5 88.5t-32.5 134.5q0 78 34.5 138.5t94.5 94t135 33.5q76 0 134.5 -33t91.5 -92t33 -135q0 -22 -3 -46h-391q11 -47 47.5 -75t89.5 -28q37 0 67 17t35 36v9h135v-174h-116v44q-25 -20 -60.5 -31.5zM371.5 370 q-35.5 28 -84.5 28q-48 0 -83.5 -28.5t-46.5 -73.5h261q-11 46 -46.5 74zM211 585l-69 160h134l66 -160h-131z" glyph-name="egrave" horiz-adv-x="587" unicode="è"/>
<glyph d="M353.5 1.5q-35.5 -11.5 -77.5 -11.5q-70 0 -127 31t-89.5 88.5t-32.5 134.5q0 78 34.5 138.5t94.5 94t135 33.5q76 0 134.5 -33t91.5 -92t33 -135q0 -22 -3 -46h-391q11 -47 47.5 -75t89.5 -28q37 0 67 17t35 36v9h135v-174h-116v44q-25 -20 -60.5 -31.5zM371.5 370 q-35.5 28 -84.5 28q-48 0 -83.5 -28.5t-46.5 -73.5h261q-11 46 -46.5 74zM300 745h134l-69 -160h-131z" glyph-name="eacute" horiz-adv-x="587" unicode="é"/>
<glyph d="M353.5 1.5q-35.5 -11.5 -77.5 -11.5q-70 0 -127 31t-89.5 88.5t-32.5 134.5q0 78 34.5 138.5t94.5 94t135 33.5q76 0 134.5 -33t91.5 -92t33 -135q0 -22 -3 -46h-391q11 -47 47.5 -75t89.5 -28q37 0 67 17t35 36v9h135v-174h-116v44q-25 -20 -60.5 -31.5zM371.5 370 q-35.5 28 -84.5 28q-48 0 -83.5 -28.5t-46.5 -73.5h261q-11 46 -46.5 74zM355 585l-67 81l-68 -81h-146l129 160h170l129 -160h-147z" glyph-name="ecircumflex" horiz-adv-x="587" unicode="ê"/>
<glyph d="M353.5 1.5q-35.5 -11.5 -77.5 -11.5q-70 0 -127 31t-89.5 88.5t-32.5 134.5q0 78 34.5 138.5t94.5 94t135 33.5q76 0 134.5 -33t91.5 -92t33 -135q0 -22 -3 -46h-391q11 -47 47.5 -75t89.5 -28q37 0 67 17t35 36v9h135v-174h-116v44q-25 -20 -60.5 -31.5zM371.5 370 q-35.5 28 -84.5 28q-48 0 -83.5 -28.5t-46.5 -73.5h261q-11 46 -46.5 74zM457 745l-84 -188h-10l-78 175l-78 -175h-10l-84 188h344z" glyph-name="edieresis" horiz-adv-x="587" unicode="ë"/>
<glyph d="M20 125h82v250h-82v125h207v-375h81v-125h-288v125zM68 585l-69 160h134l66 -160h-131z" glyph-name="igrave" horiz-adv-x="325" unicode="ì"/>
<glyph d="M20 125h82v250h-82v125h207v-375h81v-125h-288v125zM157 745h134l-69 -160h-131z" glyph-name="iacute" horiz-adv-x="325" unicode="í"/>
<glyph d="M20 125h82v250h-82v125h207v-375h81v-125h-288v125zM212 585l-67 81l-68 -81h-146l129 160h170l129 -160h-147z" glyph-name="icircumflex" horiz-adv-x="325" unicode="î"/>
<glyph d="M20 125h82v250h-82v125h207v-375h81v-125h-288v125zM314 745l-84 -188h-10l-78 175l-78 -175h-10l-84 188h344z" glyph-name="idieresis" horiz-adv-x="325" unicode="ï"/>
<glyph d="M520 432.5q25 -41.5 40 -89.5t15 -93q0 -74 -35 -133t-97.5 -93t-142.5 -34q-77 0 -139.5 33.5t-98 92t-35.5 131.5t34.5 131t95.5 91.5t137 33.5q15 0 23 -1q-3 4 -7 12l-19 31h-150v96h91l-43 69h154l45 -69h128v-96h-66l41 -64q4 -7 29 -48.5zM395 157q38 38 38 93 q0 56 -38 94t-94 38q-55 0 -93 -38t-38 -94q0 -55 38 -93t93 -38q56 0 94 38z" glyph-name="eth" horiz-adv-x="602" unicode="ð"/>
<glyph d="M96 125v250h-76v125h189v-55q26 31 64.5 48t84.5 17q62 0 109 -28t72.5 -79.5t25.5 -119.5v-158h63v-125h-262v125h73v140q0 54 -30 87t-80 33q-47 0 -77.5 -34t-30.5 -86v-140h72v-125h-273v125h76zM152 705.5q30 38.5 80 38.5q24 0 44.5 -7t43.5 -20l15 -7.5t20 -8 t17 -2.5q15 0 24.5 10.5t9.5 28.5h114q0 -75 -29.5 -113.5t-80.5 -38.5q-24 0 -42.5 7t-45.5 20q-17 9 -28.5 13.5t-22.5 4.5q-16 0 -25 -10.5t-9 -28.5h-115q0 75 30 113.5z" glyph-name="ntilde" horiz-adv-x="646" unicode="ñ"/>
<glyph d="M159.5 23.5q-62.5 33.5 -97.5 92.5t-35 134q0 74 35.5 133.5t98 93t140.5 33.5q79 0 141.5 -33.5t97.5 -92.5t35 -134q0 -74 -35.5 -133.5t-98 -93t-140.5 -33.5q-79 0 -141.5 33.5zM399 153.5q39 38.5 39 96.5t-39 96.5t-98 38.5t-98 -38.5t-39 -96.5t39 -96.5t98 -38.5 t98 38.5zM224 585l-69 160h134l66 -160h-131z" glyph-name="ograve" horiz-adv-x="602" unicode="ò"/>
<glyph d="M159.5 23.5q-62.5 33.5 -97.5 92.5t-35 134q0 74 35.5 133.5t98 93t140.5 33.5q79 0 141.5 -33.5t97.5 -92.5t35 -134q0 -74 -35.5 -133.5t-98 -93t-140.5 -33.5q-79 0 -141.5 33.5zM399 153.5q39 38.5 39 96.5t-39 96.5t-98 38.5t-98 -38.5t-39 -96.5t39 -96.5t98 -38.5 t98 38.5zM313 745h134l-69 -160h-131z" glyph-name="oacute" horiz-adv-x="602" unicode="ó"/>
<glyph d="M159.5 23.5q-62.5 33.5 -97.5 92.5t-35 134q0 74 35.5 133.5t98 93t140.5 33.5q79 0 141.5 -33.5t97.5 -92.5t35 -134q0 -74 -35.5 -133.5t-98 -93t-140.5 -33.5q-79 0 -141.5 33.5zM399 153.5q39 38.5 39 96.5t-39 96.5t-98 38.5t-98 -38.5t-39 -96.5t39 -96.5t98 -38.5 t98 38.5zM368 585l-67 81l-68 -81h-146l129 160h170l129 -160h-147z" glyph-name="ocircumflex" horiz-adv-x="602" unicode="ô"/>
<glyph d="M159.5 23.5q-62.5 33.5 -97.5 92.5t-35 134q0 74 35.5 133.5t98 93t140.5 33.5q79 0 141.5 -33.5t97.5 -92.5t35 -134q0 -74 -35.5 -133.5t-98 -93t-140.5 -33.5q-79 0 -141.5 33.5zM399 153.5q39 38.5 39 96.5t-39 96.5t-98 38.5t-98 -38.5t-39 -96.5t39 -96.5t98 -38.5 t98 38.5zM132 705.5q30 38.5 80 38.5q24 0 44.5 -7t43.5 -20l15 -7.5t20 -8t17 -2.5q15 0 24.5 10.5t9.5 28.5h114q0 -75 -29.5 -113.5t-80.5 -38.5q-24 0 -42.5 7t-45.5 20q-17 9 -28.5 13.5t-22.5 4.5q-16 0 -25 -10.5t-9 -28.5h-115q0 75 30 113.5z" glyph-name="otilde" horiz-adv-x="602" unicode="õ"/>
<glyph d="M159.5 23.5q-62.5 33.5 -97.5 92.5t-35 134q0 74 35.5 133.5t98 93t140.5 33.5q79 0 141.5 -33.5t97.5 -92.5t35 -134q0 -74 -35.5 -133.5t-98 -93t-140.5 -33.5q-79 0 -141.5 33.5zM399 153.5q39 38.5 39 96.5t-39 96.5t-98 38.5t-98 -38.5t-39 -96.5t39 -96.5t98 -38.5 t98 38.5zM470 745l-84 -188h-10l-78 175l-78 -175h-10l-84 188h344z" glyph-name="odieresis" horiz-adv-x="602" unicode="ö"/>
<glyph d="M221.5 514q-23.5 24 -23.5 59t23.5 58.5t58.5 23.5t59 -23.5t24 -58.5t-24 -59t-59 -24t-58.5 24zM51 413h458v-125h-458v125zM221.5 69q-23.5 24 -23.5 59t24 58.5t58 23.5q35 0 59 -24t24 -58q0 -35 -24 -59t-59 -24t-58.5 24z" glyph-name="divide" unicode="÷"/>
<glyph d="M178 15l-12 -15h-132l60 73q-33 35 -50 80t-17 97q0 74 35.5 133.5t98 93t140.5 33.5q65 0 123 -25l12 15h132l-60 -73q33 -35 50 -80t17 -97q0 -74 -35.5 -133.5t-98 -93t-140.5 -33.5q-65 0 -123 25zM297 387q-59 0 -99 -39.5t-40 -97.5q0 -39 21 -71l160 201 q-17 7 -42 7zM404 152q40 39 40 98q0 39 -21 71l-160 -201q17 -7 41 -7q60 0 100 39z" glyph-name="oslash" horiz-adv-x="602" unicode="ø"/>
<glyph d="M179 18q-47 28 -72.5 79.5t-25.5 119.5v158h-62v125h189v-265q0 -54 30 -87t79 -33q47 0 78 34t31 86v140h-89v125h289v-125h-75v-250h75v-125h-189v62q-25 -34 -63.5 -53t-85.5 -19q-62 0 -109 28zM240 585l-69 160h134l66 -160h-131z" glyph-name="ugrave" horiz-adv-x="646" unicode="ù"/>
<glyph d="M179 18q-47 28 -72.5 79.5t-25.5 119.5v158h-62v125h189v-265q0 -54 30 -87t79 -33q47 0 78 34t31 86v140h-89v125h289v-125h-75v-250h75v-125h-189v62q-25 -34 -63.5 -53t-85.5 -19q-62 0 -109 28zM329 745h134l-69 -160h-131z" glyph-name="uacute" horiz-adv-x="646" unicode="ú"/>
<glyph d="M179 18q-47 28 -72.5 79.5t-25.5 119.5v158h-62v125h189v-265q0 -54 30 -87t79 -33q47 0 78 34t31 86v140h-89v125h289v-125h-75v-250h75v-125h-189v62q-25 -34 -63.5 -53t-85.5 -19q-62 0 -109 28zM384 585l-67 81l-68 -81h-146l129 160h170l129 -160h-147z" glyph-name="ucircumflex" horiz-adv-x="646" unicode="û"/>
<glyph d="M179 18q-47 28 -72.5 79.5t-25.5 119.5v158h-62v125h189v-265q0 -54 30 -87t79 -33q47 0 78 34t31 86v140h-89v125h289v-125h-75v-250h75v-125h-189v62q-25 -34 -63.5 -53t-85.5 -19q-62 0 -109 28zM486 745l-84 -188h-10l-78 175l-78 -175h-10l-84 188h344z" glyph-name="udieresis" horiz-adv-x="646" unicode="ü"/>
<glyph d="M140 39v-53q0 -34 16 -54.5t39 -20.5t37 11t14 34v13q0 13 -3.5 23t-12.5 30l-181 353h-62v125h280v-125h-69l93 -192q5 -10 13 -32q4 -8 10 -24q0 3 1 6.5t2 5.5l95 236h-75v125h268v-125h-62l-142 -323q-9 -21 -13.5 -36.5t-4.5 -34.5v-26q0 -72 -42 -118t-108 -46 q-29 0 -53 11.5t-39 31.5v-37h-119v242h118zM305 745h134l-69 -160h-131z" glyph-name="yacute" horiz-adv-x="576" unicode="ý"/>
<glyph d="M99 -75v653h-79v125h204v-257q26 30 65 47t85 17q69 0 123 -33.5t84.5 -92.5t30.5 -134q0 -74 -31 -133.5t-85 -93t-122 -33.5q-46 0 -85 17t-65 47v-136h130v-118h-330v125h75zM435.5 153.5q36.5 38.5 36.5 96.5t-36.5 96.5t-90.5 38.5q-55 0 -91.5 -38.5t-36.5 -96.5 t36.5 -96.5t91.5 -38.5q54 0 90.5 38.5z" glyph-name="thorn" horiz-adv-x="638" unicode="þ"/>
<glyph d="M20 125h82v250h-82v125h207v-375h81v-125h-288v125z" glyph-name="dotlessi" horiz-adv-x="325" unicode="ı"/>
<glyph d="M10 -29v-7q0 -26 18 -43t44 -17q25 0 41.5 18t16.5 47v143v263h-112v125h237v-548q0 -48 -20 -85t-53.5 -57t-71.5 -20q-27 0 -54 12.5t-42 31.5v-44h-115v181h111z" glyph-name="uni0237" horiz-adv-x="325" unicode="ȷ"/>
<glyph d="M-377 585l-69 160h134l66 -160h-131z" glyph-name="gravecomb" horiz-adv-x="0" unicode="̀"/>
<glyph d="M-288 745h134l-69 -160h-131z" glyph-name="acutecomb" horiz-adv-x="0" unicode="́"/>
<glyph d="M-233 585l-67 81l-68 -81h-146l129 160h170l129 -160h-147z" glyph-name="uni0302" horiz-adv-x="0" unicode="̂"/>
<glyph d="M-469 705.5q30 38.5 80 38.5q24 0 44.5 -7t43.5 -20l15 -7.5t20 -8t17 -2.5q15 0 24.5 10.5t9.5 28.5h114q0 -75 -29.5 -113.5t-80.5 -38.5q-24 0 -42.5 7t-45.5 20q-17 9 -28.5 13.5t-22.5 4.5q-16 0 -25 -10.5t-9 -28.5h-115q0 75 30 113.5z" glyph-name="tildecomb" horiz-adv-x="0" unicode="̃"/>
<glyph d="M-398 745h196l-93 -188h-11z" glyph-name="uni0307" horiz-adv-x="0" unicode="̇"/>
<glyph d="M-128 745l-84 -188h-10l-78 175l-78 -175h-10l-84 188h344z" glyph-name="uni0308" horiz-adv-x="0" unicode="̈"/>
<glyph d="M-369.5 572.5q-31.5 18.5 -50 50t-18.5 68.5t18.5 69t50 50.5t68.5 18.5q38 0 70 -18.5t50.5 -50.5t18.5 -69t-18.5 -68.5t-50.5 -50t-70 -18.5q-37 0 -68.5 18.5zM-268.5 660q12.5 13 12.5 32q0 18 -12.5 31t-31.5 13t-31.5 -13t-12.5 -31q0 -19 12.5 -32t31.5 -13 t31.5 13z" glyph-name="uni030A" horiz-adv-x="0" unicode="̊"/>
<glyph d="M-436 -245l69 160h131l-66 -160h-134z" glyph-name="uni0327" horiz-adv-x="0" unicode="̧"/>
<glyph d="M66 363h422v-125h-422v125z" glyph-name="endash" horiz-adv-x="540" unicode="–"/>
<glyph d="M197 350l109 -200h-152l-106 194v12l106 194h152zM455 350l109 -200h-152l-106 194v12l106 194h152z" glyph-name="guillemotleft.case" horiz-adv-x="612"/>
<glyph d="M415 350l-109 200h152l106 -194v-12l-106 -194h-152zM157 350l-109 200h152l106 -194v-12l-106 -194h-152z" glyph-name="guillemotright.case" horiz-adv-x="612"/>
<glyph d="M225 33q-84 48 -132 132t-48 185t48 185t132 132t185 48t185 -48t132 -132t48 -185q0 -109 -56 -198h-219v64q-25 -34 -67.5 -53.5t-91.5 -19.5q-65 0 -100 31t-35 84q0 122 202 134q44 2 65 10t21 24q0 19 -20 32.5t-52 13.5q-31 0 -57 -15t-29 -36v-13l-85 1v160h83 v-34q42 30 105 30q75 0 119 -43t44 -117v-153h91q17 46 17 98q0 83 -39.5 152t-108.5 108.5t-152 39.5t-151.5 -39.5t-108 -108.5t-39.5 -152t39.5 -151.5t108 -108t151.5 -39.5q63 0 112 17.5t90 52.5l44 -48q-99 -88 -246 -88q-101 0 -185 48zM437.5 254q28.5 15 45.5 39 t17 49v4q-22 -14 -80 -19q-53 -5 -77 -17.5t-24 -35.5q0 -16 15.5 -25.5t42.5 -9.5q32 0 60.5 15z" glyph-name="at.case" horiz-adv-x="820"/>
</font>
</defs>
</svg>
