<?xml version="1.0" encoding="UTF-8"?>
<!DOCTYPE svg  PUBLIC '-//W3C//DTD SVG 1.1//EN'  'http://www.w3.org/Graphics/SVG/1.1/DTD/svg11.dtd'>
<svg version="1.1" xmlns="http://www.w3.org/2000/svg">
<defs>
<font id="KyivTypeSans-Thin" horiz-adv-x="560">
<font-face font-family="KyivType Sans Thin" font-weight="100" ascent="800" bbox="-485 -245 984 1025" cap-height="700" descent="-200" panose-1="0 0 2 0 0 0 0 0 0 0" underline-position="-100" underline-thickness="50" unicode-range="U+0020-2013" units-per-em="1000" x-height="500"/>
<missing-glyph/>
<glyph glyph-name="space" horiz-adv-x="250" unicode=" "/>
<glyph d="M120 700h20l-1 -520h-18zM112.5 2.5q-7.5 7.5 -7.5 17.5q0 11 7.5 18t17.5 7q11 0 18 -7t7 -18q0 -10 -7 -17.5t-18 -7.5q-10 0 -17.5 7.5z" glyph-name="exclam" horiz-adv-x="260" unicode="!"/>
<glyph d="M55 710h30l-10 -160h-10zM205 710h30l-10 -160h-10z" glyph-name="quotedbl" horiz-adv-x="290" unicode='"'/>
<glyph d="M240 200h-150v20h150v260h-150v20h150v215h20v-215h180v215h20v-215h150v-20h-150v-260h150v-20h-150v-215h-20v215h-180v-215h-20v215zM440 220v260h-180v-260h180z" glyph-name="numbersign" horiz-adv-x="700" unicode="#"/>
<glyph d="M173 56q-73 65 -85 168h19q14 -101 86 -160t186 -59q109 0 169.5 43.5t60.5 122.5q0 58 -33.5 92t-83.5 49.5t-127 28.5q-81 13 -133 29t-88.5 52t-36.5 100q0 86 65 138.5t172 54.5v115h20v-115q110 -3 179 -66t80 -169h-20q-12 101 -78.5 158t-171.5 57q-67 0 -118 -21 t-79.5 -60.5t-28.5 -91.5q0 -55 32 -86.5t79.5 -45.5t127.5 -28q89 -17 139.5 -32.5t87 -53.5t36.5 -105q0 -88 -66 -137t-183 -49v-115h-20v115q-114 6 -187 71z" glyph-name="dollar" horiz-adv-x="700" unicode="$"/>
<glyph d="M119 406q-37 21 -58 58t-21 81t21 81t58 58t81 21t81 -21t58 -58t21 -81t-21 -81t-58 -58t-81 -21t-81 21zM558 700h22l-398 -700h-22zM271 423.5q32 18.5 50.5 50.5t18.5 71t-18.5 71t-50.5 50.5t-71 18.5t-71 -18.5t-50.5 -50.5t-18.5 -71t18.5 -71t50.5 -50.5 t71 -18.5t71 18.5zM459 16q-37 21 -58 58t-21 81t21 81t58 58t81 21t81 -21t58 -58t21 -81t-21 -81t-58 -58t-81 -21t-81 21zM611 33.5q32 18.5 50.5 50.5t18.5 71t-18.5 71t-50.5 50.5t-71 18.5t-71 -18.5t-50.5 -50.5t-18.5 -71t18.5 -71t50.5 -50.5t71 -18.5t71 18.5z " glyph-name="percent" horiz-adv-x="740" unicode="%"/>
<glyph d="M155 12q-55 27 -85 76t-30 113q0 61 30 107t85 71.5t128 25.5h8l-218 267v28h467v-20h-448l441 -541q60 89 72 221h20q-14 -143 -79 -236l101 -124h-26l-87 107q-45 -59 -109.5 -90.5t-141.5 -31.5q-73 0 -128 27zM417.5 35q60.5 30 103.5 87l-214 263h-24 q-102 0 -162.5 -50t-60.5 -134q0 -89 60.5 -142.5t162.5 -53.5q74 0 134.5 30z" glyph-name="ampersand" horiz-adv-x="690" unicode="&amp;"/>
<glyph d="M55 710h30l-10 -160h-10z" glyph-name="quotesingle" horiz-adv-x="140" unicode="'"/>
<glyph d="M230.5 -57.5q-55.5 57.5 -85.5 163t-30 244.5t30 244.5t85.5 163t129.5 57.5v-20q-67 0 -118 -55t-79 -156t-28 -234t28 -234t79 -156t118 -55v-20q-74 0 -129.5 57.5z" glyph-name="parenleft" horiz-adv-x="500" unicode="("/>
<glyph d="M269.5 757.5q55.5 -57.5 85.5 -163t30 -244.5t-30 -244.5t-85.5 -163t-129.5 -57.5v20q67 0 118 55t79 156t28 234t-28 234t-79 156t-118 55v20q74 0 129.5 -57.5z" glyph-name="parenright" horiz-adv-x="500" unicode=")"/>
<glyph d="M185 554l-77 -69l-69 20l19 69h119l-147 45v69l64 17l88 -105l-50 141l63 53l63 -53l-50 -141l88 105l64 -17v-69l-148 -45h119l19 -69l-68 -20l-78 69l9 -100h-37z" glyph-name="asterisk" horiz-adv-x="390" unicode="*"/>
<glyph d="M480 340h-190v-190h-20v190h-190v20h190v190h20v-190h190v-20z" glyph-name="plus" unicode="+"/>
<glyph d="M114 -4h-5q-10 0 -17 7t-7 17q0 11 7.5 18t17.5 7q11 0 18 -8t7 -21q0 -31 -15 -73t-32 -63h-20q43 65 46 116z" glyph-name="comma" horiz-adv-x="220" unicode=","/>
<glyph d="M80 310h240v-20h-240v20z" glyph-name="hyphen" horiz-adv-x="400" unicode="-"/>
<glyph d="M92.5 2.5q-7.5 7.5 -7.5 17.5q0 11 7.5 18t17.5 7q11 0 18 -7t7 -18q0 -10 -7 -17.5t-18 -7.5q-10 0 -17.5 7.5z" glyph-name="period" horiz-adv-x="220" unicode="."/>
<glyph d="M388 700h20l-338 -700h-20z" glyph-name="slash" horiz-adv-x="458" unicode="/"/>
<glyph d="M201 32q-66 47 -103.5 130.5t-37.5 187.5t37.5 187.5t103.5 130.5t149 47t149 -47t103.5 -130.5t37.5 -187.5t-37.5 -187.5t-103.5 -130.5t-149 -47t-149 47zM488.5 49.5q61.5 44.5 96.5 123t35 177.5t-35 177.5t-96.5 123t-138.5 44.5t-138.5 -44.5t-96.5 -123 t-35 -177.5t35 -177.5t96.5 -123t138.5 -44.5t138.5 44.5z" glyph-name="zero" horiz-adv-x="700" unicode="0"/>
<glyph d="M190 675l-170 -105v23l174 107h16v-700h-20v675z" glyph-name="one" horiz-adv-x="355" unicode="1"/>
<glyph d="M374 248q83 58 128 117q-35 -33 -86 -51.5t-113 -18.5q-75 0 -135 27t-94 74.5t-34 107.5t34 108t94 75.5t135 27.5t135 -27t94 -75t34 -109q0 -76 -49 -145.5t-131 -126.5l-304 -212h510v-20h-543v21zM428 339.5q55 24.5 86.5 67.5t31.5 97q0 55 -31 98.5t-86.5 68 t-125.5 24.5t-125 -24.5t-86.5 -68t-31.5 -98.5q0 -54 31.5 -97t86.5 -67.5t125 -24.5t125 24.5z" glyph-name="two" horiz-adv-x="597" unicode="2"/>
<glyph d="M144 12.5q-58 27.5 -91 76.5t-33 110h20q0 -56 30.5 -100t83.5 -69t120 -25t120 26t83.5 72.5t30.5 104.5q0 85 -52 136.5t-138 51.5q-36 0 -71 -9.5t-57 -25.5l-11 -8l-15 17l333 310h-466v20h488v-26l-303 -282q51 24 103 24q61 0 108.5 -26t74 -73t26.5 -107 q0 -64 -33 -115.5t-90.5 -80.5t-130.5 -29q-72 0 -130 27.5z" glyph-name="three" horiz-adv-x="555" unicode="3"/>
<glyph d="M434 199h-419v20l413 481h26v-481h173v-20h-173v-199h-20v199zM434 219v458l-393 -458h393z" glyph-name="four" horiz-adv-x="632" unicode="4"/>
<glyph d="M171 10q-57 25 -91.5 70t-39.5 104h20q5 -53 36.5 -93.5t84.5 -63t120 -22.5q72 0 127 28.5t85.5 79.5t30.5 117q0 62 -29 110t-81.5 74.5t-121.5 26.5q-83 0 -142 -32t-80 -86h-22l58 377h414v-20h-398l-48 -314q30 45 87 70t131 25t131.5 -29t89 -81.5t31.5 -120.5 q0 -72 -33 -127.5t-93 -86.5t-137 -31q-73 0 -130 25z" glyph-name="five" horiz-adv-x="608" unicode="5"/>
<glyph d="M197 30.5q-65 45.5 -101 128t-36 191.5q0 108 36.5 191t103 128.5t154.5 45.5q63 0 115.5 -23.5t86 -65t41.5 -94.5h-21q-12 72 -73.5 117.5t-148.5 45.5q-82 0 -144 -43t-96 -121t-34 -181q0 -46 6 -91q11 58 48 103t93 69.5t123 24.5q75 0 134.5 -31t93.5 -86t34 -124 q0 -63 -36 -116t-97 -83.5t-133 -30.5q-84 0 -149 45.5zM469.5 33q56.5 28 89.5 76.5t33 105.5q0 63 -31 113.5t-86.5 79t-124.5 28.5t-125.5 -28.5t-89 -76.5t-32.5 -104q0 -47 31 -99t86.5 -87.5t125.5 -35.5q67 0 123.5 28z" glyph-name="six" horiz-adv-x="662" unicode="6"/>
<glyph d="M272 254q47 128 116.5 238t146.5 188h-525v20h545v-27q-77 -77 -146 -185.5t-116 -235t-59 -252.5h-20q11 126 58 254z" glyph-name="seven" horiz-adv-x="565" unicode="7"/>
<glyph d="M196.5 10q-61.5 25 -96.5 68.5t-35 98.5q0 66 51.5 114.5t136.5 65.5q-80 17 -128 62.5t-48 107.5q0 52 33.5 94t92 65.5t132.5 23.5t132.5 -23.5t92 -65.5t33.5 -94q0 -62 -48 -107.5t-128 -62.5q85 -17 136.5 -65.5t51.5 -114.5q0 -55 -35 -98.5t-96.5 -68.5 t-138.5 -25t-138.5 25zM457.5 388q54.5 21 85 58t30.5 83t-30.5 82.5t-85 57.5t-122.5 21t-122.5 -21t-85 -57.5t-30.5 -82.5t30.5 -83t85 -58t122.5 -21t122.5 21zM463.5 27q57.5 22 89.5 61.5t32 87.5t-32 87.5t-89.5 61.5t-128.5 22t-128.5 -22t-89.5 -61.5t-32 -87.5 t32 -87.5t89.5 -61.5t128.5 -22t128.5 22z" glyph-name="eight" horiz-adv-x="670" unicode="8"/>
<glyph d="M465 669.5q65 -45.5 101 -128t36 -191.5q0 -108 -36.5 -191t-103 -128.5t-154.5 -45.5q-63 0 -115.5 23.5t-86 65t-41.5 94.5h21q12 -72 73.5 -117.5t148.5 -45.5q82 0 144 43t96 121t34 181q0 46 -6 91q-11 -58 -48 -103t-93 -69.5t-123 -24.5q-75 0 -134.5 31t-93.5 86 t-34 124q0 63 36 116t97 83.5t133 30.5q84 0 149 -45.5zM192.5 667q-56.5 -28 -89.5 -76.5t-33 -105.5q0 -63 31 -113.5t86.5 -79t124.5 -28.5t125.5 28.5t89 76.5t32.5 104q0 47 -31 99t-86.5 87.5t-125.5 35.5q-67 0 -123.5 -28z" glyph-name="nine" horiz-adv-x="662" unicode="9"/>
<glyph d="M92.5 2.5q-7.5 7.5 -7.5 17.5q0 11 7.5 18t17.5 7q11 0 18 -7t7 -18q0 -10 -7 -17.5t-18 -7.5q-10 0 -17.5 7.5zM92.5 402.5q-7.5 7.5 -7.5 17.5q0 11 7.5 18t17.5 7q11 0 18 -7t7 -18q0 -10 -7 -17.5t-18 -7.5q-10 0 -17.5 7.5z" glyph-name="colon" horiz-adv-x="220" unicode=":"/>
<glyph d="M114 -4h-5q-10 0 -17 7t-7 17q0 11 7.5 18t17.5 7q11 0 18 -8t7 -21q0 -31 -15 -73t-32 -63h-20q43 65 46 116zM92.5 402.5q-7.5 7.5 -7.5 17.5q0 11 7.5 18t17.5 7q11 0 18 -7t7 -18q0 -10 -7 -17.5t-18 -7.5q-10 0 -17.5 7.5z" glyph-name="semicolon" horiz-adv-x="220" unicode=";"/>
<glyph d="M480 527l-375 -177l375 -177v-23l-400 190v20l400 190v-23z" glyph-name="less" unicode="&lt;"/>
<glyph d="M80 450h400v-20h-400v20zM80 270h400v-20h-400v20z" glyph-name="equal" unicode="="/>
<glyph d="M80 173l375 177l-375 177v23l400 -190v-20l-400 -190v23z" glyph-name="greater" unicode="&gt;"/>
<glyph d="M249 184q0 48 15 82.5t37.5 58t56.5 49.5q35 28 53.5 47t32 47t13.5 66q0 77 -53.5 119t-134.5 42q-97 0 -147.5 -60t-47.5 -157h-19q-3 70 22 124t75 83.5t118 29.5q57 0 104 -21t75 -62t28 -99t-24 -92t-63 -66q-43 -35 -67.5 -59.5t-39.5 -57.5t-15 -78h-19v4z M247.5 2.5q-7.5 7.5 -7.5 17.5q0 11 7.5 18t17.5 7q11 0 18 -7t7 -18q0 -10 -7 -17.5t-18 -7.5q-10 0 -17.5 7.5z" glyph-name="question" horiz-adv-x="547" unicode="?"/>
<glyph d="M225 -119q-84 48 -132 132t-48 185t48 185t132 132t185 48t185 -48t132 -132t48 -185q0 -112 -56 -198h-159v118q-21 -58 -76 -93t-125 -35q-58 0 -93.5 28t-35.5 74q0 60 53 89.5t178 37.5q55 4 77 14t22 32q0 34 -18.5 64t-51.5 47.5t-75 17.5q-62 0 -103.5 -34.5 t-51.5 -96.5h-20q11 71 57.5 111t117.5 40q75 0 120 -44t45 -117v-233h128q47 80 47 178q0 96 -45.5 175t-124.5 124.5t-175 45.5t-175 -45.5t-124.5 -124.5t-45.5 -175t45.5 -175t124.5 -124.5t175 -45.5q70 0 133 25t111 72l14 -13q-50 -50 -117 -77t-141 -27 q-101 0 -185 48zM462 33.5q45 23.5 71.5 64t26.5 90.5v36q-18 -11 -45 -17t-72 -8q-99 -6 -146 -31.5t-47 -72.5q0 -40 29.5 -62.5t82.5 -22.5q55 0 100 23.5z" glyph-name="at" horiz-adv-x="820" unicode="@"/>
<glyph d="M319 700h26l304 -700h-22l-100 230h-391l-100 -230h-21zM519 249l-187 432l-188 -432h375z" glyph-name="A" horiz-adv-x="664" unicode="A"/>
<glyph d="M376 700q106 0 166.5 -48t60.5 -132q0 -63 -35 -105.5t-102 -59.5v-4q81 -13 123.5 -57.5t42.5 -113.5q0 -84 -60.5 -132t-166.5 -48h-265v700h236zM528.5 402.5q54.5 42.5 54.5 117.5t-54.5 117.5t-152.5 42.5h-216v-320h216q98 0 152.5 42.5zM557.5 62.5 q54.5 42.5 54.5 117.5t-55.5 117.5t-151.5 42.5h-245v-320h245q98 0 152.5 42.5z" glyph-name="B" horiz-adv-x="697" unicode="B"/>
<glyph d="M243.5 31.5q-81.5 46.5 -127.5 129.5t-46 189t46 189t127.5 129.5t184.5 46.5q89 0 160 -34.5t116.5 -97.5t58.5 -148h-20q-20 120 -104.5 190t-210.5 70q-98 0 -175 -43.5t-120 -122t-43 -179.5q0 -100 43 -178.5t120 -122.5t175 -44q126 0 210.5 70t104.5 190h20 q-13 -85 -58.5 -148t-116.5 -97.5t-160 -34.5q-103 0 -184.5 46.5z" glyph-name="C" horiz-adv-x="828" unicode="C"/>
<glyph d="M335 700q107 0 190 -44.5t129 -124t46 -181.5t-46 -181.5t-129 -124t-190 -44.5h-195v700h195zM514.5 61.5q78.5 41.5 122 116.5t43.5 172t-43.5 172t-122 116.5t-179.5 41.5h-175v-660h175q101 0 179.5 41.5z" glyph-name="D" horiz-adv-x="770" unicode="D"/>
<glyph d="M140 700h370v-20h-350v-320h264v-20h-264v-320h400v-20h-420v700z" glyph-name="E" horiz-adv-x="590" unicode="E"/>
<glyph d="M140 700h390v-20h-370v-320h284v-20h-284v-340h-20v700z" glyph-name="F" horiz-adv-x="535" unicode="F"/>
<glyph d="M243.5 31.5q-81.5 46.5 -127.5 129.5t-46 189t46 189t127.5 129.5t184.5 46.5q87 0 157 -33t116 -94t61 -143h-21q-22 115 -106 182.5t-207 67.5q-98 0 -175 -43.5t-120 -122t-43 -179.5q0 -100 43 -178.5t120 -122.5t175 -44q91 0 164 40.5t114 112t41 162.5v20h-301v20 h321v-360h-20v209q-32 -104 -117.5 -164t-201.5 -60q-103 0 -184.5 46.5z" glyph-name="G" horiz-adv-x="850" unicode="G"/>
<glyph d="M140 700h20v-340h500v340h20v-700h-20v340h-500v-340h-20v700z" glyph-name="H" horiz-adv-x="820" unicode="H"/>
<glyph d="M140 700h20v-700h-20v700z" glyph-name="I" horiz-adv-x="300" unicode="I"/>
<glyph d="M152 16q-53 31 -82.5 88t-29.5 132v34h20v-34q0 -70 27 -122t75.5 -80.5t111.5 -28.5q94 0 149 62.5t55 168.5v464h20v-464q0 -75 -27.5 -132t-78.5 -88t-118 -31q-69 0 -122 31z" glyph-name="J" horiz-adv-x="618" unicode="J"/>
<glyph d="M140 700h20v-340h142l296 340h26l-305 -350l305 -350h-27l-296 340h-141v-340h-20v700z" glyph-name="K" horiz-adv-x="664" unicode="K"/>
<glyph d="M140 700h20v-680h390v-20h-410v700z" glyph-name="L" horiz-adv-x="590" unicode="L"/>
<glyph d="M140 700h32l316 -682l315 682h31v-700h-20v678l-314 -678h-26l-314 678v-678h-20v700z" glyph-name="M" horiz-adv-x="974" unicode="M"/>
<glyph d="M140 700h24l516 -672v672h20v-700h-23l-517 672v-672h-20v700z" glyph-name="N" horiz-adv-x="840" unicode="N"/>
<glyph d="M246 32.5q-82 47.5 -129 131t-47 186.5t47 186.5t129 131t184 47.5t184 -47.5t129 -131t47 -186.5t-47 -186.5t-129 -131t-184 -47.5t-184 47.5zM603.5 50q77.5 45 122 123.5t44.5 176.5t-44.5 176.5t-122 123.5t-173.5 45t-173.5 -45t-122 -123.5t-44.5 -176.5 t44.5 -176.5t122 -123.5t173.5 -45t173.5 45z" glyph-name="O" horiz-adv-x="860" unicode="O"/>
<glyph d="M317 700q118 0 185.5 -53.5t67.5 -146.5t-67.5 -146.5t-185.5 -53.5h-157v-300h-20v700h177zM488.5 368q61.5 48 61.5 132t-61.5 132t-171.5 48h-157v-360h157q110 0 171.5 48z" glyph-name="P" horiz-adv-x="630" unicode="P"/>
<glyph d="M241 35.5q-80 48.5 -125.5 130.5t-45.5 184q0 103 47 186.5t129 131t184 47.5t184 -47.5t129 -131t47 -186.5q0 -102 -45.5 -184t-125.5 -130.5t-179 -50.5v-185h-20v185q-99 2 -179 50.5zM603.5 50q77.5 45 122 123.5t44.5 176.5t-44.5 176.5t-122 123.5t-173.5 45 t-173.5 -45t-122 -123.5t-44.5 -176.5t44.5 -176.5t122 -123.5t173.5 -45t173.5 45z" glyph-name="Q" horiz-adv-x="860" unicode="Q"/>
<glyph d="M317 700q118 0 185.5 -53.5t67.5 -146.5q0 -81 -52 -132.5t-144 -63.5l265 -304h-27l-263 301q-10 -1 -32 -1h-157v-300h-20v700h177zM488.5 368q61.5 48 61.5 132t-61.5 132t-171.5 48h-157v-360h157q110 0 171.5 48z" glyph-name="R" horiz-adv-x="659" unicode="R"/>
<glyph d="M192 15q-63 30 -100.5 84t-46.5 125h19q14 -101 86 -160t186 -59q109 0 169.5 43.5t60.5 122.5q0 58 -33.5 92t-83.5 49.5t-127 28.5q-81 13 -133 29t-88.5 52t-36.5 100q0 58 31 102t86.5 67.5t128.5 23.5q114 0 186.5 -63.5t83.5 -171.5h-20q-12 101 -78.5 158 t-171.5 57q-67 0 -118 -21t-79.5 -60.5t-28.5 -91.5q0 -55 32 -86.5t79.5 -45.5t127.5 -28q89 -17 139.5 -32.5t87 -53.5t36.5 -105q0 -88 -66.5 -137t-183.5 -49q-81 0 -144 30z" glyph-name="S" horiz-adv-x="640" unicode="S"/>
<glyph d="M310 680h-290v20h600v-20h-290v-680h-20v680z" glyph-name="T" horiz-adv-x="640" unicode="T"/>
<glyph d="M257.5 23.5q-65.5 38.5 -101.5 108.5t-36 164v404h20v-404q0 -88 33 -154t94 -101.5t143 -35.5t143 35.5t94 101.5t33 154v404h20v-404q0 -94 -36 -164t-101.5 -108.5t-152.5 -38.5t-152.5 38.5z" glyph-name="U" horiz-adv-x="820" unicode="U"/>
<glyph d="M25 700h22l294 -677h3l294 677h21l-304 -700h-26z" glyph-name="V" horiz-adv-x="684" unicode="V"/>
<glyph d="M40 700h21l222 -680l218 680h21l218 -680l222 680h20l-229 -700h-28l-214 669l-214 -669h-28z" glyph-name="W" horiz-adv-x="1022" unicode="W"/>
<glyph d="M317 356l-282 344h26l269 -328l269 328h26l-282 -344l292 -356h-26l-279 340l-279 -340h-26z" glyph-name="X" horiz-adv-x="660" unicode="X"/>
<glyph d="M313 274l-308 426h25l294 -406l293 406h24l-308 -426v-274h-20v274z" glyph-name="Y" horiz-adv-x="646" unicode="Y"/>
<glyph d="M50 20l504 660h-483v20h508v-20l-504 -660h507v-20h-532v20z" glyph-name="Z" horiz-adv-x="622" unicode="Z"/>
<glyph d="M160 800h230v-20h-210v-860h210v-20h-230v900z" glyph-name="bracketleft" horiz-adv-x="500" unicode="["/>
<glyph d="M50 700h20l338 -700h-20z" glyph-name="backslash" horiz-adv-x="458" unicode="\"/>
<glyph d="M340 -100h-230v20h210v860h-210v20h230v-900z" glyph-name="bracketright" horiz-adv-x="500" unicode="]"/>
<glyph d="M270 700h20l167 -290h-23l-154 267l-154 -267h-23z" glyph-name="asciicircum" unicode="^"/>
<glyph d="M30 0h380v-20h-380v20z" glyph-name="underscore" horiz-adv-x="440" unicode="_"/>
<glyph d="M101 23q-41 35 -41 94q0 82 74 113t189 39q70 4 106.5 14t36.5 35q0 76 -50.5 124t-130.5 48q-78 0 -128.5 -44t-64.5 -122h-20q14 86 70.5 136t142.5 50q91 0 146 -54t55 -144v-292h80v-20h-99v145q-26 -71 -94 -114t-153 -43q-78 0 -119 35zM346 38q56 30 88 81t32 112 l1 50q-17 -14 -51.5 -21t-91.5 -10q-128 -9 -186 -40.5t-58 -92.5q0 -52 37.5 -80.5t102.5 -28.5q70 0 126 30z" glyph-name="a" horiz-adv-x="606" unicode="a"/>
<glyph d="M218.5 34q-61.5 44 -88.5 117v-151h-20v710h20v-361q27 73 88.5 117t143.5 44q69 0 126 -34.5t89.5 -94t32.5 -131.5t-32.5 -131.5t-89.5 -94t-126 -34.5q-82 0 -143.5 44zM476.5 41.5q52.5 31.5 83 86.5t30.5 122t-30.5 122t-83 86.5t-116.5 31.5t-116.5 -31.5 t-83 -86.5t-30.5 -122t30.5 -122t83 -86.5t116.5 -31.5t116.5 31.5z" glyph-name="b" horiz-adv-x="665" unicode="b"/>
<glyph d="M180.5 24q-58.5 34 -92 93.5t-33.5 132.5t33.5 132.5t92 93.5t130.5 34q98 0 162 -51t81 -140h-20q-17 80 -76 125.5t-147 45.5q-66 0 -120 -31.5t-85 -86.5t-31 -122t31 -122t85 -86.5t120 -31.5q88 0 147 45.5t76 125.5h20q-17 -89 -81 -140t-162 -51q-72 0 -130.5 34z " glyph-name="c" horiz-adv-x="604" unicode="c"/>
<glyph d="M177 24.5q-57 34.5 -89.5 94t-32.5 131.5t32.5 131.5t89.5 94t126 34.5q82 0 143.5 -44t88.5 -117v361h20v-710h-20v151q-27 -73 -88.5 -117t-143.5 -44q-69 0 -126 34.5zM421.5 41.5q52.5 31.5 83 86.5t30.5 122t-30.5 122t-83 86.5t-116.5 31.5t-116.5 -31.5t-83 -86.5 t-30.5 -122t30.5 -122t83 -86.5t116.5 -31.5t116.5 31.5z" glyph-name="d" horiz-adv-x="665" unicode="d"/>
<glyph d="M182 24.5q-59 34.5 -93 94t-34 131.5t34 131.5t93 94t130 34.5t130 -34.5t92.5 -94t33.5 -131.5v-10h-493q2 -65 34 -117.5t85 -82.5t118 -30q77 0 135.5 36.5t79.5 96.5h21q-22 -69 -86.5 -111t-149.5 -42q-71 0 -130 34.5zM514.5 377.5q-31.5 52.5 -85 82.5t-117.5 30 q-65 0 -118 -30t-85 -82.5t-34 -117.5h473q-2 65 -33.5 117.5z" glyph-name="e" horiz-adv-x="618" unicode="e"/>
<glyph d="M50 480v20h110v67q0 80 48.5 126.5t133.5 46.5q72 0 118.5 -40t46.5 -103h-20v1q-1 54 -41 88t-105 34q-74 0 -117.5 -39.5t-43.5 -113.5v-67h246v-20h-246v-480h-20v480h-110z" glyph-name="f" horiz-adv-x="428" unicode="f"/>
<glyph d="M203.5 -190.5q-63.5 19.5 -98 55t-34.5 83.5q0 57 47 96t131 54q-109 10 -169 36.5t-60 91.5q0 26 19.5 44.5t47.5 18.5q24 0 42 -6q-19 32 -19 68q0 70 63 112.5t170 46.5v120h18v-120q75 0 131.5 -19.5t87.5 -55.5t31 -84t-31 -83.5t-87.5 -55t-131.5 -19.5 q-73 0 -112.5 12.5t-78.5 35.5q-24 14 -41.5 21t-41.5 7q-21 0 -34 -13t-13 -30q0 -46 44.5 -71t110 -34t157.5 -13q130 -5 205 -40t75 -120q0 -48 -34.5 -83.5t-98 -55t-148.5 -19.5q-84 0 -147.5 19.5zM528.5 251q62.5 38 62.5 100q0 63 -62.5 101t-167.5 38 q-106 0 -168.5 -38t-62.5 -101t61.5 -100.5t169.5 -37.5q105 0 167.5 38zM489 -173q59 17 91 48.5t32 72.5q0 68 -66.5 103.5t-194.5 35.5q-79 0 -137.5 -17t-90.5 -48.5t-32 -73.5q0 -41 32 -72.5t90.5 -48.5t137.5 -17t138 17z" glyph-name="g" horiz-adv-x="662" unicode="g"/>
<glyph d="M130 710v-351q25 69 80 110t126 41q106 0 165 -66t59 -184v-260h-20v260q0 107 -54.5 168.5t-149.5 61.5q-57 0 -104.5 -30t-74.5 -83t-27 -117v-260h-20v710h20z" glyph-name="h" horiz-adv-x="660" unicode="h"/>
<glyph d="M110 500h20v-500h-20v500zM105 745h30l-10 -160h-10z" glyph-name="i" horiz-adv-x="240" unicode="i"/>
<glyph d="M-87 -178q-43 32 -43 81h20v-1q0 -40 37.5 -66t92.5 -26q63 0 101.5 36.5t38.5 106.5v157v390h20v-548q0 -73 -43 -117.5t-117 -44.5q-64 0 -107 32zM155 745h30l-10 -160h-10z" glyph-name="j" horiz-adv-x="290" unicode="j"/>
<glyph d="M110 710h20v-450h109l227 240h26l-236 -250l236 -250h-28l-227 240h-107v-240h-20v710z" glyph-name="k" horiz-adv-x="522" unicode="k"/>
<glyph d="M110 710h20v-710h-20v710z" glyph-name="l" horiz-adv-x="240" unicode="l"/>
<glyph d="M130 500v-138q23 67 75 107.5t117 40.5q77 0 126.5 -42t65.5 -119q22 73 75.5 117t122.5 44q94 0 146 -61t52 -169v-280h-20v280q0 98 -47.5 154t-130.5 56q-53 0 -97 -30t-69.5 -83t-25.5 -117v-260h-20v280q0 98 -47.5 154t-130.5 56q-53 0 -97 -30t-69.5 -83 t-25.5 -117v-260h-20v500h20z" glyph-name="m" horiz-adv-x="1010" unicode="m"/>
<glyph d="M130 500v-141q25 69 80 110t126 41q106 0 165 -66t59 -184v-260h-20v260q0 107 -54.5 168.5t-149.5 61.5q-57 0 -104.5 -30t-74.5 -83t-27 -117v-260h-20v500h20z" glyph-name="n" horiz-adv-x="660" unicode="n"/>
<glyph d="M183.5 24.5q-59.5 34.5 -94 94t-34.5 131.5t34.5 131.5t94 94t131.5 34.5t131.5 -34.5t94 -94t34.5 -131.5t-34.5 -131.5t-94 -94t-131.5 -34.5t-131.5 34.5zM437 41.5q55 31.5 86.5 86.5t31.5 122t-31.5 122t-86.5 86.5t-122 31.5t-122 -31.5t-86.5 -86.5t-31.5 -122 t31.5 -122t86.5 -86.5t122 -31.5t122 31.5z" glyph-name="o" horiz-adv-x="630" unicode="o"/>
<glyph d="M130 500v-151q27 73 88.5 117t143.5 44q69 0 126 -34.5t89.5 -94t32.5 -131.5t-32.5 -131.5t-89.5 -94t-126 -34.5q-82 0 -143.5 44t-88.5 117v-351h-20v700h20zM476.5 41.5q52.5 31.5 83 86.5t30.5 122t-30.5 122t-83 86.5t-116.5 31.5t-116.5 -31.5t-83 -86.5 t-30.5 -122t30.5 -122t83 -86.5t116.5 -31.5t116.5 31.5z" glyph-name="p" horiz-adv-x="665" unicode="p"/>
<glyph d="M535 151q-27 -73 -88.5 -117t-143.5 -44q-69 0 -126 34.5t-89.5 94t-32.5 131.5t32.5 131.5t89.5 94t126 34.5q82 0 143.5 -44t88.5 -117v151h20v-700h-20v351zM421.5 41.5q52.5 31.5 83 86.5t30.5 122t-30.5 122t-83 86.5t-116.5 31.5t-116.5 -31.5t-83 -86.5 t-30.5 -122t30.5 -122t83 -86.5t116.5 -31.5t116.5 31.5z" glyph-name="q" horiz-adv-x="665" unicode="q"/>
<glyph d="M130 500v-144q23 69 74 111.5t116 42.5q78 0 121.5 -47.5t43.5 -132.5v-20h-20v20q0 77 -37.5 118.5t-107.5 41.5q-52 0 -95.5 -31t-69 -83.5t-25.5 -115.5v-260h-20v500h20z" glyph-name="r" horiz-adv-x="505" unicode="r"/>
<glyph d="M120 33q-66 43 -78 127h20q12 -75 72 -112.5t141 -37.5q38 0 78.5 11t69 37t28.5 67q0 38 -22 60t-55.5 32t-92.5 20l-22 4q-67 11 -107 22t-67.5 36t-27.5 70q0 72 58 106.5t137 34.5q84 0 143.5 -42.5t69.5 -122.5h-20q-11 73 -65.5 109t-131.5 36q-66 0 -118.5 -29 t-52.5 -92q0 -36 24 -57t59.5 -30.5t95.5 -19.5q76 -13 116 -24t69.5 -37.5t29.5 -75.5q0 -48 -31 -78t-75.5 -43.5t-88.5 -13.5q-90 0 -156 43z" glyph-name="s" horiz-adv-x="527" unicode="s"/>
<glyph d="M160 150v330h-130v20h120q10 0 10 10v110h22l-2 -120h250v-20h-250v-330q0 -72 36 -106t109 -34q46 0 105 19v-19q-22 -8 -52 -14t-51 -6q-167 0 -167 160z" glyph-name="t" horiz-adv-x="470" unicode="t"/>
<glyph d="M159 56q-59 66 -59 184v260h20v-260q0 -107 54.5 -168.5t149.5 -61.5q57 0 104.5 30t74.5 83t27 117v260h20v-500h-20v141q-25 -69 -80 -110t-126 -41q-106 0 -165 66z" glyph-name="u" horiz-adv-x="660" unicode="u"/>
<glyph d="M10 500h22l227 -483l227 483h22l-236 -500h-27z" glyph-name="v" horiz-adv-x="518" unicode="v"/>
<glyph d="M24 500h21l170 -472l168 472h22l168 -472l170 472h21l-180 -500h-22l-168 472l-168 -472h-22z" glyph-name="w" horiz-adv-x="788" unicode="w"/>
<glyph d="M265 254l-217 246h27l203 -230l204 230h26l-216 -246l224 -254h-27l-211 239l-211 -239h-27z" glyph-name="x" horiz-adv-x="556" unicode="x"/>
<glyph d="M64 -170.5q-38 39.5 -38 105.5v27h20v-27q0 -57 32.5 -91t87.5 -34t87.5 34t32.5 91v18q0 26 -4.5 46t-16.5 41l-250 460h23l245 -451q10 -19 12 -38q4 20 12 40l192 449h22l-196 -459q-10 -23 -14.5 -42.5t-4.5 -43.5v-20q0 -66 -38 -105.5t-102 -39.5t-102 39.5z" glyph-name="y" horiz-adv-x="531" unicode="y"/>
<glyph d="M40 20l392 460h-376v20h402v-20l-392 -460h394v-20h-420v20z" glyph-name="z" horiz-adv-x="510" unicode="z"/>
<glyph d="M216 -84q-36 31 -36 91q0 29 16 123q16 92 16 119q0 43 -20.5 67t-56.5 24h-35v20h35q36 0 56.5 24t20.5 67q0 27 -16 119q-16 94 -16 123q0 60 36 91t88 31q44 0 79 -15v-22q-35 19 -81 19q-43 0 -72.5 -26t-29.5 -78q0 -23 6.5 -63.5t8.5 -51.5q17 -89 17 -127 q0 -39 -16.5 -65t-46.5 -36q30 -10 46.5 -36t16.5 -65q0 -38 -17 -127q-2 -11 -8.5 -51.5t-6.5 -63.5q0 -52 29.5 -78t72.5 -26q46 0 81 19v-22q-35 -15 -79 -15q-52 0 -88 31z" glyph-name="braceleft" horiz-adv-x="500" unicode="{"/>
<glyph d="M160 800h20v-900h-20v900z" glyph-name="bar" horiz-adv-x="340" unicode="|"/>
<glyph d="M284 784q36 -31 36 -91q0 -29 -16 -123q-16 -92 -16 -119q0 -43 20.5 -67t56.5 -24h35v-20h-35q-36 0 -56.5 -24t-20.5 -67q0 -27 16 -119q16 -94 16 -123q0 -60 -36 -91t-88 -31q-44 0 -79 15v22q35 -19 81 -19q43 0 72.5 26t29.5 78q0 23 -6.5 63.5t-8.5 51.5 q-17 89 -17 127q0 39 16.5 65t46.5 36q-30 10 -46.5 36t-16.5 65q0 38 17 127q2 11 8.5 51.5t6.5 63.5q0 52 -29.5 78t-72.5 26q-46 0 -81 -19v22q34 15 79 15q52 0 88 -31z" glyph-name="braceright" horiz-adv-x="500" unicode="}"/>
<glyph d="M107 364.5q27 23.5 64 23.5q26 0 50.5 -7.5t62.5 -22.5q36 -14 58.5 -21t46.5 -7q28 0 49.5 18t21.5 41h20q0 -32 -27 -55.5t-64 -23.5q-26 0 -50.5 7.5t-62.5 22.5q-36 14 -58.5 21t-46.5 7q-28 0 -49.5 -18t-21.5 -41h-20q0 32 27 55.5z" glyph-name="asciitilde" unicode="~"/>
<glyph glyph-name="uni00A0" horiz-adv-x="250" unicode=" "/>
<glyph d="M148 498q7 -7 7 -18q0 -10 -7 -17.5t-18 -7.5q-10 0 -17.5 7.5t-7.5 17.5q0 11 7.5 18t17.5 7q11 0 18 -7zM140 -200h-20l1 520h18z" glyph-name="exclamdown" horiz-adv-x="260" unicode="¡"/>
<glyph d="M490 157.5q59 45.5 76 125.5h20q-17 -88 -78.5 -138.5t-156.5 -52.5v-122h-20v122q-70 3 -125.5 37.5t-87 93t-31.5 129.5t31.5 129.5t87 93t125.5 37.5v118h20v-118q95 -2 156.5 -52.5t78.5 -138.5h-20q-17 80 -76 125.5t-147 45.5q-66 0 -120 -31.5t-85 -86.5t-31 -122 t31 -122t85 -86.5t120 -31.5q88 0 147 45.5z" glyph-name="cent" horiz-adv-x="700" unicode="¢"/>
<glyph d="M42 11q-30 26 -30 67q0 39 27.5 63.5t69.5 24.5q30 0 61 -12.5t70 -35.5q1 5 1 17q0 33 -12 66.5t-39 89.5q-16 32 -23 49h-128v20h120q-29 72 -29 135q0 65 28 115t79 78t118 28q66 0 118 -27t83.5 -76t35.5 -113h-20q-7 88 -66.5 142t-151.5 54q-93 0 -148.5 -56 t-55.5 -148q0 -64 29 -132h333v-20h-324q12 -27 23 -48q25 -53 37.5 -87.5t12.5 -69.5q0 -9 -2 -29l29 -18q63 -41 109 -62t93 -21q63 0 99 42t36 116q0 31 -7 63h20q7 -32 7 -64q0 -81 -41.5 -129t-112.5 -48q-52 0 -101.5 23t-117.5 67q-6 3 -18 11q-14 -45 -50.5 -73 t-84.5 -28q-47 0 -77 26zM192.5 30.5q32.5 25.5 43.5 66.5q-39 24 -69.5 36.5t-58.5 12.5q-34 0 -55 -19t-21 -49q0 -33 24 -53t62 -20q42 0 74.5 25.5z" glyph-name="sterling" horiz-adv-x="700" unicode="£"/>
<glyph d="M202 216q-24 27 -38 61.5t-14 72.5t14 72.5t38 61.5l-92 92l14 14l92 -92q27 24 61.5 38t72.5 14t72.5 -14t61.5 -38l92 92l14 -14l-92 -92q24 -27 38 -61.5t14 -72.5t-14 -72.5t-38 -61.5l92 -92l-14 -14l-92 92q-27 -24 -61.5 -38t-72.5 -14t-72.5 14t-61.5 38l-92 -92 l-14 14zM440 194.5q41 24.5 65.5 65.5t24.5 90t-24.5 90t-65.5 65.5t-90 24.5t-90 -24.5t-65.5 -65.5t-24.5 -90t24.5 -90t65.5 -65.5t90 -24.5t90 24.5z" glyph-name="currency" horiz-adv-x="700" unicode="¤"/>
<glyph d="M340 180h-243v20h243v74l-19 26h-224v20h210l-275 380h25l294 -406l293 406h24l-275 -380h231v-20h-245l-19 -26v-74h264v-20h-264v-180h-20v180z" glyph-name="yen" horiz-adv-x="700" unicode="¥"/>
<glyph d="M160 800h20v-380h-20v380zM160 280h20v-380h-20v380z" glyph-name="brokenbar" horiz-adv-x="340" unicode="¦"/>
<glyph d="M214 -54.5q-66 45.5 -78 134.5h20q13 -79 72.5 -118.5t140.5 -39.5q38 0 78.5 11.5t69 39t28.5 70.5q0 41 -22 63.5t-54.5 33t-92.5 21.5l-23 4q-75 13 -118 25.5t-73.5 41t-30.5 79.5q0 56 41 89t106 44q-60 15 -93.5 42t-33.5 80q0 75 58 112t137 37q84 0 143.5 -45 t69.5 -130h-20q-11 77 -65.5 115t-131.5 38q-66 0 -118.5 -30.5t-52.5 -96.5q0 -38 24 -60t59 -32t96 -21l24 -4q71 -13 113.5 -25.5t71 -40.5t28.5 -77q0 -57 -43.5 -90t-107.5 -45q62 -15 95.5 -43.5t33.5 -84.5q0 -51 -31 -83t-75.5 -46t-88.5 -14q-90 0 -156 45.5z M459.5 198.5q44.5 12.5 76 39.5t31.5 68q0 40 -19.5 61t-57.5 32.5t-122 27.5l-30 6q-74 -5 -130.5 -34.5t-56.5 -87.5q0 -57 55 -85t166 -42q43 2 87.5 14.5z" glyph-name="section" horiz-adv-x="700" unicode="§"/>
<glyph d="M225 33q-84 48 -132 132t-48 185t48 185t132 132t185 48t185 -48t132 -132t48 -185t-48 -185t-132 -132t-185 -48t-185 48zM585 50.5q79 45.5 124.5 124.5t45.5 175t-45.5 175t-124.5 124.5t-175 45.5t-175 -45.5t-124.5 -124.5t-45.5 -175t45.5 -175t124.5 -124.5 t175 -45.5t175 45.5zM308 169.5q-47 27.5 -73.5 75t-26.5 105.5t26.5 105.5t73.5 75t105 27.5q78 0 129 -40.5t65 -112.5h-20q-13 63 -58.5 98t-115.5 35q-52 0 -94.5 -24.5t-66.5 -67.5t-24 -96t24 -96t66.5 -67.5t94.5 -24.5q70 0 115.5 35t58.5 98h20q-14 -72 -65 -112.5 t-129 -40.5q-58 0 -105 27.5z" glyph-name="copyright" horiz-adv-x="820" unicode="©"/>
<glyph d="M168 300l109 -200h-21l-106 194v12l106 194h21zM328 300l109 -200h-21l-106 194v12l106 194h21z" glyph-name="guillemotleft" horiz-adv-x="527" unicode="«"/>
<glyph d="M480 360v-210h-20v190h-380v20h400z" glyph-name="logicalnot" unicode="¬"/>
<glyph d="M138.5 378.5q-41.5 23.5 -65 65t-23.5 91.5t23.5 91.5t65 65t91.5 23.5t91.5 -23.5t65 -65t23.5 -91.5t-23.5 -91.5t-65 -65t-91.5 -23.5t-91.5 23.5zM312 394.5q37 21.5 58.5 58.5t21.5 82t-21.5 82t-58.5 58.5t-82 21.5t-82 -21.5t-58.5 -58.5t-21.5 -82t21.5 -82 t58.5 -58.5t82 -21.5t82 21.5zM221 642q36 0 56.5 -16t20.5 -44q0 -23 -13 -38.5t-36 -21.5l73 -84h-26l-70 81h-47v-81h-18v204h60zM264 549q15 12 15 33q0 19 -15 30t-43 11h-42v-86h42q28 0 43 12z" glyph-name="registered" horiz-adv-x="440" unicode="®"/>
<glyph d="M70.5 510.5q-35.5 35.5 -35.5 84.5q0 50 35.5 85t84.5 35q50 0 85 -35t35 -85q0 -49 -35 -84.5t-85 -35.5q-49 0 -84.5 35.5zM225.5 524.5q29.5 29.5 29.5 70.5t-29.5 70.5t-70.5 29.5t-70.5 -29.5t-29.5 -70.5t29.5 -70.5t70.5 -29.5t70.5 29.5z" glyph-name="degree" horiz-adv-x="310" unicode="°"/>
<glyph d="M290 410h190v-20h-190v-190h-20v190h-190v20h190v190h20v-190zM80 110v20h400v-20h-400z" glyph-name="plusminus" unicode="±"/>
<glyph d="M281 300q-62 0 -112.5 26.5t-79.5 72t-29 101.5t29 101.5t79.5 72t112.5 26.5h29v-900h-20v500h-9z" glyph-name="paragraph" horiz-adv-x="470" unicode="¶"/>
<glyph d="M92.5 282.5q-7.5 7.5 -7.5 17.5q0 11 7.5 18t17.5 7q11 0 18 -7t7 -18q0 -10 -7 -17.5t-18 -7.5q-10 0 -17.5 7.5z" glyph-name="periodcentered" horiz-adv-x="220" unicode="·"/>
<glyph d="M359 300l-109 200h21l106 -194v-12l-106 -194h-21zM199 300l-109 200h21l106 -194v-12l-106 -194h-21z" glyph-name="guillemotright" horiz-adv-x="467" unicode="»"/>
<glyph d="M300 498q7 -7 7 -18q0 -10 -7 -17.5t-18 -7.5q-10 0 -17.5 7.5t-7.5 17.5q0 11 7.5 18t17.5 7q11 0 18 -7zM298 316q0 -48 -15 -82.5t-37.5 -58t-56.5 -49.5q-35 -28 -53.5 -47t-32 -47t-13.5 -66q0 -77 53.5 -119t134.5 -42q97 0 147.5 60t47.5 157h19q3 -70 -22 -124 t-75 -83.5t-118 -29.5q-57 0 -104 21t-75 62t-28 99t24 92t63 66q43 35 67.5 59.5t39.5 57.5t15 78h19v-4z" glyph-name="questiondown" horiz-adv-x="547" unicode="¿"/>
<glyph d="M319 700h26l304 -700h-22l-100 230h-391l-100 -230h-21zM519 249l-187 432l-188 -432h375zM311 785l-67 160h22l66 -160h-21z" glyph-name="Agrave" horiz-adv-x="664" unicode="À"/>
<glyph d="M319 700h26l304 -700h-22l-100 230h-391l-100 -230h-21zM519 249l-187 432l-188 -432h375zM398 945h22l-67 -160h-21z" glyph-name="Aacute" horiz-adv-x="664" unicode="Á"/>
<glyph d="M319 700h26l304 -700h-22l-100 230h-391l-100 -230h-21zM519 249l-187 432l-188 -432h375zM475 785l-143 140l-144 -140h-28l164 160h16l164 -160h-29z" glyph-name="Acircumflex" horiz-adv-x="664" unicode="Â"/>
<glyph d="M319 700h26l304 -700h-22l-100 230h-391l-100 -230h-21zM519 249l-187 432l-188 -432h375zM172.5 884.5q25.5 21.5 59.5 21.5q26 0 48.5 -7t54.5 -20q34 -13 54 -19t43 -6q26 0 45.5 16t19.5 36h20q0 -29 -25.5 -50.5t-59.5 -21.5q-26 0 -48.5 7t-54.5 20q-34 13 -54 19 t-43 6q-26 0 -45.5 -16t-19.5 -36h-20q0 29 25.5 50.5z" glyph-name="Atilde" horiz-adv-x="664" unicode="Ã"/>
<glyph d="M319 700h26l304 -700h-22l-100 230h-391l-100 -230h-21zM519 249l-187 432l-188 -432h375zM257 945h27l-9 -160h-9zM381 945h27l-9 -160h-9z" glyph-name="Adieresis" horiz-adv-x="664" unicode="Ä"/>
<glyph d="M319 700h26l304 -700h-22l-100 230h-391l-100 -230h-21zM519 249l-187 432l-188 -432h375zM247 820q-35 35 -35 85t35 85t85 35q49 0 84.5 -35t35.5 -85q0 -49 -35.5 -84.5t-84.5 -35.5q-50 0 -85 35zM402.5 834.5q29.5 29.5 29.5 70.5t-29.5 70.5t-70.5 29.5 q-42 0 -71 -29t-29 -71t29 -71t71 -29q41 0 70.5 29.5z" glyph-name="Aring" horiz-adv-x="664" unicode="Å"/>
<glyph d="M640 20h344v-20h-357l-100 230h-391l-100 -230h-21l304 700h615v-20h-580l139 -320h355v-20h-347zM144 249h375l-187 432z" glyph-name="AE" horiz-adv-x="1014" unicode="Æ"/>
<glyph d="M243.5 31.5q-81.5 46.5 -127.5 129.5t-46 189t46 189t127.5 129.5t184.5 46.5q89 0 160 -34.5t116.5 -97.5t58.5 -148h-20q-20 120 -104.5 190t-210.5 70q-98 0 -175 -43.5t-120 -122t-43 -179.5q0 -100 43 -178.5t120 -122.5t175 -44q126 0 210.5 70t104.5 190h20 q-13 -85 -58.5 -148t-116.5 -97.5t-160 -34.5q-103 0 -184.5 46.5zM372 -245h-22l67 160h21z" glyph-name="Ccedilla" horiz-adv-x="828" unicode="Ç"/>
<glyph d="M140 700h370v-20h-350v-320h264v-20h-264v-320h400v-20h-420v700zM305 785l-67 160h22l66 -160h-21z" glyph-name="Egrave" horiz-adv-x="590" unicode="È"/>
<glyph d="M140 700h370v-20h-350v-320h264v-20h-264v-320h400v-20h-420v700zM392 945h22l-67 -160h-21z" glyph-name="Eacute" horiz-adv-x="590" unicode="É"/>
<glyph d="M140 700h370v-20h-350v-320h264v-20h-264v-320h400v-20h-420v700zM469 785l-143 140l-144 -140h-28l164 160h16l164 -160h-29z" glyph-name="Ecircumflex" horiz-adv-x="590" unicode="Ê"/>
<glyph d="M140 700h370v-20h-350v-320h264v-20h-264v-320h400v-20h-420v700zM251 945h27l-9 -160h-9zM375 945h27l-9 -160h-9z" glyph-name="Edieresis" horiz-adv-x="590" unicode="Ë"/>
<glyph d="M140 700h20v-700h-20v700zM129 785l-67 160h22l66 -160h-21z" glyph-name="Igrave" horiz-adv-x="300" unicode="Ì"/>
<glyph d="M140 700h20v-700h-20v700zM216 945h22l-67 -160h-21z" glyph-name="Iacute" horiz-adv-x="300" unicode="Í"/>
<glyph d="M140 700h20v-700h-20v700zM293 785l-143 140l-144 -140h-28l164 160h16l164 -160h-29z" glyph-name="Icircumflex" horiz-adv-x="300" unicode="Î"/>
<glyph d="M140 700h20v-700h-20v700zM75 945h27l-9 -160h-9zM199 945h27l-9 -160h-9z" glyph-name="Idieresis" horiz-adv-x="300" unicode="Ï"/>
<glyph d="M525 655.5q83 -44.5 129 -124t46 -181.5t-46 -181.5t-129 -124t-190 -44.5h-195v340h-85v20h85v340h195q107 0 190 -44.5zM514.5 61.5q78.5 41.5 122 116.5t43.5 172t-43.5 172t-122 116.5t-179.5 41.5h-175v-320h180v-20h-180v-320h175q101 0 179.5 41.5z" glyph-name="Eth" horiz-adv-x="770" unicode="Ð"/>
<glyph d="M140 700h24l516 -672v672h20v-700h-23l-517 672v-672h-20v700zM260.5 884.5q25.5 21.5 59.5 21.5q26 0 48.5 -7t54.5 -20q34 -13 54 -19t43 -6q26 0 45.5 16t19.5 36h20q0 -29 -25.5 -50.5t-59.5 -21.5q-26 0 -48.5 7t-54.5 20q-34 13 -54 19t-43 6q-26 0 -45.5 -16 t-19.5 -36h-20q0 29 25.5 50.5z" glyph-name="Ntilde" horiz-adv-x="840" unicode="Ñ"/>
<glyph d="M246 32.5q-82 47.5 -129 131t-47 186.5t47 186.5t129 131t184 47.5t184 -47.5t129 -131t47 -186.5t-47 -186.5t-129 -131t-184 -47.5t-184 47.5zM603.5 50q77.5 45 122 123.5t44.5 176.5t-44.5 176.5t-122 123.5t-173.5 45t-173.5 -45t-122 -123.5t-44.5 -176.5 t44.5 -176.5t122 -123.5t173.5 -45t173.5 45zM409 785l-67 160h22l66 -160h-21z" glyph-name="Ograve" horiz-adv-x="860" unicode="Ò"/>
<glyph d="M246 32.5q-82 47.5 -129 131t-47 186.5t47 186.5t129 131t184 47.5t184 -47.5t129 -131t47 -186.5t-47 -186.5t-129 -131t-184 -47.5t-184 47.5zM603.5 50q77.5 45 122 123.5t44.5 176.5t-44.5 176.5t-122 123.5t-173.5 45t-173.5 -45t-122 -123.5t-44.5 -176.5 t44.5 -176.5t122 -123.5t173.5 -45t173.5 45zM496 945h22l-67 -160h-21z" glyph-name="Oacute" horiz-adv-x="860" unicode="Ó"/>
<glyph d="M246 32.5q-82 47.5 -129 131t-47 186.5t47 186.5t129 131t184 47.5t184 -47.5t129 -131t47 -186.5t-47 -186.5t-129 -131t-184 -47.5t-184 47.5zM603.5 50q77.5 45 122 123.5t44.5 176.5t-44.5 176.5t-122 123.5t-173.5 45t-173.5 -45t-122 -123.5t-44.5 -176.5 t44.5 -176.5t122 -123.5t173.5 -45t173.5 45zM573 785l-143 140l-144 -140h-28l164 160h16l164 -160h-29z" glyph-name="Ocircumflex" horiz-adv-x="860" unicode="Ô"/>
<glyph d="M246 32.5q-82 47.5 -129 131t-47 186.5t47 186.5t129 131t184 47.5t184 -47.5t129 -131t47 -186.5t-47 -186.5t-129 -131t-184 -47.5t-184 47.5zM603.5 50q77.5 45 122 123.5t44.5 176.5t-44.5 176.5t-122 123.5t-173.5 45t-173.5 -45t-122 -123.5t-44.5 -176.5 t44.5 -176.5t122 -123.5t173.5 -45t173.5 45zM270.5 884.5q25.5 21.5 59.5 21.5q26 0 48.5 -7t54.5 -20q34 -13 54 -19t43 -6q26 0 45.5 16t19.5 36h20q0 -29 -25.5 -50.5t-59.5 -21.5q-26 0 -48.5 7t-54.5 20q-34 13 -54 19t-43 6q-26 0 -45.5 -16t-19.5 -36h-20 q0 29 25.5 50.5z" glyph-name="Otilde" horiz-adv-x="860" unicode="Õ"/>
<glyph d="M246 32.5q-82 47.5 -129 131t-47 186.5t47 186.5t129 131t184 47.5t184 -47.5t129 -131t47 -186.5t-47 -186.5t-129 -131t-184 -47.5t-184 47.5zM603.5 50q77.5 45 122 123.5t44.5 176.5t-44.5 176.5t-122 123.5t-173.5 45t-173.5 -45t-122 -123.5t-44.5 -176.5 t44.5 -176.5t122 -123.5t173.5 -45t173.5 45zM355 945h27l-9 -160h-9zM479 945h27l-9 -160h-9z" glyph-name="Odieresis" horiz-adv-x="860" unicode="Ö"/>
<glyph d="M117 202l148 148l-148 148l15 15l148 -148l148 148l15 -15l-148 -148l148 -148l-15 -15l-148 148l-148 -148z" glyph-name="multiply" unicode="×"/>
<glyph d="M295 9.5q-63 24.5 -111 68.5l-75 -78h-27l88 92q-48 49 -74 115.5t-26 142.5q0 103 47 186.5t129 131t184 47.5q72 0 135 -24.5t112 -69.5l75 79h27l-89 -92q48 -49 74 -115.5t26 -142.5q0 -103 -47 -186.5t-129 -131t-184 -47.5q-72 0 -135 24.5zM557.5 672 q-59.5 23 -127.5 23q-96 0 -173.5 -45t-122 -123.5t-44.5 -176.5q0 -72 24.5 -134.5t69.5 -109.5l479 501q-46 42 -105.5 65zM603.5 50q77.5 45 122 123.5t44.5 176.5q0 72 -24.5 134t-68.5 109l-479 -500q45 -42 104.5 -65t127.5 -23q96 0 173.5 45z" glyph-name="Oslash" horiz-adv-x="860" unicode="Ø"/>
<glyph d="M257.5 23.5q-65.5 38.5 -101.5 108.5t-36 164v404h20v-404q0 -88 33 -154t94 -101.5t143 -35.5t143 35.5t94 101.5t33 154v404h20v-404q0 -94 -36 -164t-101.5 -108.5t-152.5 -38.5t-152.5 38.5zM389 785l-67 160h22l66 -160h-21z" glyph-name="Ugrave" horiz-adv-x="820" unicode="Ù"/>
<glyph d="M257.5 23.5q-65.5 38.5 -101.5 108.5t-36 164v404h20v-404q0 -88 33 -154t94 -101.5t143 -35.5t143 35.5t94 101.5t33 154v404h20v-404q0 -94 -36 -164t-101.5 -108.5t-152.5 -38.5t-152.5 38.5zM476 945h22l-67 -160h-21z" glyph-name="Uacute" horiz-adv-x="820" unicode="Ú"/>
<glyph d="M257.5 23.5q-65.5 38.5 -101.5 108.5t-36 164v404h20v-404q0 -88 33 -154t94 -101.5t143 -35.5t143 35.5t94 101.5t33 154v404h20v-404q0 -94 -36 -164t-101.5 -108.5t-152.5 -38.5t-152.5 38.5zM553 785l-143 140l-144 -140h-28l164 160h16l164 -160h-29z" glyph-name="Ucircumflex" horiz-adv-x="820" unicode="Û"/>
<glyph d="M257.5 23.5q-65.5 38.5 -101.5 108.5t-36 164v404h20v-404q0 -88 33 -154t94 -101.5t143 -35.5t143 35.5t94 101.5t33 154v404h20v-404q0 -94 -36 -164t-101.5 -108.5t-152.5 -38.5t-152.5 38.5zM335 945h27l-9 -160h-9zM459 945h27l-9 -160h-9z" glyph-name="Udieresis" horiz-adv-x="820" unicode="Ü"/>
<glyph d="M313 274l-308 426h25l294 -406l293 406h24l-308 -426v-274h-20v274zM389 945h22l-67 -160h-21z" glyph-name="Yacute" horiz-adv-x="646" unicode="Ý"/>
<glyph d="M160 700v-145h157q118 0 185.5 -53.5t67.5 -146.5t-67.5 -146.5t-185.5 -53.5h-157v-155h-20v700h20zM488.5 223q61.5 48 61.5 132t-61.5 132t-171.5 48h-157v-360h157q110 0 171.5 48z" glyph-name="Thorn" horiz-adv-x="630" unicode="Þ"/>
<glyph d="M50 480v20h110v67q0 80 54 126.5t148 46.5t148 -46.5t54 -126.5v-79q-46 2 -68 2q-66 0 -118.5 -29t-52.5 -92q0 -36 24 -56.5t58.5 -30t96.5 -20.5q76 -13 116 -24t69.5 -37.5t29.5 -75.5q0 -48 -31 -78t-75.5 -43.5t-88.5 -13.5q-90 0 -156 43t-78 127h20 q12 -75 72 -112.5t141 -37.5q38 0 78.5 11t69 37t28.5 67q0 42 -25 64t-61 31.5t-106 20.5q-67 11 -107 22t-67.5 36t-27.5 70q0 72 58 106.5t137 34.5h44v57q0 74 -49 113.5t-133 39.5t-133 -39.5t-49 -113.5v-76v-691h-20v680h-110z" glyph-name="germandbls" horiz-adv-x="749" unicode="ß"/>
<glyph d="M101 23q-41 35 -41 94q0 82 74 113t189 39q70 4 106.5 14t36.5 35q0 76 -50.5 124t-130.5 48q-78 0 -128.5 -44t-64.5 -122h-20q14 86 70.5 136t142.5 50q91 0 146 -54t55 -144v-292h80v-20h-99v145q-26 -71 -94 -114t-153 -43q-78 0 -119 35zM346 38q56 30 88 81t32 112 l1 50q-17 -14 -51.5 -21t-91.5 -10q-128 -9 -186 -40.5t-58 -92.5q0 -52 37.5 -80.5t102.5 -28.5q70 0 126 30zM264 585l-67 160h22l66 -160h-21z" glyph-name="agrave" horiz-adv-x="606" unicode="à"/>
<glyph d="M101 23q-41 35 -41 94q0 82 74 113t189 39q70 4 106.5 14t36.5 35q0 76 -50.5 124t-130.5 48q-78 0 -128.5 -44t-64.5 -122h-20q14 86 70.5 136t142.5 50q91 0 146 -54t55 -144v-292h80v-20h-99v145q-26 -71 -94 -114t-153 -43q-78 0 -119 35zM346 38q56 30 88 81t32 112 l1 50q-17 -14 -51.5 -21t-91.5 -10q-128 -9 -186 -40.5t-58 -92.5q0 -52 37.5 -80.5t102.5 -28.5q70 0 126 30zM351 745h22l-67 -160h-21z" glyph-name="aacute" horiz-adv-x="606" unicode="á"/>
<glyph d="M101 23q-41 35 -41 94q0 82 74 113t189 39q70 4 106.5 14t36.5 35q0 76 -50.5 124t-130.5 48q-78 0 -128.5 -44t-64.5 -122h-20q14 86 70.5 136t142.5 50q91 0 146 -54t55 -144v-292h80v-20h-99v145q-26 -71 -94 -114t-153 -43q-78 0 -119 35zM346 38q56 30 88 81t32 112 l1 50q-17 -14 -51.5 -21t-91.5 -10q-128 -9 -186 -40.5t-58 -92.5q0 -52 37.5 -80.5t102.5 -28.5q70 0 126 30zM428 585l-143 140l-144 -140h-28l164 160h16l164 -160h-29z" glyph-name="acircumflex" horiz-adv-x="606" unicode="â"/>
<glyph d="M101 23q-41 35 -41 94q0 82 74 113t189 39q70 4 106.5 14t36.5 35q0 76 -50.5 124t-130.5 48q-78 0 -128.5 -44t-64.5 -122h-20q14 86 70.5 136t142.5 50q91 0 146 -54t55 -144v-292h80v-20h-99v145q-26 -71 -94 -114t-153 -43q-78 0 -119 35zM346 38q56 30 88 81t32 112 l1 50q-17 -14 -51.5 -21t-91.5 -10q-128 -9 -186 -40.5t-58 -92.5q0 -52 37.5 -80.5t102.5 -28.5q70 0 126 30zM125.5 684.5q25.5 21.5 59.5 21.5q26 0 48.5 -7t54.5 -20q34 -13 54 -19t43 -6q26 0 45.5 16t19.5 36h20q0 -29 -25.5 -50.5t-59.5 -21.5q-26 0 -48.5 7 t-54.5 20q-34 13 -54 19t-43 6q-26 0 -45.5 -16t-19.5 -36h-20q0 29 25.5 50.5z" glyph-name="atilde" horiz-adv-x="606" unicode="ã"/>
<glyph d="M101 23q-41 35 -41 94q0 82 74 113t189 39q70 4 106.5 14t36.5 35q0 76 -50.5 124t-130.5 48q-78 0 -128.5 -44t-64.5 -122h-20q14 86 70.5 136t142.5 50q91 0 146 -54t55 -144v-292h80v-20h-99v145q-26 -71 -94 -114t-153 -43q-78 0 -119 35zM346 38q56 30 88 81t32 112 l1 50q-17 -14 -51.5 -21t-91.5 -10q-128 -9 -186 -40.5t-58 -92.5q0 -52 37.5 -80.5t102.5 -28.5q70 0 126 30zM210 745h27l-9 -160h-9zM334 745h27l-9 -160h-9z" glyph-name="adieresis" horiz-adv-x="606" unicode="ä"/>
<glyph d="M101 23q-41 35 -41 94q0 82 74 113t189 39q70 4 106.5 14t36.5 35q0 76 -50.5 124t-130.5 48q-78 0 -128.5 -44t-64.5 -122h-20q14 86 70.5 136t142.5 50q91 0 146 -54t55 -144v-292h80v-20h-99v145q-26 -71 -94 -114t-153 -43q-78 0 -119 35zM346 38q56 30 88 81t32 112 l1 50q-17 -14 -51.5 -21t-91.5 -10q-128 -9 -186 -40.5t-58 -92.5q0 -52 37.5 -80.5t102.5 -28.5q70 0 126 30zM200 620q-35 35 -35 85t35 85t85 35q49 0 84.5 -35t35.5 -85q0 -49 -35.5 -84.5t-84.5 -35.5q-50 0 -85 35zM355.5 634.5q29.5 29.5 29.5 70.5t-29.5 70.5 t-70.5 29.5q-42 0 -71 -29t-29 -71t29 -71t71 -29q41 0 70.5 29.5z" glyph-name="aring" horiz-adv-x="606" unicode="å"/>
<glyph d="M101 23q-41 35 -41 94q0 82 74 113t189 39q70 4 106.5 14t36.5 35q0 76 -50.5 124t-130.5 48q-78 0 -128.5 -44t-64.5 -122h-20q14 86 70.5 136t142.5 50q82 0 135 -44t64 -120q28 74 92.5 119t146.5 45q71 0 130 -34.5t92.5 -94t33.5 -131.5v-10h-493q2 -65 34 -117.5 t85 -82.5t118 -30q77 0 135.5 36.5t79.5 96.5h21q-22 -69 -86.5 -111t-149.5 -42q-87 0 -154 50.5t-91 131.5q-16 -59 -56 -100.5t-93.5 -62.5t-108.5 -21q-78 0 -119 35zM925.5 377.5q-31.5 52.5 -85 82.5t-117.5 30q-65 0 -118 -30t-85 -82.5t-34 -117.5h473 q-2 65 -33.5 117.5zM346 38q56 30 88 81t32 112l1 50q-17 -14 -51.5 -21t-91.5 -10q-128 -9 -186 -40.5t-58 -92.5q0 -52 37.5 -80.5t102.5 -28.5q70 0 126 30z" glyph-name="ae" horiz-adv-x="1029" unicode="æ"/>
<glyph d="M180.5 24q-58.5 34 -92 93.5t-33.5 132.5t33.5 132.5t92 93.5t130.5 34q98 0 162 -51t81 -140h-20q-17 80 -76 125.5t-147 45.5q-66 0 -120 -31.5t-85 -86.5t-31 -122t31 -122t85 -86.5t120 -31.5q88 0 147 45.5t76 125.5h20q-17 -89 -81 -140t-162 -51q-72 0 -130.5 34z M255 -245h-22l67 160h21z" glyph-name="ccedilla" horiz-adv-x="604" unicode="ç"/>
<glyph d="M182 24.5q-59 34.5 -93 94t-34 131.5t34 131.5t93 94t130 34.5t130 -34.5t92.5 -94t33.5 -131.5v-10h-493q2 -65 34 -117.5t85 -82.5t118 -30q77 0 135.5 36.5t79.5 96.5h21q-22 -69 -86.5 -111t-149.5 -42q-71 0 -130 34.5zM514.5 377.5q-31.5 52.5 -85 82.5t-117.5 30 q-65 0 -118 -30t-85 -82.5t-34 -117.5h473q-2 65 -33.5 117.5zM284 585l-67 160h22l66 -160h-21z" glyph-name="egrave" horiz-adv-x="618" unicode="è"/>
<glyph d="M182 24.5q-59 34.5 -93 94t-34 131.5t34 131.5t93 94t130 34.5t130 -34.5t92.5 -94t33.5 -131.5v-10h-493q2 -65 34 -117.5t85 -82.5t118 -30q77 0 135.5 36.5t79.5 96.5h21q-22 -69 -86.5 -111t-149.5 -42q-71 0 -130 34.5zM514.5 377.5q-31.5 52.5 -85 82.5t-117.5 30 q-65 0 -118 -30t-85 -82.5t-34 -117.5h473q-2 65 -33.5 117.5zM371 745h22l-67 -160h-21z" glyph-name="eacute" horiz-adv-x="618" unicode="é"/>
<glyph d="M182 24.5q-59 34.5 -93 94t-34 131.5t34 131.5t93 94t130 34.5t130 -34.5t92.5 -94t33.5 -131.5v-10h-493q2 -65 34 -117.5t85 -82.5t118 -30q77 0 135.5 36.5t79.5 96.5h21q-22 -69 -86.5 -111t-149.5 -42q-71 0 -130 34.5zM514.5 377.5q-31.5 52.5 -85 82.5t-117.5 30 q-65 0 -118 -30t-85 -82.5t-34 -117.5h473q-2 65 -33.5 117.5zM448 585l-143 140l-144 -140h-28l164 160h16l164 -160h-29z" glyph-name="ecircumflex" horiz-adv-x="618" unicode="ê"/>
<glyph d="M182 24.5q-59 34.5 -93 94t-34 131.5t34 131.5t93 94t130 34.5t130 -34.5t92.5 -94t33.5 -131.5v-10h-493q2 -65 34 -117.5t85 -82.5t118 -30q77 0 135.5 36.5t79.5 96.5h21q-22 -69 -86.5 -111t-149.5 -42q-71 0 -130 34.5zM514.5 377.5q-31.5 52.5 -85 82.5t-117.5 30 q-65 0 -118 -30t-85 -82.5t-34 -117.5h473q-2 65 -33.5 117.5zM230 745h27l-9 -160h-9zM354 745h27l-9 -160h-9z" glyph-name="edieresis" horiz-adv-x="618" unicode="ë"/>
<glyph d="M110 500h20v-500h-20v500zM99 585l-67 160h22l66 -160h-21z" glyph-name="igrave" horiz-adv-x="240" unicode="ì"/>
<glyph d="M110 500h20v-500h-20v500zM186 745h22l-67 -160h-21z" glyph-name="iacute" horiz-adv-x="240" unicode="í"/>
<glyph d="M110 500h20v-500h-20v500zM263 585l-143 140l-144 -140h-28l164 160h16l164 -160h-29z" glyph-name="icircumflex" horiz-adv-x="240" unicode="î"/>
<glyph d="M110 500h20v-500h-20v500zM45 745h27l-9 -160h-9zM169 745h27l-9 -160h-9z" glyph-name="idieresis" horiz-adv-x="240" unicode="ï"/>
<glyph d="M183.5 24.5q-59.5 34.5 -94 94t-34.5 131.5t34.5 131.5t94 94t131.5 34.5q74 0 135 -38q-2 2 -22 28l-69 90h-174v20h158l-77 100h25l78 -100h146v-20h-131l139 -179q25 -32 38.5 -74t13.5 -87q0 -72 -34.5 -131.5t-94 -94t-131.5 -34.5t-131.5 34.5zM437 41.5 q55 31.5 86.5 86.5t31.5 122t-31.5 122t-86.5 86.5t-122 31.5t-122 -31.5t-86.5 -86.5t-31.5 -122t31.5 -122t86.5 -86.5t122 -31.5t122 31.5z" glyph-name="eth" horiz-adv-x="630" unicode="ð"/>
<glyph d="M130 500v-141q25 69 80 110t126 41q106 0 165 -66t59 -184v-260h-20v260q0 107 -54.5 168.5t-149.5 61.5q-57 0 -104.5 -30t-74.5 -83t-27 -117v-260h-20v500h20zM177.5 684.5q25.5 21.5 59.5 21.5q26 0 48.5 -7t54.5 -20q34 -13 54 -19t43 -6q26 0 45.5 16t19.5 36h20 q0 -29 -25.5 -50.5t-59.5 -21.5q-26 0 -48.5 7t-54.5 20q-34 13 -54 19t-43 6q-26 0 -45.5 -16t-19.5 -36h-20q0 29 25.5 50.5z" glyph-name="ntilde" horiz-adv-x="660" unicode="ñ"/>
<glyph d="M183.5 24.5q-59.5 34.5 -94 94t-34.5 131.5t34.5 131.5t94 94t131.5 34.5t131.5 -34.5t94 -94t34.5 -131.5t-34.5 -131.5t-94 -94t-131.5 -34.5t-131.5 34.5zM437 41.5q55 31.5 86.5 86.5t31.5 122t-31.5 122t-86.5 86.5t-122 31.5t-122 -31.5t-86.5 -86.5t-31.5 -122 t31.5 -122t86.5 -86.5t122 -31.5t122 31.5zM294 585l-67 160h22l66 -160h-21z" glyph-name="ograve" horiz-adv-x="630" unicode="ò"/>
<glyph d="M183.5 24.5q-59.5 34.5 -94 94t-34.5 131.5t34.5 131.5t94 94t131.5 34.5t131.5 -34.5t94 -94t34.5 -131.5t-34.5 -131.5t-94 -94t-131.5 -34.5t-131.5 34.5zM437 41.5q55 31.5 86.5 86.5t31.5 122t-31.5 122t-86.5 86.5t-122 31.5t-122 -31.5t-86.5 -86.5t-31.5 -122 t31.5 -122t86.5 -86.5t122 -31.5t122 31.5zM381 745h22l-67 -160h-21z" glyph-name="oacute" horiz-adv-x="630" unicode="ó"/>
<glyph d="M183.5 24.5q-59.5 34.5 -94 94t-34.5 131.5t34.5 131.5t94 94t131.5 34.5t131.5 -34.5t94 -94t34.5 -131.5t-34.5 -131.5t-94 -94t-131.5 -34.5t-131.5 34.5zM437 41.5q55 31.5 86.5 86.5t31.5 122t-31.5 122t-86.5 86.5t-122 31.5t-122 -31.5t-86.5 -86.5t-31.5 -122 t31.5 -122t86.5 -86.5t122 -31.5t122 31.5zM458 585l-143 140l-144 -140h-28l164 160h16l164 -160h-29z" glyph-name="ocircumflex" horiz-adv-x="630" unicode="ô"/>
<glyph d="M183.5 24.5q-59.5 34.5 -94 94t-34.5 131.5t34.5 131.5t94 94t131.5 34.5t131.5 -34.5t94 -94t34.5 -131.5t-34.5 -131.5t-94 -94t-131.5 -34.5t-131.5 34.5zM437 41.5q55 31.5 86.5 86.5t31.5 122t-31.5 122t-86.5 86.5t-122 31.5t-122 -31.5t-86.5 -86.5t-31.5 -122 t31.5 -122t86.5 -86.5t122 -31.5t122 31.5zM155.5 684.5q25.5 21.5 59.5 21.5q26 0 48.5 -7t54.5 -20q34 -13 54 -19t43 -6q26 0 45.5 16t19.5 36h20q0 -29 -25.5 -50.5t-59.5 -21.5q-26 0 -48.5 7t-54.5 20q-34 13 -54 19t-43 6q-26 0 -45.5 -16t-19.5 -36h-20 q0 29 25.5 50.5z" glyph-name="otilde" horiz-adv-x="630" unicode="õ"/>
<glyph d="M183.5 24.5q-59.5 34.5 -94 94t-34.5 131.5t34.5 131.5t94 94t131.5 34.5t131.5 -34.5t94 -94t34.5 -131.5t-34.5 -131.5t-94 -94t-131.5 -34.5t-131.5 34.5zM437 41.5q55 31.5 86.5 86.5t31.5 122t-31.5 122t-86.5 86.5t-122 31.5t-122 -31.5t-86.5 -86.5t-31.5 -122 t31.5 -122t86.5 -86.5t122 -31.5t122 31.5zM240 745h27l-9 -160h-9zM364 745h27l-9 -160h-9z" glyph-name="odieresis" horiz-adv-x="630" unicode="ö"/>
<glyph d="M258.5 498.5q-8.5 8.5 -8.5 21.5t8.5 21.5t21.5 8.5t21.5 -8.5t8.5 -21.5t-8.5 -21.5t-21.5 -8.5t-21.5 8.5zM80 360h400v-20h-400v20zM258.5 158.5q-8.5 8.5 -8.5 21.5t8.5 21.5t21.5 8.5t21.5 -8.5t8.5 -21.5t-8.5 -21.5t-21.5 -8.5t-21.5 8.5z" glyph-name="divide" unicode="÷"/>
<glyph d="M220 7q-45 17 -79 48l-53 -55h-27l66 68q-34 36 -53 82.5t-19 99.5q0 72 34.5 131.5t94 94t131.5 34.5q50 0 95 -17t79 -48l53 55h27l-66 -68q34 -36 53 -82.5t19 -99.5q0 -72 -34.5 -131.5t-94 -94t-131.5 -34.5q-50 0 -95 17zM315 490q-67 0 -122 -31.5t-86.5 -86.5 t-31.5 -122q0 -49 17 -92t48 -75l335 348q-67 59 -160 59zM437 41.5q55 31.5 86.5 86.5t31.5 122q0 49 -17 92t-48 75l-335 -348q67 -59 160 -59q67 0 122 31.5z" glyph-name="oslash" horiz-adv-x="630" unicode="ø"/>
<glyph d="M159 56q-59 66 -59 184v260h20v-260q0 -107 54.5 -168.5t149.5 -61.5q57 0 104.5 30t74.5 83t27 117v260h20v-500h-20v141q-25 -69 -80 -110t-126 -41q-106 0 -165 66zM303 585l-67 160h22l66 -160h-21z" glyph-name="ugrave" horiz-adv-x="660" unicode="ù"/>
<glyph d="M159 56q-59 66 -59 184v260h20v-260q0 -107 54.5 -168.5t149.5 -61.5q57 0 104.5 30t74.5 83t27 117v260h20v-500h-20v141q-25 -69 -80 -110t-126 -41q-106 0 -165 66zM390 745h22l-67 -160h-21z" glyph-name="uacute" horiz-adv-x="660" unicode="ú"/>
<glyph d="M159 56q-59 66 -59 184v260h20v-260q0 -107 54.5 -168.5t149.5 -61.5q57 0 104.5 30t74.5 83t27 117v260h20v-500h-20v141q-25 -69 -80 -110t-126 -41q-106 0 -165 66zM467 585l-143 140l-144 -140h-28l164 160h16l164 -160h-29z" glyph-name="ucircumflex" horiz-adv-x="660" unicode="û"/>
<glyph d="M159 56q-59 66 -59 184v260h20v-260q0 -107 54.5 -168.5t149.5 -61.5q57 0 104.5 30t74.5 83t27 117v260h20v-500h-20v141q-25 -69 -80 -110t-126 -41q-106 0 -165 66zM249 745h27l-9 -160h-9zM373 745h27l-9 -160h-9z" glyph-name="udieresis" horiz-adv-x="660" unicode="ü"/>
<glyph d="M64 -170.5q-38 39.5 -38 105.5v27h20v-27q0 -57 32.5 -91t87.5 -34t87.5 34t32.5 91v18q0 26 -4.5 46t-16.5 41l-250 460h23l245 -451q10 -19 12 -38q4 20 12 40l192 449h22l-196 -459q-10 -23 -14.5 -42.5t-4.5 -43.5v-20q0 -66 -38 -105.5t-102 -39.5t-102 39.5z M336 745h22l-67 -160h-21z" glyph-name="yacute" horiz-adv-x="531" unicode="ý"/>
<glyph d="M130 710v-361q27 73 88.5 117t143.5 44q69 0 126 -34.5t89.5 -94t32.5 -131.5t-32.5 -131.5t-89.5 -94t-126 -34.5q-82 0 -143.5 44t-88.5 117v-351h-20v910h20zM476.5 41.5q52.5 31.5 83 86.5t30.5 122t-30.5 122t-83 86.5t-116.5 31.5t-116.5 -31.5t-83 -86.5 t-30.5 -122t30.5 -122t83 -86.5t116.5 -31.5t116.5 31.5z" glyph-name="thorn" horiz-adv-x="665" unicode="þ"/>
<glyph d="M110 500h20v-500h-20v500z" glyph-name="dotlessi" horiz-adv-x="240" unicode="ı"/>
<glyph d="M-87 -178q-43 32 -43 81h20v-1q0 -40 37.5 -66t92.5 -26q63 0 101.5 36.5t38.5 106.5v157v390h20v-548q0 -73 -43 -117.5t-117 -44.5q-64 0 -107 32z" glyph-name="uni0237" horiz-adv-x="290" unicode="ȷ"/>
<glyph d="M-321 585l-67 160h22l66 -160h-21z" glyph-name="gravecomb" horiz-adv-x="0" unicode="̀"/>
<glyph d="M-234 745h22l-67 -160h-21z" glyph-name="acutecomb" horiz-adv-x="0" unicode="́"/>
<glyph d="M-157 585l-143 140l-144 -140h-28l164 160h16l164 -160h-29z" glyph-name="uni0302" horiz-adv-x="0" unicode="̂"/>
<glyph d="M-459.5 684.5q25.5 21.5 59.5 21.5q26 0 48.5 -7t54.5 -20q34 -13 54 -19t43 -6q26 0 45.5 16t19.5 36h20q0 -29 -25.5 -50.5t-59.5 -21.5q-26 0 -48.5 7t-54.5 20q-34 13 -54 19t-43 6q-26 0 -45.5 -16t-19.5 -36h-20q0 29 25.5 50.5z" glyph-name="tildecomb" horiz-adv-x="0" unicode="̃"/>
<glyph d="M-315 745h30l-10 -160h-10z" glyph-name="uni0307" horiz-adv-x="0" unicode="̇"/>
<glyph d="M-375 745h27l-9 -160h-9zM-251 745h27l-9 -160h-9z" glyph-name="uni0308" horiz-adv-x="0" unicode="̈"/>
<glyph d="M-385 620q-35 35 -35 85t35 85t85 35q49 0 84.5 -35t35.5 -85q0 -49 -35.5 -84.5t-84.5 -35.5q-50 0 -85 35zM-229.5 634.5q29.5 29.5 29.5 70.5t-29.5 70.5t-70.5 29.5q-42 0 -71 -29t-29 -71t29 -71t71 -29q41 0 70.5 29.5z" glyph-name="uni030A" horiz-adv-x="0" unicode="̊"/>
<glyph d="M-356 -245h-22l67 160h21z" glyph-name="uni0327" horiz-adv-x="0" unicode="̧"/>
<glyph d="M80 310h380v-20h-380v20z" glyph-name="endash" horiz-adv-x="540" unicode="–"/>
<glyph d="M108 350l109 -200h-21l-106 194v12l106 194h21zM268 350l109 -200h-21l-106 194v12l106 194h21z" glyph-name="guillemotleft.case" horiz-adv-x="467"/>
<glyph d="M359 350l-109 200h21l106 -194v-12l-106 -194h-21zM199 350l-109 200h21l106 -194v-12l-106 -194h-21z" glyph-name="guillemotright.case" horiz-adv-x="467"/>
<glyph d="M225 33q-84 48 -132 132t-48 185t48 185t132 132t185 48t185 -48t132 -132t48 -185q0 -112 -56 -198h-159v118q-21 -58 -76 -93t-125 -35q-58 0 -93.5 28t-35.5 74q0 60 53 89.5t178 37.5q55 4 77 14t22 32q0 34 -18.5 64t-51.5 47.5t-75 17.5q-62 0 -103.5 -34.5 t-51.5 -96.5h-20q11 71 57.5 111t117.5 40q75 0 120 -44t45 -117v-233h128q47 80 47 178q0 96 -45.5 175t-124.5 124.5t-175 45.5t-175 -45.5t-124.5 -124.5t-45.5 -175t45.5 -175t124.5 -124.5t175 -45.5q70 0 133 25t111 72l14 -13q-50 -50 -117 -77t-141 -27 q-101 0 -185 48zM462 185.5q45 23.5 71.5 64t26.5 90.5v36q-18 -11 -45 -17t-72 -8q-99 -6 -146 -31.5t-47 -72.5q0 -40 29.5 -62.5t82.5 -22.5q55 0 100 23.5z" glyph-name="at.case" horiz-adv-x="820"/>
<glyph d="M-315 745h30l-10 -160h-10z" glyph-name="uni0307.cv01" horiz-adv-x="0"/>
</font>
</defs>
</svg>
