<?xml version="1.0" encoding="UTF-8"?>
<!DOCTYPE svg  PUBLIC '-//W3C//DTD SVG 1.1//EN'  'http://www.w3.org/Graphics/SVG/1.1/DTD/svg11.dtd'>
<svg version="1.1" xmlns="http://www.w3.org/2000/svg">
<defs>
<font id="KyivTypeSans-Medium3" horiz-adv-x="560">
<font-face font-family="KyivType Sans Medium3" font-weight="500" ascent="800" bbox="-486 -245 982 1028" cap-height="700" descent="-200" panose-1="0 0 6 0 0 0 0 0 0 0" underline-position="-100" underline-thickness="50" unicode-range="U+0020-2013" units-per-em="1000" x-height="500"/>
<missing-glyph/>
<glyph glyph-name="space" horiz-adv-x="250" unicode=" "/>
<glyph d="M93 700h130l-58 -470h-14zM106.5 13q-21.5 22 -21.5 54t22 53.5t53 21.5q32 0 53.5 -21.5t21.5 -53.5t-21.5 -54t-53.5 -22t-53.5 22z" glyph-name="exclam" horiz-adv-x="320" unicode="!"/>
<glyph d="M38 705h125l-58 -220h-10zM193 705h125l-58 -220h-10z" glyph-name="quotedbl" horiz-adv-x="355" unicode='"'/>
<glyph d="M240 150h-150v103h150v195h-150v102h150v165h20v-165h180v165h20v-165h150v-102h-150v-195h150v-103h-150v-165h-20v165h-180v-165h-20v165zM440 253v195h-180v-195h180z" glyph-name="numbersign" horiz-adv-x="700" unicode="#"/>
<glyph d="M158 52.5q-77 64.5 -90 171.5h20q14 -101 86 -159.5t177 -58.5q86 0 137 35t51 98q0 47 -27.5 77t-69.5 47.5t-111 37.5q-76 22 -125 44t-84 63t-35 106q0 61 32 106t90.5 70t135.5 25v115h20v-115q107 -6 175 -68.5t78 -166.5h-19q-13 100 -77 157t-163 57 q-80 0 -130 -35t-50 -97q0 -44 27 -72t66 -43.5t109 -35.5q83 -25 134 -47t87 -64.5t36 -110.5q0 -66 -36 -111.5t-96 -68.5t-133 -24v-115h-20v115q-118 3 -195 67.5z" glyph-name="dollar" horiz-adv-x="700" unicode="$"/>
<glyph d="M119 406q-37 21 -58 58t-21 81t21 81t58 58t81 21t81 -21t58 -58t21 -81t-21 -81t-58 -58t-81 -21t-81 21zM558 700h22l-398 -700h-22zM270 443.5q27 38.5 27 101.5t-27 101.5t-70 38.5q-42 0 -69 -38.5t-27 -101.5t27 -101.5t69 -38.5q43 0 70 38.5zM459 16 q-37 21 -58 58t-21 81t21 81t58 58t81 21t81 -21t58 -58t21 -81t-21 -81t-58 -58t-81 -21t-81 21zM610 53.5q27 38.5 27 101.5t-27 101.5t-70 38.5q-42 0 -69 -38.5t-27 -101.5t27 -101.5t69 -38.5q43 0 70 38.5z" glyph-name="percent" horiz-adv-x="740" unicode="%"/>
<glyph d="M150 11.5q-56 26.5 -87 75t-31 111.5q0 88 62.5 143.5t167.5 62.5h4l-198 277v19h493v-20h-358l358 -494q46 88 55 198h20q-11 -127 -62 -216l116 -168h-135l-56 73q-43 -43 -98.5 -65.5t-120.5 -22.5q-74 0 -130 26.5zM489 87l-209 298h-12q-61 -8 -98.5 -58t-37.5 -121 q0 -86 47 -141t134 -55q102 0 176 77z" glyph-name="ampersand" horiz-adv-x="716" unicode="&amp;"/>
<glyph d="M38 705h125l-58 -220h-10z" glyph-name="quotesingle" horiz-adv-x="200" unicode="'"/>
<glyph d="M242 -56q-65 59 -101 164.5t-36 241.5t36 241.5t101 164.5t148 59v-17q-57 0 -99 -53.5t-64 -154.5t-22 -240t22 -240t64 -154.5t99 -53.5v-17q-83 0 -148 59z" glyph-name="parenleft" horiz-adv-x="500" unicode="("/>
<glyph d="M258.5 756q64.5 -59 100.5 -164.5t36 -241.5t-36 -241.5t-100.5 -164.5t-148.5 -59v17q57 0 99 53.5t64 154.5t22 240t-22 240t-64 154.5t-99 53.5v17q84 0 148.5 -59z" glyph-name="parenright" horiz-adv-x="500" unicode=")"/>
<glyph d="M185 554l-77 -69l-69 20l19 69h119l-147 45v69l64 17l88 -105l-50 141l63 53l63 -53l-50 -141l88 105l64 -17v-69l-148 -45h119l19 -69l-68 -20l-78 69l9 -100h-37z" glyph-name="asterisk" horiz-adv-x="390" unicode="*"/>
<glyph d="M480 340h-190v-190h-20v190h-190v20h190v190h20v-190h190v-20z" glyph-name="plus" unicode="+"/>
<glyph d="M91 -101q37 21 62.5 51.5t34.5 64.5q-24 -19 -49 -19q-31 0 -52.5 20.5t-21.5 51.5t21.5 52.5t54.5 21.5t54 -22.5t21 -59.5q0 -45 -24 -94.5t-56 -70.5h-45v4z" glyph-name="comma" horiz-adv-x="280" unicode=","/>
<glyph d="M80 320h240v-40h-240v40z" glyph-name="hyphen" horiz-adv-x="400" unicode="-"/>
<glyph d="M86.5 13q-21.5 22 -21.5 54t22 53.5t53 21.5q32 0 53.5 -21.5t21.5 -53.5t-21.5 -54t-53.5 -22t-53.5 22z" glyph-name="period" horiz-adv-x="280" unicode="."/>
<glyph d="M388 700h20l-338 -700h-20z" glyph-name="slash" horiz-adv-x="458" unicode="/"/>
<glyph d="M206.5 32q-69.5 47 -109 130.5t-39.5 187.5t39.5 187.5t109 130.5t156.5 47t156.5 -47t109 -130.5t39.5 -187.5t-39.5 -187.5t-109 -130.5t-156.5 -47t-156.5 47zM462.5 47q43.5 44 68 122.5t24.5 180.5t-24.5 181t-68 123t-99.5 44t-100 -44t-68.5 -123t-24.5 -181 t24.5 -180.5t68.5 -122.5t100 -44t99.5 44z" glyph-name="zero" horiz-adv-x="725" unicode="0"/>
<glyph d="M162 628l-147 -105v24l206 153h51v-700h-110v628z" glyph-name="one" horiz-adv-x="394" unicode="1"/>
<glyph d="M332 227q32 24 63 54.5t51 60.5q-26 -21 -60.5 -33t-73.5 -12q-80 0 -143 27t-98.5 74.5t-35.5 107.5t35 108t98.5 74.5t143.5 26.5t143.5 -26t99 -73.5t35.5 -108.5q0 -77 -65 -147t-189 -154l-152 -106h413v-100h-554v18zM436.5 365q45.5 50 45.5 126q0 98 -46.5 153 t-123.5 55q-50 0 -88 -24.5t-59.5 -68t-21.5 -100.5q0 -56 21.5 -99.5t60 -67.5t87.5 -24q79 0 124.5 50z" glyph-name="two" horiz-adv-x="629" unicode="2"/>
<glyph d="M148.5 15q-55.5 28 -88.5 77t-36 112h20q6 -82 62.5 -132t141.5 -50q57 0 99.5 25t64.5 67.5t22 95.5q0 73 -38 120t-102 47q-27 0 -54.5 -9.5t-48.5 -25.5l-8 -6l-14 16l264 248h-385v100h496v-21l-317 -299q48 22 100 22q61 0 110.5 -24t78 -68t28.5 -102 q0 -62 -32.5 -112.5t-94 -79.5t-142.5 -29q-71 0 -126.5 28z" glyph-name="three" horiz-adv-x="573" unicode="3"/>
<glyph d="M387 185h-384v17l405 498h84v-430h131v-85h-131v-185h-105v185zM387 270v373l-307 -373h307z" glyph-name="four" horiz-adv-x="625" unicode="4"/>
<glyph d="M118 44q-71 57 -80 153h20q8 -76 63.5 -123t138.5 -47q57 0 101 24.5t68.5 69.5t24.5 102q0 55 -23 98.5t-65 68t-95 24.5q-61 0 -110.5 -28t-75.5 -76l-19 2l60 388h408v-96h-404l-38 -251q33 41 87 63.5t123 22.5q77 0 136.5 -28t92.5 -77.5t33 -113.5 q0 -67 -33.5 -120t-93.5 -83t-136 -30q-112 0 -183 57z" glyph-name="five" horiz-adv-x="604" unicode="5"/>
<glyph d="M203.5 31.5q-68.5 46.5 -107 129.5t-38.5 189q0 109 40 191.5t110 128t159 45.5q63 0 114.5 -23.5t84 -65t40.5 -94.5h-21q-10 69 -65 111t-134 42q-97 0 -157.5 -82t-60.5 -253q0 -24 3 -47q20 71 79 111.5t145 40.5q72 0 126.5 -31t84.5 -84t30 -116t-34 -118t-97 -88 t-146 -33q-87 0 -155.5 46.5zM445 32.5q38 29.5 60 79.5t22 109q0 58 -21 104.5t-59 73t-88 26.5q-47 0 -86 -22t-63 -60.5t-27 -85.5q0 -66 23 -124.5t63.5 -94t90.5 -35.5q47 0 85 29.5z" glyph-name="six" horiz-adv-x="683" unicode="6"/>
<glyph d="M289.5 320.5q88.5 160.5 208.5 278.5h-472v101h547v-20q-123 -136 -196.5 -312t-82.5 -368h-112q19 160 107.5 320.5z" glyph-name="seven" horiz-adv-x="583" unicode="7"/>
<glyph d="M193.5 9.5q-67.5 24.5 -105.5 68t-38 97.5q0 67 51 115t151 67q-52 10 -92.5 35.5t-63 61.5t-22.5 74q0 53 35 95t97 66t139 24t139.5 -24t97.5 -66t35 -95q0 -38 -22.5 -74t-63.5 -61.5t-93 -35.5q100 -19 151 -67t51 -115q0 -54 -38 -97.5t-105.5 -68t-151.5 -24.5 t-151.5 24.5zM470.5 410q48.5 46 48.5 120q0 73 -48.5 119t-125.5 46t-125.5 -46t-48.5 -119t48.5 -119.5t125.5 -46.5t125.5 46zM477 51q51 48 51 124q0 49 -23 88t-65 61t-95 22t-94.5 -22t-64.5 -61t-23 -88q0 -50 23 -89.5t64.5 -61t94.5 -21.5q81 0 132 48z" glyph-name="eight" horiz-adv-x="690" unicode="8"/>
<glyph d="M479.5 668.5q68.5 -46.5 107 -129.5t38.5 -189q0 -109 -40 -191.5t-110 -128t-159 -45.5q-63 0 -114.5 23.5t-84 65t-40.5 94.5h21q10 -69 65 -111t134 -42q97 0 157.5 82t60.5 253q0 25 -3 47q-20 -71 -79 -111.5t-145 -40.5q-72 0 -126.5 31t-84.5 84t-30 116t34 118 t97 88t146 33q87 0 155.5 -46.5zM238 667.5q-38 -29.5 -60 -79.5t-22 -109q0 -58 21 -104.5t59 -73t88 -26.5q47 0 86 22t63 60.5t27 85.5q0 66 -23 124.5t-63.5 94t-90.5 35.5q-47 0 -85 -29.5z" glyph-name="nine" horiz-adv-x="683" unicode="9"/>
<glyph d="M86.5 13q-21.5 22 -21.5 54t22 53.5t53 21.5q32 0 53.5 -21.5t21.5 -53.5t-21.5 -54t-53.5 -22t-53.5 22zM86.5 353q-21.5 22 -21.5 54t22 53.5t53 21.5q32 0 53.5 -21.5t21.5 -53.5t-21.5 -54t-53.5 -22t-53.5 22z" glyph-name="colon" horiz-adv-x="280" unicode=":"/>
<glyph d="M91 -101q37 21 62.5 51.5t34.5 64.5q-24 -19 -49 -19q-31 0 -52.5 20.5t-21.5 51.5t21.5 52.5t54.5 21.5t54 -22.5t21 -59.5q0 -45 -24 -94.5t-56 -70.5h-45v4zM86.5 353q-21.5 22 -21.5 54t22 53.5t53 21.5q32 0 53.5 -21.5t21.5 -53.5t-21.5 -54t-53.5 -22t-53.5 22z " glyph-name="semicolon" horiz-adv-x="281" unicode=";"/>
<glyph d="M480 527l-375 -177l375 -177v-23l-400 190v20l400 190v-23z" glyph-name="less" unicode="&lt;"/>
<glyph d="M80 450h400v-20h-400v20zM80 270h400v-20h-400v20z" glyph-name="equal" unicode="="/>
<glyph d="M80 173l375 177l-375 177v23l400 -190v-20l-400 -190v23z" glyph-name="greater" unicode="&gt;"/>
<glyph d="M228 256q0 48 18 79t52 66q35 39 52 69.5t17 77.5q0 64 -37.5 100.5t-97.5 36.5q-77 0 -120.5 -54.5t-41.5 -141.5h-20q-2 102 56 164t158 62q52 0 101 -18t80.5 -54.5t31.5 -90.5t-27 -86.5t-75 -62.5q-44 -30 -69.5 -51.5t-41 -51.5t-15.5 -72h-15q-6 14 -6 28z M201.5 13q-21.5 22 -21.5 54t22 53.5t53 21.5q32 0 53.5 -21.5t21.5 -53.5t-21.5 -54t-53.5 -22t-53.5 22z" glyph-name="question" horiz-adv-x="524" unicode="?"/>
<glyph d="M225 -119q-84 48 -132 132t-48 185t48 185t132 132t185 48t185 -48t132 -132t48 -185q0 -112 -56 -198h-210v102q-19 -54 -64.5 -82.5t-108.5 -28.5q-61 0 -96 28t-35 76q0 54 46 83.5t146 36.5q62 4 88 21t26 49q0 47 -31.5 75.5t-80.5 28.5q-53 0 -91 -34.5t-46 -91.5 h-20q9 70 57.5 110.5t121.5 40.5q76 0 124.5 -45t48.5 -122v-227h114q47 79 47 178q0 96 -45.5 175t-124.5 124.5t-175 45.5t-175 -45.5t-124.5 -124.5t-45.5 -175t45.5 -175t124.5 -124.5t175 -45.5q70 0 133 25.5t111 71.5l14 -13q-50 -49 -116.5 -76.5t-141.5 -27.5 q-101 0 -185 48zM439.5 43q31.5 22 50.5 58.5t19 78.5v51q-26 -23 -85 -30q-67 -8 -98 -32.5t-31 -67.5q0 -39 20.5 -59.5t57.5 -20.5q35 0 66.5 22z" glyph-name="at" horiz-adv-x="820" unicode="@"/>
<glyph d="M291 700h90l279 -700h-129l-92 230h-314l-91 -230h-21zM431 250l-148 366h-2l-148 -366h298z" glyph-name="A" horiz-adv-x="675" unicode="A"/>
<glyph d="M358 700q133 0 206 -46.5t73 -128.5q0 -65 -44.5 -110t-123.5 -59v-4q92 -10 144.5 -56t52.5 -116q0 -84 -75 -132t-214 -48h-264v700h245zM486.5 401q42.5 41 42.5 119t-44 119t-127 41h-125v-320h129q82 0 124.5 41zM501 61q47 41 47 119t-48 119.5t-137 41.5h-130 v-321h131q90 0 137 41z" glyph-name="B" horiz-adv-x="719" unicode="B"/>
<glyph d="M229 31q-80 46 -124.5 128.5t-44.5 190.5t44.5 191t124.5 128.5t184 45.5q82 0 150.5 -35.5t112.5 -99.5t54 -145h-20q-10 71 -46 127t-92 87.5t-123 31.5q-78 0 -138.5 -41.5t-94 -116.5t-33.5 -173q0 -97 33.5 -172t94 -116.5t138.5 -41.5q67 0 123 31.5t92 87 t46 126.5h20q-10 -81 -54 -145t-112.5 -99.5t-150.5 -35.5q-104 0 -184 46z" glyph-name="C" horiz-adv-x="780" unicode="C"/>
<glyph d="M331 700q116 0 204.5 -44t136.5 -123.5t48 -182.5t-48 -182.5t-136.5 -123.5t-204.5 -44h-218v700h218zM528.5 105.5q69.5 85.5 69.5 244.5t-69.5 245t-192.5 86h-103v-661h103q123 0 192.5 85.5z" glyph-name="D" horiz-adv-x="780" unicode="D"/>
<glyph d="M113 700h412v-20h-292v-320h206v-20h-206v-320h337v-20h-457v700z" glyph-name="E" horiz-adv-x="585" unicode="E"/>
<glyph d="M113 700h422v-20h-302v-320h216v-20h-216v-340h-120v700z" glyph-name="F" horiz-adv-x="540" unicode="F"/>
<glyph d="M217.5 30.5q-74.5 45.5 -116 127.5t-41.5 188q0 110 44.5 193.5t124.5 129.5t182 46q122 0 203 -66t102 -176h-20q-20 94 -85.5 151t-163.5 57q-77 0 -137 -41.5t-93.5 -116.5t-33.5 -172t33 -172.5t89.5 -117t126.5 -41.5q60 0 107.5 30.5t74 84.5t26.5 123v82h-204v20 h319v-360h-115v149q-27 -76 -92.5 -120t-159.5 -44q-96 0 -170.5 45.5z" glyph-name="G" horiz-adv-x="816" unicode="G"/>
<glyph d="M113 700h120v-340h355v340h120v-700h-120v340h-355v-340h-120v700z" glyph-name="H" horiz-adv-x="820" unicode="H"/>
<glyph d="M113 700h120v-700h-120v700z" glyph-name="I" horiz-adv-x="345" unicode="I"/>
<glyph d="M144 15q-52 30 -80.5 86.5t-28.5 134.5v34h20v-34q0 -63 21 -111t59 -74t87 -26q72 0 114 53.5t42 142.5v479h120v-454q0 -124 -62.5 -192.5t-170.5 -68.5q-69 0 -121 30z" glyph-name="J" horiz-adv-x="601" unicode="J"/>
<glyph d="M113 700h120v-340h81l296 340h26l-235 -270l299 -430h-141l-240 340h-86v-340h-120v700z" glyph-name="K" horiz-adv-x="720" unicode="K"/>
<glyph d="M113 700h120v-680h327v-20h-447v700z" glyph-name="L" horiz-adv-x="580" unicode="L"/>
<glyph d="M113 700h118l253 -549l250 549h111v-700h-120v631l-287 -631h-19l-285 622v-622h-21v700z" glyph-name="M" horiz-adv-x="957" unicode="M"/>
<glyph d="M110 700h117l422 -533v533h21v-720h-23l-516 645v-625h-21v700z" glyph-name="N" horiz-adv-x="780" unicode="N"/>
<glyph d="M236 32q-83 47 -129.5 130t-46.5 188t46.5 188t129.5 130t187 47t186.5 -47t129 -130t46.5 -188t-46.5 -188t-129 -130t-186.5 -47t-187 47zM550 45q54 41 83.5 118.5t29.5 186.5t-29.5 187t-83.5 118.5t-127 40.5q-74 0 -128 -40.5t-83 -118.5t-29 -187t29 -186.5 t83.5 -118.5t127.5 -41t127 41z" glyph-name="O" horiz-adv-x="845" unicode="O"/>
<glyph d="M331 700q137 0 212 -53t75 -147t-75 -147t-212 -53h-98v-300h-120v700h218zM453.5 367q44.5 47 44.5 133t-44.5 133t-125.5 47h-95v-360h95q81 0 125.5 47z" glyph-name="P" horiz-adv-x="663" unicode="P"/>
<glyph d="M206 53q-69 49 -107.5 126t-38.5 171q0 105 46.5 188t129.5 130t187 47t186.5 -47t129 -130t46.5 -188q0 -94 -38 -171.5t-107 -126t-157 -60.5v-192h-120v192q-88 12 -157 61zM550 45q54 41 83.5 118.5t29.5 186.5t-29.5 187t-83.5 118.5t-127 40.5q-74 0 -128 -40.5 t-83 -118.5t-29 -187t29 -186.5t83.5 -118.5t127.5 -41t127 41z" glyph-name="Q" horiz-adv-x="845" unicode="Q"/>
<glyph d="M335 700q134 0 210 -51.5t76 -142.5q0 -62 -43.5 -105.5t-117.5 -61.5l244 -339h-140l-229 316q-5 -1 -16 -1h-86v-315h-120v700h222zM463 380q47 45 47 128q0 82 -47 127t-132 45h-98v-345h98q85 0 132 45z" glyph-name="R" horiz-adv-x="714" unicode="R"/>
<glyph d="M181 14.5q-64 29.5 -103 83.5t-48 126h20q14 -101 86 -159.5t177 -58.5q86 0 137 35t51 98q0 47 -27.5 77t-69.5 47.5t-111 37.5q-76 22 -125 44t-84 63t-35 106q0 64 35 109.5t94 68.5t129 23q116 0 189.5 -63t83.5 -172h-19q-13 100 -77 157t-163 57q-80 0 -130 -35 t-50 -97q0 -44 27 -72t66 -43.5t109 -35.5q83 -25 134 -47t87 -64.5t36 -110.5t-37.5 -114t-99.5 -68t-137 -22q-81 0 -145 29.5z" glyph-name="S" horiz-adv-x="635" unicode="S"/>
<glyph d="M253 680h-243v20h605v-20h-242v-680h-120v680z" glyph-name="T" horiz-adv-x="625" unicode="T"/>
<glyph d="M236 21q-65 36 -100.5 102.5t-35.5 155.5v421h120v-421q0 -129 56 -194.5t156 -65.5q64 0 112.5 33.5t75.5 94t27 139.5v414h20v-414q0 -93 -33.5 -161t-96.5 -104t-149 -36q-87 0 -152 36z" glyph-name="U" horiz-adv-x="757" unicode="U"/>
<glyph d="M20 700h128l243 -613h3l242 613h21l-273 -700h-90z" glyph-name="V" horiz-adv-x="675" unicode="V"/>
<glyph d="M28 700h124l183 -602l172 602h86l184 -602l186 602h19l-213 -700h-89l-180 593l-169 -593h-89z" glyph-name="W" horiz-adv-x="1005" unicode="W"/>
<glyph d="M279 335l-254 365h139l203 -281l216 281h25l-229 -298l277 -402h-139l-226 317l-241 -317h-25z" glyph-name="X" horiz-adv-x="671" unicode="X"/>
<glyph d="M257 284l-252 416h125l237 -396l239 396h22l-251 -418v-282h-120v284z" glyph-name="Y" horiz-adv-x="631" unicode="Y"/>
<glyph d="M30 15l416 665h-390v20h526v-15l-416 -665h413v-20h-549v15z" glyph-name="Z" horiz-adv-x="614" unicode="Z"/>
<glyph d="M140 800h270v-20h-175v-860h175v-20h-270v900z" glyph-name="bracketleft" horiz-adv-x="500" unicode="["/>
<glyph d="M50 700h20l338 -700h-20z" glyph-name="backslash" horiz-adv-x="458" unicode="\"/>
<glyph d="M360 -100h-270v20h175v860h-175v20h270v-900z" glyph-name="bracketright" horiz-adv-x="500" unicode="]"/>
<glyph d="M270 700h20l167 -290h-23l-154 267l-154 -267h-23z" glyph-name="asciicircum" unicode="^"/>
<glyph d="M30 10h390v-20h-390v20z" glyph-name="underscore" horiz-adv-x="450" unicode="_"/>
<glyph d="M74.5 24q-41.5 35 -41.5 94q0 71 61.5 104t163.5 42q76 6 113.5 25.5t37.5 57.5q0 64 -39 100t-100 36q-67 0 -114.5 -43.5t-59.5 -116.5h-19q12 87 71.5 137t147.5 50q62 0 110.5 -25t75.5 -71.5t27 -109.5v-284h64v-20h-166v125q-24 -65 -80 -100.5t-132 -35.5 q-79 0 -120.5 35zM321 46.5q39 25.5 62 71.5t23 104l1 67q-26 -26 -105 -36q-85 -12 -123.5 -42.5t-38.5 -86.5q0 -50 26 -76.5t70 -26.5q46 0 85 25.5z" glyph-name="a" horiz-adv-x="595" unicode="a"/>
<glyph d="M269 25q-50 35 -74 98v-123h-105v710h105v-332q24 63 74 97.5t118 34.5q65 0 118 -33t83.5 -92t30.5 -135t-30.5 -135t-83.5 -92t-118 -33q-68 0 -118 35zM469.5 79q42.5 60 42.5 171q0 112 -42.5 172t-111.5 60q-48 0 -86 -30.5t-59.5 -84t-21.5 -117.5t21.5 -117 t59.5 -83.5t86 -30.5q69 0 111.5 60z" glyph-name="b" horiz-adv-x="667" unicode="b"/>
<glyph d="M175 23.5q-60 33.5 -93.5 92.5t-33.5 134t33.5 134.5t93.5 92.5t136 33q96 0 159.5 -51.5t80.5 -141.5h-20q-16 76 -66.5 120.5t-122.5 44.5q-86 0 -136.5 -62t-50.5 -170q0 -107 50.5 -169.5t136.5 -62.5q72 0 122.5 45t66.5 121h20q-17 -91 -80 -142.5t-160 -51.5 q-76 0 -136 33.5z" glyph-name="c" horiz-adv-x="586" unicode="c"/>
<glyph d="M162 23q-53 33 -83.5 92t-30.5 135t30.5 135t83.5 92t118 33q68 0 118 -34.5t74 -97.5v332h105v-710h-105v123q-24 -63 -74 -98t-118 -35q-65 0 -118 33zM395 49.5q38 30.5 59.5 83.5t21.5 117t-21.5 117.5t-59.5 84t-86 30.5q-69 0 -111.5 -60t-42.5 -172 q0 -111 42.5 -171t111.5 -60q48 0 86 30.5z" glyph-name="d" horiz-adv-x="667" unicode="d"/>
<glyph d="M176.5 23.5q-60.5 33.5 -94.5 92.5t-34 134t34 134t95 92.5t138 33.5t136 -33t92.5 -92t34.5 -134v-11h-422q4 -105 54 -163.5t132 -58.5q66 0 116 35.5t68 96.5h21q-20 -74 -82.5 -117t-151.5 -43q-76 0 -136.5 33.5zM426 431q-43 61 -112 61q-70 0 -113.5 -61 t-45.5 -161v-10h317q-3 110 -46 171z" glyph-name="e" horiz-adv-x="609" unicode="e"/>
<glyph d="M35 480v20h98v51q0 91 49.5 140t135.5 49q71 0 115.5 -38t44.5 -95h-20v1q-1 48 -39.5 79t-95.5 31q-55 0 -91 -29t-36 -85q0 -18 4 -33t12 -37l11 -34h193v-20h-189q11 -33 11 -77v-403h-105v480h-98z" glyph-name="f" horiz-adv-x="424" unicode="f"/>
<glyph d="M155.5 -168q-77.5 42 -77.5 115q0 57 52 96.5t145 53.5q-125 11 -195 39.5t-70 95.5q0 28 20 46.5t50 18.5q21 0 46 -10q-16 25 -16 59q0 67 56 109.5t155 51.5v123h97v-123q103 -7 162.5 -49.5t59.5 -111.5q0 -76 -71.5 -120t-193.5 -44q-57 0 -97 9t-64.5 21.5 t-53.5 32.5q-26 17 -42 24.5t-38 7.5t-35.5 -12.5t-13.5 -31.5q0 -45 42.5 -70t104.5 -35.5t162 -18.5q21 -3 68 -7q126 -12 190.5 -47t64.5 -108q0 -74 -78 -115.5t-215 -41.5t-214.5 42zM492.5 238q43.5 40 43.5 109q0 70 -43 109.5t-118 39.5t-118 -39.5t-43 -109.5 q0 -69 42.5 -109t118.5 -40q74 0 117.5 40zM505 -155q49 37 49 103q0 69 -47 105t-137 36q-86 0 -134.5 -37t-48.5 -104q0 -66 48.5 -103t134.5 -37t135 37z" glyph-name="g" horiz-adv-x="683" unicode="g"/>
<glyph d="M195 710v-328q22 61 69 94.5t112 33.5q97 0 150.5 -62t53.5 -175v-273h-106v273q0 102 -34 154.5t-99 52.5q-41 0 -74.5 -27.5t-52.5 -76.5t-19 -109v-267h-105v710h105z" glyph-name="h" horiz-adv-x="660" unicode="h"/>
<glyph d="M90 500h105v-500h-105v500zM81 745h125l-58 -180h-10z" glyph-name="i" horiz-adv-x="285" unicode="i"/>
<glyph d="M-27.5 -193q-34.5 17 -54.5 46t-20 65h19v-1q0 -45 37 -75t89 -30q50 0 84.5 28t34.5 83q0 15 -4 33t-7.5 29t-4.5 16q-13 40 -19.5 72t-6.5 74v353h105v-525q0 -88 -48 -136.5t-128 -48.5q-42 0 -76.5 17zM111 745h125l-58 -180h-10z" glyph-name="j" horiz-adv-x="315" unicode="j"/>
<glyph d="M90 710h105v-450h67l217 240h26l-168 -182l217 -318h-121l-172 240h-66v-240h-105v710z" glyph-name="k" horiz-adv-x="569" unicode="k"/>
<glyph d="M90 710h105v-710h-105v710z" glyph-name="l" horiz-adv-x="285" unicode="l"/>
<glyph d="M195 500v-116q21 60 66 93t105 33q71 0 117.5 -38t63.5 -106q18 69 64.5 106.5t114.5 37.5q90 0 139 -59.5t49 -167.5v-283h-106v283q0 97 -30.5 147t-87.5 50q-39 0 -70 -25.5t-48.5 -71t-17.5 -103.5v-280h-105v283q0 97 -30.5 147t-87.5 50q-38 0 -69.5 -28t-49 -76.5 t-17.5 -108.5v-267h-105v500h105z" glyph-name="m" horiz-adv-x="994" unicode="m"/>
<glyph d="M195 500v-118q22 61 69 94.5t112 33.5q97 0 150.5 -62t53.5 -175v-273h-106v273q0 102 -34 154.5t-99 52.5q-41 0 -74.5 -27.5t-52.5 -76.5t-19 -109v-267h-105v500h105z" glyph-name="n" horiz-adv-x="660" unicode="n"/>
<glyph d="M181.5 23.5q-62.5 33.5 -98 93t-35.5 133.5q0 75 35.5 134t98 92.5t141.5 33.5t141.5 -33.5t98 -93t35.5 -133.5t-35.5 -133.5t-98.5 -93t-141 -33.5q-79 0 -141.5 33.5zM445 72q45 64 45 178t-45 178.5t-122 64.5t-122.5 -64.5t-45.5 -178.5q0 -113 45.5 -177.5 t122.5 -64.5t122 64z" glyph-name="o" horiz-adv-x="645" unicode="o"/>
<glyph d="M195 500v-122q24 63 74 97.5t118 34.5q65 0 118 -33t83.5 -92t30.5 -135t-30.5 -135t-83.5 -92t-118 -33q-68 0 -118 35t-74 98v-323h-105v700h105zM469.5 79q42.5 60 42.5 171q0 112 -42.5 172t-111.5 60q-48 0 -86 -30.5t-59.5 -84t-21.5 -117.5t21.5 -117t59.5 -83.5 t86 -30.5q69 0 111.5 60z" glyph-name="p" horiz-adv-x="667" unicode="p"/>
<glyph d="M472 123q-24 -63 -74 -98t-118 -35q-65 0 -118 33t-83.5 92t-30.5 135t30.5 135t83.5 92t118 33q68 0 118 -34.5t74 -97.5v122h105v-700h-105v323zM395 49.5q38 30.5 59.5 83.5t21.5 117t-21.5 117.5t-59.5 84t-86 30.5q-69 0 -111.5 -60t-42.5 -172q0 -111 42.5 -171 t111.5 -60q48 0 86 30.5z" glyph-name="q" horiz-adv-x="667" unicode="q"/>
<glyph d="M195 500v-124q21 64 65.5 99t104.5 35q73 0 113 -47.5t40 -139.5v-18h-103v27q0 137 -94 137q-35 0 -64 -26.5t-45.5 -73t-16.5 -102.5v-267h-105v500h105z" glyph-name="r" horiz-adv-x="528" unicode="r"/>
<glyph d="M105 33.5q-66 44.5 -78 126.5h21q11 -72 69.5 -110.5t137.5 -38.5q56 0 100.5 21.5t44.5 65.5q0 28 -17.5 46t-45 28.5t-78.5 24.5l-31 9q-83 21 -134.5 55t-51.5 101q0 75 61.5 112t144.5 37q89 0 148 -44t69 -123h-20q-12 70 -63 107.5t-126 37.5q-56 0 -97 -22.5 t-41 -69.5q0 -26 18.5 -43t47.5 -28t83 -26l21 -6q55 -13 95 -29.5t69 -47t29 -79.5q0 -52 -33.5 -85.5t-83 -48.5t-99.5 -15q-94 0 -160 44.5z" glyph-name="s" horiz-adv-x="516" unicode="s"/>
<glyph d="M125 155v325h-107v20h97q10 0 10 10v110h106l-1 -120h195v-20h-195v-340q0 -125 108 -125q39 0 87 19v-19q-22 -11 -60 -18t-70 -7q-170 0 -170 165z" glyph-name="t" horiz-adv-x="450" unicode="t"/>
<glyph d="M133.5 52.5q-53.5 62.5 -53.5 174.5v273h106v-273q0 -101 34.5 -154t98.5 -53q42 0 75 27.5t52 76.5t19 109v267h105v-500h-105v119q-22 -61 -69 -95t-112 -34q-97 0 -150.5 62.5z" glyph-name="u" horiz-adv-x="660" unicode="u"/>
<glyph d="M13 500h113l183 -429l183 429h21l-210 -500h-80z" glyph-name="v" horiz-adv-x="523" unicode="v"/>
<glyph d="M20 500h108l134 -413l134 413h82l133 -413l135 413h21l-161 -500h-76l-137 421l-136 -421h-76z" glyph-name="w" horiz-adv-x="784" unicode="w"/>
<glyph d="M221 234l-197 266h127l148 -190l158 190h25l-171 -207l214 -293h-126l-166 217l-179 -217h-26z" glyph-name="x" horiz-adv-x="545" unicode="x"/>
<glyph d="M73.5 -166q-42.5 44 -42.5 113v26h19v-25q0 -60 35.5 -98t90.5 -38q47 0 76.5 28t29.5 74v9q0 26 -10.5 59.5t-42.5 97.5l-219 420h116l163 -313q12 -25 26 -62.5t17 -56.5q6 24 15 46l156 386h22l-161 -398q-11 -28 -16 -52.5t-5 -57.5v-25q0 -82 -43.5 -129.5 t-114.5 -47.5q-69 0 -111.5 44z" glyph-name="y" horiz-adv-x="535" unicode="y"/>
<glyph d="M25 15l318 465h-298v20h420v-15l-318 -465h315v-20h-437v15z" glyph-name="z" horiz-adv-x="496" unicode="z"/>
<glyph d="M197 -81q-40 34 -40 102q0 28 16 118q18 94 18 129q0 72 -65 72h-43v20h43q65 0 65 73q0 35 -18 129q-16 88 -16 117q0 68 40 102t110 34q22 0 51 -4t46 -12v-20q-37 15 -73 15q-37 0 -59.5 -21t-22.5 -64q0 -23 14 -113q16 -96 16 -126q0 -96 -82 -120q82 -23 82 -120 q0 -29 -16 -125q-14 -90 -14 -114q0 -43 22.5 -64t59.5 -21q36 0 73 15v-20q-17 -8 -46 -12t-51 -4q-70 0 -110 34z" glyph-name="braceleft" horiz-adv-x="500" unicode="{"/>
<glyph d="M140 800h20v-900h-20v900z" glyph-name="bar" horiz-adv-x="300" unicode="|"/>
<glyph d="M304 781q40 -34 40 -102q0 -29 -16 -117q-18 -94 -18 -129q0 -73 65 -73h43v-20h-43q-65 0 -65 -72q0 -35 18 -129q16 -90 16 -118q0 -68 -40 -102t-111 -34q-22 0 -50.5 4t-45.5 12v20q36 -15 72 -15q37 0 60 21t23 64q0 24 -14 114q-16 96 -16 125q0 98 81 120 q-81 24 -81 120q0 30 16 126q14 90 14 113q0 43 -23 64t-60 21q-36 0 -72 -15v20q17 8 45.5 12t50.5 4q71 0 111 -34z" glyph-name="braceright" horiz-adv-x="500" unicode="}"/>
<glyph d="M107 364.5q27 23.5 64 23.5q26 0 50.5 -7.5t62.5 -22.5q36 -14 58.5 -21t46.5 -7q28 0 49.5 18t21.5 41h20q0 -32 -27 -55.5t-64 -23.5q-26 0 -50.5 7.5t-62.5 22.5q-36 14 -58.5 21t-46.5 7q-28 0 -49.5 -18t-21.5 -41h-20q0 32 27 55.5z" glyph-name="asciitilde" unicode="~"/>
<glyph glyph-name="uni00A0" horiz-adv-x="250" unicode=" "/>
<glyph d="M213.5 487.5q21.5 -21.5 21.5 -53.5t-21.5 -53.5t-53.5 -21.5t-53.5 21.5t-21.5 53.5t22 53.5t53 21.5q32 0 53.5 -21.5zM228 -200h-130l58 470h14z" glyph-name="exclamdown" horiz-adv-x="320" unicode="¡"/>
<glyph d="M501 165q50 45 66 121h20q-16 -89 -76.5 -140t-153.5 -54v-122h-20v122q-73 2 -130.5 36t-90 92.5t-32.5 131.5t32.5 131.5t90 92.5t130.5 36v118h20v-118q93 -3 153.5 -54t76.5 -139h-20q-16 76 -66 120.5t-122 44.5q-86 0 -136.5 -62t-50.5 -170q0 -107 50.5 -169.5 t136.5 -62.5q72 0 122 45z" glyph-name="cent" horiz-adv-x="700" unicode="¢"/>
<glyph d="M73 14.5q-32 29.5 -32 74.5q0 44 32.5 74.5t86.5 30.5q29 0 59.5 -8t69.5 -23v8q-4 27 -20 55t-44 67q-29 42 -32 47h-138v20h124q-22 36 -34.5 71t-12.5 76q0 63 28.5 110.5t80 73t119.5 25.5q105 0 168 -58.5t67 -157.5h-20q-4 88 -55 136.5t-127 48.5 q-71 0 -113.5 -43.5t-42.5 -120.5q0 -27 5 -51.5t15 -58.5q9 -30 14 -51h270v-20h-264l9 -23q15 -42 22 -67t7 -52q0 -16 -2 -44l20 -9q57 -26 97.5 -39t83.5 -13q122 0 122 106q0 15 -5 40h17q7 -32 7 -65q0 -84 -41.5 -136.5t-120.5 -52.5q-50 0 -96.5 20t-111.5 58 q-18 -36 -51 -57t-75 -21q-54 0 -86 29.5zM222.5 23.5q29.5 18.5 44.5 49.5q-47 26 -76.5 38.5t-57.5 12.5q-30 0 -48 -15t-18 -39q0 -27 25 -46t64 -19q37 0 66.5 18.5z" glyph-name="sterling" horiz-adv-x="700" unicode="£"/>
<glyph d="M202 216q-24 27 -38 61.5t-14 72.5t14 72.5t38 61.5l-92 92l14 14l92 -92q27 24 61.5 38t72.5 14t72.5 -14t61.5 -38l92 92l14 -14l-92 -92q24 -27 38 -61.5t14 -72.5t-14 -72.5t-38 -61.5l92 -92l-14 -14l-92 92q-27 -24 -61.5 -38t-72.5 -14t-72.5 14t-61.5 38l-92 -92 l-14 14zM440 194.5q41 24.5 65.5 65.5t24.5 90t-24.5 90t-65.5 65.5t-90 24.5t-90 -24.5t-65.5 -65.5t-24.5 -90t24.5 -90t65.5 -65.5t90 -24.5t90 24.5z" glyph-name="currency" horiz-adv-x="700" unicode="¤"/>
<glyph d="M290 180h-198v20h198v84l-11 16h-187v20h175l-228 380h124l236 -393h3l237 393h23l-228 -380h185v-20h-197l-12 -18v-82h209v-20h-209v-180h-120v180z" glyph-name="yen" horiz-adv-x="700" unicode="¥"/>
<glyph d="M140 800h20v-380h-20v380zM140 280h20v-380h-20v380z" glyph-name="brokenbar" horiz-adv-x="300" unicode="¦"/>
<glyph d="M201 -54.5q-68 45.5 -79 128.5h21q11 -73 71 -112.5t136 -39.5q56 0 100.5 22t44.5 68q0 29 -17 47t-44 28.5t-77 24.5l-34 10q-61 16 -105 34t-75 51t-31 83q0 57 37 92t97 51q-51 21 -80 51.5t-29 79.5q0 77 61.5 114.5t144.5 37.5q87 0 147.5 -45t69.5 -125h-20 q-12 71 -65.5 109t-128.5 38q-53 0 -93 -23t-40 -71q0 -27 18.5 -44.5t47.5 -28.5t83 -26l21 -6q64 -16 107 -32.5t75 -49t32 -83.5q0 -57 -37 -93t-95 -53q51 -20 81 -50.5t30 -81.5q0 -53 -33.5 -87t-83 -49t-99.5 -15q-91 0 -159 45.5zM501 221q33 21 33 57 q0 33 -23.5 55.5t-59.5 36.5t-97 31q-48 14 -71 22q-43 -6 -73.5 -27t-30.5 -59q0 -34 32 -59.5t75 -41.5t109 -35l31 -9q42 8 75 29z" glyph-name="section" horiz-adv-x="700" unicode="§"/>
<glyph d="M225 33q-84 48 -132 132t-48 185t48 185t132 132t185 48t185 -48t132 -132t48 -185t-48 -185t-132 -132t-185 -48t-185 48zM585 50.5q79 45.5 124.5 124.5t45.5 175t-45.5 175t-124.5 124.5t-175 45.5t-175 -45.5t-124.5 -124.5t-45.5 -175t45.5 -175t124.5 -124.5 t175 -45.5t175 45.5zM308.5 168.5q-47.5 26.5 -74.5 74t-27 107.5t27 107.5t74.5 74t108.5 26.5q78 0 128.5 -41t63.5 -114h-20q-12 59 -51 93.5t-96 34.5q-68 0 -107.5 -48.5t-39.5 -132.5t39.5 -132.5t107.5 -48.5q57 0 96 34.5t51 93.5h20q-13 -72 -63.5 -113.5 t-128.5 -41.5q-61 0 -108.5 26.5z" glyph-name="copyright" horiz-adv-x="820" unicode="©"/>
<glyph d="M138 300l109 -200h-21l-106 194v12l106 194h21zM298 300l109 -200h-21l-106 194v12l106 194h21z" glyph-name="guillemotleft" horiz-adv-x="497" unicode="«"/>
<glyph d="M480 360v-210h-20v190h-380v20h400z" glyph-name="logicalnot" unicode="¬"/>
<glyph d="M133.5 378.5q-41.5 23.5 -65 65t-23.5 91.5t23.5 91.5t65 65t91.5 23.5t91.5 -23.5t65 -65t23.5 -91.5t-23.5 -91.5t-65 -65t-91.5 -23.5t-91.5 23.5zM307 395q37 21 58 58t21 82t-21 82t-58 58t-82 21t-82 -21t-58 -58t-21 -82t21 -82t58 -58t82 -21t82 21zM216 642 q40 0 62.5 -15.5t22.5 -43.5q0 -36 -41 -51l68 -94h-51l-61 85h-28v-85h-41v204h69zM248.5 551q11.5 12 11.5 33q0 41 -45 41h-27v-86h27q22 0 33.5 12z" glyph-name="registered" horiz-adv-x="440" unicode="®"/>
<glyph d="M70.5 510.5q-35.5 35.5 -35.5 84.5q0 50 35.5 85t84.5 35q50 0 85 -35t35 -85q0 -49 -35 -84.5t-85 -35.5q-49 0 -84.5 35.5zM225.5 524.5q29.5 29.5 29.5 70.5t-29.5 70.5t-70.5 29.5t-70.5 -29.5t-29.5 -70.5t29.5 -70.5t70.5 -29.5t70.5 29.5z" glyph-name="degree" horiz-adv-x="310" unicode="°"/>
<glyph d="M290 410h190v-20h-190v-190h-20v190h-190v20h190v190h20v-190zM80 110v20h400v-20h-400z" glyph-name="plusminus" unicode="±"/>
<glyph d="M281 300q-62 0 -112.5 26.5t-79.5 72t-29 101.5t29 101.5t79.5 72t112.5 26.5h124v-900h-115v500h-9z" glyph-name="paragraph" horiz-adv-x="545" unicode="¶"/>
<glyph d="M86.5 248q-21.5 22 -21.5 54t22 53.5t53 21.5q32 0 53.5 -21.5t21.5 -53.5t-21.5 -54t-53.5 -22t-53.5 22z" glyph-name="periodcentered" horiz-adv-x="280" unicode="·"/>
<glyph d="M359 300l-109 200h21l106 -194v-12l-106 -194h-21zM199 300l-109 200h21l106 -194v-12l-106 -194h-21z" glyph-name="guillemotright" horiz-adv-x="467" unicode="»"/>
<glyph d="M332.5 488.5q21.5 -21.5 21.5 -53.5t-21.5 -53.5t-53.5 -21.5q-31 0 -53 22t-22 53q0 32 21.5 53.5t53.5 21.5t53.5 -21.5zM307 246q0 -47 -17.5 -77.5t-52.5 -67.5q-34 -37 -51.5 -68.5t-17.5 -78.5q0 -65 37 -101t98 -36q76 0 119.5 54.5t42.5 141.5h19 q1 -67 -24.5 -118.5t-74.5 -80t-115 -28.5q-52 0 -101 18t-80 55t-31 91t27 86.5t75 62.5q44 30 69.5 51.5t41 51.5t15.5 72h15q6 -13 6 -28z" glyph-name="questiondown" horiz-adv-x="524" unicode="¿"/>
<glyph d="M291 700h90l279 -700h-129l-92 230h-314l-91 -230h-21zM431 250l-148 366h-2l-148 -366h298zM323 765l-144 180h111l48 -180h-15z" glyph-name="Agrave" horiz-adv-x="675" unicode="À"/>
<glyph d="M291 700h90l279 -700h-129l-92 230h-314l-91 -230h-21zM431 250l-148 366h-2l-148 -366h298zM384 945h111l-143 -180h-16z" glyph-name="Aacute" horiz-adv-x="675" unicode="Á"/>
<glyph d="M291 700h90l279 -700h-129l-92 230h-314l-91 -230h-21zM431 250l-148 366h-2l-148 -366h298zM396 785l-107 119l-107 -119h-25l139 160h81l139 -160h-120z" glyph-name="Acircumflex" horiz-adv-x="675" unicode="Â"/>
<glyph d="M291 700h90l279 -700h-129l-92 230h-314l-91 -230h-21zM431 250l-148 366h-2l-148 -366h298zM179.5 895.5q28.5 30.5 73.5 30.5q28 0 53.5 -6t59.5 -18q34 -11 51.5 -15.5t36.5 -4.5q22 0 37 11.5t15 32.5h17q0 -51 -28 -81.5t-73 -30.5q-27 0 -53 6.5t-60 18.5 q-33 11 -51.5 15.5t-37.5 4.5q-22 0 -37 -12t-15 -33h-17q0 51 28.5 81.5z" glyph-name="Atilde" horiz-adv-x="675" unicode="Ã"/>
<glyph d="M291 700h90l279 -700h-129l-92 230h-314l-91 -230h-21zM431 250l-148 366h-2l-148 -366h298zM201 945h123l-57 -180h-9zM350 945h123l-57 -180h-9z" glyph-name="Adieresis" horiz-adv-x="675" unicode="Ä"/>
<glyph d="M291 700h90l279 -700h-129l-92 230h-314l-91 -230h-21zM431 250l-148 366h-2l-148 -366h298zM270.5 780.5q-30.5 17.5 -48 48t-17.5 66.5t17.5 66.5t48 48.5t66.5 18t66.5 -18t48.5 -48.5t18 -66.5t-18 -66t-48.5 -48t-66.5 -18t-66.5 17.5zM423.5 849.5 q28.5 16.5 28.5 45.5q0 30 -28.5 46.5t-86.5 16.5t-86.5 -16.5t-28.5 -46.5q0 -29 28.5 -45.5t86.5 -16.5t86.5 16.5z" glyph-name="Aring" horiz-adv-x="675" unicode="Å"/>
<glyph d="M652 20h278v-20h-399l-92 230h-314l-91 -230h-21l278 700h594v-20h-496l128 -320h282v-20h-275zM133 250h298l-148 366h-2z" glyph-name="AE" horiz-adv-x="945" unicode="Æ"/>
<glyph d="M229 31q-80 46 -124.5 128.5t-44.5 190.5t44.5 191t124.5 128.5t184 45.5q82 0 150.5 -35.5t112.5 -99.5t54 -145h-20q-10 71 -46 127t-92 87.5t-123 31.5q-78 0 -138.5 -41.5t-94 -116.5t-33.5 -173q0 -97 33.5 -172t94 -116.5t138.5 -41.5q67 0 123 31.5t92 87 t46 126.5h20q-10 -81 -54 -145t-112.5 -99.5t-150.5 -35.5q-104 0 -184 46zM364 -245h-111l144 180h15z" glyph-name="Ccedilla" horiz-adv-x="780" unicode="Ç"/>
<glyph d="M113 700h412v-20h-292v-320h206v-20h-206v-320h337v-20h-457v700zM305 765l-144 180h111l48 -180h-15z" glyph-name="Egrave" horiz-adv-x="585" unicode="È"/>
<glyph d="M113 700h412v-20h-292v-320h206v-20h-206v-320h337v-20h-457v700zM366 945h111l-143 -180h-16z" glyph-name="Eacute" horiz-adv-x="585" unicode="É"/>
<glyph d="M113 700h412v-20h-292v-320h206v-20h-206v-320h337v-20h-457v700zM378 785l-107 119l-107 -119h-25l139 160h81l139 -160h-120z" glyph-name="Ecircumflex" horiz-adv-x="585" unicode="Ê"/>
<glyph d="M113 700h412v-20h-292v-320h206v-20h-206v-320h337v-20h-457v700zM183 945h123l-57 -180h-9zM332 945h123l-57 -180h-9z" glyph-name="Edieresis" horiz-adv-x="585" unicode="Ë"/>
<glyph d="M113 700h120v-700h-120v700zM159 765l-144 180h111l48 -180h-15z" glyph-name="Igrave" horiz-adv-x="345" unicode="Ì"/>
<glyph d="M113 700h120v-700h-120v700zM220 945h111l-143 -180h-16z" glyph-name="Iacute" horiz-adv-x="345" unicode="Í"/>
<glyph d="M113 700h120v-700h-120v700zM232 785l-107 119l-107 -119h-25l139 160h81l139 -160h-120z" glyph-name="Icircumflex" horiz-adv-x="345" unicode="Î"/>
<glyph d="M113 700h120v-700h-120v700zM37 945h123l-57 -180h-9zM186 945h123l-57 -180h-9z" glyph-name="Idieresis" horiz-adv-x="345" unicode="Ï"/>
<glyph d="M535.5 656q88.5 -44 136.5 -123.5t48 -182.5t-48 -182.5t-136.5 -123.5t-204.5 -44h-218v340h-76v20h76v340h218q116 0 204.5 -44zM528.5 105.5q69.5 85.5 69.5 244.5t-69.5 245t-192.5 86h-103v-321h136v-20h-136v-320h103q123 0 192.5 85.5z" glyph-name="Eth" horiz-adv-x="780" unicode="Ð"/>
<glyph d="M110 700h117l422 -533v533h21v-720h-23l-516 645v-625h-21v700zM232.5 895.5q28.5 30.5 73.5 30.5q28 0 53.5 -6t59.5 -18q34 -11 51.5 -15.5t36.5 -4.5q22 0 37 11.5t15 32.5h17q0 -51 -28 -81.5t-73 -30.5q-27 0 -53 6.5t-60 18.5q-33 11 -51.5 15.5t-37.5 4.5 q-22 0 -37 -12t-15 -33h-17q0 51 28.5 81.5z" glyph-name="Ntilde" horiz-adv-x="780" unicode="Ñ"/>
<glyph d="M236 32q-83 47 -129.5 130t-46.5 188t46.5 188t129.5 130t187 47t186.5 -47t129 -130t46.5 -188t-46.5 -188t-129 -130t-186.5 -47t-187 47zM550 45q54 41 83.5 118.5t29.5 186.5t-29.5 187t-83.5 118.5t-127 40.5q-74 0 -128 -40.5t-83 -118.5t-29 -187t29 -186.5 t83.5 -118.5t127.5 -41t127 41zM409 765l-144 180h111l48 -180h-15z" glyph-name="Ograve" horiz-adv-x="845" unicode="Ò"/>
<glyph d="M236 32q-83 47 -129.5 130t-46.5 188t46.5 188t129.5 130t187 47t186.5 -47t129 -130t46.5 -188t-46.5 -188t-129 -130t-186.5 -47t-187 47zM550 45q54 41 83.5 118.5t29.5 186.5t-29.5 187t-83.5 118.5t-127 40.5q-74 0 -128 -40.5t-83 -118.5t-29 -187t29 -186.5 t83.5 -118.5t127.5 -41t127 41zM470 945h111l-143 -180h-16z" glyph-name="Oacute" horiz-adv-x="845" unicode="Ó"/>
<glyph d="M236 32q-83 47 -129.5 130t-46.5 188t46.5 188t129.5 130t187 47t186.5 -47t129 -130t46.5 -188t-46.5 -188t-129 -130t-186.5 -47t-187 47zM550 45q54 41 83.5 118.5t29.5 186.5t-29.5 187t-83.5 118.5t-127 40.5q-74 0 -128 -40.5t-83 -118.5t-29 -187t29 -186.5 t83.5 -118.5t127.5 -41t127 41zM482 785l-107 119l-107 -119h-25l139 160h81l139 -160h-120z" glyph-name="Ocircumflex" horiz-adv-x="845" unicode="Ô"/>
<glyph d="M236 32q-83 47 -129.5 130t-46.5 188t46.5 188t129.5 130t187 47t186.5 -47t129 -130t46.5 -188t-46.5 -188t-129 -130t-186.5 -47t-187 47zM550 45q54 41 83.5 118.5t29.5 186.5t-29.5 187t-83.5 118.5t-127 40.5q-74 0 -128 -40.5t-83 -118.5t-29 -187t29 -186.5 t83.5 -118.5t127.5 -41t127 41zM265.5 895.5q28.5 30.5 73.5 30.5q28 0 53.5 -6t59.5 -18q34 -11 51.5 -15.5t36.5 -4.5q22 0 37 11.5t15 32.5h17q0 -51 -28 -81.5t-73 -30.5q-27 0 -53 6.5t-60 18.5q-33 11 -51.5 15.5t-37.5 4.5q-22 0 -37 -12t-15 -33h-17q0 51 28.5 81.5 z" glyph-name="Otilde" horiz-adv-x="845" unicode="Õ"/>
<glyph d="M236 32q-83 47 -129.5 130t-46.5 188t46.5 188t129.5 130t187 47t186.5 -47t129 -130t46.5 -188t-46.5 -188t-129 -130t-186.5 -47t-187 47zM550 45q54 41 83.5 118.5t29.5 186.5t-29.5 187t-83.5 118.5t-127 40.5q-74 0 -128 -40.5t-83 -118.5t-29 -187t29 -186.5 t83.5 -118.5t127.5 -41t127 41zM287 945h123l-57 -180h-9zM436 945h123l-57 -180h-9z" glyph-name="Odieresis" horiz-adv-x="845" unicode="Ö"/>
<glyph d="M117 202l148 148l-148 148l15 15l148 -148l148 148l15 -15l-148 -148l148 -148l-15 -15l-148 148l-148 -148z" glyph-name="multiply" unicode="×"/>
<glyph d="M286.5 8.5q-63.5 23.5 -111.5 67.5l-73 -76h-27l86 90q-49 49 -75 115.5t-26 144.5q0 105 46.5 188t129.5 130t187 47q73 0 136.5 -23.5t112.5 -67.5l73 76h27l-87 -90q48 -49 74 -115.5t26 -144.5q0 -105 -46.5 -188t-129 -130t-186.5 -47q-73 0 -136.5 23.5zM423 696 q-74 0 -128 -40.5t-83 -118.5t-29 -187q0 -108 49 -185l373 390q-56 141 -182 141zM550 45q54 41 83.5 118.5t29.5 186.5q0 105 -49 185l-373 -390q56 -141 182 -141q73 0 127 41z" glyph-name="Oslash" horiz-adv-x="845" unicode="Ø"/>
<glyph d="M236 21q-65 36 -100.5 102.5t-35.5 155.5v421h120v-421q0 -129 56 -194.5t156 -65.5q64 0 112.5 33.5t75.5 94t27 139.5v414h20v-414q0 -93 -33.5 -161t-96.5 -104t-149 -36q-87 0 -152 36zM395 765l-144 180h111l48 -180h-15z" glyph-name="Ugrave" horiz-adv-x="757" unicode="Ù"/>
<glyph d="M236 21q-65 36 -100.5 102.5t-35.5 155.5v421h120v-421q0 -129 56 -194.5t156 -65.5q64 0 112.5 33.5t75.5 94t27 139.5v414h20v-414q0 -93 -33.5 -161t-96.5 -104t-149 -36q-87 0 -152 36zM456 945h111l-143 -180h-16z" glyph-name="Uacute" horiz-adv-x="757" unicode="Ú"/>
<glyph d="M236 21q-65 36 -100.5 102.5t-35.5 155.5v421h120v-421q0 -129 56 -194.5t156 -65.5q64 0 112.5 33.5t75.5 94t27 139.5v414h20v-414q0 -93 -33.5 -161t-96.5 -104t-149 -36q-87 0 -152 36zM468 785l-107 119l-107 -119h-25l139 160h81l139 -160h-120z" glyph-name="Ucircumflex" horiz-adv-x="757" unicode="Û"/>
<glyph d="M236 21q-65 36 -100.5 102.5t-35.5 155.5v421h120v-421q0 -129 56 -194.5t156 -65.5q64 0 112.5 33.5t75.5 94t27 139.5v414h20v-414q0 -93 -33.5 -161t-96.5 -104t-149 -36q-87 0 -152 36zM273 945h123l-57 -180h-9zM422 945h123l-57 -180h-9z" glyph-name="Udieresis" horiz-adv-x="757" unicode="Ü"/>
<glyph d="M257 284l-252 416h125l237 -396l239 396h22l-251 -418v-282h-120v284zM367 945h111l-143 -180h-16z" glyph-name="Yacute" horiz-adv-x="631" unicode="Ý"/>
<glyph d="M228 700v-145h105q131 0 205.5 -53t74.5 -147q0 -93 -75 -146.5t-205 -53.5h-105v-155h-115v700h115zM452.5 222q45.5 47 45.5 133t-45 133t-128 47h-97v-360h97q82 0 127.5 47z" glyph-name="Thorn" horiz-adv-x="660" unicode="Þ"/>
<glyph d="M35 480v20h98v53q0 88 61 137.5t169 49.5q105 0 169 -48.5t64 -134.5v-72q-33 6 -70 6q-54 0 -93 -23t-39 -71q0 -26 17.5 -43t44.5 -28t79 -26l20 -6q53 -13 91.5 -29t66 -47t27.5 -80q0 -52 -31.5 -85.5t-78.5 -48.5t-95 -15q-83 0 -142.5 39t-73.5 112h20 q14 -63 66.5 -96t121.5 -33q53 0 96 21.5t43 65.5q0 29 -17.5 47.5t-44.5 29t-78 24.5l-24 7q-79 21 -128 55t-49 101q0 60 43 93t106 41h22v73q0 71 -44 111t-112 40q-66 0 -105 -30.5t-39 -85.5q0 -16 4 -29.5t12 -32.5q12 -31 19 -60t7 -73v-609h-105v680h-98z" glyph-name="germandbls" horiz-adv-x="762" unicode="ß"/>
<glyph d="M74.5 24q-41.5 35 -41.5 94q0 71 61.5 104t163.5 42q76 6 113.5 25.5t37.5 57.5q0 64 -39 100t-100 36q-67 0 -114.5 -43.5t-59.5 -116.5h-19q12 87 71.5 137t147.5 50q62 0 110.5 -25t75.5 -71.5t27 -109.5v-284h64v-20h-166v125q-24 -65 -80 -100.5t-132 -35.5 q-79 0 -120.5 35zM321 46.5q39 25.5 62 71.5t23 104l1 67q-26 -26 -105 -36q-85 -12 -123.5 -42.5t-38.5 -86.5q0 -50 26 -76.5t70 -26.5q46 0 85 25.5zM266 565l-144 180h111l48 -180h-15z" glyph-name="agrave" horiz-adv-x="595" unicode="à"/>
<glyph d="M74.5 24q-41.5 35 -41.5 94q0 71 61.5 104t163.5 42q76 6 113.5 25.5t37.5 57.5q0 64 -39 100t-100 36q-67 0 -114.5 -43.5t-59.5 -116.5h-19q12 87 71.5 137t147.5 50q62 0 110.5 -25t75.5 -71.5t27 -109.5v-284h64v-20h-166v125q-24 -65 -80 -100.5t-132 -35.5 q-79 0 -120.5 35zM321 46.5q39 25.5 62 71.5t23 104l1 67q-26 -26 -105 -36q-85 -12 -123.5 -42.5t-38.5 -86.5q0 -50 26 -76.5t70 -26.5q46 0 85 25.5zM327 745h111l-143 -180h-16z" glyph-name="aacute" horiz-adv-x="595" unicode="á"/>
<glyph d="M74.5 24q-41.5 35 -41.5 94q0 71 61.5 104t163.5 42q76 6 113.5 25.5t37.5 57.5q0 64 -39 100t-100 36q-67 0 -114.5 -43.5t-59.5 -116.5h-19q12 87 71.5 137t147.5 50q62 0 110.5 -25t75.5 -71.5t27 -109.5v-284h64v-20h-166v125q-24 -65 -80 -100.5t-132 -35.5 q-79 0 -120.5 35zM321 46.5q39 25.5 62 71.5t23 104l1 67q-26 -26 -105 -36q-85 -12 -123.5 -42.5t-38.5 -86.5q0 -50 26 -76.5t70 -26.5q46 0 85 25.5zM339 585l-107 119l-107 -119h-25l139 160h81l139 -160h-120z" glyph-name="acircumflex" horiz-adv-x="595" unicode="â"/>
<glyph d="M74.5 24q-41.5 35 -41.5 94q0 71 61.5 104t163.5 42q76 6 113.5 25.5t37.5 57.5q0 64 -39 100t-100 36q-67 0 -114.5 -43.5t-59.5 -116.5h-19q12 87 71.5 137t147.5 50q62 0 110.5 -25t75.5 -71.5t27 -109.5v-284h64v-20h-166v125q-24 -65 -80 -100.5t-132 -35.5 q-79 0 -120.5 35zM321 46.5q39 25.5 62 71.5t23 104l1 67q-26 -26 -105 -36q-85 -12 -123.5 -42.5t-38.5 -86.5q0 -50 26 -76.5t70 -26.5q46 0 85 25.5zM122.5 695.5q28.5 30.5 73.5 30.5q28 0 53.5 -6t59.5 -18q34 -11 51.5 -15.5t36.5 -4.5q22 0 37 11.5t15 32.5h17 q0 -51 -28 -81.5t-73 -30.5q-27 0 -53 6.5t-60 18.5q-33 11 -51.5 15.5t-37.5 4.5q-22 0 -37 -12t-15 -33h-17q0 51 28.5 81.5z" glyph-name="atilde" horiz-adv-x="595" unicode="ã"/>
<glyph d="M74.5 24q-41.5 35 -41.5 94q0 71 61.5 104t163.5 42q76 6 113.5 25.5t37.5 57.5q0 64 -39 100t-100 36q-67 0 -114.5 -43.5t-59.5 -116.5h-19q12 87 71.5 137t147.5 50q62 0 110.5 -25t75.5 -71.5t27 -109.5v-284h64v-20h-166v125q-24 -65 -80 -100.5t-132 -35.5 q-79 0 -120.5 35zM321 46.5q39 25.5 62 71.5t23 104l1 67q-26 -26 -105 -36q-85 -12 -123.5 -42.5t-38.5 -86.5q0 -50 26 -76.5t70 -26.5q46 0 85 25.5zM144 745h123l-57 -180h-9zM293 745h123l-57 -180h-9z" glyph-name="adieresis" horiz-adv-x="595" unicode="ä"/>
<glyph d="M74.5 24q-41.5 35 -41.5 94q0 71 61.5 104t163.5 42q76 6 113.5 25.5t37.5 57.5q0 64 -39 100t-100 36q-67 0 -114.5 -43.5t-59.5 -116.5h-19q12 87 71.5 137t147.5 50q62 0 110.5 -25t75.5 -71.5t27 -109.5v-284h64v-20h-166v125q-24 -65 -80 -100.5t-132 -35.5 q-79 0 -120.5 35zM321 46.5q39 25.5 62 71.5t23 104l1 67q-26 -26 -105 -36q-85 -12 -123.5 -42.5t-38.5 -86.5q0 -50 26 -76.5t70 -26.5q46 0 85 25.5zM213.5 580.5q-30.5 17.5 -48 48t-17.5 66.5t17.5 66.5t48 48.5t66.5 18t66.5 -18t48.5 -48.5t18 -66.5t-18 -66 t-48.5 -48t-66.5 -18t-66.5 17.5zM366.5 649.5q28.5 16.5 28.5 45.5q0 30 -28.5 46.5t-86.5 16.5t-86.5 -16.5t-28.5 -46.5q0 -29 28.5 -45.5t86.5 -16.5t86.5 16.5z" glyph-name="aring" horiz-adv-x="595" unicode="å"/>
<glyph d="M74.5 24q-41.5 35 -41.5 94q0 71 61.5 104t163.5 42q76 6 113.5 25.5t37.5 57.5q0 64 -39 100t-100 36q-67 0 -114.5 -43.5t-59.5 -116.5h-19q12 87 71.5 137t147.5 50q63 0 107 -27.5t63 -76.5q31 48 84.5 76t118.5 28q77 0 136 -33t92.5 -92t34.5 -134v-11h-422 q4 -105 54 -163.5t132 -58.5q66 0 116 35.5t68 96.5h21q-20 -74 -82.5 -117t-151.5 -43q-88 0 -155 45.5t-94 121.5q-20 -83 -81.5 -125.5t-141.5 -42.5q-79 0 -120.5 35zM780 431q-43 61 -112 61q-70 0 -113.5 -61t-45.5 -161v-10h317q-3 110 -46 171zM321 46.5 q39 25.5 62 71.5t23 104l1 67q-26 -26 -105 -36q-85 -12 -123.5 -42.5t-38.5 -86.5q0 -50 26 -76.5t70 -26.5q46 0 85 25.5z" glyph-name="ae" horiz-adv-x="963" unicode="æ"/>
<glyph d="M175 23.5q-60 33.5 -93.5 92.5t-33.5 134t33.5 134.5t93.5 92.5t136 33q96 0 159.5 -51.5t80.5 -141.5h-20q-16 76 -66.5 120.5t-122.5 44.5q-86 0 -136.5 -62t-50.5 -170q0 -107 50.5 -169.5t136.5 -62.5q72 0 122.5 45t66.5 121h20q-17 -91 -80 -142.5t-160 -51.5 q-76 0 -136 33.5zM262 -245h-111l144 180h15z" glyph-name="ccedilla" horiz-adv-x="586" unicode="ç"/>
<glyph d="M176.5 23.5q-60.5 33.5 -94.5 92.5t-34 134t34 134t95 92.5t138 33.5t136 -33t92.5 -92t34.5 -134v-11h-422q4 -105 54 -163.5t132 -58.5q66 0 116 35.5t68 96.5h21q-20 -74 -82.5 -117t-151.5 -43q-76 0 -136.5 33.5zM426 431q-43 61 -112 61q-70 0 -113.5 -61 t-45.5 -161v-10h317q-3 110 -46 171zM292 565l-144 180h111l48 -180h-15z" glyph-name="egrave" horiz-adv-x="609" unicode="è"/>
<glyph d="M176.5 23.5q-60.5 33.5 -94.5 92.5t-34 134t34 134t95 92.5t138 33.5t136 -33t92.5 -92t34.5 -134v-11h-422q4 -105 54 -163.5t132 -58.5q66 0 116 35.5t68 96.5h21q-20 -74 -82.5 -117t-151.5 -43q-76 0 -136.5 33.5zM426 431q-43 61 -112 61q-70 0 -113.5 -61 t-45.5 -161v-10h317q-3 110 -46 171zM353 745h111l-143 -180h-16z" glyph-name="eacute" horiz-adv-x="609" unicode="é"/>
<glyph d="M176.5 23.5q-60.5 33.5 -94.5 92.5t-34 134t34 134t95 92.5t138 33.5t136 -33t92.5 -92t34.5 -134v-11h-422q4 -105 54 -163.5t132 -58.5q66 0 116 35.5t68 96.5h21q-20 -74 -82.5 -117t-151.5 -43q-76 0 -136.5 33.5zM426 431q-43 61 -112 61q-70 0 -113.5 -61 t-45.5 -161v-10h317q-3 110 -46 171zM365 585l-107 119l-107 -119h-25l139 160h81l139 -160h-120z" glyph-name="ecircumflex" horiz-adv-x="609" unicode="ê"/>
<glyph d="M176.5 23.5q-60.5 33.5 -94.5 92.5t-34 134t34 134t95 92.5t138 33.5t136 -33t92.5 -92t34.5 -134v-11h-422q4 -105 54 -163.5t132 -58.5q66 0 116 35.5t68 96.5h21q-20 -74 -82.5 -117t-151.5 -43q-76 0 -136.5 33.5zM426 431q-43 61 -112 61q-70 0 -113.5 -61 t-45.5 -161v-10h317q-3 110 -46 171zM170 745h123l-57 -180h-9zM319 745h123l-57 -180h-9z" glyph-name="edieresis" horiz-adv-x="609" unicode="ë"/>
<glyph d="M90 500h105v-500h-105v500zM129 565l-144 180h111l48 -180h-15z" glyph-name="igrave" horiz-adv-x="285" unicode="ì"/>
<glyph d="M90 500h105v-500h-105v500zM190 745h111l-143 -180h-16z" glyph-name="iacute" horiz-adv-x="285" unicode="í"/>
<glyph d="M90 500h105v-500h-105v500zM202 585l-107 119l-107 -119h-25l139 160h81l139 -160h-120z" glyph-name="icircumflex" horiz-adv-x="285" unicode="î"/>
<glyph d="M90 500h105v-500h-105v500zM7 745h123l-57 -180h-9zM156 745h123l-57 -180h-9z" glyph-name="idieresis" horiz-adv-x="285" unicode="ï"/>
<glyph d="M181.5 23.5q-62.5 33.5 -98 93t-35.5 133.5q0 75 35.5 134t98 92.5t141.5 33.5q39 0 69 -8t57 -23q-24 38 -40 54l-46 57h-190v20h171l-89 100h26l90 -100h157v-20h-139l93 -112q65 -68 90.5 -117.5t25.5 -110.5q0 -74 -35.5 -133.5t-98.5 -93t-141 -33.5 q-79 0 -141.5 33.5zM445 72q45 64 45 178t-45 178.5t-122 64.5t-122.5 -64.5t-45.5 -178.5q0 -113 45.5 -177.5t122.5 -64.5t122 64z" glyph-name="eth" horiz-adv-x="645" unicode="ð"/>
<glyph d="M195 500v-118q22 61 69 94.5t112 33.5q97 0 150.5 -62t53.5 -175v-273h-106v273q0 102 -34 154.5t-99 52.5q-41 0 -74.5 -27.5t-52.5 -76.5t-19 -109v-267h-105v500h105zM179.5 695.5q28.5 30.5 73.5 30.5q28 0 53.5 -6t59.5 -18q34 -11 51.5 -15.5t36.5 -4.5 q22 0 37 11.5t15 32.5h17q0 -51 -28 -81.5t-73 -30.5q-27 0 -53 6.5t-60 18.5q-33 11 -51.5 15.5t-37.5 4.5q-22 0 -37 -12t-15 -33h-17q0 51 28.5 81.5z" glyph-name="ntilde" horiz-adv-x="660" unicode="ñ"/>
<glyph d="M181.5 23.5q-62.5 33.5 -98 93t-35.5 133.5q0 75 35.5 134t98 92.5t141.5 33.5t141.5 -33.5t98 -93t35.5 -133.5t-35.5 -133.5t-98.5 -93t-141 -33.5q-79 0 -141.5 33.5zM445 72q45 64 45 178t-45 178.5t-122 64.5t-122.5 -64.5t-45.5 -178.5q0 -113 45.5 -177.5 t122.5 -64.5t122 64zM309 565l-144 180h111l48 -180h-15z" glyph-name="ograve" horiz-adv-x="645" unicode="ò"/>
<glyph d="M181.5 23.5q-62.5 33.5 -98 93t-35.5 133.5q0 75 35.5 134t98 92.5t141.5 33.5t141.5 -33.5t98 -93t35.5 -133.5t-35.5 -133.5t-98.5 -93t-141 -33.5q-79 0 -141.5 33.5zM445 72q45 64 45 178t-45 178.5t-122 64.5t-122.5 -64.5t-45.5 -178.5q0 -113 45.5 -177.5 t122.5 -64.5t122 64zM370 745h111l-143 -180h-16z" glyph-name="oacute" horiz-adv-x="645" unicode="ó"/>
<glyph d="M181.5 23.5q-62.5 33.5 -98 93t-35.5 133.5q0 75 35.5 134t98 92.5t141.5 33.5t141.5 -33.5t98 -93t35.5 -133.5t-35.5 -133.5t-98.5 -93t-141 -33.5q-79 0 -141.5 33.5zM445 72q45 64 45 178t-45 178.5t-122 64.5t-122.5 -64.5t-45.5 -178.5q0 -113 45.5 -177.5 t122.5 -64.5t122 64zM382 585l-107 119l-107 -119h-25l139 160h81l139 -160h-120z" glyph-name="ocircumflex" horiz-adv-x="645" unicode="ô"/>
<glyph d="M181.5 23.5q-62.5 33.5 -98 93t-35.5 133.5q0 75 35.5 134t98 92.5t141.5 33.5t141.5 -33.5t98 -93t35.5 -133.5t-35.5 -133.5t-98.5 -93t-141 -33.5q-79 0 -141.5 33.5zM445 72q45 64 45 178t-45 178.5t-122 64.5t-122.5 -64.5t-45.5 -178.5q0 -113 45.5 -177.5 t122.5 -64.5t122 64zM165.5 695.5q28.5 30.5 73.5 30.5q28 0 53.5 -6t59.5 -18q34 -11 51.5 -15.5t36.5 -4.5q22 0 37 11.5t15 32.5h17q0 -51 -28 -81.5t-73 -30.5q-27 0 -53 6.5t-60 18.5q-33 11 -51.5 15.5t-37.5 4.5q-22 0 -37 -12t-15 -33h-17q0 51 28.5 81.5z" glyph-name="otilde" horiz-adv-x="645" unicode="õ"/>
<glyph d="M181.5 23.5q-62.5 33.5 -98 93t-35.5 133.5q0 75 35.5 134t98 92.5t141.5 33.5t141.5 -33.5t98 -93t35.5 -133.5t-35.5 -133.5t-98.5 -93t-141 -33.5q-79 0 -141.5 33.5zM445 72q45 64 45 178t-45 178.5t-122 64.5t-122.5 -64.5t-45.5 -178.5q0 -113 45.5 -177.5 t122.5 -64.5t122 64zM187 745h123l-57 -180h-9zM336 745h123l-57 -180h-9z" glyph-name="odieresis" horiz-adv-x="645" unicode="ö"/>
<glyph d="M258.5 498.5q-8.5 8.5 -8.5 21.5t8.5 21.5t21.5 8.5t21.5 -8.5t8.5 -21.5t-8.5 -21.5t-21.5 -8.5t-21.5 8.5zM80 360h400v-20h-400v20zM258.5 158.5q-8.5 8.5 -8.5 21.5t8.5 21.5t21.5 8.5t21.5 -8.5t8.5 -21.5t-8.5 -21.5t-21.5 -8.5t-21.5 8.5z" glyph-name="divide" unicode="÷"/>
<glyph d="M222 6.5q-47 16.5 -83 46.5l-51 -53h-27l63 65q-37 36 -56.5 83t-19.5 102q0 75 35.5 134t98 92.5t141.5 33.5q51 0 95.5 -14.5t79.5 -41.5l44 46h27l-56 -58q40 -35 62.5 -84.5t22.5 -107.5q0 -74 -35.5 -133.5t-98.5 -93t-141 -33.5q-54 0 -101 16.5zM323 493 q-77 0 -122.5 -64.5t-45.5 -178.5q0 -67 34 -117l258 268q-40 92 -124 92zM445 72q45 64 45 178q0 75 -34 132l-259 -269q38 -105 126 -105q77 0 122 64z" glyph-name="oslash" horiz-adv-x="645" unicode="ø"/>
<glyph d="M133.5 52.5q-53.5 62.5 -53.5 174.5v273h106v-273q0 -101 34.5 -154t98.5 -53q42 0 75 27.5t52 76.5t19 109v267h105v-500h-105v119q-22 -61 -69 -95t-112 -34q-97 0 -150.5 62.5zM311 565l-144 180h111l48 -180h-15z" glyph-name="ugrave" horiz-adv-x="660" unicode="ù"/>
<glyph d="M133.5 52.5q-53.5 62.5 -53.5 174.5v273h106v-273q0 -101 34.5 -154t98.5 -53q42 0 75 27.5t52 76.5t19 109v267h105v-500h-105v119q-22 -61 -69 -95t-112 -34q-97 0 -150.5 62.5zM372 745h111l-143 -180h-16z" glyph-name="uacute" horiz-adv-x="660" unicode="ú"/>
<glyph d="M133.5 52.5q-53.5 62.5 -53.5 174.5v273h106v-273q0 -101 34.5 -154t98.5 -53q42 0 75 27.5t52 76.5t19 109v267h105v-500h-105v119q-22 -61 -69 -95t-112 -34q-97 0 -150.5 62.5zM384 585l-107 119l-107 -119h-25l139 160h81l139 -160h-120z" glyph-name="ucircumflex" horiz-adv-x="660" unicode="û"/>
<glyph d="M133.5 52.5q-53.5 62.5 -53.5 174.5v273h106v-273q0 -101 34.5 -154t98.5 -53q42 0 75 27.5t52 76.5t19 109v267h105v-500h-105v119q-22 -61 -69 -95t-112 -34q-97 0 -150.5 62.5zM189 745h123l-57 -180h-9zM338 745h123l-57 -180h-9z" glyph-name="udieresis" horiz-adv-x="660" unicode="ü"/>
<glyph d="M73.5 -166q-42.5 44 -42.5 113v26h19v-25q0 -60 35.5 -98t90.5 -38q47 0 76.5 28t29.5 74v9q0 26 -10.5 59.5t-42.5 97.5l-219 420h116l163 -313q12 -25 26 -62.5t17 -56.5q6 24 15 46l156 386h22l-161 -398q-11 -28 -16 -52.5t-5 -57.5v-25q0 -82 -43.5 -129.5 t-114.5 -47.5q-69 0 -111.5 44zM326 745h111l-143 -180h-16z" glyph-name="yacute" horiz-adv-x="535" unicode="ý"/>
<glyph d="M195 710v-332q24 63 74 97.5t118 34.5q65 0 118 -33t83.5 -92t30.5 -135t-30.5 -135t-83.5 -92t-118 -33q-68 0 -118 35t-74 98v-323h-105v910h105zM469.5 79q42.5 60 42.5 171q0 112 -42.5 172t-111.5 60q-48 0 -86 -30.5t-59.5 -84t-21.5 -117.5t21.5 -117t59.5 -83.5 t86 -30.5q69 0 111.5 60z" glyph-name="thorn" horiz-adv-x="667" unicode="þ"/>
<glyph d="M90 500h105v-500h-105v500z" glyph-name="dotlessi" horiz-adv-x="285" unicode="ı"/>
<glyph d="M-27.5 -193q-34.5 17 -54.5 46t-20 65h19v-1q0 -45 37 -75t89 -30q50 0 84.5 28t34.5 83q0 15 -4 33t-7.5 29t-4.5 16q-13 40 -19.5 72t-6.5 74v353h105v-525q0 -88 -48 -136.5t-128 -48.5q-42 0 -76.5 17z" glyph-name="uni0237" horiz-adv-x="315" unicode="ȷ"/>
<glyph d="M-314 565l-144 180h111l48 -180h-15z" glyph-name="gravecomb" horiz-adv-x="0" unicode="̀"/>
<glyph d="M-253 745h111l-143 -180h-16z" glyph-name="acutecomb" horiz-adv-x="0" unicode="́"/>
<glyph d="M-241 585l-107 119l-107 -119h-25l139 160h81l139 -160h-120z" glyph-name="uni0302" horiz-adv-x="0" unicode="̂"/>
<glyph d="M-457.5 695.5q28.5 30.5 73.5 30.5q28 0 53.5 -6t59.5 -18q34 -11 51.5 -15.5t36.5 -4.5q22 0 37 11.5t15 32.5h17q0 -51 -28 -81.5t-73 -30.5q-27 0 -53 6.5t-60 18.5q-33 11 -51.5 15.5t-37.5 4.5q-22 0 -37 -12t-15 -33h-17q0 51 28.5 81.5z" glyph-name="tildecomb" horiz-adv-x="0" unicode="̃"/>
<glyph d="M-362 745h125l-58 -180h-10z" glyph-name="uni0307" horiz-adv-x="0" unicode="̇"/>
<glyph d="M-436 745h123l-57 -180h-9zM-287 745h123l-57 -180h-9z" glyph-name="uni0308" horiz-adv-x="0" unicode="̈"/>
<glyph d="M-366.5 580.5q-30.5 17.5 -48 48t-17.5 66.5t17.5 66.5t48 48.5t66.5 18t66.5 -18t48.5 -48.5t18 -66.5t-18 -66t-48.5 -48t-66.5 -18t-66.5 17.5zM-213.5 649.5q28.5 16.5 28.5 45.5q0 30 -28.5 46.5t-86.5 16.5t-86.5 -16.5t-28.5 -46.5q0 -29 28.5 -45.5t86.5 -16.5 t86.5 16.5z" glyph-name="uni030A" horiz-adv-x="0" unicode="̊"/>
<glyph d="M-339 -245h-111l144 180h15z" glyph-name="uni0327" horiz-adv-x="0" unicode="̧"/>
<glyph d="M80 310h390v-20h-390v20z" glyph-name="endash" horiz-adv-x="550" unicode="–"/>
<glyph d="M108 350l109 -200h-21l-106 194v12l106 194h21zM268 350l109 -200h-21l-106 194v12l106 194h21z" glyph-name="guillemotleft.case" horiz-adv-x="467"/>
<glyph d="M359 350l-109 200h21l106 -194v-12l-106 -194h-21zM199 350l-109 200h21l106 -194v-12l-106 -194h-21z" glyph-name="guillemotright.case" horiz-adv-x="467"/>
<glyph d="M225 33q-84 48 -132 132t-48 185t48 185t132 132t185 48t185 -48t132 -132t48 -185q0 -112 -56 -198h-210v102q-19 -54 -64.5 -82.5t-108.5 -28.5q-61 0 -96 28t-35 76q0 54 46 83.5t146 36.5q62 4 88 21t26 49q0 47 -31.5 75.5t-80.5 28.5q-53 0 -91 -34.5t-46 -91.5 h-20q9 70 57.5 110.5t121.5 40.5q76 0 124.5 -45t48.5 -122v-227h114q47 79 47 178q0 96 -45.5 175t-124.5 124.5t-175 45.5t-175 -45.5t-124.5 -124.5t-45.5 -175t45.5 -175t124.5 -124.5t175 -45.5q70 0 133 25.5t111 71.5l14 -13q-50 -49 -116.5 -76.5t-141.5 -27.5 q-101 0 -185 48zM439.5 195q31.5 22 50.5 58.5t19 78.5v51q-26 -23 -85 -30q-67 -8 -98 -32.5t-31 -67.5q0 -39 20.5 -59.5t57.5 -20.5q35 0 66.5 22z" glyph-name="at.case" horiz-adv-x="820"/>
<glyph d="M-362 745h125l-58 -180h-10z" glyph-name="uni0307.cv01" horiz-adv-x="0"/>
</font>
</defs>
</svg>
