<?xml version="1.0" encoding="UTF-8"?>
<!DOCTYPE svg  PUBLIC '-//W3C//DTD SVG 1.1//EN'  'http://www.w3.org/Graphics/SVG/1.1/DTD/svg11.dtd'>
<svg version="1.1" xmlns="http://www.w3.org/2000/svg">
<defs>
<font id="KyivTypeSerif-Black3" horiz-adv-x="820">
<font-face font-family="KyivType Serif Black3" font-weight="900" ascent="800" bbox="-528 -270 1012 1030" cap-height="700" descent="-200" panose-1="0 0 10 0 0 0 0 0 0 0" underline-position="-100" underline-thickness="50" unicode-range="U+0020-2013" units-per-em="1000" x-height="500"/>
<missing-glyph/>
<glyph glyph-name="space" horiz-adv-x="250" unicode=" "/>
<glyph d="M100 680h-100v20h406v-20h-100l-33 -383h-140zM114 24q-36 36 -36 89t36 89t89 36t89 -36t36 -89t-36 -89t-89 -36t-89 36z" glyph-name="exclam" horiz-adv-x="406" unicode="!"/>
<glyph d="M400 700l-105 -280h-10l-75 200l-75 -200h-10l-105 280h380z" glyph-name="quotedbl" horiz-adv-x="420" unicode='"'/>
<glyph d="M460 415v-130h150v-185h-150v-115h-20v115h-180v-115h-20v115h-150v185h150v130h-150v185h150v115h20v-115h180v115h20v-115h150v-185h-150zM440 415h-180v-130h180v130z" glyph-name="numbersign" horiz-adv-x="700" unicode="#"/>
<glyph d="M189 6q-9 1 -41.5 6.5t-56.5 6.5v-89h-20l-1 371h18v-31q2 -58 65.5 -117.5t158.5 -98t184 -38.5q33 0 55.5 17.5t22.5 43.5q0 36 -41.5 62t-130.5 63q-98 41 -161.5 76.5t-109.5 93.5t-46 141q0 59 29.5 104.5t85 71.5t132.5 26h12v115h20v-116q45 -3 130 -20 q13 -2 39 -7t43 -6v89h20v-340h-18v29q0 40 -61 90t-147 85.5t-155 35.5q-29 0 -45.5 -15t-16.5 -38q0 -27 25 -50.5t62.5 -42.5t105.5 -49q98 -43 159.5 -77t106 -85.5t44.5 -120.5q0 -103 -62.5 -155t-181.5 -52q-33 0 -48 1v-116h-20v117q-58 4 -155 19z" glyph-name="dollar" horiz-adv-x="700" unicode="$"/>
<glyph d="M119 406q-37 21 -58 58t-21 81t21 81t58 58t81 21t81 -21t58 -58t21 -81t-21 -81t-58 -58t-81 -21t-81 21zM580 700l-398 -700h-22l398 700h22zM239.5 441q13.5 36 13.5 104t-13.5 104t-39.5 36t-39.5 -36t-13.5 -104t13.5 -104t39.5 -36t39.5 36zM459 16q-37 21 -58 58 t-21 81t21 81t58 58t81 21t81 -21t58 -58t21 -81t-21 -81t-58 -58t-81 -21t-81 21zM579.5 51q13.5 36 13.5 104t-13.5 104t-39.5 36t-39.5 -36t-13.5 -104t13.5 -104t39.5 -36t39.5 36z" glyph-name="percent" horiz-adv-x="740" unicode="%"/>
<glyph d="M158 10.5q-67 25.5 -102.5 72t-35.5 107.5q0 78 57.5 131t158.5 70l-193 299v10h543v70h20v-294h-17v23q0 41 -48.5 83t-115 70t-110.5 28h-30l320 -498q45 70 48 206h-86v20h277v-20h-38q-21 0 -43 -19.5t-49 -56.5l-29 -42q-45 -67 -72 -100l96 -150h71v-20h-292 l-18 28q-72 -43 -153 -43q-92 0 -159 25.5zM394 11q34 11 65 33l-214 333q-25 -23 -40 -72.5t-15 -106.5q0 -82 32 -140t95 -58q43 0 77 11z" glyph-name="ampersand" horiz-adv-x="790" unicode="&amp;"/>
<glyph d="M240 700l-105 -280h-10l-105 280h220z" glyph-name="quotesingle" horiz-adv-x="260" unicode="'"/>
<glyph d="M253 -55q-74 60 -116 166t-42 239t42 239t116 166t167 60v-14q-70 0 -107.5 -116t-37.5 -335t37.5 -335t107.5 -116v-14q-93 0 -167 60z" glyph-name="parenleft" horiz-adv-x="500" unicode="("/>
<glyph d="M247 755q74 -60 116 -166t42 -239t-42 -239t-116 -166t-167 -60v14q70 0 107.5 116t37.5 335t-37.5 335t-107.5 116v14q93 0 167 -60z" glyph-name="parenright" horiz-adv-x="500" unicode=")"/>
<glyph d="M212 574h119l19 -69l-68 -20l-78 69l9 -100h-37l9 100l-77 -69l-69 20l19 69h119l-147 45v69l64 17l88 -105l-50 141l63 53l63 -53l-50 -141l88 105l64 -17v-69z" glyph-name="asterisk" horiz-adv-x="390" unicode="*"/>
<glyph d="M480 340h-190v-190h-20v190h-190v20h190v190h20v-190h190v-20z" glyph-name="plus" horiz-adv-x="560" unicode="+"/>
<glyph d="M114 -82q54 15 92.5 45.5t54.5 70.5q-44 -38 -93 -38q-51 0 -87 34t-36 85q0 52 36 87.5t91 35.5t89.5 -37t34.5 -98q0 -59 -33 -114.5t-80 -78.5h-69v8z" glyph-name="comma" horiz-adv-x="330" unicode=","/>
<glyph d="M80 330h240v-60h-240v60z" glyph-name="hyphen" horiz-adv-x="400" unicode="-"/>
<glyph d="M81 24q-36 36 -36 89t36 89t89 36t89 -36t36 -89t-36 -89t-89 -36t-89 36z" glyph-name="period" horiz-adv-x="340" unicode="."/>
<glyph d="M408 700l-338 -700h-20l338 700h20z" glyph-name="slash" horiz-adv-x="458" unicode="/"/>
<glyph d="M211 32q-73 47 -114.5 130.5t-41.5 187.5t41.5 187.5t114.5 130.5t164 47t164 -47t114.5 -130.5t41.5 -187.5t-41.5 -187.5t-114.5 -130.5t-164 -47t-164 47zM436 43q26 43 40 122.5t14 184.5t-14 184.5t-40 122.5t-61 43t-61 -43t-40 -122.5t-14 -184.5t14 -184.5 t40 -122.5t61 -43t61 43z" glyph-name="zero" horiz-adv-x="750" unicode="0"/>
<glyph d="M2 20h128v561l-128 -108v27l237 200h81v-680h110v-20h-428v20z" glyph-name="one" horiz-adv-x="425" unicode="1"/>
<glyph d="M36 0v14l253 191q64 48 100 113q-35 -19 -69 -19q-85 0 -151 26.5t-102.5 73.5t-36.5 108t36.5 108t102.5 73.5t151 26.5t151.5 -25t103 -71t36.5 -107q0 -49 -30.5 -93t-79.5 -83t-140 -103q-24 -16 -74 -52l-22 -19h211q108 0 108 69v64h18v-365h-20v70h-546zM427 477 q0 114 -28.5 170t-78.5 56q-48 0 -76.5 -53.5t-28.5 -142.5q0 -88 28.5 -140t76.5 -52q107 0 107 162z" glyph-name="two" horiz-adv-x="660" unicode="2"/>
<glyph d="M60 292v-9q0 -56 37.5 -122t91.5 -111.5t100 -45.5q44 0 64.5 48.5t20.5 132.5q0 85 -24.5 128.5t-60.5 43.5q-38 0 -77 -34l-14 -12l-13 14l222 212h-197q-52 0 -78.5 -5.5t-39 -21.5t-12.5 -50v-5h-18v315h20v-70h506v-16l-330 -317q43 21 96 21q62 0 113.5 -21.5 t81.5 -63t30 -98.5q0 -59 -33 -108t-99 -78t-162 -29q-45 0 -113 10q-62 10 -109 11v-70h-20v351h17z" glyph-name="three" horiz-adv-x="600" unicode="3"/>
<glyph d="M340 20v150h-350v14l397 516h143v-380h116q2 0 2 2v83h20v-284h-20v49h-118v-150h100v-20h-390v20h100zM340 320v288l-221 -288h221z" glyph-name="four" horiz-adv-x="678" unicode="4"/>
<glyph d="M72 232v-9q0 -34 40.5 -85t92.5 -89.5t82 -38.5q34 0 55.5 47t21.5 128q0 99 -31.5 150t-80.5 51q-45 0 -85 -22t-69 -68l-16 4l63 400h259q43 0 64.5 4.5t31.5 17.5t10 41v27h18v-323h-20v70h-369l-30 -197q32 35 78.5 55.5t108.5 20.5q76 0 138.5 -25t99.5 -73t37 -114 q0 -59 -30.5 -107.5t-93 -77.5t-154.5 -29q-43 0 -78 3.5t-79 10.5t-61 7v-71h-20v292h17z" glyph-name="five" horiz-adv-x="600" unicode="5"/>
<glyph d="M209 31q-72 46 -113 128t-41 184q0 105 41 190t110.5 133.5t152.5 48.5q67 0 143 -10q43 -5 63 -5v60h20v-287h-17v9q0 34 -40.5 86t-92 92t-78.5 40q-25 0 -48.5 -44t-38 -124t-14.5 -182v-4q46 108 184 108q62 0 112 -29.5t78.5 -81.5t28.5 -116q0 -71 -36.5 -126 t-102 -85.5t-149.5 -30.5q-90 0 -162 46zM448 57q28 57 28 153t-28.5 153t-76.5 57q-41 0 -72 -40t-41 -105q8 -128 38.5 -201.5t76.5 -73.5q47 0 75 57z" glyph-name="six" horiz-adv-x="693" unicode="6"/>
<glyph d="M150 20q0 11 3 21q28 122 104 251t190 245h-255q-52 0 -78.5 -5.5t-39 -21.5t-12.5 -50v-55h-20v365h20v-70h508v-14q-98 -127 -157.5 -292t-59.5 -348v-26h137v-20h-416v20h76z" glyph-name="seven" horiz-adv-x="560" unicode="7"/>
<glyph d="M191 9.5q-73 24.5 -114.5 67.5t-41.5 96q0 144 216 184q-52 8 -93 35t-64.5 64t-23.5 73q0 53 37 95.5t102 66.5t146 24t146 -24t102 -66.5t37 -95.5q0 -36 -23.5 -73t-64.5 -64t-93 -35q216 -40 216 -184q0 -53 -41.5 -96t-114.5 -67.5t-164 -24.5t-164 24.5zM435 406.5 q30 46.5 30 123.5t-30 123.5t-80 46.5t-80 -46.5t-30 -123.5t30 -123.5t80 -46.5t80 46.5zM438.5 47q31.5 47 31.5 126q0 77 -31.5 124t-83.5 47t-83.5 -47t-31.5 -124q0 -79 31.5 -126t83.5 -47t83.5 47z" glyph-name="eight" horiz-adv-x="710" unicode="8"/>
<glyph d="M484 669q72 -46 113 -128t41 -184q0 -105 -41 -190t-110.5 -133.5t-152.5 -48.5q-67 0 -143 10q-43 5 -63 5v-60h-20v287h17v-9q0 -34 40.5 -86t92 -92t78.5 -40q25 0 48.5 44t38 124t14.5 182v4q-46 -108 -184 -108q-62 0 -112 29.5t-78.5 81.5t-28.5 116q0 71 36.5 126 t102 85.5t149.5 30.5q90 0 162 -46zM245 643q-28 -57 -28 -153t28.5 -153t76.5 -57q41 0 72 40t41 105q-8 128 -38.5 201.5t-76.5 73.5q-47 0 -75 -57z" glyph-name="nine" horiz-adv-x="693" unicode="9"/>
<glyph d="M81 24q-36 36 -36 89t36 89t89 36t89 -36t36 -89t-36 -89t-89 -36t-89 36zM81 304q-36 36 -36 89t36 89t89 36t89 -36t36 -89t-36 -89t-89 -36t-89 36z" glyph-name="colon" horiz-adv-x="340" unicode=":"/>
<glyph d="M114 -82q54 15 92.5 45.5t54.5 70.5q-44 -38 -93 -38q-51 0 -87 34t-36 85q0 52 36 87.5t91 35.5t89.5 -37t34.5 -98q0 -59 -33 -114.5t-80 -78.5h-69v8zM81 304q-36 36 -36 89t36 89t89 36t89 -36t36 -89t-36 -89t-89 -36t-89 36z" glyph-name="semicolon" horiz-adv-x="341" unicode=";"/>
<glyph d="M480 527l-375 -177l375 -177v-23l-400 190v20l400 190v-23z" glyph-name="less" horiz-adv-x="560" unicode="&lt;"/>
<glyph d="M80 450h400v-20h-400v20zM80 270h400v-20h-400v20z" glyph-name="equal" horiz-adv-x="560" unicode="="/>
<glyph d="M80 173l375 177l-375 177v23l400 -190v-20l-400 -190v23z" glyph-name="greater" horiz-adv-x="560" unicode="&gt;"/>
<glyph d="M214 328q0 32 10.5 57.5t23.5 47t17 27.5q19 34 30 66t11 72q0 44 -15 73t-44 29q-30 0 -64 -34t-63.5 -87.5t-45.5 -108.5l-3 -10h-11l1 310h16v-82q13 2 25 5t23 5q33 8 58 12.5t63 4.5q94 0 166 -35.5t72 -110.5q0 -34 -16 -58.5t-40 -42t-64 -40.5 q-41 -23 -66.5 -41.5t-43 -46t-17.5 -65.5h-13q-10 27 -10 53zM166 24q-36 36 -36 89t36 89t89 36t89 -36t36 -89t-36 -89t-89 -36t-89 36z" glyph-name="question" horiz-adv-x="518" unicode="?"/>
<glyph d="M225 -119q-84 48 -132 132t-48 185t48 185t132 132t185 48t185 -48t132 -132t48 -185q0 -111 -56 -198h-249v88q-18 -51 -57 -74t-99 -23q-62 0 -96.5 29.5t-34.5 77.5q0 100 145 114q79 8 110.5 30.5t32.5 74.5q0 43 -13 63t-38 20q-28 0 -65.5 -23.5t-64.5 -58 t-27 -67.5v-13h-19v217h20v-46q28 0 88 5q40 4 58 4q94 0 145 -46t51 -129v-225h101q48 83 48 180q0 96 -45.5 175t-124.5 124.5t-175 45.5t-175 -45.5t-124.5 -124.5t-45.5 -175t45.5 -175t124.5 -124.5t175 -45.5q71 0 134 25.5t110 71.5l14 -13q-50 -49 -116.5 -76.5 t-141.5 -27.5q-101 0 -185 48zM422.5 45.5q20.5 17.5 34 51t13.5 78.5v77q-21 -37 -69 -47q-75 -17 -75 -97q0 -35 16 -57.5t39 -22.5q21 0 41.5 17.5z" glyph-name="at" unicode="@"/>
<glyph d="M-78 20h88l214 567l-30 93h-70v20h277l221 -680h89v-20h-433v20h130l-68 209h-228l-79 -209h160v-20h-271v20zM334 249l-99 305l-115 -305h214z" glyph-name="A" horiz-adv-x="651" unicode="A"/>
<glyph d="M105 20v660h-100v20h347q150 0 235 -47.5t85 -132.5q0 -62 -50 -104.5t-141 -59.5v-5q104 -14 161 -58t57 -113q0 -84 -83 -132t-229 -48h-382v20h100zM437 401q32 41 32 119t-32 119t-93 41h-29v-320h29q61 0 93 41zM454.5 60.5q30.5 40.5 30.5 119.5t-31 119.5 t-91 40.5h-48v-320h50q59 0 89.5 40.5z" glyph-name="B" horiz-adv-x="714" unicode="B"/>
<glyph d="M220 31q-83 46 -129 129t-46 190t46 190t129 129t190 46q26 0 82 -6q59 -8 109 -9v70h20v-330h-17v8q0 49 -34 108t-82.5 100t-88.5 41q-134 0 -134 -347t135 -347q45 0 98.5 45.5t90.5 111.5t37 122v9h17l1 -361h-20l-1 70q-55 -1 -122 -9q-62 -6 -91 -6q-107 0 -190 46 z" glyph-name="C" horiz-adv-x="718" unicode="C"/>
<glyph d="M565.5 655.5q87.5 -44.5 136 -124t48.5 -181.5t-48.5 -181.5t-136 -124t-199.5 -44.5h-361v20h100v660h-100v20h361q112 0 199.5 -44.5zM490.5 99q39.5 79 39.5 251t-39.5 251t-123.5 79h-52v-660h52q84 0 123.5 79z" glyph-name="D" horiz-adv-x="795" unicode="D"/>
<glyph d="M5 0v20h100v660h-100v20h562v70h20v-310h-17v12q0 41 -34.5 90.5t-91 83.5t-120.5 34h-9v-320h41q34 0 59 16.5t38 42t13 51.5v20h13v-280h-13v20q0 26 -13 51.5t-38 42t-59 16.5h-41v-320h9q75 0 142.5 39t108 95.5t40.5 103.5v12h18v-340h-20v70h-608z" glyph-name="E" horiz-adv-x="663" unicode="E"/>
<glyph d="M105 20v660h-100v20h570v70h20v-330h-17v12q0 45 -34.5 99.5t-91 91.5t-120.5 37h-17v-320h41q34 0 59 16.5t38 42t13 51.5v20h13v-280h-13v20q0 26 -13 51.5t-38 42t-59 16.5h-41v-320h120v-20h-430v20h100z" glyph-name="F" horiz-adv-x="605" unicode="F"/>
<glyph d="M689 50.5q-13 15.5 -32 15.5t-35 -7t-43 -23q-41 -24 -78 -37.5t-93 -13.5q-106 0 -188.5 46t-128.5 129t-46 190t46 190t129 129t190 46q26 0 86 -6q63 -8 115 -9v70h20v-331h-17v9q0 49 -32.5 108t-81 100t-92.5 41q-70 0 -106.5 -83.5t-36.5 -263.5q0 -184 37 -266 t107 -82q50 0 85 32t35 114v192h-120v20h403v-20h-90v-390h-20v57q0 28 -13 43.5z" glyph-name="G" horiz-adv-x="792" unicode="G"/>
<glyph d="M5 20h100v660h-100v20h400v-20h-90v-320h190v320h-90v20h400v-20h-100v-660h100v-20h-400v20h90v320h-190v-320h90v-20h-400v20z" glyph-name="H" unicode="H"/>
<glyph d="M5 20h100v660h-100v20h410v-20h-100v-660h100v-20h-410v20z" glyph-name="I" horiz-adv-x="420" unicode="I"/>
<glyph d="M38 291v-9q0 -51 33 -117.5t79.5 -114t80.5 -47.5q17 0 24 18.5t8.5 55t1.5 118.5v485h-150v20h460v-20h-100v-418q0 -91 -34.5 -153.5t-89 -93t-114.5 -30.5q-19 0 -71 6q-9 1 -45 4.5t-80 4.5v-70h-20v361h17z" glyph-name="J" horiz-adv-x="565" unicode="J"/>
<glyph d="M5 20h100v660h-100v20h410v-20h-100v-320h21l278 320h-140v20h281v-20h-114l-151 -174l283 -486h80v-20h-428v20h109l-187 320h-32v-320h100v-20h-410v20z" glyph-name="K" horiz-adv-x="770" unicode="K"/>
<glyph d="M5 0v20h100v660h-100v20h430v-20h-120v-660h9q76 0 143 40.5t108 99.5t41 108v22h17v-360h-20v70h-608z" glyph-name="L" horiz-adv-x="638" unicode="L"/>
<glyph d="M45 20h100v551l-56 109h-84v20h313l212 -420l152 420h303v-20h-100v-660h100v-20h-410v20h100v603l-225 -623h-12l-271 528v-508h130v-20h-252v20z" glyph-name="M" horiz-adv-x="990" unicode="M"/>
<glyph d="M127 566v-546h150v-20h-272v20h100v573l-70 87h-70v20h317l331 -416v396h-120v20h242v-20h-100v-728h-15z" glyph-name="N" horiz-adv-x="740" unicode="N"/>
<glyph d="M220 31q-83 46 -129 129t-46 190t46 190t129 129t190 46t190 -46t129 -129t46 -190t-46 -190t-129 -129t-190 -46t-190 46zM520.5 85.5q34.5 82.5 34.5 264.5t-34.5 264.5t-110.5 82.5t-110.5 -82.5t-34.5 -264.5t34.5 -264.5t110.5 -82.5t110.5 82.5z" glyph-name="O" unicode="O"/>
<glyph d="M105 20v660h-100v20h349q143 0 224.5 -53t81.5 -147t-81.5 -147t-224.5 -53h-39v-280h120v-20h-430v20h100zM421.5 366q28.5 46 28.5 134t-28.5 134t-83.5 46h-23v-360h23q55 0 83.5 46z" glyph-name="P" horiz-adv-x="690" unicode="P"/>
<glyph d="M315 -180v175q-81 19 -142 68t-94.5 123t-33.5 164q0 107 46 190t129 129t190 46t190 -46t129 -129t46 -190q0 -90 -33.5 -164t-94.5 -123t-142 -68v-175h120v-20h-430v20h120zM520.5 85.5q34.5 82.5 34.5 264.5t-34.5 264.5t-110.5 82.5t-110.5 -82.5t-34.5 -264.5 t34.5 -264.5t110.5 -82.5t110.5 82.5z" glyph-name="Q" unicode="Q"/>
<glyph d="M105 20v660h-100v20h347q150 0 235 -50t85 -138q0 -43 -34.5 -78t-92.5 -61l188 -353h80v-20h-418v20h101l-160 310h-21v-310h70v-20h-380v20h100zM437 392.5q32 42.5 32 122.5t-32 122.5t-93 42.5h-29v-330h29q61 0 93 42.5z" glyph-name="R" horiz-adv-x="724" unicode="R"/>
<glyph d="M65 301l1 -31q2 -58 65 -117.5t158 -98t184 -38.5q33 0 55.5 17.5t22.5 43.5q0 36 -41.5 62t-130.5 63q-98 41 -161.5 76.5t-109.5 93.5t-46 141q0 59 29.5 104.5t85 71.5t132.5 26q39 0 76 -5.5t88 -15.5q14 -2 39 -7t41 -6v89h20v-340h-18v29q0 40 -61 90t-147 85.5 t-155 35.5q-29 0 -45.5 -15t-16.5 -38q0 -27 25 -50.5t62.5 -42.5t105.5 -49q98 -43 159.5 -77t106 -85.5t44.5 -120.5q0 -103 -62.5 -155t-181.5 -52q-60 0 -110 5.5t-114 16.5q-15 2 -46 6.5t-51 5.5v-89h-20l-1 371h18z" glyph-name="S" horiz-adv-x="650" unicode="S"/>
<glyph d="M270 20v660h-10q-42 0 -91 -38t-83 -92.5t-34 -100.5v-9h-17v330h20v-70h640v70h20v-330h-17v9q0 46 -34 100.5t-83 92.5t-91 38h-10v-660h120v-20h-450v20h120z" glyph-name="T" horiz-adv-x="750" unicode="T"/>
<glyph d="M225.5 18.5q-62.5 33.5 -96 96t-33.5 146.5l-1 419h-100v20h410v-20h-100v-419q0 -128 39.5 -181.5t116.5 -53.5q46 0 83 32t57.5 88.5t20.5 128.5v405h-100v20h220v-20h-100v-405q0 -138 -71 -214t-199 -76q-84 0 -146.5 33.5z" glyph-name="U" horiz-adv-x="732" unicode="U"/>
<glyph d="M16 680h-86v20h440v-20h-130l187 -534l185 534h-162v20h270v-20h-87l-236 -680h-144z" glyph-name="V" horiz-adv-x="647" unicode="V"/>
<glyph d="M15 680h-85v20h381v-20h-72l147 -516l75 256l-77 260h-63v20h399v-20h-111l147 -515l149 515h-105v20h212v-20h-86l-198 -680h-144l-113 386l-113 -386h-144z" glyph-name="W" horiz-adv-x="939" unicode="W"/>
<glyph d="M-76 20h125l192 306l-224 354h-83v20h436v-20h-114l150 -237l148 237h-114v20h225v-20h-89l-159 -254l257 -406h82v-20h-451v20h130l-183 289l-181 -289h154v-20h-301v20z" glyph-name="X" horiz-adv-x="650" unicode="X"/>
<glyph d="M99 20h120v263l-190 397h-89v20h442v-20h-130l172 -366l174 366h-130v20h241v-20h-90l-190 -401v-259h120v-20h-450v20z" glyph-name="Y" horiz-adv-x="643" unicode="Y"/>
<glyph d="M363 680h-52q-66 0 -125 -34t-95 -83.5t-36 -90.5v-12h-17v310h20v-70h542v-10l-358 -670h39q81 0 150.5 39t110.5 95.5t41 103.5v12h17v-340h-20v70h-575v10z" glyph-name="Z" horiz-adv-x="615" unicode="Z"/>
<glyph d="M120 800h310v-20h-140v-860h140v-20h-310v900z" glyph-name="bracketleft" horiz-adv-x="500" unicode="["/>
<glyph d="M70 700l338 -700h-20l-338 700h20z" glyph-name="backslash" horiz-adv-x="458" unicode="\"/>
<glyph d="M70 -100v20h140v860h-140v20h310v-900h-310z" glyph-name="bracketright" horiz-adv-x="500" unicode="]"/>
<glyph d="M270 700h20l167 -290h-23l-154 267l-154 -267h-23z" glyph-name="asciicircum" horiz-adv-x="560" unicode="^"/>
<glyph d="M30 20h380v-20h-380v20z" glyph-name="underscore" horiz-adv-x="440" unicode="_"/>
<glyph d="M53.5 25q-42.5 35 -42.5 93q0 123 178 140q66 6 103.5 20t54.5 40t17 68q0 60 -15 85t-46 25q-34 0 -81.5 -32.5t-82.5 -78t-35 -79.5v-16h-18v266h20v-56q62 1 107 6q52 4 77 4q112 0 173 -56t61 -158v-276h80v-20h-241v105q-23 -60 -70.5 -87.5t-120.5 -27.5 q-76 0 -118.5 35zM305 51.5q25 21.5 41.5 63t16.5 97.5v100q-24 -45 -85 -58q-92 -20 -92 -124q0 -44 19.5 -72t48.5 -28q26 0 51 21.5z" glyph-name="a" horiz-adv-x="609" unicode="a"/>
<glyph d="M270 94v-94h-175v680h-90v20h265v-294q42 104 153 104q61 0 110 -31.5t77 -90.5t28 -138t-28 -138t-77 -90.5t-110 -31.5q-111 0 -153 104zM431.5 75.5q21.5 51.5 21.5 174.5t-21.5 174.5t-63.5 51.5q-31 0 -55.5 -30t-37.5 -81.5t-13 -114.5t13 -114.5t37.5 -81.5 t55.5 -30q42 0 63.5 51.5z" glyph-name="b" horiz-adv-x="678" unicode="b"/>
<glyph d="M425 -5q-14 -1 -44.5 -3t-53.5 -2q-84 0 -149.5 33t-101.5 92t-36 135t36 135t101.5 92t149.5 33q36 0 84 -5q45 -4 71 -5v56h20l-1 -266h-18v16q0 34 -28.5 79t-67 77.5t-65.5 32.5q-48 0 -72.5 -59.5t-24.5 -185.5t24.5 -185.5t72.5 -59.5q31 0 73 32t73.5 77t34.5 80 v16h18v-266h-20v56q-23 -1 -76 -5z" glyph-name="c" horiz-adv-x="589" unicode="c"/>
<glyph d="M145 21.5q-49 31.5 -77 90.5t-28 138t28 138t77 90.5t110 31.5q111 0 153 -104v274h-90v20h265v-680h90v-20h-265v94q-42 -104 -153 -104q-61 0 -110 31.5zM365.5 54q24.5 30 37.5 81.5t13 114.5t-13 114.5t-37.5 81.5t-55.5 30q-42 0 -63.5 -51.5t-21.5 -174.5 t21.5 -174.5t63.5 -51.5q31 0 55.5 30z" glyph-name="d" horiz-adv-x="678" unicode="d"/>
<glyph d="M428 -5q-14 -1 -44.5 -3t-53.5 -2q-85 0 -151 33t-102.5 92t-36.5 135t34.5 135t97 92t143.5 33q83 0 143.5 -32t93 -90.5t35.5 -135.5v-12h-362q1 -116 26 -176t66 -60q31 0 76 30.5t79 71t34 68.5v12h18v-242h-20v56q-23 -1 -76 -5zM382 439.5q-22 55.5 -67 55.5 t-67 -58t-23 -177h180q-1 124 -23 179.5z" glyph-name="e" horiz-adv-x="627" unicode="e"/>
<glyph d="M95 20v460h-90v20h90v6q0 102 35 158t99 56q49 0 99 -5q10 -1 39 -3t60 -2v40h20v-225h-19v10q0 18 -42.5 58.5t-95 73.5t-79.5 33q-14 0 -22 -7.5t-8 -20.5q0 -21 7.5 -38.5t23.5 -42.5q30 -47 43 -91h146v-20h-141q10 -42 10 -91v-369h131v-20h-396v20h90z" glyph-name="f" horiz-adv-x="364" unicode="f"/>
<glyph d="M109 -169q-80 41 -80 115q0 58 56.5 97t159.5 53q-140 11 -220 42t-80 99q0 30 20 48.5t53 18.5q21 0 49 -13q-13 19 -13 49q0 64 50 106.5t140 56.5v107h-100v20h375v-20h-100v-106q93 -14 144 -56.5t51 -107.5q0 -79 -74.5 -124.5t-205.5 -45.5q-63 0 -108 11.5 t-72.5 27t-58.5 39.5q-26 19 -42 27.5t-35 8.5q-24 0 -38 -12t-14 -32q0 -45 42 -70.5t103 -36.5t169 -22q69 -6 129 -15q120 -19 175 -54.5t55 -95.5q0 -74 -80 -115t-225 -41t-225 41zM408.5 224.5q26.5 41.5 26.5 117.5t-26.5 118t-74.5 42q-49 0 -75.5 -42t-26.5 -118 t26.5 -117.5t75.5 -41.5q48 0 74.5 41.5zM409 -161.5q26 36.5 26 107.5t-26 107.5t-75 36.5q-50 0 -76 -37t-26 -107t26 -107t76 -37q49 0 75 36.5z" glyph-name="g" horiz-adv-x="639" unicode="g"/>
<glyph d="M95 20v660h-90v20h265v-296q37 106 154 106q82 0 126.5 -58t44.5 -166v-266h85v-20h-332v20h72v266q0 96 -15 140t-49 44q-40 0 -63 -56.5t-23 -153.5v-240h68v-20h-333v20h90z" glyph-name="h" horiz-adv-x="685" unicode="h"/>
<glyph d="M5 20h90v460h-90v20h265v-480h90v-20h-355v20zM69 745h220l-105 -200h-10z" glyph-name="i" horiz-adv-x="365" unicode="i"/>
<glyph d="M-7 -20v-11q0 -31 32.5 -68t73.5 -63.5t61 -26.5q15 0 22.5 7.5t7.5 20.5q0 20 -8 37t-25 44q-29 46 -45.5 88.5t-16.5 112.5v359h-90v20h265v-496q0 -102 -35 -158t-99 -56q-18 0 -41 2t-33 3q-40 5 -69 5v-56h-20v236h20zM73 745h220l-105 -200h-10z" glyph-name="j" horiz-adv-x="355" unicode="j"/>
<glyph d="M5 20h90v660h-90v20h265v-440h23l201 220h-124v20h245v-20h-93l-103 -113l210 -347h76v-20h-350v20h75l-133 220h-27v-220h75v-20h-340v20z" glyph-name="k" horiz-adv-x="620" unicode="k"/>
<glyph d="M5 20h90v660h-90v20h265v-680h90v-20h-355v20z" glyph-name="l" horiz-adv-x="365" unicode="l"/>
<glyph d="M95 20v460h-90v20h265v-94q38 104 149 104q61 0 100.5 -33.5t55.5 -97.5q29 131 159 131q80 0 123 -58t43 -166v-266h85v-20h-325v20h65v266q0 96 -14 140t-45 44q-37 0 -59 -49t-22 -125v-276h65v-20h-305v20h65v266q0 96 -14 140t-45 44q-38 0 -59.5 -56.5 t-21.5 -153.5v-240h65v-20h-330v20h90z" glyph-name="m" horiz-adv-x="990" unicode="m"/>
<glyph d="M95 20v460h-90v20h265v-96q37 106 154 106q82 0 126.5 -58t44.5 -166v-266h85v-20h-332v20h72v266q0 96 -15 140t-49 44q-40 0 -63 -56.5t-23 -153.5v-240h68v-20h-333v20h90z" glyph-name="n" horiz-adv-x="685" unicode="n"/>
<glyph d="M179 23q-66 33 -102.5 92t-36.5 135t36.5 135t102.5 92t151 33t151 -33t102.5 -92t36.5 -135t-36.5 -135t-102.5 -92t-151 -33t-151 33zM410 63.5q25 58.5 25 186.5t-25 186.5t-80 58.5t-80 -58.5t-25 -186.5t25 -186.5t80 -58.5t80 58.5z" glyph-name="o" horiz-adv-x="660" unicode="o"/>
<glyph d="M95 -180v660h-90v20h265v-94q42 104 153 104q61 0 110 -31.5t77 -90.5t28 -138t-28 -138t-77 -90.5t-110 -31.5q-111 0 -153 104v-274h130v-20h-395v20h90zM431.5 75.5q21.5 51.5 21.5 174.5t-21.5 174.5t-63.5 51.5q-31 0 -55.5 -30t-37.5 -81.5t-13 -114.5t13 -114.5 t37.5 -81.5t55.5 -30q42 0 63.5 51.5z" glyph-name="p" horiz-adv-x="678" unicode="p"/>
<glyph d="M408 -180v274q-42 -104 -153 -104q-61 0 -110 31.5t-77 90.5t-28 138t28 138t77 90.5t110 31.5q111 0 153 -104v94h265v-20h-90v-660h90v-20h-395v20h130zM365.5 54q24.5 30 37.5 81.5t13 114.5t-13 114.5t-37.5 81.5t-55.5 30q-42 0 -63.5 -51.5t-21.5 -174.5 t21.5 -174.5t63.5 -51.5q31 0 55.5 30z" glyph-name="q" horiz-adv-x="678" unicode="q"/>
<glyph d="M95 20v460h-90v20h265v-98q19 53 56 80.5t89 27.5q16 0 36 -5l28 -4v70h20v-281h-15v7q0 32 -24.5 70t-57.5 65t-55 27q-35 0 -56 -52.5t-21 -146.5v-240h130v-20h-395v20h90z" glyph-name="r" horiz-adv-x="529" unicode="r"/>
<glyph d="M44 210v-15q0 -36 52 -78t129.5 -71t148.5 -29q31 0 48.5 11t17.5 31q0 12 -8.5 22t-36.5 22.5t-83 29.5q-108 31 -168.5 63t-86 70.5t-25.5 93.5q0 71 50.5 110.5t141.5 39.5q43 0 75 -4.5t72 -13.5q30 -6 53 -9v70h20v-247h-19v11q0 34 -53 71.5t-123.5 63t-112.5 25.5 q-19 0 -32 -10.5t-13 -24.5q0 -18 11.5 -32t46.5 -30.5t104 -39.5q103 -34 155.5 -63t71 -59t18.5 -73q0 -156 -183 -156q-18 0 -58 2t-65 3q-106 6 -145 6v-56h-20v266h17z" glyph-name="s" horiz-adv-x="513" unicode="s"/>
<glyph d="M133 35q-48 45 -48 124v321h-80v20h69q70 0 118 41.5t48 128.5v10h20v-180h145v-20h-145v-371q0 -43 21 -65.5t58 -22.5q19 0 44.5 11.5t36.5 25.5v-26q-21 -18 -62.5 -30t-92.5 -12q-84 0 -132 45z" glyph-name="t" horiz-adv-x="425" unicode="t"/>
<glyph d="M134.5 48q-44.5 58 -44.5 166v266h-85v20h260v-286q0 -96 15 -140t49 -44q40 0 63 56.5t23 153.5v240h-90v20h355v-20h-90v-460h90v-20h-265v96q-37 -106 -154 -106q-82 0 -126.5 58z" glyph-name="u" horiz-adv-x="685" unicode="u"/>
<glyph d="M13 480h-69v20h354v-20h-96l142 -361l142 361h-124v20h215v-20h-69l-189 -480h-113z" glyph-name="v" horiz-adv-x="519" unicode="v"/>
<glyph d="M14 480h-71v20h308v-20h-55l118 -354l57 172l-59 182h-51v20h298v-20h-64l116 -356l117 356h-104v20h197v-20h-72l-159 -480h-121l-87 267l-89 -267h-122z" glyph-name="w" horiz-adv-x="761" unicode="w"/>
<glyph d="M-71 20h105l144 206l-172 254h-69v20h350v-20h-70l105 -154l108 154h-93v20h192v-20h-76l-120 -172l195 -288h68v-20h-379v20h100l-127 188l-133 -188h110v-20h-238v20z" glyph-name="x" horiz-adv-x="511" unicode="x"/>
<glyph d="M62 70v-26q0 -40 35.5 -94t84.5 -93t86 -39q13 0 20.5 9t7.5 23v1q0 12 -11 37.5t-55 117.5l-54 111l-174 363h-64v20h341v-20h-78l121 -289q19 -46 28 -80q6 30 18 66l104 303h-120v20h219v-20h-78l-109 -317q-12 -37 -17.5 -67t-5.5 -67v-10q0 -116 -37 -172.5 t-106 -56.5q-38 0 -108 6l-46 3v-56h-20v327h18z" glyph-name="y" horiz-adv-x="506" unicode="y"/>
<glyph d="M18 0v11l285 469h-44q-40 0 -84.5 -29.5t-74.5 -72t-30 -76.5v-12h-17v280h20v-70h430v-11l-285 -469h29q61 0 111.5 28t79 70t28.5 80v12h17v-266h-20v56h-445z" glyph-name="z" horiz-adv-x="517" unicode="z"/>
<glyph d="M177 -78q-44 37 -44 113q0 32 17 113q7 36 13 74t6 64q0 30 -12.5 42t-40.5 12h-51v20h51q28 0 40.5 12t12.5 42q0 26 -6 64t-13 74q-17 81 -17 113q0 76 44 113t133 37q21 0 58.5 -5t55.5 -12v-19q-37 12 -64 12q-63 0 -63 -66q0 -16 5.5 -56t7.5 -56q15 -92 15 -124 q0 -55 -23 -90t-77 -49q54 -14 77 -49t23 -90q0 -32 -15 -124q-2 -16 -7.5 -56t-5.5 -56q0 -66 63 -66q27 0 64 12v-19q-18 -7 -55.5 -12t-58.5 -5q-89 0 -133 37z" glyph-name="braceleft" horiz-adv-x="500" unicode="{"/>
<glyph d="M120 800h20v-900h-20v900z" glyph-name="bar" horiz-adv-x="260" unicode="|"/>
<glyph d="M323 778q44 -37 44 -113q0 -32 -17 -113q-7 -36 -13 -74t-6 -64q0 -30 12.5 -42t40.5 -12h51v-20h-51q-28 0 -40.5 -12t-12.5 -42q0 -26 6 -64t13 -74q17 -81 17 -113q0 -76 -44 -113t-133 -37q-21 0 -58.5 5t-55.5 12v19q38 -12 64 -12q63 0 63 66q0 16 -5.5 56t-7.5 56 q-15 92 -15 124q0 55 23 90t77 49q-54 14 -77 49t-23 90q0 32 15 124q2 16 7.5 56t5.5 56q0 66 -63 66q-26 0 -64 -12v19q18 7 55.5 12t58.5 5q89 0 133 -37z" glyph-name="braceright" horiz-adv-x="500" unicode="}"/>
<glyph d="M107 364.5q27 23.5 64 23.5q26 0 50.5 -7.5t62.5 -22.5q36 -14 58.5 -21t46.5 -7q28 0 49.5 18t21.5 41h20q0 -32 -27 -55.5t-64 -23.5q-26 0 -50.5 7.5t-62.5 22.5q-36 14 -58.5 21t-46.5 7q-28 0 -49.5 -18t-21.5 -41h-20q0 32 27 55.5z" glyph-name="asciitilde" horiz-adv-x="560" unicode="~"/>
<glyph glyph-name="uni00A0" horiz-adv-x="250" unicode=" "/>
<glyph d="M292 476q36 -36 36 -89t-36 -89t-89 -36t-89 36t-36 89t36 89t89 36t89 -36zM406 -180v-20h-406v20h100l33 383h140l33 -383h100z" glyph-name="exclamdown" horiz-adv-x="406" unicode="¡"/>
<glyph d="M210 129.5q-61 33.5 -95 91t-34 131.5t34 131.5t95 91t140 37.5v118h20v-118q35 0 83 -5q46 -4 70 -5v56h20l-1 -266h-18v16q0 34 -28.5 79t-67 77.5t-65.5 32.5q-48 0 -72.5 -59.5t-24.5 -185.5t24.5 -185.5t72.5 -59.5q31 0 73 32t73.5 77t34.5 80v16h18v-266h-20v56 q-24 -1 -74 -5q-14 -1 -44.5 -3t-53.5 -2v-122h-20v122q-79 4 -140 37.5z" glyph-name="cent" horiz-adv-x="700" unicode="¢"/>
<glyph d="M665 185q0 -87 -42 -143.5t-128 -56.5q-45 0 -87.5 14.5t-92.5 40.5q-43 -55 -117 -55q-61 0 -95 33t-34 82q0 31 16.5 59t48.5 45t77 17q53 0 126 -14l-3 7q-11 22 -28 41t-51 50l-37 35h-147v20h128q-31 35 -48 73t-17 86q0 92 63 144t168 52q78 0 132.5 -30t79.5 -85 v110h20v-210h-20q0 87 -43 130t-103 43q-49 0 -78 -31t-29 -93q0 -25 4.5 -47t13.5 -53q13 -46 20 -89h207v-20h-204q4 -46 4 -80l-2 -59q58 -11 94 -16t76 -5q62 0 86 12t24 42q0 5 -4 17h15q7 -32 7 -66zM297 49q-56 29 -84 41t-55 12q-25 0 -40.5 -12t-15.5 -28 q0 -22 25.5 -39.5t66.5 -17.5q62 0 103 44z" glyph-name="sterling" horiz-adv-x="700" unicode="£"/>
<glyph d="M202 216q-24 27 -38 61.5t-14 72.5t14 72.5t38 61.5l-92 92l14 14l92 -92q27 24 61.5 38t72.5 14t72.5 -14t61.5 -38l92 92l14 -14l-92 -92q24 -27 38 -61.5t14 -72.5t-14 -72.5t-38 -61.5l92 -92l-14 -14l-92 92q-27 -24 -61.5 -38t-72.5 -14t-72.5 14t-61.5 38l-92 -92 l-14 14zM440 194.5q41 24.5 65.5 65.5t24.5 90t-24.5 90t-65.5 65.5t-90 24.5t-90 -24.5t-65.5 -65.5t-24.5 -90t24.5 -90t65.5 -65.5t90 -24.5t90 24.5z" glyph-name="currency" horiz-adv-x="700" unicode="¤"/>
<glyph d="M125 20h120v160h-164v20h164v83l-8 17h-156v20h146l-172 360h-89v20h442v-20h-130l172 -366l174 366h-130v20h241v-20h-90l-171 -360h146v-20h-155l-10 -21v-79h165v-20h-165v-160h120v-20h-450v20z" glyph-name="yen" horiz-adv-x="700" unicode="¥"/>
<glyph d="M120 800h20v-380h-20v380zM120 280h20v-380h-20v380z" glyph-name="brokenbar" horiz-adv-x="260" unicode="¦"/>
<glyph d="M236.5 -80q-52.5 20 -87 58.5t-41.5 89.5h21q7 -45 38 -78t74.5 -50t88.5 -17q49 0 81.5 15t32.5 42q0 26 -24.5 42t-86.5 40l-40 16q-85 33 -142.5 76t-57.5 114q0 57 32.5 95t87.5 58q-90 58 -90 141q0 53 31.5 87.5t81 50.5t103.5 16q90 0 151.5 -45t70.5 -120h-21 q-13 65 -65.5 103t-125.5 38q-41 0 -68 -15.5t-27 -45.5q0 -25 27.5 -41t94.5 -41l39 -15q50 -19 89.5 -39.5t71 -56.5t31.5 -86q0 -58 -31 -97.5t-82 -60.5q93 -56 93 -136q0 -55 -36 -90.5t-90 -51.5t-111 -16q-61 0 -113.5 20zM500 250q0 28 -24 49.5t-57 36t-90 34.5 q-29 10 -56.5 21t-44.5 21q-22 -14 -22 -49q0 -38 48 -65t135 -59q28 -10 54 -20t37 -19q20 22 20 50z" glyph-name="section" horiz-adv-x="700" unicode="§"/>
<glyph d="M225 33q-84 48 -132 132t-48 185t48 185t132 132t185 48t185 -48t132 -132t48 -185t-48 -185t-132 -132t-185 -48t-185 48zM585 50.5q79 45.5 124.5 124.5t45.5 175t-45.5 175t-124.5 124.5t-175 45.5t-175 -45.5t-124.5 -124.5t-45.5 -175t45.5 -175t124.5 -124.5 t175 -45.5t175 45.5zM509 148q-54 -4 -79 -4q-67 0 -119.5 26.5t-81.5 73.5t-29 108t29 108t81.5 73.5t119.5 26.5q19 0 67 -4q17 -2 53 -4v45h20l-1 -213h-19v13q0 27 -22 62.5t-51.5 61t-50.5 25.5q-39 0 -58.5 -47t-19.5 -147t19.5 -146.5t58.5 -46.5q24 0 56.5 25 t57 60.5t26.5 62.5v13h19v-213h-20v45q-38 -2 -56 -4z" glyph-name="copyright" unicode="©"/>
<glyph d="M108 300l109 -200h-21l-106 194v12l106 194h21zM268 300l109 -200h-21l-106 194v12l106 194h21z" glyph-name="guillemotleft" horiz-adv-x="467" unicode="«"/>
<glyph d="M480 360v-210h-20v190h-380v20h400z" glyph-name="logicalnot" horiz-adv-x="560" unicode="¬"/>
<glyph d="M138.5 378.5q-41.5 23.5 -65 65t-23.5 91.5t23.5 91.5t65 65t91.5 23.5t91.5 -23.5t65 -65t23.5 -91.5t-23.5 -91.5t-65 -65t-91.5 -23.5t-91.5 23.5zM311 398q37 23 58 60t21 77q0 45 -21 81.5t-57.5 57.5t-81.5 21t-81.5 -21t-57.5 -57.5t-21 -81.5t21 -81.5 t57.5 -57.5t81.5 -21q44 0 81 23zM152 455v168h-30v19h102q44 0 68.5 -14.5t24.5 -40.5q0 -24 -37 -40l55 -92h15v-17h-109v17h25l-47 79h-6v-79h17v-17h-108v17h30zM248.5 559q9.5 10 9.5 29q0 35 -37 35h-8v-74h8q18 0 27.5 10z" glyph-name="registered" horiz-adv-x="460" unicode="®"/>
<glyph d="M70.5 510.5q-35.5 35.5 -35.5 84.5q0 50 35.5 85t84.5 35q50 0 85 -35t35 -85q0 -49 -35 -84.5t-85 -35.5q-49 0 -84.5 35.5zM225.5 524.5q29.5 29.5 29.5 70.5t-29.5 70.5t-70.5 29.5t-70.5 -29.5t-29.5 -70.5t29.5 -70.5t70.5 -29.5t70.5 29.5z" glyph-name="degree" horiz-adv-x="310" unicode="°"/>
<glyph d="M290 410h190v-20h-190v-190h-20v190h-190v20h190v190h20v-190zM80 110v20h400v-20h-400z" glyph-name="plusminus" horiz-adv-x="560" unicode="±"/>
<glyph d="M290 -180v480h-9q-62 0 -112.5 26.5t-79.5 72t-29 101.5t29 101.5t79.5 72t112.5 26.5h319v-20h-100v-860h100v-20h-410v20h100z" glyph-name="paragraph" horiz-adv-x="600" unicode="¶"/>
<glyph d="M81 214q-36 36 -36 89t36 89t89 36t89 -36t36 -89t-36 -89t-89 -36t-89 36z" glyph-name="periodcentered" horiz-adv-x="340" unicode="·"/>
<glyph d="M359 300l-109 200h21l106 -194v-12l-106 -194h-21zM199 300l-109 200h21l106 -194v-12l-106 -194h-21z" glyph-name="guillemotright" horiz-adv-x="467" unicode="»"/>
<glyph d="M352 476q36 -36 36 -89t-36 -89t-89 -36t-89 36t-36 89t36 89t89 36t89 -36zM304 172q0 -32 -10.5 -57.5t-23.5 -47t-17 -27.5q-19 -34 -30 -66t-11 -72q0 -44 15 -73t44 -29q30 0 64 34t63.5 87.5t45.5 108.5l3 10h11l-1 -310h-16v82q-13 -2 -25 -5t-23 -5 q-33 -8 -58 -12.5t-63 -4.5q-94 0 -166 35.5t-72 110.5q0 34 16 58.5t40 42t64 40.5q41 23 66.5 41.5t43 46t17.5 65.5h13q10 -27 10 -53z" glyph-name="questiondown" horiz-adv-x="518" unicode="¿"/>
<glyph d="M-78 20h88l214 567l-30 93h-70v20h277l221 -680h89v-20h-433v20h130l-68 209h-228l-79 -209h160v-20h-271v20zM334 249l-99 305l-115 -305h214zM290 745l-223 200h200l30 -200h-7z" glyph-name="Agrave" horiz-adv-x="651" unicode="À"/>
<glyph d="M-78 20h88l214 567l-30 93h-70v20h277l221 -680h89v-20h-433v20h130l-68 209h-228l-79 -209h160v-20h-271v20zM334 249l-99 305l-115 -305h214zM323 945h200l-223 -200h-7z" glyph-name="Aacute" horiz-adv-x="651" unicode="Á"/>
<glyph d="M-78 20h88l214 567l-30 93h-70v20h277l221 -680h89v-20h-433v20h130l-68 209h-228l-79 -209h160v-20h-271v20zM334 249l-99 305l-115 -305h214zM270 785l-70 99l-70 -99h-22l114 160h146l114 -160h-212z" glyph-name="Acircumflex" horiz-adv-x="651" unicode="Â"/>
<glyph d="M-78 20h88l214 567l-30 93h-70v20h277l221 -680h89v-20h-433v20h130l-68 209h-228l-79 -209h160v-20h-271v20zM334 249l-99 305l-115 -305h214zM139.5 906.5q31.5 39.5 86.5 39.5q31 0 60 -6t64 -16q22 -6 43 -10.5t36 -4.5q18 0 28.5 8t10.5 29h14q0 -73 -31.5 -112.5 t-86.5 -39.5q-31 0 -60 6t-64 16q-22 6 -43 10.5t-36 4.5q-18 0 -28.5 -8t-10.5 -29h-14q0 73 31.5 112.5z" glyph-name="Atilde" horiz-adv-x="651" unicode="Ã"/>
<glyph d="M-78 20h88l214 567l-30 93h-70v20h277l221 -680h89v-20h-433v20h130l-68 209h-228l-79 -209h160v-20h-271v20zM334 249l-99 305l-115 -305h214zM486 945l-94 -200h-9l-88 185l-87 -185h-9l-95 200h382z" glyph-name="Adieresis" horiz-adv-x="651" unicode="Ä"/>
<glyph d="M-78 20h88l214 567l-30 93h-70v20h277l221 -680h89v-20h-433v20h130l-68 209h-228l-79 -209h160v-20h-271v20zM334 249l-99 305l-115 -305h214zM222 759.5q-33 19.5 -52.5 53t-19.5 72.5t19.5 72.5t52.5 53t73 19.5q39 0 72.5 -19.5t53 -53t19.5 -72.5t-19.5 -72.5 t-53 -53t-72.5 -19.5q-40 0 -73 19.5zM375.5 862q27.5 2 38.5 7.5t11 15.5t-11 15.5t-38.5 7.5t-80.5 2t-80.5 -2t-38.5 -7.5t-11 -15.5t11 -15.5t38.5 -7.5t80.5 -2t80.5 2z" glyph-name="Aring" horiz-adv-x="651" unicode="Å"/>
<glyph d="M278 0v20h130l-68 209h-228l-79 -209h160v-20h-271v20h88l214 567l-30 93h-70v20h690v70h20v-310h-17v12q0 46 -33 94t-106.5 81t-187.5 33h-82l104 -320h91q34 0 59 16.5t38 42t13 51.5v20h13v-280h-13v20q0 26 -13 51.5t-38 42t-59 16.5h-85l104 -320h13q44 0 98 40 t91.5 96.5t37.5 101.5v12h18v-340h-20v70h-582zM334 249l-99 305l-115 -305h214z" glyph-name="AE" horiz-adv-x="910" unicode="Æ"/>
<glyph d="M220 31q-83 46 -129 129t-46 190t46 190t129 129t190 46q26 0 82 -6q59 -8 109 -9v70h20v-330h-17v8q0 49 -34 108t-82.5 100t-88.5 41q-134 0 -134 -347t135 -347q45 0 98.5 45.5t90.5 111.5t37 122v9h17l1 -361h-20l-1 70q-55 -1 -122 -9q-62 -6 -91 -6q-107 0 -190 46 zM187 -245l223 200h7l-30 -200h-200z" glyph-name="Ccedilla" horiz-adv-x="718" unicode="Ç"/>
<glyph d="M5 0v20h100v660h-100v20h562v70h20v-310h-17v12q0 41 -34.5 90.5t-91 83.5t-120.5 34h-9v-320h41q34 0 59 16.5t38 42t13 51.5v20h13v-280h-13v20q0 26 -13 51.5t-38 42t-59 16.5h-41v-320h9q75 0 142.5 39t108 95.5t40.5 103.5v12h18v-340h-20v70h-608zM321 745 l-223 200h200l30 -200h-7z" glyph-name="Egrave" horiz-adv-x="663" unicode="È"/>
<glyph d="M5 0v20h100v660h-100v20h562v70h20v-310h-17v12q0 41 -34.5 90.5t-91 83.5t-120.5 34h-9v-320h41q34 0 59 16.5t38 42t13 51.5v20h13v-280h-13v20q0 26 -13 51.5t-38 42t-59 16.5h-41v-320h9q75 0 142.5 39t108 95.5t40.5 103.5v12h18v-340h-20v70h-608zM354 945h200 l-223 -200h-7z" glyph-name="Eacute" horiz-adv-x="663" unicode="É"/>
<glyph d="M5 0v20h100v660h-100v20h562v70h20v-310h-17v12q0 41 -34.5 90.5t-91 83.5t-120.5 34h-9v-320h41q34 0 59 16.5t38 42t13 51.5v20h13v-280h-13v20q0 26 -13 51.5t-38 42t-59 16.5h-41v-320h9q75 0 142.5 39t108 95.5t40.5 103.5v12h18v-340h-20v70h-608zM301 785l-70 99 l-70 -99h-22l114 160h146l114 -160h-212z" glyph-name="Ecircumflex" horiz-adv-x="663" unicode="Ê"/>
<glyph d="M5 0v20h100v660h-100v20h562v70h20v-310h-17v12q0 41 -34.5 90.5t-91 83.5t-120.5 34h-9v-320h41q34 0 59 16.5t38 42t13 51.5v20h13v-280h-13v20q0 26 -13 51.5t-38 42t-59 16.5h-41v-320h9q75 0 142.5 39t108 95.5t40.5 103.5v12h18v-340h-20v70h-608zM517 945 l-94 -200h-9l-88 185l-87 -185h-9l-95 200h382z" glyph-name="Edieresis" horiz-adv-x="663" unicode="Ë"/>
<glyph d="M5 20h100v660h-100v20h410v-20h-100v-660h100v-20h-410v20zM205 745l-223 200h200l30 -200h-7z" glyph-name="Igrave" horiz-adv-x="420" unicode="Ì"/>
<glyph d="M5 20h100v660h-100v20h410v-20h-100v-660h100v-20h-410v20zM238 945h200l-223 -200h-7z" glyph-name="Iacute" horiz-adv-x="420" unicode="Í"/>
<glyph d="M5 20h100v660h-100v20h410v-20h-100v-660h100v-20h-410v20zM185 785l-70 99l-70 -99h-22l114 160h146l114 -160h-212z" glyph-name="Icircumflex" horiz-adv-x="420" unicode="Î"/>
<glyph d="M5 20h100v660h-100v20h410v-20h-100v-660h100v-20h-410v20zM401 945l-94 -200h-9l-88 185l-87 -185h-9l-95 200h382z" glyph-name="Idieresis" horiz-adv-x="420" unicode="Ï"/>
<glyph d="M105 20v320h-81v20h81v320h-100v20h361q112 0 199.5 -44.5t136 -124t48.5 -181.5t-48.5 -181.5t-136 -124t-199.5 -44.5h-361v20h100zM490.5 99q39.5 79 39.5 251t-39.5 251t-123.5 79h-52v-320h99v-20h-99v-320h52q84 0 123.5 79z" glyph-name="Eth" horiz-adv-x="795" unicode="Ð"/>
<glyph d="M127 566v-546h150v-20h-272v20h100v573l-70 87h-70v20h317l331 -416v396h-120v20h242v-20h-100v-728h-15zM214.5 906.5q31.5 39.5 86.5 39.5q31 0 60 -6t64 -16q22 -6 43 -10.5t36 -4.5q18 0 28.5 8t10.5 29h14q0 -73 -31.5 -112.5t-86.5 -39.5q-31 0 -60 6t-64 16 q-22 6 -43 10.5t-36 4.5q-18 0 -28.5 -8t-10.5 -29h-14q0 73 31.5 112.5z" glyph-name="Ntilde" horiz-adv-x="740" unicode="Ñ"/>
<glyph d="M220 31q-83 46 -129 129t-46 190t46 190t129 129t190 46t190 -46t129 -129t46 -190t-46 -190t-129 -129t-190 -46t-190 46zM520.5 85.5q34.5 82.5 34.5 264.5t-34.5 264.5t-110.5 82.5t-110.5 -82.5t-34.5 -264.5t34.5 -264.5t110.5 -82.5t110.5 82.5zM405 745l-223 200 h200l30 -200h-7z" glyph-name="Ograve" unicode="Ò"/>
<glyph d="M220 31q-83 46 -129 129t-46 190t46 190t129 129t190 46t190 -46t129 -129t46 -190t-46 -190t-129 -129t-190 -46t-190 46zM520.5 85.5q34.5 82.5 34.5 264.5t-34.5 264.5t-110.5 82.5t-110.5 -82.5t-34.5 -264.5t34.5 -264.5t110.5 -82.5t110.5 82.5zM438 945h200 l-223 -200h-7z" glyph-name="Oacute" unicode="Ó"/>
<glyph d="M220 31q-83 46 -129 129t-46 190t46 190t129 129t190 46t190 -46t129 -129t46 -190t-46 -190t-129 -129t-190 -46t-190 46zM520.5 85.5q34.5 82.5 34.5 264.5t-34.5 264.5t-110.5 82.5t-110.5 -82.5t-34.5 -264.5t34.5 -264.5t110.5 -82.5t110.5 82.5zM385 785l-70 99 l-70 -99h-22l114 160h146l114 -160h-212z" glyph-name="Ocircumflex" unicode="Ô"/>
<glyph d="M220 31q-83 46 -129 129t-46 190t46 190t129 129t190 46t190 -46t129 -129t46 -190t-46 -190t-129 -129t-190 -46t-190 46zM520.5 85.5q34.5 82.5 34.5 264.5t-34.5 264.5t-110.5 82.5t-110.5 -82.5t-34.5 -264.5t34.5 -264.5t110.5 -82.5t110.5 82.5zM254.5 906.5 q31.5 39.5 86.5 39.5q31 0 60 -6t64 -16q22 -6 43 -10.5t36 -4.5q18 0 28.5 8t10.5 29h14q0 -73 -31.5 -112.5t-86.5 -39.5q-31 0 -60 6t-64 16q-22 6 -43 10.5t-36 4.5q-18 0 -28.5 -8t-10.5 -29h-14q0 73 31.5 112.5z" glyph-name="Otilde" unicode="Õ"/>
<glyph d="M220 31q-83 46 -129 129t-46 190t46 190t129 129t190 46t190 -46t129 -129t46 -190t-46 -190t-129 -129t-190 -46t-190 46zM520.5 85.5q34.5 82.5 34.5 264.5t-34.5 264.5t-110.5 82.5t-110.5 -82.5t-34.5 -264.5t34.5 -264.5t110.5 -82.5t110.5 82.5zM601 945l-94 -200 h-9l-88 185l-87 -185h-9l-95 200h382z" glyph-name="Odieresis" unicode="Ö"/>
<glyph d="M117 202l148 148l-148 148l15 15l148 -148l148 148l15 -15l-148 -148l148 -148l-15 -15l-148 148l-148 -148z" glyph-name="multiply" horiz-adv-x="560" unicode="×"/>
<glyph d="M275.5 7q-62.5 22 -110.5 62l-66 -69h-27l79 83q-51 49 -78.5 117t-27.5 150q0 107 46 190t129 129t190 46q72 0 134.5 -22t110.5 -62l66 69h27l-79 -82q51 -49 78.5 -118t27.5 -150q0 -107 -46 -190t-129 -129t-190 -46q-72 0 -134.5 22zM499 654q-33 43 -89 43 q-76 0 -110.5 -82.5t-34.5 -264.5q0 -85 7 -141l273 309q-13 93 -46 136zM520.5 85.5q34.5 82.5 34.5 264.5q0 84 -7 141l-273 -309q13 -93 46 -136t89 -43q76 0 110.5 82.5z" glyph-name="Oslash" unicode="Ø"/>
<glyph d="M225.5 18.5q-62.5 33.5 -96 96t-33.5 146.5l-1 419h-100v20h410v-20h-100v-419q0 -128 39.5 -181.5t116.5 -53.5q46 0 83 32t57.5 88.5t20.5 128.5v405h-100v20h220v-20h-100v-405q0 -138 -71 -214t-199 -76q-84 0 -146.5 33.5zM425 745l-223 200h200l30 -200h-7z" glyph-name="Ugrave" horiz-adv-x="732" unicode="Ù"/>
<glyph d="M225.5 18.5q-62.5 33.5 -96 96t-33.5 146.5l-1 419h-100v20h410v-20h-100v-419q0 -128 39.5 -181.5t116.5 -53.5q46 0 83 32t57.5 88.5t20.5 128.5v405h-100v20h220v-20h-100v-405q0 -138 -71 -214t-199 -76q-84 0 -146.5 33.5zM458 945h200l-223 -200h-7z" glyph-name="Uacute" horiz-adv-x="732" unicode="Ú"/>
<glyph d="M225.5 18.5q-62.5 33.5 -96 96t-33.5 146.5l-1 419h-100v20h410v-20h-100v-419q0 -128 39.5 -181.5t116.5 -53.5q46 0 83 32t57.5 88.5t20.5 128.5v405h-100v20h220v-20h-100v-405q0 -138 -71 -214t-199 -76q-84 0 -146.5 33.5zM405 785l-70 99l-70 -99h-22l114 160h146 l114 -160h-212z" glyph-name="Ucircumflex" horiz-adv-x="732" unicode="Û"/>
<glyph d="M225.5 18.5q-62.5 33.5 -96 96t-33.5 146.5l-1 419h-100v20h410v-20h-100v-419q0 -128 39.5 -181.5t116.5 -53.5q46 0 83 32t57.5 88.5t20.5 128.5v405h-100v20h220v-20h-100v-405q0 -138 -71 -214t-199 -76q-84 0 -146.5 33.5zM621 945l-94 -200h-9l-88 185l-87 -185h-9 l-95 200h382z" glyph-name="Udieresis" horiz-adv-x="732" unicode="Ü"/>
<glyph d="M99 20h120v263l-190 397h-89v20h442v-20h-130l172 -366l174 366h-130v20h241v-20h-90l-190 -401v-259h120v-20h-450v20zM380 945h200l-223 -200h-7z" glyph-name="Yacute" horiz-adv-x="643" unicode="Ý"/>
<glyph d="M105 20v660h-100v20h430v-20h-120v-130h39q143 0 224.5 -53t81.5 -147t-81.5 -147t-224.5 -53h-39v-130h120v-20h-430v20h100zM421.5 216q28.5 46 28.5 134t-28.5 134t-83.5 46h-23v-360h23q55 0 83.5 46z" glyph-name="Thorn" horiz-adv-x="710" unicode="Þ"/>
<glyph d="M95 -180v660h-90v20h90v16q0 105 62.5 164.5t167.5 59.5q39 0 75.5 -4.5t92.5 -13.5q8 -1 42.5 -6.5t55.5 -5.5v40h20v-363h-13q-3 19 -27.5 40t-59.5 35t-67 14q-17 0 -28.5 -10t-11.5 -24q0 -28 31.5 -53.5t112.5 -55.5q82 -30 124.5 -59.5t57 -61t14.5 -75.5 q0 -73 -41.5 -110.5t-116.5 -37.5q-14 0 -46.5 2t-53.5 3q-86 6 -117 6v-56h-17v266h14v-15q0 -36 42.5 -78t105.5 -71t120 -29q24 0 37.5 10t13.5 28q0 20 -19 37.5t-82 40.5q-93 33 -144 65.5t-73 71.5t-22 95q0 68 49.5 106.5t137.5 38.5q32 0 60 -7v12q0 24 -71.5 67 t-160.5 77.5t-131 34.5q-48 0 -48 -36q0 -21 7.5 -37t23.5 -40q27 -40 42.5 -81t15.5 -111v-569h130v-20h-395v20h90z" glyph-name="germandbls" horiz-adv-x="774" unicode="ß"/>
<glyph d="M53.5 25q-42.5 35 -42.5 93q0 123 178 140q66 6 103.5 20t54.5 40t17 68q0 60 -15 85t-46 25q-34 0 -81.5 -32.5t-82.5 -78t-35 -79.5v-16h-18v266h20v-56q62 1 107 6q52 4 77 4q112 0 173 -56t61 -158v-276h80v-20h-241v105q-23 -60 -70.5 -87.5t-120.5 -27.5 q-76 0 -118.5 35zM305 51.5q25 21.5 41.5 63t16.5 97.5v100q-24 -45 -85 -58q-92 -20 -92 -124q0 -44 19.5 -72t48.5 -28q26 0 51 21.5zM281 545l-223 200h200l30 -200h-7z" glyph-name="agrave" horiz-adv-x="609" unicode="à"/>
<glyph d="M53.5 25q-42.5 35 -42.5 93q0 123 178 140q66 6 103.5 20t54.5 40t17 68q0 60 -15 85t-46 25q-34 0 -81.5 -32.5t-82.5 -78t-35 -79.5v-16h-18v266h20v-56q62 1 107 6q52 4 77 4q112 0 173 -56t61 -158v-276h80v-20h-241v105q-23 -60 -70.5 -87.5t-120.5 -27.5 q-76 0 -118.5 35zM305 51.5q25 21.5 41.5 63t16.5 97.5v100q-24 -45 -85 -58q-92 -20 -92 -124q0 -44 19.5 -72t48.5 -28q26 0 51 21.5zM314 745h200l-223 -200h-7z" glyph-name="aacute" horiz-adv-x="609" unicode="á"/>
<glyph d="M53.5 25q-42.5 35 -42.5 93q0 123 178 140q66 6 103.5 20t54.5 40t17 68q0 60 -15 85t-46 25q-34 0 -81.5 -32.5t-82.5 -78t-35 -79.5v-16h-18v266h20v-56q62 1 107 6q52 4 77 4q112 0 173 -56t61 -158v-276h80v-20h-241v105q-23 -60 -70.5 -87.5t-120.5 -27.5 q-76 0 -118.5 35zM305 51.5q25 21.5 41.5 63t16.5 97.5v100q-24 -45 -85 -58q-92 -20 -92 -124q0 -44 19.5 -72t48.5 -28q26 0 51 21.5zM261 585l-70 99l-70 -99h-22l114 160h146l114 -160h-212z" glyph-name="acircumflex" horiz-adv-x="609" unicode="â"/>
<glyph d="M53.5 25q-42.5 35 -42.5 93q0 123 178 140q66 6 103.5 20t54.5 40t17 68q0 60 -15 85t-46 25q-34 0 -81.5 -32.5t-82.5 -78t-35 -79.5v-16h-18v266h20v-56q62 1 107 6q52 4 77 4q112 0 173 -56t61 -158v-276h80v-20h-241v105q-23 -60 -70.5 -87.5t-120.5 -27.5 q-76 0 -118.5 35zM305 51.5q25 21.5 41.5 63t16.5 97.5v100q-24 -45 -85 -58q-92 -20 -92 -124q0 -44 19.5 -72t48.5 -28q26 0 51 21.5zM130.5 706.5q31.5 39.5 86.5 39.5q31 0 60 -6t64 -16q22 -6 43 -10.5t36 -4.5q18 0 28.5 8t10.5 29h14q0 -73 -31.5 -112.5t-86.5 -39.5 q-31 0 -60 6t-64 16q-22 6 -43 10.5t-36 4.5q-18 0 -28.5 -8t-10.5 -29h-14q0 73 31.5 112.5z" glyph-name="atilde" horiz-adv-x="609" unicode="ã"/>
<glyph d="M53.5 25q-42.5 35 -42.5 93q0 123 178 140q66 6 103.5 20t54.5 40t17 68q0 60 -15 85t-46 25q-34 0 -81.5 -32.5t-82.5 -78t-35 -79.5v-16h-18v266h20v-56q62 1 107 6q52 4 77 4q112 0 173 -56t61 -158v-276h80v-20h-241v105q-23 -60 -70.5 -87.5t-120.5 -27.5 q-76 0 -118.5 35zM305 51.5q25 21.5 41.5 63t16.5 97.5v100q-24 -45 -85 -58q-92 -20 -92 -124q0 -44 19.5 -72t48.5 -28q26 0 51 21.5zM477 745l-94 -200h-9l-88 185l-87 -185h-9l-95 200h382z" glyph-name="adieresis" horiz-adv-x="609" unicode="ä"/>
<glyph d="M53.5 25q-42.5 35 -42.5 93q0 123 178 140q66 6 103.5 20t54.5 40t17 68q0 60 -15 85t-46 25q-34 0 -81.5 -32.5t-82.5 -78t-35 -79.5v-16h-18v266h20v-56q62 1 107 6q52 4 77 4q112 0 173 -56t61 -158v-276h80v-20h-241v105q-23 -60 -70.5 -87.5t-120.5 -27.5 q-76 0 -118.5 35zM305 51.5q25 21.5 41.5 63t16.5 97.5v100q-24 -45 -85 -58q-92 -20 -92 -124q0 -44 19.5 -72t48.5 -28q26 0 51 21.5zM213 559.5q-33 19.5 -52.5 53t-19.5 72.5t19.5 72.5t52.5 53t73 19.5q39 0 72.5 -19.5t53 -53t19.5 -72.5t-19.5 -72.5t-53 -53 t-72.5 -19.5q-40 0 -73 19.5zM366.5 662q27.5 2 38.5 7.5t11 15.5t-11 15.5t-38.5 7.5t-80.5 2t-80.5 -2t-38.5 -7.5t-11 -15.5t11 -15.5t38.5 -7.5t80.5 -2t80.5 2z" glyph-name="aring" horiz-adv-x="609" unicode="å"/>
<glyph d="M723 -5q-52 -5 -84 -5q-87 0 -153 38t-98 105q-22 -81 -78 -112t-112 -31q-94 0 -140.5 34.5t-46.5 93.5q0 123 178 140q66 6 103.5 20t54.5 40t17 68q0 60 -15 85t-46 25q-34 0 -81.5 -32.5t-82.5 -78t-35 -79.5v-16h-18v266h20v-56q62 1 107 6q52 4 77 4q106 0 164 -55 q69 55 170 55q80 0 139.5 -32t91 -90.5t31.5 -135.5v-12h-352q1 -116 26 -176t66 -60q26 0 69.5 30.5t76.5 71t33 68.5v12h18v-242h-20v56q-30 -1 -80 -5zM683.5 439.5q-19.5 55.5 -59.5 55.5q-45 0 -67 -58t-23 -177h170q-1 124 -20.5 179.5zM305 45.5q25 15.5 41.5 46 t16.5 72.5v148q-24 -45 -85 -58q-92 -20 -92 -124q0 -44 19.5 -72t48.5 -28q26 0 51 15.5z" glyph-name="ae" horiz-adv-x="926" unicode="æ"/>
<glyph d="M425 -5q-14 -1 -44.5 -3t-53.5 -2q-84 0 -149.5 33t-101.5 92t-36 135t36 135t101.5 92t149.5 33q36 0 84 -5q45 -4 71 -5v56h20l-1 -266h-18v16q0 34 -28.5 79t-67 77.5t-65.5 32.5q-48 0 -72.5 -59.5t-24.5 -185.5t24.5 -185.5t72.5 -59.5q31 0 73 32t73.5 77t34.5 80 v16h18v-266h-20v56q-23 -1 -76 -5zM125 -245l223 200h7l-30 -200h-200z" glyph-name="ccedilla" horiz-adv-x="589" unicode="ç"/>
<glyph d="M428 -5q-14 -1 -44.5 -3t-53.5 -2q-85 0 -151 33t-102.5 92t-36.5 135t34.5 135t97 92t143.5 33q83 0 143.5 -32t93 -90.5t35.5 -135.5v-12h-362q1 -116 26 -176t66 -60q31 0 76 30.5t79 71t34 68.5v12h18v-242h-20v56q-23 -1 -76 -5zM382 439.5q-22 55.5 -67 55.5 t-67 -58t-23 -177h180q-1 124 -23 179.5zM306 545l-223 200h200l30 -200h-7z" glyph-name="egrave" horiz-adv-x="627" unicode="è"/>
<glyph d="M428 -5q-14 -1 -44.5 -3t-53.5 -2q-85 0 -151 33t-102.5 92t-36.5 135t34.5 135t97 92t143.5 33q83 0 143.5 -32t93 -90.5t35.5 -135.5v-12h-362q1 -116 26 -176t66 -60q31 0 76 30.5t79 71t34 68.5v12h18v-242h-20v56q-23 -1 -76 -5zM382 439.5q-22 55.5 -67 55.5 t-67 -58t-23 -177h180q-1 124 -23 179.5zM339 745h200l-223 -200h-7z" glyph-name="eacute" horiz-adv-x="627" unicode="é"/>
<glyph d="M428 -5q-14 -1 -44.5 -3t-53.5 -2q-85 0 -151 33t-102.5 92t-36.5 135t34.5 135t97 92t143.5 33q83 0 143.5 -32t93 -90.5t35.5 -135.5v-12h-362q1 -116 26 -176t66 -60q31 0 76 30.5t79 71t34 68.5v12h18v-242h-20v56q-23 -1 -76 -5zM382 439.5q-22 55.5 -67 55.5 t-67 -58t-23 -177h180q-1 124 -23 179.5zM286 585l-70 99l-70 -99h-22l114 160h146l114 -160h-212z" glyph-name="ecircumflex" horiz-adv-x="627" unicode="ê"/>
<glyph d="M428 -5q-14 -1 -44.5 -3t-53.5 -2q-85 0 -151 33t-102.5 92t-36.5 135t34.5 135t97 92t143.5 33q83 0 143.5 -32t93 -90.5t35.5 -135.5v-12h-362q1 -116 26 -176t66 -60q31 0 76 30.5t79 71t34 68.5v12h18v-242h-20v56q-23 -1 -76 -5zM382 439.5q-22 55.5 -67 55.5 t-67 -58t-23 -177h180q-1 124 -23 179.5zM502 745l-94 -200h-9l-88 185l-87 -185h-9l-95 200h382z" glyph-name="edieresis" horiz-adv-x="627" unicode="ë"/>
<glyph d="M5 20h90v460h-90v20h265v-480h90v-20h-355v20zM174 545l-223 200h200l30 -200h-7z" glyph-name="igrave" horiz-adv-x="365" unicode="ì"/>
<glyph d="M5 20h90v460h-90v20h265v-480h90v-20h-355v20zM207 745h200l-223 -200h-7z" glyph-name="iacute" horiz-adv-x="365" unicode="í"/>
<glyph d="M5 20h90v460h-90v20h265v-480h90v-20h-355v20zM154 585l-70 99l-70 -99h-22l114 160h146l114 -160h-212z" glyph-name="icircumflex" horiz-adv-x="365" unicode="î"/>
<glyph d="M5 20h90v460h-90v20h265v-480h90v-20h-355v20zM370 745l-94 -200h-9l-88 185l-87 -185h-9l-95 200h382z" glyph-name="idieresis" horiz-adv-x="365" unicode="ï"/>
<glyph d="M551 427.5q37 -44.5 53 -85t16 -92.5q0 -76 -36.5 -135t-102.5 -92t-151 -33t-151 33t-102.5 92t-36.5 135t36.5 135t102.5 92t151 33q38 0 64.5 -6t52.5 -18q-26 50 -57 80l-24 24h-206v20h185l-102 100h28l102 -100h167v-20h-146l47 -46q73 -72 110 -116.5zM402.5 63.5 q22.5 58.5 22.5 186.5t-22.5 186.5t-72.5 58.5t-72.5 -58.5t-22.5 -186.5t22.5 -186.5t72.5 -58.5t72.5 58.5z" glyph-name="eth" horiz-adv-x="660" unicode="ð"/>
<glyph d="M95 20v460h-90v20h265v-96q37 106 154 106q82 0 126.5 -58t44.5 -166v-266h85v-20h-332v20h72v266q0 96 -15 140t-49 44q-40 0 -63 -56.5t-23 -153.5v-240h68v-20h-333v20h90zM174.5 706.5q31.5 39.5 86.5 39.5q31 0 60 -6t64 -16q22 -6 43 -10.5t36 -4.5q18 0 28.5 8 t10.5 29h14q0 -73 -31.5 -112.5t-86.5 -39.5q-31 0 -60 6t-64 16q-22 6 -43 10.5t-36 4.5q-18 0 -28.5 -8t-10.5 -29h-14q0 73 31.5 112.5z" glyph-name="ntilde" horiz-adv-x="685" unicode="ñ"/>
<glyph d="M179 23q-66 33 -102.5 92t-36.5 135t36.5 135t102.5 92t151 33t151 -33t102.5 -92t36.5 -135t-36.5 -135t-102.5 -92t-151 -33t-151 33zM410 63.5q25 58.5 25 186.5t-25 186.5t-80 58.5t-80 -58.5t-25 -186.5t25 -186.5t80 -58.5t80 58.5zM325 545l-223 200h200l30 -200 h-7z" glyph-name="ograve" horiz-adv-x="660" unicode="ò"/>
<glyph d="M179 23q-66 33 -102.5 92t-36.5 135t36.5 135t102.5 92t151 33t151 -33t102.5 -92t36.5 -135t-36.5 -135t-102.5 -92t-151 -33t-151 33zM410 63.5q25 58.5 25 186.5t-25 186.5t-80 58.5t-80 -58.5t-25 -186.5t25 -186.5t80 -58.5t80 58.5zM358 745h200l-223 -200h-7z" glyph-name="oacute" horiz-adv-x="660" unicode="ó"/>
<glyph d="M179 23q-66 33 -102.5 92t-36.5 135t36.5 135t102.5 92t151 33t151 -33t102.5 -92t36.5 -135t-36.5 -135t-102.5 -92t-151 -33t-151 33zM410 63.5q25 58.5 25 186.5t-25 186.5t-80 58.5t-80 -58.5t-25 -186.5t25 -186.5t80 -58.5t80 58.5zM305 585l-70 99l-70 -99h-22 l114 160h146l114 -160h-212z" glyph-name="ocircumflex" horiz-adv-x="660" unicode="ô"/>
<glyph d="M179 23q-66 33 -102.5 92t-36.5 135t36.5 135t102.5 92t151 33t151 -33t102.5 -92t36.5 -135t-36.5 -135t-102.5 -92t-151 -33t-151 33zM410 63.5q25 58.5 25 186.5t-25 186.5t-80 58.5t-80 -58.5t-25 -186.5t25 -186.5t80 -58.5t80 58.5zM174.5 706.5 q31.5 39.5 86.5 39.5q31 0 60 -6t64 -16q22 -6 43 -10.5t36 -4.5q18 0 28.5 8t10.5 29h14q0 -73 -31.5 -112.5t-86.5 -39.5q-31 0 -60 6t-64 16q-22 6 -43 10.5t-36 4.5q-18 0 -28.5 -8t-10.5 -29h-14q0 73 31.5 112.5z" glyph-name="otilde" horiz-adv-x="660" unicode="õ"/>
<glyph d="M179 23q-66 33 -102.5 92t-36.5 135t36.5 135t102.5 92t151 33t151 -33t102.5 -92t36.5 -135t-36.5 -135t-102.5 -92t-151 -33t-151 33zM410 63.5q25 58.5 25 186.5t-25 186.5t-80 58.5t-80 -58.5t-25 -186.5t25 -186.5t80 -58.5t80 58.5zM521 745l-94 -200h-9l-88 185 l-87 -185h-9l-95 200h382z" glyph-name="odieresis" horiz-adv-x="660" unicode="ö"/>
<glyph d="M258.5 498.5q-8.5 8.5 -8.5 21.5t8.5 21.5t21.5 8.5t21.5 -8.5t8.5 -21.5t-8.5 -21.5t-21.5 -8.5t-21.5 8.5zM80 360h400v-20h-400v20zM258.5 158.5q-8.5 8.5 -8.5 21.5t8.5 21.5t21.5 8.5t21.5 -8.5t8.5 -21.5t-8.5 -21.5t-21.5 -8.5t-21.5 8.5z" glyph-name="divide" horiz-adv-x="560" unicode="÷"/>
<glyph d="M145 43l-42 -43h-27l53 55q-43 35 -66 85t-23 110q0 76 36.5 135t102.5 92t151 33q110 0 185 -53l42 43h27l-53 -55q43 -35 66 -85t23 -110q0 -76 -36.5 -135t-102.5 -92t-151 -33q-110 0 -185 53zM394.5 464q-23.5 31 -64.5 31q-55 0 -80 -58.5t-25 -186.5q0 -55 4 -91 l199 207q-10 67 -33.5 98zM410 63.5q25 58.5 25 186.5q0 55 -4 91l-199 -207q10 -67 33.5 -98t64.5 -31q55 0 80 58.5z" glyph-name="oslash" horiz-adv-x="660" unicode="ø"/>
<glyph d="M134.5 48q-44.5 58 -44.5 166v266h-85v20h260v-286q0 -96 15 -140t49 -44q40 0 63 56.5t23 153.5v240h-90v20h355v-20h-90v-460h90v-20h-265v96q-37 -106 -154 -106q-82 0 -126.5 58zM323 545l-223 200h200l30 -200h-7z" glyph-name="ugrave" horiz-adv-x="685" unicode="ù"/>
<glyph d="M134.5 48q-44.5 58 -44.5 166v266h-85v20h260v-286q0 -96 15 -140t49 -44q40 0 63 56.5t23 153.5v240h-90v20h355v-20h-90v-460h90v-20h-265v96q-37 -106 -154 -106q-82 0 -126.5 58zM356 745h200l-223 -200h-7z" glyph-name="uacute" horiz-adv-x="685" unicode="ú"/>
<glyph d="M134.5 48q-44.5 58 -44.5 166v266h-85v20h260v-286q0 -96 15 -140t49 -44q40 0 63 56.5t23 153.5v240h-90v20h355v-20h-90v-460h90v-20h-265v96q-37 -106 -154 -106q-82 0 -126.5 58zM303 585l-70 99l-70 -99h-22l114 160h146l114 -160h-212z" glyph-name="ucircumflex" horiz-adv-x="685" unicode="û"/>
<glyph d="M134.5 48q-44.5 58 -44.5 166v266h-85v20h260v-286q0 -96 15 -140t49 -44q40 0 63 56.5t23 153.5v240h-90v20h355v-20h-90v-460h90v-20h-265v96q-37 -106 -154 -106q-82 0 -126.5 58zM519 745l-94 -200h-9l-88 185l-87 -185h-9l-95 200h382z" glyph-name="udieresis" horiz-adv-x="685" unicode="ü"/>
<glyph d="M62 70v-26q0 -40 35.5 -94t84.5 -93t86 -39q13 0 20.5 9t7.5 23v1q0 12 -11 37.5t-55 117.5l-54 111l-174 363h-64v20h341v-20h-78l121 -289q19 -46 28 -80q6 30 18 66l104 303h-120v20h219v-20h-78l-109 -317q-12 -37 -17.5 -67t-5.5 -67v-10q0 -116 -37 -172.5 t-106 -56.5q-38 0 -108 6l-46 3v-56h-20v327h18zM285 745h200l-223 -200h-7z" glyph-name="yacute" horiz-adv-x="506" unicode="ý"/>
<glyph d="M95 -180v860h-90v20h265v-294q42 104 153 104q61 0 110 -31.5t77 -90.5t28 -138t-28 -138t-77 -90.5t-110 -31.5q-111 0 -153 104v-274h130v-20h-395v20h90zM431.5 75.5q21.5 51.5 21.5 174.5t-21.5 174.5t-63.5 51.5q-31 0 -55.5 -30t-37.5 -81.5t-13 -114.5t13 -114.5 t37.5 -81.5t55.5 -30q42 0 63.5 51.5z" glyph-name="thorn" horiz-adv-x="678" unicode="þ"/>
<glyph d="M5 20h90v460h-90v20h265v-480h90v-20h-355v20z" glyph-name="dotlessi" horiz-adv-x="365" unicode="ı"/>
<glyph d="M-7 -20v-11q0 -31 32.5 -68t73.5 -63.5t61 -26.5q15 0 22.5 7.5t7.5 20.5q0 20 -8 37t-25 44q-29 46 -45.5 88.5t-16.5 112.5v359h-90v20h265v-496q0 -102 -35 -158t-99 -56q-18 0 -41 2t-33 3q-40 5 -69 5v-56h-20v236h20z" glyph-name="uni0237" horiz-adv-x="355" unicode="ȷ"/>
<glyph d="M-305 545l-223 200h200l30 -200h-7z" glyph-name="gravecomb" horiz-adv-x="0" unicode="̀"/>
<glyph d="M-272 745h200l-223 -200h-7z" glyph-name="acutecomb" horiz-adv-x="0" unicode="́"/>
<glyph d="M-325 585l-70 99l-70 -99h-22l114 160h146l114 -160h-212z" glyph-name="uni0302" horiz-adv-x="0" unicode="̂"/>
<glyph d="M-455.5 706.5q31.5 39.5 86.5 39.5q31 0 60 -6t64 -16q22 -6 43 -10.5t36 -4.5q18 0 28.5 8t10.5 29h14q0 -73 -31.5 -112.5t-86.5 -39.5q-31 0 -60 6t-64 16q-22 6 -43 10.5t-36 4.5q-18 0 -28.5 -8t-10.5 -29h-14q0 73 31.5 112.5z" glyph-name="tildecomb" horiz-adv-x="0" unicode="̃"/>
<glyph d="M-410 745h220l-105 -200h-10z" glyph-name="uni0307" horiz-adv-x="0" unicode="̇"/>
<glyph d="M-109 745l-94 -200h-9l-88 185l-87 -185h-9l-95 200h382z" glyph-name="uni0308" horiz-adv-x="0" unicode="̈"/>
<glyph d="M-373 559.5q-33 19.5 -52.5 53t-19.5 72.5t19.5 72.5t52.5 53t73 19.5q39 0 72.5 -19.5t53 -53t19.5 -72.5t-19.5 -72.5t-53 -53t-72.5 -19.5q-40 0 -73 19.5zM-219.5 662q27.5 2 38.5 7.5t11 15.5t-11 15.5t-38.5 7.5t-80.5 2t-80.5 -2t-38.5 -7.5t-11 -15.5t11 -15.5 t38.5 -7.5t80.5 -2t80.5 2z" glyph-name="uni030A" horiz-adv-x="0" unicode="̊"/>
<glyph d="M-478 -245l223 200h7l-30 -200h-200z" glyph-name="uni0327" horiz-adv-x="0" unicode="̧"/>
<glyph d="M80 310h380v-20h-380v20z" glyph-name="endash" horiz-adv-x="540" unicode="–"/>
<glyph d="M108 350l109 -200h-21l-106 194v12l106 194h21zM268 350l109 -200h-21l-106 194v12l106 194h21z" glyph-name="guillemotleft.case" horiz-adv-x="467"/>
<glyph d="M359 350l-109 200h21l106 -194v-12l-106 -194h-21zM199 350l-109 200h21l106 -194v-12l-106 -194h-21z" glyph-name="guillemotright.case" horiz-adv-x="467"/>
<glyph d="M225 33q-84 48 -132 132t-48 185t48 185t132 132t185 48t185 -48t132 -132t48 -185q0 -111 -56 -198h-249v88q-18 -51 -57 -74t-99 -23q-62 0 -96.5 29.5t-34.5 77.5q0 100 145 114q79 8 110.5 30.5t32.5 74.5q0 43 -13 63t-38 20q-28 0 -65.5 -23.5t-64.5 -58t-27 -67.5 v-13h-19v217h20v-46q28 0 88 5q40 4 58 4q94 0 145 -46t51 -129v-225h101q48 83 48 180q0 96 -45.5 175t-124.5 124.5t-175 45.5t-175 -45.5t-124.5 -124.5t-45.5 -175t45.5 -175t124.5 -124.5t175 -45.5q71 0 134 25.5t110 71.5l14 -13q-50 -49 -116.5 -76.5t-141.5 -27.5 q-101 0 -185 48zM422.5 197.5q20.5 17.5 34 51t13.5 78.5v77q-21 -37 -69 -47q-75 -17 -75 -97q0 -35 16 -57.5t39 -22.5q21 0 41.5 17.5z" glyph-name="at.case"/>
</font>
</defs>
</svg>
