<?xml version="1.0" encoding="UTF-8"?>
<!DOCTYPE svg  PUBLIC '-//W3C//DTD SVG 1.1//EN'  'http://www.w3.org/Graphics/SVG/1.1/DTD/svg11.dtd'>
<svg version="1.1" xmlns="http://www.w3.org/2000/svg">
<defs>
<font id="KyivTypeSerif-Thin" horiz-adv-x="820">
<font-face font-family="KyivType Serif Thin" font-weight="100" ascent="800" bbox="-485 -245 1057 1025" cap-height="700" descent="-200" panose-1="0 0 2 0 0 0 0 0 0 0" underline-position="-100" underline-thickness="50" unicode-range="U+0020-2013" units-per-em="1000" x-height="500"/>
<missing-glyph/>
<glyph glyph-name="space" horiz-adv-x="250" unicode=" "/>
<glyph d="M150 680h-120v20h260v-20h-120l-1 -500h-18zM142.5 2.5q-7.5 7.5 -7.5 17.5q0 11 7.5 18t17.5 7q11 0 18 -7t7 -18q0 -10 -7 -17.5t-18 -7.5q-10 0 -17.5 7.5z" glyph-name="exclam" horiz-adv-x="320" unicode="!"/>
<glyph d="M85 700l-10 -160h-10l-10 160h30zM235 700l-10 -160h-10l-10 160h30z" glyph-name="quotedbl" horiz-adv-x="290" unicode='"'/>
<glyph d="M460 480v-260h150v-20h-150v-215h-20v215h-180v-215h-20v215h-150v20h150v260h-150v20h150v215h20v-215h180v215h20v-215h150v-20h-150zM440 480h-180v-260h180v260z" glyph-name="numbersign" horiz-adv-x="700" unicode="#"/>
<glyph d="M225 25.5q-61 34.5 -97 90.5v-136h-20v290h20v-78q0 -49 36 -92t97.5 -69t132.5 -26q68 0 120.5 20t81.5 56.5t29 84.5q0 49 -32.5 80t-79.5 49t-129 41q-90 25 -141.5 45.5t-87 58t-35.5 97.5q0 82 65.5 130t176.5 48h3v115h20v-116q71 -4 131 -35.5t94 -79.5v145h20 v-284h-20v72q0 40 -35 78t-92.5 61.5t-120.5 23.5q-103 0 -162.5 -42.5t-59.5 -115.5q0 -53 32 -86t81.5 -52.5t134.5 -42.5q83 -22 135.5 -43t87 -56.5t34.5 -90.5q0 -53 -31.5 -94.5t-88.5 -64t-131 -22.5h-8v-115h-20v116q-80 5 -141 39.5z" glyph-name="dollar" horiz-adv-x="700" unicode="$"/>
<glyph d="M119 406q-37 21 -58 58t-21 81t21 81t58 58t81 21t81 -21t58 -58t21 -81t-21 -81t-58 -58t-81 -21t-81 21zM580 700l-398 -700h-22l398 700h22zM271 423.5q32 18.5 50.5 50.5t18.5 71t-18.5 71t-50.5 50.5t-71 18.5t-71 -18.5t-50.5 -50.5t-18.5 -71t18.5 -71t50.5 -50.5 t71 -18.5t71 18.5zM459 16q-37 21 -58 58t-21 81t21 81t58 58t81 21t81 -21t58 -58t21 -81t-21 -81t-58 -58t-81 -21t-81 21zM611 33.5q32 18.5 50.5 50.5t18.5 71t-18.5 71t-50.5 50.5t-71 18.5t-71 -18.5t-50.5 -50.5t-18.5 -71t18.5 -71t50.5 -50.5t71 -18.5t71 18.5z " glyph-name="percent" horiz-adv-x="720" unicode="%"/>
<glyph d="M155 12q-55 27 -85 76t-30 113q0 61 30 107t85 71.5t128 25.5h8l-218 267v28h432v70h20v-240h-20v148q0 2 -2 2h-411l441 -541q55 82 70 201h-133v20h275v-20h-120q-3 0 -3 -3q-16 -123 -76 -213l85 -104h114v-20h-124l-87 107q-45 -59 -109.5 -90.5t-141.5 -31.5 q-73 0 -128 27zM417.5 35q60.5 30 103.5 87l-214 263h-24q-102 0 -162.5 -50t-60.5 -134q0 -89 60.5 -142.5t162.5 -53.5q74 0 134.5 30z" glyph-name="ampersand" horiz-adv-x="740" unicode="&amp;"/>
<glyph d="M85 700l-10 -160h-10l-10 160h30z" glyph-name="quotesingle" horiz-adv-x="140" unicode="'"/>
<glyph d="M230.5 -57.5q-55.5 57.5 -85.5 163t-30 244.5t30 244.5t85.5 163t129.5 57.5v-20q-67 0 -118 -55t-79 -156t-28 -234t28 -234t79 -156t118 -55v-20q-74 0 -129.5 57.5z" glyph-name="parenleft" horiz-adv-x="500" unicode="("/>
<glyph d="M269.5 757.5q55.5 -57.5 85.5 -163t30 -244.5t-30 -244.5t-85.5 -163t-129.5 -57.5v20q67 0 118 55t79 156t28 234t-28 234t-79 156t-118 55v20q74 0 129.5 -57.5z" glyph-name="parenright" horiz-adv-x="500" unicode=")"/>
<glyph d="M212 574h119l19 -69l-68 -20l-78 69l9 -100h-37l9 100l-77 -69l-69 20l19 69h119l-147 45v69l64 17l88 -105l-50 141l63 53l63 -53l-50 -141l88 105l64 -17v-69z" glyph-name="asterisk" horiz-adv-x="390" unicode="*"/>
<glyph d="M480 340h-190v-190h-20v190h-190v20h190v190h20v-190h190v-20z" glyph-name="plus" horiz-adv-x="560" unicode="+"/>
<glyph d="M97 -46.5q12 23.5 16 42.5h-4q-10 0 -17 7t-7 17q0 11 7.5 18t17.5 7q11 0 18 -7t7 -20q0 -23 -15 -57.5t-32 -50.5h-20q17 20 29 43.5z" glyph-name="comma" horiz-adv-x="220" unicode=","/>
<glyph d="M80 310h240v-20h-240v20z" glyph-name="hyphen" horiz-adv-x="400" unicode="-"/>
<glyph d="M92.5 2.5q-7.5 7.5 -7.5 17.5q0 11 7.5 18t17.5 7q11 0 18 -7t7 -18q0 -10 -7 -17.5t-18 -7.5q-10 0 -17.5 7.5z" glyph-name="period" horiz-adv-x="220" unicode="."/>
<glyph d="M408 700l-338 -700h-20l338 700h20z" glyph-name="slash" horiz-adv-x="458" unicode="/"/>
<glyph d="M201 32q-66 47 -103.5 130.5t-37.5 187.5t37.5 187.5t103.5 130.5t149 47t149 -47t103.5 -130.5t37.5 -187.5t-37.5 -187.5t-103.5 -130.5t-149 -47t-149 47zM488.5 49.5q61.5 44.5 96.5 123t35 177.5t-35 177.5t-96.5 123t-138.5 44.5t-138.5 -44.5t-96.5 -123 t-35 -177.5t35 -177.5t96.5 -123t138.5 -44.5t138.5 44.5z" glyph-name="zero" horiz-adv-x="700" unicode="0"/>
<glyph d="M12 20h178v653l-160 -114v24l164 117h16v-680h156v-20h-354v20z" glyph-name="one" horiz-adv-x="355" unicode="1"/>
<glyph d="M49 0v21l325 227q83 58 128 117q-35 -33 -86 -51.5t-113 -18.5q-75 0 -135 27t-94 74.5t-34 107.5t34 108t94 75.5t135 27.5t135 -27t94 -75t34 -109q0 -76 -49 -145.5t-131 -126.5l-303 -212h445q2 0 2 2v138h20v-230h-20v70h-481zM428 339.5q55 24.5 86.5 67.5t31.5 97 q0 55 -31 98.5t-86.5 68t-125.5 24.5t-125 -24.5t-86.5 -68t-31.5 -98.5q0 -54 31.5 -97t86.5 -67.5t125 -24.5t125 24.5z" glyph-name="two" horiz-adv-x="600" unicode="2"/>
<glyph d="M56 270v-80q0 -47 31.5 -90t84 -69t112.5 -26q64 0 114.5 25t79 69t28.5 99q0 53 -27 96.5t-74 68t-105 24.5q-34 0 -66.5 -7t-49.5 -21l-10 -8l-16 19l333 310h-399q-2 0 -2 -2v-138h-20v230h20v-70h423v-26l-303 -282q42 15 90 15q63 0 114.5 -27.5t81.5 -75t30 -106.5 q0 -62 -32 -110.5t-87 -75.5t-123 -27q-78 0 -136 33.5t-92 91.5v-110h-20v270h20z" glyph-name="three" horiz-adv-x="600" unicode="3"/>
<glyph d="M434 20v179h-419v20l413 481h26v-481h124q2 0 2 2v98h20v-210h-20v90h-126v-179h120v-20h-260v20h120zM434 219v458l-393 -458h393z" glyph-name="four" horiz-adv-x="632" unicode="4"/>
<glyph d="M73 210v-20q0 -47 31 -90t83 -69t112 -26q66 0 119 27.5t83 76t30 108.5t-29 107.5t-81 74.5t-117 27q-76 0 -131.5 -27.5t-77.5 -75.5h-23l58 377h352q2 0 2 2v58h20v-180h-20v100h-338l-49 -322q30 41 84 64.5t123 23.5q79 0 135 -32t84.5 -84.5t28.5 -111.5 q0 -60 -29 -113.5t-86.5 -86.5t-137.5 -33q-77 0 -135.5 34t-90.5 91v-110h-18v210h18z" glyph-name="five" horiz-adv-x="604" unicode="5"/>
<glyph d="M197 30.5q-65 45.5 -101 128t-36 191.5q0 108 36 191t101 128.5t151 45.5q66 0 120 -32.5t82 -85.5v103h20v-200h-20v20q0 45 -28 85.5t-74.5 65t-99.5 24.5q-80 0 -141 -43t-94.5 -121t-33.5 -181q0 -46 6 -91q17 92 86.5 148.5t166.5 56.5q73 0 131 -32t91 -89t33 -128 q0 -63 -33.5 -116t-90 -83.5t-123.5 -30.5q-84 0 -149 45.5zM460 33.5q52 28.5 82.5 76.5t30.5 105q0 66 -30.5 118t-84 81.5t-120.5 29.5q-66 0 -120.5 -29.5t-85.5 -79.5t-31 -108q0 -47 31 -99t87 -87.5t127 -35.5q62 0 114 28.5z" glyph-name="six" horiz-adv-x="620" unicode="6"/>
<glyph d="M236 20l1 9q12 121 56.5 243.5t108 227.5t133.5 180h-463q-2 0 -2 -2v-138h-20v230h20v-70h485v-27q-110 -116 -193 -287.5t-105 -357.5q0 -5 -1 -8h182v-20h-326v20h124z" glyph-name="seven" horiz-adv-x="565" unicode="7"/>
<glyph d="M196.5 10q-61.5 25 -96.5 68.5t-35 98.5q0 66 51.5 114.5t136.5 65.5q-80 17 -128 62.5t-48 107.5q0 52 33.5 94t92 65.5t132.5 23.5t132.5 -23.5t92 -65.5t33.5 -94q0 -62 -48 -107.5t-128 -62.5q85 -17 136.5 -65.5t51.5 -114.5q0 -55 -35 -98.5t-96.5 -68.5 t-138.5 -25t-138.5 25zM457.5 388q54.5 21 85 58t30.5 83t-30.5 82.5t-85 57.5t-122.5 21t-122.5 -21t-85 -57.5t-30.5 -82.5t30.5 -83t85 -58t122.5 -21t122.5 21zM463.5 27q57.5 22 89.5 61.5t32 87.5t-32 87.5t-89.5 61.5t-128.5 22t-128.5 -22t-89.5 -61.5t-32 -87.5 t32 -87.5t89.5 -61.5t128.5 -22t128.5 22z" glyph-name="eight" horiz-adv-x="670" unicode="8"/>
<glyph d="M423 669.5q65 -45.5 101 -128t36 -191.5q0 -108 -36 -191t-101 -128.5t-151 -45.5q-66 0 -120 32.5t-82 85.5v-103h-20v200h20v-20q0 -45 28 -85.5t74.5 -65t99.5 -24.5q80 0 141 43t94.5 121t33.5 181q0 46 -6 91q-17 -92 -86.5 -148.5t-166.5 -56.5q-73 0 -131 32 t-91 89t-33 128q0 63 33.5 116t90 83.5t123.5 30.5q84 0 149 -45.5zM160 666.5q-52 -28.5 -82.5 -76.5t-30.5 -105q0 -66 30.5 -118t84 -81.5t120.5 -29.5q66 0 120.5 29.5t85.5 79.5t31 108q0 47 -31 99t-87 87.5t-127 35.5q-62 0 -114 -28.5z" glyph-name="nine" horiz-adv-x="620" unicode="9"/>
<glyph d="M92.5 2.5q-7.5 7.5 -7.5 17.5q0 11 7.5 18t17.5 7q11 0 18 -7t7 -18q0 -10 -7 -17.5t-18 -7.5q-10 0 -17.5 7.5zM92.5 402.5q-7.5 7.5 -7.5 17.5q0 11 7.5 18t17.5 7q11 0 18 -7t7 -18q0 -10 -7 -17.5t-18 -7.5q-10 0 -17.5 7.5z" glyph-name="colon" horiz-adv-x="220" unicode=":"/>
<glyph d="M97 -46.5q12 23.5 16 42.5h-4q-10 0 -17 7t-7 17q0 11 7.5 18t17.5 7q11 0 18 -7t7 -20q0 -23 -15 -57.5t-32 -50.5h-20q17 20 29 43.5zM92.5 402.5q-7.5 7.5 -7.5 17.5q0 11 7.5 18t17.5 7q11 0 18 -7t7 -18q0 -10 -7 -17.5t-18 -7.5q-10 0 -17.5 7.5z" glyph-name="semicolon" horiz-adv-x="220" unicode=";"/>
<glyph d="M480 527l-375 -177l375 -177v-23l-400 190v20l400 190v-23z" glyph-name="less" horiz-adv-x="560" unicode="&lt;"/>
<glyph d="M80 450h400v-20h-400v20zM80 270h400v-20h-400v20z" glyph-name="equal" horiz-adv-x="560" unicode="="/>
<glyph d="M80 173l375 177l-375 177v23l400 -190v-20l-400 -190v23z" glyph-name="greater" horiz-adv-x="560" unicode="&gt;"/>
<glyph d="M250 210q6 56 33 91.5t75 72.5q35 28 53.5 47t32 47t13.5 65q0 77 -50.5 119.5t-125.5 42.5q-41 0 -84.5 -20.5t-72 -57t-28.5 -82.5v-75h-18v280h18v-136q23 49 73.5 80t111.5 31q54 0 98.5 -21t71 -62t26.5 -99q0 -42 -14 -72t-34.5 -51t-55.5 -49q-34 -27 -55.5 -49 t-35.5 -55t-14 -77h-18q-1 15 0 30zM249.5 2.5q-7.5 7.5 -7.5 17.5q0 11 7.5 18t17.5 7q11 0 18 -7t7 -18q0 -10 -7 -17.5t-18 -7.5q-10 0 -17.5 7.5z" glyph-name="question" horiz-adv-x="577" unicode="?"/>
<glyph d="M225 -119q-84 48 -132 132t-48 185t48 185t132 132t185 48t185 -48t132 -132t48 -185q0 -112 -56 -198h-159v120q-19 -58 -74.5 -93.5t-125.5 -35.5q-65 0 -99 28.5t-34 74.5q0 67 60.5 92t155.5 31q57 4 86.5 13t29.5 33q0 56 -39.5 94.5t-100.5 38.5q-28 0 -59 -12.5 t-52 -33t-21 -41.5v-42h-20v164h20v-77q19 27 55.5 44.5t76.5 17.5q70 0 115.5 -45t45.5 -118v-233h128q47 80 47 178q0 96 -45.5 175t-124.5 124.5t-175 45.5t-175 -45.5t-124.5 -124.5t-45.5 -175t45.5 -175t124.5 -124.5t175 -45.5q70 0 133 25t111 72l14 -13 q-50 -50 -117 -77t-141 -27q-101 0 -185 48zM462.5 34.5q45.5 23.5 71.5 63t26 86.5v39q-14 -11 -41 -16.5t-75 -8.5q-105 -8 -151 -32t-46 -72q0 -40 30.5 -61.5t82.5 -21.5q57 0 102.5 23.5z" glyph-name="at" unicode="@"/>
<glyph d="M-90 20h94l297 655l-2 5h-120v20h133l308 -680h94v-20h-272v20h156l-95 209h-382l-95 -209h156v-20h-272v20zM494 249l-182 403l-182 -403h364z" glyph-name="A" horiz-adv-x="624" unicode="A"/>
<glyph d="M150 20v660h-120v20h324q106 0 166.5 -48t60.5 -132q0 -62 -34 -104t-99 -60v-5q81 -13 123.5 -57.5t42.5 -113.5q0 -84 -60.5 -132t-166.5 -48h-357v20h120zM506.5 402.5q54.5 42.5 54.5 117.5t-54.5 117.5t-152.5 42.5h-184v-320h184q98 0 152.5 42.5zM539.5 62.5 q54.5 42.5 54.5 117.5t-55.5 117.5t-151.5 42.5h-217v-320h217q98 0 152.5 42.5z" glyph-name="B" horiz-adv-x="660" unicode="B"/>
<glyph d="M205.5 32.5q-72.5 47.5 -114 131t-41.5 186.5t41.5 186.5t114 131t161.5 47.5q70 0 131 -31t94 -80v136h20v-280h-20v75q0 40 -32.5 77t-84.5 60t-108 23q-84 0 -152 -45t-106.5 -123.5t-38.5 -176.5t38.5 -176.5t106.5 -123.5t152 -45q64 0 120.5 25t90.5 68t34 92v80 h20v-267h-20v108q-35 -58 -100 -92t-145 -34q-89 0 -161.5 47.5z" glyph-name="C" horiz-adv-x="722" unicode="C"/>
<glyph d="M497 655.5q84 -44.5 131 -124t47 -181.5t-47 -181.5t-131 -124t-192 -44.5h-275v20h120v660h-120v20h275q108 0 192 -44.5zM487.5 61.5q79.5 41.5 123.5 116.5t44 172t-44 172t-123.5 116.5t-182.5 41.5h-135v-660h135q103 0 182.5 41.5z" glyph-name="D" horiz-adv-x="725" unicode="D"/>
<glyph d="M30 0v20h120v660h-120v20h482v70h20v-270h-20v178q0 2 -2 2h-340v-320h193q2 0 2 2v103h18v-230h-18v103q0 2 -2 2h-193v-320h398q2 0 2 2v178h20v-270h-20v70h-540z" glyph-name="E" horiz-adv-x="650" unicode="E"/>
<glyph d="M150 20v660h-120v20h490v70h20v-270h-20v178q0 2 -2 2h-348v-320h193q2 0 2 2v103h18v-230h-18v103q0 2 -2 2h-193v-320h144v-20h-284v20h120z" glyph-name="F" horiz-adv-x="570" unicode="F"/>
<glyph d="M630 108q-37 -57 -104 -90t-159 -33q-89 0 -161.5 47.5t-114 131t-41.5 186.5t41.5 186.5t114 131t161.5 47.5q85 0 149.5 -30.5t98.5 -81.5v137h20v-280h-20v75q0 41 -34 78t-91 59.5t-123 22.5q-84 0 -152 -45t-106.5 -123.5t-38.5 -176.5t38.5 -176.5t106.5 -123.5 t152 -45q74 0 134.5 25t95.5 67.5t35 92.5v150h-236v20h376v-20h-120v-355h-20v121q0 4 -2 2z" glyph-name="G" horiz-adv-x="778" unicode="G"/>
<glyph d="M30 20h120v660h-120v20h284v-20h-144v-320h480v320h-144v20h284v-20h-120v-660h120v-20h-284v20h144v320h-480v-320h144v-20h-284v20z" glyph-name="H" unicode="H"/>
<glyph d="M30 20h120v660h-120v20h260v-20h-120v-660h120v-20h-260v20z" glyph-name="I" horiz-adv-x="320" unicode="I"/>
<glyph d="M37 270v-80q0 -49 21 -91.5t61.5 -68t98.5 -25.5q77 0 123.5 55t46.5 146v474h-180v20h320v-20h-120v-474q0 -64 -24 -114.5t-67 -78.5t-99 -28q-73 0 -117.5 32t-63.5 77v-134h-20v310h20z" glyph-name="J" horiz-adv-x="540" unicode="J"/>
<glyph d="M30 20h120v660h-120v20h260v-20h-120v-320h142l269 320h-132v20h237v-20h-80l-278 -329l309 -331h95v-20h-266v20h144l-299 320h-141v-320h120v-20h-260v20z" glyph-name="K" horiz-adv-x="676" unicode="K"/>
<glyph d="M30 0v20h120v660h-120v20h284v-20h-144v-660h378q2 0 2 2v248h20v-340h-20v70h-520z" glyph-name="L" horiz-adv-x="600" unicode="L"/>
<glyph d="M30 20h120v660h-120v20h152l319 -680l318 680h151v-20h-120v-660h120v-20h-260v20h120v657h-1l-316 -677h-26l-316 677h-1v-657h144v-20h-284v20z" glyph-name="M" horiz-adv-x="1000" unicode="M"/>
<glyph d="M170 648v-628h144v-20h-284v20h120v656l-3 4h-122v20h132l508 -691v671h-144v20h284v-20h-120v-708h-18z" glyph-name="N" horiz-adv-x="830" unicode="N"/>
<glyph d="M226 32.5q-82 47.5 -129 131t-47 186.5t47 186.5t129 131t184 47.5t184 -47.5t129 -131t47 -186.5t-47 -186.5t-129 -131t-184 -47.5t-184 47.5zM583.5 50q77.5 45 122 123.5t44.5 176.5t-44.5 176.5t-122 123.5t-173.5 45t-173.5 -45t-122 -123.5t-44.5 -176.5 t44.5 -176.5t122 -123.5t173.5 -45t173.5 45z" glyph-name="O" unicode="O"/>
<glyph d="M150 20v660h-120v20h297q118 0 185.5 -53.5t67.5 -146.5t-67.5 -146.5t-185.5 -53.5h-157v-280h144v-20h-284v20h120zM498.5 368q61.5 48 61.5 132t-61.5 132t-171.5 48h-157v-360h157q110 0 171.5 48z" glyph-name="P" horiz-adv-x="610" unicode="P"/>
<glyph d="M400 -180v165q-99 2 -179 50.5t-125.5 130.5t-45.5 184q0 103 47 186.5t129 131t184 47.5t184 -47.5t129 -131t47 -186.5q0 -102 -45.5 -184t-125.5 -130.5t-179 -50.5v-165h132v-20h-284v20h132zM583.5 50q77.5 45 122 123.5t44.5 176.5t-44.5 176.5t-122 123.5 t-173.5 45t-173.5 -45t-122 -123.5t-44.5 -176.5t44.5 -176.5t122 -123.5t173.5 -45t173.5 45z" glyph-name="Q" unicode="Q"/>
<glyph d="M150 20v660h-120v20h287q118 0 185.5 -52t67.5 -143q0 -81 -54.5 -131.5t-151.5 -61.5l262 -292h94v-20h-295v20h174l-261 290h-168v-290h120v-20h-260v20h120zM488.5 376.5q61.5 46.5 61.5 128.5t-61.5 128.5t-171.5 46.5h-147v-350h147q110 0 171.5 46.5z" glyph-name="R" horiz-adv-x="640" unicode="R"/>
<glyph d="M86 270v-78q0 -49 36 -92t97.5 -69t132.5 -26q68 0 120.5 20t81.5 56.5t29 84.5q0 49 -32.5 80t-79.5 49t-129 41q-90 25 -141.5 45.5t-87 58t-35.5 97.5q0 82 65.5 130t176.5 48q78 0 144 -32t104 -84v145h20v-284h-20v72q0 40 -35 78t-92.5 61.5t-120.5 23.5 q-103 0 -162.5 -42.5t-59.5 -115.5q0 -53 32 -86t81.5 -52.5t134.5 -42.5q83 -22 135.5 -43t87 -56.5t34.5 -90.5q0 -53 -31.5 -94.5t-88.5 -64t-131 -22.5q-90 0 -158.5 35.5t-107.5 95.5v-136h-20v290h20z" glyph-name="S" horiz-adv-x="680" unicode="S"/>
<glyph d="M310 20v660h-263q-2 0 -2 -2v-178h-20v270h20v-70h550v70h20v-270h-20v178q0 2 -2 2h-263v-660h144v-20h-308v20h144z" glyph-name="T" horiz-adv-x="640" unicode="T"/>
<glyph d="M262.5 23.5q-63.5 38.5 -98 108.5t-34.5 164v384h-120v20h290v-20h-150v-384q0 -88 32 -154t90.5 -101.5t137.5 -35.5t137.5 35.5t90.5 101.5t32 154v384h-150v20h290v-20h-120v-384q0 -94 -34.5 -164t-98 -108.5t-147.5 -38.5t-147.5 38.5z" glyph-name="U" unicode="U"/>
<glyph d="M24 680h-94v20h272v-20h-156l286 -661l287 661h-156v20h271v-20h-94l-295 -680h-26z" glyph-name="V" horiz-adv-x="664" unicode="V"/>
<glyph d="M37 680h-92v20h276v-20h-163l236 -663l197 503l-63 160h-85v20h292v-20h-185l259 -663l236 663h-163v20h275v-20h-92l-242 -680h-28l-194 495l-194 -495h-28z" glyph-name="W" horiz-adv-x="1002" unicode="W"/>
<glyph d="M-75 20h112l270 336l-260 324h-112v20h320v-20h-182l247 -308l248 308h-178v20h315v-20h-112l-260 -324l270 -336h112v-20h-325v20h187l-257 320l-257 -320h192v-20h-330v20z" glyph-name="X" horiz-adv-x="640" unicode="X"/>
<glyph d="M138 20h144v256l-283 404h-99v20h292v-20h-168l269 -384l268 384h-168v20h291v-20h-99l-283 -404v-256h144v-20h-308v20z" glyph-name="Y" horiz-adv-x="584" unicode="Y"/>
<glyph d="M526 680h-424q-2 0 -2 -2v-178h-20v270h20v-70h450v-20l-477 -660h485q2 0 2 2v178h20v-270h-20v70h-511v20z" glyph-name="Z" horiz-adv-x="615" unicode="Z"/>
<glyph d="M160 800h230v-20h-210v-860h210v-20h-230v900z" glyph-name="bracketleft" horiz-adv-x="500" unicode="["/>
<glyph d="M70 700l338 -700h-20l-338 700h20z" glyph-name="backslash" horiz-adv-x="458" unicode="\"/>
<glyph d="M110 -100v20h210v860h-210v20h230v-900h-230z" glyph-name="bracketright" horiz-adv-x="500" unicode="]"/>
<glyph d="M270 700h20l167 -290h-23l-154 267l-154 -267h-23z" glyph-name="asciicircum" horiz-adv-x="560" unicode="^"/>
<glyph d="M30 20h380v-20h-380v20z" glyph-name="underscore" horiz-adv-x="440" unicode="_"/>
<glyph d="M91 23q-41 35 -41 92q0 84 74 115t188 38q71 4 107.5 14.5t36.5 35.5q0 76 -47.5 124t-123.5 48q-35 0 -74 -15.5t-65.5 -40.5t-26.5 -52v-52h-20v203h20v-96q25 32 70.5 52.5t95.5 20.5q87 0 139 -54t52 -144v-292h95v-20h-114v147q-24 -71 -93 -115t-154 -44 q-78 0 -119 35zM336.5 37.5q56.5 29.5 88.5 79.5t32 110v54q-17 -13 -51.5 -20t-91.5 -11q-130 -9 -187 -40.5t-57 -94.5q0 -52 37.5 -79.5t102.5 -27.5q70 0 126.5 29.5z" glyph-name="a" horiz-adv-x="586" unicode="a"/>
<glyph d="M222.5 33.5q-57.5 43.5 -82.5 116.5v-150h-20v680h-100v20h120v-350q25 73 82.5 116.5t134.5 43.5q65 0 118.5 -34.5t84.5 -94t31 -131.5t-31 -131.5t-84.5 -94t-118.5 -34.5q-77 0 -134.5 43.5zM464 41.5q49 31.5 77 86.5t28 122t-28 122t-77 86.5t-109 31.5t-109 -31.5 t-77.5 -86.5t-28.5 -122t28.5 -122t77.5 -86.5t109 -31.5t109 31.5z" glyph-name="b" horiz-adv-x="646" unicode="b"/>
<glyph d="M401 13q-48 -23 -107 -23q-67 0 -121.5 34t-86 93.5t-31.5 132.5t31.5 132.5t86 93.5t121.5 34q52 0 97 -20t69 -52v112h20v-220h-20v52q0 27 -24 52.5t-62.5 41t-79.5 15.5q-62 0 -112 -31.5t-78.5 -86.5t-28.5 -123t28.5 -123t78.5 -86t112 -31q47 0 89 17t67 46t25 63 v57h20v-204h-20v84q-26 -37 -74 -60z" glyph-name="c" horiz-adv-x="575" unicode="c"/>
<glyph d="M170.5 24.5q-53.5 34.5 -84.5 94t-31 131.5t31 131.5t84.5 94t118.5 34.5q77 0 134.5 -43.5t82.5 -116.5v330h-100v20h120v-680h100v-20h-120v150q-25 -73 -82.5 -116.5t-134.5 -43.5q-65 0 -118.5 34.5zM400 41.5q49 31.5 77.5 86.5t28.5 122t-28.5 122t-77.5 86.5 t-109 31.5t-109 -31.5t-77 -86.5t-28 -122t28 -122t77 -86.5t109 -31.5t109 31.5z" glyph-name="d" horiz-adv-x="646" unicode="d"/>
<glyph d="M417.5 13q-49.5 -23 -110.5 -23q-71 0 -128.5 32.5t-90.5 91.5t-33 136q0 74 33 133.5t89.5 93t123.5 33.5q71 0 126.5 -33.5t87 -92.5t31.5 -134v-10h-472q2 -66 33 -118.5t83 -82t117 -29.5q48 0 91 17t68.5 46t25.5 63v27h20v-174h-20v84q-25 -37 -74.5 -60z M493.5 379.5q-28.5 52.5 -78.5 81.5t-114 29q-63 0 -113.5 -31t-81 -83.5t-32.5 -115.5h450q-2 67 -30.5 119.5z" glyph-name="e" horiz-adv-x="616" unicode="e"/>
<glyph d="M120 20v460h-100v20h100v57q0 76 46 119.5t126 43.5q49 0 91.5 -18.5t57.5 -43.5v92h20v-193h-20v35q0 46 -42 77t-105 31q-73 0 -113.5 -37.5t-40.5 -104.5v-58h246v-20h-246v-30v-430h150v-20h-270v20h100z" glyph-name="f" horiz-adv-x="351" unicode="f"/>
<glyph d="M213.5 -190.5q-63.5 19.5 -98 55t-34.5 83.5q0 60 54 100.5t151 50.5q-121 4 -188.5 31.5t-67.5 95.5q0 26 19.5 44.5t47.5 18.5q22 0 45 -9q-22 31 -22 71q0 70 64 113t172 46v90h-120v20h258v-20h-120v-90q74 0 130 -20t86.5 -56t30.5 -83q0 -48 -31 -83.5t-87.5 -55 t-131.5 -19.5t-115.5 13t-77.5 36q-24 14 -40.5 20.5t-40.5 6.5q-21 0 -34 -13t-13 -30q0 -43 35 -65.5t87 -31t141 -15.5q53 -3 104 -9q99 -11 162 -49.5t63 -107.5q0 -48 -34.5 -83.5t-98 -55t-148.5 -19.5q-84 0 -147.5 19.5zM538.5 251q62.5 38 62.5 100q0 63 -62.5 101 t-167.5 38q-106 0 -168.5 -38t-62.5 -101t62.5 -100.5t168.5 -37.5q105 0 167.5 38zM499 -173q59 17 91 48.5t32 72.5q0 42 -32 73.5t-91 48.5t-138 17t-137.5 -17t-90.5 -48.5t-32 -73.5q0 -41 32 -72.5t90.5 -48.5t137.5 -17t138 17z" glyph-name="g" horiz-adv-x="682" unicode="g"/>
<glyph d="M120 20v660h-100v20h120v-338q24 68 76 108t118 40q102 0 159 -66t57 -184v-240h95v-20h-225v20h110v240q0 107 -52.5 168.5t-143.5 61.5q-54 0 -98.5 -30t-70 -83t-25.5 -117v-240h120v-20h-240v20h100z" glyph-name="h" horiz-adv-x="660" unicode="h"/>
<glyph d="M20 20h120v460h-120v20h140v-480h120v-20h-260v20zM133 745h34l-12 -160h-10z" glyph-name="i" horiz-adv-x="290" unicode="i"/>
<glyph d="M-71 -40v-19q0 -57 32 -94t79 -37q43 0 71.5 34.5t28.5 90.5v165v380h-120v20h140v-565q0 -63 -34 -104t-86 -41q-39 0 -69 20.5t-42 46.5v-67h-19v170h19zM133 745h34l-12 -160h-10z" glyph-name="j" horiz-adv-x="290" unicode="j"/>
<glyph d="M20 20h100v660h-100v20h120v-440h109l200 220h-98v20h204v-20h-80l-209 -230l217 -230h112v-20h-255v20h115l-208 220h-107v-220h100v-20h-220v20z" glyph-name="k" horiz-adv-x="600" unicode="k"/>
<glyph d="M20 20h120v660h-120v20h140v-680h130v-20h-270v20z" glyph-name="l" horiz-adv-x="310" unicode="l"/>
<glyph d="M120 20v460h-100v20h120v-136q24 67 73.5 106.5t112.5 39.5q81 0 130.5 -42.5t65.5 -123.5q21 74 74 120t120 46q100 0 152 -64t52 -186v-240h95v-20h-235v20h120v240q0 113 -46.5 171.5t-137.5 58.5q-51 0 -94 -30t-67.5 -83t-24.5 -117v-240h120v-20h-260v20h120v240 q0 113 -47 171.5t-137 58.5q-51 0 -94 -30t-67.5 -83t-24.5 -117v-240h120v-20h-240v20h100z" glyph-name="m" horiz-adv-x="1030" unicode="m"/>
<glyph d="M120 20v460h-100v20h120v-138q24 68 76 108t118 40q102 0 159 -66t57 -184v-240h95v-20h-235v20h120v240q0 107 -52.5 168.5t-143.5 61.5q-54 0 -98.5 -30t-70 -83t-25.5 -117v-240h120v-20h-240v20h100z" glyph-name="n" horiz-adv-x="660" unicode="n"/>
<glyph d="M183.5 24.5q-59.5 34.5 -94 94t-34.5 131.5t34.5 131.5t94 94t131.5 34.5t131.5 -34.5t94 -94t34.5 -131.5t-34.5 -131.5t-94 -94t-131.5 -34.5t-131.5 34.5zM437 41.5q55 31.5 86.5 86.5t31.5 122t-31.5 122t-86.5 86.5t-122 31.5t-122 -31.5t-86.5 -86.5t-31.5 -122 t31.5 -122t86.5 -86.5t122 -31.5t122 31.5z" glyph-name="o" horiz-adv-x="630" unicode="o"/>
<glyph d="M120 -180v660h-100v20h120v-150q25 73 82.5 116.5t134.5 43.5q65 0 118.5 -34.5t84.5 -94t31 -131.5t-31 -131.5t-84.5 -94t-118.5 -34.5q-77 0 -134.5 43.5t-82.5 116.5v-330h150v-20h-270v20h100zM464 41.5q49 31.5 77 86.5t28 122t-28 122t-77 86.5t-109 31.5 t-109 -31.5t-77.5 -86.5t-28.5 -122t28.5 -122t77.5 -86.5t109 -31.5t109 31.5z" glyph-name="p" horiz-adv-x="646" unicode="p"/>
<glyph d="M506 -180v330q-25 -73 -82.5 -116.5t-134.5 -43.5q-65 0 -118.5 34.5t-84.5 94t-31 131.5t31 131.5t84.5 94t118.5 34.5q77 0 134.5 -43.5t82.5 -116.5v150h120v-20h-100v-660h100v-20h-270v20h150zM400 41.5q49 31.5 77.5 86.5t28.5 122t-28.5 122t-77.5 86.5t-109 31.5 t-109 -31.5t-77 -86.5t-28 -122t28 -122t77 -86.5t109 -31.5t109 31.5z" glyph-name="q" horiz-adv-x="646" unicode="q"/>
<glyph d="M120 20v460h-100v20h120v-122q21 59 65 95.5t94 36.5t87 -19t58 -50v99h20v-240h-20v82q0 28 -19.5 53t-52.5 40t-73 15t-76.5 -26.5t-59.5 -72.5t-23 -101v-270h120v-20h-240v20h100z" glyph-name="r" horiz-adv-x="525" unicode="r"/>
<glyph d="M80 193v-57q0 -35 28 -64t77 -45.5t108 -16.5q76 0 120 29t44 79q0 46 -44 73.5t-144 45.5q-107 20 -155.5 54t-48.5 90q0 60 45.5 94.5t127.5 34.5q61 0 111 -19t79 -53v112h20v-220h-20v52q0 29 -26 54t-70 40t-94 15q-72 0 -112.5 -29t-40.5 -81q0 -48 43 -76t144 -47 q106 -19 156 -52.5t50 -87.5q0 -59 -49.5 -93.5t-135.5 -34.5q-73 0 -129.5 22t-83.5 61v-84h-20v204h20z" glyph-name="s" horiz-adv-x="548" unicode="s"/>
<glyph d="M171.5 35q-41.5 45 -41.5 124v321h-130v20h128q2 0 2 2v118h20v-120h270v-20h-270v-321q0 -73 37.5 -111t102.5 -38q41 0 75.5 14t54.5 34v-26q-21 -17 -58 -29.5t-76 -12.5q-73 0 -114.5 45z" glyph-name="t" horiz-adv-x="440" unicode="t"/>
<glyph d="M167 56q-57 66 -57 184v240h-95v20h115v-260q0 -107 52.5 -168.5t143.5 -61.5q54 0 98.5 30t70 83t25.5 117v240h-120v20h240v-20h-100v-460h100v-20h-120v138q-24 -68 -76 -108t-118 -40q-102 0 -159 66z" glyph-name="u" horiz-adv-x="660" unicode="u"/>
<glyph d="M18 480h-83v20h248v-20h-143l214 -464l212 464h-143v20h248v-20h-83l-221 -480h-28z" glyph-name="v" horiz-adv-x="506" unicode="v"/>
<glyph d="M42 480h-82v20h248v-20h-145l165 -460l161 382l-33 78h-76v20h248v-20h-150l193 -461l167 461h-145v20h248v-20h-82l-174 -480h-28l-157 376l-158 -376h-28z" glyph-name="w" horiz-adv-x="801" unicode="w"/>
<glyph d="M-25 20h75l205 234l-197 226h-83v20h218v-20h-108l184 -211l183 211h-109v20h218v-20h-83l-196 -225l204 -235h75v-20h-218v20h116l-191 219l-191 -219h116v-20h-218v20z" glyph-name="x" horiz-adv-x="536" unicode="x"/>
<glyph d="M70 -10v-49q0 -57 32 -94t79 -37q43 0 71.5 34.5t28.5 90.5v18q0 25 -5 44.5t-16 42.5l-230 440h-76v20h248v-20h-148l224 -431q5 -10 12 -38q4 20 12 40l193 429h-153v20h248v-20h-73l-197 -439q-10 -23 -14.5 -42.5t-4.5 -43.5v-20q0 -63 -34 -104t-86 -41 q-39 0 -69 20.5t-42 46.5v-67h-19v200h19z" glyph-name="y" horiz-adv-x="550" unicode="y"/>
<glyph d="M70 0v20l376 460h-338q-2 0 -2 -2v-178h-20v250h20v-50h365v-20l-376 -460h351q2 0 2 2v178h20v-270h-20v70h-378z" glyph-name="z" horiz-adv-x="552" unicode="z"/>
<glyph d="M216 -84q-36 31 -36 91q0 29 16 123q16 92 16 119q0 43 -20.5 67t-56.5 24h-35v20h35q36 0 56.5 24t20.5 67q0 27 -16 119q-16 94 -16 123q0 60 36 91t88 31q44 0 79 -15v-22q-35 19 -81 19q-43 0 -72.5 -26t-29.5 -78q0 -23 6.5 -63.5t8.5 -51.5q17 -89 17 -127 q0 -39 -16.5 -65t-46.5 -36q30 -10 46.5 -36t16.5 -65q0 -38 -17 -127q-2 -11 -8.5 -51.5t-6.5 -63.5q0 -52 29.5 -78t72.5 -26q46 0 81 19v-22q-35 -15 -79 -15q-52 0 -88 31z" glyph-name="braceleft" horiz-adv-x="500" unicode="{"/>
<glyph d="M160 800h20v-900h-20v900z" glyph-name="bar" horiz-adv-x="340" unicode="|"/>
<glyph d="M284 784q36 -31 36 -91q0 -29 -16 -123q-16 -92 -16 -119q0 -43 20.5 -67t56.5 -24h35v-20h-35q-36 0 -56.5 -24t-20.5 -67q0 -27 16 -119q16 -94 16 -123q0 -60 -36 -91t-88 -31q-44 0 -79 15v22q35 -19 81 -19q43 0 72.5 26t29.5 78q0 23 -6.5 63.5t-8.5 51.5 q-17 89 -17 127q0 39 16.5 65t46.5 36q-30 10 -46.5 36t-16.5 65q0 38 17 127q2 11 8.5 51.5t6.5 63.5q0 52 -29.5 78t-72.5 26q-46 0 -81 -19v22q34 15 79 15q52 0 88 -31z" glyph-name="braceright" horiz-adv-x="500" unicode="}"/>
<glyph d="M107 364.5q27 23.5 64 23.5q26 0 50.5 -7.5t62.5 -22.5q36 -14 58.5 -21t46.5 -7q28 0 49.5 18t21.5 41h20q0 -32 -27 -55.5t-64 -23.5q-26 0 -50.5 7.5t-62.5 22.5q-36 14 -58.5 21t-46.5 7q-28 0 -49.5 -18t-21.5 -41h-20q0 32 27 55.5z" glyph-name="asciitilde" horiz-adv-x="560" unicode="~"/>
<glyph glyph-name="uni00A0" horiz-adv-x="250" unicode=" "/>
<glyph d="M178 498q7 -7 7 -18q0 -10 -7 -17.5t-18 -7.5q-10 0 -17.5 7.5t-7.5 17.5q0 11 7.5 18t17.5 7q11 0 18 -7zM290 -180v-20h-260v20h120l1 500h18l1 -500h120z" glyph-name="exclamdown" horiz-adv-x="320" unicode="¡"/>
<glyph d="M200 128.5q-53 34.5 -83 93t-30 130.5t30 130.5t83 93t119 36.5v118h20v-118q48 -3 89.5 -23t63.5 -49v112h20v-220h-20v52q0 27 -24 52.5t-62.5 41t-79.5 15.5q-62 0 -112 -31.5t-78.5 -86.5t-28.5 -123t28.5 -123t78.5 -86t112 -31q47 0 89 17t67 46t25 63v57h20v-204 h-20v84q-24 -35 -68.5 -57.5t-99.5 -25.5v-122h-20v122q-66 2 -119 36.5z" glyph-name="cent" horiz-adv-x="700" unicode="¢"/>
<glyph d="M42.5 11q-30.5 26 -30.5 66t27.5 64.5t71.5 24.5q29 0 60.5 -12.5t68.5 -35.5q1 6 1 17q0 34 -12.5 68t-37.5 85l-24 52h-128v20h119q-28 70 -28 128q0 68 27.5 119.5t78 80t116.5 28.5q71 0 125.5 -30t86.5 -81v135h20v-279h-20v75q0 40 -29.5 77.5t-78 60t-104.5 22.5 q-92 0 -147 -56.5t-55 -151.5q0 -60 29 -128h333v-20h-325l21 -43q27 -56 40 -90.5t13 -71.5q0 -10 -2 -28l25 -16q65 -42 111.5 -64t95.5 -22q62 0 98 42t36 115q0 32 -7 64h20q7 -32 7 -64q0 -81 -41.5 -129t-112.5 -48q-39 0 -79 14.5t-70.5 32.5t-87.5 54 q-14 -45 -50.5 -73t-83.5 -28t-77.5 26zM193.5 30.5q31.5 25.5 42.5 66.5q-38 24 -68 36.5t-57 12.5q-36 0 -57.5 -19t-21.5 -50q0 -32 24.5 -52t63.5 -20q42 0 73.5 25.5z" glyph-name="sterling" horiz-adv-x="700" unicode="£"/>
<glyph d="M202 216q-24 27 -38 61.5t-14 72.5t14 72.5t38 61.5l-92 92l14 14l92 -92q27 24 61.5 38t72.5 14t72.5 -14t61.5 -38l92 92l14 -14l-92 -92q24 -27 38 -61.5t14 -72.5t-14 -72.5t-38 -61.5l92 -92l-14 -14l-92 92q-27 -24 -61.5 -38t-72.5 -14t-72.5 14t-61.5 38l-92 -92 l-14 14zM440 194.5q41 24.5 65.5 65.5t24.5 90t-24.5 90t-65.5 65.5t-90 24.5t-90 -24.5t-65.5 -65.5t-24.5 -90t24.5 -90t65.5 -65.5t90 -24.5t90 24.5z" glyph-name="currency" horiz-adv-x="700" unicode="¤"/>
<glyph d="M196 20h144v160h-240v20h240v76l-17 24h-223v20h209l-252 360h-99v20h292v-20h-168l269 -384l268 384h-168v20h291v-20h-99l-252 -360h209v-20h-223l-17 -24v-76h240v-20h-240v-160h144v-20h-308v20z" glyph-name="yen" horiz-adv-x="700" unicode="¥"/>
<glyph d="M160 800h20v-380h-20v380zM160 280h20v-380h-20v380z" glyph-name="brokenbar" horiz-adv-x="340" unicode="¦"/>
<glyph d="M214 -54.5q-66 45.5 -78 134.5h20q13 -79 72.5 -118.5t140.5 -39.5q38 0 78.5 11.5t69 39t28.5 70.5q0 41 -22 63.5t-54.5 33t-92.5 21.5l-23 4q-75 13 -118 25.5t-73.5 41t-30.5 79.5q0 56 41 89t106 44q-60 15 -93.5 42t-33.5 80q0 75 58 112t137 37q84 0 143.5 -45 t69.5 -130h-20q-11 77 -65.5 115t-131.5 38q-66 0 -118.5 -30.5t-52.5 -96.5q0 -38 24 -60t59 -32t96 -21l24 -4q71 -13 113.5 -25.5t71 -40.5t28.5 -77q0 -57 -43.5 -90t-107.5 -45q62 -15 95.5 -43.5t33.5 -84.5q0 -51 -31 -83t-75.5 -46t-88.5 -14q-90 0 -156 45.5z M459.5 198.5q44.5 12.5 76 39.5t31.5 68q0 40 -19.5 61t-57.5 32.5t-122 27.5l-30 6q-74 -5 -130.5 -34.5t-56.5 -87.5q0 -57 55 -85t166 -42q43 2 87.5 14.5z" glyph-name="section" horiz-adv-x="700" unicode="§"/>
<glyph d="M225 33q-84 48 -132 132t-48 185t48 185t132 132t185 48t185 -48t132 -132t48 -185t-48 -185t-132 -132t-185 -48t-185 48zM585 50.5q79 45.5 124.5 124.5t45.5 175t-45.5 175t-124.5 124.5t-175 45.5t-175 -45.5t-124.5 -124.5t-45.5 -175t45.5 -175t124.5 -124.5 t175 -45.5t175 45.5zM489 162.5q-39 -18.5 -86 -18.5q-54 0 -97.5 27t-68.5 74.5t-25 106.5t25 106.5t68.5 74.5t97.5 27q47 0 86 -18.5t59 -47.5v67h20v-163h-20v40q0 27 -20 50.5t-53.5 37.5t-71.5 14q-48 0 -87 -24.5t-61.5 -67.5t-22.5 -96t22.5 -96t61.5 -67.5 t87 -24.5q38 0 71.5 14t53.5 37.5t20 50.5v40h20v-163h-20v67q-20 -29 -59 -47.5z" glyph-name="copyright" unicode="©"/>
<glyph d="M108 300l109 -200h-21l-106 194v12l106 194h21zM268 300l109 -200h-21l-106 194v12l106 194h21z" glyph-name="guillemotleft" horiz-adv-x="467" unicode="«"/>
<glyph d="M480 360v-210h-20v190h-380v20h400z" glyph-name="logicalnot" horiz-adv-x="560" unicode="¬"/>
<glyph d="M138.5 378.5q-41.5 23.5 -65 65t-23.5 91.5t23.5 91.5t65 65t91.5 23.5t91.5 -23.5t65 -65t23.5 -91.5t-23.5 -91.5t-65 -65t-91.5 -23.5t-91.5 23.5zM311.5 396q36.5 21 57.5 57.5t21 81.5t-21 81.5t-57.5 57.5t-81.5 21t-81.5 -21t-57.5 -57.5t-21 -81.5t21 -81.5 t57.5 -57.5t81.5 -21t81.5 21zM172 458v164h-32v20h85q34 0 54 -16t20 -44q0 -21 -12.5 -36t-35.5 -21l56 -67h28v-20h-90v20h35l-53 63h-35v-63h35v-20h-87v20h32zM264 552q14 10 14 29q0 20 -14 30.5t-39 10.5h-33v-80h33q25 0 39 10z" glyph-name="registered" horiz-adv-x="460" unicode="®"/>
<glyph d="M70.5 510.5q-35.5 35.5 -35.5 84.5q0 50 35.5 85t84.5 35q50 0 85 -35t35 -85q0 -49 -35 -84.5t-85 -35.5q-49 0 -84.5 35.5zM225.5 524.5q29.5 29.5 29.5 70.5t-29.5 70.5t-70.5 29.5t-70.5 -29.5t-29.5 -70.5t29.5 -70.5t70.5 -29.5t70.5 29.5z" glyph-name="degree" horiz-adv-x="310" unicode="°"/>
<glyph d="M290 410h190v-20h-190v-190h-20v190h-190v20h190v190h20v-190zM80 110v20h400v-20h-400z" glyph-name="plusminus" horiz-adv-x="560" unicode="±"/>
<glyph d="M290 -180v480h-9q-62 0 -112.5 26.5t-79.5 72t-29 101.5t29 101.5t79.5 72t112.5 26.5h149v-20h-120v-860h120v-20h-260v20h120z" glyph-name="paragraph" horiz-adv-x="600" unicode="¶"/>
<glyph d="M92.5 282.5q-7.5 7.5 -7.5 17.5q0 11 7.5 18t17.5 7q11 0 18 -7t7 -18q0 -10 -7 -17.5t-18 -7.5q-10 0 -17.5 7.5z" glyph-name="periodcentered" horiz-adv-x="220" unicode="·"/>
<glyph d="M359 300l-109 200h21l106 -194v-12l-106 -194h-21zM199 300l-109 200h21l106 -194v-12l-106 -194h-21z" glyph-name="guillemotright" horiz-adv-x="467" unicode="»"/>
<glyph d="M308 498q7 -7 7 -18q0 -10 -7 -17.5t-18 -7.5q-10 0 -17.5 7.5t-7.5 17.5q0 11 7.5 18t17.5 7q11 0 18 -7zM307 290q-6 -56 -33 -91.5t-75 -72.5q-35 -28 -53.5 -47t-32 -47t-13.5 -65q0 -77 50.5 -119.5t125.5 -42.5q41 0 84.5 20.5t72 57t28.5 82.5v75h18v-280h-18v136 q-23 -49 -73.5 -80t-111.5 -31q-54 0 -98.5 21t-71 62t-26.5 99q0 42 14 72t34.5 51t55.5 49q34 27 55.5 49t35.5 55t14 77h18q2 -15 0 -30z" glyph-name="questiondown" horiz-adv-x="557" unicode="¿"/>
<glyph d="M-90 20h94l297 655l-2 5h-120v20h133l308 -680h94v-20h-272v20h156l-95 209h-382l-95 -209h156v-20h-272v20zM494 249l-182 403l-182 -403h364zM283 785l-67 160h22l66 -160h-21z" glyph-name="Agrave" horiz-adv-x="624" unicode="À"/>
<glyph d="M-90 20h94l297 655l-2 5h-120v20h133l308 -680h94v-20h-272v20h156l-95 209h-382l-95 -209h156v-20h-272v20zM494 249l-182 403l-182 -403h364zM346 945h22l-67 -160h-21z" glyph-name="Aacute" horiz-adv-x="624" unicode="Á"/>
<glyph d="M-90 20h94l297 655l-2 5h-120v20h133l308 -680h94v-20h-272v20h156l-95 209h-382l-95 -209h156v-20h-272v20zM494 249l-182 403l-182 -403h364zM435 785l-143 140l-144 -140h-28l164 160h16l164 -160h-29z" glyph-name="Acircumflex" horiz-adv-x="624" unicode="Â"/>
<glyph d="M-90 20h94l297 655l-2 5h-120v20h133l308 -680h94v-20h-272v20h156l-95 209h-382l-95 -209h156v-20h-272v20zM494 249l-182 403l-182 -403h364zM132.5 884.5q25.5 21.5 59.5 21.5q26 0 48.5 -7t54.5 -20q34 -13 54 -19t43 -6q26 0 45.5 16t19.5 36h20q0 -29 -25.5 -50.5 t-59.5 -21.5q-26 0 -48.5 7t-54.5 20q-34 13 -54 19t-43 6q-26 0 -45.5 -16t-19.5 -36h-20q0 29 25.5 50.5z" glyph-name="Atilde" horiz-adv-x="624" unicode="Ã"/>
<glyph d="M-90 20h94l297 655l-2 5h-120v20h133l308 -680h94v-20h-272v20h156l-95 209h-382l-95 -209h156v-20h-272v20zM494 249l-182 403l-182 -403h364zM205 945h30l-10 -160h-9zM329 945h30l-10 -160h-9z" glyph-name="Adieresis" horiz-adv-x="624" unicode="Ä"/>
<glyph d="M-90 20h94l297 655l-2 5h-120v20h133l308 -680h94v-20h-272v20h156l-95 209h-382l-95 -209h156v-20h-272v20zM494 249l-182 403l-182 -403h364zM207 820q-35 35 -35 85t35 85t85 35q49 0 84.5 -35t35.5 -85q0 -49 -35.5 -84.5t-84.5 -35.5q-50 0 -85 35zM362.5 834.5 q29.5 29.5 29.5 70.5t-29.5 70.5t-70.5 29.5q-42 0 -71 -29t-29 -71t29 -71t71 -29q41 0 70.5 29.5z" glyph-name="Aring" horiz-adv-x="624" unicode="Å"/>
<glyph d="M442 0v20h156l-95 209h-382l-95 -209h156v-20h-272v20h94l297 655l-2 5h-120v20h667v70h20v-270h-20v178q0 2 -2 2h-523l145 -320h231q2 0 2 2v103h18v-230h-18v103q0 2 -2 2h-222l145 -320h282q2 0 2 2v178h20v-270h-20v70h-462zM494 249l-182 403l-182 -403h364z" glyph-name="AE" horiz-adv-x="984" unicode="Æ"/>
<glyph d="M205.5 32.5q-72.5 47.5 -114 131t-41.5 186.5t41.5 186.5t114 131t161.5 47.5q70 0 131 -31t94 -80v136h20v-280h-20v75q0 40 -32.5 77t-84.5 60t-108 23q-84 0 -152 -45t-106.5 -123.5t-38.5 -176.5t38.5 -176.5t106.5 -123.5t152 -45q64 0 120.5 25t90.5 68t34 92v80 h20v-267h-20v108q-35 -58 -100 -92t-145 -34q-89 0 -161.5 47.5zM301 -245l67 160h21l-66 -160h-22z" glyph-name="Ccedilla" horiz-adv-x="722" unicode="Ç"/>
<glyph d="M30 0v20h120v660h-120v20h482v70h20v-270h-20v178q0 2 -2 2h-340v-320h193q2 0 2 2v103h18v-230h-18v103q0 2 -2 2h-193v-320h398q2 0 2 2v178h20v-270h-20v70h-540zM307 785l-67 160h22l66 -160h-21z" glyph-name="Egrave" horiz-adv-x="650" unicode="È"/>
<glyph d="M30 0v20h120v660h-120v20h482v70h20v-270h-20v178q0 2 -2 2h-340v-320h193q2 0 2 2v103h18v-230h-18v103q0 2 -2 2h-193v-320h398q2 0 2 2v178h20v-270h-20v70h-540zM370 945h22l-67 -160h-21z" glyph-name="Eacute" horiz-adv-x="650" unicode="É"/>
<glyph d="M30 0v20h120v660h-120v20h482v70h20v-270h-20v178q0 2 -2 2h-340v-320h193q2 0 2 2v103h18v-230h-18v103q0 2 -2 2h-193v-320h398q2 0 2 2v178h20v-270h-20v70h-540zM459 785l-143 140l-144 -140h-28l164 160h16l164 -160h-29z" glyph-name="Ecircumflex" horiz-adv-x="650" unicode="Ê"/>
<glyph d="M30 0v20h120v660h-120v20h482v70h20v-270h-20v178q0 2 -2 2h-340v-320h193q2 0 2 2v103h18v-230h-18v103q0 2 -2 2h-193v-320h398q2 0 2 2v178h20v-270h-20v70h-540zM229 945h30l-10 -160h-9zM353 945h30l-10 -160h-9z" glyph-name="Edieresis" horiz-adv-x="650" unicode="Ë"/>
<glyph d="M30 20h120v660h-120v20h260v-20h-120v-660h120v-20h-260v20zM151 785l-67 160h22l66 -160h-21z" glyph-name="Igrave" horiz-adv-x="320" unicode="Ì"/>
<glyph d="M30 20h120v660h-120v20h260v-20h-120v-660h120v-20h-260v20zM214 945h22l-67 -160h-21z" glyph-name="Iacute" horiz-adv-x="320" unicode="Í"/>
<glyph d="M30 20h120v660h-120v20h260v-20h-120v-660h120v-20h-260v20zM303 785l-143 140l-144 -140h-28l164 160h16l164 -160h-29z" glyph-name="Icircumflex" horiz-adv-x="320" unicode="Î"/>
<glyph d="M30 20h120v660h-120v20h260v-20h-120v-660h120v-20h-260v20zM73 945h30l-10 -160h-9zM197 945h30l-10 -160h-9z" glyph-name="Idieresis" horiz-adv-x="320" unicode="Ï"/>
<glyph d="M150 20v320h-120v20h120v320h-120v20h275q108 0 192 -44.5t131 -124t47 -181.5t-47 -181.5t-131 -124t-192 -44.5h-275v20h120zM487.5 61.5q79.5 41.5 123.5 116.5t44 172t-44 172t-123.5 116.5t-182.5 41.5h-135v-320h173v-20h-173v-320h135q103 0 182.5 41.5z" glyph-name="Eth" horiz-adv-x="725" unicode="Ð"/>
<glyph d="M170 648v-628h144v-20h-284v20h120v656l-3 4h-122v20h132l508 -691v671h-144v20h284v-20h-120v-708h-18zM255.5 884.5q25.5 21.5 59.5 21.5q26 0 48.5 -7t54.5 -20q34 -13 54 -19t43 -6q26 0 45.5 16t19.5 36h20q0 -29 -25.5 -50.5t-59.5 -21.5q-26 0 -48.5 7t-54.5 20 q-34 13 -54 19t-43 6q-26 0 -45.5 -16t-19.5 -36h-20q0 29 25.5 50.5z" glyph-name="Ntilde" horiz-adv-x="830" unicode="Ñ"/>
<glyph d="M226 32.5q-82 47.5 -129 131t-47 186.5t47 186.5t129 131t184 47.5t184 -47.5t129 -131t47 -186.5t-47 -186.5t-129 -131t-184 -47.5t-184 47.5zM583.5 50q77.5 45 122 123.5t44.5 176.5t-44.5 176.5t-122 123.5t-173.5 45t-173.5 -45t-122 -123.5t-44.5 -176.5 t44.5 -176.5t122 -123.5t173.5 -45t173.5 45zM401 785l-67 160h22l66 -160h-21z" glyph-name="Ograve" unicode="Ò"/>
<glyph d="M226 32.5q-82 47.5 -129 131t-47 186.5t47 186.5t129 131t184 47.5t184 -47.5t129 -131t47 -186.5t-47 -186.5t-129 -131t-184 -47.5t-184 47.5zM583.5 50q77.5 45 122 123.5t44.5 176.5t-44.5 176.5t-122 123.5t-173.5 45t-173.5 -45t-122 -123.5t-44.5 -176.5 t44.5 -176.5t122 -123.5t173.5 -45t173.5 45zM464 945h22l-67 -160h-21z" glyph-name="Oacute" unicode="Ó"/>
<glyph d="M226 32.5q-82 47.5 -129 131t-47 186.5t47 186.5t129 131t184 47.5t184 -47.5t129 -131t47 -186.5t-47 -186.5t-129 -131t-184 -47.5t-184 47.5zM583.5 50q77.5 45 122 123.5t44.5 176.5t-44.5 176.5t-122 123.5t-173.5 45t-173.5 -45t-122 -123.5t-44.5 -176.5 t44.5 -176.5t122 -123.5t173.5 -45t173.5 45zM553 785l-143 140l-144 -140h-28l164 160h16l164 -160h-29z" glyph-name="Ocircumflex" unicode="Ô"/>
<glyph d="M226 32.5q-82 47.5 -129 131t-47 186.5t47 186.5t129 131t184 47.5t184 -47.5t129 -131t47 -186.5t-47 -186.5t-129 -131t-184 -47.5t-184 47.5zM583.5 50q77.5 45 122 123.5t44.5 176.5t-44.5 176.5t-122 123.5t-173.5 45t-173.5 -45t-122 -123.5t-44.5 -176.5 t44.5 -176.5t122 -123.5t173.5 -45t173.5 45zM250.5 884.5q25.5 21.5 59.5 21.5q26 0 48.5 -7t54.5 -20q34 -13 54 -19t43 -6q26 0 45.5 16t19.5 36h20q0 -29 -25.5 -50.5t-59.5 -21.5q-26 0 -48.5 7t-54.5 20q-34 13 -54 19t-43 6q-26 0 -45.5 -16t-19.5 -36h-20 q0 29 25.5 50.5z" glyph-name="Otilde" unicode="Õ"/>
<glyph d="M226 32.5q-82 47.5 -129 131t-47 186.5t47 186.5t129 131t184 47.5t184 -47.5t129 -131t47 -186.5t-47 -186.5t-129 -131t-184 -47.5t-184 47.5zM583.5 50q77.5 45 122 123.5t44.5 176.5t-44.5 176.5t-122 123.5t-173.5 45t-173.5 -45t-122 -123.5t-44.5 -176.5 t44.5 -176.5t122 -123.5t173.5 -45t173.5 45zM323 945h30l-10 -160h-9zM447 945h30l-10 -160h-9z" glyph-name="Odieresis" unicode="Ö"/>
<glyph d="M117 202l148 148l-148 148l15 15l148 -148l148 148l15 -15l-148 -148l148 -148l-15 -15l-148 148l-148 -148z" glyph-name="multiply" horiz-adv-x="560" unicode="×"/>
<glyph d="M275 9.5q-63 24.5 -111 68.5l-75 -78h-27l88 92q-48 49 -74 115.5t-26 142.5q0 103 47 186.5t129 131t184 47.5q72 0 135 -24.5t111 -68.5l75 78h27l-88 -92q48 -49 74 -115.5t26 -142.5q0 -103 -47 -186.5t-129 -131t-184 -47.5q-72 0 -135 24.5zM537.5 672 q-59.5 23 -127.5 23q-96 0 -173.5 -45t-122 -123.5t-44.5 -176.5q0 -72 24.5 -134.5t69.5 -109.5l478 501q-45 42 -104.5 65zM583.5 50q77.5 45 122 123.5t44.5 176.5q0 72 -24.5 134.5t-69.5 109.5l-478 -501q45 -42 104.5 -65t127.5 -23q96 0 173.5 45z" glyph-name="Oslash" unicode="Ø"/>
<glyph d="M262.5 23.5q-63.5 38.5 -98 108.5t-34.5 164v384h-120v20h290v-20h-150v-384q0 -88 32 -154t90.5 -101.5t137.5 -35.5t137.5 35.5t90.5 101.5t32 154v384h-150v20h290v-20h-120v-384q0 -94 -34.5 -164t-98 -108.5t-147.5 -38.5t-147.5 38.5zM401 785l-67 160h22l66 -160 h-21z" glyph-name="Ugrave" unicode="Ù"/>
<glyph d="M262.5 23.5q-63.5 38.5 -98 108.5t-34.5 164v384h-120v20h290v-20h-150v-384q0 -88 32 -154t90.5 -101.5t137.5 -35.5t137.5 35.5t90.5 101.5t32 154v384h-150v20h290v-20h-120v-384q0 -94 -34.5 -164t-98 -108.5t-147.5 -38.5t-147.5 38.5zM464 945h22l-67 -160h-21z " glyph-name="Uacute" unicode="Ú"/>
<glyph d="M262.5 23.5q-63.5 38.5 -98 108.5t-34.5 164v384h-120v20h290v-20h-150v-384q0 -88 32 -154t90.5 -101.5t137.5 -35.5t137.5 35.5t90.5 101.5t32 154v384h-150v20h290v-20h-120v-384q0 -94 -34.5 -164t-98 -108.5t-147.5 -38.5t-147.5 38.5zM553 785l-143 140l-144 -140 h-28l164 160h16l164 -160h-29z" glyph-name="Ucircumflex" unicode="Û"/>
<glyph d="M262.5 23.5q-63.5 38.5 -98 108.5t-34.5 164v384h-120v20h290v-20h-150v-384q0 -88 32 -154t90.5 -101.5t137.5 -35.5t137.5 35.5t90.5 101.5t32 154v384h-150v20h290v-20h-120v-384q0 -94 -34.5 -164t-98 -108.5t-147.5 -38.5t-147.5 38.5zM323 945h30l-10 -160h-9z M447 945h30l-10 -160h-9z" glyph-name="Udieresis" unicode="Ü"/>
<glyph d="M138 20h144v256l-283 404h-99v20h292v-20h-168l269 -384l268 384h-168v20h291v-20h-99l-283 -404v-256h144v-20h-308v20zM346 945h22l-67 -160h-21z" glyph-name="Yacute" horiz-adv-x="584" unicode="Ý"/>
<glyph d="M150 20v660h-120v20h284v-20h-144v-130h157q118 0 185.5 -53.5t67.5 -146.5t-67.5 -146.5t-185.5 -53.5h-157v-130h144v-20h-284v20h120zM498.5 218q61.5 48 61.5 132t-61.5 132t-171.5 48h-157v-360h157q110 0 171.5 48z" glyph-name="Thorn" horiz-adv-x="610" unicode="Þ"/>
<glyph d="M120 -180v660h-100v20h100v57q0 85 54.5 134t149.5 49q66 0 117 -27t63 -66v103h20v-270h-18q-13 6 -27.5 8.5t-39.5 2.5q-72 0 -112.5 -29t-40.5 -81q0 -47 42 -76.5t136 -47.5q101 -19 148 -52t47 -87q0 -59 -45 -93.5t-120 -34.5q-71 0 -128.5 22t-84.5 61v-84h-20 v204h20v-57q0 -35 28 -64t77 -45.5t108 -16.5q67 0 105.5 29t38.5 79q0 45 -42 73t-136 46q-102 20 -148 54t-46 90q0 60 45.5 94.5t127.5 34.5q34 0 65 -6v71q0 67 -50.5 106t-129.5 39q-87 0 -135.5 -42.5t-48.5 -119.5v-108v-630h141v-20h-261v20h100z" glyph-name="germandbls" horiz-adv-x="699" unicode="ß"/>
<glyph d="M91 23q-41 35 -41 92q0 84 74 115t188 38q71 4 107.5 14.5t36.5 35.5q0 76 -47.5 124t-123.5 48q-35 0 -74 -15.5t-65.5 -40.5t-26.5 -52v-52h-20v203h20v-96q25 32 70.5 52.5t95.5 20.5q87 0 139 -54t52 -144v-292h95v-20h-114v147q-24 -71 -93 -115t-154 -44 q-78 0 -119 35zM336.5 37.5q56.5 29.5 88.5 79.5t32 110v54q-17 -13 -51.5 -20t-91.5 -11q-130 -9 -187 -40.5t-57 -94.5q0 -52 37.5 -79.5t102.5 -27.5q70 0 126.5 29.5zM267 585l-67 160h22l66 -160h-21z" glyph-name="agrave" horiz-adv-x="586" unicode="à"/>
<glyph d="M91 23q-41 35 -41 92q0 84 74 115t188 38q71 4 107.5 14.5t36.5 35.5q0 76 -47.5 124t-123.5 48q-35 0 -74 -15.5t-65.5 -40.5t-26.5 -52v-52h-20v203h20v-96q25 32 70.5 52.5t95.5 20.5q87 0 139 -54t52 -144v-292h95v-20h-114v147q-24 -71 -93 -115t-154 -44 q-78 0 -119 35zM336.5 37.5q56.5 29.5 88.5 79.5t32 110v54q-17 -13 -51.5 -20t-91.5 -11q-130 -9 -187 -40.5t-57 -94.5q0 -52 37.5 -79.5t102.5 -27.5q70 0 126.5 29.5zM330 745h22l-67 -160h-21z" glyph-name="aacute" horiz-adv-x="586" unicode="á"/>
<glyph d="M91 23q-41 35 -41 92q0 84 74 115t188 38q71 4 107.5 14.5t36.5 35.5q0 76 -47.5 124t-123.5 48q-35 0 -74 -15.5t-65.5 -40.5t-26.5 -52v-52h-20v203h20v-96q25 32 70.5 52.5t95.5 20.5q87 0 139 -54t52 -144v-292h95v-20h-114v147q-24 -71 -93 -115t-154 -44 q-78 0 -119 35zM336.5 37.5q56.5 29.5 88.5 79.5t32 110v54q-17 -13 -51.5 -20t-91.5 -11q-130 -9 -187 -40.5t-57 -94.5q0 -52 37.5 -79.5t102.5 -27.5q70 0 126.5 29.5zM419 585l-143 140l-144 -140h-28l164 160h16l164 -160h-29z" glyph-name="acircumflex" horiz-adv-x="586" unicode="â"/>
<glyph d="M91 23q-41 35 -41 92q0 84 74 115t188 38q71 4 107.5 14.5t36.5 35.5q0 76 -47.5 124t-123.5 48q-35 0 -74 -15.5t-65.5 -40.5t-26.5 -52v-52h-20v203h20v-96q25 32 70.5 52.5t95.5 20.5q87 0 139 -54t52 -144v-292h95v-20h-114v147q-24 -71 -93 -115t-154 -44 q-78 0 -119 35zM336.5 37.5q56.5 29.5 88.5 79.5t32 110v54q-17 -13 -51.5 -20t-91.5 -11q-130 -9 -187 -40.5t-57 -94.5q0 -52 37.5 -79.5t102.5 -27.5q70 0 126.5 29.5zM116.5 684.5q25.5 21.5 59.5 21.5q26 0 48.5 -7t54.5 -20q34 -13 54 -19t43 -6q26 0 45.5 16t19.5 36 h20q0 -29 -25.5 -50.5t-59.5 -21.5q-26 0 -48.5 7t-54.5 20q-34 13 -54 19t-43 6q-26 0 -45.5 -16t-19.5 -36h-20q0 29 25.5 50.5z" glyph-name="atilde" horiz-adv-x="586" unicode="ã"/>
<glyph d="M91 23q-41 35 -41 92q0 84 74 115t188 38q71 4 107.5 14.5t36.5 35.5q0 76 -47.5 124t-123.5 48q-35 0 -74 -15.5t-65.5 -40.5t-26.5 -52v-52h-20v203h20v-96q25 32 70.5 52.5t95.5 20.5q87 0 139 -54t52 -144v-292h95v-20h-114v147q-24 -71 -93 -115t-154 -44 q-78 0 -119 35zM336.5 37.5q56.5 29.5 88.5 79.5t32 110v54q-17 -13 -51.5 -20t-91.5 -11q-130 -9 -187 -40.5t-57 -94.5q0 -52 37.5 -79.5t102.5 -27.5q70 0 126.5 29.5zM189 745h30l-10 -160h-9zM313 745h30l-10 -160h-9z" glyph-name="adieresis" horiz-adv-x="586" unicode="ä"/>
<glyph d="M91 23q-41 35 -41 92q0 84 74 115t188 38q71 4 107.5 14.5t36.5 35.5q0 76 -47.5 124t-123.5 48q-35 0 -74 -15.5t-65.5 -40.5t-26.5 -52v-52h-20v203h20v-96q25 32 70.5 52.5t95.5 20.5q87 0 139 -54t52 -144v-292h95v-20h-114v147q-24 -71 -93 -115t-154 -44 q-78 0 -119 35zM336.5 37.5q56.5 29.5 88.5 79.5t32 110v54q-17 -13 -51.5 -20t-91.5 -11q-130 -9 -187 -40.5t-57 -94.5q0 -52 37.5 -79.5t102.5 -27.5q70 0 126.5 29.5zM191 620q-35 35 -35 85t35 85t85 35q49 0 84.5 -35t35.5 -85q0 -49 -35.5 -84.5t-84.5 -35.5 q-50 0 -85 35zM346.5 634.5q29.5 29.5 29.5 70.5t-29.5 70.5t-70.5 29.5q-42 0 -71 -29t-29 -71t29 -71t71 -29q41 0 70.5 29.5z" glyph-name="aring" horiz-adv-x="586" unicode="å"/>
<glyph d="M817.5 13q-49.5 -23 -110.5 -23q-88 0 -153 50t-87 135q-10 -51 -44.5 -94t-87 -68t-115.5 -25q-83 0 -126.5 35t-43.5 92q0 84 74 115t188 38q71 4 107.5 14.5t36.5 35.5q0 76 -47.5 124t-123.5 48q-35 0 -74 -15.5t-65.5 -40.5t-26.5 -52v-52h-20v203h20v-96 q25 32 70.5 52.5t95.5 20.5q80 0 129.5 -46t57.5 -125q25 77 88 124t141 47q71 0 126.5 -33.5t87 -92.5t31.5 -134v-10h-472q2 -66 33 -118.5t83 -82t117 -29.5q48 0 91 17t68.5 46t25.5 63v27h20v-174h-20v84q-25 -37 -74.5 -60zM893.5 379.5q-28.5 52.5 -78.5 81.5 t-114 29q-63 0 -113.5 -31t-81 -83.5t-32.5 -115.5h450q-2 67 -30.5 119.5zM341 37.5q54 29.5 85 79.5t31 110v54q-17 -13 -51.5 -20t-91.5 -11q-130 -9 -187 -40.5t-57 -94.5q0 -52 40 -79.5t110 -27.5q67 0 121 29.5z" glyph-name="ae" horiz-adv-x="1016" unicode="æ"/>
<glyph d="M401 13q-48 -23 -107 -23q-67 0 -121.5 34t-86 93.5t-31.5 132.5t31.5 132.5t86 93.5t121.5 34q52 0 97 -20t69 -52v112h20v-220h-20v52q0 27 -24 52.5t-62.5 41t-79.5 15.5q-62 0 -112 -31.5t-78.5 -86.5t-28.5 -123t28.5 -123t78.5 -86t112 -31q47 0 89 17t67 46t25 63 v57h20v-204h-20v84q-26 -37 -74 -60zM230 -245l67 160h21l-66 -160h-22z" glyph-name="ccedilla" horiz-adv-x="575" unicode="ç"/>
<glyph d="M417.5 13q-49.5 -23 -110.5 -23q-71 0 -128.5 32.5t-90.5 91.5t-33 136q0 74 33 133.5t89.5 93t123.5 33.5q71 0 126.5 -33.5t87 -92.5t31.5 -134v-10h-472q2 -66 33 -118.5t83 -82t117 -29.5q48 0 91 17t68.5 46t25.5 63v27h20v-174h-20v84q-25 -37 -74.5 -60z M493.5 379.5q-28.5 52.5 -78.5 81.5t-114 29q-63 0 -113.5 -31t-81 -83.5t-32.5 -115.5h450q-2 67 -30.5 119.5zM281 585l-67 160h22l66 -160h-21z" glyph-name="egrave" horiz-adv-x="616" unicode="è"/>
<glyph d="M417.5 13q-49.5 -23 -110.5 -23q-71 0 -128.5 32.5t-90.5 91.5t-33 136q0 74 33 133.5t89.5 93t123.5 33.5q71 0 126.5 -33.5t87 -92.5t31.5 -134v-10h-472q2 -66 33 -118.5t83 -82t117 -29.5q48 0 91 17t68.5 46t25.5 63v27h20v-174h-20v84q-25 -37 -74.5 -60z M493.5 379.5q-28.5 52.5 -78.5 81.5t-114 29q-63 0 -113.5 -31t-81 -83.5t-32.5 -115.5h450q-2 67 -30.5 119.5zM344 745h22l-67 -160h-21z" glyph-name="eacute" horiz-adv-x="616" unicode="é"/>
<glyph d="M417.5 13q-49.5 -23 -110.5 -23q-71 0 -128.5 32.5t-90.5 91.5t-33 136q0 74 33 133.5t89.5 93t123.5 33.5q71 0 126.5 -33.5t87 -92.5t31.5 -134v-10h-472q2 -66 33 -118.5t83 -82t117 -29.5q48 0 91 17t68.5 46t25.5 63v27h20v-174h-20v84q-25 -37 -74.5 -60z M493.5 379.5q-28.5 52.5 -78.5 81.5t-114 29q-63 0 -113.5 -31t-81 -83.5t-32.5 -115.5h450q-2 67 -30.5 119.5zM433 585l-143 140l-144 -140h-28l164 160h16l164 -160h-29z" glyph-name="ecircumflex" horiz-adv-x="616" unicode="ê"/>
<glyph d="M417.5 13q-49.5 -23 -110.5 -23q-71 0 -128.5 32.5t-90.5 91.5t-33 136q0 74 33 133.5t89.5 93t123.5 33.5q71 0 126.5 -33.5t87 -92.5t31.5 -134v-10h-472q2 -66 33 -118.5t83 -82t117 -29.5q48 0 91 17t68.5 46t25.5 63v27h20v-174h-20v84q-25 -37 -74.5 -60z M493.5 379.5q-28.5 52.5 -78.5 81.5t-114 29q-63 0 -113.5 -31t-81 -83.5t-32.5 -115.5h450q-2 67 -30.5 119.5zM203 745h30l-10 -160h-9zM327 745h30l-10 -160h-9z" glyph-name="edieresis" horiz-adv-x="616" unicode="ë"/>
<glyph d="M20 20h120v460h-120v20h140v-480h120v-20h-260v20zM141 585l-67 160h22l66 -160h-21z" glyph-name="igrave" horiz-adv-x="290" unicode="ì"/>
<glyph d="M20 20h120v460h-120v20h140v-480h120v-20h-260v20zM204 745h22l-67 -160h-21z" glyph-name="iacute" horiz-adv-x="290" unicode="í"/>
<glyph d="M20 20h120v460h-120v20h140v-480h120v-20h-260v20zM293 585l-143 140l-144 -140h-28l164 160h16l164 -160h-29z" glyph-name="icircumflex" horiz-adv-x="290" unicode="î"/>
<glyph d="M20 20h120v460h-120v20h140v-480h120v-20h-260v20zM63 745h30l-10 -160h-9zM187 745h30l-10 -160h-9z" glyph-name="idieresis" horiz-adv-x="290" unicode="ï"/>
<glyph d="M561.5 337q13.5 -42 13.5 -87q0 -72 -34.5 -131.5t-94 -94t-131.5 -34.5t-131.5 34.5t-94 94t-34.5 131.5t34.5 131.5t94 94t131.5 34.5q74 0 135 -38q-2 2 -22 28l-69 90h-174v20h158l-77 100h25l78 -100h146v-20h-131l139 -179q25 -32 38.5 -74zM437 41.5 q55 31.5 86.5 86.5t31.5 122t-31.5 122t-86.5 86.5t-122 31.5t-122 -31.5t-86.5 -86.5t-31.5 -122t31.5 -122t86.5 -86.5t122 -31.5t122 31.5z" glyph-name="eth" horiz-adv-x="630" unicode="ð"/>
<glyph d="M120 20v460h-100v20h120v-138q24 68 76 108t118 40q102 0 159 -66t57 -184v-240h95v-20h-235v20h120v240q0 107 -52.5 168.5t-143.5 61.5q-54 0 -98.5 -30t-70 -83t-25.5 -117v-240h120v-20h-240v20h100zM167.5 684.5q25.5 21.5 59.5 21.5q26 0 48.5 -7t54.5 -20 q34 -13 54 -19t43 -6q26 0 45.5 16t19.5 36h20q0 -29 -25.5 -50.5t-59.5 -21.5q-26 0 -48.5 7t-54.5 20q-34 13 -54 19t-43 6q-26 0 -45.5 -16t-19.5 -36h-20q0 29 25.5 50.5z" glyph-name="ntilde" horiz-adv-x="660" unicode="ñ"/>
<glyph d="M183.5 24.5q-59.5 34.5 -94 94t-34.5 131.5t34.5 131.5t94 94t131.5 34.5t131.5 -34.5t94 -94t34.5 -131.5t-34.5 -131.5t-94 -94t-131.5 -34.5t-131.5 34.5zM437 41.5q55 31.5 86.5 86.5t31.5 122t-31.5 122t-86.5 86.5t-122 31.5t-122 -31.5t-86.5 -86.5t-31.5 -122 t31.5 -122t86.5 -86.5t122 -31.5t122 31.5zM306 585l-67 160h22l66 -160h-21z" glyph-name="ograve" horiz-adv-x="630" unicode="ò"/>
<glyph d="M183.5 24.5q-59.5 34.5 -94 94t-34.5 131.5t34.5 131.5t94 94t131.5 34.5t131.5 -34.5t94 -94t34.5 -131.5t-34.5 -131.5t-94 -94t-131.5 -34.5t-131.5 34.5zM437 41.5q55 31.5 86.5 86.5t31.5 122t-31.5 122t-86.5 86.5t-122 31.5t-122 -31.5t-86.5 -86.5t-31.5 -122 t31.5 -122t86.5 -86.5t122 -31.5t122 31.5zM369 745h22l-67 -160h-21z" glyph-name="oacute" horiz-adv-x="630" unicode="ó"/>
<glyph d="M183.5 24.5q-59.5 34.5 -94 94t-34.5 131.5t34.5 131.5t94 94t131.5 34.5t131.5 -34.5t94 -94t34.5 -131.5t-34.5 -131.5t-94 -94t-131.5 -34.5t-131.5 34.5zM437 41.5q55 31.5 86.5 86.5t31.5 122t-31.5 122t-86.5 86.5t-122 31.5t-122 -31.5t-86.5 -86.5t-31.5 -122 t31.5 -122t86.5 -86.5t122 -31.5t122 31.5zM458 585l-143 140l-144 -140h-28l164 160h16l164 -160h-29z" glyph-name="ocircumflex" horiz-adv-x="630" unicode="ô"/>
<glyph d="M183.5 24.5q-59.5 34.5 -94 94t-34.5 131.5t34.5 131.5t94 94t131.5 34.5t131.5 -34.5t94 -94t34.5 -131.5t-34.5 -131.5t-94 -94t-131.5 -34.5t-131.5 34.5zM437 41.5q55 31.5 86.5 86.5t31.5 122t-31.5 122t-86.5 86.5t-122 31.5t-122 -31.5t-86.5 -86.5t-31.5 -122 t31.5 -122t86.5 -86.5t122 -31.5t122 31.5zM155.5 684.5q25.5 21.5 59.5 21.5q26 0 48.5 -7t54.5 -20q34 -13 54 -19t43 -6q26 0 45.5 16t19.5 36h20q0 -29 -25.5 -50.5t-59.5 -21.5q-26 0 -48.5 7t-54.5 20q-34 13 -54 19t-43 6q-26 0 -45.5 -16t-19.5 -36h-20 q0 29 25.5 50.5z" glyph-name="otilde" horiz-adv-x="630" unicode="õ"/>
<glyph d="M183.5 24.5q-59.5 34.5 -94 94t-34.5 131.5t34.5 131.5t94 94t131.5 34.5t131.5 -34.5t94 -94t34.5 -131.5t-34.5 -131.5t-94 -94t-131.5 -34.5t-131.5 34.5zM437 41.5q55 31.5 86.5 86.5t31.5 122t-31.5 122t-86.5 86.5t-122 31.5t-122 -31.5t-86.5 -86.5t-31.5 -122 t31.5 -122t86.5 -86.5t122 -31.5t122 31.5zM228 745h30l-10 -160h-9zM352 745h30l-10 -160h-9z" glyph-name="odieresis" horiz-adv-x="630" unicode="ö"/>
<glyph d="M258.5 498.5q-8.5 8.5 -8.5 21.5t8.5 21.5t21.5 8.5t21.5 -8.5t8.5 -21.5t-8.5 -21.5t-21.5 -8.5t-21.5 8.5zM80 360h400v-20h-400v20zM258.5 158.5q-8.5 8.5 -8.5 21.5t8.5 21.5t21.5 8.5t21.5 -8.5t8.5 -21.5t-8.5 -21.5t-21.5 -8.5t-21.5 8.5z" glyph-name="divide" horiz-adv-x="560" unicode="÷"/>
<glyph d="M220 7q-45 17 -79 48l-53 -55h-27l66 68q-34 36 -53 82.5t-19 99.5q0 72 34.5 131.5t94 94t131.5 34.5q50 0 95 -17t79 -48l53 55h27l-66 -68q34 -36 53 -82.5t19 -99.5q0 -72 -34.5 -131.5t-94 -94t-131.5 -34.5q-50 0 -95 17zM315 490q-67 0 -122 -31.5t-86.5 -86.5 t-31.5 -122q0 -49 17 -92t48 -75l335 348q-67 59 -160 59zM437 41.5q55 31.5 86.5 86.5t31.5 122q0 49 -17 92t-48 75l-335 -348q67 -59 160 -59q67 0 122 31.5z" glyph-name="oslash" horiz-adv-x="630" unicode="ø"/>
<glyph d="M167 56q-57 66 -57 184v240h-95v20h115v-260q0 -107 52.5 -168.5t143.5 -61.5q54 0 98.5 30t70 83t25.5 117v240h-120v20h240v-20h-100v-460h100v-20h-120v138q-24 -68 -76 -108t-118 -40q-102 0 -159 66zM317 585l-67 160h22l66 -160h-21z" glyph-name="ugrave" horiz-adv-x="660" unicode="ù"/>
<glyph d="M167 56q-57 66 -57 184v240h-95v20h115v-260q0 -107 52.5 -168.5t143.5 -61.5q54 0 98.5 30t70 83t25.5 117v240h-120v20h240v-20h-100v-460h100v-20h-120v138q-24 -68 -76 -108t-118 -40q-102 0 -159 66zM380 745h22l-67 -160h-21z" glyph-name="uacute" horiz-adv-x="660" unicode="ú"/>
<glyph d="M167 56q-57 66 -57 184v240h-95v20h115v-260q0 -107 52.5 -168.5t143.5 -61.5q54 0 98.5 30t70 83t25.5 117v240h-120v20h240v-20h-100v-460h100v-20h-120v138q-24 -68 -76 -108t-118 -40q-102 0 -159 66zM469 585l-143 140l-144 -140h-28l164 160h16l164 -160h-29z" glyph-name="ucircumflex" horiz-adv-x="660" unicode="û"/>
<glyph d="M167 56q-57 66 -57 184v240h-95v20h115v-260q0 -107 52.5 -168.5t143.5 -61.5q54 0 98.5 30t70 83t25.5 117v240h-120v20h240v-20h-100v-460h100v-20h-120v138q-24 -68 -76 -108t-118 -40q-102 0 -159 66zM239 745h30l-10 -160h-9zM363 745h30l-10 -160h-9z" glyph-name="udieresis" horiz-adv-x="660" unicode="ü"/>
<glyph d="M70 -10v-49q0 -57 32 -94t79 -37q43 0 71.5 34.5t28.5 90.5v18q0 25 -5 44.5t-16 42.5l-230 440h-76v20h248v-20h-148l224 -431q5 -10 12 -38q4 20 12 40l193 429h-153v20h248v-20h-73l-197 -439q-10 -23 -14.5 -42.5t-4.5 -43.5v-20q0 -63 -34 -104t-86 -41 q-39 0 -69 20.5t-42 46.5v-67h-19v200h19zM334 745h22l-67 -160h-21z" glyph-name="yacute" horiz-adv-x="550" unicode="ý"/>
<glyph d="M120 -180v860h-100v20h120v-350q25 73 82.5 116.5t134.5 43.5q65 0 118.5 -34.5t84.5 -94t31 -131.5t-31 -131.5t-84.5 -94t-118.5 -34.5q-77 0 -134.5 43.5t-82.5 116.5v-330h150v-20h-270v20h100zM464 41.5q49 31.5 77 86.5t28 122t-28 122t-77 86.5t-109 31.5 t-109 -31.5t-77.5 -86.5t-28.5 -122t28.5 -122t77.5 -86.5t109 -31.5t109 31.5z" glyph-name="thorn" horiz-adv-x="646" unicode="þ"/>
<glyph d="M20 20h120v460h-120v20h140v-480h120v-20h-260v20z" glyph-name="dotlessi" horiz-adv-x="290" unicode="ı"/>
<glyph d="M-71 -40v-19q0 -57 32 -94t79 -37q43 0 71.5 34.5t28.5 90.5v165v380h-120v20h140v-565q0 -63 -34 -104t-86 -41q-39 0 -69 20.5t-42 46.5v-67h-19v170h19z" glyph-name="uni0237" horiz-adv-x="290" unicode="ȷ"/>
<glyph d="M-309 585l-67 160h22l66 -160h-21z" glyph-name="gravecomb" horiz-adv-x="0" unicode="̀"/>
<glyph d="M-246 745h22l-67 -160h-21z" glyph-name="acutecomb" horiz-adv-x="0" unicode="́"/>
<glyph d="M-157 585l-143 140l-144 -140h-28l164 160h16l164 -160h-29z" glyph-name="uni0302" horiz-adv-x="0" unicode="̂"/>
<glyph d="M-459.5 684.5q25.5 21.5 59.5 21.5q26 0 48.5 -7t54.5 -20q34 -13 54 -19t43 -6q26 0 45.5 16t19.5 36h20q0 -29 -25.5 -50.5t-59.5 -21.5q-26 0 -48.5 7t-54.5 20q-34 13 -54 19t-43 6q-26 0 -45.5 -16t-19.5 -36h-20q0 29 25.5 50.5z" glyph-name="tildecomb" horiz-adv-x="0" unicode="̃"/>
<glyph d="M-317 745h34l-12 -160h-10z" glyph-name="uni0307" horiz-adv-x="0" unicode="̇"/>
<glyph d="M-377 745h30l-10 -160h-9zM-253 745h30l-10 -160h-9z" glyph-name="uni0308" horiz-adv-x="0" unicode="̈"/>
<glyph d="M-385 620q-35 35 -35 85t35 85t85 35q49 0 84.5 -35t35.5 -85q0 -49 -35.5 -84.5t-84.5 -35.5q-50 0 -85 35zM-229.5 634.5q29.5 29.5 29.5 70.5t-29.5 70.5t-70.5 29.5q-42 0 -71 -29t-29 -71t29 -71t71 -29q41 0 70.5 29.5z" glyph-name="uni030A" horiz-adv-x="0" unicode="̊"/>
<glyph d="M-366 -245l67 160h21l-66 -160h-22z" glyph-name="uni0327" horiz-adv-x="0" unicode="̧"/>
<glyph d="M80 310h380v-20h-380v20z" glyph-name="endash" horiz-adv-x="540" unicode="–"/>
<glyph d="M108 350l109 -200h-21l-106 194v12l106 194h21zM268 350l109 -200h-21l-106 194v12l106 194h21z" glyph-name="guillemotleft.case" horiz-adv-x="467"/>
<glyph d="M359 350l-109 200h21l106 -194v-12l-106 -194h-21zM199 350l-109 200h21l106 -194v-12l-106 -194h-21z" glyph-name="guillemotright.case" horiz-adv-x="467"/>
<glyph d="M225 33q-84 48 -132 132t-48 185t48 185t132 132t185 48t185 -48t132 -132t48 -185q0 -112 -56 -198h-159v120q-19 -58 -74.5 -93.5t-125.5 -35.5q-65 0 -99 28.5t-34 74.5q0 67 60.5 92t155.5 31q57 4 86.5 13t29.5 33q0 56 -39.5 94.5t-100.5 38.5q-28 0 -59 -12.5 t-52 -33t-21 -41.5v-42h-20v164h20v-77q19 27 55.5 44.5t76.5 17.5q70 0 115.5 -45t45.5 -118v-233h128q47 80 47 178q0 96 -45.5 175t-124.5 124.5t-175 45.5t-175 -45.5t-124.5 -124.5t-45.5 -175t45.5 -175t124.5 -124.5t175 -45.5q70 0 133 25t111 72l14 -13 q-50 -50 -117 -77t-141 -27q-101 0 -185 48zM462.5 186.5q45.5 23.5 71.5 63t26 86.5v39q-14 -11 -41 -16.5t-75 -8.5q-105 -8 -151 -32t-46 -72q0 -40 30.5 -61.5t82.5 -21.5q57 0 102.5 23.5z" glyph-name="at.case"/>
</font>
</defs>
</svg>
