<?xml version="1.0" encoding="UTF-8"?>
<!DOCTYPE svg  PUBLIC '-//W3C//DTD SVG 1.1//EN'  'http://www.w3.org/Graphics/SVG/1.1/DTD/svg11.dtd'>
<svg version="1.1" xmlns="http://www.w3.org/2000/svg">
<defs>
<font id="KyivTypeSerif-Heavy3" horiz-adv-x="820">
<font-face font-family="KyivType Serif Heavy3" font-weight="800" ascent="800" bbox="-506 -265 1019 1029" cap-height="700" descent="-200" panose-1="0 0 9 0 0 0 0 0 0 0" underline-position="-100" underline-thickness="50" unicode-range="U+0020-2013" units-per-em="1000" x-height="500"/>
<missing-glyph/>
<glyph glyph-name="space" horiz-adv-x="250" unicode=" "/>
<glyph d="M108 680h-103v20h382v-20h-103l-28 -402h-120zM118.5 20.5q-31.5 31.5 -31.5 77.5t31.5 77.5t77.5 31.5q47 0 78 -31t31 -78q0 -46 -31 -77.5t-78 -31.5q-46 0 -77.5 31.5z" glyph-name="exclam" horiz-adv-x="392" unicode="!"/>
<glyph d="M374 700l-90 -261h-10l-74 216l-75 -216h-10l-89 261h348z" glyph-name="quotedbl" horiz-adv-x="399" unicode='"'/>
<glyph d="M460 426v-151h150v-159h-150v-131h-20v131h-180v-131h-20v131h-150v159h150v151h-150v158h150v131h20v-131h180v131h20v-131h150v-158h-150zM440 426h-180v-151h180v151z" glyph-name="numbersign" horiz-adv-x="700" unicode="#"/>
<glyph d="M138 25l-41 10v-97h-20l-1 358h18v-38q2 -56 61.5 -113.5t149 -94t175.5 -36.5q44 0 73 22t29 55q0 29 -23.5 51t-60 39.5t-99.5 41.5q-97 39 -158 72t-105.5 88t-44.5 134q0 58 29 103t85 70t132 25h11v115h20v-116q43 -3 84 -12t91 -23l38 -11v98h20v-331h-18v36 q0 40 -56.5 88t-138 81.5t-149.5 33.5q-41 0 -64.5 -19.5t-23.5 -50.5t26 -56t65.5 -44t110.5 -48q95 -40 155 -72t103 -81t43 -115q0 -99 -63.5 -151t-181.5 -52q-28 0 -41 1v-116h-20v117q-95 7 -210 38z" glyph-name="dollar" horiz-adv-x="700" unicode="$"/>
<glyph d="M119 406q-37 21 -58 58t-21 81t21 81t58 58t81 21t81 -21t58 -58t21 -81t-21 -81t-58 -58t-81 -21t-81 21zM580 700l-398 -700h-22l398 700h22zM249 442q18 37 18 103t-18 103t-49 37t-49 -37t-18 -103t18 -103t49 -37t49 37zM459 16q-37 21 -58 58t-21 81t21 81t58 58 t81 21t81 -21t58 -58t21 -81t-21 -81t-58 -58t-81 -21t-81 21zM589 52q18 37 18 103t-18 103t-49 37t-49 -37t-18 -103t18 -103t49 -37t49 37z" glyph-name="percent" horiz-adv-x="737" unicode="%"/>
<glyph d="M158 11q-65 26 -100 73t-35 108q0 80 59 133.5t162 67.5h1l-197 294v13h525v70h20v-285h-17v43q0 35 -41 70t-97 58.5t-93 23.5h-91l339 -505q47 70 52 205h-93v20h276v-20h-51q-17 0 -36 -16.5t-42 -47.5q-56 -102 -97 -153l95 -143h78v-20h-266l-29 41 q-73 -56 -168 -56q-89 0 -154 26zM469 56l-214 322h-4q-37 -19 -59.5 -68.5t-22.5 -110.5q0 -83 36.5 -140.5t106.5 -57.5q89 0 157 55z" glyph-name="ampersand" horiz-adv-x="782" unicode="&amp;"/>
<glyph d="M215 700l-90 -261h-10l-89 261h189z" glyph-name="quotesingle" horiz-adv-x="241" unicode="'"/>
<glyph d="M249.5 -55.5q-71.5 59.5 -111.5 165.5t-40 240t40 240t111.5 165.5t160.5 59.5v-15q-75 0 -116 -117.5t-41 -332.5t41 -332.5t116 -117.5v-15q-89 0 -160.5 59.5z" glyph-name="parenleft" horiz-adv-x="500" unicode="("/>
<glyph d="M250.5 755.5q71.5 -59.5 111.5 -165.5t40 -240t-40 -240t-111.5 -165.5t-160.5 -59.5v15q75 0 116 117.5t41 332.5t-41 332.5t-116 117.5v15q89 0 160.5 -59.5z" glyph-name="parenright" horiz-adv-x="500" unicode=")"/>
<glyph d="M212 574h119l19 -69l-68 -20l-78 69l9 -100h-37l9 100l-77 -69l-69 20l19 69h119l-147 45v69l64 17l88 -105l-50 141l63 53l63 -53l-50 -141l88 105l64 -17v-69z" glyph-name="asterisk" horiz-adv-x="390" unicode="*"/>
<glyph d="M480 340h-190v-190h-20v190h-190v20h190v190h20v-190h190v-20z" glyph-name="plus" horiz-adv-x="560" unicode="+"/>
<glyph d="M107 -83q48 16 82.5 45t47.5 66q-37 -32 -78 -32q-45 0 -76.5 30t-31.5 74q0 45 31.5 76t79.5 31t78 -32t30 -85q0 -54 -29.5 -106t-72.5 -74h-61v7z" glyph-name="comma" horiz-adv-x="312" unicode=","/>
<glyph d="M80 327h240v-54h-240v54z" glyph-name="hyphen" horiz-adv-x="400" unicode="-"/>
<glyph d="M82.5 20.5q-31.5 31.5 -31.5 77.5t31.5 77.5t77.5 31.5q47 0 78 -31t31 -78q0 -46 -31 -77.5t-78 -31.5q-46 0 -77.5 31.5z" glyph-name="period" horiz-adv-x="321" unicode="."/>
<glyph d="M408 700l-338 -700h-20l338 700h20z" glyph-name="slash" horiz-adv-x="458" unicode="/"/>
<glyph d="M209 32q-72 47 -112.5 130.5t-40.5 187.5t40.5 187.5t112.5 130.5t162 47t162 -47t112.5 -130.5t40.5 -187.5t-40.5 -187.5t-112.5 -130.5t-162 -47t-162 47zM444.5 44.5q31.5 43.5 49 122.5t17.5 183t-17.5 183t-49 122.5t-73.5 43.5t-73.5 -43.5t-49 -122.5t-17.5 -183 t17.5 -183t49 -122.5t73.5 -43.5t73.5 43.5z" glyph-name="zero" horiz-adv-x="742" unicode="0"/>
<glyph d="M4 20h136v576l-134 -109v26l226 187h70v-680h118v-20h-416v20z" glyph-name="one" horiz-adv-x="414" unicode="1"/>
<glyph d="M38 0v15l265 197q67 50 104 114q-43 -28 -90 -28q-83 0 -148 26.5t-101 74t-36 108.5q0 60 36 107.5t101 74t148 26.5q84 0 149 -25.5t101.5 -71.5t36.5 -107q0 -51 -32 -97t-82 -87t-143 -107l-44 -31l-67 -50h248q91 0 91 59v76h19v-344h-20v70h-536zM414.5 361.5 q31.5 46.5 31.5 119.5q0 110 -34.5 165.5t-94.5 55.5q-57 0 -92 -53.5t-35 -141.5q0 -87 35 -139.5t92 -52.5q66 0 97.5 46.5z" glyph-name="two" horiz-adv-x="650" unicode="2"/>
<glyph d="M59 288v-20q0 -54 36.5 -116.5t90.5 -105t102 -42.5q52 0 79.5 50t27.5 133q0 84 -29.5 129.5t-74.5 45.5q-44 0 -83 -33l-14 -12l-13 15l239 228h-229q-44 0 -66.5 -4.5t-32.5 -18.5t-10 -42v-26h-19v301h20v-70h493v-18l-326 -311q44 20 95 20q63 0 114.5 -22.5 t81.5 -65t30 -99.5q0 -59 -33 -108t-97.5 -78t-155.5 -29q-40 0 -70.5 5t-73.5 16q-46 11 -79 17v-77h-20v338h17z" glyph-name="three" horiz-adv-x="600" unicode="3"/>
<glyph d="M355 20v155h-361v15l400 510h124v-396h117q2 0 2 2v85h20v-272h-20v56h-119v-155h103v-20h-369v20h103zM355 304v315l-248 -315h248z" glyph-name="four" horiz-adv-x="671" unicode="4"/>
<glyph d="M72 228v-10q0 -36 39 -86t91 -86.5t87 -36.5q44 0 73 49.5t29 131.5q0 98 -36.5 150t-94.5 52q-49 0 -92 -23t-70 -69l-18 4l63 396h273q53 0 71.5 9.5t18.5 43.5v32h18v-300h-20v75h-364l-33 -217q31 36 79 57t111 21q77 0 138.5 -26t97 -75t35.5 -114q0 -59 -30 -108 t-92 -79t-152 -30q-62 0 -108.5 9.5t-75 18t-35.5 10.5v-77h-20v278h17z" glyph-name="five" horiz-adv-x="601" unicode="5"/>
<glyph d="M207 31q-71 46 -111 128t-40 185q0 106 40 190.5t109 132.5t152 48q60 0 107.5 -8.5t98.5 -22.5v66h20v-273h-18v11q0 35 -38.5 85.5t-89 88t-81.5 37.5q-34 0 -63.5 -43.5t-47 -123t-17.5 -182.5q0 -12 1 -18q22 60 71 92t124 32q64 0 115 -30t80 -83t29 -118 q0 -70 -36 -124.5t-99.5 -85t-145.5 -30.5q-89 0 -160 46zM458 59q34 58 34 152q0 96 -35 154.5t-91 58.5q-51 0 -88 -44t-45 -113q6 -119 43 -192.5t93 -73.5q55 0 89 58z" glyph-name="six" horiz-adv-x="681" unicode="6"/>
<glyph d="M164 20q0 7 2 19q27 132 104.5 269t190.5 252h-288q-44 0 -66.5 -4.5t-33 -18.5t-10.5 -42v-68h-20v343h20v-70h505v-16q-100 -125 -163 -291t-67 -350v-23h144v-20h-402v20h84z" glyph-name="seven" horiz-adv-x="561" unicode="7"/>
<glyph d="M192 9.5q-71 24.5 -111.5 67.5t-40.5 97q0 67 51 114.5t160 68.5q-51 9 -92.5 35.5t-64.5 63t-23 73.5q0 53 36 95t100.5 66t144.5 24t144 -24t100.5 -66t36.5 -95q0 -37 -23 -73.5t-64.5 -63t-93.5 -35.5q110 -21 161 -68.5t51 -114.5q0 -54 -40.5 -97t-111.5 -67.5 t-160 -24.5t-160 24.5zM446 407.5q36 46.5 36 122.5t-35.5 122t-94.5 46t-95 -46t-36 -122t36 -122.5t95 -46.5q58 0 94 46.5zM451.5 48.5q37.5 47.5 37.5 125.5q0 77 -38 124t-99 47t-99 -47t-38 -124q0 -78 37.5 -125.5t99.5 -47.5t99.5 47.5z" glyph-name="eight" horiz-adv-x="704" unicode="8"/>
<glyph d="M474.5 669q71.5 -46 111.5 -128t40 -185q0 -106 -40 -190.5t-109.5 -132.5t-152.5 -48q-98 0 -205 32v-67h-20v273h17v-11q0 -35 38.5 -85.5t89 -88t82.5 -37.5q34 0 63.5 43.5t47 123t17.5 182.5l-1 18q-22 -60 -71 -92t-124 -32q-64 0 -115.5 30t-80.5 83t-29 118 q0 70 36 124.5t100 85t145 30.5q89 0 160.5 -46zM224 641q-34 -58 -34 -152q0 -97 34.5 -155t91.5 -58q51 0 87.5 44t44.5 113q-6 119 -42.5 192.5t-92.5 73.5q-55 0 -89 -58z" glyph-name="nine" horiz-adv-x="681" unicode="9"/>
<glyph d="M82.5 20.5q-31.5 31.5 -31.5 77.5t31.5 77.5t77.5 31.5q47 0 78 -31t31 -78q0 -46 -31 -77.5t-78 -31.5q-46 0 -77.5 31.5zM82.5 319.5q-31.5 31.5 -31.5 77.5t31.5 77.5t77.5 31.5q47 0 78 -31t31 -78q0 -46 -31 -77.5t-78 -31.5q-46 0 -77.5 31.5z" glyph-name="colon" horiz-adv-x="321" unicode=":"/>
<glyph d="M107 -83q48 16 82.5 45t47.5 66q-37 -32 -78 -32q-45 0 -76.5 30t-31.5 74q0 45 31.5 76t79.5 31t78 -32t30 -85q0 -54 -29.5 -106t-72.5 -74h-61v7zM82.5 319.5q-31.5 31.5 -31.5 77.5t31.5 77.5t77.5 31.5q47 0 78 -31t31 -78q0 -46 -31 -77.5t-78 -31.5 q-46 0 -77.5 31.5z" glyph-name="semicolon" horiz-adv-x="322" unicode=";"/>
<glyph d="M480 527l-375 -177l375 -177v-23l-400 190v20l400 190v-23z" glyph-name="less" horiz-adv-x="560" unicode="&lt;"/>
<glyph d="M80 450h400v-20h-400v20zM80 270h400v-20h-400v20z" glyph-name="equal" horiz-adv-x="560" unicode="="/>
<glyph d="M80 173l375 177l-375 177v23l400 -190v-20l-400 -190v23z" glyph-name="greater" horiz-adv-x="560" unicode="&gt;"/>
<glyph d="M220 309q1 38 15 65.5t45 71.5q24 35 37 67t13 75q0 49 -20.5 80t-57.5 31q-31 0 -66.5 -32t-65 -83t-42.5 -103l-3 -21h-12l1 305h16v-90q10 3 28 11q40 15 69.5 22t74.5 7q57 0 110 -15.5t87 -49.5t34 -87q0 -35 -16 -60.5t-39 -43.5t-62 -42q-40 -23 -65 -42.5 t-42 -47.5t-17 -67h-14q-8 23 -8 49zM179.5 20.5q-31.5 31.5 -31.5 77.5q0 47 31.5 78t77.5 31q47 0 78 -31t31 -78q0 -46 -31 -77.5t-78 -31.5q-46 0 -77.5 31.5z" glyph-name="question" horiz-adv-x="527" unicode="?"/>
<glyph d="M225 -119q-84 48 -132 132t-48 185t48 185t132 132t185 48t185 -48t132 -132t48 -185q0 -111 -56 -198h-235v93q-36 -102 -163 -102q-62 0 -96.5 29t-34.5 77q0 101 157 116q75 7 106 28t32 67q0 46 -17 68.5t-48 22.5q-28 0 -64.5 -21.5t-62.5 -54t-26 -63.5v-17h-19 v208h20v-51q40 4 68 10q52 8 76 8q89 0 139.5 -45.5t50.5 -127.5v-227h105q48 85 48 180q0 96 -45.5 175t-124.5 124.5t-175 45.5t-175 -45.5t-124.5 -124.5t-45.5 -175t45.5 -175t124.5 -124.5t175 -45.5q71 0 134 25.5t110 71.5l14 -13q-50 -49 -116.5 -76.5t-141.5 -27.5 q-101 0 -185 48zM429.5 43.5q24.5 18.5 39.5 53t15 80.5v71q-22 -35 -76 -44q-48 -8 -71 -32t-23 -66q0 -36 18 -58.5t46 -22.5q27 0 51.5 18.5z" glyph-name="at" unicode="@"/>
<glyph d="M-80 20h89l227 581l-25 79h-78v20h254l235 -680h90v-20h-408v20h134l-72 209h-252l-82 -209h159v-20h-271v20zM360 249l-113 321l-125 -321h238z" glyph-name="A" horiz-adv-x="647" unicode="A"/>
<glyph d="M112 20v660h-103v20h343q143 0 224.5 -47.5t81.5 -132.5q0 -62 -47.5 -104.5t-134.5 -59.5v-5q100 -14 155 -58t55 -113q0 -84 -79.5 -132t-219.5 -48h-378v20h103zM448.5 401.5q35.5 41.5 35.5 118.5q0 78 -35.5 119t-102.5 41h-54v-320h54q67 0 102.5 41.5zM468.5 61 q34.5 41 34.5 119t-35 119t-101 41h-75v-320h77q65 0 99.5 41z" glyph-name="B" horiz-adv-x="705" unicode="B"/>
<glyph d="M218 31.5q-81 46.5 -126.5 129.5t-45.5 189t45.5 189t126.5 129.5t185 46.5q29 0 55.5 -4t64.5 -12q43 -9 77 -14v80h20v-322h-18v19q0 48 -33.5 103.5t-83 93.5t-91.5 38q-76 0 -118 -86.5t-42 -260.5q0 -177 43 -262t118 -85q48 0 102 42.5t90.5 105t36.5 116.5v21h17 l1 -346h-20l-1 76l-82 -15q-43 -9 -73 -13.5t-63 -4.5q-104 0 -185 46.5z" glyph-name="C" horiz-adv-x="719" unicode="C"/>
<glyph d="M554.5 655.5q86.5 -44.5 135 -124t48.5 -181.5t-48.5 -181.5t-135 -124t-198.5 -44.5h-347v20h103v660h-103v20h347q112 0 198.5 -44.5zM501.5 101.5q48.5 81.5 48.5 248.5q0 168 -48.5 249t-144.5 81h-65v-660h65q96 0 144.5 81.5z" glyph-name="D" horiz-adv-x="784" unicode="D"/>
<glyph d="M9 0v20h103v660h-103v20h549v70h20v-304h-17v39q0 35 -29 76.5t-77 70t-101 28.5h-62v-320h65q42 0 67.5 29t25.5 64v33h14v-272h-14v33q0 35 -25.5 64t-67.5 29h-65v-320h71q63 0 119.5 33t91 80.5t34.5 86.5v39h18v-329h-20v70h-597z" glyph-name="E" horiz-adv-x="661" unicode="E"/>
<glyph d="M112 20v660h-103v20h557v70h20v-320h-17v38q0 38 -29 83.5t-77 77t-101 31.5h-70v-320h65q42 0 67.5 29t25.5 64v33h14v-272h-14v33q0 35 -25.5 64t-67.5 29h-65v-320h124v-20h-407v20h103z" glyph-name="F" horiz-adv-x="599" unicode="F"/>
<glyph d="M679.5 59.5q-11.5 13.5 -26.5 13.5q-16 -3 -31 -10.5t-38 -21.5q-45 -27 -84 -41.5t-98 -14.5q-103 0 -184 46.5t-126.5 129.5t-45.5 189t45.5 189t126.5 129.5t185 46.5q31 0 60 -4t67 -12q48 -10 82 -14v80h20v-322h-18v19q0 48 -32.5 103.5t-82.5 93.5t-97 38 q-80 0 -124 -86t-44 -261q0 -178 44 -262.5t124 -84.5q61 0 102.5 35t41.5 117v185h-139v20h399v-20h-95v-385h-20v68q0 23 -11.5 36.5z" glyph-name="G" horiz-adv-x="790" unicode="G"/>
<glyph d="M9 20h103v660h-103v20h382v-20h-99v-320h236v320h-98v20h381v-20h-103v-660h103v-20h-381v20h98v320h-236v-320h99v-20h-382v20z" glyph-name="H" unicode="H"/>
<glyph d="M9 20h103v660h-103v20h386v-20h-103v-660h103v-20h-386v20z" glyph-name="I" horiz-adv-x="404" unicode="I"/>
<glyph d="M38 288v-21q0 -51 31.5 -113.5t76.5 -106.5t83 -44q33 0 44.5 44t11.5 150v483h-155v20h438v-20h-104v-427q0 -87 -33 -147.5t-85.5 -90.5t-111.5 -30q-38 0 -99 14q-9 2 -37.5 7.5t-57.5 8.5v-80h-20v353h18z" glyph-name="J" horiz-adv-x="561" unicode="J"/>
<glyph d="M9 20h103v660h-103v20h386v-20h-103v-320h40l277 320h-139v20h274v-20h-108l-172 -199l287 -461h83v-20h-402v20h114l-205 320h-49v-320h103v-20h-386v20z" glyph-name="K" horiz-adv-x="755" unicode="K"/>
<glyph d="M9 0v20h103v660h-103v20h407v-20h-124v-660h68q64 0 120.5 34t90.5 84t34 91v58h18v-357h-20v70h-594z" glyph-name="L" horiz-adv-x="632" unicode="L"/>
<glyph d="M43 20h103v569l-47 91h-90v20h287l230 -462l178 462h279v-20h-103v-660h103v-20h-386v20h103v612l-240 -632h-14l-278 552v-532h132v-20h-257v20z" glyph-name="M" horiz-adv-x="992" unicode="M"/>
<glyph d="M134 579v-559h149v-20h-274v20h103v586l-59 74h-78v20h287l359 -460v440h-124v20h249v-20h-103v-725h-15z" glyph-name="N" horiz-adv-x="754" unicode="N"/>
<glyph d="M221.5 31.5q-82.5 46.5 -129 129.5t-46.5 189t46.5 189t129 129.5t188.5 46.5t188.5 -46.5t129 -129.5t46.5 -189t-46.5 -189t-129 -129.5t-188.5 -46.5t-188.5 46.5zM586 350q0 347 -176 347t-176 -347t176 -347t176 347z" glyph-name="O" unicode="O"/>
<glyph d="M112 20v660h-103v20h341q139 0 218 -53t79 -147t-79 -147t-218 -53h-58v-280h124v-20h-407v20h103zM434 366.5q34 46.5 34 133.5t-34 133.5t-98 46.5h-44v-360h44q64 0 98 46.5z" glyph-name="P" horiz-adv-x="677" unicode="P"/>
<glyph d="M329 -180v173q-84 16 -148 65.5t-99.5 124.5t-35.5 167q0 106 46.5 189t129 129.5t188.5 46.5t188.5 -46.5t129 -129.5t46.5 -189q0 -92 -35 -167t-99 -124.5t-148 -65.5v-173h121v-20h-406v20h122zM586 350q0 347 -176 347t-176 -347t176 -347t176 347z" glyph-name="Q" unicode="Q"/>
<glyph d="M112 20v660h-103v20h338q145 0 227 -50t82 -139q0 -49 -38 -86.5t-102 -61.5l200 -343h82v-20h-398v20h113l-177 307h-44v-307h78v-20h-361v20h103zM445.5 390q36.5 43 36.5 123q0 81 -36.5 124t-105.5 43h-48v-333h48q69 0 105.5 43z" glyph-name="R" horiz-adv-x="711" unicode="R"/>
<glyph d="M69 296v-38q2 -56 61 -113.5t148.5 -94t175.5 -36.5q44 0 73 22t29 55q0 29 -23.5 51t-60 39.5t-99.5 41.5q-97 39 -158 72t-105.5 88t-44.5 134q0 58 29 103t85 70t132 25q51 0 98.5 -9.5t111.5 -27.5l35 -10v98h20v-331h-19v36q0 40 -56.5 88t-138.5 81.5t-150 33.5 q-40 0 -63.5 -19.5t-23.5 -50.5t26 -56t65.5 -44t110.5 -48q95 -40 155 -72t103 -81t43 -115q0 -99 -63.5 -151t-181.5 -52q-74 0 -134 10.5t-132 28.5l-46 11v-97h-20l-1 358h19z" glyph-name="S" horiz-adv-x="655" unicode="S"/>
<glyph d="M276 20v660h-50q-35 0 -76.5 -31.5t-70 -77.5t-28.5 -85v-36h-18v320h20v-70h626v70h20v-320h-17v36q0 39 -28.5 85t-70 77.5t-76.5 31.5h-51v-660h124v-20h-427v20h123z" glyph-name="T" horiz-adv-x="732" unicode="T"/>
<glyph d="M231.5 19.5q-62.5 34.5 -96.5 98.5t-34 149v413h-103v20h390v-20h-108v-413q0 -129 44.5 -186.5t128.5 -57.5q51 0 91.5 32.5t63 90.5t22.5 133v401h-108v20h231v-20h-103v-401q0 -139 -72 -216.5t-200 -77.5q-84 0 -146.5 34.5z" glyph-name="U" horiz-adv-x="746" unicode="U"/>
<glyph d="M17 680h-87v20h413v-20h-134l203 -554l201 554h-161v20h270v-20h-88l-245 -680h-125z" glyph-name="V" horiz-adv-x="650" unicode="V"/>
<glyph d="M19 680h-87v20h365v-20h-87l161 -539l95 295l-75 244h-66v20h382v-20h-123l165 -539l162 539h-114v20h222v-20h-87l-205 -680h-125l-126 404l-126 -404h-125z" glyph-name="W" horiz-adv-x="949" unicode="W"/>
<glyph d="M-76 20h123l205 311l-230 349h-88v20h418v-20h-125l165 -248l164 248h-124v20h239v-20h-92l-175 -265l259 -395h87v-20h-431v20h139l-195 294l-193 -294h160v-20h-306v20z" glyph-name="X" horiz-adv-x="648" unicode="X"/>
<glyph d="M105 20h124v262l-205 398h-90v20h418v-20h-136l187 -369l189 369h-136v20h249v-20h-91l-205 -401v-259h124v-20h-428v20z" glyph-name="Y" horiz-adv-x="634" unicode="Y"/>
<glyph d="M389 680h-111q-56 0 -106 -28.5t-80 -70t-30 -76.5v-39h-17v304h20v-70h527v-12l-377 -668h110q68 0 126.5 33t93 80t34.5 87v39h18v-329h-20v70h-565v12z" glyph-name="Z" horiz-adv-x="615" unicode="Z"/>
<glyph d="M126 800h298v-20h-152v-860h152v-20h-298v900z" glyph-name="bracketleft" horiz-adv-x="500" unicode="["/>
<glyph d="M70 700l338 -700h-20l-338 700h20z" glyph-name="backslash" horiz-adv-x="458" unicode="\"/>
<glyph d="M76 -100v20h152v860h-152v20h298v-900h-298z" glyph-name="bracketright" horiz-adv-x="500" unicode="]"/>
<glyph d="M270 700h20l167 -290h-23l-154 267l-154 -267h-23z" glyph-name="asciicircum" horiz-adv-x="560" unicode="^"/>
<glyph d="M30 20h380v-20h-380v20z" glyph-name="underscore" horiz-adv-x="440" unicode="_"/>
<glyph d="M59 25q-42 35 -42 93q0 124 192 142q93 8 131.5 33.5t38.5 81.5q0 63 -20 91.5t-59 28.5q-34 0 -80 -30t-79.5 -71.5t-33.5 -75.5v-22h-19v256h20v-62q35 3 84 11q59 9 97 9q108 0 167.5 -55.5t59.5 -155.5v-279h83v-20h-221v112q-45 -122 -200 -122q-77 0 -119 35z M310 49q30 23 49 66t19 100v92q-26 -40 -94 -54q-59 -9 -88 -40t-29 -85q0 -45 23 -73.5t57 -28.5q33 0 63 23z" glyph-name="a" horiz-adv-x="605" unicode="a"/>
<glyph d="M312.5 18.5q-41.5 28.5 -63.5 84.5v-103h-150v680h-91v20h241v-303q22 56 63.5 84.5t99.5 28.5q62 0 111.5 -32t78.5 -91t29 -137t-29 -137t-78.5 -91t-111.5 -32q-58 0 -99.5 28.5zM472 250q0 228 -106 228q-36 0 -64 -30t-44 -82t-16 -116t16 -116t44 -82t64 -30 q106 0 106 228z" glyph-name="b" horiz-adv-x="673" unicode="b"/>
<glyph d="M401 -4q-41 -6 -79 -6q-81 0 -144.5 33t-99 92t-35.5 135t35.5 135t99 92t144.5 33q41 0 123 -14l33 -6v65h20v-259h-19v22q0 34 -27.5 75.5t-66 71t-67.5 29.5q-56 0 -86.5 -61t-30.5 -183t30.5 -183t86.5 -61q33 0 75 29.5t72.5 72t33.5 77.5v22h18v-256h-20v61 q-55 -10 -96 -16z" glyph-name="c" horiz-adv-x="587" unicode="c"/>
<glyph d="M149.5 22q-49.5 32 -78 91t-28.5 137t28.5 137t78 91t110.5 32q120 0 164 -113v283h-92v20h242v-680h92v-20h-242v103q-44 -113 -164 -113q-61 0 -110.5 32zM371 52q28 30 43.5 82t15.5 116t-15.5 116t-43.5 82t-64 30q-106 0 -106 -228t106 -228q36 0 64 30z" glyph-name="d" horiz-adv-x="673" unicode="d"/>
<glyph d="M406 -4q-41 -6 -80 -6q-83 0 -147 33t-100 92t-36 135t34 135t95.5 92t140.5 33q81 0 140.5 -32.5t92 -90.5t35.5 -135v-12h-380q1 -113 32.5 -174t81.5 -61q34 0 79 28t77.5 67t32.5 68v14h18v-231h-20v61q-55 -10 -96 -16zM313 494q-53 0 -82 -59.5t-30 -174.5h223 q-3 234 -111 234z" glyph-name="e" horiz-adv-x="625" unicode="e"/>
<glyph d="M99 20v460h-91v20h91v14q0 98 37 152t103 54q45 0 119 -10q44 -6 71 -8v48h20v-220h-19v14q0 20 -39 58t-88.5 68t-78.5 30q-23 0 -36 -12t-13 -34q0 -19 6 -34.5t20 -39.5q26 -45 36 -80h162v-20h-158q8 -35 8 -81v-379h134v-20h-375v20h91z" glyph-name="f" horiz-adv-x="362" unicode="f"/>
<glyph d="M116.5 -169q-79.5 41 -79.5 115q0 59 56 98.5t159 52.5q-136 10 -215 40t-79 98q0 29 20.5 48t52.5 19q22 0 48 -13q-14 21 -14 53q0 65 52 108t145 54v104h-103v20h356v-20h-103v-103q96 -11 149.5 -54t53.5 -109q0 -78 -73.5 -123t-201.5 -45q-61 0 -105 11t-70.5 25.5 t-56.5 36.5q-24 18 -40.5 26.5t-36.5 8.5q-24 0 -38 -12t-14 -32q0 -45 41.5 -70t102 -35.5t163.5 -20.5q84 -8 124 -14q117 -18 173.5 -54t56.5 -98q0 -74 -79.5 -115t-222.5 -41q-142 0 -221.5 41zM429.5 229q32.5 41 32.5 115t-32.5 115t-89.5 41q-58 0 -90.5 -41 t-32.5 -115t32.5 -115t90.5 -41q57 0 89.5 41zM432 -160q33 37 33 106q0 70 -32.5 107t-94.5 37q-61 0 -94 -37t-33 -107q0 -69 33 -106t94 -37t94 37z" glyph-name="g" horiz-adv-x="646" unicode="g"/>
<glyph d="M99 20v660h-91v20h241v-303q19 55 60.5 84t100.5 29q85 0 131.5 -59t46.5 -169v-262h87v-20h-315v20h78v262q0 97 -21 144t-65 47q-46 0 -74.5 -58t-28.5 -155v-240h77v-20h-318v20h91z" glyph-name="h" horiz-adv-x="681" unicode="h"/>
<glyph d="M8 20h94v460h-94v20h244v-480h95v-20h-339v20zM80 745h190l-90 -194h-10z" glyph-name="i" horiz-adv-x="353" unicode="i"/>
<glyph d="M-17 -23v-12q0 -33 29.5 -68.5t68 -60.5t60.5 -25q19 0 30 11.5t11 31.5t-7 37.5t-22 42.5q-24 43 -37.5 82.5t-13.5 101.5v362h-94v20h244v-507q0 -96 -34.5 -149.5t-96.5 -53.5q-36 0 -96 12l-42 7v-58h-20v226h20zM83 745h190l-90 -194h-10z" glyph-name="j" horiz-adv-x="345" unicode="j"/>
<glyph d="M8 20h91v660h-91v20h241v-440h37l201 220h-120v20h238v-20h-90l-120 -132l211 -328h81v-20h-334v20h81l-145 220h-40v-220h79v-20h-320v20z" glyph-name="k" horiz-adv-x="617" unicode="k"/>
<glyph d="M8 20h94v660h-94v20h244v-680h97v-20h-341v20z" glyph-name="l" horiz-adv-x="356" unicode="l"/>
<glyph d="M99 20v460h-91v20h241v-101q20 54 59 82.5t96 28.5q64 0 105.5 -35t57.5 -101q15 66 57 101t107 35q83 0 127.5 -59t44.5 -169v-262h87v-20h-311v20h74v262q0 98 -19 144.5t-60 46.5q-44 0 -71 -52t-27 -131v-270h74v-20h-298v20h74v262q0 98 -19 144.5t-60 46.5 q-44 0 -71 -58t-27 -155v-240h74v-20h-315v20h91z" glyph-name="m" horiz-adv-x="996" unicode="m"/>
<glyph d="M99 20v460h-91v20h241v-103q19 55 60.5 84t100.5 29q85 0 131.5 -59t46.5 -169v-262h87v-20h-317v20h80v262q0 97 -21 144t-65 47q-46 0 -74.5 -58t-28.5 -155v-240h77v-20h-318v20h91z" glyph-name="n" horiz-adv-x="681" unicode="n"/>
<glyph d="M180 23q-65 33 -101 92t-36 135t36 135t101 92t148 33t148 -33t101 -92t36 -135t-36 -135t-101 -92t-148 -33t-148 33zM454 250q0 244 -126 244q-127 0 -127 -244t127 -244q126 0 126 244z" glyph-name="o" horiz-adv-x="655" unicode="o"/>
<glyph d="M99 -180v660h-91v20h241v-103q22 56 63.5 84.5t99.5 28.5q62 0 111.5 -32t78.5 -91t29 -137t-29 -137t-78.5 -91t-111.5 -32q-58 0 -99.5 28.5t-63.5 84.5v-283h133v-20h-374v20h91zM472 250q0 228 -106 228q-36 0 -64 -30t-44 -82t-16 -116t16 -116t44 -82t64 -30 q106 0 106 228z" glyph-name="p" horiz-adv-x="673" unicode="p"/>
<glyph d="M424 -180v283q-44 -113 -164 -113q-61 0 -110.5 32t-78 91t-28.5 137t28.5 137t78 91t110.5 32q120 0 164 -113v103h242v-20h-92v-660h92v-20h-376v20h134zM371 52q28 30 43.5 82t15.5 116t-15.5 116t-43.5 82t-64 30q-106 0 -106 -228t106 -228q36 0 64 30z" glyph-name="q" horiz-adv-x="673" unicode="q"/>
<glyph d="M99 20v460h-91v20h241v-102q19 54 57.5 83t89.5 29q16 0 31 -4t28.5 -8.5t18.5 -6.5v75h20v-274h-16v19q0 31 -24 67t-57 61t-58 25q-39 0 -64.5 -53.5t-25.5 -145.5v-245h129v-20h-370v20h91z" glyph-name="r" horiz-adv-x="528" unicode="r"/>
<glyph d="M50 207v-21q0 -36 48 -76t121 -67t142 -27q38 0 60 14t22 39q0 15 -10.5 27t-40.5 25t-87 29q-102 28 -160 58t-83 67t-25 89q0 68 50 107t139 39q49 0 86 -6.5t81 -18.5q16 -6 32 -9v77h20v-243h-19v18q0 33 -49 68.5t-115.5 59t-109.5 23.5q-28 0 -45 -13.5t-17 -33.5 t13 -35.5t48.5 -32t104.5 -37.5q98 -31 149.5 -58t70.5 -56.5t19 -71.5q0 -75 -46.5 -113.5t-137.5 -38.5q-75 0 -259 23v-61h-20v256h18z" glyph-name="s" horiz-adv-x="519" unicode="s"/>
<glyph d="M139 35q-47 45 -47 124v321h-88v20h79q59 0 99 35t40 108v27h20v-170h166v-20h-166v-363q0 -48 24 -73t65 -25q23 0 50 12t39 27v-26q-21 -18 -62 -30t-89 -12q-83 0 -130 45z" glyph-name="t" horiz-adv-x="427" unicode="t"/>
<glyph d="M139.5 49q-46.5 59 -46.5 169v262h-86v20h237v-282q0 -98 21 -144.5t64 -46.5q47 0 75 58t28 155v240h-95v20h337v-20h-92v-460h92v-20h-242v103q-19 -55 -60 -84t-100 -29q-86 0 -132.5 59z" glyph-name="u" horiz-adv-x="681" unicode="u"/>
<glyph d="M14 480h-72v20h338v-20h-104l154 -377l153 377h-127v20h220v-20h-71l-194 -480h-100z" glyph-name="v" horiz-adv-x="517" unicode="v"/>
<glyph d="M18 480h-72v20h298v-20h-69l125 -371l74 206l-55 165h-55v20h290v-20h-78l129 -373l125 373h-111v20h205v-20h-73l-162 -480h-106l-98 285l-100 -285h-107z" glyph-name="w" horiz-adv-x="767" unicode="w"/>
<glyph d="M-64 20h101l153 210l-176 250h-71v20h329v-20h-76l118 -163l120 163h-96v20h196v-20h-77l-132 -180l196 -280h70v-20h-354v20h103l-138 193l-142 -193h111v-20h-235v20z" glyph-name="x" horiz-adv-x="515" unicode="x"/>
<glyph d="M63 57v-30q0 -39 32 -89t77.5 -85.5t81.5 -35.5q17 0 28.5 12.5t11.5 33.5v4q0 15 -12.5 43.5t-59.5 125.5l-33 69l-183 375h-65v20h326v-20h-89l137 -312q14 -30 25 -73q6 25 17 62l119 323h-126v20h224v-20h-77l-123 -337q-12 -35 -17.5 -63t-5.5 -63v-11 q0 -108 -36 -162t-103 -54q-45 0 -147 18v-58h-20v307h18z" glyph-name="y" horiz-adv-x="513" unicode="y"/>
<glyph d="M26 0v13l300 467h-91q-34 0 -71.5 -25t-62.5 -60.5t-25 -64.5v-38h-18v275h20v-67h420v-12l-300 -468h81q52 0 94 23.5t66 59t24 67.5v38h18v-266h-20v58h-435z" glyph-name="z" horiz-adv-x="523" unicode="z"/>
<glyph d="M141 31q0 28 16 114q7 36 13 73t6 62q0 33 -14 46.5t-43 13.5h-48v20h48q29 0 43 14t14 46q0 25 -6 62t-13 73q-16 86 -16 114q0 146 168 146q21 0 56 -5t53 -12v-19q-36 13 -67 13q-33 0 -51 -18t-18 -54q0 -17 5.5 -57t7.5 -56q15 -90 15 -124q0 -52 -22 -85.5 t-72 -47.5q50 -14 72 -47.5t22 -85.5q0 -34 -15 -124q-2 -16 -7.5 -56t-5.5 -57q0 -36 18 -54t51 -18q31 0 67 13v-19q-18 -7 -53 -12t-56 -5q-168 0 -168 146z" glyph-name="braceleft" horiz-adv-x="500" unicode="{"/>
<glyph d="M126 800h20v-900h-20v900z" glyph-name="bar" horiz-adv-x="273" unicode="|"/>
<glyph d="M359 669q0 -28 -16 -114q-7 -36 -13 -73t-6 -62q0 -33 14 -46.5t43 -13.5h48v-20h-48q-29 0 -43 -14t-14 -46q0 -25 6 -62t13 -73q16 -86 16 -114q0 -146 -168 -146q-21 0 -56 5t-53 12v19q36 -13 67 -13q33 0 51 18t18 54q0 17 -5.5 57t-7.5 56q-15 90 -15 124 q0 52 22 85.5t72 47.5q-50 14 -72 47.5t-22 85.5q0 34 15 124q2 16 7.5 56t5.5 57q0 36 -18 54t-51 18q-31 0 -67 -13v19q18 7 53 12t56 5q168 0 168 -146z" glyph-name="braceright" horiz-adv-x="500" unicode="}"/>
<glyph d="M107 364.5q27 23.5 64 23.5q26 0 50.5 -7.5t62.5 -22.5q36 -14 58.5 -21t46.5 -7q28 0 49.5 18t21.5 41h20q0 -32 -27 -55.5t-64 -23.5q-26 0 -50.5 7.5t-62.5 22.5q-36 14 -58.5 21t-46.5 7q-28 0 -49.5 -18t-21.5 -41h-20q0 32 27 55.5z" glyph-name="asciitilde" horiz-adv-x="560" unicode="~"/>
<glyph glyph-name="uni00A0" horiz-adv-x="250" unicode=" "/>
<glyph d="M274 480q31 -31 31 -78q0 -46 -31 -77.5t-78 -31.5q-46 0 -77.5 31.5t-31.5 77.5q0 47 31.5 78t77.5 31q47 0 78 -31zM387 -180v-20h-382v20h103l28 402h120l28 -402h103z" glyph-name="exclamdown" horiz-adv-x="392" unicode="¡"/>
<glyph d="M208 129q-60 34 -93 92t-33 131q0 74 33 131.5t93 91.5t137 37v118h20v-118q43 -1 125 -15q17 -4 28 -5v65h20l-1 -259h-18v22q0 34 -27.5 75.5t-66 71t-68.5 29.5q-56 0 -86 -61t-30 -183t30 -183t86 -61q33 0 75 29.5t73 72t33 77.5v22h19v-256h-20v61l-20 -3 q-95 -18 -152 -19v-122h-20v122q-77 3 -137 37z" glyph-name="cent" horiz-adv-x="700" unicode="¢"/>
<glyph d="M93.5 17q-33.5 32 -33.5 79t36 81.5t99 34.5q53 0 127 -19l-3 9q-9 24 -25 44.5t-50 57.5q-16 14 -34 36h-144v20h127q-28 35 -44 72t-16 82q0 94 63 147.5t167 53.5q77 0 131.5 -30t80.5 -84v114h20v-221h-20v12q0 57 -22 95.5t-57.5 57t-76.5 18.5q-57 0 -90 -35 t-33 -103q0 -25 4.5 -47.5t13.5 -53.5q10 -33 19 -78h227v-20h-223q8 -35 11.5 -55.5t3.5 -44.5l-2 -54q63 -18 100.5 -26t79.5 -8q62 0 87.5 16.5t25.5 53.5q0 7 -4 25h16q7 -32 7 -66q0 -86 -42 -141t-126 -55q-47 0 -91 16.5t-98 45.5q-42 -62 -119 -62q-59 0 -92.5 32z M243 19q27 14 44 38q-49 27 -79 39.5t-57 12.5q-28 0 -44 -12.5t-16 -31.5q0 -24 25 -42t66 -18q34 0 61 14z" glyph-name="sterling" horiz-adv-x="700" unicode="£"/>
<glyph d="M202 216q-24 27 -38 61.5t-14 72.5t14 72.5t38 61.5l-92 92l14 14l92 -92q27 24 61.5 38t72.5 14t72.5 -14t61.5 -38l92 92l14 -14l-92 -92q24 -27 38 -61.5t14 -72.5t-14 -72.5t-38 -61.5l92 -92l-14 -14l-92 92q-27 -24 -61.5 -38t-72.5 -14t-72.5 14t-61.5 38l-92 -92 l-14 14zM440 194.5q41 24.5 65.5 65.5t24.5 90t-24.5 90t-65.5 65.5t-90 24.5t-90 -24.5t-65.5 -65.5t-24.5 -90t24.5 -90t65.5 -65.5t90 -24.5t90 24.5z" glyph-name="currency" horiz-adv-x="700" unicode="¤"/>
<glyph d="M137 20h123v160h-176v20h176v82l-9 18h-167v20h156l-185 360h-90v20h418v-20h-136l187 -369l189 369h-136v20h249v-20h-91l-184 -360h156v-20h-166l-11 -21v-79h177v-20h-177v-160h124v-20h-427v20z" glyph-name="yen" horiz-adv-x="700" unicode="¥"/>
<glyph d="M126 800h20v-380h-20v380zM126 280h20v-380h-20v380z" glyph-name="brokenbar" horiz-adv-x="273" unicode="¦"/>
<glyph d="M240.5 -80q-52.5 20 -87 58.5t-41.5 91.5h21q8 -46 38.5 -79.5t74.5 -50.5t90 -17q51 0 87.5 17t36.5 50q0 22 -14.5 37t-37.5 25.5t-69 26.5q-24 8 -36 13q-87 29 -145.5 70t-58.5 113q0 57 34 94t91 56q-45 25 -71 58t-26 80q0 52 31.5 86.5t80 50.5t101.5 16 q89 0 150 -45t71 -122h-21q-12 67 -65.5 105t-126.5 38q-44 0 -75.5 -17.5t-31.5 -53.5q0 -20 15 -34.5t38.5 -24.5t73.5 -28l37 -13q53 -17 94.5 -36.5t73 -54.5t31.5 -85q0 -58 -32.5 -96t-86.5 -59q98 -51 98 -134q0 -55 -35 -90t-87.5 -50.5t-107.5 -15.5 q-60 0 -112.5 20zM497.5 223.5q13.5 14.5 13.5 35.5q0 41 -44 67t-128 54q-71 25 -93 36q-49 -18 -49 -61q0 -40 50 -68t137 -59q58 -20 79 -31q21 12 34.5 26.5z" glyph-name="section" horiz-adv-x="700" unicode="§"/>
<glyph d="M225 33q-84 48 -132 132t-48 185t48 185t132 132t185 48t185 -48t132 -132t48 -185t-48 -185t-132 -132t-185 -48t-185 48zM585 50.5q79 45.5 124.5 124.5t45.5 175t-45.5 175t-124.5 124.5t-175 45.5t-175 -45.5t-124.5 -124.5t-45.5 -175t45.5 -175t124.5 -124.5 t175 -45.5t175 45.5zM541 157q-28 -5 -59 -9t-56 -4q-65 0 -116 26.5t-79.5 74t-28.5 107.5t28.5 107.5t79.5 74t116 26.5q35 0 99 -12q19 -4 25 -5v48h20l-1 -205h-19v18q0 27 -21.5 60.5t-52 57t-54.5 23.5q-45 0 -69 -48t-24 -145q0 -96 24 -144t69 -48q27 0 59.5 23.5 t56.5 57t25 60.5v17h19v-205h-20v48q-14 -2 -21 -4z" glyph-name="copyright" unicode="©"/>
<glyph d="M108 300l109 -200h-21l-106 194v12l106 194h21zM268 300l109 -200h-21l-106 194v12l106 194h21z" glyph-name="guillemotleft" horiz-adv-x="467" unicode="«"/>
<glyph d="M480 360v-210h-20v190h-380v20h400z" glyph-name="logicalnot" horiz-adv-x="560" unicode="¬"/>
<glyph d="M138.5 378.5q-41.5 23.5 -65 65t-23.5 91.5t23.5 91.5t65 65t91.5 23.5t91.5 -23.5t65 -65t23.5 -91.5t-23.5 -91.5t-65 -65t-91.5 -23.5t-91.5 23.5zM311 397.5q37 22.5 58 59.5t21 78q0 45 -21 81.5t-57.5 57.5t-81.5 21t-81.5 -21t-57.5 -57.5t-21 -81.5t21 -81.5 t57.5 -57.5t81.5 -21q44 0 81 22.5zM155 456v167h-30v19h99q42 0 66 -14.5t24 -40.5q0 -27 -38 -44l55 -87h17v-18h-106v18h26l-48 76h-11l1 -76h20v-18h-105v18h30zM251 558q10 10 10 29q0 17 -10 26.5t-29 9.5h-12v-75h12q19 0 29 10z" glyph-name="registered" horiz-adv-x="460" unicode="®"/>
<glyph d="M70.5 510.5q-35.5 35.5 -35.5 84.5q0 50 35.5 85t84.5 35q50 0 85 -35t35 -85q0 -49 -35 -84.5t-85 -35.5q-49 0 -84.5 35.5zM225.5 524.5q29.5 29.5 29.5 70.5t-29.5 70.5t-70.5 29.5t-70.5 -29.5t-29.5 -70.5t29.5 -70.5t70.5 -29.5t70.5 29.5z" glyph-name="degree" horiz-adv-x="310" unicode="°"/>
<glyph d="M290 410h190v-20h-190v-190h-20v190h-190v20h190v190h20v-190zM80 110v20h400v-20h-400z" glyph-name="plusminus" horiz-adv-x="560" unicode="±"/>
<glyph d="M290 -180v480h-9q-62 0 -112.5 26.5t-79.5 72t-29 101.5t29 101.5t79.5 72t112.5 26.5h292v-20h-103v-860h103v-20h-386v20h103z" glyph-name="paragraph" horiz-adv-x="600" unicode="¶"/>
<glyph d="M82.5 224.5q-31.5 31.5 -31.5 77.5t31.5 77.5t77.5 31.5q47 0 78 -31t31 -78q0 -46 -31 -77.5t-78 -31.5q-46 0 -77.5 31.5z" glyph-name="periodcentered" horiz-adv-x="321" unicode="·"/>
<glyph d="M359 300l-109 200h21l106 -194v-12l-106 -194h-21zM199 300l-109 200h21l106 -194v-12l-106 -194h-21z" glyph-name="guillemotright" horiz-adv-x="467" unicode="»"/>
<glyph d="M345 480q31 -31 31 -78q0 -46 -31 -77.5t-78 -31.5q-46 0 -77.5 31.5t-31.5 77.5q0 47 31.5 78t77.5 31q47 0 78 -31zM305 191q-1 -38 -15.5 -65.5t-45.5 -71.5q-24 -37 -37 -68.5t-13 -73.5q0 -49 21 -80t57 -31q31 0 67 32t65.5 82.5t42.5 103.5l2 21h13l-1 -305h-17 v90l-27 -10q-36 -15 -67.5 -22.5t-76.5 -7.5q-57 0 -110 15.5t-87.5 49.5t-34.5 87q0 35 16 60.5t39.5 44t62.5 41.5q40 24 64.5 43t41.5 47t17 67h14q9 -25 9 -49z" glyph-name="questiondown" horiz-adv-x="524" unicode="¿"/>
<glyph d="M-80 20h89l227 581l-25 79h-78v20h254l235 -680h90v-20h-408v20h134l-72 209h-252l-82 -209h159v-20h-271v20zM360 249l-113 321l-125 -321h238zM291 751l-200 194h171l37 -194h-8z" glyph-name="Agrave" horiz-adv-x="647" unicode="À"/>
<glyph d="M-80 20h89l227 581l-25 79h-78v20h254l235 -680h90v-20h-408v20h134l-72 209h-252l-82 -209h159v-20h-271v20zM360 249l-113 321l-125 -321h238zM332 945h171l-200 -194h-8z" glyph-name="Aacute" horiz-adv-x="647" unicode="Á"/>
<glyph d="M-80 20h89l227 581l-25 79h-78v20h254l235 -680h90v-20h-408v20h134l-72 209h-252l-82 -209h159v-20h-271v20zM360 249l-113 321l-125 -321h238zM301 785l-82 106l-82 -106h-23l122 160h122l122 -160h-179z" glyph-name="Acircumflex" horiz-adv-x="647" unicode="Â"/>
<glyph d="M-80 20h89l227 581l-25 79h-78v20h254l235 -680h90v-20h-408v20h134l-72 209h-252l-82 -209h159v-20h-271v20zM360 249l-113 321l-125 -321h238zM140.5 903q30.5 37 82.5 37q30 0 58 -6t64 -17q29 -9 47 -13t35 -4q43 0 43 40h14q0 -66 -30.5 -103t-82.5 -37q-29 0 -57 6 t-65 17q-29 9 -47 13t-35 4q-43 0 -43 -40h-14q0 66 30.5 103z" glyph-name="Atilde" horiz-adv-x="647" unicode="Ã"/>
<glyph d="M-80 20h89l227 581l-25 79h-78v20h254l235 -680h90v-20h-408v20h134l-72 209h-252l-82 -209h159v-20h-271v20zM360 249l-113 321l-125 -321h238zM122 945h171l-81 -194h-9zM297 945h171l-81 -194h-9z" glyph-name="Adieresis" horiz-adv-x="647" unicode="Ä"/>
<glyph d="M-80 20h89l227 581l-25 79h-78v20h254l235 -680h90v-20h-408v20h134l-72 209h-252l-82 -209h159v-20h-271v20zM360 249l-113 321l-125 -321h238zM226 766q-32 19 -51 51.5t-19 70.5t19 70.5t51 51.5t71 19q38 0 70.5 -19t51.5 -51.5t19 -70.5t-19 -70.5t-51.5 -51.5 t-70.5 -19q-39 0 -71 19zM395.5 860.5q27.5 8.5 27.5 27.5q0 20 -27.5 28.5t-98.5 8.5t-98.5 -8.5t-27.5 -28.5q0 -19 27.5 -27.5t98.5 -8.5t98.5 8.5z" glyph-name="Aring" horiz-adv-x="647" unicode="Å"/>
<glyph d="M304 0v20h134l-72 209h-252l-82 -209h159v-20h-271v20h89l227 581l-25 79h-78v20h685v70h20v-304h-17v39q0 38 -28 78.5t-87 68.5t-147 28h-165l111 -320h112q42 0 67.5 29t25.5 64v33h14v-272h-14v33q0 35 -25.5 64t-67.5 29h-106l111 -320h45q42 0 89.5 33.5t79.5 81 t32 85.5v39h18v-329h-20v70h-562zM360 249l-113 321l-125 -321h238z" glyph-name="AE" horiz-adv-x="921" unicode="Æ"/>
<glyph d="M218 31.5q-81 46.5 -126.5 129.5t-45.5 189t45.5 189t126.5 129.5t185 46.5q29 0 55.5 -4t64.5 -12q43 -9 77 -14v80h20v-322h-18v19q0 48 -33.5 103.5t-83 93.5t-91.5 38q-76 0 -118 -86.5t-42 -260.5q0 -177 43 -262t118 -85q48 0 102 42.5t90.5 105t36.5 116.5v21h17 l1 -346h-20l-1 76l-82 -15q-43 -9 -73 -13.5t-63 -4.5q-104 0 -185 46.5zM197 -245l200 194h7l-37 -194h-170z" glyph-name="Ccedilla" horiz-adv-x="719" unicode="Ç"/>
<glyph d="M9 0v20h103v660h-103v20h549v70h20v-304h-17v39q0 35 -29 76.5t-77 70t-101 28.5h-62v-320h65q42 0 67.5 29t25.5 64v33h14v-272h-14v33q0 35 -25.5 64t-67.5 29h-65v-320h71q63 0 119.5 33t91 80.5t34.5 86.5v39h18v-329h-20v70h-597zM322 751l-200 194h171l37 -194h-8z " glyph-name="Egrave" horiz-adv-x="661" unicode="È"/>
<glyph d="M9 0v20h103v660h-103v20h549v70h20v-304h-17v39q0 35 -29 76.5t-77 70t-101 28.5h-62v-320h65q42 0 67.5 29t25.5 64v33h14v-272h-14v33q0 35 -25.5 64t-67.5 29h-65v-320h71q63 0 119.5 33t91 80.5t34.5 86.5v39h18v-329h-20v70h-597zM363 945h171l-200 -194h-8z" glyph-name="Eacute" horiz-adv-x="661" unicode="É"/>
<glyph d="M9 0v20h103v660h-103v20h549v70h20v-304h-17v39q0 35 -29 76.5t-77 70t-101 28.5h-62v-320h65q42 0 67.5 29t25.5 64v33h14v-272h-14v33q0 35 -25.5 64t-67.5 29h-65v-320h71q63 0 119.5 33t91 80.5t34.5 86.5v39h18v-329h-20v70h-597zM332 785l-82 106l-82 -106h-23 l122 160h122l122 -160h-179z" glyph-name="Ecircumflex" horiz-adv-x="661" unicode="Ê"/>
<glyph d="M9 0v20h103v660h-103v20h549v70h20v-304h-17v39q0 35 -29 76.5t-77 70t-101 28.5h-62v-320h65q42 0 67.5 29t25.5 64v33h14v-272h-14v33q0 35 -25.5 64t-67.5 29h-65v-320h71q63 0 119.5 33t91 80.5t34.5 86.5v39h18v-329h-20v70h-597zM153 945h171l-81 -194h-9zM328 945 h171l-81 -194h-9z" glyph-name="Edieresis" horiz-adv-x="661" unicode="Ë"/>
<glyph d="M9 20h103v660h-103v20h386v-20h-103v-660h103v-20h-386v20zM196 751l-200 194h171l37 -194h-8z" glyph-name="Igrave" horiz-adv-x="404" unicode="Ì"/>
<glyph d="M9 20h103v660h-103v20h386v-20h-103v-660h103v-20h-386v20zM237 945h171l-200 -194h-8z" glyph-name="Iacute" horiz-adv-x="404" unicode="Í"/>
<glyph d="M9 20h103v660h-103v20h386v-20h-103v-660h103v-20h-386v20zM206 785l-82 106l-82 -106h-23l122 160h122l122 -160h-179z" glyph-name="Icircumflex" horiz-adv-x="404" unicode="Î"/>
<glyph d="M9 20h103v660h-103v20h386v-20h-103v-660h103v-20h-386v20zM27 945h171l-81 -194h-9zM202 945h171l-81 -194h-9z" glyph-name="Idieresis" horiz-adv-x="404" unicode="Ï"/>
<glyph d="M112 20v320h-87v20h87v320h-103v20h347q112 0 198.5 -44.5t135 -124t48.5 -181.5t-48.5 -181.5t-135 -124t-198.5 -44.5h-347v20h103zM501.5 101.5q48.5 81.5 48.5 248.5q0 168 -48.5 249t-144.5 81h-65v-320h109v-20h-109v-320h65q96 0 144.5 81.5z" glyph-name="Eth" horiz-adv-x="784" unicode="Ð"/>
<glyph d="M134 579v-559h149v-20h-274v20h103v586l-59 74h-78v20h287l359 -460v440h-124v20h249v-20h-103v-725h-15zM221.5 903q30.5 37 82.5 37q30 0 58 -6t64 -17q29 -9 47 -13t35 -4q43 0 43 40h14q0 -66 -30.5 -103t-82.5 -37q-29 0 -57 6t-65 17q-29 9 -47 13t-35 4 q-43 0 -43 -40h-14q0 66 30.5 103z" glyph-name="Ntilde" horiz-adv-x="754" unicode="Ñ"/>
<glyph d="M221.5 31.5q-82.5 46.5 -129 129.5t-46.5 189t46.5 189t129 129.5t188.5 46.5t188.5 -46.5t129 -129.5t46.5 -189t-46.5 -189t-129 -129.5t-188.5 -46.5t-188.5 46.5zM586 350q0 347 -176 347t-176 -347t176 -347t176 347zM404 751l-200 194h171l37 -194h-8z" glyph-name="Ograve" unicode="Ò"/>
<glyph d="M221.5 31.5q-82.5 46.5 -129 129.5t-46.5 189t46.5 189t129 129.5t188.5 46.5t188.5 -46.5t129 -129.5t46.5 -189t-46.5 -189t-129 -129.5t-188.5 -46.5t-188.5 46.5zM586 350q0 347 -176 347t-176 -347t176 -347t176 347zM445 945h171l-200 -194h-8z" glyph-name="Oacute" unicode="Ó"/>
<glyph d="M221.5 31.5q-82.5 46.5 -129 129.5t-46.5 189t46.5 189t129 129.5t188.5 46.5t188.5 -46.5t129 -129.5t46.5 -189t-46.5 -189t-129 -129.5t-188.5 -46.5t-188.5 46.5zM586 350q0 347 -176 347t-176 -347t176 -347t176 347zM414 785l-82 106l-82 -106h-23l122 160h122 l122 -160h-179z" glyph-name="Ocircumflex" unicode="Ô"/>
<glyph d="M221.5 31.5q-82.5 46.5 -129 129.5t-46.5 189t46.5 189t129 129.5t188.5 46.5t188.5 -46.5t129 -129.5t46.5 -189t-46.5 -189t-129 -129.5t-188.5 -46.5t-188.5 46.5zM586 350q0 347 -176 347t-176 -347t176 -347t176 347zM253.5 903q30.5 37 82.5 37q30 0 58 -6t64 -17 q29 -9 47 -13t35 -4q43 0 43 40h14q0 -66 -30.5 -103t-82.5 -37q-29 0 -57 6t-65 17q-29 9 -47 13t-35 4q-43 0 -43 -40h-14q0 66 30.5 103z" glyph-name="Otilde" unicode="Õ"/>
<glyph d="M221.5 31.5q-82.5 46.5 -129 129.5t-46.5 189t46.5 189t129 129.5t188.5 46.5t188.5 -46.5t129 -129.5t46.5 -189t-46.5 -189t-129 -129.5t-188.5 -46.5t-188.5 46.5zM586 350q0 347 -176 347t-176 -347t176 -347t176 347zM235 945h171l-81 -194h-9zM410 945h171 l-81 -194h-9z" glyph-name="Odieresis" unicode="Ö"/>
<glyph d="M117 202l148 148l-148 148l15 15l148 -148l148 148l15 -15l-148 -148l148 -148l-15 -15l-148 148l-148 -148z" glyph-name="multiply" horiz-adv-x="560" unicode="×"/>
<glyph d="M275 7.5q-63 22.5 -111 63.5l-68 -71h-27l81 85q-50 49 -77 117t-27 148q0 106 46.5 189t129 129.5t188.5 46.5q72 0 135 -22.5t111 -63.5l68 71h27l-81 -84q50 -49 77 -117.5t27 -148.5q0 -106 -46.5 -189t-129 -129.5t-188.5 -46.5q-72 0 -135 22.5zM507.5 657 q-38.5 40 -97.5 40q-176 0 -176 -347q0 -96 16 -161l315 346q-19 82 -57.5 122zM586 350q0 96 -16 161l-315 -346q19 -82 57.5 -122t97.5 -40q176 0 176 347z" glyph-name="Oslash" unicode="Ø"/>
<glyph d="M231.5 19.5q-62.5 34.5 -96.5 98.5t-34 149v413h-103v20h390v-20h-108v-413q0 -129 44.5 -186.5t128.5 -57.5q51 0 91.5 32.5t63 90.5t22.5 133v401h-108v20h231v-20h-103v-401q0 -139 -72 -216.5t-200 -77.5q-84 0 -146.5 34.5zM424 751l-200 194h171l37 -194h-8z" glyph-name="Ugrave" horiz-adv-x="746" unicode="Ù"/>
<glyph d="M231.5 19.5q-62.5 34.5 -96.5 98.5t-34 149v413h-103v20h390v-20h-108v-413q0 -129 44.5 -186.5t128.5 -57.5q51 0 91.5 32.5t63 90.5t22.5 133v401h-108v20h231v-20h-103v-401q0 -139 -72 -216.5t-200 -77.5q-84 0 -146.5 34.5zM465 945h171l-200 -194h-8z" glyph-name="Uacute" horiz-adv-x="746" unicode="Ú"/>
<glyph d="M231.5 19.5q-62.5 34.5 -96.5 98.5t-34 149v413h-103v20h390v-20h-108v-413q0 -129 44.5 -186.5t128.5 -57.5q51 0 91.5 32.5t63 90.5t22.5 133v401h-108v20h231v-20h-103v-401q0 -139 -72 -216.5t-200 -77.5q-84 0 -146.5 34.5zM434 785l-82 106l-82 -106h-23l122 160 h122l122 -160h-179z" glyph-name="Ucircumflex" horiz-adv-x="746" unicode="Û"/>
<glyph d="M231.5 19.5q-62.5 34.5 -96.5 98.5t-34 149v413h-103v20h390v-20h-108v-413q0 -129 44.5 -186.5t128.5 -57.5q51 0 91.5 32.5t63 90.5t22.5 133v401h-108v20h231v-20h-103v-401q0 -139 -72 -216.5t-200 -77.5q-84 0 -146.5 34.5zM255 945h171l-81 -194h-9zM430 945h171 l-81 -194h-9z" glyph-name="Udieresis" horiz-adv-x="746" unicode="Ü"/>
<glyph d="M105 20h124v262l-205 398h-90v20h418v-20h-136l187 -369l189 369h-136v20h249v-20h-91l-205 -401v-259h124v-20h-428v20zM377 945h171l-200 -194h-8z" glyph-name="Yacute" horiz-adv-x="634" unicode="Ý"/>
<glyph d="M112 20v660h-103v20h407v-20h-124v-130h58q139 0 218 -53t79 -147t-79 -147t-218 -53h-58v-130h124v-20h-407v20h103zM434 216.5q34 46.5 34 133.5t-34 133.5t-98 46.5h-44v-360h44q64 0 98 46.5z" glyph-name="Thorn" horiz-adv-x="694" unicode="Þ"/>
<glyph d="M99 -180v660h-91v20h91v23q0 102 61.5 159.5t164.5 57.5q47 0 91.5 -7.5t104.5 -20.5q48 -11 56 -12v50h20v-348h-14q-4 16 -26 34.5t-53 30.5t-61 12q-25 0 -41.5 -13.5t-16.5 -33.5q0 -30 33.5 -56.5t116.5 -54.5q80 -27 122.5 -55t58 -59t15.5 -73q0 -71 -42.5 -108 t-117.5 -37q-64 0 -216 23v-61h-17v256h15v-21q0 -36 40 -76t101 -67t118 -27q31 0 48.5 13t17.5 36q0 24 -23 43t-91 42q-89 30 -138.5 60t-71 67.5t-21.5 90.5q0 67 48.5 104.5t135.5 37.5q31 0 61 -7v22q0 27 -64 68t-145 73t-125 32q-33 0 -51 -14t-18 -42q0 -19 6 -34 t20 -38q22 -36 35 -73t13 -98v-579h132v-20h-373v20h91z" glyph-name="germandbls" horiz-adv-x="762" unicode="ß"/>
<glyph d="M59 25q-42 35 -42 93q0 124 192 142q93 8 131.5 33.5t38.5 81.5q0 63 -20 91.5t-59 28.5q-34 0 -80 -30t-79.5 -71.5t-33.5 -75.5v-22h-19v256h20v-62q35 3 84 11q59 9 97 9q108 0 167.5 -55.5t59.5 -155.5v-279h83v-20h-221v112q-45 -122 -200 -122q-77 0 -119 35z M310 49q30 23 49 66t19 100v92q-26 -40 -94 -54q-59 -9 -88 -40t-29 -85q0 -45 23 -73.5t57 -28.5q33 0 63 23zM279 551l-200 194h171l37 -194h-8z" glyph-name="agrave" horiz-adv-x="605" unicode="à"/>
<glyph d="M59 25q-42 35 -42 93q0 124 192 142q93 8 131.5 33.5t38.5 81.5q0 63 -20 91.5t-59 28.5q-34 0 -80 -30t-79.5 -71.5t-33.5 -75.5v-22h-19v256h20v-62q35 3 84 11q59 9 97 9q108 0 167.5 -55.5t59.5 -155.5v-279h83v-20h-221v112q-45 -122 -200 -122q-77 0 -119 35z M310 49q30 23 49 66t19 100v92q-26 -40 -94 -54q-59 -9 -88 -40t-29 -85q0 -45 23 -73.5t57 -28.5q33 0 63 23zM320 745h171l-200 -194h-8z" glyph-name="aacute" horiz-adv-x="605" unicode="á"/>
<glyph d="M59 25q-42 35 -42 93q0 124 192 142q93 8 131.5 33.5t38.5 81.5q0 63 -20 91.5t-59 28.5q-34 0 -80 -30t-79.5 -71.5t-33.5 -75.5v-22h-19v256h20v-62q35 3 84 11q59 9 97 9q108 0 167.5 -55.5t59.5 -155.5v-279h83v-20h-221v112q-45 -122 -200 -122q-77 0 -119 35z M310 49q30 23 49 66t19 100v92q-26 -40 -94 -54q-59 -9 -88 -40t-29 -85q0 -45 23 -73.5t57 -28.5q33 0 63 23zM289 585l-82 106l-82 -106h-23l122 160h122l122 -160h-179z" glyph-name="acircumflex" horiz-adv-x="605" unicode="â"/>
<glyph d="M59 25q-42 35 -42 93q0 124 192 142q93 8 131.5 33.5t38.5 81.5q0 63 -20 91.5t-59 28.5q-34 0 -80 -30t-79.5 -71.5t-33.5 -75.5v-22h-19v256h20v-62q35 3 84 11q59 9 97 9q108 0 167.5 -55.5t59.5 -155.5v-279h83v-20h-221v112q-45 -122 -200 -122q-77 0 -119 35z M310 49q30 23 49 66t19 100v92q-26 -40 -94 -54q-59 -9 -88 -40t-29 -85q0 -45 23 -73.5t57 -28.5q33 0 63 23zM128.5 703q30.5 37 82.5 37q30 0 58 -6t64 -17q29 -9 47 -13t35 -4q43 0 43 40h14q0 -66 -30.5 -103t-82.5 -37q-29 0 -57 6t-65 17q-29 9 -47 13t-35 4 q-43 0 -43 -40h-14q0 66 30.5 103z" glyph-name="atilde" horiz-adv-x="605" unicode="ã"/>
<glyph d="M59 25q-42 35 -42 93q0 124 192 142q93 8 131.5 33.5t38.5 81.5q0 63 -20 91.5t-59 28.5q-34 0 -80 -30t-79.5 -71.5t-33.5 -75.5v-22h-19v256h20v-62q35 3 84 11q59 9 97 9q108 0 167.5 -55.5t59.5 -155.5v-279h83v-20h-221v112q-45 -122 -200 -122q-77 0 -119 35z M310 49q30 23 49 66t19 100v92q-26 -40 -94 -54q-59 -9 -88 -40t-29 -85q0 -45 23 -73.5t57 -28.5q33 0 63 23zM110 745h171l-81 -194h-9zM285 745h171l-81 -194h-9z" glyph-name="adieresis" horiz-adv-x="605" unicode="ä"/>
<glyph d="M59 25q-42 35 -42 93q0 124 192 142q93 8 131.5 33.5t38.5 81.5q0 63 -20 91.5t-59 28.5q-34 0 -80 -30t-79.5 -71.5t-33.5 -75.5v-22h-19v256h20v-62q35 3 84 11q59 9 97 9q108 0 167.5 -55.5t59.5 -155.5v-279h83v-20h-221v112q-45 -122 -200 -122q-77 0 -119 35z M310 49q30 23 49 66t19 100v92q-26 -40 -94 -54q-59 -9 -88 -40t-29 -85q0 -45 23 -73.5t57 -28.5q33 0 63 23zM214 566q-32 19 -51 51.5t-19 70.5t19 70.5t51 51.5t71 19q38 0 70.5 -19t51.5 -51.5t19 -70.5t-19 -70.5t-51.5 -51.5t-70.5 -19q-39 0 -71 19zM383.5 660.5 q27.5 8.5 27.5 27.5q0 20 -27.5 28.5t-98.5 8.5t-98.5 -8.5t-27.5 -28.5q0 -19 27.5 -27.5t98.5 -8.5t98.5 8.5z" glyph-name="aring" horiz-adv-x="605" unicode="å"/>
<glyph d="M722.5 -4q-39.5 -6 -73.5 -6q-88 0 -154 40.5t-96 111.5q-23 -84 -81.5 -118t-121.5 -34q-89 0 -134 34.5t-45 93.5q0 124 192 142q93 8 131.5 33.5t38.5 81.5q0 63 -20 91.5t-59 28.5q-34 0 -80 -30t-79.5 -71.5t-33.5 -75.5v-22h-19v256h20v-62q35 3 84 11q59 9 97 9 q113 0 168 -67q33 32 78.5 49.5t99.5 17.5q79 0 138 -32.5t91 -91t32 -134.5v-12h-373q1 -113 32.5 -174t82.5 -61q30 0 73.5 28.5t75.5 67t32 67.5v14h18v-231h-20v61q-55 -10 -94.5 -16zM711.5 437q-26.5 57 -76.5 57q-53 0 -82 -59.5t-30 -174.5h217q-2 120 -28.5 177z M310 45q30 19 49 54.5t19 82.5v125q-26 -40 -94 -54q-59 -9 -88 -40t-29 -85q0 -45 23 -73.5t57 -28.5q33 0 63 19z" glyph-name="ae" horiz-adv-x="941" unicode="æ"/>
<glyph d="M401 -4q-41 -6 -79 -6q-81 0 -144.5 33t-99 92t-35.5 135t35.5 135t99 92t144.5 33q41 0 123 -14l33 -6v65h20v-259h-19v22q0 34 -27.5 75.5t-66 71t-67.5 29.5q-56 0 -86.5 -61t-30.5 -183t30.5 -183t86.5 -61q33 0 75 29.5t72.5 72t33.5 77.5v22h18v-256h-20v61 q-55 -10 -96 -16zM134 -245l200 194h7l-37 -194h-170z" glyph-name="ccedilla" horiz-adv-x="587" unicode="ç"/>
<glyph d="M406 -4q-41 -6 -80 -6q-83 0 -147 33t-100 92t-36 135t34 135t95.5 92t140.5 33q81 0 140.5 -32.5t92 -90.5t35.5 -135v-12h-380q1 -113 32.5 -174t81.5 -61q34 0 79 28t77.5 67t32.5 68v14h18v-231h-20v61q-55 -10 -96 -16zM313 494q-53 0 -82 -59.5t-30 -174.5h223 q-3 234 -111 234zM303 551l-200 194h171l37 -194h-8z" glyph-name="egrave" horiz-adv-x="625" unicode="è"/>
<glyph d="M406 -4q-41 -6 -80 -6q-83 0 -147 33t-100 92t-36 135t34 135t95.5 92t140.5 33q81 0 140.5 -32.5t92 -90.5t35.5 -135v-12h-380q1 -113 32.5 -174t81.5 -61q34 0 79 28t77.5 67t32.5 68v14h18v-231h-20v61q-55 -10 -96 -16zM313 494q-53 0 -82 -59.5t-30 -174.5h223 q-3 234 -111 234zM344 745h171l-200 -194h-8z" glyph-name="eacute" horiz-adv-x="625" unicode="é"/>
<glyph d="M406 -4q-41 -6 -80 -6q-83 0 -147 33t-100 92t-36 135t34 135t95.5 92t140.5 33q81 0 140.5 -32.5t92 -90.5t35.5 -135v-12h-380q1 -113 32.5 -174t81.5 -61q34 0 79 28t77.5 67t32.5 68v14h18v-231h-20v61q-55 -10 -96 -16zM313 494q-53 0 -82 -59.5t-30 -174.5h223 q-3 234 -111 234zM313 585l-82 106l-82 -106h-23l122 160h122l122 -160h-179z" glyph-name="ecircumflex" horiz-adv-x="625" unicode="ê"/>
<glyph d="M406 -4q-41 -6 -80 -6q-83 0 -147 33t-100 92t-36 135t34 135t95.5 92t140.5 33q81 0 140.5 -32.5t92 -90.5t35.5 -135v-12h-380q1 -113 32.5 -174t81.5 -61q34 0 79 28t77.5 67t32.5 68v14h18v-231h-20v61q-55 -10 -96 -16zM313 494q-53 0 -82 -59.5t-30 -174.5h223 q-3 234 -111 234zM135 745h171l-81 -194h-9zM310 745h171l-81 -194h-9z" glyph-name="edieresis" horiz-adv-x="625" unicode="ë"/>
<glyph d="M8 20h94v460h-94v20h244v-480h95v-20h-339v20zM169 551l-200 194h171l37 -194h-8z" glyph-name="igrave" horiz-adv-x="353" unicode="ì"/>
<glyph d="M8 20h94v460h-94v20h244v-480h95v-20h-339v20zM210 745h171l-200 -194h-8z" glyph-name="iacute" horiz-adv-x="353" unicode="í"/>
<glyph d="M8 20h94v460h-94v20h244v-480h95v-20h-339v20zM179 585l-82 106l-82 -106h-23l122 160h122l122 -160h-179z" glyph-name="icircumflex" horiz-adv-x="353" unicode="î"/>
<glyph d="M8 20h94v460h-94v20h244v-480h95v-20h-339v20zM0 745h171l-81 -194h-9zM175 745h171l-81 -194h-9z" glyph-name="idieresis" horiz-adv-x="353" unicode="ï"/>
<glyph d="M550.5 418q33.5 -42 48 -81t14.5 -87q0 -76 -36 -135t-101 -92t-148 -33t-148 33t-101 92t-36 135t36 135t101 92t148 33q39 0 66.5 -6.5t52.5 -19.5q-23 43 -51 71l-34 35h-198v20h179l-96 100h27l96 -100h166v-20h-146l64 -67q63 -63 96.5 -105zM446 250 q0 244 -118 244q-119 0 -119 -244q0 -122 30.5 -183t88.5 -61q118 0 118 244z" glyph-name="eth" horiz-adv-x="655" unicode="ð"/>
<glyph d="M99 20v460h-91v20h241v-103q19 55 60.5 84t100.5 29q85 0 131.5 -59t46.5 -169v-262h87v-20h-317v20h80v262q0 97 -21 144t-65 47q-46 0 -74.5 -58t-28.5 -155v-240h77v-20h-318v20h91zM174.5 703q30.5 37 82.5 37q30 0 58 -6t64 -17q29 -9 47 -13t35 -4q43 0 43 40h14 q0 -66 -30.5 -103t-82.5 -37q-29 0 -57 6t-65 17q-29 9 -47 13t-35 4q-43 0 -43 -40h-14q0 66 30.5 103z" glyph-name="ntilde" horiz-adv-x="681" unicode="ñ"/>
<glyph d="M180 23q-65 33 -101 92t-36 135t36 135t101 92t148 33t148 -33t101 -92t36 -135t-36 -135t-101 -92t-148 -33t-148 33zM454 250q0 244 -126 244q-127 0 -127 -244t127 -244q126 0 126 244zM322 551l-200 194h171l37 -194h-8z" glyph-name="ograve" horiz-adv-x="655" unicode="ò"/>
<glyph d="M180 23q-65 33 -101 92t-36 135t36 135t101 92t148 33t148 -33t101 -92t36 -135t-36 -135t-101 -92t-148 -33t-148 33zM454 250q0 244 -126 244q-127 0 -127 -244t127 -244q126 0 126 244zM363 745h171l-200 -194h-8z" glyph-name="oacute" horiz-adv-x="655" unicode="ó"/>
<glyph d="M180 23q-65 33 -101 92t-36 135t36 135t101 92t148 33t148 -33t101 -92t36 -135t-36 -135t-101 -92t-148 -33t-148 33zM454 250q0 244 -126 244q-127 0 -127 -244t127 -244q126 0 126 244zM332 585l-82 106l-82 -106h-23l122 160h122l122 -160h-179z" glyph-name="ocircumflex" horiz-adv-x="655" unicode="ô"/>
<glyph d="M180 23q-65 33 -101 92t-36 135t36 135t101 92t148 33t148 -33t101 -92t36 -135t-36 -135t-101 -92t-148 -33t-148 33zM454 250q0 244 -126 244q-127 0 -127 -244t127 -244q126 0 126 244zM171.5 703q30.5 37 82.5 37q30 0 58 -6t64 -17q29 -9 47 -13t35 -4q43 0 43 40 h14q0 -66 -30.5 -103t-82.5 -37q-29 0 -57 6t-65 17q-29 9 -47 13t-35 4q-43 0 -43 -40h-14q0 66 30.5 103z" glyph-name="otilde" horiz-adv-x="655" unicode="õ"/>
<glyph d="M180 23q-65 33 -101 92t-36 135t36 135t101 92t148 33t148 -33t101 -92t36 -135t-36 -135t-101 -92t-148 -33t-148 33zM454 250q0 244 -126 244q-127 0 -127 -244t127 -244q126 0 126 244zM153 745h171l-81 -194h-9zM328 745h171l-81 -194h-9z" glyph-name="odieresis" horiz-adv-x="655" unicode="ö"/>
<glyph d="M258.5 498.5q-8.5 8.5 -8.5 21.5t8.5 21.5t21.5 8.5t21.5 -8.5t8.5 -21.5t-8.5 -21.5t-21.5 -8.5t-21.5 8.5zM80 360h400v-20h-400v20zM258.5 158.5q-8.5 8.5 -8.5 21.5t8.5 21.5t21.5 8.5t21.5 -8.5t8.5 -21.5t-8.5 -21.5t-21.5 -8.5t-21.5 8.5z" glyph-name="divide" horiz-adv-x="560" unicode="÷"/>
<glyph d="M144 45l-43 -45h-27l55 57q-41 35 -63.5 84.5t-22.5 108.5q0 76 36 135t101 92t148 33q108 0 183 -55l44 45h27l-55 -57q41 -35 63.5 -84.5t22.5 -108.5q0 -76 -36 -135t-101 -92t-148 -33q-109 0 -184 55zM397.5 466q-27.5 28 -69.5 28q-127 0 -127 -244q0 -58 11 -107 l227 236q-14 59 -41.5 87zM454 250q0 65 -11 106l-226 -235q27 -115 111 -115q126 0 126 244z" glyph-name="oslash" horiz-adv-x="655" unicode="ø"/>
<glyph d="M139.5 49q-46.5 59 -46.5 169v262h-86v20h237v-282q0 -98 21 -144.5t64 -46.5q47 0 75 58t28 155v240h-95v20h337v-20h-92v-460h92v-20h-242v103q-19 -55 -60 -84t-100 -29q-86 0 -132.5 59zM322 551l-200 194h171l37 -194h-8z" glyph-name="ugrave" horiz-adv-x="681" unicode="ù"/>
<glyph d="M139.5 49q-46.5 59 -46.5 169v262h-86v20h237v-282q0 -98 21 -144.5t64 -46.5q47 0 75 58t28 155v240h-95v20h337v-20h-92v-460h92v-20h-242v103q-19 -55 -60 -84t-100 -29q-86 0 -132.5 59zM363 745h171l-200 -194h-8z" glyph-name="uacute" horiz-adv-x="681" unicode="ú"/>
<glyph d="M139.5 49q-46.5 59 -46.5 169v262h-86v20h237v-282q0 -98 21 -144.5t64 -46.5q47 0 75 58t28 155v240h-95v20h337v-20h-92v-460h92v-20h-242v103q-19 -55 -60 -84t-100 -29q-86 0 -132.5 59zM332 585l-82 106l-82 -106h-23l122 160h122l122 -160h-179z" glyph-name="ucircumflex" horiz-adv-x="681" unicode="û"/>
<glyph d="M139.5 49q-46.5 59 -46.5 169v262h-86v20h237v-282q0 -98 21 -144.5t64 -46.5q47 0 75 58t28 155v240h-95v20h337v-20h-92v-460h92v-20h-242v103q-19 -55 -60 -84t-100 -29q-86 0 -132.5 59zM153 745h171l-81 -194h-9zM328 745h171l-81 -194h-9z" glyph-name="udieresis" horiz-adv-x="681" unicode="ü"/>
<glyph d="M63 57v-30q0 -39 32 -89t77.5 -85.5t81.5 -35.5q17 0 28.5 12.5t11.5 33.5v4q0 15 -12.5 43.5t-59.5 125.5l-33 69l-183 375h-65v20h326v-20h-89l137 -312q14 -30 25 -73q6 25 17 62l119 323h-126v20h224v-20h-77l-123 -337q-12 -35 -17.5 -63t-5.5 -63v-11 q0 -108 -36 -162t-103 -54q-45 0 -147 18v-58h-20v307h18zM296 745h171l-200 -194h-8z" glyph-name="yacute" horiz-adv-x="513" unicode="ý"/>
<glyph d="M99 -180v860h-91v20h241v-303q22 56 63.5 84.5t99.5 28.5q62 0 111.5 -32t78.5 -91t29 -137t-29 -137t-78.5 -91t-111.5 -32q-58 0 -99.5 28.5t-63.5 84.5v-283h133v-20h-374v20h91zM472 250q0 228 -106 228q-36 0 -64 -30t-44 -82t-16 -116t16 -116t44 -82t64 -30 q106 0 106 228z" glyph-name="thorn" horiz-adv-x="673" unicode="þ"/>
<glyph d="M8 20h94v460h-94v20h244v-480h95v-20h-339v20z" glyph-name="dotlessi" horiz-adv-x="353" unicode="ı"/>
<glyph d="M-17 -23v-12q0 -33 29.5 -68.5t68 -60.5t60.5 -25q19 0 30 11.5t11 31.5t-7 37.5t-22 42.5q-24 43 -37.5 82.5t-13.5 101.5v362h-94v20h244v-507q0 -96 -34.5 -149.5t-96.5 -53.5q-36 0 -96 12l-42 7v-58h-20v226h20z" glyph-name="uni0237" horiz-adv-x="345" unicode="ȷ"/>
<glyph d="M-306 551l-200 194h171l37 -194h-8z" glyph-name="gravecomb" horiz-adv-x="0" unicode="̀"/>
<glyph d="M-265 745h171l-200 -194h-8z" glyph-name="acutecomb" horiz-adv-x="0" unicode="́"/>
<glyph d="M-296 585l-82 106l-82 -106h-23l122 160h122l122 -160h-179z" glyph-name="uni0302" horiz-adv-x="0" unicode="̂"/>
<glyph d="M-456.5 703q30.5 37 82.5 37q30 0 58 -6t64 -17q29 -9 47 -13t35 -4q43 0 43 40h14q0 -66 -30.5 -103t-82.5 -37q-29 0 -57 6t-65 17q-29 9 -47 13t-35 4q-43 0 -43 -40h-14q0 66 30.5 103z" glyph-name="tildecomb" horiz-adv-x="0" unicode="̃"/>
<glyph d="M-395 745h190l-90 -194h-10z" glyph-name="uni0307" horiz-adv-x="0" unicode="̇"/>
<glyph d="M-473 745h171l-81 -194h-9zM-298 745h171l-81 -194h-9z" glyph-name="uni0308" horiz-adv-x="0" unicode="̈"/>
<glyph d="M-371 566q-32 19 -51 51.5t-19 70.5t19 70.5t51 51.5t71 19q38 0 70.5 -19t51.5 -51.5t19 -70.5t-19 -70.5t-51.5 -51.5t-70.5 -19q-39 0 -71 19zM-201.5 660.5q27.5 8.5 27.5 27.5q0 20 -27.5 28.5t-98.5 8.5t-98.5 -8.5t-27.5 -28.5q0 -19 27.5 -27.5t98.5 -8.5 t98.5 8.5z" glyph-name="uni030A" horiz-adv-x="0" unicode="̊"/>
<glyph d="M-468 -245l200 194h7l-37 -194h-170z" glyph-name="uni0327" horiz-adv-x="0" unicode="̧"/>
<glyph d="M80 310h380v-20h-380v20z" glyph-name="endash" horiz-adv-x="540" unicode="–"/>
<glyph d="M108 350l109 -200h-21l-106 194v12l106 194h21zM268 350l109 -200h-21l-106 194v12l106 194h21z" glyph-name="guillemotleft.case" horiz-adv-x="467"/>
<glyph d="M359 350l-109 200h21l106 -194v-12l-106 -194h-21zM199 350l-109 200h21l106 -194v-12l-106 -194h-21z" glyph-name="guillemotright.case" horiz-adv-x="467"/>
<glyph d="M225 33q-84 48 -132 132t-48 185t48 185t132 132t185 48t185 -48t132 -132t48 -185q0 -111 -56 -198h-235v93q-36 -102 -163 -102q-62 0 -96.5 29t-34.5 77q0 101 157 116q75 7 106 28t32 67q0 46 -17 68.5t-48 22.5q-28 0 -64.5 -21.5t-62.5 -54t-26 -63.5v-17h-19v208 h20v-51q40 4 68 10q52 8 76 8q89 0 139.5 -45.5t50.5 -127.5v-227h105q48 85 48 180q0 96 -45.5 175t-124.5 124.5t-175 45.5t-175 -45.5t-124.5 -124.5t-45.5 -175t45.5 -175t124.5 -124.5t175 -45.5q71 0 134 25.5t110 71.5l14 -13q-50 -49 -116.5 -76.5t-141.5 -27.5 q-101 0 -185 48zM429.5 195.5q24.5 18.5 39.5 53t15 80.5v71q-22 -35 -76 -44q-48 -8 -71 -32t-23 -66q0 -36 18 -58.5t46 -22.5q27 0 51.5 18.5z" glyph-name="at.case"/>
</font>
</defs>
</svg>
