<?xml version="1.0" encoding="UTF-8"?>
<!DOCTYPE svg  PUBLIC '-//W3C//DTD SVG 1.1//EN'  'http://www.w3.org/Graphics/SVG/1.1/DTD/svg11.dtd'>
<svg version="1.1" xmlns="http://www.w3.org/2000/svg">
<defs>
<font id="KyivTypeSans-Light2" horiz-adv-x="560">
<font-face font-family="KyivType Sans Light2" font-weight="300" ascent="800" bbox="-487 -245 988 1026" cap-height="700" descent="-200" panose-1="0 0 4 0 0 0 0 0 0 0" underline-position="-100" underline-thickness="50" unicode-range="U+0020-2013" units-per-em="1000" x-height="500"/>
<missing-glyph/>
<glyph glyph-name="space" horiz-adv-x="250" unicode=" "/>
<glyph d="M109 700h64l-16 -500h-32zM110 6.5q-13 13.5 -13 32.5t13 32t32 13t32 -13t13 -32q0 -20 -13 -33t-32 -13t-32 13.5z" glyph-name="exclam" horiz-adv-x="284" unicode="!"/>
<glyph d="M48 708h68l-29 -184h-10zM200 708h68l-29 -184h-10z" glyph-name="quotedbl" horiz-adv-x="316" unicode='"'/>
<glyph d="M229 180h-145v53h145v234h-145v53h145v195h35v-195h173v195h35v-195h144v-53h-144v-234h144v-53h-144v-195h-35v195h-173v-195h-35v195zM437 233v234h-173v-234h173z" glyph-name="numbersign" horiz-adv-x="700" unicode="#"/>
<glyph d="M162.5 57q-73.5 65 -85.5 170h38q14 -95 82 -150.5t174 -55.5q97 0 152.5 38.5t55.5 108.5q0 52 -30 82.5t-76 45.5t-120 29q-81 16 -132.5 34t-88 56t-36.5 103q0 89 67 141.5t175 55.5v115h32v-115q108 -5 177 -68t80 -169h-40q-12 94 -74.5 147.5t-160.5 53.5 q-89 0 -145.5 -41t-56.5 -110q0 -49 29.5 -77.5t72.5 -42.5t119 -29q87 -18 139 -36t88.5 -57.5t36.5 -107.5q0 -90 -68 -140.5t-184 -52.5v-115h-32v115q-115 7 -188.5 72z" glyph-name="dollar" horiz-adv-x="700" unicode="$"/>
<glyph d="M118.5 401.5q-37.5 21.5 -59 59t-21.5 82.5t21.5 82t59 58.5t82.5 21.5t82 -21.5t58.5 -58.5t21.5 -82t-21.5 -82.5t-58.5 -59t-82 -21.5t-82.5 21.5zM562 700h36l-406 -700h-36zM287.5 449.5q34.5 37.5 34.5 93.5t-34.5 93t-86.5 37q-53 0 -87.5 -37t-34.5 -93t35 -93.5 t87 -37.5t86.5 37.5zM470.5 16.5q-37.5 21.5 -59 59t-21.5 82.5t21.5 82t59 58.5t82.5 21.5t82 -21.5t58.5 -58.5t21.5 -82t-21.5 -82.5t-58.5 -59t-82 -21.5t-82.5 21.5zM639.5 64.5q34.5 37.5 34.5 93.5t-34.5 93t-86.5 37t-87 -37t-35 -93t35 -93.5t87 -37.5t86.5 37.5z " glyph-name="percent" horiz-adv-x="753" unicode="%"/>
<glyph d="M154 12q-56 27 -87 76t-31 113q0 59 29 104.5t82 71.5t123 27h6l-203 255v41h483v-37h-416l397 -497q53 85 63 204h39q-12 -140 -75 -234l106 -136h-70l-75 93q-45 -52 -106 -80t-134 -28q-75 0 -131 27zM501 120l-200 254h-21q-86 -2 -138 -48t-52 -122q0 -82 54.5 -132 t146.5 -50q131 0 210 98z" glyph-name="ampersand" horiz-adv-x="706" unicode="&amp;"/>
<glyph d="M48 708h68l-29 -184h-10z" glyph-name="quotesingle" horiz-adv-x="164" unicode="'"/>
<glyph d="M235 -57q-59 58 -91.5 163.5t-32.5 243.5t32.5 243.5t91.5 163.5t137 58v-34q-63 0 -110.5 -53t-73 -150.5t-25.5 -227.5t25.5 -227.5t73 -150.5t110.5 -53v-34q-78 0 -137 58z" glyph-name="parenleft" horiz-adv-x="500" unicode="("/>
<glyph d="M266 757q59 -58 91.5 -163.5t32.5 -243.5t-32.5 -243.5t-91.5 -163.5t-137 -58v34q63 0 110.5 53t73 150.5t25.5 227.5t-25.5 227.5t-73 150.5t-110.5 53v34q78 0 137 -58z" glyph-name="parenright" horiz-adv-x="500" unicode=")"/>
<glyph d="M185 554l-77 -69l-69 20l19 69h119l-147 45v69l64 17l88 -105l-50 141l63 53l63 -53l-50 -141l88 105l64 -17v-69l-148 -45h119l19 -69l-68 -20l-78 69l9 -100h-37z" glyph-name="asterisk" horiz-adv-x="390" unicode="*"/>
<glyph d="M482 333h-184v-185h-35v185h-185v35h185v184h35v-184h184v-35z" glyph-name="plus" unicode="+"/>
<glyph d="M76 -113q48 59 55 113q-5 -4 -13 -4q-19 1 -30 13.5t-11 29.5q0 18 13 31.5t32 13.5q20 0 32.5 -13.5t12.5 -36.5q0 -36 -18 -81t-40 -67h-33v1z" glyph-name="comma" horiz-adv-x="244" unicode=","/>
<glyph d="M78 320h246v-39h-246v39z" glyph-name="hyphen" horiz-adv-x="402" unicode="-"/>
<glyph d="M90 6.5q-13 13.5 -13 32.5t13 32t32 13t32 -13t13 -32q0 -20 -13 -33t-32 -13t-32 13.5z" glyph-name="period" horiz-adv-x="244" unicode="."/>
<glyph d="M383 700h37l-338 -700h-37z" glyph-name="slash" horiz-adv-x="465" unicode="/"/>
<glyph d="M201.5 32q-67.5 47 -105.5 130.5t-38 187.5q0 105 38 188t105.5 130t152.5 47t152.5 -47t106 -130t38.5 -188q0 -104 -38.5 -187.5t-106 -130.5t-152.5 -47t-152.5 47zM477.5 64q54.5 42 85 116.5t30.5 169.5t-30.5 170t-85 117t-123.5 42t-123 -42t-84.5 -117 t-30.5 -170t30.5 -169.5t84.5 -116.5t123 -42t123.5 42z" glyph-name="zero" horiz-adv-x="708" unicode="0"/>
<glyph d="M187 643l-165 -105v44l182 118h40v-700h-57v643z" glyph-name="one" horiz-adv-x="378" unicode="1"/>
<glyph d="M352 246q71 48 113 105q-29 -28 -72.5 -43t-94.5 -15q-75 1 -134 28.5t-92 74.5t-33 106q0 61 34 109.5t95.5 76t139.5 27.5t139.5 -27t96 -75.5t34.5 -110.5q0 -76 -52 -145t-141 -129l-254 -175h467v-53h-550v35zM419 345.5q49 22.5 76 62.5t27 90q0 54 -27.5 95 t-76 64t-110.5 23q-61 0 -109.5 -23t-76 -63.5t-27.5 -92.5q0 -51 27.5 -91.5t76 -63.5t109.5 -23q62 0 111 22.5z" glyph-name="two" horiz-adv-x="611" unicode="2"/>
<glyph d="M146.5 13q-58.5 28 -92 78t-34.5 113h38q1 -52 29 -93t76.5 -64t108.5 -23q61 0 109 24.5t74.5 67t26.5 96.5q0 77 -46.5 124.5t-122.5 47.5q-32 0 -64 -9t-52 -24l-11 -8l-23 27l300 278h-428v52h495v-40l-288 -266q45 21 92 21q60 -1 106.5 -27t73 -72t26.5 -105 q0 -64 -33.5 -115.5t-93 -81t-135.5 -29.5q-73 0 -131.5 28z" glyph-name="three" horiz-adv-x="567" unicode="3"/>
<glyph d="M418 189h-404v34l398 477h62v-463h157v-48h-157v-189h-56v189zM418 237v416l-351 -416h351z" glyph-name="four" horiz-adv-x="636" unicode="4"/>
<glyph d="M171 10.5q-58 25.5 -92.5 72.5t-39.5 107h39q8 -74 67 -119.5t150 -45.5q65 0 114.5 26t77 72.5t27.5 106.5q0 57 -26 101t-73.5 68.5t-109.5 24.5q-73 0 -126.5 -29t-74.5 -79l-38 1l57 383h421v-52h-392l-42 -276q31 41 85 63.5t122 22.5q74 0 131.5 -28.5t90 -80 t32.5 -119.5q0 -72 -34 -127.5t-94.5 -86.5t-139.5 -31q-74 0 -132 25.5z" glyph-name="five" horiz-adv-x="614" unicode="5"/>
<glyph d="M197.5 31q-66.5 46 -103 129t-36.5 190t37.5 190t105.5 129t157 46q65 0 118 -24t87 -66.5t42 -96.5h-41q-12 66 -68 107t-135 41q-73 0 -129 -38.5t-87 -111t-31 -171.5q0 -32 5 -74q19 80 86 127.5t161 47.5q73 0 131.5 -30.5t92 -84.5t33.5 -122q0 -64 -35.5 -117.5 t-97.5 -85t-139 -31.5q-87 0 -153.5 46zM459.5 46.5q49.5 26.5 78 72t28.5 99.5q0 58 -27.5 104.5t-75.5 72.5t-109 26t-110.5 -25.5t-78.5 -68t-29 -93.5q0 -48 27.5 -98t76.5 -83t111 -33q59 0 108.5 26.5z" glyph-name="six" horiz-adv-x="670" unicode="6"/>
<glyph d="M258.5 238.5q45.5 120.5 112 226t142.5 182.5h-500v53h550v-40q-76 -78 -141 -184.5t-108 -230t-54 -245.5h-59q12 118 57.5 238.5z" glyph-name="seven" horiz-adv-x="573" unicode="7"/>
<glyph d="M194.5 10q-63.5 25 -99.5 69t-36 100q0 65 49 112.5t134 65.5q-76 17 -122.5 63t-46.5 105q0 53 34 95.5t94.5 66.5t136.5 24t136.5 -24t94.5 -66.5t34 -95.5q0 -59 -46.5 -105t-121.5 -63q84 -18 133.5 -65.5t49.5 -112.5q0 -56 -36 -100t-100 -69t-144 -25t-143.5 25z M447 392.5q48 19.5 75 54.5t27 78q0 44 -27 79t-75 54.5t-109 19.5t-108.5 -19.5t-74.5 -54.5t-27 -79t27 -78.5t74.5 -54t108.5 -19.5t109 19.5zM452.5 40q50.5 21 79 57.5t28.5 82.5t-28.5 82.5t-79 57.5t-114.5 21t-114 -21t-78.5 -57.5t-28.5 -82.5t28.5 -82.5 t78.5 -57.5t114 -21t114.5 21z" glyph-name="eight" horiz-adv-x="676" unicode="8"/>
<glyph d="M472.5 669q66.5 -46 103 -129t36.5 -190t-37.5 -190t-105.5 -129t-157 -46q-65 0 -118 24t-87 66.5t-42 96.5h41q12 -66 68 -107t135 -41q73 0 129 38.5t87 111t31 171.5q0 32 -5 74q-19 -80 -86 -127.5t-161 -47.5q-73 0 -131.5 30.5t-92 84.5t-33.5 122 q0 64 35.5 117.5t97.5 85t139 31.5q87 0 153.5 -46zM210.5 653.5q-49.5 -26.5 -78 -72t-28.5 -99.5q0 -58 27.5 -104.5t75.5 -72.5t109 -26t110.5 25.5t78.5 68t29 93.5q0 48 -27.5 98t-76.5 83t-111 33q-59 0 -108.5 -26.5z" glyph-name="nine" horiz-adv-x="670" unicode="9"/>
<glyph d="M90 6.5q-13 13.5 -13 32.5t13 32t32 13t32 -13t13 -32q0 -20 -13 -33t-32 -13t-32 13.5zM90 382.5q-13 13.5 -13 32.5t13 32t32 13t32 -13t13 -32q0 -20 -13 -33t-32 -13t-32 13.5z" glyph-name="colon" horiz-adv-x="244" unicode=":"/>
<glyph d="M76 -113q48 59 55 113q-5 -4 -13 -4q-19 1 -30 13.5t-11 29.5q0 18 13 31.5t32 13.5q20 0 32.5 -13.5t12.5 -36.5q0 -36 -18 -81t-40 -67h-33v1zM90 382.5q-13 13.5 -13 32.5t13 32t32 13t32 -13t13 -32q0 -20 -13 -33t-32 -13t-32 13.5z" glyph-name="semicolon" horiz-adv-x="244" unicode=";"/>
<glyph d="M482 517l-353 -166l353 -167v-39l-404 191v28l404 192v-39z" glyph-name="less" unicode="&lt;"/>
<glyph d="M78 462h404v-35h-404v35zM78 274h404v-35h-404v35z" glyph-name="equal" unicode="="/>
<glyph d="M78 183l353 167l-353 166v40l404 -192v-28l-404 -191v38z" glyph-name="greater" unicode="&gt;"/>
<glyph d="M242 212q0 62 26.5 100t76.5 75q45 36 67 67t22 79q0 68 -47 106t-119 38q-87 0 -134 -54.5t-46 -142.5h-38q-1 70 25.5 123.5t78 82.5t122.5 29q59 0 108 -20.5t78.5 -61.5t29.5 -98q0 -58 -26.5 -93.5t-70.5 -64.5q-42 -31 -65.5 -53.5t-37.5 -52.5t-14 -71h-35 q-1 4 -1 12zM236 6.5q-13 13.5 -13 32.5t13 32t32 13t32 -13t13 -32t-13 -32.5t-32 -13.5t-32 13.5z" glyph-name="question" horiz-adv-x="553" unicode="?"/>
<glyph d="M225 -119q-84 48 -132 132t-48 185t48 185t132 132t185 48t185 -48t132 -132t48 -185q0 -112 -56 -198h-177v106q-22 -53 -73 -84.5t-116 -31.5q-60 0 -95.5 28.5t-35.5 75.5q0 59 51 89t168 37q55 4 77.5 15t22.5 34q0 48 -36.5 81t-92.5 33q-57 0 -95 -32t-47 -88h-33 q10 70 58 110.5t121 40.5q77 0 123.5 -44t46.5 -119v-219h120q43 75 43 166q0 94 -45 171.5t-122.5 122.5t-171.5 45t-171.5 -45t-122 -122.5t-44.5 -171.5t44.5 -171.5t122 -122t171.5 -44.5q69 0 130 24t108 69l18 -18q-50 -49 -116 -75.5t-140 -26.5q-101 0 -185 48z M454 43.5q40 21.5 63.5 59t23.5 82.5v36q-32 -21 -105 -25q-86 -7 -126.5 -30.5t-40.5 -66.5q0 -37 25.5 -57t71.5 -20q48 0 88 21.5z" glyph-name="at" horiz-adv-x="820" unicode="@"/>
<glyph d="M309 700h64l293 -700h-64l-92 218h-362l-91 -218h-42zM498 253l-168 398h-1l-168 -398h337z" glyph-name="A" horiz-adv-x="682" unicode="A"/>
<glyph d="M380 700q112 0 175.5 -48t63.5 -132q0 -62 -34.5 -104t-100.5 -60v-4q79 -14 121.5 -58.5t42.5 -111.5q0 -84 -64.5 -133t-177.5 -49h-277v700h251zM514 407q48 39 48 109q0 71 -48 109.5t-136 38.5h-190v-296h191q87 0 135 39zM539 75q49 39 49 109t-50 109.5t-137 39.5 h-213v-297h213q89 0 138 39z" glyph-name="B" horiz-adv-x="707" unicode="B"/>
<glyph d="M237.5 31.5q-81.5 46.5 -127 129.5t-45.5 189t45.5 189t127 129.5t185.5 46.5q88 0 159 -35t116 -99.5t57 -148.5h-40q-18 110 -95 175.5t-190 65.5q-89 0 -158 -41t-107.5 -114.5t-38.5 -167.5t39 -167.5t108 -114.5t157 -41q75 0 135 30t99 84.5t51 126.5h40 q-12 -84 -57 -148.5t-116 -99.5t-159 -35q-104 0 -185.5 46.5z" glyph-name="C" horiz-adv-x="813" unicode="C"/>
<glyph d="M334 700q110 0 195 -44t131.5 -123.5t46.5 -182.5t-46.5 -182.5t-131.5 -123.5t-195 -44h-205v700h205zM498.5 76.5q70.5 38.5 109 109t38.5 164.5t-38.5 165t-109 109.5t-163.5 38.5h-146v-625h146q93 0 163.5 38.5z" glyph-name="D" horiz-adv-x="772" unicode="D"/>
<glyph d="M129 700h394v-37h-335v-295h247v-36h-247v-295h381v-37h-440v700z" glyph-name="E" horiz-adv-x="599" unicode="E"/>
<glyph d="M129 700h411v-38h-351v-296h264v-38h-264v-328h-60v700z" glyph-name="F" horiz-adv-x="548" unicode="F"/>
<glyph d="M234.5 31.5q-79.5 46.5 -124.5 129.5t-45 188q0 107 45.5 190t127 129.5t184.5 46.5q86 0 155 -32.5t114 -92t60 -139.5h-42q-20 102 -95 162.5t-184 60.5q-88 0 -157.5 -41t-108 -115t-38.5 -168q0 -95 38.5 -169t107.5 -115t156 -41q78 0 140 35t98 96.5t37 140.5v31 h-263v34h323v-362h-56v181q-31 -91 -108.5 -143.5t-183.5 -52.5q-101 0 -180.5 46.5z" glyph-name="G" horiz-adv-x="839" unicode="G"/>
<glyph d="M129 700h60v-330h443v330h60v-700h-60v330h-443v-330h-60v700z" glyph-name="H" horiz-adv-x="820" unicode="H"/>
<glyph d="M129 700h60v-700h-60v700z" glyph-name="I" horiz-adv-x="317" unicode="I"/>
<glyph d="M152 16q-54 31 -84.5 89t-30.5 134v39h40v-38q0 -96 52.5 -153.5t138.5 -57.5q83 0 132.5 56.5t49.5 151.5v463h60v-459q0 -78 -29 -135.5t-81.5 -89t-122.5 -31.5q-71 0 -125 31z" glyph-name="J" horiz-adv-x="621" unicode="J"/>
<glyph d="M129 700h59v-330h124l282 330h47l-281 -332l296 -368h-73l-270 330h-125v-330h-59v700z" glyph-name="K" horiz-adv-x="689" unicode="K"/>
<glyph d="M129 700h60v-661h371v-39h-431v700z" glyph-name="L" horiz-adv-x="595" unicode="L"/>
<glyph d="M129 700h83l281 -630l280 630h80v-700h-59v654l-290 -654h-47l-289 652v-652h-39v700z" glyph-name="M" horiz-adv-x="981" unicode="M"/>
<glyph d="M128 700h63l471 -616v616h38v-704h-43l-490 638v-634h-39v700z" glyph-name="N" horiz-adv-x="828" unicode="N"/>
<glyph d="M241.5 32.5q-82.5 47.5 -129.5 131t-47 186.5q0 104 47 187t129.5 130.5t185.5 47.5q102 0 184.5 -47.5t129.5 -130.5t47 -187q0 -103 -47 -186.5t-129.5 -131t-184.5 -47.5q-103 0 -185.5 47.5zM581.5 66.5q68.5 41.5 107 115.5t38.5 168q0 95 -38.5 169t-107 115.5 t-154.5 41.5t-154.5 -41.5t-107.5 -115.5t-39 -169q0 -94 39 -168t107.5 -115.5t154.5 -41.5t154.5 41.5z" glyph-name="O" horiz-adv-x="853" unicode="O"/>
<glyph d="M329 700q123 0 193 -54.5t70 -149.5t-70 -149.5t-193 -54.5h-141v-292h-59v700h200zM478 371.5q54 44.5 54 123.5t-54 123.5t-150 44.5h-140v-336h140q96 0 150 44.5z" glyph-name="P" horiz-adv-x="646" unicode="P"/>
<glyph d="M226.5 42.5q-75.5 48.5 -118.5 128.5t-43 179q0 104 47 187t129.5 130.5t185.5 47.5q102 0 184.5 -47.5t129.5 -130.5t47 -187q0 -98 -43 -178.5t-118 -129t-170 -54.5v-188h-60v188q-95 6 -170.5 54.5zM581.5 66.5q68.5 41.5 107 115.5t38.5 168q0 95 -38.5 169 t-107 115.5t-154.5 41.5t-154.5 -41.5t-107.5 -115.5t-39 -169q0 -94 39 -168t107.5 -115.5t154.5 -41.5t154.5 41.5z" glyph-name="Q" horiz-adv-x="853" unicode="Q"/>
<glyph d="M331 700q122 0 192.5 -54t70.5 -148q0 -76 -48 -126.5t-134 -65.5l251 -306h-71l-245 296h-25h-134v-296h-59v700h202zM481.5 375q54.5 44 54.5 122t-54.5 122t-150.5 44h-143v-332h143q96 0 150.5 44z" glyph-name="R" horiz-adv-x="681" unicode="R"/>
<glyph d="M190.5 14.5q-64.5 29.5 -103.5 84t-47 128.5h39q14 -95 82 -150.5t174 -55.5q98 0 153.5 38.5t55.5 108.5q0 52 -30 82.5t-76 45.5t-120 29q-81 16 -133.5 34t-89 56t-36.5 103q0 61 33 105.5t91 68t131 23.5q117 0 192 -63t86 -174h-40q-12 94 -75 147.5t-161 53.5 q-89 0 -145.5 -41t-56.5 -110q0 -49 29.5 -77.5t73 -42.5t119.5 -29q87 -18 139 -36t88.5 -57.5t36.5 -107.5q0 -92 -71 -142.5t-191 -50.5q-83 0 -147.5 29.5z" glyph-name="S" horiz-adv-x="648" unicode="S"/>
<glyph d="M294 661h-275v39h610v-39h-275v-661h-60v661z" glyph-name="T" horiz-adv-x="648" unicode="T"/>
<glyph d="M250.5 23q-66.5 38 -103 108t-36.5 163v406h60v-405q0 -125 65.5 -196.5t177.5 -71.5q74 0 129 33t85 94t30 143v403h40v-404q0 -94 -36 -164.5t-102 -108.5t-154 -38q-89 0 -155.5 38z" glyph-name="U" horiz-adv-x="807" unicode="U"/>
<glyph d="M24 700h64l271 -647h3l271 647h42l-293 -700h-65z" glyph-name="V" horiz-adv-x="698" unicode="V"/>
<glyph d="M37 700h62l200 -640l196 640h54l198 -640l201 640h40l-217 -700h-66l-194 629l-191 -629h-66z" glyph-name="W" horiz-adv-x="1024" unicode="W"/>
<glyph d="M301 352l-269 348h71l241 -306l244 306h48l-265 -334l283 -366h-72l-253 323l-257 -323h-49z" glyph-name="X" horiz-adv-x="675" unicode="X"/>
<glyph d="M299 272l-294 428h68l268 -390l267 390h45l-294 -428v-272h-60v272z" glyph-name="Y" horiz-adv-x="658" unicode="Y"/>
<glyph d="M46 35l468 627h-447v38h521v-35l-468 -627h470v-38h-544v35z" glyph-name="Z" horiz-adv-x="630" unicode="Z"/>
<glyph d="M152 800h246v-35h-196v-830h196v-35h-246v900z" glyph-name="bracketleft" horiz-adv-x="500" unicode="["/>
<glyph d="M45 700h37l338 -700h-37z" glyph-name="backslash" horiz-adv-x="465" unicode="\"/>
<glyph d="M348 -100h-246v35h196v830h-196v35h246v-900z" glyph-name="bracketright" horiz-adv-x="500" unicode="]"/>
<glyph d="M265 700h31l170 -296h-40l-146 254l-146 -254h-40z" glyph-name="asciicircum" unicode="^"/>
<glyph d="M30 2h388v-35h-388v35z" glyph-name="underscore" horiz-adv-x="448" unicode="_"/>
<glyph d="M92.5 23.5q-41.5 35.5 -41.5 95.5q0 79 70.5 111t182.5 41q68 4 103 16t35 38q0 68 -44 109.5t-115 41.5q-70 0 -117 -40.5t-60 -111.5h-35q13 86 71.5 136t146.5 50q93 0 149.5 -54.5t56.5 -145.5v-275h73v-35h-123v131q-26 -65 -89.5 -104t-143.5 -39 q-78 0 -119.5 35.5zM336.5 50.5q49.5 27.5 78 74.5t28.5 103l1 49q-28 -24 -128 -31q-110 -9 -160 -38.5t-50 -84.5q0 -48 32 -74t88 -26q61 0 110.5 27.5z" glyph-name="a" horiz-adv-x="603" unicode="a"/>
<glyph d="M237 28.5q-56 38.5 -83 105.5v-134h-52v710h54v-342q26 66 81.5 104t130.5 38q69 0 125 -34t88 -93.5t32 -132.5t-32 -132.5t-88 -93.5t-125 -34q-75 0 -131 38.5zM459.5 55.5q45.5 28.5 72 79.5t26.5 115t-26.5 115t-72 79.5t-101.5 28.5q-57 0 -103.5 -29.5t-73 -80.5 t-26.5 -113t26.5 -113t73 -80.5t103.5 -29.5q56 0 101.5 28.5z" glyph-name="b" horiz-adv-x="664" unicode="b"/>
<glyph d="M177.5 24q-59.5 34 -93 93t-33.5 133t33.5 133t93 93t133.5 34q98 0 162.5 -52t80.5 -142h-36q-16 73 -69.5 115.5t-131.5 42.5q-61 0 -109 -29t-75 -80t-27 -115t27 -114.5t75 -79.5t109 -29q79 0 132 42t69 116h36q-16 -90 -80.5 -142.5t-162.5 -52.5q-74 0 -133.5 34z " glyph-name="c" horiz-adv-x="599" unicode="c"/>
<glyph d="M171 24q-56 34 -88 93.5t-32 132.5t32 132.5t88 93.5t125 34q75 0 130.5 -38t81.5 -104v342h54v-710h-52v134q-27 -67 -83 -105.5t-131 -38.5q-69 0 -125 34zM409.5 56.5q46.5 29.5 73 80.5t26.5 113t-26.5 113t-73 80.5t-103.5 29.5q-56 0 -101.5 -28.5t-72 -79.5 t-26.5 -115t26.5 -115t72 -79.5t101.5 -28.5q57 0 103.5 29.5z" glyph-name="d" horiz-adv-x="664" unicode="d"/>
<glyph d="M178.5 24q-59.5 34 -93.5 93.5t-34 132.5t34.5 132.5t94 93.5t132.5 34t132 -34t93 -93t34 -133q0 -9 -1 -14h-465q3 -61 31 -109t75.5 -75t106.5 -27q69 0 121.5 33t72.5 88h38q-20 -70 -85 -113t-153 -43q-74 0 -133.5 34zM487.5 375q-27.5 49 -73.5 76t-102 27 q-57 0 -103 -27.5t-74 -76t-30 -108.5v-2h412q-2 62 -29.5 111z" glyph-name="e" horiz-adv-x="615" unicode="e"/>
<glyph d="M45 465v35h105v61q0 83 50 131t137 48q75 0 122.5 -40.5t47.5 -106.5h-36v2q-1 50 -38 81t-96 31q-65 0 -104 -35t-39 -100q0 -16 1 -27.5t2 -19.5l3 -25h231v-35h-229q2 -6 2 -15v-450h-54v465h-105z" glyph-name="f" horiz-adv-x="435" unicode="f"/>
<glyph d="M203 -191q-64 19 -98.5 54.5t-34.5 83.5q0 55 45 93t125 52q-106 12 -165 39.5t-59 90.5q0 27 19.5 46.5t49.5 20.5q23 0 39 -6q-18 31 -18 66q0 68 60 111t164 49v121h52v-121q110 -3 174.5 -46t64.5 -114q0 -73 -70 -116.5t-187 -43.5q-72 0 -111.5 12.5t-78.5 35.5 q-23 14 -39 20t-38 6q-20 0 -32.5 -12t-12.5 -29q0 -44 43.5 -67t107.5 -31.5t161 -13.5q130 -7 203 -43t73 -118q0 -48 -35 -84t-99.5 -55.5t-151.5 -19.5t-151 19zM511 253.5q55 35.5 55 95.5t-54.5 96t-147.5 36q-94 0 -149 -36t-55 -96t54.5 -95.5t149.5 -35.5 q92 0 147 35.5zM522 -143.5q62 34.5 62 93.5q0 64 -58 97.5t-171 33.5q-106 0 -168 -35.5t-62 -95.5q0 -59 62 -93.5t168 -34.5q105 0 167 34.5z" glyph-name="g" horiz-adv-x="666" unicode="g"/>
<glyph d="M156 710v-335q25 63 76 99t117 36q103 0 161 -64.5t58 -179.5v-266h-54v263q0 98 -47 153.5t-130 55.5q-51 0 -92.5 -27.5t-65 -75.5t-23.5 -107v-262h-54v710h54z" glyph-name="h" horiz-adv-x="660" unicode="h"/>
<glyph d="M102 500h54v-500h-54v500zM94 745h70l-30 -168h-10z" glyph-name="i" horiz-adv-x="258" unicode="i"/>
<glyph d="M-86.5 -175.5q-45.5 34.5 -45.5 87.5h36v-1q0 -38 35 -63.5t86 -25.5q56 0 91.5 32.5t35.5 95.5q0 31 -5 74q-5 70 -5 91v385h54v-535q0 -81 -45.5 -128t-124.5 -47q-67 0 -112.5 34.5zM134 745h70l-30 -168h-10z" glyph-name="j" horiz-adv-x="296" unicode="j"/>
<glyph d="M102 710h54v-442h94l213 232h43l-214 -235l226 -265h-66l-204 232h-92v-232h-54v710z" glyph-name="k" horiz-adv-x="542" unicode="k"/>
<glyph d="M102 710h54v-710h-54v710z" glyph-name="l" horiz-adv-x="258" unicode="l"/>
<glyph d="M154 500v-123q23 61 71.5 97t110.5 36q73 0 121 -38.5t65 -109.5q23 68 73.5 108t117.5 40q94 0 146.5 -60.5t52.5 -167.5v-282h-54v279q0 91 -41.5 142t-114.5 51q-47 0 -85.5 -27t-60.5 -74.5t-22 -106.5v-264h-54v279q0 91 -41.5 142t-113.5 51q-47 0 -86 -27.5 t-61 -75.5t-22 -107v-262h-54v500h52z" glyph-name="m" horiz-adv-x="1004" unicode="m"/>
<glyph d="M154 500v-126q25 63 76.5 99.5t118.5 36.5q103 0 161 -64.5t58 -179.5v-266h-54v263q0 98 -47 153.5t-130 55.5q-51 0 -92.5 -27.5t-65 -75.5t-23.5 -107v-262h-54v500h52z" glyph-name="n" horiz-adv-x="660" unicode="n"/>
<glyph d="M181 24q-61 34 -95.5 93.5t-34.5 132.5t34.5 132.5t95.5 93.5t135 34t135 -34t95.5 -93.5t34.5 -132.5t-34.5 -132.5t-95.5 -93.5t-135 -34t-135 34zM423 54q48 29 75.5 80.5t27.5 115.5t-27.5 115.5t-75.5 80.5t-107 29t-107 -29t-75.5 -80.5t-27.5 -115.5t27.5 -115.5 t75.5 -80.5t107 -29t107 29z" glyph-name="o" horiz-adv-x="632" unicode="o"/>
<glyph d="M154 500v-133q27 66 83 104.5t131 38.5q69 0 125 -34t88 -93.5t32 -132.5t-32 -132.5t-88 -93.5t-125 -34q-74 0 -130 38.5t-82 104.5v-333h-54v700h52zM459.5 55.5q45.5 28.5 72 79.5t26.5 115t-26.5 115t-72 79.5t-101.5 28.5q-57 0 -103.5 -29.5t-73 -80.5t-26.5 -113 t26.5 -113t73 -80.5t103.5 -29.5q56 0 101.5 28.5z" glyph-name="p" horiz-adv-x="664" unicode="p"/>
<glyph d="M508 133q-26 -66 -82 -104.5t-130 -38.5q-69 0 -125 34t-88 93.5t-32 132.5t32 132.5t88 93.5t125 34q75 0 131 -38.5t83 -104.5v133h52v-700h-54v333zM409.5 56.5q46.5 29.5 73 80.5t26.5 113t-26.5 113t-73 80.5t-103.5 29.5q-56 0 -101.5 -28.5t-72 -79.5t-26.5 -115 t26.5 -115t72 -79.5t101.5 -28.5q57 0 103.5 29.5z" glyph-name="q" horiz-adv-x="664" unicode="q"/>
<glyph d="M154 500v-129q23 63 71.5 101t109.5 38q78 0 121.5 -48t43.5 -135v-21h-54v20q0 70 -32.5 107t-93.5 37q-45 0 -82.5 -28t-59.5 -75.5t-22 -104.5v-262h-54v500h52z" glyph-name="r" horiz-adv-x="514" unicode="r"/>
<glyph d="M115.5 33q-67.5 44 -78.5 129h37q11 -69 67 -104.5t132 -35.5q58 0 108.5 24.5t50.5 76.5q0 32 -19 50t-48 27t-83 19l-30 6q-63 12 -103.5 25t-68.5 41t-28 75q0 74 60 109.5t143 35.5q87 0 148 -43t71 -125h-37q-11 67 -61.5 101t-123.5 34q-58 0 -105 -25.5t-47 -79.5 q0 -31 22 -49.5t55 -28t94 -20.5q69 -13 110.5 -26t70.5 -41t29 -77t-31.5 -81t-78.5 -46.5t-95 -14.5q-93 0 -160.5 44z" glyph-name="s" horiz-adv-x="530" unicode="s"/>
<glyph d="M149 152v313h-123v35h108q8 0 12.5 5t4.5 13v102h53l-1 -120h229v-35h-229v-311q0 -65 31.5 -96t97.5 -31q44 0 100 17v-34q-23 -8 -55 -14t-57 -6q-171 0 -171 162z" glyph-name="t" horiz-adv-x="468" unicode="t"/>
<glyph d="M150.5 54.5q-58.5 64.5 -58.5 179.5v266h54l1 -262q0 -99 46.5 -154.5t129.5 -55.5q51 0 92.5 27.5t65 75.5t23.5 108v261h54v-500h-52v126q-25 -63 -76.5 -99.5t-117.5 -36.5q-103 0 -161.5 64.5z" glyph-name="u" horiz-adv-x="660" unicode="u"/>
<glyph d="M10 500h58l206 -457h1l207 457h39l-225 -500h-61z" glyph-name="v" horiz-adv-x="530" unicode="v"/>
<glyph d="M23 500h55l151 -443l151 443h51l150 -442l152 442h37l-168 -500h-54l-152 445l-150 -445h-54z" glyph-name="w" horiz-adv-x="792" unicode="w"/>
<glyph d="M248 250l-209 250h66l181 -211l182 211h45l-203 -238l218 -262h-66l-190 225l-193 -225h-45z" glyph-name="x" unicode="x"/>
<glyph d="M67.5 -168q-41.5 42 -41.5 113v27h35v-29q0 -54 31.5 -86.5t81.5 -32.5q49 0 79 30.5t30 80.5v15q0 24 -5.5 45.5t-20.5 50.5l-244 454h61l215 -404q13 -25 18 -50q4 22 11 37l175 417h39l-187 -443q-10 -24 -14 -43.5t-4 -44.5v-23q0 -71 -41.5 -113.5t-109.5 -42.5 q-67 0 -108.5 42z" glyph-name="y" horiz-adv-x="541" unicode="y"/>
<glyph d="M38 32l360 433h-344v35h411v-31l-360 -434h361v-35h-428v32z" glyph-name="z" horiz-adv-x="512" unicode="z"/>
<glyph d="M209 -83.5q-38 31.5 -38 95.5q0 31 16 121t16 117q0 40 -19 61.5t-53 21.5h-38v35h38q34 0 53 21.5t19 61.5q0 27 -16 117t-16 120q0 64 38 95.5t96 31.5q48 0 87 -15v-36q-39 17 -79 17t-66 -23.5t-26 -70.5q0 -23 14 -107q16 -90 16 -122q0 -42 -18 -70t-53 -38 q35 -10 53 -37.5t18 -69.5q0 -33 -16 -123q-14 -82 -14 -107q0 -47 26 -70.5t66 -23.5t79 17v-36q-39 -15 -87 -15q-58 0 -96 31.5z" glyph-name="braceleft" horiz-adv-x="500" unicode="{"/>
<glyph d="M152 800h35v-900h-35v900z" glyph-name="bar" horiz-adv-x="339" unicode="|"/>
<glyph d="M292 783.5q38 -31.5 38 -95.5q0 -30 -16 -120t-16 -117q0 -40 18.5 -61.5t52.5 -21.5h38v-35h-38q-34 0 -52.5 -21.5t-18.5 -61.5q0 -27 16 -117t16 -121q0 -64 -38 -95.5t-96 -31.5q-49 0 -88 15v36q39 -17 79 -17t66 23.5t26 70.5q0 25 -14 107q-1 9 -8 52t-7 71 q0 42 17.5 69.5t52.5 37.5q-70 21 -70 108q0 27 7 70t8 52q14 84 14 107q0 47 -26 70.5t-66 23.5t-79 -17v36q39 15 88 15q58 0 96 -31.5z" glyph-name="braceright" horiz-adv-x="500" unicode="}"/>
<glyph d="M106 369.5q28 26.5 67 26.5q26 0 50 -7.5t61 -22.5q30 -13 52.5 -20t44.5 -7q27 0 47 16.5t20 39.5h35q0 -39 -28 -65t-68 -26q-26 0 -50.5 7.5t-59.5 22.5q-35 14 -55 20t-43 6q-27 0 -46.5 -16.5t-19.5 -39.5h-35q0 39 28 65.5z" glyph-name="asciitilde" unicode="~"/>
<glyph glyph-name="uni00A0" horiz-adv-x="250" unicode=" "/>
<glyph d="M174 494q13 -13 13 -32t-12.5 -32t-32.5 -13q-19 0 -32 13t-13 32t13 32t32 13t32 -13zM175 -200h-64l16 500h32z" glyph-name="exclamdown" horiz-adv-x="284" unicode="¡"/>
<glyph d="M483 171q53 42 69 116h37q-17 -87 -77 -138.5t-153 -55.5v-123h-32v123q-70 4 -125 38.5t-86 92t-31 128.5t31 128.5t86 92t125 38.5v119h32v-119q93 -4 153 -55t77 -138h-37q-16 73 -69.5 115.5t-131.5 42.5q-61 0 -109 -29t-75 -80t-27 -115t27 -114.5t75 -79.5 t109 -29q79 0 132 42z" glyph-name="cent" horiz-adv-x="700" unicode="¢"/>
<glyph d="M49 13q-32 28 -32 72q0 42 29.5 69.5t76.5 27.5q28 0 57.5 -10.5t65.5 -30.5q1 4 1 14q-1 30 -13 59t-37 78q-13 24 -23 44h-130v29h116q-32 71 -32 133q0 64 28.5 113.5t80.5 77t120 27.5t121.5 -27.5t84.5 -77t35 -114.5h-38q-6 83 -60 132.5t-137 49.5 q-82 0 -131.5 -50t-49.5 -133q0 -32 7.5 -62.5t21.5 -68.5h306v-29h-295q5 -13 17 -37q22 -49 32.5 -80t10.5 -64q0 -9 -2 -31l25 -14q59 -35 101.5 -53.5t85.5 -18.5q59 0 91 36t32 102q0 25 -6 55h36q6 -34 6 -64q0 -85 -43.5 -133.5t-116.5 -48.5q-38 0 -76 13t-67.5 30 t-82.5 50q-17 -42 -53 -67.5t-82 -25.5q-49 0 -81 28zM197.5 36.5q29.5 22.5 41.5 58.5q-37 23 -66.5 35t-55.5 12q-31 0 -50 -17t-19 -44q0 -29 22.5 -48t58.5 -19q39 0 68.5 22.5z" glyph-name="sterling" horiz-adv-x="700" unicode="£"/>
<glyph d="M191 217q-23 27 -36 61.5t-13 71.5t13 71.5t36 61.5l-92 93l26 26l92 -93q27 24 61.5 37t71.5 13q38 0 72 -13t61 -37l93 93l26 -26l-93 -93q24 -27 37 -61t13 -72q0 -37 -13 -71.5t-37 -61.5l93 -92l-26 -26l-93 92q-27 -23 -61.5 -36t-71.5 -13t-71.5 13t-61.5 36 l-92 -92l-26 26zM436.5 202q39.5 23 62.5 62.5t23 85.5q0 47 -23 86.5t-62.5 62.5t-86.5 23q-46 0 -85.5 -23t-62.5 -62.5t-23 -86.5q0 -46 23 -85.5t62.5 -62.5t85.5 -23q47 0 86.5 23z" glyph-name="currency" horiz-adv-x="700" unicode="¤"/>
<glyph d="M320 177h-232v29h231v69l-18 25h-213v29h195l-253 371h68l263 -385l263 385h46l-253 -371h212v-29h-230l-18 -26v-68h248v-29h-249v-177h-60v177z" glyph-name="yen" horiz-adv-x="700" unicode="¥"/>
<glyph d="M152 800h35v-380h-35v380zM152 280h35v-380h-35v380z" glyph-name="brokenbar" horiz-adv-x="339" unicode="¦"/>
<glyph d="M206 -53.5q-68 46.5 -80 136.5h38q11 -73 67 -110t132 -37q58 0 108.5 25.5t50.5 79.5q0 35 -19 55.5t-49 30t-85 21.5q-6 1 -25 5q-74 14 -118.5 28t-75.5 44t-31 82q0 54 38 87.5t99 45.5q-53 16 -83.5 44.5t-31.5 78.5q0 77 60.5 115t143.5 38q87 0 148.5 -45.5 t71.5 -132.5h-38q-11 71 -62 106t-123 35q-59 0 -105.5 -26.5t-46.5 -83.5q0 -34 22 -53.5t54.5 -29t93.5 -21.5q82 -16 126.5 -29t77 -42.5t32.5 -81.5q0 -55 -39.5 -89t-100.5 -48q56 -16 86.5 -44.5t30.5 -81.5q0 -52 -31.5 -85.5t-79 -48.5t-96.5 -15q-92 0 -160 46.5z M497.5 223q51.5 26 51.5 77q0 36 -21 56.5t-57.5 32t-111.5 26.5q7 -2 -36 8q-63 -5 -110.5 -30.5t-47.5 -75.5q0 -53 57.5 -80t163.5 -43q60 3 111.5 29z" glyph-name="section" horiz-adv-x="700" unicode="§"/>
<glyph d="M225 33q-84 48 -132 132t-48 185t48 185t132 132t185 48t185 -48t132 -132t48 -185t-48 -185t-132 -132t-185 -48t-185 48zM581.5 56.5q77.5 44.5 122.5 122t45 171.5t-45 171.5t-122.5 122.5t-171.5 45t-171.5 -45t-122 -122.5t-44.5 -171.5t44.5 -171.5t122 -122 t171.5 -44.5t171.5 44.5zM307.5 169q-47.5 27 -74.5 74.5t-27 106.5t27 106.5t74.5 74.5t106.5 27q78 0 130 -41.5t65 -113.5h-33q-12 57 -53.5 89.5t-103.5 32.5q-47 0 -85 -22.5t-59.5 -62.5t-21.5 -90t21.5 -90t59.5 -62.5t85 -22.5q62 0 103.5 32.5t53.5 90.5h33 q-13 -72 -65 -114t-130 -42q-59 0 -106.5 27z" glyph-name="copyright" horiz-adv-x="820" unicode="©"/>
<glyph d="M169 300l109 -200h-40l-106 194v12l106 194h40zM343 300l109 -200h-40l-106 194v12l106 194h40z" glyph-name="guillemotleft" horiz-adv-x="536" unicode="«"/>
<glyph d="M482 368v-220h-35v185h-369v35h404z" glyph-name="logicalnot" unicode="¬"/>
<glyph d="M136.5 378.5q-41.5 23.5 -65 65t-23.5 91.5t23.5 91.5t65 65t91.5 23.5t91.5 -23.5t65 -65t23.5 -91.5t-23.5 -91.5t-65 -65t-91.5 -23.5t-91.5 23.5zM310 394.5q37 21.5 58.5 58.5t21.5 82t-21.5 82t-58.5 58.5t-82 21.5t-82 -21.5t-58.5 -58.5t-21.5 -82t21.5 -82 t58.5 -58.5t82 -21.5t82 21.5zM221 642q37 0 58 -16t21 -45q0 -21 -12 -36t-33 -22l69 -85h-36l-65 80h-41v-80h-27v204h66zM259.5 550q13.5 11 13.5 31q0 18 -13.5 28.5t-38.5 10.5h-39v-81h39q25 0 38.5 11z" glyph-name="registered" horiz-adv-x="440" unicode="®"/>
<glyph d="M71 503.5q-36 36.5 -36 87.5t36 87.5t88 36.5q33 0 61.5 -17t45.5 -45.5t17 -61.5t-17 -61.5t-45.5 -45.5t-61.5 -17q-52 0 -88 36.5zM226 524q28 28 28 67q0 40 -28 67.5t-67 27.5q-40 0 -67.5 -27.5t-27.5 -67.5q0 -39 27.5 -67t67.5 -28q39 0 67 28z" glyph-name="degree" horiz-adv-x="317" unicode="°"/>
<glyph d="M298 423h184v-35h-184v-185h-35v185h-185v35h185v184h35v-184zM78 99v35h404v-35h-404z" glyph-name="plusminus" unicode="±"/>
<glyph d="M281 300q-62 0 -112.5 26.5t-79.5 72t-29 101.5t29 101.5t79.5 72t112.5 26.5h67v-900h-58v500h-9z" glyph-name="paragraph" horiz-adv-x="500" unicode="¶"/>
<glyph d="M90 268.5q-13 13.5 -13 32.5t13 32t32 13t32 -13t13 -32q0 -20 -13 -33t-32 -13t-32 13.5z" glyph-name="periodcentered" horiz-adv-x="244" unicode="·"/>
<glyph d="M367 300l-109 200h40l106 -194v-12l-106 -194h-40zM193 300l-109 200h40l106 -194v-12l-106 -194h-40z" glyph-name="guillemotright" horiz-adv-x="488" unicode="»"/>
<glyph d="M319 494q13 -13 13 -32t-13 -32t-32 -13t-32 13t-13 32t13 32t32 13t32 -13zM314 288q0 -62 -27 -100.5t-77 -73.5q-45 -38 -67 -68.5t-22 -78.5q0 -68 47.5 -106t118.5 -38q87 0 134 54.5t46 143.5h39q1 -70 -26 -123.5t-78.5 -83t-121.5 -29.5q-60 0 -109 20.5 t-78.5 61.5t-29.5 99q0 57 26.5 92.5t70.5 65.5q42 31 65.5 53.5t38 52.5t14.5 71h34q2 -8 2 -13z" glyph-name="questiondown" horiz-adv-x="553" unicode="¿"/>
<glyph d="M309 700h64l293 -700h-64l-92 218h-362l-91 -218h-42zM498 253l-168 398h-1l-168 -398h337zM314 781l-83 164h56l63 -164h-36z" glyph-name="Agrave" horiz-adv-x="682" unicode="À"/>
<glyph d="M309 700h64l293 -700h-64l-92 218h-362l-91 -218h-42zM498 253l-168 398h-1l-168 -398h337zM395 945h56l-82 -164h-36z" glyph-name="Aacute" horiz-adv-x="682" unicode="Á"/>
<glyph d="M309 700h64l293 -700h-64l-92 218h-362l-91 -218h-42zM498 253l-168 398h-1l-168 -398h337zM457 785l-126 127l-126 -127h-44l154 160h51l154 -160h-63z" glyph-name="Acircumflex" horiz-adv-x="682" unicode="Â"/>
<glyph d="M309 700h64l293 -700h-64l-92 218h-362l-91 -218h-42zM498 253l-168 398h-1l-168 -398h337zM180.5 890q26.5 26 65.5 26q25 0 48.5 -6.5t54.5 -19.5q29 -12 48.5 -18t39.5 -6q24 0 41.5 14.5t17.5 34.5h32q0 -40 -26 -66t-65 -26q-25 0 -48 7t-56 20q-32 12 -50 17.5 t-38 5.5q-24 0 -41 -14.5t-17 -34.5h-33q0 40 26.5 66z" glyph-name="Atilde" horiz-adv-x="682" unicode="Ã"/>
<glyph d="M309 700h64l293 -700h-64l-92 218h-362l-91 -218h-42zM498 253l-168 398h-1l-168 -398h337zM241 945h65l-28 -168h-9zM376 945h65l-28 -168h-9z" glyph-name="Adieresis" horiz-adv-x="682" unicode="Ä"/>
<glyph d="M309 700h64l293 -700h-64l-92 218h-362l-91 -218h-42zM498 253l-168 398h-1l-168 -398h337zM252.5 812.5q-36.5 36.5 -36.5 88.5t36.5 88.5t88.5 36.5t88.5 -36.5t36.5 -88.5t-36.5 -88.5t-88.5 -36.5t-88.5 36.5zM409.5 840.5q27.5 24.5 27.5 60.5t-27.5 60.5 t-68.5 24.5q-42 0 -68.5 -24.5t-26.5 -60.5t26.5 -60.5t68.5 -24.5q41 0 68.5 24.5z" glyph-name="Aring" horiz-adv-x="682" unicode="Å"/>
<glyph d="M650 37h330v-37h-378l-92 218h-362l-91 -218h-42l294 700h625v-37h-543l122 -295h333v-36h-318zM161 253h337l-168 398h-1z" glyph-name="AE" horiz-adv-x="1009" unicode="Æ"/>
<glyph d="M237.5 31.5q-81.5 46.5 -127 129.5t-45.5 189t45.5 189t127 129.5t185.5 46.5q88 0 159 -35t116 -99.5t57 -148.5h-40q-18 110 -95 175.5t-190 65.5q-89 0 -158 -41t-107.5 -114.5t-38.5 -167.5t39 -167.5t108 -114.5t157 -41q75 0 135 30t99 84.5t51 126.5h40 q-12 -84 -57 -148.5t-116 -99.5t-159 -35q-104 0 -185.5 46.5zM376 -245h-56l82 164h36z" glyph-name="Ccedilla" horiz-adv-x="813" unicode="Ç"/>
<glyph d="M129 700h394v-37h-335v-295h247v-36h-247v-295h381v-37h-440v700zM299 781l-83 164h56l63 -164h-36z" glyph-name="Egrave" horiz-adv-x="599" unicode="È"/>
<glyph d="M129 700h394v-37h-335v-295h247v-36h-247v-295h381v-37h-440v700zM380 945h56l-82 -164h-36z" glyph-name="Eacute" horiz-adv-x="599" unicode="É"/>
<glyph d="M129 700h394v-37h-335v-295h247v-36h-247v-295h381v-37h-440v700zM442 785l-126 127l-126 -127h-44l154 160h51l154 -160h-63z" glyph-name="Ecircumflex" horiz-adv-x="599" unicode="Ê"/>
<glyph d="M129 700h394v-37h-335v-295h247v-36h-247v-295h381v-37h-440v700zM226 945h65l-28 -168h-9zM361 945h65l-28 -168h-9z" glyph-name="Edieresis" horiz-adv-x="599" unicode="Ë"/>
<glyph d="M129 700h60v-700h-60v700zM132 781l-83 164h56l63 -164h-36z" glyph-name="Igrave" horiz-adv-x="317" unicode="Ì"/>
<glyph d="M129 700h60v-700h-60v700zM213 945h56l-82 -164h-36z" glyph-name="Iacute" horiz-adv-x="317" unicode="Í"/>
<glyph d="M129 700h60v-700h-60v700zM275 785l-126 127l-126 -127h-44l154 160h51l154 -160h-63z" glyph-name="Icircumflex" horiz-adv-x="317" unicode="Î"/>
<glyph d="M129 700h60v-700h-60v700zM59 945h65l-28 -168h-9zM194 945h65l-28 -168h-9z" glyph-name="Idieresis" horiz-adv-x="317" unicode="Ï"/>
<glyph d="M529 656q85 -44 131.5 -123.5t46.5 -182.5t-46.5 -182.5t-131.5 -123.5t-195 -44h-205v335h-80v30h80v335h205q110 0 195 -44zM498.5 76.5q70.5 38.5 109 109t38.5 164.5t-38.5 165t-109 109.5t-163.5 38.5h-146v-298h163v-30h-163v-297h146q93 0 163.5 38.5z" glyph-name="Eth" horiz-adv-x="772" unicode="Ð"/>
<glyph d="M128 700h63l471 -616v616h38v-704h-43l-490 638v-634h-39v700zM253.5 890q26.5 26 65.5 26q25 0 48.5 -6.5t54.5 -19.5q29 -12 48.5 -18t39.5 -6q24 0 41.5 14.5t17.5 34.5h32q0 -40 -26 -66t-65 -26q-25 0 -48 7t-56 20q-32 12 -50 17.5t-38 5.5q-24 0 -41 -14.5 t-17 -34.5h-33q0 40 26.5 66z" glyph-name="Ntilde" horiz-adv-x="828" unicode="Ñ"/>
<glyph d="M241.5 32.5q-82.5 47.5 -129.5 131t-47 186.5q0 104 47 187t129.5 130.5t185.5 47.5q102 0 184.5 -47.5t129.5 -130.5t47 -187q0 -103 -47 -186.5t-129.5 -131t-184.5 -47.5q-103 0 -185.5 47.5zM581.5 66.5q68.5 41.5 107 115.5t38.5 168q0 95 -38.5 169t-107 115.5 t-154.5 41.5t-154.5 -41.5t-107.5 -115.5t-39 -169q0 -94 39 -168t107.5 -115.5t154.5 -41.5t154.5 41.5zM400 781l-83 164h56l63 -164h-36z" glyph-name="Ograve" horiz-adv-x="853" unicode="Ò"/>
<glyph d="M241.5 32.5q-82.5 47.5 -129.5 131t-47 186.5q0 104 47 187t129.5 130.5t185.5 47.5q102 0 184.5 -47.5t129.5 -130.5t47 -187q0 -103 -47 -186.5t-129.5 -131t-184.5 -47.5q-103 0 -185.5 47.5zM581.5 66.5q68.5 41.5 107 115.5t38.5 168q0 95 -38.5 169t-107 115.5 t-154.5 41.5t-154.5 -41.5t-107.5 -115.5t-39 -169q0 -94 39 -168t107.5 -115.5t154.5 -41.5t154.5 41.5zM481 945h56l-82 -164h-36z" glyph-name="Oacute" horiz-adv-x="853" unicode="Ó"/>
<glyph d="M241.5 32.5q-82.5 47.5 -129.5 131t-47 186.5q0 104 47 187t129.5 130.5t185.5 47.5q102 0 184.5 -47.5t129.5 -130.5t47 -187q0 -103 -47 -186.5t-129.5 -131t-184.5 -47.5q-103 0 -185.5 47.5zM581.5 66.5q68.5 41.5 107 115.5t38.5 168q0 95 -38.5 169t-107 115.5 t-154.5 41.5t-154.5 -41.5t-107.5 -115.5t-39 -169q0 -94 39 -168t107.5 -115.5t154.5 -41.5t154.5 41.5zM543 785l-126 127l-126 -127h-44l154 160h51l154 -160h-63z" glyph-name="Ocircumflex" horiz-adv-x="853" unicode="Ô"/>
<glyph d="M241.5 32.5q-82.5 47.5 -129.5 131t-47 186.5q0 104 47 187t129.5 130.5t185.5 47.5q102 0 184.5 -47.5t129.5 -130.5t47 -187q0 -103 -47 -186.5t-129.5 -131t-184.5 -47.5q-103 0 -185.5 47.5zM581.5 66.5q68.5 41.5 107 115.5t38.5 168q0 95 -38.5 169t-107 115.5 t-154.5 41.5t-154.5 -41.5t-107.5 -115.5t-39 -169q0 -94 39 -168t107.5 -115.5t154.5 -41.5t154.5 41.5zM266.5 890q26.5 26 65.5 26q25 0 48.5 -6.5t54.5 -19.5q29 -12 48.5 -18t39.5 -6q24 0 41.5 14.5t17.5 34.5h32q0 -40 -26 -66t-65 -26q-25 0 -48 7t-56 20 q-32 12 -50 17.5t-38 5.5q-24 0 -41 -14.5t-17 -34.5h-33q0 40 26.5 66z" glyph-name="Otilde" horiz-adv-x="853" unicode="Õ"/>
<glyph d="M241.5 32.5q-82.5 47.5 -129.5 131t-47 186.5q0 104 47 187t129.5 130.5t185.5 47.5q102 0 184.5 -47.5t129.5 -130.5t47 -187q0 -103 -47 -186.5t-129.5 -131t-184.5 -47.5q-103 0 -185.5 47.5zM581.5 66.5q68.5 41.5 107 115.5t38.5 168q0 95 -38.5 169t-107 115.5 t-154.5 41.5t-154.5 -41.5t-107.5 -115.5t-39 -169q0 -94 39 -168t107.5 -115.5t154.5 -41.5t154.5 41.5zM327 945h65l-28 -168h-9zM462 945h65l-28 -168h-9z" glyph-name="Odieresis" horiz-adv-x="853" unicode="Ö"/>
<glyph d="M109 204l146 146l-146 146l25 25l146 -145l146 145l25 -25l-145 -146l145 -146l-25 -25l-146 146l-146 -146z" glyph-name="multiply" unicode="×"/>
<glyph d="M297.5 7.5q-60.5 22.5 -107.5 63.5l-69 -71h-45l87 94q-47 49 -72.5 114.5t-25.5 141.5q0 104 47 187t129.5 130.5t185.5 47.5q69 0 129.5 -22.5t108.5 -64.5l68 72h46l-89 -94q47 -49 72.5 -114.5t25.5 -141.5q0 -103 -47 -186.5t-129.5 -131t-184.5 -47.5 q-69 0 -129.5 22.5zM538.5 653.5q-51.5 23.5 -111.5 23.5q-87 0 -155.5 -41.5t-107.5 -116t-39 -169.5q0 -62 19.5 -116.5t56.5 -96.5l427 450q-38 43 -89.5 66.5zM582.5 64.5q68.5 41.5 107.5 116t39 169.5q0 62 -20 116.5t-56 96.5l-427 -450q38 -43 89 -66.5t112 -23.5 q87 0 155.5 41.5z" glyph-name="Oslash" horiz-adv-x="853" unicode="Ø"/>
<glyph d="M250.5 23q-66.5 38 -103 108t-36.5 163v406h60v-405q0 -125 65.5 -196.5t177.5 -71.5q74 0 129 33t85 94t30 143v403h40v-404q0 -94 -36 -164.5t-102 -108.5t-154 -38q-89 0 -155.5 38zM383 781l-83 164h56l63 -164h-36z" glyph-name="Ugrave" horiz-adv-x="807" unicode="Ù"/>
<glyph d="M250.5 23q-66.5 38 -103 108t-36.5 163v406h60v-405q0 -125 65.5 -196.5t177.5 -71.5q74 0 129 33t85 94t30 143v403h40v-404q0 -94 -36 -164.5t-102 -108.5t-154 -38q-89 0 -155.5 38zM464 945h56l-82 -164h-36z" glyph-name="Uacute" horiz-adv-x="807" unicode="Ú"/>
<glyph d="M250.5 23q-66.5 38 -103 108t-36.5 163v406h60v-405q0 -125 65.5 -196.5t177.5 -71.5q74 0 129 33t85 94t30 143v403h40v-404q0 -94 -36 -164.5t-102 -108.5t-154 -38q-89 0 -155.5 38zM526 785l-126 127l-126 -127h-44l154 160h51l154 -160h-63z" glyph-name="Ucircumflex" horiz-adv-x="807" unicode="Û"/>
<glyph d="M250.5 23q-66.5 38 -103 108t-36.5 163v406h60v-405q0 -125 65.5 -196.5t177.5 -71.5q74 0 129 33t85 94t30 143v403h40v-404q0 -94 -36 -164.5t-102 -108.5t-154 -38q-89 0 -155.5 38zM310 945h65l-28 -168h-9zM445 945h65l-28 -168h-9z" glyph-name="Udieresis" horiz-adv-x="807" unicode="Ü"/>
<glyph d="M299 272l-294 428h68l268 -390l267 390h45l-294 -428v-272h-60v272zM384 945h56l-82 -164h-36z" glyph-name="Yacute" horiz-adv-x="658" unicode="Ý"/>
<glyph d="M187 700v-140h142q121 0 191 -55t70 -150t-69.5 -149.5t-191.5 -54.5h-142v-151h-58v700h58zM477 231.5q54 44.5 54 123.5q0 78 -54 123t-150 45h-140v-336h140q96 0 150 44.5z" glyph-name="Thorn" horiz-adv-x="644" unicode="Þ"/>
<glyph d="M45 465v35h105v60q0 83 58 131.5t158 48.5q99 0 158 -48t59 -131v-85l-26 1q-30 2 -45 2q-59 0 -106 -25.5t-47 -80.5q0 -32 21.5 -50.5t52.5 -27t92 -21.5q67 -13 108.5 -26t70 -41t28.5 -76q0 -49 -31 -81t-77 -46.5t-92 -14.5q-89 0 -153.5 42.5t-75.5 125.5h33 q12 -67 66 -101t127 -34q57 0 106.5 24t49.5 76q0 37 -22 57t-53.5 28.5t-98.5 21.5q-62 11 -102 24t-67.5 40t-27.5 73q0 69 53.5 103.5t127.5 37.5h35v56q0 68 -46 105t-123 37q-76 0 -121.5 -35.5t-45.5 -101.5q0 -13 4 -41q6 -36 6 -66v-661h-54v665h-105z" glyph-name="germandbls" horiz-adv-x="758" unicode="ß"/>
<glyph d="M92.5 23.5q-41.5 35.5 -41.5 95.5q0 79 70.5 111t182.5 41q68 4 103 16t35 38q0 68 -44 109.5t-115 41.5q-70 0 -117 -40.5t-60 -111.5h-35q13 86 71.5 136t146.5 50q93 0 149.5 -54.5t56.5 -145.5v-275h73v-35h-123v131q-26 -65 -89.5 -104t-143.5 -39 q-78 0 -119.5 35.5zM336.5 50.5q49.5 27.5 78 74.5t28.5 103l1 49q-28 -24 -128 -31q-110 -9 -160 -38.5t-50 -84.5q0 -48 32 -74t88 -26q61 0 110.5 27.5zM258 581l-83 164h56l63 -164h-36z" glyph-name="agrave" horiz-adv-x="603" unicode="à"/>
<glyph d="M92.5 23.5q-41.5 35.5 -41.5 95.5q0 79 70.5 111t182.5 41q68 4 103 16t35 38q0 68 -44 109.5t-115 41.5q-70 0 -117 -40.5t-60 -111.5h-35q13 86 71.5 136t146.5 50q93 0 149.5 -54.5t56.5 -145.5v-275h73v-35h-123v131q-26 -65 -89.5 -104t-143.5 -39 q-78 0 -119.5 35.5zM336.5 50.5q49.5 27.5 78 74.5t28.5 103l1 49q-28 -24 -128 -31q-110 -9 -160 -38.5t-50 -84.5q0 -48 32 -74t88 -26q61 0 110.5 27.5zM339 745h56l-82 -164h-36z" glyph-name="aacute" horiz-adv-x="603" unicode="á"/>
<glyph d="M92.5 23.5q-41.5 35.5 -41.5 95.5q0 79 70.5 111t182.5 41q68 4 103 16t35 38q0 68 -44 109.5t-115 41.5q-70 0 -117 -40.5t-60 -111.5h-35q13 86 71.5 136t146.5 50q93 0 149.5 -54.5t56.5 -145.5v-275h73v-35h-123v131q-26 -65 -89.5 -104t-143.5 -39 q-78 0 -119.5 35.5zM336.5 50.5q49.5 27.5 78 74.5t28.5 103l1 49q-28 -24 -128 -31q-110 -9 -160 -38.5t-50 -84.5q0 -48 32 -74t88 -26q61 0 110.5 27.5zM401 585l-126 127l-126 -127h-44l154 160h51l154 -160h-63z" glyph-name="acircumflex" horiz-adv-x="603" unicode="â"/>
<glyph d="M92.5 23.5q-41.5 35.5 -41.5 95.5q0 79 70.5 111t182.5 41q68 4 103 16t35 38q0 68 -44 109.5t-115 41.5q-70 0 -117 -40.5t-60 -111.5h-35q13 86 71.5 136t146.5 50q93 0 149.5 -54.5t56.5 -145.5v-275h73v-35h-123v131q-26 -65 -89.5 -104t-143.5 -39 q-78 0 -119.5 35.5zM336.5 50.5q49.5 27.5 78 74.5t28.5 103l1 49q-28 -24 -128 -31q-110 -9 -160 -38.5t-50 -84.5q0 -48 32 -74t88 -26q61 0 110.5 27.5zM124.5 690q26.5 26 65.5 26q25 0 48.5 -6.5t54.5 -19.5q29 -12 48.5 -18t39.5 -6q24 0 41.5 14.5t17.5 34.5h32 q0 -40 -26 -66t-65 -26q-25 0 -48 7t-56 20q-32 12 -50 17.5t-38 5.5q-24 0 -41 -14.5t-17 -34.5h-33q0 40 26.5 66z" glyph-name="atilde" horiz-adv-x="603" unicode="ã"/>
<glyph d="M92.5 23.5q-41.5 35.5 -41.5 95.5q0 79 70.5 111t182.5 41q68 4 103 16t35 38q0 68 -44 109.5t-115 41.5q-70 0 -117 -40.5t-60 -111.5h-35q13 86 71.5 136t146.5 50q93 0 149.5 -54.5t56.5 -145.5v-275h73v-35h-123v131q-26 -65 -89.5 -104t-143.5 -39 q-78 0 -119.5 35.5zM336.5 50.5q49.5 27.5 78 74.5t28.5 103l1 49q-28 -24 -128 -31q-110 -9 -160 -38.5t-50 -84.5q0 -48 32 -74t88 -26q61 0 110.5 27.5zM185 745h65l-28 -168h-9zM320 745h65l-28 -168h-9z" glyph-name="adieresis" horiz-adv-x="603" unicode="ä"/>
<glyph d="M92.5 23.5q-41.5 35.5 -41.5 95.5q0 79 70.5 111t182.5 41q68 4 103 16t35 38q0 68 -44 109.5t-115 41.5q-70 0 -117 -40.5t-60 -111.5h-35q13 86 71.5 136t146.5 50q93 0 149.5 -54.5t56.5 -145.5v-275h73v-35h-123v131q-26 -65 -89.5 -104t-143.5 -39 q-78 0 -119.5 35.5zM336.5 50.5q49.5 27.5 78 74.5t28.5 103l1 49q-28 -24 -128 -31q-110 -9 -160 -38.5t-50 -84.5q0 -48 32 -74t88 -26q61 0 110.5 27.5zM196.5 612.5q-36.5 36.5 -36.5 88.5t36.5 88.5t88.5 36.5t88.5 -36.5t36.5 -88.5t-36.5 -88.5t-88.5 -36.5 t-88.5 36.5zM353.5 640.5q27.5 24.5 27.5 60.5t-27.5 60.5t-68.5 24.5q-42 0 -68.5 -24.5t-26.5 -60.5t26.5 -60.5t68.5 -24.5q41 0 68.5 24.5z" glyph-name="aring" horiz-adv-x="603" unicode="å"/>
<glyph d="M93 23.5q-42 35.5 -42 95.5q0 79 70.5 111t182.5 41q68 4 103 16t35 38q0 68 -44 109.5t-115 41.5q-70 0 -117 -40.5t-60 -111.5h-35q13 86 71 136t146 50q75 0 125 -37.5t64 -103.5q29 64 89.5 102.5t135.5 38.5q73 0 132 -34t93 -93t34 -133q0 -9 -1 -14h-465 q3 -61 31 -109t75.5 -75t105.5 -27q70 0 122.5 33t72.5 88h37q-20 -70 -85 -113t-153 -43q-84 0 -149.5 46.5t-91.5 121.5q-24 -82 -93 -126t-153 -44q-79 0 -121 35.5zM877.5 375q-27.5 49 -73.5 76t-103 27q-56 0 -102.5 -27.5t-74 -76t-29.5 -108.5v-2h412 q-2 62 -29.5 111zM336.5 50.5q49.5 27.5 78 74.5t28.5 103l1 49q-28 -24 -128 -31q-110 -9 -160 -38.5t-50 -84.5q0 -48 32 -74t88 -26q61 0 110.5 27.5z" glyph-name="ae" horiz-adv-x="1005" unicode="æ"/>
<glyph d="M177.5 24q-59.5 34 -93 93t-33.5 133t33.5 133t93 93t133.5 34q98 0 162.5 -52t80.5 -142h-36q-16 73 -69.5 115.5t-131.5 42.5q-61 0 -109 -29t-75 -80t-27 -115t27 -114.5t75 -79.5t109 -29q79 0 132 42t69 116h36q-16 -90 -80.5 -142.5t-162.5 -52.5q-74 0 -133.5 34z M264 -245h-56l82 164h36z" glyph-name="ccedilla" horiz-adv-x="599" unicode="ç"/>
<glyph d="M178.5 24q-59.5 34 -93.5 93.5t-34 132.5t34.5 132.5t94 93.5t132.5 34t132 -34t93 -93t34 -133q0 -9 -1 -14h-465q3 -61 31 -109t75.5 -75t106.5 -27q69 0 121.5 33t72.5 88h38q-20 -70 -85 -113t-153 -43q-74 0 -133.5 34zM487.5 375q-27.5 49 -73.5 76t-102 27 q-57 0 -103 -27.5t-74 -76t-30 -108.5v-2h412q-2 62 -29.5 111zM278 581l-83 164h56l63 -164h-36z" glyph-name="egrave" horiz-adv-x="615" unicode="è"/>
<glyph d="M178.5 24q-59.5 34 -93.5 93.5t-34 132.5t34.5 132.5t94 93.5t132.5 34t132 -34t93 -93t34 -133q0 -9 -1 -14h-465q3 -61 31 -109t75.5 -75t106.5 -27q69 0 121.5 33t72.5 88h38q-20 -70 -85 -113t-153 -43q-74 0 -133.5 34zM487.5 375q-27.5 49 -73.5 76t-102 27 q-57 0 -103 -27.5t-74 -76t-30 -108.5v-2h412q-2 62 -29.5 111zM359 745h56l-82 -164h-36z" glyph-name="eacute" horiz-adv-x="615" unicode="é"/>
<glyph d="M178.5 24q-59.5 34 -93.5 93.5t-34 132.5t34.5 132.5t94 93.5t132.5 34t132 -34t93 -93t34 -133q0 -9 -1 -14h-465q3 -61 31 -109t75.5 -75t106.5 -27q69 0 121.5 33t72.5 88h38q-20 -70 -85 -113t-153 -43q-74 0 -133.5 34zM487.5 375q-27.5 49 -73.5 76t-102 27 q-57 0 -103 -27.5t-74 -76t-30 -108.5v-2h412q-2 62 -29.5 111zM421 585l-126 127l-126 -127h-44l154 160h51l154 -160h-63z" glyph-name="ecircumflex" horiz-adv-x="615" unicode="ê"/>
<glyph d="M178.5 24q-59.5 34 -93.5 93.5t-34 132.5t34.5 132.5t94 93.5t132.5 34t132 -34t93 -93t34 -133q0 -9 -1 -14h-465q3 -61 31 -109t75.5 -75t106.5 -27q69 0 121.5 33t72.5 88h38q-20 -70 -85 -113t-153 -43q-74 0 -133.5 34zM487.5 375q-27.5 49 -73.5 76t-102 27 q-57 0 -103 -27.5t-74 -76t-30 -108.5v-2h412q-2 62 -29.5 111zM205 745h65l-28 -168h-9zM340 745h65l-28 -168h-9z" glyph-name="edieresis" horiz-adv-x="615" unicode="ë"/>
<glyph d="M102 500h54v-500h-54v500zM102 581l-83 164h56l63 -164h-36z" glyph-name="igrave" horiz-adv-x="258" unicode="ì"/>
<glyph d="M102 500h54v-500h-54v500zM183 745h56l-82 -164h-36z" glyph-name="iacute" horiz-adv-x="258" unicode="í"/>
<glyph d="M102 500h54v-500h-54v500zM245 585l-126 127l-126 -127h-44l154 160h51l154 -160h-63z" glyph-name="icircumflex" horiz-adv-x="258" unicode="î"/>
<glyph d="M102 500h54v-500h-54v500zM29 745h65l-28 -168h-9zM164 745h65l-28 -168h-9z" glyph-name="idieresis" horiz-adv-x="258" unicode="ï"/>
<glyph d="M181 24q-61 34 -95.5 93.5t-34.5 132.5t34.5 132t94.5 93t134 34q66 0 119 -33l-24 33l-58 75h-173v30h151l-75 96h44l76 -96h145v-30h-124l117 -150q69 -85 69 -184q0 -73 -34.5 -132.5t-95 -93.5t-135.5 -34q-74 0 -135 34zM423 54q48 29 75.5 80.5t27.5 115.5 t-27.5 115.5t-75.5 80.5t-107 29t-107 -29t-75.5 -80.5t-27.5 -115.5t27.5 -115.5t75.5 -80.5t107 -29t107 29z" glyph-name="eth" horiz-adv-x="632" unicode="ð"/>
<glyph d="M154 500v-126q25 63 76.5 99.5t118.5 36.5q103 0 161 -64.5t58 -179.5v-266h-54v263q0 98 -47 153.5t-130 55.5q-51 0 -92.5 -27.5t-65 -75.5t-23.5 -107v-262h-54v500h52zM176.5 690q26.5 26 65.5 26q25 0 48.5 -6.5t54.5 -19.5q29 -12 48.5 -18t39.5 -6q24 0 41.5 14.5 t17.5 34.5h32q0 -40 -26 -66t-65 -26q-25 0 -48 7t-56 20q-32 12 -50 17.5t-38 5.5q-24 0 -41 -14.5t-17 -34.5h-33q0 40 26.5 66z" glyph-name="ntilde" horiz-adv-x="660" unicode="ñ"/>
<glyph d="M181 24q-61 34 -95.5 93.5t-34.5 132.5t34.5 132.5t95.5 93.5t135 34t135 -34t95.5 -93.5t34.5 -132.5t-34.5 -132.5t-95.5 -93.5t-135 -34t-135 34zM423 54q48 29 75.5 80.5t27.5 115.5t-27.5 115.5t-75.5 80.5t-107 29t-107 -29t-75.5 -80.5t-27.5 -115.5t27.5 -115.5 t75.5 -80.5t107 -29t107 29zM289 581l-83 164h56l63 -164h-36z" glyph-name="ograve" horiz-adv-x="632" unicode="ò"/>
<glyph d="M181 24q-61 34 -95.5 93.5t-34.5 132.5t34.5 132.5t95.5 93.5t135 34t135 -34t95.5 -93.5t34.5 -132.5t-34.5 -132.5t-95.5 -93.5t-135 -34t-135 34zM423 54q48 29 75.5 80.5t27.5 115.5t-27.5 115.5t-75.5 80.5t-107 29t-107 -29t-75.5 -80.5t-27.5 -115.5t27.5 -115.5 t75.5 -80.5t107 -29t107 29zM370 745h56l-82 -164h-36z" glyph-name="oacute" horiz-adv-x="632" unicode="ó"/>
<glyph d="M181 24q-61 34 -95.5 93.5t-34.5 132.5t34.5 132.5t95.5 93.5t135 34t135 -34t95.5 -93.5t34.5 -132.5t-34.5 -132.5t-95.5 -93.5t-135 -34t-135 34zM423 54q48 29 75.5 80.5t27.5 115.5t-27.5 115.5t-75.5 80.5t-107 29t-107 -29t-75.5 -80.5t-27.5 -115.5t27.5 -115.5 t75.5 -80.5t107 -29t107 29zM432 585l-126 127l-126 -127h-44l154 160h51l154 -160h-63z" glyph-name="ocircumflex" horiz-adv-x="632" unicode="ô"/>
<glyph d="M181 24q-61 34 -95.5 93.5t-34.5 132.5t34.5 132.5t95.5 93.5t135 34t135 -34t95.5 -93.5t34.5 -132.5t-34.5 -132.5t-95.5 -93.5t-135 -34t-135 34zM423 54q48 29 75.5 80.5t27.5 115.5t-27.5 115.5t-75.5 80.5t-107 29t-107 -29t-75.5 -80.5t-27.5 -115.5t27.5 -115.5 t75.5 -80.5t107 -29t107 29zM155.5 690q26.5 26 65.5 26q25 0 48.5 -6.5t54.5 -19.5q29 -12 48.5 -18t39.5 -6q24 0 41.5 14.5t17.5 34.5h32q0 -40 -26 -66t-65 -26q-25 0 -48 7t-56 20q-32 12 -50 17.5t-38 5.5q-24 0 -41 -14.5t-17 -34.5h-33q0 40 26.5 66z" glyph-name="otilde" horiz-adv-x="632" unicode="õ"/>
<glyph d="M181 24q-61 34 -95.5 93.5t-34.5 132.5t34.5 132.5t95.5 93.5t135 34t135 -34t95.5 -93.5t34.5 -132.5t-34.5 -132.5t-95.5 -93.5t-135 -34t-135 34zM423 54q48 29 75.5 80.5t27.5 115.5t-27.5 115.5t-75.5 80.5t-107 29t-107 -29t-75.5 -80.5t-27.5 -115.5t27.5 -115.5 t75.5 -80.5t107 -29t107 29zM216 745h65l-28 -168h-9zM351 745h65l-28 -168h-9z" glyph-name="odieresis" horiz-adv-x="632" unicode="ö"/>
<glyph d="M253.5 501q-10.5 11 -10.5 27t10.5 26.5t26.5 10.5t27 -10.5t11 -26.5t-11 -27t-27 -11t-26.5 11zM76 368h408v-35h-408v35zM253.5 146q-10.5 11 -10.5 27t10.5 26.5t26.5 10.5t27 -10.5t11 -26.5t-11 -27t-27 -11t-26.5 11z" glyph-name="divide" unicode="÷"/>
<glyph d="M223 5.5q-44 15.5 -77 44.5l-48 -50h-41l66 69q-35 36 -53.5 82t-18.5 99q0 73 34.5 132.5t95.5 93.5t135 34q97 0 169 -59l47 49h40l-64 -67q35 -36 54 -82.5t19 -100.5q0 -73 -34.5 -132.5t-95.5 -93.5t-135 -34q-49 0 -93 15.5zM316 478q-60 0 -109 -29.5t-76.5 -81.5 t-27.5 -117q0 -41 14 -78t39 -65l298 311q-55 60 -138 60zM425 52q49 29 76.5 81t27.5 117q0 43 -14 80.5t-39 66.5l-298 -312q54 -62 138 -62q60 0 109 29z" glyph-name="oslash" horiz-adv-x="632" unicode="ø"/>
<glyph d="M150.5 54.5q-58.5 64.5 -58.5 179.5v266h54l1 -262q0 -99 46.5 -154.5t129.5 -55.5q51 0 92.5 27.5t65 75.5t23.5 108v261h54v-500h-52v126q-25 -63 -76.5 -99.5t-117.5 -36.5q-103 0 -161.5 64.5zM297 581l-83 164h56l63 -164h-36z" glyph-name="ugrave" horiz-adv-x="660" unicode="ù"/>
<glyph d="M150.5 54.5q-58.5 64.5 -58.5 179.5v266h54l1 -262q0 -99 46.5 -154.5t129.5 -55.5q51 0 92.5 27.5t65 75.5t23.5 108v261h54v-500h-52v126q-25 -63 -76.5 -99.5t-117.5 -36.5q-103 0 -161.5 64.5zM378 745h56l-82 -164h-36z" glyph-name="uacute" horiz-adv-x="660" unicode="ú"/>
<glyph d="M150.5 54.5q-58.5 64.5 -58.5 179.5v266h54l1 -262q0 -99 46.5 -154.5t129.5 -55.5q51 0 92.5 27.5t65 75.5t23.5 108v261h54v-500h-52v126q-25 -63 -76.5 -99.5t-117.5 -36.5q-103 0 -161.5 64.5zM440 585l-126 127l-126 -127h-44l154 160h51l154 -160h-63z" glyph-name="ucircumflex" horiz-adv-x="660" unicode="û"/>
<glyph d="M150.5 54.5q-58.5 64.5 -58.5 179.5v266h54l1 -262q0 -99 46.5 -154.5t129.5 -55.5q51 0 92.5 27.5t65 75.5t23.5 108v261h54v-500h-52v126q-25 -63 -76.5 -99.5t-117.5 -36.5q-103 0 -161.5 64.5zM224 745h65l-28 -168h-9zM359 745h65l-28 -168h-9z" glyph-name="udieresis" horiz-adv-x="660" unicode="ü"/>
<glyph d="M67.5 -168q-41.5 42 -41.5 113v27h35v-29q0 -54 31.5 -86.5t81.5 -32.5q49 0 79 30.5t30 80.5v15q0 24 -5.5 45.5t-20.5 50.5l-244 454h61l215 -404q13 -25 18 -50q4 22 11 37l175 417h39l-187 -443q-10 -24 -14 -43.5t-4 -44.5v-23q0 -71 -41.5 -113.5t-109.5 -42.5 q-67 0 -108.5 42zM330 745h56l-82 -164h-36z" glyph-name="yacute" horiz-adv-x="541" unicode="ý"/>
<glyph d="M156 710v-342q26 66 81.5 104t130.5 38q69 0 125 -34t88 -93.5t32 -132.5t-32 -132.5t-88 -93.5t-125 -34q-74 0 -130 38.5t-82 104.5v-333h-54v910h54zM459.5 55.5q45.5 28.5 72 79.5t26.5 115t-26.5 115t-72 79.5t-101.5 28.5q-57 0 -103.5 -29.5t-73 -80.5t-26.5 -113 t26.5 -113t73 -80.5t103.5 -29.5q56 0 101.5 28.5z" glyph-name="thorn" horiz-adv-x="664" unicode="þ"/>
<glyph d="M102 500h54v-500h-54v500z" glyph-name="dotlessi" horiz-adv-x="258" unicode="ı"/>
<glyph d="M-86.5 -175.5q-45.5 34.5 -45.5 87.5h36v-1q0 -38 35 -63.5t86 -25.5q56 0 91.5 32.5t35.5 95.5q0 31 -5 74q-5 70 -5 91v385h54v-535q0 -81 -45.5 -128t-124.5 -47q-67 0 -112.5 34.5z" glyph-name="uni0237" horiz-adv-x="296" unicode="ȷ"/>
<glyph d="M-327 581l-83 164h56l63 -164h-36z" glyph-name="gravecomb" horiz-adv-x="0" unicode="̀"/>
<glyph d="M-246 745h56l-82 -164h-36z" glyph-name="acutecomb" horiz-adv-x="0" unicode="́"/>
<glyph d="M-184 585l-126 127l-126 -127h-44l154 160h51l154 -160h-63z" glyph-name="uni0302" horiz-adv-x="0" unicode="̂"/>
<glyph d="M-460.5 690q26.5 26 65.5 26q25 0 48.5 -6.5t54.5 -19.5q29 -12 48.5 -18t39.5 -6q24 0 41.5 14.5t17.5 34.5h32q0 -40 -26 -66t-65 -26q-25 0 -48 7t-56 20q-32 12 -50 17.5t-38 5.5q-24 0 -41 -14.5t-17 -34.5h-33q0 40 26.5 66z" glyph-name="tildecomb" horiz-adv-x="0" unicode="̃"/>
<glyph d="M-335 745h70l-30 -168h-10z" glyph-name="uni0307" horiz-adv-x="0" unicode="̇"/>
<glyph d="M-400 745h65l-28 -168h-9zM-265 745h65l-28 -168h-9z" glyph-name="uni0308" horiz-adv-x="0" unicode="̈"/>
<glyph d="M-388.5 612.5q-36.5 36.5 -36.5 88.5t36.5 88.5t88.5 36.5t88.5 -36.5t36.5 -88.5t-36.5 -88.5t-88.5 -36.5t-88.5 36.5zM-231.5 640.5q27.5 24.5 27.5 60.5t-27.5 60.5t-68.5 24.5q-42 0 -68.5 -24.5t-26.5 -60.5t26.5 -60.5t68.5 -24.5q41 0 68.5 24.5z" glyph-name="uni030A" horiz-adv-x="0" unicode="̊"/>
<glyph d="M-344 -245h-56l82 164h36z" glyph-name="uni0327" horiz-adv-x="0" unicode="̧"/>
<glyph d="M78 318h388v-35h-388v35z" glyph-name="endash" horiz-adv-x="544" unicode="–"/>
<glyph d="M121 350l109 -200h-40l-106 194v12l106 194h40zM295 350l109 -200h-40l-106 194v12l106 194h40z" glyph-name="guillemotleft.case" horiz-adv-x="488"/>
<glyph d="M367 350l-109 200h40l106 -194v-12l-106 -194h-40zM193 350l-109 200h40l106 -194v-12l-106 -194h-40z" glyph-name="guillemotright.case" horiz-adv-x="488"/>
<glyph d="M225 33q-84 48 -132 132t-48 185t48 185t132 132t185 48t185 -48t132 -132t48 -185q0 -112 -56 -198h-177v106q-22 -53 -73 -84.5t-116 -31.5q-60 0 -95.5 28.5t-35.5 75.5q0 59 51 89t168 37q55 4 77.5 15t22.5 34q0 48 -36.5 81t-92.5 33q-57 0 -95 -32t-47 -88h-33 q10 70 58 110.5t121 40.5q77 0 123.5 -44t46.5 -119v-219h120q43 75 43 166q0 94 -45 171.5t-122.5 122.5t-171.5 45t-171.5 -45t-122 -122.5t-44.5 -171.5t44.5 -171.5t122 -122t171.5 -44.5q69 0 130 24t108 69l18 -18q-50 -49 -116 -75.5t-140 -26.5q-101 0 -185 48z M454 195.5q40 21.5 63.5 59t23.5 82.5v36q-32 -21 -105 -25q-86 -7 -126.5 -30.5t-40.5 -66.5q0 -37 25.5 -57t71.5 -20q48 0 88 21.5z" glyph-name="at.case" horiz-adv-x="820"/>
<glyph d="M-335 745h70l-30 -168h-10z" glyph-name="uni0307.cv01" horiz-adv-x="0"/>
</font>
</defs>
</svg>
