<?xml version="1.0" encoding="UTF-8"?>
<!DOCTYPE svg  PUBLIC '-//W3C//DTD SVG 1.1//EN'  'http://www.w3.org/Graphics/SVG/1.1/DTD/svg11.dtd'>
<svg version="1.1" xmlns="http://www.w3.org/2000/svg">
<defs>
<font id="KyivTypeSans-Black" horiz-adv-x="820">
<font-face font-family="KyivType Sans Black" font-weight="900" ascent="800" bbox="-532 -245 1048 1030" cap-height="700" descent="-200" panose-1="0 0 10 0 0 0 0 0 0 0" underline-position="-100" underline-thickness="50" unicode-range="U+0020-2013" units-per-em="1000" x-height="500"/>
<missing-glyph/>
<glyph glyph-name="space" horiz-adv-x="250" unicode=" "/>
<glyph d="M65 700h240l-40 -420h-160zM101 24q-36 36 -36 89t36 89t89 36t89 -36t36 -89t-36 -89t-89 -36t-89 36z" glyph-name="exclam" horiz-adv-x="380" unicode="!"/>
<glyph d="M400 700l-105 -280h-10l-75 200l-75 -200h-10l-105 280h380z" glyph-name="quotedbl" horiz-adv-x="420" unicode='"'/>
<glyph d="M125 100h-95v185h95v130h-95v185h95v115h170v-115h110v115h170v-115h95v-185h-95v-130h95v-185h-95v-115h-170v115h-110v-115h-170v115zM405 285v130h-110v-130h110z" glyph-name="numbersign" horiz-adv-x="700" unicode="#"/>
<glyph d="M96 69.5q-71 64.5 -80 180.5h212q10 -43 42.5 -64.5t83.5 -21.5q92 0 92 41q0 15 -10.5 23.5t-34 15.5t-83.5 21q-87 20 -145 43t-99 68.5t-41 118.5q0 98 70.5 151.5t176.5 65.5v118h140v-121q104 -17 172.5 -78t79.5 -173h-222q-9 38 -41 56.5t-78 18.5 q-28 0 -53.5 -7.5t-25.5 -30.5q0 -21 23.5 -31.5t89.5 -26.5l21 -5q91 -21 149.5 -45t95.5 -68t37 -115q0 -87 -64.5 -144.5t-183.5 -70.5v-119h-140v120q-113 15 -184 79.5z" glyph-name="dollar" horiz-adv-x="700" unicode="$"/>
<glyph d="M111.5 359.5q-42.5 24.5 -67 67t-24.5 93.5t24.5 93.5t67 67t93.5 24.5t93.5 -24.5t67 -67t24.5 -93.5t-24.5 -93.5t-67 -67t-93.5 -24.5t-93.5 24.5zM593 700h162l-478 -700h-162zM237 488q13 13 13 32t-13 32t-32 13t-32 -13t-13 -32t13 -32t32 -13t32 13zM571.5 19.5 q-42.5 24.5 -67 67t-24.5 93.5t24.5 93.5t67 67t93.5 24.5t93.5 -24.5t67 -67t24.5 -93.5t-24.5 -93.5t-67 -67t-93.5 -24.5t-93.5 24.5zM697 148q13 13 13 32t-13 32t-32 13t-32 -13t-13 -32t13 -32t32 -13t32 13z" glyph-name="percent" horiz-adv-x="870" unicode="%"/>
<glyph d="M153.5 11.5q-67.5 26.5 -104 76t-36.5 114.5q0 78 47.5 130.5t130.5 67.5l-105 120v180h574v-192h-311l170 -193q12 43 14 92h208q-3 -151 -78 -257l131 -150h-254l-24 28q-91 -43 -206 -43q-89 0 -156.5 26.5zM389 173l-90 103h-14q-29 0 -46.5 -15t-17.5 -38 q0 -27 24 -44.5t60 -17.5q48 0 84 12z" glyph-name="ampersand" horiz-adv-x="794" unicode="&amp;"/>
<glyph d="M20 700h220l-105 -280h-10z" glyph-name="quotesingle" horiz-adv-x="260" unicode="'"/>
<glyph d="M246 -56.5q-74 58.5 -115 164.5t-41 242t41 242t115 164.5t169 58.5v-170q-43 0 -76.5 -37t-52 -104.5t-18.5 -153.5t18.5 -153.5t52 -104.5t76.5 -37v-170q-95 0 -169 58.5z" glyph-name="parenleft" horiz-adv-x="500" unicode="("/>
<glyph d="M254 756.5q74 -58.5 115 -164.5t41 -242t-41 -242t-115 -164.5t-169 -58.5v170q43 0 76.5 37t52 104.5t18.5 153.5t-18.5 153.5t-52 104.5t-76.5 37v170q95 0 169 -58.5z" glyph-name="parenright" horiz-adv-x="500" unicode=")"/>
<glyph d="M185 554l-77 -69l-69 20l19 69h119l-147 45v69l64 17l88 -105l-50 141l63 53l63 -53l-50 -141l88 105l64 -17v-69l-148 -45h119l19 -69l-68 -20l-78 69l9 -100h-37z" glyph-name="asterisk" horiz-adv-x="390" unicode="*"/>
<glyph d="M500 265h-135v-135h-170v135h-135v170h135v135h170v-135h135v-170z" glyph-name="plus" horiz-adv-x="560" unicode="+"/>
<glyph d="M135 -5q-46 15 -68 46t-22 70q0 32 15 61t43 47.5t65 18.5q52 0 90 -33.5t38 -93.5q0 -51 -28.5 -110t-68.5 -91h-102q22 35 38 85z" glyph-name="comma" horiz-adv-x="340" unicode=","/>
<glyph d="M60 385h300v-170h-300v170z" glyph-name="hyphen" horiz-adv-x="420" unicode="-"/>
<glyph d="M81 24q-36 36 -36 89t36 89t89 36t89 -36t36 -89t-36 -89t-89 -36t-89 36z" glyph-name="period" horiz-adv-x="340" unicode="."/>
<glyph d="M338 700h186l-338 -700h-186z" glyph-name="slash" horiz-adv-x="524" unicode="/"/>
<glyph d="M196 31q-74 46 -115 129t-41 190t41 190t115 129t169 46t169 -46t115 -129t41 -190t-41 -190t-115 -129t-169 -46t-169 46zM446 221q29 46 29 129t-29 129t-81 46t-81 -46t-29 -129t29 -129t81 -46t81 46z" glyph-name="zero" horiz-adv-x="730" unicode="0"/>
<glyph d="M215 451l-170 -105v231l200 123h175v-700h-205v451z" glyph-name="one" horiz-adv-x="510" unicode="1"/>
<glyph d="M243 266q-2 0 -10 2q-100 18 -148 75.5t-48 134.5q0 61 35 115t102.5 88t162.5 34q86 0 154.5 -31t107.5 -86t39 -124q0 -73 -43 -134t-123 -102l-103 -53h275v-185h-594v167zM403.5 412q25.5 20 25.5 54q0 33 -25.5 53t-67.5 20q-41 0 -66 -20t-25 -53q0 -34 25 -54 t66 -20q42 0 67.5 20z" glyph-name="two" horiz-adv-x="671" unicode="2"/>
<glyph d="M155.5 16.5q-68.5 31.5 -107.5 89.5t-42 133h208q5 -36 31 -58t64 -22q39 0 63.5 22t24.5 57q0 34 -24 56.5t-60 22.5q-33 0 -60 -19l-15 -11l-96 123l146 105h-257v185h547v-173l-130 -95l4 -1q75 -20 117.5 -74.5t42.5 -130.5q0 -70 -37.5 -125t-105.5 -85.5 t-156 -30.5q-89 0 -157.5 31.5z" glyph-name="three" horiz-adv-x="636" unicode="3"/>
<glyph d="M363 123h-335v174l275 403h270v-403h100v-174h-100v-123h-210v123zM363 297v202l-138 -202h138z" glyph-name="four" horiz-adv-x="683" unicode="4"/>
<glyph d="M174.5 15q-65.5 30 -103.5 82t-41 115h211q6 -25 30 -40t55 -15q43 0 68 27t25 62q0 34 -24 58t-69 24q-29 0 -53 -13t-34 -36h-191l44 421h498v-185h-325l-7 -66q56 24 122 24q68 0 125.5 -25t93 -76.5t35.5 -126.5q0 -76 -39 -135t-110 -92t-162 -33q-83 0 -148.5 30z " glyph-name="five" horiz-adv-x="674" unicode="5"/>
<glyph d="M191.5 35.5q-73.5 50.5 -110 133.5t-36.5 180t36 180.5t108.5 134.5t176.5 51q79 0 142 -28.5t102.5 -80t49.5 -116.5h-227q-20 35 -74 35q-47 0 -81 -33.5t-34 -91.5v-5q32 30 77 46t96 16q67 0 126 -25.5t95 -76.5t36 -124q0 -63 -35 -119.5t-103.5 -91.5t-164.5 -35 q-106 0 -179.5 50.5zM431 181q25 20 25 53q0 34 -25 54t-66 20q-42 0 -67.5 -20t-25.5 -54q0 -33 25.5 -53t67.5 -20q41 0 66 20z" glyph-name="six" horiz-adv-x="704" unicode="6"/>
<glyph d="M235.5 265q64.5 138 150.5 245h-376v190h594v-172q-81 -91 -148 -243.5t-84 -284.5h-224q23 127 87.5 265z" glyph-name="seven" horiz-adv-x="614" unicode="7"/>
<glyph d="M179 12q-71 27 -110 76.5t-39 115.5q0 51 28.5 91t81.5 66q-45 25 -69 62t-24 83q0 63 36.5 110.5t104 73t157.5 25.5t157.5 -25.5t104 -73t36.5 -110.5q0 -46 -24 -83t-69 -62q53 -26 81.5 -66t28.5 -91q0 -66 -39 -115.5t-110 -76.5t-166 -27t-166 27zM411 446 q25 17 25 46t-25 46t-66 17t-66 -17t-25 -46t25 -46t66 -17t66 17zM418 166q27 19 27 51q0 31 -27 49.5t-73 18.5t-73 -18.5t-27 -49.5q0 -32 27 -51t73 -19t73 19z" glyph-name="eight" horiz-adv-x="690" unicode="8"/>
<glyph d="M512.5 664.5q73.5 -50.5 110 -133.5t36.5 -180t-36 -180.5t-108.5 -134.5t-176.5 -51q-79 0 -142 28.5t-102.5 80t-49.5 116.5h227q20 -35 74 -35q47 0 81 33.5t34 91.5v5q-32 -30 -77 -46t-96 -16q-67 0 -126 25.5t-95 76.5t-36 124q0 63 35 119.5t103.5 91.5t164.5 35 q106 0 179.5 -50.5zM273 519q-25 -20 -25 -53q0 -34 25 -54t66 -20q42 0 67.5 20t25.5 54q0 33 -25.5 53t-67.5 20q-41 0 -66 -20z" glyph-name="nine" horiz-adv-x="704" unicode="9"/>
<glyph d="M81 24q-36 36 -36 89t36 89t89 36t89 -36t36 -89t-36 -89t-89 -36t-89 36zM81 304q-36 36 -36 89t36 89t89 36t89 -36t36 -89t-36 -89t-89 -36t-89 36z" glyph-name="colon" horiz-adv-x="340" unicode=":"/>
<glyph d="M135 -5q-46 15 -68 46t-22 70q0 32 15 61t43 47.5t65 18.5q52 0 90 -33.5t38 -93.5q0 -51 -28.5 -110t-68.5 -91h-102q22 35 38 85zM81 304q-36 36 -36 89t36 89t89 36t89 -36t36 -89t-36 -89t-89 -36t-89 36z" glyph-name="semicolon" horiz-adv-x="341" unicode=";"/>
<glyph d="M500 427l-159 -72l159 -72v-188l-440 201v108l440 201v-178z" glyph-name="less" horiz-adv-x="560" unicode="&lt;"/>
<glyph d="M60 565h440v-170h-440v170zM60 305h440v-170h-440v170z" glyph-name="equal" horiz-adv-x="560" unicode="="/>
<glyph d="M60 273l159 72l-159 72v188l440 -201v-108l-440 -201v178z" glyph-name="greater" horiz-adv-x="560" unicode="&gt;"/>
<glyph d="M218 320q0 47 30 78t100 53q35 11 46.5 22.5t10.5 25.5q0 15 -20.5 24.5t-53.5 9.5q-39 0 -66 -15.5t-38 -44.5h-217q17 113 104 177.5t222 64.5q89 0 154.5 -25t101 -71.5t35.5 -109.5q0 -117 -156 -172q-33 -11 -47.5 -18.5t-19 -15.5t-4.5 -23h-178q-4 19 -4 40z M226 24q-36 36 -36 89t36 89t89 36t89 -36t36 -89t-36 -89t-89 -36t-89 36z" glyph-name="question" horiz-adv-x="652" unicode="?"/>
<glyph d="M225 -119q-84 48 -132 132t-48 185t48 185t132 132t185 48t185 -48t132 -132t48 -185q0 -107 -56 -198h-241v35q-27 -21 -62.5 -32t-73.5 -11q-68 0 -107 32t-39 86q0 119 195 130q40 2 57 8.5t17 18.5t-12.5 18.5t-35.5 6.5q-25 0 -42.5 -8t-23.5 -22h-143 q9 69 64 110.5t138 41.5q92 0 146.5 -45.5t54.5 -121.5v-113h72q7 28 7 64q0 78 -37 142t-101 101t-142 37t-142 -37t-101 -101t-37 -142t37 -142t101 -101t142 -37q60 0 102.5 14.5t82.5 44.5l56 -64q-49 -39 -107 -59.5t-134 -20.5q-101 0 -185 48zM446 126.5 q28 22.5 28 48.5v5q-7 -4 -26.5 -9.5t-38.5 -7.5q-33 -4 -46.5 -12.5t-13.5 -22.5q0 -24 35 -24q34 0 62 22.5z" glyph-name="at" unicode="@"/>
<glyph d="M268 700h284l248 -700h-232l-34 111h-253l-33 -111h-228zM481 286l-68 224h-11l-68 -224h147z" glyph-name="A" unicode="A"/>
<glyph d="M449 700q116 0 182.5 -52t66.5 -143q0 -88 -63 -140v-6q40 -27 61.5 -67.5t21.5 -88.5q0 -60 -31.5 -106t-88 -71.5t-129.5 -25.5h-389v700h369zM467.5 448.5q13.5 12.5 13.5 31.5t-13.5 31.5t-34.5 12.5h-145v-88h145q21 0 34.5 12.5zM484 189q14 13 14 33t-14 33 t-36 13h-160v-92h160q22 0 36 13z" glyph-name="B" horiz-adv-x="753" unicode="B"/>
<glyph d="M216.5 32q-82.5 47 -129.5 130.5t-47 187.5t47 187.5t129.5 130.5t186.5 47q93 0 170 -40.5t124 -111.5t51 -158h-222q-12 43 -46 69t-79 26q-59 0 -97.5 -42.5t-38.5 -107.5t38.5 -107.5t97.5 -42.5q45 0 79 26t46 69h222q-4 -87 -51 -158t-124 -111.5t-170 -40.5 q-104 0 -186.5 47z" glyph-name="C" horiz-adv-x="777" unicode="C"/>
<glyph d="M330 700q120 0 210.5 -43t140 -122.5t49.5 -184.5t-49.5 -184.5t-140 -122.5t-210.5 -43h-250v700h250zM458 235q43 40 43 115t-43 115t-127 40h-31v-310h31q84 0 127 40z" glyph-name="D" horiz-adv-x="770" unicode="D"/>
<glyph d="M80 700h531v-190h-316v-73h205v-174h-205v-73h336v-190h-551v700z" glyph-name="E" horiz-adv-x="690" unicode="E"/>
<glyph d="M80 700h540v-205h-320v-82h220v-190h-220v-223h-220v700z" glyph-name="F" horiz-adv-x="650" unicode="F"/>
<glyph d="M206.5 32q-77.5 47 -122 130.5t-44.5 186.5q0 104 46.5 187.5t128.5 131t184 47.5q87 0 160.5 -35t122 -96t62.5 -139h-231q-15 30 -43 47t-64 17q-63 0 -102.5 -46.5t-39.5 -119.5q0 -76 42 -124t108 -48q63 0 107 44h-120v165h347v-380h-183v46q-74 -61 -186 -61 q-95 0 -172.5 47z" glyph-name="G" horiz-adv-x="813" unicode="G"/>
<glyph d="M80 700h220v-244h220v244h220v-700h-220v244h-220v-244h-220v700z" glyph-name="H" unicode="H"/>
<glyph d="M80 700h220v-700h-220v700z" glyph-name="I" horiz-adv-x="380" unicode="I"/>
<glyph d="M162.5 19.5q-67.5 34.5 -105 97.5t-37.5 146v87h216v-72q0 -35 22 -57.5t56 -22.5t55.5 22.5t21.5 57.5v422h220v-437q0 -83 -36 -146t-102.5 -97.5t-154.5 -34.5t-155.5 34.5z" glyph-name="J" horiz-adv-x="686" unicode="J"/>
<glyph d="M80 700h218v-244h83l149 244h238l-202 -332l224 -368h-261l-149 244h-82v-244h-218v700z" glyph-name="K" horiz-adv-x="799" unicode="K"/>
<glyph d="M80 700h220v-488h330v-212h-550v700z" glyph-name="L" horiz-adv-x="660" unicode="L"/>
<glyph d="M80 700h368l95 -426l95 426h364v-700h-214v527l-122 -527h-250l-122 527v-527h-214v700z" glyph-name="M" horiz-adv-x="1082" unicode="M"/>
<glyph d="M80 700h230l245 -385v385h205v-700h-230l-245 385v-385h-205v700z" glyph-name="N" horiz-adv-x="840" unicode="N"/>
<glyph d="M220.5 32.5q-84.5 47.5 -132.5 131t-48 186.5t48 186.5t132.5 131t189.5 47.5t189.5 -47.5t132.5 -131t48 -186.5t-48 -186.5t-132.5 -131t-189.5 -47.5t-189.5 47.5zM484 219.5q33 19.5 52 54t19 76.5t-19 76.5t-52 54t-74 19.5t-74 -19.5t-52 -54t-19 -76.5t19 -76.5 t52 -54t74 -19.5t74 19.5z" glyph-name="O" unicode="O"/>
<glyph d="M403 700q134 0 210.5 -64t76.5 -176t-76.5 -176t-210.5 -64h-107v-220h-216v700h323zM451.5 407q18.5 17 18.5 43t-18.5 43t-46.5 17h-109v-120h109q28 0 46.5 17z" glyph-name="P" horiz-adv-x="720" unicode="P"/>
<glyph d="M164 72q-59 50 -91.5 122t-32.5 156q0 103 48 186.5t132.5 131t189.5 47.5t189.5 -47.5t132.5 -131t48 -186.5q0 -84 -32.5 -156t-91.5 -122t-136 -72v-200h-220v200q-77 22 -136 72zM484 219.5q33 19.5 52 54t19 76.5t-19 76.5t-52 54t-74 19.5t-74 -19.5t-52 -54 t-19 -76.5t19 -76.5t52 -54t74 -19.5t74 19.5z" glyph-name="Q" unicode="Q"/>
<glyph d="M422 700q134 0 211 -63.5t77 -174.5q0 -71 -33 -123.5t-94 -82.5l161 -256h-242l-141 224h-65v-224h-216v700h342zM472.5 413.5q17.5 15.5 17.5 39.5t-17.5 39.5t-44.5 15.5h-132v-110h132q27 0 44.5 15.5z" glyph-name="R" horiz-adv-x="765" unicode="R"/>
<glyph d="M130 50.5q-96 65.5 -106 199.5h220q10 -43 44 -64.5t86 -21.5q96 0 96 41q0 15 -11 23.5t-35.5 15.5t-86.5 21q-90 21 -150.5 43.5t-103 68t-42.5 118.5q0 77 46.5 126.5t118.5 71.5t153 22q85 0 160 -25.5t125.5 -83t59.5 -148.5h-230q-9 38 -42 56.5t-81 18.5 q-29 0 -55.5 -7.5t-26.5 -30.5q0 -21 25.5 -32t92.5 -26l21 -5q94 -21 154.5 -45t99 -68t38.5 -115q0 -66 -38.5 -115.5t-112.5 -76.5t-178 -27q-145 0 -241 65.5z" glyph-name="S" horiz-adv-x="734" unicode="S"/>
<glyph d="M265 488h-235v212h690v-212h-235v-488h-220v488z" glyph-name="T" horiz-adv-x="750" unicode="T"/>
<glyph d="M230 25.5q-77 40.5 -118.5 114t-41.5 171.5v389h220v-377q0 -62 30 -94t88 -32t88 32t30 94v377h220v-389q0 -98 -41.5 -171.5t-118.5 -114t-178 -40.5t-178 40.5z" glyph-name="U" horiz-adv-x="816" unicode="U"/>
<glyph d="M20 700h237l163 -510h4l164 510h232l-255 -700h-290z" glyph-name="V" horiz-adv-x="840" unicode="V"/>
<glyph d="M30 700h227l86 -442l86 442h222l86 -442l86 442h223l-146 -700h-281l-82 423l-82 -423h-279z" glyph-name="W" horiz-adv-x="1076" unicode="W"/>
<glyph d="M237 362l-217 338h255l123 -204l123 204h248l-218 -337l229 -363h-257l-130 216l-133 -216h-250z" glyph-name="X" horiz-adv-x="790" unicode="X"/>
<glyph d="M288 233l-283 467h256l145 -262l139 262h246l-283 -467v-233h-220v233z" glyph-name="Y" horiz-adv-x="796" unicode="Y"/>
<glyph d="M50 180l320 320h-310v200h598v-180l-320 -320h325v-200h-613v180z" glyph-name="Z" horiz-adv-x="723" unicode="Z"/>
<glyph d="M120 800h310v-170h-140v-560h140v-170h-310v900z" glyph-name="bracketleft" horiz-adv-x="500" unicode="["/>
<glyph d="M0 700h186l338 -700h-186z" glyph-name="backslash" horiz-adv-x="524" unicode="\"/>
<glyph d="M380 -100h-310v170h140v560h-140v170h310v-900z" glyph-name="bracketright" horiz-adv-x="500" unicode="]"/>
<glyph d="M216 700h128l201 -350h-187l-79 139l-79 -139h-185z" glyph-name="asciicircum" horiz-adv-x="560" unicode="^"/>
<glyph d="M30 0h440v-170h-440v170z" glyph-name="underscore" horiz-adv-x="500" unicode="_"/>
<glyph d="M68 28q-46 38 -46 103q0 149 243 164q42 3 60.5 11t18.5 23q0 14 -14.5 22t-40.5 8q-25 0 -41.5 -9.5t-22.5 -27.5h-177q11 86 80 137t172 51t164.5 -56t61.5 -150v-139h48v-165h-206v43q-35 -26 -79.5 -39.5t-93.5 -13.5q-81 0 -127 38zM299 144q24 12 39 31.5t15 40.5 v5q-10 -6 -31 -12t-40 -8q-37 -4 -52 -15t-15 -29q0 -25 34 -25q26 0 50 12z" glyph-name="a" horiz-adv-x="604" unicode="a"/>
<glyph d="M243 34v-34h-173v710h190v-232q49 32 111 32q71 0 128 -33.5t89 -93t32 -133.5t-32 -133.5t-89 -93t-128 -33.5q-73 0 -128 44zM400.5 189.5q24.5 24.5 24.5 60.5t-24.5 60.5t-60.5 24.5t-60.5 -24.5t-24.5 -60.5t24.5 -60.5t60.5 -24.5t60.5 24.5z" glyph-name="b" horiz-adv-x="650" unicode="b"/>
<glyph d="M164 23.5q-63 33.5 -98.5 93t-35.5 133.5t35.5 133.5t98.5 93t142 33.5q70 0 127.5 -29.5t92.5 -80t39 -110.5h-188q-8 20 -27.5 34.5t-43.5 14.5q-38 0 -62 -25t-24 -64t24 -64t62 -25q24 0 43.5 14.5t27.5 34.5h188q-4 -60 -39 -110.5t-92.5 -80t-127.5 -29.5 q-79 0 -142 33.5z" glyph-name="c" horiz-adv-x="595" unicode="c"/>
<glyph d="M151 23.5q-57 33.5 -89 93t-32 133.5t32 133.5t89 93t128 33.5q62 0 111 -32v232h190v-710h-173v34q-55 -44 -128 -44q-71 0 -128 33.5zM370.5 189.5q24.5 24.5 24.5 60.5t-24.5 60.5t-60.5 24.5t-60.5 -24.5t-24.5 -60.5t24.5 -60.5t60.5 -24.5t60.5 24.5z" glyph-name="d" horiz-adv-x="650" unicode="d"/>
<glyph d="M161.5 21q-62.5 31 -97 88.5t-34.5 134.5q0 78 36.5 138.5t100 94t140.5 33.5t138.5 -33t96.5 -92.5t35 -135.5q0 -26 -4 -47h-360q10 -29 33.5 -46t60.5 -17q44 0 67 16h190q-7 -41 -39.5 -78.5t-88.5 -62t-130 -24.5q-82 0 -144.5 31zM359.5 346.5 q-23.5 15.5 -57.5 15.5q-30 0 -53.5 -16t-33.5 -44h178q-10 29 -33.5 44.5z" glyph-name="e" horiz-adv-x="604" unicode="e"/>
<glyph d="M30 330v170h85v42q0 58 26.5 103t77 70t120.5 25q101 0 164 -52t63 -148h-178v11q0 18 -14.5 28t-34.5 10q-21 0 -35.5 -12t-14.5 -36q0 -13 6 -41h200v-170h-190v-330h-190v330h-85z" glyph-name="f" horiz-adv-x="505" unicode="f"/>
<glyph d="M122.5 -170q-76.5 40 -76.5 115q0 32 17 57.5t47 40.5q-55 14 -82.5 49t-27.5 78q0 30 20 59.5t64 41.5l4 1q-17 28 -17 65q0 66 48.5 108.5t138.5 56.5v128h200v-127q92 -15 141.5 -57.5t49.5 -108.5q0 -79 -77.5 -122.5t-212.5 -43.5q-78 0 -129 14q-17 6 -32 6 q-10 0 -16 -6t-6 -15q0 -14 15.5 -21.5t55 -11t113.5 -3.5q140 0 214.5 -45t74.5 -125q0 -81 -81.5 -127.5t-223.5 -46.5q-145 0 -221.5 40zM428.5 302q24.5 12 24.5 34q0 23 -24.5 35.5t-69.5 12.5t-69.5 -12.5t-24.5 -35.5q0 -22 24.5 -34t69.5 -12t69.5 12zM423 -57.5 q27 11.5 27 32.5q0 22 -27 34t-76 12t-76 -12t-27 -34q0 -21 27 -32.5t76 -11.5t76 11.5z" glyph-name="g" horiz-adv-x="659" unicode="g"/>
<glyph d="M260 710v-234q53 34 121 34q64 0 114 -27.5t77.5 -77t27.5 -112.5v-293h-192v261q-1 32 -22 52.5t-52 20.5q-32 0 -53 -20.5t-21 -52.5v-261h-190v710h190z" glyph-name="h" horiz-adv-x="660" unicode="h"/>
<glyph d="M70 500h190v-500h-190v500zM45 745h240l-115 -200h-10z" glyph-name="i" horiz-adv-x="330" unicode="i"/>
<glyph d="M-91 -187.5q-51 22.5 -80.5 61.5t-29.5 86h178v-1q0 -12 14.5 -21t32.5 -9q22 0 37 12.5t15 39.5q0 12 -6 40q-10 36 -10 68v411h190v-467q0 -126 -58 -184.5t-169 -58.5q-63 0 -114 22.5zM35 745h240l-115 -200h-10z" glyph-name="j" horiz-adv-x="300" unicode="j"/>
<glyph d="M70 710h190v-373h43l107 163h199l-157 -235l173 -265h-220l-105 163h-40v-163h-190v710z" glyph-name="k" horiz-adv-x="633" unicode="k"/>
<glyph d="M70 710h190v-710h-190v710z" glyph-name="l" horiz-adv-x="330" unicode="l"/>
<glyph d="M243 500v-37q55 47 133 47q48 0 88 -16.5t69 -46.5q30 30 71 46.5t89 16.5q104 0 165.5 -59t61.5 -158v-293h-192v261q-1 32 -20.5 52.5t-48.5 20.5q-30 0 -49.5 -20.5t-19.5 -52.5v-261h-192v261q-1 32 -20.5 52.5t-48.5 20.5q-30 0 -49.5 -20.5t-19.5 -52.5v-261h-190 v500h173z" glyph-name="m" horiz-adv-x="980" unicode="m"/>
<glyph d="M243 500v-37q58 47 138 47q64 0 114 -27.5t77.5 -77t27.5 -112.5v-293h-192v261q-1 32 -22 52.5t-52 20.5q-32 0 -53 -20.5t-21 -52.5v-261h-190v500h173z" glyph-name="n" horiz-adv-x="660" unicode="n"/>
<glyph d="M166 23.5q-64 33.5 -100 93t-36 133.5t36 133.5t100 93t144 33.5t144 -33.5t100 -93t36 -133.5t-36 -133.5t-100 -93t-144 -33.5t-144 33.5zM370.5 189.5q24.5 24.5 24.5 60.5t-24.5 60.5t-60.5 24.5t-60.5 -24.5t-24.5 -60.5t24.5 -60.5t60.5 -24.5t60.5 24.5z" glyph-name="o" horiz-adv-x="620" unicode="o"/>
<glyph d="M243 500v-34q55 44 128 44q71 0 128 -33.5t89 -93t32 -133.5t-32 -133.5t-89 -93t-128 -33.5q-62 0 -111 32v-222h-190v700h173zM400.5 189.5q24.5 24.5 24.5 60.5t-24.5 60.5t-60.5 24.5t-60.5 -24.5t-24.5 -60.5t24.5 -60.5t60.5 -24.5t60.5 24.5z" glyph-name="p" horiz-adv-x="650" unicode="p"/>
<glyph d="M390 22q-49 -32 -111 -32q-71 0 -128 33.5t-89 93t-32 133.5t32 133.5t89 93t128 33.5q73 0 128 -44v34h173v-700h-190v222zM370.5 189.5q24.5 24.5 24.5 60.5t-24.5 60.5t-60.5 24.5t-60.5 -24.5t-24.5 -60.5t24.5 -60.5t60.5 -24.5t60.5 24.5z" glyph-name="q" horiz-adv-x="650" unicode="q"/>
<glyph d="M243 500v-38q54 48 136 48q84 0 136.5 -51.5t52.5 -142.5v-41h-190v12q0 22 -16 33t-41 11q-28 0 -44.5 -17.5t-16.5 -44.5v-269h-190v500h173z" glyph-name="r" horiz-adv-x="553" unicode="r"/>
<glyph d="M103.5 33.5q-77.5 48.5 -86.5 143.5h194q2 -21 26 -36t62 -15q24 0 42.5 6.5t18.5 21.5q0 9 -13.5 14t-68.5 17q-8 1 -26 5q-72 15 -115 30.5t-71.5 47.5t-29.5 87q0 82 74 121t177 39q107 0 181.5 -44.5t84.5 -142.5h-192q-8 22 -31.5 33t-56.5 11q-49 0 -49 -23 q0 -12 16.5 -18.5t64.5 -15.5l35 -7q69 -14 113.5 -30.5t72 -46t27.5 -76.5q0 -52 -32.5 -90.5t-90.5 -59t-133 -20.5q-116 0 -193.5 48.5z" glyph-name="s" horiz-adv-x="578" unicode="s"/>
<glyph d="M165 33.5q-50 42.5 -50 126.5v170h-105v170h43q41 0 63 22t22 63v35h167v-120h150v-170h-150v-120q0 -25 13 -34.5t47 -9.5q38 0 90 4v-170q-76 -9 -136 -9q-104 0 -154 42.5z" glyph-name="t" horiz-adv-x="495" unicode="t"/>
<glyph d="M165 17.5q-50 27.5 -77.5 77t-27.5 112.5v293h192l1 -261q0 -31 21 -52t52 -21q32 0 53 20.5t21 52.5v261h190v-500h-173v37q-58 -47 -138 -47q-64 0 -114 27.5z" glyph-name="u" horiz-adv-x="660" unicode="u"/>
<glyph d="M5 500h200l106 -336h12l106 336h196l-180 -500h-260z" glyph-name="v" horiz-adv-x="630" unicode="v"/>
<glyph d="M20 500h188l58 -302l58 302h196l56 -294l57 294h187l-104 -500h-237l-59 301l-59 -301h-237z" glyph-name="w" horiz-adv-x="840" unicode="w"/>
<glyph d="M183 255l-175 245h220l85 -122l84 122h215l-176 -243l184 -257h-220l-93 140l-95 -140h-212z" glyph-name="x" horiz-adv-x="620" unicode="x"/>
<glyph d="M124.5 -187.5q-49.5 22.5 -81.5 72.5t-32 126v25h179v-41q0 -22 12.5 -34.5t27.5 -12.5t24.5 9t9.5 23v1q0 16 -10 35l-249 484h211l119 -257v0l92 257h197l-173 -421q-5 -14 -7 -24t-2 -30v-40q0 -61 -29 -105t-77.5 -67t-105.5 -23q-56 0 -105.5 22.5z" glyph-name="y" horiz-adv-x="629" unicode="y"/>
<glyph d="M45 145l221 185h-211v170h460v-145l-220 -185h220v-170h-470v145z" glyph-name="z" horiz-adv-x="560" unicode="z"/>
<glyph d="M178.5 -82q-45.5 33 -45.5 111q0 24 4.5 54t10.5 57q12 58 12 78q0 26 -10.5 36.5t-33.5 10.5h-51v170h51q23 0 33.5 11t10.5 36q0 20 -12 78q-6 27 -10.5 57t-4.5 54q0 78 45.5 111t125.5 33q51 0 126 -15v-170q-47 13 -74 13q-22 0 -33.5 -9.5t-11.5 -30.5q0 -15 5 -43 q9 -52 9 -80q0 -56 -23.5 -86.5t-76.5 -43.5q53 -13 76.5 -43.5t23.5 -86.5q0 -28 -9 -80q-5 -28 -5 -43q0 -21 11.5 -30.5t33.5 -9.5q27 0 74 13v-170q-75 -15 -126 -15q-80 0 -125.5 33z" glyph-name="braceleft" horiz-adv-x="500" unicode="{"/>
<glyph d="M120 800h170v-900h-170v900z" glyph-name="bar" horiz-adv-x="410" unicode="|"/>
<glyph d="M321.5 782q45.5 -33 45.5 -111q0 -24 -4.5 -54t-10.5 -57q-12 -58 -12 -78q0 -25 11 -36t33 -11h51v-170h-51q-22 0 -33 -10.5t-11 -36.5q0 -20 12 -78q6 -27 10.5 -57t4.5 -54q0 -78 -45.5 -111t-125.5 -33q-51 0 -126 15v170q47 -13 74 -13q22 0 33.5 9.5t11.5 30.5 q0 15 -5 43q-9 52 -9 80q0 56 23.5 86.5t76.5 43.5q-53 13 -76.5 43.5t-23.5 86.5q0 28 9 80q5 28 5 43q0 21 -11.5 30.5t-33.5 9.5q-27 0 -74 -13v170q75 15 126 15q80 0 125.5 -33z" glyph-name="braceright" horiz-adv-x="500" unicode="}"/>
<glyph d="M91 413q35 50 98 50q31 0 51 -8.5t39 -22.5q9 -6 17.5 -10.5t16.5 -4.5q23 0 23 32h170q0 -104 -35 -154t-98 -50q-31 0 -51 8.5t-39 22.5q-9 6 -17.5 10.5t-16.5 4.5q-23 0 -23 -32h-170q0 104 35 154z" glyph-name="asciitilde" horiz-adv-x="560" unicode="~"/>
<glyph glyph-name="uni00A0" horiz-adv-x="250" unicode=" "/>
<glyph d="M279 476q36 -36 36 -89t-36 -89t-89 -36t-89 36t-36 89t36 89t89 36t89 -36zM315 -200h-240l40 420h160z" glyph-name="exclamdown" horiz-adv-x="380" unicode="¡"/>
<glyph d="M393.5 277.5q19.5 14.5 27.5 34.5h188q-5 -75 -57.5 -134t-133.5 -78v-130h-140v130q-92 21 -148 89.5t-56 162.5t56 162.5t148 89.5v126h140v-126q81 -19 133.5 -78t57.5 -134h-188q-8 20 -27.5 34.5t-43.5 14.5q-38 0 -62 -25t-24 -64t24 -64t62 -25q24 0 43.5 14.5z " glyph-name="cent" horiz-adv-x="700" unicode="¢"/>
<glyph d="M46.5 22q-43.5 37 -43.5 102q0 60 38.5 100.5t108.5 40.5q28 0 55 -6l-20 35h-131v112h71q-19 50 -19 96q0 64 33 112.5t92 74.5t135 26q84 0 146 -31.5t97 -88t39 -129.5h-205q-5 40 -27 59.5t-50 19.5t-47 -18.5t-19 -52.5q0 -28 15 -68h191v-112h-153q11 -39 11 -81 q0 -14 -1 -21q31 -16 54.5 -24t43.5 -8q23 0 33.5 13.5t10.5 44.5q0 12 -2 32h180q5 -29 5 -61q0 -114 -61.5 -159t-138.5 -45q-51 0 -96.5 17.5t-90.5 47.5q-30 -32 -69.5 -48.5t-80.5 -16.5q-61 0 -104.5 37zM180 101q16 7 27 21q-40 30 -61 30q-13 0 -21 -8t-8 -21t9 -21 t24 -8q14 0 30 7z" glyph-name="sterling" horiz-adv-x="700" unicode="£"/>
<glyph d="M92 226q-27 59 -27 124t27 124l-95 95l134 134l95 -95q59 27 124 27t124 -27l95 95l134 -134l-95 -95q27 -59 27 -124t-27 -124l95 -95l-134 -134l-95 95q-59 -27 -124 -27t-124 27l-95 -95l-134 134zM418 282.5q27 27.5 27 67.5q0 41 -27 68t-68 27q-40 0 -67.5 -27 t-27.5 -68q0 -40 27.5 -67.5t67.5 -27.5q41 0 68 27.5z" glyph-name="currency" horiz-adv-x="700" unicode="¤"/>
<glyph d="M240 148h-220v112h208l-21 40h-187v112h129l-149 288h256l96 -227l96 227h252l-149 -288h129v-112h-187l-21 -40h208v-112h-220v-148h-220v148z" glyph-name="yen" horiz-adv-x="700" unicode="¥"/>
<glyph d="M120 800h170v-380h-170v380zM120 280h170v-380h-170v380z" glyph-name="brokenbar" horiz-adv-x="410" unicode="¦"/>
<glyph d="M153 -45q-80 55 -89 162h200q2 -24 26 -41t59 -17q28 0 47.5 6t19.5 19q0 16 -18 24.5t-73 18.5q-95 17 -152 35t-92.5 52.5t-37.5 93.5q0 77 84 119q-41 40 -44 112q0 63 37.5 103.5t96 59t124.5 18.5q112 0 189.5 -50.5t87.5 -161.5h-198q-8 25 -31 37.5t-51 12.5 q-26 0 -43 -5t-17 -22q0 -16 22.5 -24t81.5 -18q91 -16 149 -34.5t92.5 -52t34.5 -87.5q0 -77 -82 -124q42 -40 42 -107q0 -55 -34 -97t-95.5 -64.5t-140.5 -22.5q-115 0 -195 55zM439.5 274q17.5 10 17.5 27q0 25 -39 35t-124 19q-21 0 -38.5 -10t-17.5 -27q0 -25 39 -35 t124 -19q21 0 38.5 10z" glyph-name="section" horiz-adv-x="700" unicode="§"/>
<glyph d="M225 33q-84 48 -132 132t-48 185t48 185t132 132t185 48t185 -48t132 -132t48 -185t-48 -185t-132 -132t-185 -48t-185 48zM552 107q64 37 101 101t37 142t-37 142t-101 101t-142 37t-142 -37t-101 -101t-37 -142t37 -142t101 -101t142 -37t142 37zM302.5 169 q-50.5 27 -79 74.5t-28.5 106.5t28.5 106.5t79 74.5t113.5 27q56 0 102 -23.5t74 -64t32 -88.5h-151q-7 17 -22.5 28t-34.5 11q-31 0 -50 -20t-19 -51t19 -51t50 -20q19 0 34.5 11t22.5 28h151q-4 -48 -32 -88.5t-74 -64t-102 -23.5q-63 0 -113.5 27z" glyph-name="copyright" unicode="©"/>
<glyph d="M235 300l109 -200h-208l-106 194v12l106 194h208zM535 300l109 -200h-208l-106 194v12l106 194h208z" glyph-name="guillemotleft" horiz-adv-x="674" unicode="«"/>
<glyph d="M500 435v-305h-170v135h-270v170h440z" glyph-name="logicalnot" horiz-adv-x="560" unicode="¬"/>
<glyph d="M128.5 378.5q-41.5 23.5 -65 65t-23.5 91.5t23.5 91.5t65 65t91.5 23.5t91.5 -23.5t65 -65t23.5 -91.5t-23.5 -91.5t-65 -65t-91.5 -23.5t-91.5 23.5zM301.5 396q36.5 21 57.5 57.5t21 81.5t-21 81.5t-57.5 57.5t-81.5 21t-81.5 -21t-57.5 -57.5t-21 -81.5t21 -81.5 t57.5 -57.5t81.5 -21t81.5 21zM230 642q39 0 61.5 -18.5t22.5 -50.5q0 -19 -8.5 -34.5t-24.5 -23.5l48 -77h-73l-41 65h-22v-65h-63v204h100zM245 558.5q5 4.5 5 11.5t-5 11.5t-13 4.5h-39v-32h39q8 0 13 4.5z" glyph-name="registered" horiz-adv-x="440" unicode="®"/>
<glyph d="M109 416q-37 21 -58 58t-21 81t21 81t58 58t81 21t81 -21t58 -58t21 -81t-21 -81t-58 -58t-81 -21t-81 21zM225.5 519.5q14.5 14.5 14.5 35.5t-14.5 35.5t-35.5 14.5t-35.5 -14.5t-14.5 -35.5t14.5 -35.5t35.5 -14.5t35.5 14.5z" glyph-name="degree" horiz-adv-x="380" unicode="°"/>
<glyph d="M365 535h135v-170h-135v-135h-170v135h-135v170h135v135h170v-135zM60 0v170h440v-170h-440z" glyph-name="plusminus" horiz-adv-x="560" unicode="±"/>
<glyph d="M281 300q-62 0 -112.5 26.5t-79.5 72t-29 101.5t29 101.5t79.5 72t112.5 26.5h219v-900h-210v500h-9z" glyph-name="paragraph" horiz-adv-x="620" unicode="¶"/>
<glyph d="M81 214q-36 36 -36 89t36 89t89 36t89 -36t36 -89t-36 -89t-89 -36t-89 36z" glyph-name="periodcentered" horiz-adv-x="340" unicode="·"/>
<glyph d="M439 300l-109 200h208l106 -194v-12l-106 -194h-208zM139 300l-109 200h208l106 -194v-12l-106 -194h-208z" glyph-name="guillemotright" horiz-adv-x="674" unicode="»"/>
<glyph d="M426 476q36 -36 36 -89t-36 -89t-89 -36t-89 36t-36 89t36 89t89 36t89 -36zM434 180q0 -47 -30 -78t-100 -53q-35 -11 -46.5 -22.5t-10.5 -25.5q0 -15 20.5 -24.5t53.5 -9.5q39 0 66 15.5t38 44.5h217q-17 -113 -104 -177.5t-222 -64.5q-89 0 -154.5 25t-101 71.5 t-35.5 109.5q0 117 156 172q33 11 47.5 18.5t19 15.5t4.5 23h178q4 -19 4 -40z" glyph-name="questiondown" horiz-adv-x="652" unicode="¿"/>
<glyph d="M268 700h284l248 -700h-232l-34 111h-253l-33 -111h-228zM481 286l-68 224h-11l-68 -224h147zM310 785l-67 160h184l66 -160h-183z" glyph-name="Agrave" unicode="À"/>
<glyph d="M268 700h284l248 -700h-232l-34 111h-253l-33 -111h-228zM481 286l-68 224h-11l-68 -224h147zM393 945h184l-67 -160h-183z" glyph-name="Aacute" unicode="Á"/>
<glyph d="M268 700h284l248 -700h-232l-34 111h-253l-33 -111h-228zM481 286l-68 224h-11l-68 -224h147zM449 785l-39 56l-39 -56h-193l114 160h236l114 -160h-193z" glyph-name="Acircumflex" unicode="Â"/>
<glyph d="M268 700h284l248 -700h-232l-34 111h-253l-33 -111h-228zM481 286l-68 224h-11l-68 -224h147zM237 914.5q32 45.5 89 45.5q24 0 43 -7.5t39 -20.5q21 -14 31 -14q21 0 21 33h155q0 -95 -32 -140.5t-89 -45.5q-24 0 -43 7.5t-39 20.5q-21 14 -31 14q-21 0 -21 -33h-155 q0 95 32 140.5z" glyph-name="Atilde" unicode="Ã"/>
<glyph d="M268 700h284l248 -700h-232l-34 111h-253l-33 -111h-228zM481 286l-68 224h-11l-68 -224h147zM610 945l-103 -200h-9l-88 169l-87 -169h-9l-104 200h400z" glyph-name="Adieresis" unicode="Ä"/>
<glyph d="M268 700h284l248 -700h-232l-34 111h-253l-33 -111h-228zM481 286l-68 224h-11l-68 -224h147zM337 759.5q-33 19.5 -52.5 53t-19.5 72.5t19.5 72.5t52.5 53t73 19.5q39 0 72.5 -19.5t53 -53t19.5 -72.5t-19.5 -72.5t-53 -53t-72.5 -19.5q-40 0 -73 19.5zM427.5 867.5 q7.5 7.5 7.5 17.5q0 11 -7.5 18t-17.5 7q-11 0 -18 -7t-7 -18q0 -10 7 -17.5t18 -7.5q10 0 17.5 7.5z" glyph-name="Aring" unicode="Å"/>
<glyph d="M734 190h314v-190h-480l-34 111h-253l-33 -111h-228l248 700h760v-190h-391l22 -73h271v-174h-218zM334 286h147l-68 224h-11z" glyph-name="AE" horiz-adv-x="1107" unicode="Æ"/>
<glyph d="M216.5 32q-82.5 47 -129.5 130.5t-47 187.5t47 187.5t129.5 130.5t186.5 47q93 0 170 -40.5t124 -111.5t51 -158h-222q-12 43 -46 69t-79 26q-59 0 -97.5 -42.5t-38.5 -107.5t38.5 -107.5t97.5 -42.5q45 0 79 26t46 69h222q-4 -87 -51 -158t-124 -111.5t-170 -40.5 q-104 0 -186.5 47zM429 -245h-184l67 160h183z" glyph-name="Ccedilla" horiz-adv-x="777" unicode="Ç"/>
<glyph d="M80 700h531v-190h-316v-73h205v-174h-205v-73h336v-190h-551v700zM241 785l-67 160h184l66 -160h-183z" glyph-name="Egrave" horiz-adv-x="690" unicode="È"/>
<glyph d="M80 700h531v-190h-316v-73h205v-174h-205v-73h336v-190h-551v700zM324 945h184l-67 -160h-183z" glyph-name="Eacute" horiz-adv-x="690" unicode="É"/>
<glyph d="M80 700h531v-190h-316v-73h205v-174h-205v-73h336v-190h-551v700zM380 785l-39 56l-39 -56h-193l114 160h236l114 -160h-193z" glyph-name="Ecircumflex" horiz-adv-x="690" unicode="Ê"/>
<glyph d="M80 700h531v-190h-316v-73h205v-174h-205v-73h336v-190h-551v700zM541 945l-103 -200h-9l-88 169l-87 -169h-9l-104 200h400z" glyph-name="Edieresis" horiz-adv-x="690" unicode="Ë"/>
<glyph d="M80 700h220v-700h-220v700zM90 785l-67 160h184l66 -160h-183z" glyph-name="Igrave" horiz-adv-x="380" unicode="Ì"/>
<glyph d="M80 700h220v-700h-220v700zM173 945h184l-67 -160h-183z" glyph-name="Iacute" horiz-adv-x="380" unicode="Í"/>
<glyph d="M80 700h220v-700h-220v700zM229 785l-39 56l-39 -56h-193l114 160h236l114 -160h-193z" glyph-name="Icircumflex" horiz-adv-x="380" unicode="Î"/>
<glyph d="M80 700h220v-700h-220v700zM390 945l-103 -200h-9l-88 169l-87 -169h-9l-104 200h400z" glyph-name="Idieresis" horiz-adv-x="380" unicode="Ï"/>
<glyph d="M540.5 657q90.5 -43 140 -122.5t49.5 -184.5t-49.5 -184.5t-140 -122.5t-210.5 -43h-250v290h-51v120h51v290h250q120 0 210.5 -43zM458 235q43 40 43 115t-43 115t-127 40h-31v-95h97v-120h-97v-95h31q84 0 127 40z" glyph-name="Eth" horiz-adv-x="770" unicode="Ð"/>
<glyph d="M80 700h230l245 -385v385h205v-700h-230l-245 385v-385h-205v700zM247 914.5q32 45.5 89 45.5q24 0 43 -7.5t39 -20.5q21 -14 31 -14q21 0 21 33h155q0 -95 -32 -140.5t-89 -45.5q-24 0 -43 7.5t-39 20.5q-21 14 -31 14q-21 0 -21 -33h-155q0 95 32 140.5z" glyph-name="Ntilde" horiz-adv-x="840" unicode="Ñ"/>
<glyph d="M220.5 32.5q-84.5 47.5 -132.5 131t-48 186.5t48 186.5t132.5 131t189.5 47.5t189.5 -47.5t132.5 -131t48 -186.5t-48 -186.5t-132.5 -131t-189.5 -47.5t-189.5 47.5zM484 219.5q33 19.5 52 54t19 76.5t-19 76.5t-52 54t-74 19.5t-74 -19.5t-52 -54t-19 -76.5t19 -76.5 t52 -54t74 -19.5t74 19.5zM310 785l-67 160h184l66 -160h-183z" glyph-name="Ograve" unicode="Ò"/>
<glyph d="M220.5 32.5q-84.5 47.5 -132.5 131t-48 186.5t48 186.5t132.5 131t189.5 47.5t189.5 -47.5t132.5 -131t48 -186.5t-48 -186.5t-132.5 -131t-189.5 -47.5t-189.5 47.5zM484 219.5q33 19.5 52 54t19 76.5t-19 76.5t-52 54t-74 19.5t-74 -19.5t-52 -54t-19 -76.5t19 -76.5 t52 -54t74 -19.5t74 19.5zM393 945h184l-67 -160h-183z" glyph-name="Oacute" unicode="Ó"/>
<glyph d="M220.5 32.5q-84.5 47.5 -132.5 131t-48 186.5t48 186.5t132.5 131t189.5 47.5t189.5 -47.5t132.5 -131t48 -186.5t-48 -186.5t-132.5 -131t-189.5 -47.5t-189.5 47.5zM484 219.5q33 19.5 52 54t19 76.5t-19 76.5t-52 54t-74 19.5t-74 -19.5t-52 -54t-19 -76.5t19 -76.5 t52 -54t74 -19.5t74 19.5zM449 785l-39 56l-39 -56h-193l114 160h236l114 -160h-193z" glyph-name="Ocircumflex" unicode="Ô"/>
<glyph d="M220.5 32.5q-84.5 47.5 -132.5 131t-48 186.5t48 186.5t132.5 131t189.5 47.5t189.5 -47.5t132.5 -131t48 -186.5t-48 -186.5t-132.5 -131t-189.5 -47.5t-189.5 47.5zM484 219.5q33 19.5 52 54t19 76.5t-19 76.5t-52 54t-74 19.5t-74 -19.5t-52 -54t-19 -76.5t19 -76.5 t52 -54t74 -19.5t74 19.5zM237 914.5q32 45.5 89 45.5q24 0 43 -7.5t39 -20.5q21 -14 31 -14q21 0 21 33h155q0 -95 -32 -140.5t-89 -45.5q-24 0 -43 7.5t-39 20.5q-21 14 -31 14q-21 0 -21 -33h-155q0 95 32 140.5z" glyph-name="Otilde" unicode="Õ"/>
<glyph d="M220.5 32.5q-84.5 47.5 -132.5 131t-48 186.5t48 186.5t132.5 131t189.5 47.5t189.5 -47.5t132.5 -131t48 -186.5t-48 -186.5t-132.5 -131t-189.5 -47.5t-189.5 47.5zM484 219.5q33 19.5 52 54t19 76.5t-19 76.5t-52 54t-74 19.5t-74 -19.5t-52 -54t-19 -76.5t19 -76.5 t52 -54t74 -19.5t74 19.5zM610 945l-103 -200h-9l-88 169l-87 -169h-9l-104 200h400z" glyph-name="Odieresis" unicode="Ö"/>
<glyph d="M36 226l124 124l-124 124l120 120l124 -124l124 124l120 -120l-124 -124l124 -124l-120 -120l-124 124l-124 -124z" glyph-name="multiply" horiz-adv-x="560" unicode="×"/>
<glyph d="M258 14l-11 -14h-217l90 117q-38 48 -59 107t-21 126q0 103 48 186.5t132.5 131t189.5 47.5q82 0 152 -29l11 14h217l-90 -117q38 -48 59 -107t21 -126q0 -103 -48 -186.5t-132.5 -131t-189.5 -47.5q-82 0 -152 29zM410 510q-45 0 -81.5 -21t-57.5 -57.5t-21 -81.5 q0 -29 9 -55l166 214q-5 1 -15 1zM491.5 211q36.5 21 57.5 57.5t21 81.5q0 30 -9 55l-166 -214q5 -1 15 -1q45 0 81.5 21z" glyph-name="Oslash" unicode="Ø"/>
<glyph d="M230 25.5q-77 40.5 -118.5 114t-41.5 171.5v389h220v-377q0 -62 30 -94t88 -32t88 32t30 94v377h220v-389q0 -98 -41.5 -171.5t-118.5 -114t-178 -40.5t-178 40.5zM308 785l-67 160h184l66 -160h-183z" glyph-name="Ugrave" horiz-adv-x="816" unicode="Ù"/>
<glyph d="M230 25.5q-77 40.5 -118.5 114t-41.5 171.5v389h220v-377q0 -62 30 -94t88 -32t88 32t30 94v377h220v-389q0 -98 -41.5 -171.5t-118.5 -114t-178 -40.5t-178 40.5zM391 945h184l-67 -160h-183z" glyph-name="Uacute" horiz-adv-x="816" unicode="Ú"/>
<glyph d="M230 25.5q-77 40.5 -118.5 114t-41.5 171.5v389h220v-377q0 -62 30 -94t88 -32t88 32t30 94v377h220v-389q0 -98 -41.5 -171.5t-118.5 -114t-178 -40.5t-178 40.5zM447 785l-39 56l-39 -56h-193l114 160h236l114 -160h-193z" glyph-name="Ucircumflex" horiz-adv-x="816" unicode="Û"/>
<glyph d="M230 25.5q-77 40.5 -118.5 114t-41.5 171.5v389h220v-377q0 -62 30 -94t88 -32t88 32t30 94v377h220v-389q0 -98 -41.5 -171.5t-118.5 -114t-178 -40.5t-178 40.5zM608 945l-103 -200h-9l-88 169l-87 -169h-9l-104 200h400z" glyph-name="Udieresis" horiz-adv-x="816" unicode="Ü"/>
<glyph d="M288 233l-283 467h256l145 -262l139 262h246l-283 -467v-233h-220v233zM381 945h184l-67 -160h-183z" glyph-name="Yacute" horiz-adv-x="796" unicode="Ý"/>
<glyph d="M296 700v-100h103q88 0 152.5 -29.5t99 -85t34.5 -130.5t-34.5 -130.5t-99 -85t-152.5 -29.5h-103v-110h-216v700h216zM446.5 307q18.5 17 18.5 43t-18.5 43t-46.5 17h-104v-120h104q28 0 46.5 17z" glyph-name="Thorn" horiz-adv-x="705" unicode="Þ"/>
<glyph d="M30 330v170h85v26q0 59 34 107.5t98.5 77.5t150.5 29q82 0 147.5 -26.5t103 -75.5t37.5 -114v-155q-72 5 -97 5q-68 0 -68 -24q0 -9 12 -14t45 -12l33 -7q94 -22 143 -59t49 -104q0 -51 -29.5 -89.5t-81 -59t-117.5 -20.5q-95 0 -152 45t-66 137h159q3 -19 19 -31t43 -12 q19 0 33.5 6.5t14.5 21.5q0 11 -13 16.5t-62 17.5q-65 15 -104.5 31t-65.5 47.5t-26 85.5q0 67 44 105.5t105 52.5v12q0 24 -31.5 37.5t-73.5 13.5q-46 0 -78 -17t-32 -52q0 -12 5 -32q6 -30 8.5 -52t2.5 -61v-557h-190v530h-85z" glyph-name="germandbls" horiz-adv-x="811" unicode="ß"/>
<glyph d="M68 28q-46 38 -46 103q0 149 243 164q42 3 60.5 11t18.5 23q0 14 -14.5 22t-40.5 8q-25 0 -41.5 -9.5t-22.5 -27.5h-177q11 86 80 137t172 51t164.5 -56t61.5 -150v-139h48v-165h-206v43q-35 -26 -79.5 -39.5t-93.5 -13.5q-81 0 -127 38zM299 144q24 12 39 31.5t15 40.5 v5q-10 -6 -31 -12t-40 -8q-37 -4 -52 -15t-15 -29q0 -25 34 -25q26 0 50 12zM200 585l-67 160h184l66 -160h-183z" glyph-name="agrave" horiz-adv-x="604" unicode="à"/>
<glyph d="M68 28q-46 38 -46 103q0 149 243 164q42 3 60.5 11t18.5 23q0 14 -14.5 22t-40.5 8q-25 0 -41.5 -9.5t-22.5 -27.5h-177q11 86 80 137t172 51t164.5 -56t61.5 -150v-139h48v-165h-206v43q-35 -26 -79.5 -39.5t-93.5 -13.5q-81 0 -127 38zM299 144q24 12 39 31.5t15 40.5 v5q-10 -6 -31 -12t-40 -8q-37 -4 -52 -15t-15 -29q0 -25 34 -25q26 0 50 12zM283 745h184l-67 -160h-183z" glyph-name="aacute" horiz-adv-x="604" unicode="á"/>
<glyph d="M68 28q-46 38 -46 103q0 149 243 164q42 3 60.5 11t18.5 23q0 14 -14.5 22t-40.5 8q-25 0 -41.5 -9.5t-22.5 -27.5h-177q11 86 80 137t172 51t164.5 -56t61.5 -150v-139h48v-165h-206v43q-35 -26 -79.5 -39.5t-93.5 -13.5q-81 0 -127 38zM299 144q24 12 39 31.5t15 40.5 v5q-10 -6 -31 -12t-40 -8q-37 -4 -52 -15t-15 -29q0 -25 34 -25q26 0 50 12zM339 585l-39 56l-39 -56h-193l114 160h236l114 -160h-193z" glyph-name="acircumflex" horiz-adv-x="604" unicode="â"/>
<glyph d="M68 28q-46 38 -46 103q0 149 243 164q42 3 60.5 11t18.5 23q0 14 -14.5 22t-40.5 8q-25 0 -41.5 -9.5t-22.5 -27.5h-177q11 86 80 137t172 51t164.5 -56t61.5 -150v-139h48v-165h-206v43q-35 -26 -79.5 -39.5t-93.5 -13.5q-81 0 -127 38zM299 144q24 12 39 31.5t15 40.5 v5q-10 -6 -31 -12t-40 -8q-37 -4 -52 -15t-15 -29q0 -25 34 -25q26 0 50 12zM127 714.5q32 45.5 89 45.5q24 0 43 -7.5t39 -20.5q21 -14 31 -14q21 0 21 33h155q0 -95 -32 -140.5t-89 -45.5q-24 0 -43 7.5t-39 20.5q-21 14 -31 14q-21 0 -21 -33h-155q0 95 32 140.5z" glyph-name="atilde" horiz-adv-x="604" unicode="ã"/>
<glyph d="M68 28q-46 38 -46 103q0 149 243 164q42 3 60.5 11t18.5 23q0 14 -14.5 22t-40.5 8q-25 0 -41.5 -9.5t-22.5 -27.5h-177q11 86 80 137t172 51t164.5 -56t61.5 -150v-139h48v-165h-206v43q-35 -26 -79.5 -39.5t-93.5 -13.5q-81 0 -127 38zM299 144q24 12 39 31.5t15 40.5 v5q-10 -6 -31 -12t-40 -8q-37 -4 -52 -15t-15 -29q0 -25 34 -25q26 0 50 12zM500 745l-103 -200h-9l-88 169l-87 -169h-9l-104 200h400z" glyph-name="adieresis" horiz-adv-x="604" unicode="ä"/>
<glyph d="M68 28q-46 38 -46 103q0 149 243 164q42 3 60.5 11t18.5 23q0 14 -14.5 22t-40.5 8q-25 0 -41.5 -9.5t-22.5 -27.5h-177q11 86 80 137t172 51t164.5 -56t61.5 -150v-139h48v-165h-206v43q-35 -26 -79.5 -39.5t-93.5 -13.5q-81 0 -127 38zM299 144q24 12 39 31.5t15 40.5 v5q-10 -6 -31 -12t-40 -8q-37 -4 -52 -15t-15 -29q0 -25 34 -25q26 0 50 12zM227 559.5q-33 19.5 -52.5 53t-19.5 72.5t19.5 72.5t52.5 53t73 19.5q39 0 72.5 -19.5t53 -53t19.5 -72.5t-19.5 -72.5t-53 -53t-72.5 -19.5q-40 0 -73 19.5zM317.5 667.5q7.5 7.5 7.5 17.5 q0 11 -7.5 18t-17.5 7q-11 0 -18 -7t-7 -18q0 -10 7 -17.5t18 -7.5q10 0 17.5 7.5z" glyph-name="aring" horiz-adv-x="604" unicode="å"/>
<glyph d="M73.5 28q-51.5 38 -51.5 103q0 149 243 164q42 3 60.5 11t18.5 23q0 14 -14.5 22t-40.5 8q-25 0 -41.5 -9.5t-22.5 -27.5h-177q10 85 76 136.5t164 51.5q97 0 157 -55q72 55 175 55q77 0 138.5 -33t96.5 -92.5t35 -135.5q0 -26 -4 -47h-360q10 -29 33.5 -46t60.5 -17 q44 0 67 16h190q-7 -41 -39.5 -78.5t-88.5 -62t-130 -24.5q-64 0 -117 19.5t-89 55.5q-32 -33 -82.5 -54t-115.5 -21q-90 0 -141.5 38zM672.5 346.5q-23.5 15.5 -57.5 15.5q-30 0 -53.5 -16t-33.5 -44h178q-10 29 -33.5 44.5zM299 144q24 12 39 31.5t15 40.5v5 q-10 -6 -31 -12t-40 -8q-37 -4 -52 -15t-15 -29q0 -25 34 -25q26 0 50 12z" glyph-name="ae" horiz-adv-x="917" unicode="æ"/>
<glyph d="M164 23.5q-63 33.5 -98.5 93t-35.5 133.5t35.5 133.5t98.5 93t142 33.5q70 0 127.5 -29.5t92.5 -80t39 -110.5h-188q-8 20 -27.5 34.5t-43.5 14.5q-38 0 -62 -25t-24 -64t24 -64t62 -25q24 0 43.5 14.5t27.5 34.5h188q-4 -60 -39 -110.5t-92.5 -80t-127.5 -29.5 q-79 0 -142 33.5zM330 -245h-184l67 160h183z" glyph-name="ccedilla" horiz-adv-x="595" unicode="ç"/>
<glyph d="M161.5 21q-62.5 31 -97 88.5t-34.5 134.5q0 78 36.5 138.5t100 94t140.5 33.5t138.5 -33t96.5 -92.5t35 -135.5q0 -26 -4 -47h-360q10 -29 33.5 -46t60.5 -17q44 0 67 16h190q-7 -41 -39.5 -78.5t-88.5 -62t-130 -24.5q-82 0 -144.5 31zM359.5 346.5 q-23.5 15.5 -57.5 15.5q-30 0 -53.5 -16t-33.5 -44h178q-10 29 -33.5 44.5zM200 585l-67 160h184l66 -160h-183z" glyph-name="egrave" horiz-adv-x="604" unicode="è"/>
<glyph d="M161.5 21q-62.5 31 -97 88.5t-34.5 134.5q0 78 36.5 138.5t100 94t140.5 33.5t138.5 -33t96.5 -92.5t35 -135.5q0 -26 -4 -47h-360q10 -29 33.5 -46t60.5 -17q44 0 67 16h190q-7 -41 -39.5 -78.5t-88.5 -62t-130 -24.5q-82 0 -144.5 31zM359.5 346.5 q-23.5 15.5 -57.5 15.5q-30 0 -53.5 -16t-33.5 -44h178q-10 29 -33.5 44.5zM283 745h184l-67 -160h-183z" glyph-name="eacute" horiz-adv-x="604" unicode="é"/>
<glyph d="M161.5 21q-62.5 31 -97 88.5t-34.5 134.5q0 78 36.5 138.5t100 94t140.5 33.5t138.5 -33t96.5 -92.5t35 -135.5q0 -26 -4 -47h-360q10 -29 33.5 -46t60.5 -17q44 0 67 16h190q-7 -41 -39.5 -78.5t-88.5 -62t-130 -24.5q-82 0 -144.5 31zM359.5 346.5 q-23.5 15.5 -57.5 15.5q-30 0 -53.5 -16t-33.5 -44h178q-10 29 -33.5 44.5zM339 585l-39 56l-39 -56h-193l114 160h236l114 -160h-193z" glyph-name="ecircumflex" horiz-adv-x="604" unicode="ê"/>
<glyph d="M161.5 21q-62.5 31 -97 88.5t-34.5 134.5q0 78 36.5 138.5t100 94t140.5 33.5t138.5 -33t96.5 -92.5t35 -135.5q0 -26 -4 -47h-360q10 -29 33.5 -46t60.5 -17q44 0 67 16h190q-7 -41 -39.5 -78.5t-88.5 -62t-130 -24.5q-82 0 -144.5 31zM359.5 346.5 q-23.5 15.5 -57.5 15.5q-30 0 -53.5 -16t-33.5 -44h178q-10 29 -33.5 44.5zM500 745l-103 -200h-9l-88 169l-87 -169h-9l-104 200h400z" glyph-name="edieresis" horiz-adv-x="604" unicode="ë"/>
<glyph d="M70 500h190v-500h-190v500zM65 585l-67 160h184l66 -160h-183z" glyph-name="igrave" horiz-adv-x="330" unicode="ì"/>
<glyph d="M70 500h190v-500h-190v500zM148 745h184l-67 -160h-183z" glyph-name="iacute" horiz-adv-x="330" unicode="í"/>
<glyph d="M70 500h190v-500h-190v500zM204 585l-39 56l-39 -56h-193l114 160h236l114 -160h-193z" glyph-name="icircumflex" horiz-adv-x="330" unicode="î"/>
<glyph d="M70 500h190v-500h-190v500zM365 745l-103 -200h-9l-88 169l-87 -169h-9l-104 200h400z" glyph-name="idieresis" horiz-adv-x="330" unicode="ï"/>
<glyph d="M165.5 23q-63.5 33 -99.5 91t-36 131q0 70 32.5 128.5t90.5 92.5t132 34l-10 19l-6 11h-133v120h68l-33 60h209l34 -60h117v-120h-50l11 -20l18 -30q37 -63 58.5 -115t21.5 -115q0 -74 -35.5 -133.5t-99.5 -93t-147 -33.5q-79 0 -142.5 33zM370.5 189.5 q24.5 24.5 24.5 60.5t-24.5 60.5t-60.5 24.5t-60.5 -24.5t-24.5 -60.5t24.5 -60.5t60.5 -24.5t60.5 24.5z" glyph-name="eth" horiz-adv-x="620" unicode="ð"/>
<glyph d="M243 500v-37q58 47 138 47q64 0 114 -27.5t77.5 -77t27.5 -112.5v-293h-192v261q-1 32 -22 52.5t-52 20.5q-32 0 -53 -20.5t-21 -52.5v-261h-190v500h173zM161 714.5q32 45.5 89 45.5q24 0 43 -7.5t39 -20.5q21 -14 31 -14q21 0 21 33h155q0 -95 -32 -140.5t-89 -45.5 q-24 0 -43 7.5t-39 20.5q-21 14 -31 14q-21 0 -21 -33h-155q0 95 32 140.5z" glyph-name="ntilde" horiz-adv-x="660" unicode="ñ"/>
<glyph d="M166 23.5q-64 33.5 -100 93t-36 133.5t36 133.5t100 93t144 33.5t144 -33.5t100 -93t36 -133.5t-36 -133.5t-100 -93t-144 -33.5t-144 33.5zM370.5 189.5q24.5 24.5 24.5 60.5t-24.5 60.5t-60.5 24.5t-60.5 -24.5t-24.5 -60.5t24.5 -60.5t60.5 -24.5t60.5 24.5zM210 585 l-67 160h184l66 -160h-183z" glyph-name="ograve" horiz-adv-x="620" unicode="ò"/>
<glyph d="M166 23.5q-64 33.5 -100 93t-36 133.5t36 133.5t100 93t144 33.5t144 -33.5t100 -93t36 -133.5t-36 -133.5t-100 -93t-144 -33.5t-144 33.5zM370.5 189.5q24.5 24.5 24.5 60.5t-24.5 60.5t-60.5 24.5t-60.5 -24.5t-24.5 -60.5t24.5 -60.5t60.5 -24.5t60.5 24.5zM293 745 h184l-67 -160h-183z" glyph-name="oacute" horiz-adv-x="620" unicode="ó"/>
<glyph d="M166 23.5q-64 33.5 -100 93t-36 133.5t36 133.5t100 93t144 33.5t144 -33.5t100 -93t36 -133.5t-36 -133.5t-100 -93t-144 -33.5t-144 33.5zM370.5 189.5q24.5 24.5 24.5 60.5t-24.5 60.5t-60.5 24.5t-60.5 -24.5t-24.5 -60.5t24.5 -60.5t60.5 -24.5t60.5 24.5zM349 585 l-39 56l-39 -56h-193l114 160h236l114 -160h-193z" glyph-name="ocircumflex" horiz-adv-x="620" unicode="ô"/>
<glyph d="M166 23.5q-64 33.5 -100 93t-36 133.5t36 133.5t100 93t144 33.5t144 -33.5t100 -93t36 -133.5t-36 -133.5t-100 -93t-144 -33.5t-144 33.5zM370.5 189.5q24.5 24.5 24.5 60.5t-24.5 60.5t-60.5 24.5t-60.5 -24.5t-24.5 -60.5t24.5 -60.5t60.5 -24.5t60.5 24.5z M137 714.5q32 45.5 89 45.5q24 0 43 -7.5t39 -20.5q21 -14 31 -14q21 0 21 33h155q0 -95 -32 -140.5t-89 -45.5q-24 0 -43 7.5t-39 20.5q-21 14 -31 14q-21 0 -21 -33h-155q0 95 32 140.5z" glyph-name="otilde" horiz-adv-x="620" unicode="õ"/>
<glyph d="M166 23.5q-64 33.5 -100 93t-36 133.5t36 133.5t100 93t144 33.5t144 -33.5t100 -93t36 -133.5t-36 -133.5t-100 -93t-144 -33.5t-144 33.5zM370.5 189.5q24.5 24.5 24.5 60.5t-24.5 60.5t-60.5 24.5t-60.5 -24.5t-24.5 -60.5t24.5 -60.5t60.5 -24.5t60.5 24.5zM510 745 l-103 -200h-9l-88 169l-87 -169h-9l-104 200h400z" glyph-name="odieresis" horiz-adv-x="620" unicode="ö"/>
<glyph d="M205.5 520.5q-30.5 30.5 -30.5 74.5q0 45 30.5 75t74.5 30q45 0 75 -30t30 -75q0 -44 -30 -74.5t-75 -30.5q-44 0 -74.5 30.5zM38 435h484v-170h-484v170zM205.5 30.5q-30.5 30.5 -30.5 74.5t30.5 74.5t74.5 30.5t74.5 -30.5t30.5 -74.5t-30.5 -74.5t-74.5 -30.5 t-74.5 30.5z" glyph-name="divide" horiz-adv-x="560" unicode="÷"/>
<glyph d="M193 12l-10 -12h-162l69 83q-60 71 -60 167q0 74 36 133.5t100 93t144 33.5q62 0 117 -22l10 12h162l-69 -83q60 -71 60 -167q0 -74 -36 -133.5t-100 -93t-144 -33.5q-62 0 -117 22zM310 360q-49 0 -82 -31.5t-33 -78.5q0 -17 5 -34l120 144h-10zM392 171.5 q33 31.5 33 78.5q0 17 -5 34l-120 -144h10q49 0 82 31.5z" glyph-name="oslash" horiz-adv-x="620" unicode="ø"/>
<glyph d="M165 17.5q-50 27.5 -77.5 77t-27.5 112.5v293h192l1 -261q0 -31 21 -52t52 -21q32 0 53 20.5t21 52.5v261h190v-500h-173v37q-58 -47 -138 -47q-64 0 -114 27.5zM226 585l-67 160h184l66 -160h-183z" glyph-name="ugrave" horiz-adv-x="660" unicode="ù"/>
<glyph d="M165 17.5q-50 27.5 -77.5 77t-27.5 112.5v293h192l1 -261q0 -31 21 -52t52 -21q32 0 53 20.5t21 52.5v261h190v-500h-173v37q-58 -47 -138 -47q-64 0 -114 27.5zM309 745h184l-67 -160h-183z" glyph-name="uacute" horiz-adv-x="660" unicode="ú"/>
<glyph d="M165 17.5q-50 27.5 -77.5 77t-27.5 112.5v293h192l1 -261q0 -31 21 -52t52 -21q32 0 53 20.5t21 52.5v261h190v-500h-173v37q-58 -47 -138 -47q-64 0 -114 27.5zM365 585l-39 56l-39 -56h-193l114 160h236l114 -160h-193z" glyph-name="ucircumflex" horiz-adv-x="660" unicode="û"/>
<glyph d="M165 17.5q-50 27.5 -77.5 77t-27.5 112.5v293h192l1 -261q0 -31 21 -52t52 -21q32 0 53 20.5t21 52.5v261h190v-500h-173v37q-58 -47 -138 -47q-64 0 -114 27.5zM526 745l-103 -200h-9l-88 169l-87 -169h-9l-104 200h400z" glyph-name="udieresis" horiz-adv-x="660" unicode="ü"/>
<glyph d="M124.5 -187.5q-49.5 22.5 -81.5 72.5t-32 126v25h179v-41q0 -22 12.5 -34.5t27.5 -12.5t24.5 9t9.5 23v1q0 16 -10 35l-249 484h211l119 -257v0l92 257h197l-173 -421q-5 -14 -7 -24t-2 -30v-40q0 -61 -29 -105t-77.5 -67t-105.5 -23q-56 0 -105.5 22.5zM300 745h184 l-67 -160h-183z" glyph-name="yacute" horiz-adv-x="629" unicode="ý"/>
<glyph d="M260 710v-232q49 32 111 32q71 0 128 -33.5t89 -93t32 -133.5t-32 -133.5t-89 -93t-128 -33.5q-62 0 -111 32v-222h-190v910h190zM400.5 189.5q24.5 24.5 24.5 60.5t-24.5 60.5t-60.5 24.5t-60.5 -24.5t-24.5 -60.5t24.5 -60.5t60.5 -24.5t60.5 24.5z" glyph-name="thorn" horiz-adv-x="650" unicode="þ"/>
<glyph d="M70 500h190v-500h-190v500z" glyph-name="dotlessi" horiz-adv-x="330" unicode="ı"/>
<glyph d="M-91 -187.5q-51 22.5 -80.5 61.5t-29.5 86h178v-1q0 -12 14.5 -21t32.5 -9q22 0 37 12.5t15 39.5q0 12 -6 40q-10 36 -10 68v411h190v-467q0 -126 -58 -184.5t-169 -58.5q-63 0 -114 22.5z" glyph-name="uni0237" horiz-adv-x="300" unicode="ȷ"/>
<glyph d="M-400 585l-67 160h184l66 -160h-183z" glyph-name="gravecomb" horiz-adv-x="0" unicode="̀"/>
<glyph d="M-317 745h184l-67 -160h-183z" glyph-name="acutecomb" horiz-adv-x="0" unicode="́"/>
<glyph d="M-261 585l-39 56l-39 -56h-193l114 160h236l114 -160h-193z" glyph-name="uni0302" horiz-adv-x="0" unicode="̂"/>
<glyph d="M-473 714.5q32 45.5 89 45.5q24 0 43 -7.5t39 -20.5q21 -14 31 -14q21 0 21 33h155q0 -95 -32 -140.5t-89 -45.5q-24 0 -43 7.5t-39 20.5q-21 14 -31 14q-21 0 -21 -33h-155q0 95 32 140.5z" glyph-name="tildecomb" horiz-adv-x="0" unicode="̃"/>
<glyph d="M-420 745h240l-115 -200h-10z" glyph-name="uni0307" horiz-adv-x="0" unicode="̇"/>
<glyph d="M-100 745l-103 -200h-9l-88 169l-87 -169h-9l-104 200h400z" glyph-name="uni0308" horiz-adv-x="0" unicode="̈"/>
<glyph d="M-373 559.5q-33 19.5 -52.5 53t-19.5 72.5t19.5 72.5t52.5 53t73 19.5q39 0 72.5 -19.5t53 -53t19.5 -72.5t-19.5 -72.5t-53 -53t-72.5 -19.5q-40 0 -73 19.5zM-282.5 667.5q7.5 7.5 7.5 17.5q0 11 -7.5 18t-17.5 7q-11 0 -18 -7t-7 -18q0 -10 7 -17.5t18 -7.5 q10 0 17.5 7.5z" glyph-name="uni030A" horiz-adv-x="0" unicode="̊"/>
<glyph d="M-273 -245h-184l67 160h183z" glyph-name="uni0327" horiz-adv-x="0" unicode="̧"/>
<glyph d="M60 385h440v-170h-440v170z" glyph-name="endash" horiz-adv-x="560" unicode="–"/>
<glyph d="M235 350l109 -200h-208l-106 194v12l106 194h208zM535 350l109 -200h-208l-106 194v12l106 194h208z" glyph-name="guillemotleft.case" horiz-adv-x="674"/>
<glyph d="M439 350l-109 200h208l106 -194v-12l-106 -194h-208zM139 350l-109 200h208l106 -194v-12l-106 -194h-208z" glyph-name="guillemotright.case" horiz-adv-x="674"/>
<glyph d="M225 33q-84 48 -132 132t-48 185t48 185t132 132t185 48t185 -48t132 -132t48 -185q0 -107 -56 -198h-241v35q-27 -21 -62.5 -32t-73.5 -11q-68 0 -107 32t-39 86q0 119 195 130q40 2 57 8.5t17 18.5t-12.5 18.5t-35.5 6.5q-25 0 -42.5 -8t-23.5 -22h-143q9 69 64 110.5 t138 41.5q92 0 146.5 -45.5t54.5 -121.5v-113h72q7 28 7 64q0 78 -37 142t-101 101t-142 37t-142 -37t-101 -101t-37 -142t37 -142t101 -101t142 -37q60 0 102.5 14.5t82.5 44.5l56 -64q-49 -39 -107 -59.5t-134 -20.5q-101 0 -185 48zM446 278.5q28 22.5 28 48.5v5 q-7 -4 -26.5 -9.5t-38.5 -7.5q-33 -4 -46.5 -12.5t-13.5 -22.5q0 -24 35 -24q34 0 62 22.5z" glyph-name="at.case"/>
<glyph d="M-420 745h240l-115 -200h-10z" glyph-name="uni0307.cv01" horiz-adv-x="0"/>
</font>
</defs>
</svg>
