<?xml version="1.0" encoding="UTF-8"?>
<!DOCTYPE svg  PUBLIC '-//W3C//DTD SVG 1.1//EN'  'http://www.w3.org/Graphics/SVG/1.1/DTD/svg11.dtd'>
<svg version="1.1" xmlns="http://www.w3.org/2000/svg">
<defs>
<font id="KyivTypeSans-Heavy" horiz-adv-x="560">
<font-face font-family="KyivType Sans Heavy" font-weight="800" ascent="800" bbox="-508 -245 1036 1030" cap-height="700" descent="-200" panose-1="0 0 9 0 0 0 0 0 0 0" underline-position="-100" underline-thickness="50" unicode-range="U+0020-2013" units-per-em="1000" x-height="500"/>
<missing-glyph/>
<glyph glyph-name="space" horiz-adv-x="250" unicode=" "/>
<glyph d="M74 700h205l-34 -436h-137zM102.5 20.5q-31.5 31.5 -31.5 77.5t31.5 77.5t77.5 31.5q47 0 78 -31t31 -78q0 -46 -31 -77.5t-78 -31.5q-46 0 -77.5 31.5z" glyph-name="exclam" horiz-adv-x="361" unicode="!"/>
<glyph d="M374 702l-90 -261h-10l-74 216l-75 -216h-10l-89 261h348z" glyph-name="quotedbl" horiz-adv-x="399" unicode='"'/>
<glyph d="M144 116h-104v159h104v151h-104v158h104v131h146v-131h121v131h146v-131h103v-158h-103v-151h103v-159h-103v-131h-146v131h-121v-131h-146v131zM411 275v151h-121v-151h121z" glyph-name="numbersign" horiz-adv-x="700" unicode="#"/>
<glyph d="M106.5 69.5q-69.5 64.5 -78.5 176.5h181q10 -51 49 -78.5t100 -27.5q52 0 83 14t31 43q0 22 -14 34.5t-41.5 20.5t-90.5 23q-85 19 -143 41t-98 66.5t-40 117.5q0 95 69 148t173 64v118h121v-119q105 -15 175.5 -76t81.5 -173h-191q-9 47 -46 71.5t-93 24.5 q-39 0 -70.5 -13.5t-31.5 -43.5q0 -22 17 -35.5t43 -20.5t90 -22q88 -20 146.5 -43.5t95.5 -67t37 -113.5q0 -89 -66.5 -145t-187.5 -66v-118h-121v120q-111 15 -180.5 79.5z" glyph-name="dollar" horiz-adv-x="700" unicode="$"/>
<glyph d="M112.5 367q-41.5 24 -65.5 65.5t-24 91.5t24 91.5t65.5 65.5t91.5 24t91.5 -24t65.5 -65.5t24 -91.5t-24 -91.5t-65.5 -65.5t-91.5 -24t-91.5 24zM588 700h139l-465 -700h-140zM246.5 481.5q17.5 17.5 17.5 42.5q0 26 -17 43t-43 17q-25 0 -42.5 -17t-17.5 -43 q0 -25 17.5 -42.5t42.5 -17.5t42.5 17.5zM553.5 19q-41.5 24 -65.5 65.5t-24 91.5t24 91.5t65.5 65.5t91.5 24t91.5 -24t65.5 -65.5t24 -91.5t-24 -91.5t-65.5 -65.5t-91.5 -24t-91.5 24zM688 133.5q18 17.5 18 42.5t-17.5 42.5t-43.5 17.5q-25 0 -42.5 -17.5t-17.5 -42.5 t17.5 -42.5t42.5 -17.5t43 17.5z" glyph-name="percent" horiz-adv-x="849" unicode="%"/>
<glyph d="M153.5 11.5q-65.5 26.5 -101 76t-35.5 114.5q0 81 50.5 134.5t138.5 66.5l-122 141v156h558v-164h-334l215 -249q19 53 22 113h177q-4 -147 -78 -254l127 -146h-218l-33 38q-92 -53 -214 -53q-87 0 -152.5 26.5zM413 162l-110 128h-18q-41 0 -65.5 -19.5t-24.5 -51.5 q0 -37 29.5 -60t76.5 -23q66 0 112 26z" glyph-name="ampersand" horiz-adv-x="777" unicode="&amp;"/>
<glyph d="M26 702h189l-90 -261h-10z" glyph-name="quotesingle" horiz-adv-x="241" unicode="'"/>
<glyph d="M243 -56.5q-71 58.5 -110 164t-39 242.5t39 242.5t110 164t163 58.5v-146q-47 0 -83 -40t-56 -112.5t-20 -166.5t20 -166.5t56 -112.5t83 -40v-146q-92 0 -163 58.5z" glyph-name="parenleft" horiz-adv-x="500" unicode="("/>
<glyph d="M257 756.5q71 -58.5 110 -164t39 -242.5t-39 -242.5t-110 -164t-163 -58.5v146q47 0 83 40t56 112.5t20 166.5t-20 166.5t-56 112.5t-83 40v146q92 0 163 -58.5z" glyph-name="parenright" horiz-adv-x="500" unicode=")"/>
<glyph d="M185 554l-77 -69l-69 20l19 69h119l-147 45v69l64 17l88 -105l-50 141l63 53l63 -53l-50 -141l88 105l64 -17v-69l-148 -45h119l19 -69l-68 -20l-78 69l9 -100h-37z" glyph-name="asterisk" horiz-adv-x="390" unicode="*"/>
<glyph d="M497 277h-144v-144h-146v144h-144v146h144v144h146v-144h144v-146z" glyph-name="plus" unicode="+"/>
<glyph d="M132 -5h-1q-40 12 -60 40t-20 62q0 43 29.5 76.5t78.5 33.5q45 0 78 -29.5t33 -82.5q0 -48 -26.5 -103.5t-62.5 -86.5h-88q26 41 39 90z" glyph-name="comma" horiz-adv-x="321" unicode=","/>
<glyph d="M63 373h291v-146h-291v146z" glyph-name="hyphen" horiz-adv-x="417" unicode="-"/>
<glyph d="M82.5 20.5q-31.5 31.5 -31.5 77.5t31.5 77.5t77.5 31.5q47 0 78 -31t31 -78q0 -46 -31 -77.5t-78 -31.5q-46 0 -77.5 31.5z" glyph-name="period" horiz-adv-x="321" unicode="."/>
<glyph d="M346 700h159l-338 -700h-159z" glyph-name="slash" horiz-adv-x="513" unicode="/"/>
<glyph d="M197 31.5q-73 46.5 -113.5 129.5t-40.5 189t40.5 189t113.5 129.5t166 46.5t165.5 -46.5t113 -129.5t40.5 -189t-40.5 -189t-113 -129.5t-165.5 -46.5t-166 46.5zM462 202q36 54 36 148t-36 148t-99 54t-99.5 -54t-36.5 -148t36.5 -148t99.5 -54t99 54z" glyph-name="zero" horiz-adv-x="725" unicode="0"/>
<glyph d="M211 489l-170 -105v196l196 120h149v-700h-175v489z" glyph-name="one" horiz-adv-x="485" unicode="1"/>
<glyph d="M262 262l13 10q-6 -3 -24 -3q-69 8 -117 39t-72 77t-24 97q0 61 34.5 114t101 86t158.5 33q84 0 151 -30.5t105 -84t38 -121.5q0 -73 -44 -136t-122 -106l-135 -77h307v-160h-582v144zM415.5 407q32.5 25 32.5 66t-32.5 66t-84.5 25t-83.5 -25t-31.5 -66t31.5 -66 t83.5 -25t84.5 25z" glyph-name="two" horiz-adv-x="659" unicode="2"/>
<glyph d="M154.5 16q-66.5 31 -104.5 87.5t-41 129.5h177q5 -44 37 -71.5t81 -27.5t80 28t31 71t-29 70t-73 27q-40 0 -70 -22l-14 -10l-83 106l177 138h-288v158h534v-149l-153 -119h9q78 -13 125.5 -69.5t47.5 -135.5q0 -70 -36.5 -125t-103 -86t-151.5 -31q-86 0 -152.5 31z" glyph-name="three" horiz-adv-x="623" unicode="3"/>
<glyph d="M375 135h-349v150l297 415h231v-415h112v-150h-112v-135h-179v135zM375 285v242l-176 -242h176z" glyph-name="four" horiz-adv-x="675" unicode="4"/>
<glyph d="M174 14q-64 29 -101.5 80t-40.5 114h180q7 -35 37.5 -55t72.5 -20q53 0 85 32t32 78q0 44 -30.5 73.5t-84.5 29.5q-37 0 -66.5 -16t-42.5 -44h-164l46 414h485v-158h-337l-11 -98q54 30 130 30q70 0 129 -26t94 -78.5t35 -126.5q0 -76 -38 -134.5t-107 -91t-158 -32.5 q-81 0 -145 29z" glyph-name="five" horiz-adv-x="663" unicode="5"/>
<glyph d="M192 34.5q-72 49.5 -108 132.5t-36 182t36 182.5t107.5 133.5t172.5 50q76 0 137.5 -28t100 -77.5t48.5 -112.5h-194q-10 27 -36 41t-62 14q-38 0 -70 -19t-51 -54t-19 -81v-6q32 33 80 50.5t102 17.5q70 0 130 -26.5t96.5 -78.5t36.5 -125q0 -64 -35 -120t-102 -90.5 t-159 -34.5q-103 0 -175 49.5zM445.5 163q32.5 27 32.5 68q0 43 -32 70t-83 27q-52 0 -85 -26.5t-33 -68.5q0 -40 32.5 -68.5t84.5 -28.5q51 0 83.5 27z" glyph-name="six" horiz-adv-x="697" unicode="6"/>
<glyph d="M249 280.5q69 145.5 161 255.5h-400v164h586v-149q-57 -62 -109.5 -156t-89 -198.5t-47.5 -196.5h-191q21 135 90 280.5z" glyph-name="seven" horiz-adv-x="606" unicode="7"/>
<glyph d="M181.5 11.5q-69.5 26.5 -107.5 75.5t-38 113q0 53 31 94.5t87 65.5q-49 24 -75.5 62.5t-26.5 87.5q0 61 36 107t102 71.5t153 25.5t153 -25.5t102.5 -71.5t36.5 -107q0 -49 -27 -87.5t-76 -62.5q57 -24 88 -65.5t31 -94.5q0 -64 -38 -113t-108 -75.5t-162 -26.5 t-161.5 26.5zM426.5 442.5q31.5 21.5 31.5 56.5t-31.5 56.5t-83.5 21.5q-51 0 -82.5 -21.5t-31.5 -56.5t31.5 -56.5t82.5 -21.5q52 0 83.5 21.5zM433 148q34 24 34 62q0 37 -34 60t-90 23q-55 0 -89.5 -23t-34.5 -60q0 -38 34.5 -62t89.5 -24q56 0 90 24z" glyph-name="eight" horiz-adv-x="687" unicode="8"/>
<glyph d="M505 665.5q72 -49.5 108 -132.5t36 -182t-36 -182.5t-107.5 -133.5t-172.5 -50q-76 0 -137.5 28t-100 77.5t-48.5 112.5h194q10 -27 36 -41t62 -14q38 0 70 19t51 54t19 81v6q-32 -33 -80 -50.5t-102 -17.5q-70 0 -130 26.5t-96.5 78.5t-36.5 125q0 64 35 120t102 90.5 t159 34.5q103 0 175 -49.5zM251.5 537q-32.5 -27 -32.5 -68q0 -43 32 -70t83 -27q52 0 85 26.5t33 68.5q0 40 -32.5 68.5t-84.5 28.5q-51 0 -83.5 -27z" glyph-name="nine" horiz-adv-x="697" unicode="9"/>
<glyph d="M82.5 20.5q-31.5 31.5 -31.5 77.5t31.5 77.5t77.5 31.5q47 0 78 -31t31 -78q0 -46 -31 -77.5t-78 -31.5q-46 0 -77.5 31.5zM82.5 319.5q-31.5 31.5 -31.5 77.5t31.5 77.5t77.5 31.5q47 0 78 -31t31 -78q0 -46 -31 -77.5t-78 -31.5q-46 0 -77.5 31.5z" glyph-name="colon" horiz-adv-x="321" unicode=":"/>
<glyph d="M132 -5h-1q-40 12 -60 40t-20 62q0 43 29.5 76.5t78.5 33.5q45 0 78 -29.5t33 -82.5q0 -48 -26.5 -103.5t-62.5 -86.5h-88q26 41 39 90zM82.5 319.5q-31.5 31.5 -31.5 77.5t31.5 77.5t77.5 31.5q47 0 78 -31t31 -78q0 -46 -31 -77.5t-78 -31.5q-46 0 -77.5 31.5z" glyph-name="semicolon" horiz-adv-x="322" unicode=";"/>
<glyph d="M497 443l-194 -89l194 -89v-161l-434 199v94l434 199v-153z" glyph-name="less" unicode="&lt;"/>
<glyph d="M63 547h434v-146h-434v146zM63 300h434v-146h-434v146z" glyph-name="equal" unicode="="/>
<glyph d="M63 257l194 89l-194 89v161l434 -199v-94l-434 -199v153z" glyph-name="greater" unicode="&gt;"/>
<glyph d="M223 298q0 51 30 83.5t93 55.5q37 14 53 31t16 38q0 24 -26.5 39t-67.5 15q-49 0 -79.5 -22.5t-40.5 -63.5h-183q14 112 96 176.5t212 64.5q83 0 145.5 -24.5t97 -70t34.5 -107.5q0 -58 -36.5 -99t-109.5 -72q-34 -14 -49.5 -24t-22 -22t-6.5 -32h-153q-3 18 -3 34z M229.5 20.5q-31.5 31.5 -31.5 77.5q0 47 31.5 78t77.5 31q47 0 78 -31t31 -78q0 -46 -31 -77.5t-78 -31.5q-46 0 -77.5 31.5z" glyph-name="question" horiz-adv-x="635" unicode="?"/>
<glyph d="M225 -119q-84 48 -132 132t-48 185t48 185t132 132t185 48t185 -48t132 -132t48 -185q0 -107 -56 -198h-228v46q-26 -26 -64.5 -40t-81.5 -14q-67 0 -105.5 31t-38.5 84q0 122 201 132q43 3 60.5 9.5t17.5 19.5q0 18 -17 29t-46 11q-32 0 -52.5 -12t-27.5 -34h-124 q9 70 63 111t135 41q89 0 142 -45t53 -121v-135h81q14 40 14 85q0 81 -38.5 147.5t-105 105t-147.5 38.5t-147.5 -38.5t-104.5 -105t-38 -147.5t38 -147.5t104.5 -104.5t147.5 -38q62 0 107.5 16t86.5 49l50 -56q-49 -41 -108.5 -62.5t-135.5 -21.5q-101 0 -185 48z M454 117.5q32 26.5 32 60.5v6q-7 -6 -27 -11t-44 -7q-43 -5 -61 -15t-18 -27q0 -33 46 -33q40 0 72 26.5z" glyph-name="at" horiz-adv-x="820" unicode="@"/>
<glyph d="M275 700h245l257 -700h-200l-44 130h-276l-43 -130h-196zM485 280l-86 258h-8l-86 -258h180z" glyph-name="A" horiz-adv-x="795" unicode="A"/>
<glyph d="M437 700q114 0 180 -51.5t66 -140.5q0 -92 -70 -144v-6q44 -26 67.5 -67t23.5 -92q0 -59 -31 -104t-86.5 -70t-127.5 -25h-369v700h347zM477.5 443q19.5 17 19.5 43q0 27 -19.5 44t-50.5 17h-158v-121h158q31 0 50.5 17zM496 170.5q20 17.5 20 45.5t-20 45t-53 17h-174 v-125h174q33 0 53 17.5z" glyph-name="B" horiz-adv-x="744" unicode="B"/>
<glyph d="M220.5 32q-82.5 47 -129 130.5t-46.5 187.5t46.5 187.5t129 130.5t186.5 47q92 0 168.5 -39.5t123 -109.5t52.5 -156h-190q-14 56 -56 89.5t-100 33.5q-48 0 -86.5 -23.5t-60 -65t-21.5 -94.5t21.5 -94.5t60 -65t86.5 -23.5q59 0 101 33.5t55 89.5h190q-6 -86 -53 -156 t-123 -109.5t-168 -39.5q-104 0 -186.5 47z" glyph-name="C" horiz-adv-x="785" unicode="C"/>
<glyph d="M331 700q118 0 207 -43.5t138 -122.5t49 -184t-49 -184t-138 -122.5t-207 -43.5h-241v700h241zM478.5 216q51.5 48 51.5 134t-51.5 134t-146.5 48h-54v-364h54q95 0 146.5 48z" glyph-name="D" horiz-adv-x="770" unicode="D"/>
<glyph d="M90 700h505v-163h-321v-111h214v-152h-214v-111h346v-163h-530v700z" glyph-name="E" horiz-adv-x="673" unicode="E"/>
<glyph d="M90 700h516v-175h-328v-114h230v-165h-230v-246h-188v700z" glyph-name="F" horiz-adv-x="632" unicode="F"/>
<glyph d="M213 32q-78 47 -123 130.5t-45 186.5q0 105 46.5 188.5t128.5 130.5t185 47q88 0 160.5 -34.5t120 -95.5t61.5 -140h-197q-16 44 -53 69.5t-87 25.5q-51 0 -90.5 -25t-61.5 -69.5t-22 -100.5q0 -58 23 -104t64 -71.5t93 -25.5q49 0 88 24t59 65h-155v144h343v-377h-157 v63q-76 -78 -206 -78q-97 0 -175 47z" glyph-name="G" horiz-adv-x="819" unicode="G"/>
<glyph d="M90 700h188v-260h264v260h188v-700h-188v260h-264v-260h-188v700z" glyph-name="H" horiz-adv-x="820" unicode="H"/>
<glyph d="M90 700h188v-700h-188v700z" glyph-name="I" horiz-adv-x="367" unicode="I"/>
<glyph d="M160.5 19q-65.5 34 -101.5 96t-36 144v78h185v-67q0 -46 28 -75t72 -29q43 0 70 29t27 75v430h188v-441q0 -82 -35 -144t-98.5 -96t-148.5 -34t-150.5 34z" glyph-name="J" horiz-adv-x="675" unicode="J"/>
<glyph d="M90 700h186v-260h95l170 260h205l-217 -335l236 -365h-225l-170 260h-94v-260h-186v700z" glyph-name="K" horiz-adv-x="777" unicode="K"/>
<glyph d="M90 700h188v-519h339v-181h-527v700z" glyph-name="L" horiz-adv-x="649" unicode="L"/>
<glyph d="M90 700h314l130 -470l131 470h310v-700h-183v551l-153 -551h-214l-152 551v-551h-183v700z" glyph-name="M" horiz-adv-x="1065" unicode="M"/>
<glyph d="M90 700h197l288 -430v430h175v-700h-196l-288 431v-431h-176v700z" glyph-name="N" horiz-adv-x="840" unicode="N"/>
<glyph d="M225 32.5q-84 47.5 -132 131t-48 186.5t48 186.5t132 131t188 47.5t188.5 -47.5t132.5 -131t48 -186.5t-48 -186.5t-132.5 -131t-188.5 -47.5t-188 47.5zM503.5 191q40.5 24 63.5 65.5t23 93.5t-23 93.5t-63.5 65.5t-90.5 24t-90 -24t-63 -65.5t-23 -93.5t23 -93.5 t63 -65.5t90 -24t90.5 24z" glyph-name="O" horiz-adv-x="826" unicode="O"/>
<glyph d="M389 700q131 0 206.5 -62.5t75.5 -171.5q0 -108 -75.5 -170.5t-206.5 -62.5h-114v-233h-185v700h299zM458 402q25 22 25 57t-25 57t-67 22h-116v-158h116q42 0 67 22z" glyph-name="P" horiz-adv-x="706" unicode="P"/>
<glyph d="M176.5 65.5q-62.5 50.5 -97 124t-34.5 160.5q0 103 48 186.5t132 131t188 47.5t188.5 -47.5t132.5 -131t48 -186.5q0 -87 -35 -160.5t-97 -124t-143 -69.5v-196h-188v196q-80 19 -142.5 69.5zM503.5 191q40.5 24 63.5 65.5t23 93.5t-23 93.5t-63.5 65.5t-90.5 24t-90 -24 t-63 -65.5t-23 -93.5t23 -93.5t63 -65.5t90 -24t90.5 24z" glyph-name="Q" horiz-adv-x="826" unicode="Q"/>
<glyph d="M405 700q131 0 207 -62t76 -170q0 -73 -35.5 -125.5t-100.5 -79.5l175 -263h-211l-158 236h-83v-236h-185v700h315zM475 407q25 21 25 55q0 33 -25 53.5t-65 20.5h-135v-150h135q40 0 65 21z" glyph-name="R" horiz-adv-x="748" unicode="R"/>
<glyph d="M131 50.5q-93 65.5 -103 195.5h187q10 -51 50.5 -78.5t101.5 -27.5q54 0 86 14t32 43q0 22 -14.5 34.5t-42.5 21t-93 22.5q-88 19 -147.5 41t-101 66.5t-41.5 117.5t44 121.5t113.5 71t148.5 22.5q84 0 156 -26t120 -82.5t57 -144.5h-196q-10 47 -48.5 71.5t-94.5 24.5 q-40 0 -72.5 -13.5t-32.5 -43.5q0 -22 17.5 -35.5t44.5 -21t93 -21.5q91 -20 150.5 -43.5t98 -67t38.5 -113.5q0 -65 -37 -113t-108.5 -74.5t-170.5 -26.5q-142 0 -235 65.5z" glyph-name="S" horiz-adv-x="719" unicode="S"/>
<glyph d="M272 519h-244v181h676v-181h-244v-519h-188v519z" glyph-name="T" horiz-adv-x="732" unicode="T"/>
<glyph d="M234.5 25q-74.5 40 -115.5 113.5t-41 170.5v391h188v-382q0 -74 37 -113.5t105 -39.5q69 0 106 39.5t37 113.5v382h188v-391q0 -97 -41 -170.5t-115.5 -113.5t-174.5 -40q-99 0 -173.5 40z" glyph-name="U" horiz-adv-x="817" unicode="U"/>
<glyph d="M21 700h202l185 -537h4l184 537h198l-263 -700h-247z" glyph-name="V" horiz-adv-x="815" unicode="V"/>
<glyph d="M32 700h194l106 -484l109 484h190l108 -483l106 483h191l-159 -700h-242l-102 459l-103 -459h-239z" glyph-name="W" horiz-adv-x="1067" unicode="W"/>
<glyph d="M252 360l-229 340h219l145 -221l146 221h213l-231 -339l242 -361h-221l-153 233l-156 -233h-214z" glyph-name="X" horiz-adv-x="769" unicode="X"/>
<glyph d="M292 239l-287 461h220l168 -283l163 283h211l-287 -461v-239h-188v239z" glyph-name="Y" horiz-adv-x="772" unicode="Y"/>
<glyph d="M50 154l350 374h-338v172h584v-154l-351 -374h355v-172h-600v154z" glyph-name="Z" horiz-adv-x="707" unicode="Z"/>
<glyph d="M126 800h298v-146h-152v-608h152v-146h-298v900z" glyph-name="bracketleft" horiz-adv-x="500" unicode="["/>
<glyph d="M8 700h159l338 -700h-159z" glyph-name="backslash" horiz-adv-x="513" unicode="\"/>
<glyph d="M374 -100h-298v146h152v608h-152v146h298v-900z" glyph-name="bracketright" horiz-adv-x="500" unicode="]"/>
<glyph d="M225 700h110l196 -340h-161l-91 159l-91 -159h-159z" glyph-name="asciicircum" unicode="^"/>
<glyph d="M30 0h431v-146h-431v146z" glyph-name="underscore" horiz-adv-x="490" unicode="_"/>
<glyph d="M74 28q-46 38 -46 103q0 148 248 163q47 3 67.5 12.5t20.5 26.5q0 21 -20.5 34t-54.5 13t-56 -14.5t-29 -41.5h-152q11 85 78 135.5t167 50.5q102 0 162.5 -55.5t60.5 -149.5v-163h53v-142h-189v53q-33 -30 -81.5 -46.5t-102.5 -16.5q-80 0 -126 38zM305.5 128.5 q29.5 15.5 47.5 40.5t18 52v6q-9 -6 -33.5 -13t-50.5 -9q-51 -4 -72.5 -18t-21.5 -37q0 -18 13 -27.5t37 -9.5q33 0 62.5 15.5z" glyph-name="a" horiz-adv-x="604" unicode="a"/>
<glyph d="M290 4.5q-37 14.5 -65 41.5v-46h-149v710h163v-245q54 45 130 45q71 0 128 -34t89 -93t32 -133t-32 -133.5t-89 -93t-128 -33.5q-42 0 -79 14.5zM420.5 172q31.5 32 31.5 78t-31.5 78t-77.5 32t-77 -31.5t-31 -78.5t31 -78.5t77 -31.5t77.5 32z" glyph-name="b" horiz-adv-x="652" unicode="b"/>
<glyph d="M167 23.5q-62 33.5 -97.5 93t-35.5 133.5t35.5 133.5t98 93t139.5 33.5q69 0 125.5 -28.5t91 -77.5t39.5 -109h-161q-9 30 -35 49t-60 19q-48 0 -79 -32.5t-31 -80.5t31 -80.5t79 -32.5q34 0 60 19.5t35 49.5h161q-5 -60 -40 -109.5t-91.5 -78t-124.5 -28.5 q-78 0 -140 33.5z" glyph-name="c" horiz-adv-x="596" unicode="c"/>
<glyph d="M155.5 23.5q-56.5 33.5 -89 93t-32.5 133.5t32.5 133t89 93t127.5 34q76 0 130 -45v245h163v-710h-149v46q-28 -27 -65 -41.5t-79 -14.5q-71 0 -127.5 33.5zM386 171.5q31 31.5 31 78.5t-31 78.5t-77 31.5t-77 -31.5t-31 -78.5t31 -78.5t77 -31.5t77 31.5z" glyph-name="d" horiz-adv-x="653" unicode="d"/>
<glyph d="M165.5 22q-62.5 32 -97 89.5t-34.5 133.5q0 77 36.5 137.5t99.5 94t139 33.5q75 0 136 -33t96 -92t35 -134q0 -25 -4 -45h-380q9 -38 40.5 -62t78.5 -24q29 0 52 8.5t36 24.5h162q-8 -41 -40.5 -78.5t-87 -61t-124.5 -23.5q-81 0 -143.5 32zM376.5 359.5 q-29.5 20.5 -71.5 20.5q-39 0 -69.5 -21t-41.5 -57h223q-11 37 -40.5 57.5z" glyph-name="e" horiz-adv-x="606" unicode="e"/>
<glyph d="M33 354v146h89v46q0 57 26.5 101t75.5 68.5t115 24.5q96 0 157 -50t61 -141h-153v10q0 22 -19 35t-46 13q-28 0 -47 -15.5t-19 -45.5q0 -10 2 -24t3 -22h206v-146h-199v-354h-163v354h-89z" glyph-name="f" horiz-adv-x="493" unicode="f"/>
<glyph d="M126.5 -169.5q-76.5 40.5 -76.5 114.5q0 35 19 61.5t53 42.5q-57 15 -88 49.5t-31 80.5q0 30 21.5 58.5t63.5 36.5l7 1q-18 27 -18 64q0 67 50.5 109.5t144.5 55.5v126h170v-125q96 -14 148.5 -56.5t52.5 -109.5q0 -77 -76 -120.5t-208 -43.5q-52 0 -82 5.5t-57 14.5 q-4 1 -16.5 4.5t-23.5 3.5q-12 0 -19 -7t-7 -17q0 -19 20.5 -29.5t64 -14.5t120.5 -5q138 -1 212.5 -44.5t74.5 -124.5q0 -79 -80.5 -125t-220.5 -46q-142 0 -218.5 40.5zM444.5 297q30.5 15 30.5 43t-30.5 43.5t-85.5 15.5t-85 -15.5t-30 -43.5t30 -43t85 -15t85.5 15z M443.5 -72q33.5 14 33.5 40q0 27 -34 42t-95 15q-62 0 -95.5 -14.5t-33.5 -42.5q0 -26 33.5 -40t95.5 -14t95.5 14z" glyph-name="g" horiz-adv-x="660" unicode="g"/>
<glyph d="M239 710v-246q55 46 136 46q64 0 114 -28t77.5 -78.5t27.5 -115.5v-288h-165v261q-1 44 -26 71t-65 27q-43 0 -71 -28t-28 -70v-261h-163v710h163z" glyph-name="h" horiz-adv-x="660" unicode="h"/>
<glyph d="M76 500h163v-500h-163v500zM51 745h214l-102 -194h-10z" glyph-name="i" horiz-adv-x="316" unicode="i"/>
<glyph d="M-86.5 -189q-47.5 21 -74.5 58t-27 82h155v-1q0 -17 15.5 -27t39.5 -10q30 0 48 17.5t18 55.5q0 14 -5 37q-7 42 -7 70v407h163v-479q0 -117 -56 -174t-162 -57q-60 0 -107.5 21zM51 745h214l-102 -194h-10z" glyph-name="j" horiz-adv-x="302" unicode="j"/>
<glyph d="M76 710h163v-385h55l123 175h175l-169 -238l182 -262h-192l-121 175h-53v-175h-163v710z" glyph-name="k" horiz-adv-x="615" unicode="k"/>
<glyph d="M76 710h163v-710h-163v710z" glyph-name="l" horiz-adv-x="316" unicode="l"/>
<glyph d="M225 500v-48q27 28 63.5 43t78.5 15q51 0 92.5 -18.5t69.5 -52.5q31 34 73.5 52.5t91.5 18.5q102 0 163 -59.5t61 -159.5v-291h-164v264q-1 43 -25 69.5t-62 26.5t-63.5 -28.5t-25.5 -70.5v-261h-164v264q0 43 -24 69.5t-62 26.5t-63.5 -28.5t-25.5 -70.5v-261h-163v500 h149z" glyph-name="m" horiz-adv-x="984" unicode="m"/>
<glyph d="M225 500v-48q29 28 67 43t83 15q64 0 114 -28t77.5 -78.5t27.5 -115.5v-288h-165v261q-1 44 -26 71t-65 27q-43 0 -71 -28t-28 -70v-261h-163v500h149z" glyph-name="n" horiz-adv-x="660" unicode="n"/>
<glyph d="M169.5 23.5q-63.5 33.5 -99.5 93t-36 133.5t36 133t99.5 93t141.5 34t141.5 -33.5t99.5 -93t36 -133.5t-36 -133t-99.5 -93t-141.5 -34t-141.5 33.5zM389.5 171.5q31.5 31.5 31.5 78.5t-31.5 78.5t-78.5 31.5t-78.5 -31t-31.5 -79q0 -47 31.5 -78.5t78.5 -31.5t78.5 31.5 z" glyph-name="o" horiz-adv-x="622" unicode="o"/>
<glyph d="M225 500v-46q28 27 65 41.5t79 14.5q71 0 128 -33.5t89 -93t32 -133.5t-32 -133t-89 -93t-128 -34q-76 0 -130 45v-235h-163v700h149zM420.5 172q31.5 32 31.5 78t-31.5 78t-77.5 32t-77 -31.5t-31 -78.5t31 -78.5t77 -31.5t77.5 32z" glyph-name="p" horiz-adv-x="652" unicode="p"/>
<glyph d="M413 35q-54 -45 -130 -45q-71 0 -127.5 34t-89 93t-32.5 133t32.5 133.5t89 93t127.5 33.5q42 0 79 -14.5t65 -41.5v46h149v-700h-163v235zM386 171.5q31 31.5 31 78.5t-31 78.5t-77 31.5t-77 -31.5t-31 -78.5t31 -78.5t77 -31.5t77 31.5z" glyph-name="q" horiz-adv-x="653" unicode="q"/>
<glyph d="M225 500v-48q27 27 63.5 42.5t78.5 15.5q83 0 135.5 -51.5t52.5 -140.5v-37h-163v16q0 30 -19.5 45t-50.5 15q-36 0 -59.5 -25t-23.5 -63v-269h-163v500h149z" glyph-name="r" horiz-adv-x="545" unicode="r"/>
<glyph d="M106 33.5q-76 47.5 -85 140.5h166q5 -29 34 -47t73 -18q31 0 55 9t24 30q0 15 -16 21.5t-70 17.5l-31 6q-70 15 -114 31t-72.5 47.5t-29.5 84.5q0 81 71.5 119.5t170.5 38.5q102 0 174.5 -44.5t82.5 -138.5h-165q-9 28 -37.5 42.5t-67.5 14.5q-26 0 -46.5 -8t-20.5 -27 q0 -17 20.5 -25t73.5 -18l29 -6q69 -14 114 -30.5t73 -46t28 -76.5q0 -78 -69.5 -121.5t-177.5 -43.5q-111 0 -187 47.5z" glyph-name="s" horiz-adv-x="570" unicode="s"/>
<glyph d="M122 158v196h-109v146h53q35 0 54 19t19 54v47h146v-120h166v-146h-166v-158q0 -31 15.5 -43.5t52.5 -12.5t98 8v-146q-73 -11 -131 -11q-198 0 -198 167z" glyph-name="t" horiz-adv-x="491" unicode="t"/>
<glyph d="M171 18q-50 28 -77.5 78.5t-27.5 115.5v288h165l1 -261q0 -44 24.5 -71t65.5 -27q43 0 71 28t28 70v261h163v-500h-149v48q-29 -28 -67 -43t-83 -15q-64 0 -114 28z" glyph-name="u" horiz-adv-x="660" unicode="u"/>
<glyph d="M6 500h175l122 -358h10l122 358h171l-189 -500h-222z" glyph-name="v" horiz-adv-x="612" unicode="v"/>
<glyph d="M21 500h161l75 -330l77 330h168l75 -325l74 325h160l-116 -500h-203l-76 326l-77 -326h-202z" glyph-name="w" horiz-adv-x="832" unicode="w"/>
<glyph d="M192 254l-182 246h190l102 -138l104 138h185l-184 -242l192 -258h-190l-112 154l-113 -154h-182z" glyph-name="x" horiz-adv-x="600" unicode="x"/>
<glyph d="M119.5 -188q-46.5 22 -75.5 69t-29 118v25h152v-39q0 -28 15.5 -43.5t37.5 -15.5q21 0 34 13t13 34v3q0 27 -11 45l-249 479h182l136 -284q1 -2 2 -5t2 -5q0 3 1 5t1 4l108 285h169l-177 -427q-6 -16 -8.5 -27.5t-2.5 -31.5v-37q0 -58 -27 -100.5t-73 -64.5t-101 -22 q-53 0 -99.5 22z" glyph-name="y" horiz-adv-x="613" unicode="y"/>
<glyph d="M44 125l249 229h-238v146h451v-125l-247 -229h247v-146h-462v125z" glyph-name="z" horiz-adv-x="552" unicode="z"/>
<glyph d="M141 32q0 29 6.5 65t7.5 45q1 5 6.5 33t5.5 48q0 28 -12 41t-36 13h-48v146h48q24 0 36 13t12 41q0 20 -12 82q-14 72 -14 109q0 147 163 147q49 0 119 -15v-146q-45 14 -76 14q-25 0 -39.5 -12.5t-14.5 -38.5q0 -16 7 -53q10 -54 10 -88q0 -54 -20 -84t-64 -42 q44 -12 64 -42t20 -83q0 -35 -10 -89q-7 -37 -7 -53q0 -26 14.5 -38.5t39.5 -12.5q31 0 76 14v-146q-70 -15 -119 -15q-163 0 -163 147z" glyph-name="braceleft" horiz-adv-x="500" unicode="{"/>
<glyph d="M126 800h146v-900h-146v900z" glyph-name="bar" horiz-adv-x="399" unicode="|"/>
<glyph d="M359 668q0 -29 -6.5 -65t-7.5 -45q-1 -5 -6.5 -33t-5.5 -48q0 -28 12 -41t36 -13h48v-146h-48q-24 0 -36 -13t-12 -41q0 -20 12 -82q14 -72 14 -109q0 -147 -163 -147q-49 0 -119 15v146q45 -14 76 -14q25 0 39.5 12.5t14.5 38.5q0 16 -7 53q-10 54 -10 88q0 54 20 84 t64 42q-44 12 -64 42t-20 83q0 35 10 89q7 37 7 53q0 26 -14.5 38.5t-39.5 12.5q-31 0 -76 -14v146q70 15 119 15q163 0 163 -147z" glyph-name="braceright" horiz-adv-x="500" unicode="}"/>
<glyph d="M93.5 405q33.5 46 92.5 46q30 0 50.5 -8t43.5 -23q14 -9 24 -13t21 -4q14 0 22.5 9.5t8.5 26.5h146q0 -91 -34 -137t-92 -46q-30 0 -51 8t-43 22q-16 9 -25.5 13t-19.5 4q-14 0 -22.5 -9.5t-8.5 -26.5h-146q0 92 33.5 138z" glyph-name="asciitilde" unicode="~"/>
<glyph glyph-name="uni00A0" horiz-adv-x="250" unicode=" "/>
<glyph d="M258 480q31 -31 31 -78q0 -46 -31 -77.5t-78 -31.5q-46 0 -77.5 31.5t-31.5 77.5q0 47 31.5 78t77.5 31q47 0 78 -31zM287 -200h-205l34 436h137z" glyph-name="exclamdown" horiz-adv-x="361" unicode="¡"/>
<glyph d="M409 258.5q26 19.5 35 49.5h161q-7 -77 -61.5 -135t-136.5 -75v-128h-120v128q-95 19 -153 88.5t-58 165.5t58 165t153 89v124h120v-124q83 -17 137 -74.5t61 -134.5h-161q-9 30 -35 49t-60 19q-48 0 -79 -32.5t-31 -80.5t31 -80.5t79 -32.5q34 0 60 19.5z" glyph-name="cent" horiz-adv-x="700" unicode="¢"/>
<glyph d="M46 20q-41 35 -41 97q0 56 36.5 94t102.5 38q33 0 63 -10q-7 19 -16 36t-13 25h-126v100h75q-18 49 -18 98q0 65 32.5 114t90 76t132.5 27q81 0 141.5 -31t95 -86t38.5 -127h-175q-6 48 -34 73t-66 25t-63 -24.5t-25 -67.5q0 -33 17 -77h214v-100h-178q19 -54 19 -99 q0 -9 -2 -23q40 -21 67.5 -32t52.5 -11q29 0 43.5 18t14.5 56q0 13 -2 37h154q5 -29 5 -61q0 -108 -58 -154t-134 -46q-52 0 -100 18.5t-96 49.5q-29 -33 -67.5 -50.5t-79.5 -17.5q-59 0 -100 35zM179 92q16 8 27 24q-43 31 -62 31q-14 0 -22.5 -8.5t-8.5 -22.5t9.5 -23 t25.5 -9q15 0 31 8z" glyph-name="sterling" horiz-adv-x="700" unicode="£"/>
<glyph d="M109 224q-30 58 -30 126t30 126l-94 94l115 115l94 -94q60 31 126 31t126 -31l94 94l115 -115l-94 -94q31 -60 31 -126t-31 -126l94 -94l-115 -115l-94 94q-58 -30 -126 -30t-126 30l-94 -94l-115 115zM427.5 273q31.5 31 31.5 77t-31.5 77.5t-77.5 31.5t-77 -31.5 t-31 -77.5t31 -77t77 -31t77.5 31z" glyph-name="currency" horiz-adv-x="700" unicode="¤"/>
<glyph d="M256 150h-224v100h216v9l-23 41h-193v100h138l-165 300h219l128 -255l127 255h216l-165 -300h141v-100h-196l-23 -41v-9h219v-100h-227v-150h-188v150z" glyph-name="yen" horiz-adv-x="700" unicode="¥"/>
<glyph d="M126 800h146v-380h-146v380zM126 280h146v-380h-146v380z" glyph-name="brokenbar" horiz-adv-x="399" unicode="¦"/>
<glyph d="M163 -46.5q-78 53.5 -87 157.5h171q4 -32 33 -53t72 -21q34 0 59.5 9.5t25.5 31.5q0 23 -22 33.5t-86 21.5q-92 17 -146.5 34t-89.5 50.5t-36 91.5q0 41 25.5 72t68.5 49q-54 38 -57 113q0 61 36 100.5t92.5 57.5t119.5 18q107 0 182 -49.5t85 -156.5h-170q-8 33 -36 50 t-64 17q-32 0 -55 -9.5t-23 -33.5q0 -22 25.5 -32t90.5 -22q90 -15 146 -32.5t90 -50t34 -86.5q0 -41 -25 -73t-68 -53q27 -20 41.5 -46.5t14.5 -63.5q0 -55 -34 -95t-92.5 -61.5t-131.5 -21.5q-111 0 -189 53.5zM450.5 265.5q24.5 13.5 24.5 36.5q0 22 -22 34t-53 17 t-99 14q-30 0 -53.5 -13t-23.5 -37q0 -30 43.5 -43.5t129.5 -22.5q29 1 53.5 14.5z" glyph-name="section" horiz-adv-x="700" unicode="§"/>
<glyph d="M225 33q-84 48 -132 132t-48 185t48 185t132 132t185 48t185 -48t132 -132t48 -185t-48 -185t-132 -132t-185 -48t-185 48zM557.5 98q66.5 38 105 104.5t38.5 147.5t-38.5 147.5t-105 105t-147.5 38.5t-147.5 -38.5t-104.5 -105t-38 -147.5t38 -147.5t104.5 -104.5 t147.5 -38t147.5 38zM303 169q-50 27 -78 74.5t-28 106.5t28 106.5t78 74.5t113 27q55 0 100 -23t72.5 -62t32.5 -87h-130q-8 24 -28 39t-47 15q-39 0 -63.5 -25.5t-24.5 -64.5t24.5 -64.5t63.5 -25.5q27 0 47 15.5t28 38.5h130q-5 -48 -32.5 -87t-72.5 -62t-100 -23 q-63 0 -113 27z" glyph-name="copyright" horiz-adv-x="820" unicode="©"/>
<glyph d="M225 300l109 -200h-178l-106 194v12l106 194h178zM502 300l109 -200h-178l-106 194v12l106 194h178z" glyph-name="guillemotleft" horiz-adv-x="650" unicode="«"/>
<glyph d="M497 423v-290h-146v144h-288v146h434z" glyph-name="logicalnot" unicode="¬"/>
<glyph d="M130.5 378.5q-41.5 23.5 -65 65t-23.5 91.5t23.5 91.5t65 65t91.5 23.5t91.5 -23.5t65 -65t23.5 -91.5t-23.5 -91.5t-65 -65t-91.5 -23.5t-91.5 23.5zM303.5 396q36.5 21 57.5 57.5t21 81.5t-21 81.5t-57.5 57.5t-81.5 21t-82 -21t-58 -57.5t-21 -81.5t21 -81.5t58 -57.5 t82 -21t81.5 21zM229 642q38 0 60 -18t22 -49q0 -42 -35 -59l52 -78h-66l-45 68h-26v-68h-56v204h94zM248 556.5q7 5.5 7 15.5q0 8 -7 14t-18 6h-39v-41h39q11 0 18 5.5z" glyph-name="registered" horiz-adv-x="440" unicode="®"/>
<glyph d="M107 428.5q-35 20.5 -55.5 55.5t-20.5 77q0 43 20.5 78t55.5 55.5t78 20.5q42 0 77 -20.5t55.5 -55.5t20.5 -78q0 -42 -20.5 -77t-55.5 -55.5t-77 -20.5q-43 0 -78 20.5zM221.5 524.5q14.5 14.5 14.5 36.5t-14.5 37t-36.5 15t-37 -15t-15 -37t15 -36.5t37 -14.5 t36.5 14.5z" glyph-name="degree" horiz-adv-x="369" unicode="°"/>
<glyph d="M353 515h144v-146h-144v-144h-146v144h-144v146h144v144h146v-144zM63 18v146h434v-146h-434z" glyph-name="plusminus" unicode="±"/>
<glyph d="M281 300q-62 0 -112.5 26.5t-79.5 72t-29 101.5t29 101.5t79.5 72t112.5 26.5h189v-900h-180v500h-9z" glyph-name="paragraph" horiz-adv-x="596" unicode="¶"/>
<glyph d="M82.5 224.5q-31.5 31.5 -31.5 77.5t31.5 77.5t77.5 31.5q47 0 78 -31t31 -78q0 -46 -31 -77.5t-78 -31.5q-46 0 -77.5 31.5z" glyph-name="periodcentered" horiz-adv-x="321" unicode="·"/>
<glyph d="M427 300l-109 200h178l106 -194v-12l-106 -194h-178zM149 300l-109 200h178l106 -194v-12l-106 -194h-178z" glyph-name="guillemotright" horiz-adv-x="641" unicode="»"/>
<glyph d="M406 480q31 -31 31 -78q0 -46 -31 -77.5t-78 -31.5q-46 0 -77.5 31.5t-31.5 77.5q0 47 31.5 78t77.5 31q47 0 78 -31zM412 202q0 -52 -30 -84t-93 -55q-68 -26 -68 -67q0 -25 26 -40.5t67 -15.5q50 0 80 22.5t40 63.5h183q-14 -112 -96 -176.5t-212 -64.5 q-83 0 -145.5 24.5t-97 70t-34.5 107.5q0 58 36.5 99t110.5 72q48 21 62.5 35t14.5 43h153q3 -12 3 -34z" glyph-name="questiondown" horiz-adv-x="635" unicode="¿"/>
<glyph d="M275 700h245l257 -700h-200l-44 130h-276l-43 -130h-196zM485 280l-86 258h-8l-86 -258h180zM311 785l-67 160h158l66 -160h-157z" glyph-name="Agrave" horiz-adv-x="795" unicode="À"/>
<glyph d="M275 700h245l257 -700h-200l-44 130h-276l-43 -130h-196zM485 280l-86 258h-8l-86 -258h180zM394 945h159l-67 -160h-158z" glyph-name="Aacute" horiz-adv-x="795" unicode="Á"/>
<glyph d="M275 700h245l257 -700h-200l-44 130h-276l-43 -130h-196zM485 280l-86 258h-8l-86 -258h180zM446 785l-48 69l-48 -69h-160l114 160h188l114 -160h-160z" glyph-name="Acircumflex" horiz-adv-x="795" unicode="Â"/>
<glyph d="M275 700h245l257 -700h-200l-44 130h-276l-43 -130h-196zM485 280l-86 258h-8l-86 -258h180zM228 907.5q31 40.5 85 40.5q24 0 44 -7t43 -20q11 -6 22 -10.5t19 -4.5q27 0 27 37h131q0 -85 -31 -125.5t-85 -40.5q-24 0 -44 7t-43 20q-28 16 -41 16q-27 0 -27 -37h-131 q0 84 31 124.5z" glyph-name="Atilde" horiz-adv-x="795" unicode="Ã"/>
<glyph d="M275 700h245l257 -700h-200l-44 130h-276l-43 -130h-196zM485 280l-86 258h-8l-86 -258h180zM581 945l-91 -194h-9l-83 175l-83 -175h-9l-91 194h366z" glyph-name="Adieresis" horiz-adv-x="795" unicode="Ä"/>
<glyph d="M275 700h245l257 -700h-200l-44 130h-276l-43 -130h-196zM485 280l-86 258h-8l-86 -258h180zM327 766q-32 19 -51 51.5t-19 70.5t19 71t51 52t71 19q38 0 70.5 -19t51.5 -52t19 -71t-19 -70.5t-51.5 -51.5t-70.5 -19q-39 0 -71 19zM423.5 863.5q10.5 10.5 10.5 25.5 q0 14 -10.5 24.5t-25.5 10.5t-25.5 -10.5t-10.5 -24.5q0 -16 10.5 -26t25.5 -10t25.5 10.5z" glyph-name="Aring" horiz-adv-x="795" unicode="Å"/>
<glyph d="M715 163h315v-163h-453l-45 130h-275l-44 -130h-195l257 700h731v-163h-412l36 -112h280v-150h-231zM303 280h183l-87 258h-9z" glyph-name="AE" horiz-adv-x="1083" unicode="Æ"/>
<glyph d="M220.5 32q-82.5 47 -129 130.5t-46.5 187.5t46.5 187.5t129 130.5t186.5 47q92 0 168.5 -39.5t123 -109.5t52.5 -156h-190q-14 56 -56 89.5t-100 33.5q-48 0 -86.5 -23.5t-60 -65t-21.5 -94.5t21.5 -94.5t60 -65t86.5 -23.5q59 0 101 33.5t55 89.5h190q-6 -86 -53 -156 t-123 -109.5t-168 -39.5q-104 0 -186.5 47zM420 -245h-159l67 160h158z" glyph-name="Ccedilla" horiz-adv-x="785" unicode="Ç"/>
<glyph d="M90 700h505v-163h-321v-111h214v-152h-214v-111h346v-163h-530v700zM252 785l-67 160h158l66 -160h-157z" glyph-name="Egrave" horiz-adv-x="673" unicode="È"/>
<glyph d="M90 700h505v-163h-321v-111h214v-152h-214v-111h346v-163h-530v700zM335 945h159l-67 -160h-158z" glyph-name="Eacute" horiz-adv-x="673" unicode="É"/>
<glyph d="M90 700h505v-163h-321v-111h214v-152h-214v-111h346v-163h-530v700zM387 785l-48 69l-48 -69h-160l114 160h188l114 -160h-160z" glyph-name="Ecircumflex" horiz-adv-x="673" unicode="Ê"/>
<glyph d="M90 700h505v-163h-321v-111h214v-152h-214v-111h346v-163h-530v700zM522 945l-91 -194h-9l-83 175l-83 -175h-9l-91 194h366z" glyph-name="Edieresis" horiz-adv-x="673" unicode="Ë"/>
<glyph d="M90 700h188v-700h-188v700zM97 785l-67 160h158l66 -160h-157z" glyph-name="Igrave" horiz-adv-x="367" unicode="Ì"/>
<glyph d="M90 700h188v-700h-188v700zM180 945h159l-67 -160h-158z" glyph-name="Iacute" horiz-adv-x="367" unicode="Í"/>
<glyph d="M90 700h188v-700h-188v700zM232 785l-48 69l-48 -69h-160l114 160h188l114 -160h-160z" glyph-name="Icircumflex" horiz-adv-x="367" unicode="Î"/>
<glyph d="M90 700h188v-700h-188v700zM367 945l-91 -194h-9l-83 175l-83 -175h-9l-91 194h366z" glyph-name="Idieresis" horiz-adv-x="367" unicode="Ï"/>
<glyph d="M538 656.5q89 -43.5 138 -122.5t49 -184t-49 -184t-138 -122.5t-207 -43.5h-241v295h-57v110h57v295h241q118 0 207 -43.5zM478.5 216q51.5 48 51.5 134t-51.5 134t-146.5 48h-54v-127h112v-110h-112v-127h54q95 0 146.5 48z" glyph-name="Eth" horiz-adv-x="770" unicode="Ð"/>
<glyph d="M90 700h197l288 -430v430h175v-700h-196l-288 431v-431h-176v700zM250 907.5q31 40.5 85 40.5q24 0 44 -7t43 -20q11 -6 22 -10.5t19 -4.5q27 0 27 37h131q0 -85 -31 -125.5t-85 -40.5q-24 0 -44 7t-43 20q-28 16 -41 16q-27 0 -27 -37h-131q0 84 31 124.5z" glyph-name="Ntilde" horiz-adv-x="840" unicode="Ñ"/>
<glyph d="M225 32.5q-84 47.5 -132 131t-48 186.5t48 186.5t132 131t188 47.5t188.5 -47.5t132.5 -131t48 -186.5t-48 -186.5t-132.5 -131t-188.5 -47.5t-188 47.5zM503.5 191q40.5 24 63.5 65.5t23 93.5t-23 93.5t-63.5 65.5t-90.5 24t-90 -24t-63 -65.5t-23 -93.5t23 -93.5 t63 -65.5t90 -24t90.5 24zM326 785l-67 160h158l66 -160h-157z" glyph-name="Ograve" horiz-adv-x="826" unicode="Ò"/>
<glyph d="M225 32.5q-84 47.5 -132 131t-48 186.5t48 186.5t132 131t188 47.5t188.5 -47.5t132.5 -131t48 -186.5t-48 -186.5t-132.5 -131t-188.5 -47.5t-188 47.5zM503.5 191q40.5 24 63.5 65.5t23 93.5t-23 93.5t-63.5 65.5t-90.5 24t-90 -24t-63 -65.5t-23 -93.5t23 -93.5 t63 -65.5t90 -24t90.5 24zM409 945h159l-67 -160h-158z" glyph-name="Oacute" horiz-adv-x="826" unicode="Ó"/>
<glyph d="M225 32.5q-84 47.5 -132 131t-48 186.5t48 186.5t132 131t188 47.5t188.5 -47.5t132.5 -131t48 -186.5t-48 -186.5t-132.5 -131t-188.5 -47.5t-188 47.5zM503.5 191q40.5 24 63.5 65.5t23 93.5t-23 93.5t-63.5 65.5t-90.5 24t-90 -24t-63 -65.5t-23 -93.5t23 -93.5 t63 -65.5t90 -24t90.5 24zM461 785l-48 69l-48 -69h-160l114 160h188l114 -160h-160z" glyph-name="Ocircumflex" horiz-adv-x="826" unicode="Ô"/>
<glyph d="M225 32.5q-84 47.5 -132 131t-48 186.5t48 186.5t132 131t188 47.5t188.5 -47.5t132.5 -131t48 -186.5t-48 -186.5t-132.5 -131t-188.5 -47.5t-188 47.5zM503.5 191q40.5 24 63.5 65.5t23 93.5t-23 93.5t-63.5 65.5t-90.5 24t-90 -24t-63 -65.5t-23 -93.5t23 -93.5 t63 -65.5t90 -24t90.5 24zM243 907.5q31 40.5 85 40.5q24 0 44 -7t43 -20q11 -6 22 -10.5t19 -4.5q27 0 27 37h131q0 -85 -31 -125.5t-85 -40.5q-24 0 -44 7t-43 20q-28 16 -41 16q-27 0 -27 -37h-131q0 84 31 124.5z" glyph-name="Otilde" horiz-adv-x="826" unicode="Õ"/>
<glyph d="M225 32.5q-84 47.5 -132 131t-48 186.5t48 186.5t132 131t188 47.5t188.5 -47.5t132.5 -131t48 -186.5t-48 -186.5t-132.5 -131t-188.5 -47.5t-188 47.5zM503.5 191q40.5 24 63.5 65.5t23 93.5t-23 93.5t-63.5 65.5t-90.5 24t-90 -24t-63 -65.5t-23 -93.5t23 -93.5 t63 -65.5t90 -24t90.5 24zM596 945l-91 -194h-9l-83 175l-83 -175h-9l-91 194h366z" glyph-name="Odieresis" horiz-adv-x="826" unicode="Ö"/>
<glyph d="M49 222l128 128l-128 128l103 103l128 -128l128 128l103 -103l-128 -128l128 -128l-103 -103l-128 128l-128 -128z" glyph-name="multiply" unicode="×"/>
<glyph d="M246 22l-18 -22h-189l89 113q-40 47 -61.5 107.5t-21.5 129.5q0 103 48 186.5t132 131t188 47.5q91 0 167 -37l19 22h188l-89 -113q40 -48 62 -108.5t22 -128.5q0 -103 -48 -186.5t-132.5 -131t-188.5 -47.5q-91 0 -167 37zM413 541q-53 0 -96 -25t-67.5 -68.5 t-24.5 -97.5q0 -49 22 -88l217 268q-25 11 -51 11zM509 184q43 25 67.5 68.5t24.5 97.5q0 51 -21 88l-218 -268q21 -11 51 -11q53 0 96 25z" glyph-name="Oslash" horiz-adv-x="826" unicode="Ø"/>
<glyph d="M234.5 25q-74.5 40 -115.5 113.5t-41 170.5v391h188v-382q0 -74 37 -113.5t105 -39.5q69 0 106 39.5t37 113.5v382h188v-391q0 -97 -41 -170.5t-115.5 -113.5t-174.5 -40q-99 0 -173.5 40zM321 785l-67 160h158l66 -160h-157z" glyph-name="Ugrave" horiz-adv-x="817" unicode="Ù"/>
<glyph d="M234.5 25q-74.5 40 -115.5 113.5t-41 170.5v391h188v-382q0 -74 37 -113.5t105 -39.5q69 0 106 39.5t37 113.5v382h188v-391q0 -97 -41 -170.5t-115.5 -113.5t-174.5 -40q-99 0 -173.5 40zM404 945h159l-67 -160h-158z" glyph-name="Uacute" horiz-adv-x="817" unicode="Ú"/>
<glyph d="M234.5 25q-74.5 40 -115.5 113.5t-41 170.5v391h188v-382q0 -74 37 -113.5t105 -39.5q69 0 106 39.5t37 113.5v382h188v-391q0 -97 -41 -170.5t-115.5 -113.5t-174.5 -40q-99 0 -173.5 40zM456 785l-48 69l-48 -69h-160l114 160h188l114 -160h-160z" glyph-name="Ucircumflex" horiz-adv-x="817" unicode="Û"/>
<glyph d="M234.5 25q-74.5 40 -115.5 113.5t-41 170.5v391h188v-382q0 -74 37 -113.5t105 -39.5q69 0 106 39.5t37 113.5v382h188v-391q0 -97 -41 -170.5t-115.5 -113.5t-174.5 -40q-99 0 -173.5 40zM591 945l-91 -194h-9l-83 175l-83 -175h-9l-91 194h366z" glyph-name="Udieresis" horiz-adv-x="817" unicode="Ü"/>
<glyph d="M292 239l-287 461h220l168 -283l163 283h211l-287 -461v-239h-188v239zM382 945h159l-67 -160h-158z" glyph-name="Yacute" horiz-adv-x="772" unicode="Ý"/>
<glyph d="M274 700v-107h112q131 0 206 -63.5t75 -174.5t-75 -174.5t-206 -63.5h-112v-117h-184v700h184zM453.5 293.5q25.5 21.5 25.5 57.5q0 35 -25.5 57t-66.5 22h-113v-158h113q41 0 66.5 21.5z" glyph-name="Thorn" horiz-adv-x="693" unicode="Þ"/>
<glyph d="M33 354v146h89v33q0 57 32.5 104.5t94 75t144.5 27.5q79 0 141 -25.5t97 -73t35 -110.5v-143q-65 5 -89 5q-32 0 -59 -8t-27 -28q0 -16 17 -23t62 -17q8 -1 26 -5q95 -22 144.5 -57.5t49.5 -101.5q0 -78 -64 -122.5t-160 -44.5q-94 0 -152.5 44.5t-67.5 135.5h140 q5 -27 27 -42.5t56 -15.5q26 0 46.5 9.5t20.5 30.5q0 12 -8.5 19t-26.5 12t-61 15q-60 14 -100 30.5t-66.5 48t-26.5 82.5q0 70 49 107.5t114 47.5v18q0 31 -34 48.5t-83 17.5q-51 0 -85.5 -21t-34.5 -63q0 -6 4 -30q8 -53 8 -102v-578h-163v554h-89z" glyph-name="germandbls" horiz-adv-x="801" unicode="ß"/>
<glyph d="M74 28q-46 38 -46 103q0 148 248 163q47 3 67.5 12.5t20.5 26.5q0 21 -20.5 34t-54.5 13t-56 -14.5t-29 -41.5h-152q11 85 78 135.5t167 50.5q102 0 162.5 -55.5t60.5 -149.5v-163h53v-142h-189v53q-33 -30 -81.5 -46.5t-102.5 -16.5q-80 0 -126 38zM305.5 128.5 q29.5 15.5 47.5 40.5t18 52v6q-9 -6 -33.5 -13t-50.5 -9q-51 -4 -72.5 -18t-21.5 -37q0 -18 13 -27.5t37 -9.5q33 0 62.5 15.5zM209 585l-67 160h158l66 -160h-157z" glyph-name="agrave" horiz-adv-x="604" unicode="à"/>
<glyph d="M74 28q-46 38 -46 103q0 148 248 163q47 3 67.5 12.5t20.5 26.5q0 21 -20.5 34t-54.5 13t-56 -14.5t-29 -41.5h-152q11 85 78 135.5t167 50.5q102 0 162.5 -55.5t60.5 -149.5v-163h53v-142h-189v53q-33 -30 -81.5 -46.5t-102.5 -16.5q-80 0 -126 38zM305.5 128.5 q29.5 15.5 47.5 40.5t18 52v6q-9 -6 -33.5 -13t-50.5 -9q-51 -4 -72.5 -18t-21.5 -37q0 -18 13 -27.5t37 -9.5q33 0 62.5 15.5zM292 745h159l-67 -160h-158z" glyph-name="aacute" horiz-adv-x="604" unicode="á"/>
<glyph d="M74 28q-46 38 -46 103q0 148 248 163q47 3 67.5 12.5t20.5 26.5q0 21 -20.5 34t-54.5 13t-56 -14.5t-29 -41.5h-152q11 85 78 135.5t167 50.5q102 0 162.5 -55.5t60.5 -149.5v-163h53v-142h-189v53q-33 -30 -81.5 -46.5t-102.5 -16.5q-80 0 -126 38zM305.5 128.5 q29.5 15.5 47.5 40.5t18 52v6q-9 -6 -33.5 -13t-50.5 -9q-51 -4 -72.5 -18t-21.5 -37q0 -18 13 -27.5t37 -9.5q33 0 62.5 15.5zM344 585l-48 69l-48 -69h-160l114 160h188l114 -160h-160z" glyph-name="acircumflex" horiz-adv-x="604" unicode="â"/>
<glyph d="M74 28q-46 38 -46 103q0 148 248 163q47 3 67.5 12.5t20.5 26.5q0 21 -20.5 34t-54.5 13t-56 -14.5t-29 -41.5h-152q11 85 78 135.5t167 50.5q102 0 162.5 -55.5t60.5 -149.5v-163h53v-142h-189v53q-33 -30 -81.5 -46.5t-102.5 -16.5q-80 0 -126 38zM305.5 128.5 q29.5 15.5 47.5 40.5t18 52v6q-9 -6 -33.5 -13t-50.5 -9q-51 -4 -72.5 -18t-21.5 -37q0 -18 13 -27.5t37 -9.5q33 0 62.5 15.5zM126 707.5q31 40.5 85 40.5q24 0 44 -7t43 -20q11 -6 22 -10.5t19 -4.5q27 0 27 37h131q0 -85 -31 -125.5t-85 -40.5q-24 0 -44 7t-43 20 q-28 16 -41 16q-27 0 -27 -37h-131q0 84 31 124.5z" glyph-name="atilde" horiz-adv-x="604" unicode="ã"/>
<glyph d="M74 28q-46 38 -46 103q0 148 248 163q47 3 67.5 12.5t20.5 26.5q0 21 -20.5 34t-54.5 13t-56 -14.5t-29 -41.5h-152q11 85 78 135.5t167 50.5q102 0 162.5 -55.5t60.5 -149.5v-163h53v-142h-189v53q-33 -30 -81.5 -46.5t-102.5 -16.5q-80 0 -126 38zM305.5 128.5 q29.5 15.5 47.5 40.5t18 52v6q-9 -6 -33.5 -13t-50.5 -9q-51 -4 -72.5 -18t-21.5 -37q0 -18 13 -27.5t37 -9.5q33 0 62.5 15.5zM479 745l-91 -194h-9l-83 175l-83 -175h-9l-91 194h366z" glyph-name="adieresis" horiz-adv-x="604" unicode="ä"/>
<glyph d="M74 28q-46 38 -46 103q0 148 248 163q47 3 67.5 12.5t20.5 26.5q0 21 -20.5 34t-54.5 13t-56 -14.5t-29 -41.5h-152q11 85 78 135.5t167 50.5q102 0 162.5 -55.5t60.5 -149.5v-163h53v-142h-189v53q-33 -30 -81.5 -46.5t-102.5 -16.5q-80 0 -126 38zM305.5 128.5 q29.5 15.5 47.5 40.5t18 52v6q-9 -6 -33.5 -13t-50.5 -9q-51 -4 -72.5 -18t-21.5 -37q0 -18 13 -27.5t37 -9.5q33 0 62.5 15.5zM225 566q-32 19 -51 51.5t-19 70.5t19 71t51 52t71 19q38 0 70.5 -19t51.5 -52t19 -71t-19 -70.5t-51.5 -51.5t-70.5 -19q-39 0 -71 19z M321.5 663.5q10.5 10.5 10.5 25.5q0 14 -10.5 24.5t-25.5 10.5t-25.5 -10.5t-10.5 -24.5q0 -16 10.5 -26t25.5 -10t25.5 10.5z" glyph-name="aring" horiz-adv-x="604" unicode="å"/>
<glyph d="M79 28q-51 38 -51 103q0 148 248 163q47 3 67.5 12.5t20.5 26.5q0 21 -20.5 34t-54.5 13t-56 -14.5t-29 -41.5h-152q11 85 75.5 135.5t161.5 50.5q52 0 94.5 -16.5t70.5 -47.5q36 31 83 47.5t100 16.5q76 0 137 -33t95.5 -92t34.5 -134q0 -22 -3 -45h-381q9 -38 40.5 -62 t78.5 -24q29 0 52 8.5t36 24.5h162q-8 -41 -40.5 -78.5t-87 -61t-124.5 -23.5q-67 0 -121.5 22t-90.5 63q-30 -37 -82.5 -61t-122.5 -24q-90 0 -141 38zM705 359.5q-30 20.5 -71 20.5q-39 0 -69.5 -21t-41.5 -57h222q-10 37 -40 57.5zM305.5 128.5q29.5 15.5 47.5 40.5 t18 52v6q-9 -6 -33.5 -13t-50.5 -9q-51 -4 -72.5 -18t-21.5 -37q0 -18 13 -27.5t37 -9.5q33 0 62.5 15.5z" glyph-name="ae" horiz-adv-x="935" unicode="æ"/>
<glyph d="M167 23.5q-62 33.5 -97.5 93t-35.5 133.5t35.5 133.5t98 93t139.5 33.5q69 0 125.5 -28.5t91 -77.5t39.5 -109h-161q-9 30 -35 49t-60 19q-48 0 -79 -32.5t-31 -80.5t31 -80.5t79 -32.5q34 0 60 19.5t35 49.5h161q-5 -60 -40 -109.5t-91.5 -78t-124.5 -28.5 q-78 0 -140 33.5zM319 -245h-159l67 160h158z" glyph-name="ccedilla" horiz-adv-x="596" unicode="ç"/>
<glyph d="M165.5 22q-62.5 32 -97 89.5t-34.5 133.5q0 77 36.5 137.5t99.5 94t139 33.5q75 0 136 -33t96 -92t35 -134q0 -25 -4 -45h-380q9 -38 40.5 -62t78.5 -24q29 0 52 8.5t36 24.5h162q-8 -41 -40.5 -78.5t-87 -61t-124.5 -23.5q-81 0 -143.5 32zM376.5 359.5 q-29.5 20.5 -71.5 20.5q-39 0 -69.5 -21t-41.5 -57h223q-11 37 -40.5 57.5zM214 585l-67 160h158l66 -160h-157z" glyph-name="egrave" horiz-adv-x="606" unicode="è"/>
<glyph d="M165.5 22q-62.5 32 -97 89.5t-34.5 133.5q0 77 36.5 137.5t99.5 94t139 33.5q75 0 136 -33t96 -92t35 -134q0 -25 -4 -45h-380q9 -38 40.5 -62t78.5 -24q29 0 52 8.5t36 24.5h162q-8 -41 -40.5 -78.5t-87 -61t-124.5 -23.5q-81 0 -143.5 32zM376.5 359.5 q-29.5 20.5 -71.5 20.5q-39 0 -69.5 -21t-41.5 -57h223q-11 37 -40.5 57.5zM297 745h159l-67 -160h-158z" glyph-name="eacute" horiz-adv-x="606" unicode="é"/>
<glyph d="M165.5 22q-62.5 32 -97 89.5t-34.5 133.5q0 77 36.5 137.5t99.5 94t139 33.5q75 0 136 -33t96 -92t35 -134q0 -25 -4 -45h-380q9 -38 40.5 -62t78.5 -24q29 0 52 8.5t36 24.5h162q-8 -41 -40.5 -78.5t-87 -61t-124.5 -23.5q-81 0 -143.5 32zM376.5 359.5 q-29.5 20.5 -71.5 20.5q-39 0 -69.5 -21t-41.5 -57h223q-11 37 -40.5 57.5zM349 585l-48 69l-48 -69h-160l114 160h188l114 -160h-160z" glyph-name="ecircumflex" horiz-adv-x="606" unicode="ê"/>
<glyph d="M165.5 22q-62.5 32 -97 89.5t-34.5 133.5q0 77 36.5 137.5t99.5 94t139 33.5q75 0 136 -33t96 -92t35 -134q0 -25 -4 -45h-380q9 -38 40.5 -62t78.5 -24q29 0 52 8.5t36 24.5h162q-8 -41 -40.5 -78.5t-87 -61t-124.5 -23.5q-81 0 -143.5 32zM376.5 359.5 q-29.5 20.5 -71.5 20.5q-39 0 -69.5 -21t-41.5 -57h223q-11 37 -40.5 57.5zM484 745l-91 -194h-9l-83 175l-83 -175h-9l-91 194h366z" glyph-name="edieresis" horiz-adv-x="606" unicode="ë"/>
<glyph d="M76 500h163v-500h-163v500zM71 585l-67 160h158l66 -160h-157z" glyph-name="igrave" horiz-adv-x="316" unicode="ì"/>
<glyph d="M76 500h163v-500h-163v500zM154 745h159l-67 -160h-158z" glyph-name="iacute" horiz-adv-x="316" unicode="í"/>
<glyph d="M76 500h163v-500h-163v500zM206 585l-48 69l-48 -69h-160l114 160h188l114 -160h-160z" glyph-name="icircumflex" horiz-adv-x="316" unicode="î"/>
<glyph d="M76 500h163v-500h-163v500zM341 745l-91 -194h-9l-83 175l-83 -175h-9l-91 194h366z" glyph-name="idieresis" horiz-adv-x="316" unicode="ï"/>
<glyph d="M168 23.5q-63 33.5 -98.5 91.5t-35.5 131q0 71 33 129.5t92 92.5t133 34q10 0 19 -3l-10 17l-14 22h-143v107h81l-39 65h180l40 -65h122v-107h-59l28 -44l13 -23q35 -56 56.5 -108t21.5 -113q0 -74 -35.5 -133t-99 -93t-144.5 -34q-78 0 -141 33.5zM389.5 172 q31.5 32 31.5 78q0 47 -31.5 78.5t-78.5 31.5q-46 0 -78 -31.5t-32 -78.5q0 -46 32 -78t78 -32q47 0 78.5 32z" glyph-name="eth" horiz-adv-x="622" unicode="ð"/>
<glyph d="M225 500v-48q29 28 67 43t83 15q64 0 114 -28t77.5 -78.5t27.5 -115.5v-288h-165v261q-1 44 -26 71t-65 27q-43 0 -71 -28t-28 -70v-261h-163v500h149zM166 707.5q31 40.5 85 40.5q24 0 44 -7t43 -20q11 -6 22 -10.5t19 -4.5q27 0 27 37h131q0 -85 -31 -125.5t-85 -40.5 q-24 0 -44 7t-43 20q-28 16 -41 16q-27 0 -27 -37h-131q0 84 31 124.5z" glyph-name="ntilde" horiz-adv-x="660" unicode="ñ"/>
<glyph d="M169.5 23.5q-63.5 33.5 -99.5 93t-36 133.5t36 133t99.5 93t141.5 34t141.5 -33.5t99.5 -93t36 -133.5t-36 -133t-99.5 -93t-141.5 -34t-141.5 33.5zM389.5 171.5q31.5 31.5 31.5 78.5t-31.5 78.5t-78.5 31.5t-78.5 -31t-31.5 -79q0 -47 31.5 -78.5t78.5 -31.5t78.5 31.5 zM224 585l-67 160h158l66 -160h-157z" glyph-name="ograve" horiz-adv-x="622" unicode="ò"/>
<glyph d="M169.5 23.5q-63.5 33.5 -99.5 93t-36 133.5t36 133t99.5 93t141.5 34t141.5 -33.5t99.5 -93t36 -133.5t-36 -133t-99.5 -93t-141.5 -34t-141.5 33.5zM389.5 171.5q31.5 31.5 31.5 78.5t-31.5 78.5t-78.5 31.5t-78.5 -31t-31.5 -79q0 -47 31.5 -78.5t78.5 -31.5t78.5 31.5 zM307 745h159l-67 -160h-158z" glyph-name="oacute" horiz-adv-x="622" unicode="ó"/>
<glyph d="M169.5 23.5q-63.5 33.5 -99.5 93t-36 133.5t36 133t99.5 93t141.5 34t141.5 -33.5t99.5 -93t36 -133.5t-36 -133t-99.5 -93t-141.5 -34t-141.5 33.5zM389.5 171.5q31.5 31.5 31.5 78.5t-31.5 78.5t-78.5 31.5t-78.5 -31t-31.5 -79q0 -47 31.5 -78.5t78.5 -31.5t78.5 31.5 zM359 585l-48 69l-48 -69h-160l114 160h188l114 -160h-160z" glyph-name="ocircumflex" horiz-adv-x="622" unicode="ô"/>
<glyph d="M169.5 23.5q-63.5 33.5 -99.5 93t-36 133.5t36 133t99.5 93t141.5 34t141.5 -33.5t99.5 -93t36 -133.5t-36 -133t-99.5 -93t-141.5 -34t-141.5 33.5zM389.5 171.5q31.5 31.5 31.5 78.5t-31.5 78.5t-78.5 31.5t-78.5 -31t-31.5 -79q0 -47 31.5 -78.5t78.5 -31.5t78.5 31.5 zM141 707.5q31 40.5 85 40.5q24 0 44 -7t43 -20q11 -6 22 -10.5t19 -4.5q27 0 27 37h131q0 -85 -31 -125.5t-85 -40.5q-24 0 -44 7t-43 20q-28 16 -41 16q-27 0 -27 -37h-131q0 84 31 124.5z" glyph-name="otilde" horiz-adv-x="622" unicode="õ"/>
<glyph d="M169.5 23.5q-63.5 33.5 -99.5 93t-36 133.5t36 133t99.5 93t141.5 34t141.5 -33.5t99.5 -93t36 -133.5t-36 -133t-99.5 -93t-141.5 -34t-141.5 33.5zM389.5 171.5q31.5 31.5 31.5 78.5t-31.5 78.5t-78.5 31.5t-78.5 -31t-31.5 -79q0 -47 31.5 -78.5t78.5 -31.5t78.5 31.5 zM494 745l-91 -194h-9l-83 175l-83 -175h-9l-91 194h366z" glyph-name="odieresis" horiz-adv-x="622" unicode="ö"/>
<glyph d="M214 517q-27 27 -27 66q0 40 27 66.5t66 26.5q40 0 66.5 -26.5t26.5 -66.5q0 -39 -26.5 -66t-66.5 -27q-39 0 -66 27zM45 423h470v-146h-470v146zM214 51q-27 27 -27 66t27 66t66 27t66 -27t27 -66t-27 -66t-66 -27t-66 27z" glyph-name="divide" unicode="÷"/>
<glyph d="M188 16l-13 -16h-144l66 79q-63 72 -63 171q0 74 36 133t99.5 93t141.5 34q68 0 123 -26l13 16h144l-66 -79q63 -74 63 -171q0 -74 -36 -133t-99.5 -93t-141.5 -34q-68 0 -123 26zM311 378q-57 0 -94.5 -36.5t-37.5 -91.5q0 -32 14 -55l148 178q-15 5 -30 5zM405 158.5 q38 36.5 38 91.5q0 32 -14 55l-148 -178q15 -5 30 -5q56 0 94 36.5z" glyph-name="oslash" horiz-adv-x="622" unicode="ø"/>
<glyph d="M171 18q-50 28 -77.5 78.5t-27.5 115.5v288h165l1 -261q0 -44 24.5 -71t65.5 -27q43 0 71 28t28 70v261h163v-500h-149v48q-29 -28 -67 -43t-83 -15q-64 0 -114 28zM235 585l-67 160h158l66 -160h-157z" glyph-name="ugrave" horiz-adv-x="660" unicode="ù"/>
<glyph d="M171 18q-50 28 -77.5 78.5t-27.5 115.5v288h165l1 -261q0 -44 24.5 -71t65.5 -27q43 0 71 28t28 70v261h163v-500h-149v48q-29 -28 -67 -43t-83 -15q-64 0 -114 28zM318 745h159l-67 -160h-158z" glyph-name="uacute" horiz-adv-x="660" unicode="ú"/>
<glyph d="M171 18q-50 28 -77.5 78.5t-27.5 115.5v288h165l1 -261q0 -44 24.5 -71t65.5 -27q43 0 71 28t28 70v261h163v-500h-149v48q-29 -28 -67 -43t-83 -15q-64 0 -114 28zM370 585l-48 69l-48 -69h-160l114 160h188l114 -160h-160z" glyph-name="ucircumflex" horiz-adv-x="660" unicode="û"/>
<glyph d="M171 18q-50 28 -77.5 78.5t-27.5 115.5v288h165l1 -261q0 -44 24.5 -71t65.5 -27q43 0 71 28t28 70v261h163v-500h-149v48q-29 -28 -67 -43t-83 -15q-64 0 -114 28zM505 745l-91 -194h-9l-83 175l-83 -175h-9l-91 194h366z" glyph-name="udieresis" horiz-adv-x="660" unicode="ü"/>
<glyph d="M119.5 -188q-46.5 22 -75.5 69t-29 118v25h152v-39q0 -28 15.5 -43.5t37.5 -15.5q21 0 34 13t13 34v3q0 27 -11 45l-249 479h182l136 -284q1 -2 2 -5t2 -5q0 3 1 5t1 4l108 285h169l-177 -427q-6 -16 -8.5 -27.5t-2.5 -31.5v-37q0 -58 -27 -100.5t-73 -64.5t-101 -22 q-53 0 -99.5 22zM307 745h159l-67 -160h-158z" glyph-name="yacute" horiz-adv-x="613" unicode="ý"/>
<glyph d="M239 710v-245q54 45 130 45q71 0 128 -33.5t89 -93t32 -133.5t-32 -133t-89 -93t-128 -34q-76 0 -130 45v-235h-163v910h163zM420.5 172q31.5 32 31.5 78t-31.5 78t-77.5 32t-77 -31.5t-31 -78.5t31 -78.5t77 -31.5t77.5 32z" glyph-name="thorn" horiz-adv-x="652" unicode="þ"/>
<glyph d="M76 500h163v-500h-163v500z" glyph-name="dotlessi" horiz-adv-x="316" unicode="ı"/>
<glyph d="M-86.5 -189q-47.5 21 -74.5 58t-27 82h155v-1q0 -17 15.5 -27t39.5 -10q30 0 48 17.5t18 55.5q0 14 -5 37q-7 42 -7 70v407h163v-479q0 -117 -56 -174t-162 -57q-60 0 -107.5 21z" glyph-name="uni0237" horiz-adv-x="302" unicode="ȷ"/>
<glyph d="M-387 585l-67 160h158l66 -160h-157z" glyph-name="gravecomb" horiz-adv-x="0" unicode="̀"/>
<glyph d="M-304 745h159l-67 -160h-158z" glyph-name="acutecomb" horiz-adv-x="0" unicode="́"/>
<glyph d="M-252 585l-48 69l-48 -69h-160l114 160h188l114 -160h-160z" glyph-name="uni0302" horiz-adv-x="0" unicode="̂"/>
<glyph d="M-470 707.5q31 40.5 85 40.5q24 0 44 -7t43 -20q11 -6 22 -10.5t19 -4.5q27 0 27 37h131q0 -85 -31 -125.5t-85 -40.5q-24 0 -44 7t-43 20q-28 16 -41 16q-27 0 -27 -37h-131q0 84 31 124.5z" glyph-name="tildecomb" horiz-adv-x="0" unicode="̃"/>
<glyph d="M-407 745h214l-102 -194h-10z" glyph-name="uni0307" horiz-adv-x="0" unicode="̇"/>
<glyph d="M-117 745l-91 -194h-9l-83 175l-83 -175h-9l-91 194h366z" glyph-name="uni0308" horiz-adv-x="0" unicode="̈"/>
<glyph d="M-371 566q-32 19 -51 51.5t-19 70.5t19 71t51 52t71 19q38 0 70.5 -19t51.5 -52t19 -71t-19 -70.5t-51.5 -51.5t-70.5 -19q-39 0 -71 19zM-274.5 663.5q10.5 10.5 10.5 25.5q0 14 -10.5 24.5t-25.5 10.5t-25.5 -10.5t-10.5 -24.5q0 -16 10.5 -26t25.5 -10t25.5 10.5z" glyph-name="uni030A" horiz-adv-x="0" unicode="̊"/>
<glyph d="M-286 -245h-159l67 160h158z" glyph-name="uni0327" horiz-adv-x="0" unicode="̧"/>
<glyph d="M63 373h431v-146h-431v146z" glyph-name="endash" horiz-adv-x="557" unicode="–"/>
<glyph d="M215 350l109 -200h-178l-106 194v12l106 194h178zM492 350l109 -200h-178l-106 194v12l106 194h178z" glyph-name="guillemotleft.case" horiz-adv-x="641"/>
<glyph d="M427 350l-109 200h178l106 -194v-12l-106 -194h-178zM149 350l-109 200h178l106 -194v-12l-106 -194h-178z" glyph-name="guillemotright.case" horiz-adv-x="641"/>
<glyph d="M225 33q-84 48 -132 132t-48 185t48 185t132 132t185 48t185 -48t132 -132t48 -185q0 -107 -56 -198h-228v46q-26 -26 -64.5 -40t-81.5 -14q-67 0 -105.5 31t-38.5 84q0 122 201 132q43 3 60.5 9.5t17.5 19.5q0 18 -17 29t-46 11q-32 0 -52.5 -12t-27.5 -34h-124 q9 70 63 111t135 41q89 0 142 -45t53 -121v-135h81q14 40 14 85q0 81 -38.5 147.5t-105 105t-147.5 38.5t-147.5 -38.5t-104.5 -105t-38 -147.5t38 -147.5t104.5 -104.5t147.5 -38q62 0 107.5 16t86.5 49l50 -56q-49 -41 -108.5 -62.5t-135.5 -21.5q-101 0 -185 48z M454 269.5q32 26.5 32 60.5v6q-7 -6 -27 -11t-44 -7q-43 -5 -61 -15t-18 -27q0 -33 46 -33q40 0 72 26.5z" glyph-name="at.case" horiz-adv-x="820"/>
<glyph d="M-407 745h214l-102 -194h-10z" glyph-name="uni0307.cv01" horiz-adv-x="0"/>
</font>
</defs>
</svg>
