<?xml version="1.0" encoding="UTF-8"?>
<!DOCTYPE svg  PUBLIC '-//W3C//DTD SVG 1.1//EN'  'http://www.w3.org/Graphics/SVG/1.1/DTD/svg11.dtd'>
<svg version="1.1" xmlns="http://www.w3.org/2000/svg">
<defs>
<font id="KyivTypeSans-Regular3" horiz-adv-x="560">
<font-face font-family="s" font-weight="400" ascent="800" bbox="-486 -245 982 1027" cap-height="700" descent="-200" panose-1="0 0 5 0 0 0 0 0 0 0" underline-position="-100" underline-thickness="50" unicode-range="U+0020-2013" units-per-em="1000" x-height="500"/>
<missing-glyph/>
<glyph glyph-name="space" horiz-adv-x="250" unicode=" "/>
<glyph d="M101 700h97l-41 -485h-15zM108.5 9.5q-17.5 17.5 -17.5 43.5t17.5 43t42.5 17q26 0 43 -17t17 -43t-17.5 -43.5t-42.5 -17.5t-42.5 17.5z" glyph-name="exclam" horiz-adv-x="302" unicode="!"/>
<glyph d="M43 707h97l-44 -202h-10zM197 707h97l-44 -202h-10z" glyph-name="quotedbl" horiz-adv-x="336" unicode='"'/>
<glyph d="M240 165h-150v78h150v215h-150v77h150v180h20v-180h180v180h20v-180h150v-77h-150v-215h150v-78h-150v-180h-20v180h-180v-180h-20v180zM440 243v215h-180v-215h180z" glyph-name="numbersign" horiz-adv-x="700" unicode="#"/>
<glyph d="M162.5 53.5q-75.5 64.5 -88.5 170.5h20q14 -101 86 -159.5t179 -58.5q93 0 147 37.5t54 105.5q0 50 -29.5 81t-73.5 48t-116 35q-78 20 -127.5 39.5t-85 59t-35.5 104.5q0 60 31.5 104.5t88.5 69t132 25.5v115h20v-115q108 -5 176 -67.5t79 -167.5h-20q-13 100 -77.5 157 t-165.5 57q-86 0 -140 -38.5t-54 -105.5q0 -47 28.5 -76t70 -44t115.5 -34q84 -22 135 -42t87 -61t36 -109q0 -95 -73 -146.5t-187 -52.5v-115h-20v115q-117 4 -192.5 68.5z" glyph-name="dollar" horiz-adv-x="700" unicode="$"/>
<glyph d="M119 406q-37 21 -58 58t-21 81t21 81t58 58t81 21t81 -21t58 -58t21 -81t-21 -81t-58 -58t-81 -21t-81 21zM558 700h22l-398 -700h-22zM279 444q31 39 31 101t-31 101t-79 39t-78.5 -39t-30.5 -101t30.5 -101t78.5 -39t79 39zM459 16q-37 21 -58 58t-21 81t21 81t58 58 t81 21t81 -21t58 -58t21 -81t-21 -81t-58 -58t-81 -21t-81 21zM619 54q31 39 31 101t-31 101t-79 39t-78.5 -39t-30.5 -101t30.5 -101t78.5 -39t79 39z" glyph-name="percent" horiz-adv-x="740" unicode="%"/>
<glyph d="M152 11.5q-56 26.5 -87 75t-31 112.5q0 89 63.5 144.5t170.5 60.5h6l-204 274v22h485v-20h-385l383 -508q50 87 60 205h20q-12 -132 -67 -222l111 -155h-102l-65 83q-44 -47 -102 -72.5t-127 -25.5q-73 0 -129 26.5zM499 98l-211 287h-15q-74 -6 -118.5 -56t-44.5 -124 q0 -87 51.5 -141.5t142.5 -54.5q117 0 195 89z" glyph-name="ampersand" horiz-adv-x="708" unicode="&amp;"/>
<glyph d="M43 707h97l-44 -202h-10z" glyph-name="quotesingle" horiz-adv-x="182" unicode="'"/>
<glyph d="M239 -56.5q-62 58.5 -96.5 164t-34.5 242.5t34.5 242.5t96.5 164t142 58.5v-18q-60 0 -104.5 -54t-68.5 -155t-24 -238t24 -238t68.5 -155t104.5 -54v-18q-80 0 -142 58.5z" glyph-name="parenleft" horiz-adv-x="500" unicode="("/>
<glyph d="M262 756.5q62 -58.5 96 -164t34 -242.5t-34 -242.5t-96 -164t-143 -58.5v18q60 0 104.5 54t68.5 155t24 238t-24 238t-68.5 155t-104.5 54v18q81 0 143 -58.5z" glyph-name="parenright" horiz-adv-x="500" unicode=")"/>
<glyph d="M185 554l-77 -69l-69 20l19 69h119l-147 45v69l64 17l88 -105l-50 141l63 53l63 -53l-50 -141l88 105l64 -17v-69l-148 -45h119l19 -69l-68 -20l-78 69l9 -100h-37z" glyph-name="asterisk" horiz-adv-x="390" unicode="*"/>
<glyph d="M480 340h-190v-190h-20v190h-190v20h190v190h20v-190h190v-20z" glyph-name="plus" unicode="+"/>
<glyph d="M84 -107q32 24 53.5 54.5t28.5 61.5q-18 -13 -36 -13q-25 0 -42 16.5t-17 41.5t17.5 42t43.5 17t43 -18t17 -48q0 -41 -21.5 -88.5t-48.5 -68.5h-38v3z" glyph-name="comma" horiz-adv-x="262" unicode=","/>
<glyph d="M80 317h240v-34h-240v34z" glyph-name="hyphen" horiz-adv-x="400" unicode="-"/>
<glyph d="M88.5 9.5q-17.5 17.5 -17.5 43.5t17.5 43t42.5 17q26 0 43 -17t17 -43t-17.5 -43.5t-42.5 -17.5t-42.5 17.5z" glyph-name="period" horiz-adv-x="262" unicode="."/>
<glyph d="M388 700h20l-338 -700h-20z" glyph-name="slash" horiz-adv-x="458" unicode="/"/>
<glyph d="M204.5 32q-68.5 47 -107 130.5t-38.5 187.5t38.5 187.5t107 130.5t154.5 47t154.5 -47t107.5 -130.5t39 -187.5t-39 -187.5t-107.5 -130.5t-154.5 -47t-154.5 47zM470.5 48q49.5 44 77 122.5t27.5 179.5t-27.5 180t-77 123t-111.5 44t-111.5 -44t-77 -123t-27.5 -180 t27.5 -179.5t77 -122.5t111.5 -44t111.5 44z" glyph-name="zero" horiz-adv-x="718" unicode="0"/>
<glyph d="M170 642l-153 -105v24l196 139h40v-700h-83v642z" glyph-name="one" horiz-adv-x="382" unicode="1"/>
<glyph d="M345 233q76 55 118 116q-29 -25 -68.5 -39t-85.5 -14q-78 0 -140 27t-97 74.5t-35 107.5t35 108t97 75t140 27q79 0 141.5 -26.5t97.5 -74t35 -108.5q0 -77 -61 -147t-171 -145l-198 -138h443v-76h-551v19zM410.5 338.5q43.5 23.5 67 64.5t23.5 92q0 94 -53 148.5 t-139 54.5q-55 0 -98.5 -24.5t-68 -68.5t-24.5 -100q0 -55 24.5 -98t68 -67.5t98.5 -24.5q58 0 101.5 23.5z" glyph-name="two" horiz-adv-x="619" unicode="2"/>
<glyph d="M147.5 14q-56.5 28 -89.5 77.5t-35 111.5h20q3 -55 31 -97t75.5 -65.5t106.5 -23.5q60 0 105.5 25t70 69t24.5 98q0 77 -42 125.5t-113 48.5q-30 0 -59.5 -9.5t-50.5 -25.5l-9 -7l-14 16l284 267h-409v76h494v-22l-313 -294q48 22 101 22q61 0 109.5 -24.5t76.5 -69 t28 -103.5q0 -63 -32.5 -114t-92.5 -80t-139 -29q-71 0 -127.5 28z" glyph-name="three" horiz-adv-x="567" unicode="3"/>
<glyph d="M401 189h-394v18l407 493h67v-445h143v-66h-143v-189h-80v189zM401 255v398l-333 -398h333z" glyph-name="four" horiz-adv-x="627" unicode="4"/>
<glyph d="M169.5 11.5q-57.5 25.5 -91.5 72.5t-39 109h20q8 -77 66.5 -125t146.5 -48q62 0 109.5 26t73.5 72.5t26 106.5q0 57 -25 102t-70 70t-103 25q-67 0 -119.5 -29t-76.5 -79l-20 1l59 385h410v-73h-402l-41 -270q32 42 87 65.5t125 23.5q76 0 135 -28.5t91.5 -79 t32.5 -115.5q0 -69 -33.5 -123t-93 -84t-136.5 -30q-74 0 -131.5 25.5z" glyph-name="five" horiz-adv-x="605" unicode="5"/>
<glyph d="M201 31q-67 46 -104.5 129t-37.5 190q0 108 38.5 191t108 128.5t157.5 45.5q63 0 115 -23.5t84.5 -65t40.5 -94.5h-21q-11 70 -67.5 113t-138.5 43q-68 0 -120.5 -37t-83 -113t-30.5 -188q0 -35 4 -60q18 76 81.5 120.5t154.5 44.5q72 0 128.5 -31t87.5 -84.5t31 -118.5 q0 -63 -34.5 -117t-97 -86.5t-142.5 -32.5q-87 0 -154 46zM452.5 33q43.5 29 69 78.5t25.5 107.5q0 60 -24 107.5t-67.5 74.5t-99.5 27q-53 0 -97.5 -24t-71 -65.5t-28.5 -90.5q0 -60 25 -116.5t70 -92t102 -35.5q53 0 96.5 29z" glyph-name="six" horiz-adv-x="677" unicode="6"/>
<glyph d="M299.5 336q89.5 168 209.5 287h-488v77h547v-22q-123 -130 -201.5 -308.5t-90.5 -369.5h-84q18 168 107.5 336z" glyph-name="seven" horiz-adv-x="577" unicode="7"/>
<glyph d="M194.5 10q-65.5 25 -102.5 68.5t-37 97.5q0 66 51 114.5t146 66.5q-78 16 -127.5 63.5t-49.5 107.5q0 52 34.5 94t95.5 66t137 24t137.5 -24t96 -66t34.5 -94q0 -59 -49.5 -107t-128.5 -64q95 -18 146.5 -66.5t51.5 -114.5q0 -54 -37 -97.5t-103 -68.5t-148 -25 t-147.5 25zM442 386q44 21 68.5 58.5t24.5 85.5q0 47 -24.5 84.5t-68.5 58.5t-100 21t-100 -21t-68.5 -58.5t-24.5 -84.5q0 -48 24.5 -85.5t68.5 -58.5t100 -21t100 21zM447 26q46 22 72 61t26 88t-26 88t-72 61t-105 22q-58 0 -104 -22t-72 -61t-26 -88t26 -88t72 -61 t104 -22q59 0 105 22z" glyph-name="eight" horiz-adv-x="684" unicode="8"/>
<glyph d="M476 669q67 -46 104.5 -129t37.5 -190q0 -108 -38.5 -191t-108 -128.5t-157.5 -45.5q-63 0 -115 23.5t-84.5 65t-40.5 94.5h21q11 -70 67.5 -113t138.5 -43q68 0 120.5 37t83 113t30.5 188q0 32 -3 60q-19 -76 -82.5 -120.5t-153.5 -44.5q-73 0 -129.5 31t-87.5 84.5 t-31 118.5q0 63 34.5 117t97 86.5t142.5 32.5q87 0 154 -46zM224.5 667q-43.5 -29 -68.5 -78.5t-25 -107.5q0 -60 24 -107.5t67 -74.5t99 -27q54 0 98.5 24t70.5 65t28 91q0 60 -25 116.5t-70 92t-102 35.5q-53 0 -96.5 -29z" glyph-name="nine" horiz-adv-x="677" unicode="9"/>
<glyph d="M88.5 9.5q-17.5 17.5 -17.5 43.5t17.5 43t42.5 17q26 0 43 -17t17 -43t-17.5 -43.5t-42.5 -17.5t-42.5 17.5zM88.5 367.5q-17.5 17.5 -17.5 43.5t17.5 43t42.5 17q26 0 43 -17t17 -43t-17.5 -43.5t-42.5 -17.5t-42.5 17.5z" glyph-name="colon" horiz-adv-x="262" unicode=":"/>
<glyph d="M84 -107q32 24 53.5 54.5t28.5 61.5q-18 -13 -36 -13q-25 0 -42 16.5t-17 41.5t17.5 42t43.5 17t43 -18t17 -48q0 -41 -21.5 -88.5t-48.5 -68.5h-38v3zM88.5 367.5q-17.5 17.5 -17.5 43.5t17.5 43t42.5 17q26 0 43 -17t17 -43t-17.5 -43.5t-42.5 -17.5t-42.5 17.5z" glyph-name="semicolon" horiz-adv-x="262" unicode=";"/>
<glyph d="M480 527l-375 -177l375 -177v-23l-400 190v20l400 190v-23z" glyph-name="less" unicode="&lt;"/>
<glyph d="M80 450h400v-20h-400v20zM80 270h400v-20h-400v20z" glyph-name="equal" unicode="="/>
<glyph d="M80 173l375 177l-375 177v23l400 -190v-20l-400 -190v23z" glyph-name="greater" unicode="&gt;"/>
<glyph d="M234 234q0 38 11.5 66.5t27.5 47.5t43 45q26 26 41.5 45t26 45t10.5 61q0 68 -42 106t-109 38q-83 0 -128.5 -56t-43.5 -146h-19q-2 68 23.5 120t74.5 80.5t116 28.5q54 0 102 -19t78.5 -57t30.5 -93t-26 -88t-71 -63q-45 -32 -69.5 -54.5t-40 -53t-15.5 -73.5h-16 q-5 10 -5 20zM215.5 9.5q-17.5 17.5 -17.5 43.5t17.5 43t42.5 17q26 0 43 -17t17 -43t-17.5 -43.5t-42.5 -17.5t-42.5 17.5z" glyph-name="question" horiz-adv-x="531" unicode="?"/>
<glyph d="M225 -119q-84 48 -132 132t-48 185t48 185t132 132t185 48t185 -48t132 -132t48 -185q0 -112 -56 -198h-195v107q-19 -55 -67.5 -85.5t-113.5 -30.5q-60 0 -95 28t-35 75q0 56 47.5 85.5t155.5 36.5q60 4 85 19t25 44q0 49 -34.5 80.5t-87.5 31.5q-56 0 -95 -34.5 t-48 -93.5h-20q10 70 58 110.5t120 40.5q76 0 123.5 -44.5t47.5 -120.5v-229h118q47 79 47 178q0 96 -45.5 175t-124.5 124.5t-175 45.5t-175 -45.5t-124.5 -124.5t-45.5 -175t45.5 -175t124.5 -124.5t175 -45.5q70 0 133 25.5t111 71.5l14 -13q-50 -50 -116.5 -77 t-141.5 -27q-101 0 -185 48zM446.5 40q35.5 22 56.5 60t21 82v47q-28 -22 -94 -29q-77 -8 -112.5 -32t-35.5 -69q0 -39 23 -60t65 -21q41 0 76.5 22z" glyph-name="at" horiz-adv-x="820" unicode="@"/>
<glyph d="M299 700h71l287 -700h-97l-95 230h-337l-93 -230h-21zM457 250l-159 386h-2l-160 -386h321z" glyph-name="A" horiz-adv-x="671" unicode="A"/>
<glyph d="M363 700q125 0 194.5 -47t69.5 -129q0 -65 -41.5 -109t-117.5 -59v-4q89 -11 138.5 -57t49.5 -115q0 -84 -71 -132t-200 -48h-264v700h242zM499 401.5q46 41.5 46 118.5t-47 118.5t-135 41.5h-152v-320h155q87 0 133 41.5zM518 61.5q49 41.5 49 118.5t-50.5 119 t-140.5 42h-165v-321h165q93 0 142 41.5z" glyph-name="B" horiz-adv-x="712" unicode="B"/>
<glyph d="M233.5 31q-80.5 46 -125.5 129t-45 190q0 108 45 190.5t125.5 128.5t184.5 46q84 0 153 -35.5t113.5 -99t55.5 -145.5h-20q-11 74 -49 130.5t-97 88t-131 31.5q-85 0 -150 -42t-101.5 -118t-36.5 -175q0 -98 36.5 -174t102 -118t149.5 -42q72 0 131 31.5t97 88t49 129.5 h20q-11 -82 -55.5 -145.5t-113.5 -99t-153 -35.5q-104 0 -184.5 46z" glyph-name="C" horiz-adv-x="794" unicode="C"/>
<glyph d="M332 700q114 0 200.5 -44t134 -123.5t47.5 -182.5t-47.5 -182.5t-134 -123.5t-200.5 -44h-211v700h211zM488 59q65 39 100 113.5t35 177.5t-35 177.5t-100 114t-152 39.5h-125v-661h125q87 0 152 39z" glyph-name="D" horiz-adv-x="777" unicode="D"/>
<glyph d="M121 700h400v-20h-310v-320h224v-20h-224v-320h356v-20h-446v700z" glyph-name="E" horiz-adv-x="587" unicode="E"/>
<glyph d="M121 700h413v-20h-323v-320h237v-20h-237v-340h-90v700z" glyph-name="F" horiz-adv-x="539" unicode="F"/>
<glyph d="M225.5 31q-76.5 46 -119.5 128t-43 188q0 109 45 192.5t125 129.5t183 46q125 0 208.5 -68t105.5 -182h-20q-21 101 -92 160.5t-177 59.5q-84 0 -149 -42t-101 -118t-36 -174t36 -174.5t98.5 -118.5t141.5 -42q70 0 124.5 33.5t85.5 92.5t31 135v63h-233v20h320v-360h-87 v167q-28 -84 -100 -133t-172 -49q-98 0 -174.5 46z" glyph-name="G" horiz-adv-x="826" unicode="G"/>
<glyph d="M121 700h90v-340h399v340h90v-700h-90v340h-399v-340h-90v700z" glyph-name="H" horiz-adv-x="820" unicode="H"/>
<glyph d="M121 700h90v-700h-90v700z" glyph-name="I" horiz-adv-x="332" unicode="I"/>
<glyph d="M147 15.5q-52 30.5 -81 87t-29 133.5v34h20v-34q0 -65 22.5 -114t63.5 -76t95 -27q78 0 124 56.5t46 150.5v474h90v-457q0 -121 -62 -189.5t-168 -68.5q-69 0 -121 30.5z" glyph-name="J" horiz-adv-x="606" unicode="J"/>
<glyph d="M121 700h90v-340h99l296 340h26l-256 -294l301 -406h-107l-256 340h-103v-340h-90v700z" glyph-name="K" horiz-adv-x="703" unicode="K"/>
<glyph d="M121 700h90v-680h346v-20h-436v700z" glyph-name="L" horiz-adv-x="583" unicode="L"/>
<glyph d="M121 700h92l272 -589l270 589h87v-700h-90v645l-295 -645h-21l-294 639v-639h-21v700z" glyph-name="M" horiz-adv-x="962" unicode="M"/>
<glyph d="M119 700h89l450 -575v575h21v-714h-23l-516 653v-639h-21v700z" glyph-name="N" horiz-adv-x="798" unicode="N"/>
<glyph d="M239.5 32q-82.5 47 -129.5 130.5t-47 187.5q0 105 47 188t129.5 130t185.5 47q104 0 186.5 -47t129 -130t46.5 -188q0 -104 -46.5 -187.5t-129 -130.5t-186.5 -47q-103 0 -185.5 47zM566 46q61 42 95 120.5t34 183.5t-34 183.5t-95 120.5t-141 42t-141 -42t-95 -120.5 t-34 -183.5t34 -183.5t95 -120.5t141 -42t141 42z" glyph-name="O" horiz-adv-x="850" unicode="O"/>
<glyph d="M327 700q131 0 204 -53t73 -147t-73 -147t-204 -53h-116v-300h-90v700h206zM464 367.5q50 47.5 50 132.5t-50 132.5t-139 47.5h-114v-360h114q89 0 139 47.5z" glyph-name="P" horiz-adv-x="653" unicode="P"/>
<glyph d="M216 47.5q-72 48.5 -112.5 127.5t-40.5 175q0 105 47 188t129.5 130t185.5 47q104 0 186.5 -47t129 -130t46.5 -188q0 -96 -40.5 -175t-112.5 -127.5t-164 -57.5v-190h-90v190q-92 9 -164 57.5zM566 46q61 42 95 120.5t34 183.5t-34 183.5t-95 120.5t-141 42t-141 -42 t-95 -120.5t-34 -183.5t34 -183.5t95 -120.5t141 -42t141 42z" glyph-name="Q" horiz-adv-x="850" unicode="Q"/>
<glyph d="M330 700q128 0 202 -52.5t74 -143.5q0 -67 -46 -113.5t-126 -61.5l251 -329h-107l-239 312q-6 -1 -21 -1h-107v-311h-90v700h209zM471 377q51 46 51 129t-51 128.5t-144 45.5h-116v-349h116q93 0 144 46z" glyph-name="R" horiz-adv-x="698" unicode="R"/>
<glyph d="M184.5 14.5q-63.5 29.5 -102.5 83.5t-47 126h19q14 -101 86 -159.5t180 -58.5q93 0 147 37.5t54 105.5q0 50 -29.5 81t-73.5 48t-116 35q-78 20 -127.5 39.5t-85 59t-35.5 104.5q0 63 34 108t91.5 68t128.5 23q115 0 188 -63t84 -172h-19q-13 100 -77.5 157t-165.5 57 q-87 0 -140.5 -38.5t-53.5 -105.5q0 -47 28.5 -76t69.5 -44t115 -34q85 -22 136 -42t87 -61t36 -109q0 -97 -75 -148t-192 -51q-81 0 -144.5 29.5z" glyph-name="S" horiz-adv-x="637" unicode="S"/>
<glyph d="M270 680h-257v20h604v-20h-257v-680h-90v680z" glyph-name="T" horiz-adv-x="630" unicode="T"/>
<glyph d="M242.5 22q-65.5 37 -101 104.5t-35.5 157.5v416h90v-416q0 -130 61 -199.5t168 -69.5q69 0 121.5 34t81.5 96t29 144v411h20v-411q0 -93 -34 -161.5t-98 -105.5t-150 -37q-87 0 -152.5 37z" glyph-name="U" horiz-adv-x="776" unicode="U"/>
<glyph d="M22 700h96l258 -632h3l258 632h21l-283 -700h-70z" glyph-name="V" horiz-adv-x="677" unicode="V"/>
<glyph d="M32 700h93l194 -625l186 625h67l194 -625l197 625h19l-218 -700h-70l-191 616l-182 -616h-71z" glyph-name="W" horiz-adv-x="1010" unicode="W"/>
<glyph d="M290 341l-262 359h105l223 -295l232 295h25l-245 -312l282 -388h-105l-242 324l-253 -324h-25z" glyph-name="X" horiz-adv-x="667" unicode="X"/>
<glyph d="M274 281l-269 419h95l254 -399l255 399h23l-268 -420v-280h-90v281z" glyph-name="Y" horiz-adv-x="635" unicode="Y"/>
<glyph d="M36 17l442 663h-417v20h520v-16l-442 -664h441v-20h-544v17z" glyph-name="Z" horiz-adv-x="616" unicode="Z"/>
<glyph d="M146 800h258v-20h-185v-860h185v-20h-258v900z" glyph-name="bracketleft" horiz-adv-x="500" unicode="["/>
<glyph d="M50 700h20l338 -700h-20z" glyph-name="backslash" horiz-adv-x="458" unicode="\"/>
<glyph d="M354 -100h-258v20h186v860h-186v20h258v-900z" glyph-name="bracketright" horiz-adv-x="500" unicode="]"/>
<glyph d="M270 700h20l167 -290h-23l-154 267l-154 -267h-23z" glyph-name="asciicircum" unicode="^"/>
<glyph d="M30 7h387v-20h-387v20z" glyph-name="underscore" horiz-adv-x="447" unicode="_"/>
<glyph d="M82.5 24q-41.5 35 -41.5 94q0 74 65.5 106.5t171.5 41.5q73 6 110.5 22.5t37.5 49.5q0 68 -42 107.5t-109 39.5q-71 0 -119.5 -43.5t-60.5 -118.5h-19q12 87 70.5 137t146.5 50q61 0 108.5 -25t74 -71t26.5 -108v-286h69v-20h-146v131q-25 -66 -84.5 -104t-137.5 -38 q-79 0 -120.5 35zM329 44q44 27 69.5 74.5t25.5 106.5l1 62q-27 -25 -116 -35q-98 -11 -142.5 -42t-44.5 -88q0 -51 29.5 -78t79.5 -27q54 0 98 27z" glyph-name="a" horiz-adv-x="598" unicode="a"/>
<glyph d="M254 28q-54 38 -78 103v-131h-80v710h80v-341q24 66 77.5 103.5t126.5 37.5q66 0 120 -33t85 -92.5t31 -134.5t-31 -134t-85 -92.5t-120 -33.5q-72 0 -126 38zM449 44q40 28 63 81t23 125q0 73 -23 125.5t-63 80.5t-90 28q-53 0 -95.5 -31t-66.5 -84.5t-24 -118.5 t24 -118.5t66.5 -84.5t95.5 -31q50 0 90 28z" glyph-name="b" horiz-adv-x="666" unicode="b"/>
<glyph d="M176.5 23.5q-59.5 33.5 -93 93t-33.5 133.5q0 75 33.5 134t93 92.5t134.5 33.5q97 0 160.5 -51t80.5 -141h-20q-17 77 -69.5 121.5t-129.5 44.5q-60 0 -106 -29t-71 -82t-25 -123t25 -123t71 -82t106 -29q77 0 129.5 45t69.5 122h20q-17 -90 -80.5 -141.5t-160.5 -51.5 q-75 0 -134.5 33.5z" glyph-name="c" horiz-adv-x="591" unicode="c"/>
<glyph d="M166.5 23.5q-54.5 33.5 -85.5 92.5t-31 134t31 134.5t85.5 92.5t120.5 33q73 0 126 -37.5t78 -103.5v341h79v-710h-79v131q-25 -66 -78.5 -103.5t-125.5 -37.5q-66 0 -120.5 33.5zM403.5 47q42.5 31 66.5 84.5t24 118.5t-24 118.5t-66.5 84.5t-95.5 31q-51 0 -91 -27.5 t-63 -80.5t-23 -126q0 -72 23 -125t63 -81t91 -28q53 0 95.5 31z" glyph-name="d" horiz-adv-x="666" unicode="d"/>
<glyph d="M178 23.5q-60 33.5 -94 93t-34 133.5t34 133.5t94.5 93t135.5 33.5t134 -33.5t92.5 -92.5t34.5 -133v-11h-443q2 -68 28 -118.5t71 -78t102 -27.5q70 0 122 36t71 96h21q-20 -73 -83 -115.5t-151 -42.5q-75 0 -135 33.5zM469.5 383q-23.5 52 -64.5 80t-92 28 q-52 0 -92.5 -28.5t-64 -79.5t-25.5 -116v-7h364q-2 71 -25.5 123z" glyph-name="e" horiz-adv-x="612" unicode="e"/>
<glyph d="M40 480v20h101v56q0 87 49.5 135.5t134.5 48.5q71 0 116.5 -38.5t45.5 -97.5h-20v1q-1 50 -40 82t-99 32q-61 0 -99 -32.5t-38 -93.5q0 -24 11 -63q6 -22 8 -30h209v-20h-206q8 -26 8 -54v-426h-80v480h-101z" glyph-name="f" horiz-adv-x="425" unicode="f"/>
<glyph d="M153.5 -168q-77.5 42 -77.5 115q0 57 50 96.5t141 53.5q-120 11 -187 39t-67 94q0 28 20 46.5t49 18.5q20 0 45 -9q-17 28 -17 62q0 67 58 109.5t160 50.5v122h73v-122q106 -5 168 -47.5t62 -112.5q0 -75 -70.5 -119t-189.5 -44q-79 0 -123 15.5t-85 43.5 q-23 16 -40.5 23.5t-40.5 7.5q-22 0 -35 -12.5t-13 -31.5q0 -46 44 -70.5t106 -34.5t166 -19l41 -3q128 -10 195.5 -45t67.5 -112q0 -73 -77.5 -115t-212.5 -42q-133 0 -210.5 42zM503.5 242q49.5 39 49.5 106q0 68 -49 107t-133 39q-85 0 -133.5 -39t-48.5 -107 q0 -67 48 -106t134 -39q83 0 132.5 39zM516 -154q55 37 55 102q0 69 -52.5 104.5t-154.5 35.5q-96 0 -151 -37t-55 -103q0 -65 55 -102t151 -37q97 0 152 37z" glyph-name="g" horiz-adv-x="677" unicode="g"/>
<glyph d="M176 710v-335q23 63 72.5 99t115.5 36q100 0 155 -63t55 -178v-269h-80v269q0 103 -40 158.5t-114 55.5q-46 0 -83.5 -28.5t-59 -78t-21.5 -111.5v-265h-80v710h80z" glyph-name="h" horiz-adv-x="660" unicode="h"/>
<glyph d="M96 500h80v-500h-80v500zM88 745h97l-44 -174h-10z" glyph-name="i" horiz-adv-x="272" unicode="i"/>
<glyph d="M-36.5 -194q-34.5 16 -54 44.5t-19.5 62.5h19v-1q0 -43 37.5 -72t89.5 -29q54 0 89.5 31t35.5 90q0 23 -5.5 48t-6.5 30q-8 36 -12.5 64t-4.5 62v364h80v-532q0 -83 -46.5 -130.5t-125.5 -47.5q-42 0 -76.5 16zM124 745h97l-44 -174h-10z" glyph-name="j" horiz-adv-x="308" unicode="j"/>
<glyph d="M96 710h80v-450h79l220 240h26l-188 -202l222 -298h-93l-188 240h-78v-240h-80v710z" glyph-name="k" horiz-adv-x="555" unicode="k"/>
<glyph d="M96 710h80v-710h-80v710z" glyph-name="l" horiz-adv-x="272" unicode="l"/>
<glyph d="M176 500v-123q21 62 68 97.5t109 35.5q73 0 120 -39t64 -110q20 70 68.5 109.5t116.5 39.5q91 0 141 -60t50 -168v-282h-80v282q0 97 -35.5 149t-100.5 52q-43 0 -78 -27t-55 -74.5t-20 -107.5v-274h-80v282q0 97 -35.5 149t-100.5 52q-43 0 -77.5 -28.5t-54.5 -78 t-20 -111.5v-265h-80v500h80z" glyph-name="m" horiz-adv-x="999" unicode="m"/>
<glyph d="M176 500v-125q23 63 72.5 99t115.5 36q100 0 155 -63t55 -178v-269h-80v269q0 103 -40 158.5t-114 55.5q-46 0 -83.5 -28.5t-59 -78t-21.5 -111.5v-265h-80v500h80z" glyph-name="n" horiz-adv-x="660" unicode="n"/>
<glyph d="M182 24q-62 34 -97 93t-35 133t35 133.5t97 93t139 33.5t138.5 -33.5t96.5 -93t35 -133.5t-35 -133t-97 -93t-138 -34q-77 0 -139 34zM419 38.5q43 29.5 67 84t24 127.5t-24 128t-67 84.5t-98 29.5q-56 0 -99 -29.5t-67 -84.5t-24 -128t24 -127.5t67 -84t99 -29.5 q55 0 98 29.5z" glyph-name="o" horiz-adv-x="641" unicode="o"/>
<glyph d="M176 500v-131q24 66 77.5 103.5t126.5 37.5q66 0 120 -33t85 -92.5t31 -134.5t-31 -134t-85 -92.5t-120 -33.5q-72 0 -126 38t-78 103v-331h-80v700h80zM449 44q40 28 63 81t23 125q0 73 -23 125.5t-63 80.5t-90 28q-53 0 -95.5 -31t-66.5 -84.5t-24 -118.5t24 -118.5 t66.5 -84.5t95.5 -31q50 0 90 28z" glyph-name="p" horiz-adv-x="666" unicode="p"/>
<glyph d="M491 131q-25 -66 -78.5 -103.5t-125.5 -37.5q-66 0 -120.5 33.5t-85.5 92.5t-31 134t31 134.5t85.5 92.5t120.5 33q73 0 126 -37.5t78 -103.5v131h79v-700h-79v331zM403.5 47q42.5 31 66.5 84.5t24 118.5t-24 118.5t-66.5 84.5t-95.5 31q-51 0 -91 -27.5t-63 -80.5 t-23 -126q0 -72 23 -125t63 -81t91 -28q53 0 95.5 31z" glyph-name="q" horiz-adv-x="666" unicode="q"/>
<glyph d="M176 500v-130q21 66 67.5 103t108.5 37q74 0 115 -47.5t41 -137.5v-18h-78v24q0 72 -28 108t-81 36q-40 0 -73.5 -28t-52.5 -76t-19 -106v-265h-80v500h80z" glyph-name="r" horiz-adv-x="521" unicode="r"/>
<glyph d="M109.5 33q-65.5 44 -77.5 127h20q12 -73 70.5 -111t138.5 -38q58 0 106 23.5t48 71.5q0 31 -18.5 50t-48 30t-82.5 24q-22 5 -29 7q-87 19 -138.5 50t-51.5 97q0 75 60 111t142 36q88 0 147.5 -43.5t68.5 -123.5h-20q-12 71 -64 108t-127 37q-59 0 -103.5 -24.5 t-44.5 -75.5q0 -30 22 -49t52.5 -29t97.5 -27q60 -13 101 -27.5t70 -44t29 -78.5q0 -51 -32.5 -83.5t-81 -47t-96.5 -14.5q-93 0 -158.5 44z" glyph-name="s" horiz-adv-x="519" unicode="s"/>
<glyph d="M136 154v326h-114v20h104q10 0 10 10v110h80l-1 -120h212v-20h-212v-337q0 -129 119 -129q44 0 93 19v-19q-22 -11 -57.5 -17.5t-64.5 -6.5q-169 0 -169 164z" glyph-name="t" horiz-adv-x="456" unicode="t"/>
<glyph d="M141 53.5q-55 63.5 -55 177.5v269h80v-269q0 -102 40.5 -158t114.5 -56q46 0 83.5 28.5t59 78t21.5 111.5v265h79v-500h-79v126q-23 -64 -73 -100t-116 -36q-100 0 -155 63.5z" glyph-name="u" horiz-adv-x="660" unicode="u"/>
<glyph d="M12 500h86l196 -445l196 445h22l-218 -500h-64z" glyph-name="v" horiz-adv-x="522" unicode="v"/>
<glyph d="M21 500h82l145 -431l144 431h64l144 -431l145 431h21l-167 -500h-59l-147 436l-145 -436h-60z" glyph-name="w" horiz-adv-x="785" unicode="w"/>
<glyph d="M234 240l-203 260h97l165 -202l172 202h25l-185 -219l217 -281h-96l-179 224l-189 -224h-26z" glyph-name="x" horiz-adv-x="548" unicode="x"/>
<glyph d="M71 -167.5q-41 42.5 -41 110.5v27h19v-26q0 -59 34.5 -96t89.5 -37q49 0 79.5 30t30.5 79v12q0 26 -9 55.5t-34 80.5l-228 432h88l187 -354q10 -21 21 -49.5t13 -45.5q5 24 14 44l167 405h22l-172 -416q-11 -27 -15.5 -50t-4.5 -53v-24q0 -77 -42 -122t-111 -45 q-67 0 -108 42.5z" glyph-name="y" horiz-adv-x="533" unicode="y"/>
<glyph d="M30 17l340 463h-322v20h415v-16l-340 -464h338v-20h-431v17z" glyph-name="z" horiz-adv-x="500" unicode="z"/>
<glyph d="M202.5 -82q-38.5 33 -38.5 99q0 29 16 119q6 35 11.5 70t5.5 56q0 39 -17.5 58.5t-50.5 19.5h-41v20h41q33 0 50.5 19.5t17.5 58.5q0 21 -5.5 56t-11.5 70q-16 90 -16 119q0 66 38.5 99t103.5 33q22 0 48.5 -4t43.5 -12v-20q-36 16 -76 16q-39 0 -63.5 -22.5t-24.5 -68.5 q0 -30 15 -114q16 -94 16 -126q0 -91 -76 -114q38 -11 57 -40.5t19 -73.5q0 -31 -16 -125q-15 -84 -15 -115q0 -46 24.5 -68.5t63.5 -22.5q40 0 76 16v-20q-17 -8 -43.5 -12t-48.5 -4q-65 0 -103.5 33z" glyph-name="braceleft" horiz-adv-x="500" unicode="{"/>
<glyph d="M146 800h20v-900h-20v900z" glyph-name="bar" horiz-adv-x="312" unicode="|"/>
<glyph d="M298 782q39 -33 39 -99q0 -34 -17 -119q-6 -35 -11.5 -70t-5.5 -56q0 -39 18 -58.5t51 -19.5h41v-20h-41q-69 0 -69 -78q0 -21 5.5 -56t11.5 -70q17 -85 17 -119q0 -66 -39 -99t-104 -33q-22 0 -48 4t-43 12v20q35 -16 75 -16q39 0 63.5 22.5t24.5 68.5q0 25 -14 115 q-16 94 -16 125q0 44 18.5 73.5t56.5 40.5q-75 23 -75 114q0 32 16 126q14 90 14 114q0 46 -24.5 68.5t-63.5 22.5q-40 0 -75 -16v20q17 8 43 12t48 4q65 0 104 -33z" glyph-name="braceright" horiz-adv-x="500" unicode="}"/>
<glyph d="M107 364.5q27 23.5 64 23.5q26 0 50.5 -7.5t62.5 -22.5q36 -14 58.5 -21t46.5 -7q28 0 49.5 18t21.5 41h20q0 -32 -27 -55.5t-64 -23.5q-26 0 -50.5 7.5t-62.5 22.5q-36 14 -58.5 21t-46.5 7q-28 0 -49.5 -18t-21.5 -41h-20q0 32 27 55.5z" glyph-name="asciitilde" unicode="~"/>
<glyph glyph-name="uni00A0" horiz-adv-x="250" unicode=" "/>
<glyph d="M193.5 490.5q17.5 -17.5 17.5 -42.5t-17 -42.5t-43 -17.5q-25 0 -42.5 17.5t-17.5 42.5t17.5 42.5t42.5 17.5t42.5 -17.5zM202 -200h-97l41 485h15z" glyph-name="exclamdown" horiz-adv-x="302" unicode="¡"/>
<glyph d="M497.5 163q52.5 45 69.5 122h20q-17 -88 -78 -139t-154 -54v-122h-20v122q-72 2 -129 36.5t-89 92.5t-32 131t32 131t89 92.5t129 36.5v118h20v-118q93 -3 154 -54t78 -138h-20q-17 77 -69.5 121.5t-129.5 44.5q-60 0 -105.5 -29t-70.5 -82t-25 -123t25 -123t71 -82 t105 -29q77 0 129.5 45z" glyph-name="cent" horiz-adv-x="700" unicode="¢"/>
<glyph d="M63.5 13.5q-31.5 28.5 -31.5 72.5q0 43 31 71.5t82 28.5q30 0 60.5 -9.5t68.5 -26.5q1 2 1 10q-3 30 -18.5 60t-43.5 74q-5 9 -12.5 20t-15.5 26h-135v20h123q-20 36 -31 70t-11 73q0 64 28.5 112t80 74.5t119.5 26.5q103 0 166.5 -59t68.5 -157h-20q-4 88 -58 138 t-135 50q-78 0 -124 -47t-46 -129q0 -28 5 -50.5t17 -68.5q5 -12 10 -33h289v-20h-282l12 -28q19 -48 28 -75.5t9 -57.5q0 -15 -2 -39l25 -12q59 -30 100.5 -45.5t84.5 -15.5q62 0 94 31t32 90q0 22 -6 47h18q7 -32 7 -65q0 -83 -41.5 -134t-118.5 -51q-52 0 -99 21.5 t-117 63.5q-17 -39 -51.5 -62t-77.5 -23q-52 0 -83.5 28.5zM213 25.5q30 20.5 45 54.5q-46 26 -75.5 38.5t-56.5 12.5q-31 0 -50 -16.5t-19 -42.5q0 -28 24.5 -47.5t63.5 -19.5q38 0 68 20.5z" glyph-name="sterling" horiz-adv-x="700" unicode="£"/>
<glyph d="M202 216q-24 27 -38 61.5t-14 72.5t14 72.5t38 61.5l-92 92l14 14l92 -92q27 24 61.5 38t72.5 14t72.5 -14t61.5 -38l92 92l14 -14l-92 -92q24 -27 38 -61.5t14 -72.5t-14 -72.5t-38 -61.5l92 -92l-14 -14l-92 92q-27 -24 -61.5 -38t-72.5 -14t-72.5 14t-61.5 38l-92 -92 l-14 14zM440 194.5q41 24.5 65.5 65.5t24.5 90t-24.5 90t-65.5 65.5t-90 24.5t-90 -24.5t-65.5 -65.5t-24.5 -90t24.5 -90t65.5 -65.5t90 -24.5t90 24.5z" glyph-name="currency" horiz-adv-x="700" unicode="¤"/>
<glyph d="M305 180h-211v20h211v81l-13 19h-198v20h185l-242 380h94l254 -397h2l254 397h23l-242 -380h199v-20h-212l-14 -20v-80h226v-20h-226v-180h-90v180z" glyph-name="yen" horiz-adv-x="700" unicode="¥"/>
<glyph d="M146 800h20v-380h-20v380zM146 280h20v-380h-20v380z" glyph-name="brokenbar" horiz-adv-x="312" unicode="¦"/>
<glyph d="M205.5 -54.5q-67.5 45.5 -79.5 130.5h21q12 -75 72 -114.5t137 -39.5q58 0 106 24t48 75q0 33 -18.5 52.5t-47.5 30t-82 23.5l-30 8q-64 15 -108 31t-75 47.5t-31 82.5q0 57 38 91.5t100 48.5q-54 19 -84.5 48.5t-30.5 80.5q0 76 60.5 113.5t142.5 37.5q86 0 146 -45 t70 -127h-20q-11 73 -65.5 111t-129.5 38q-57 0 -101 -25.5t-44 -78.5q0 -32 22 -51t53.5 -29.5t97.5 -26.5q72 -17 114.5 -31.5t74.5 -45.5t32 -83q0 -57 -38.5 -92t-99.5 -51q55 -18 86 -48t31 -82q0 -53 -32.5 -86.5t-81 -48t-96.5 -14.5q-90 0 -157.5 45.5zM502 219.5 q42 23.5 42 66.5q0 35 -23 57t-59 35.5t-103 31.5q-46 12 -59 16q-52 -5 -90.5 -29t-38.5 -68q0 -54 64.5 -84t174.5 -55q50 6 92 29.5z" glyph-name="section" horiz-adv-x="700" unicode="§"/>
<glyph d="M225 33q-84 48 -132 132t-48 185t48 185t132 132t185 48t185 -48t132 -132t48 -185t-48 -185t-132 -132t-185 -48t-185 48zM585 50.5q79 45.5 124.5 124.5t45.5 175t-45.5 175t-124.5 124.5t-175 45.5t-175 -45.5t-124.5 -124.5t-45.5 -175t45.5 -175t124.5 -124.5 t175 -45.5t175 45.5zM308.5 169q-47.5 27 -74.5 74.5t-27 106.5t27 106.5t74.5 74.5t107.5 27q78 0 128.5 -41t63.5 -113h-20q-12 60 -53 94.5t-102 34.5q-71 0 -114.5 -50t-43.5 -133t43.5 -133t114.5 -50q61 0 102 34.5t53 94.5h20q-13 -72 -63.5 -113t-128.5 -41 q-60 0 -107.5 27z" glyph-name="copyright" horiz-adv-x="820" unicode="©"/>
<glyph d="M147 300l109 -200h-21l-106 194v12l106 194h21zM307 300l109 -200h-21l-106 194v12l106 194h21z" glyph-name="guillemotleft" horiz-adv-x="506" unicode="«"/>
<glyph d="M480 360v-210h-20v190h-380v20h400z" glyph-name="logicalnot" unicode="¬"/>
<glyph d="M135.5 378.5q-41.5 23.5 -65 65t-23.5 91.5t23.5 91.5t65 65t91.5 23.5t91.5 -23.5t65 -65t23.5 -91.5t-23.5 -91.5t-65 -65t-91.5 -23.5t-91.5 23.5zM309 395q37 21 58 58t21 82t-21 82t-58 58t-82 21t-82 -21t-58.5 -58t-21.5 -82t21.5 -82t58.5 -58t82 -21t82 21z M218 642q38 0 60 -15.5t22 -43.5q0 -40 -43 -54l69 -91h-43l-64 84h-34v-84h-34v204h67zM253.5 550q12.5 12 12.5 33q0 20 -12.5 30.5t-36.5 10.5h-32v-86h32q24 0 36.5 12z" glyph-name="registered" horiz-adv-x="440" unicode="®"/>
<glyph d="M70.5 510.5q-35.5 35.5 -35.5 84.5q0 50 35.5 85t84.5 35q50 0 85 -35t35 -85q0 -49 -35 -84.5t-85 -35.5q-49 0 -84.5 35.5zM225.5 524.5q29.5 29.5 29.5 70.5t-29.5 70.5t-70.5 29.5t-70.5 -29.5t-29.5 -70.5t29.5 -70.5t70.5 -29.5t70.5 29.5z" glyph-name="degree" horiz-adv-x="310" unicode="°"/>
<glyph d="M290 410h190v-20h-190v-190h-20v190h-190v20h190v190h20v-190zM80 110v20h400v-20h-400z" glyph-name="plusminus" unicode="±"/>
<glyph d="M281 300q-62 0 -112.5 26.5t-79.5 72t-29 101.5t29 101.5t79.5 72t112.5 26.5h96v-900h-87v500h-9z" glyph-name="paragraph" horiz-adv-x="523" unicode="¶"/>
<glyph d="M88.5 258.5q-17.5 17.5 -17.5 43.5t17.5 43t42.5 17q26 0 43 -17t17 -43t-17.5 -43.5t-42.5 -17.5t-42.5 17.5z" glyph-name="periodcentered" horiz-adv-x="262" unicode="·"/>
<glyph d="M359 300l-109 200h21l106 -194v-12l-106 -194h-21zM199 300l-109 200h21l106 -194v-12l-106 -194h-21z" glyph-name="guillemotright" horiz-adv-x="467" unicode="»"/>
<glyph d="M323 492q17 -17 17 -43q0 -25 -17 -42.5t-43 -17.5q-25 0 -42.5 17.5t-17.5 42.5q0 26 17.5 43t42.5 17q26 0 43 -17zM304 267q0 -53 -21 -87t-60 -71q-39 -38 -58.5 -69.5t-19.5 -81.5q0 -69 42 -107t109 -38q82 0 127.5 56t43.5 147h19q2 -68 -23.5 -120t-74.5 -81 t-116 -29q-54 0 -102 19t-78 57t-30 93q0 39 14 67.5t33.5 46t49.5 38.5q44 31 69 53.5t40.5 53.5t15.5 74h16q4 -9 4 -21z" glyph-name="questiondown" horiz-adv-x="531" unicode="¿"/>
<glyph d="M299 700h71l287 -700h-97l-95 230h-337l-93 -230h-21zM457 250l-159 386h-2l-160 -386h321zM320 771l-121 174h84l54 -174h-17z" glyph-name="Agrave" horiz-adv-x="671" unicode="À"/>
<glyph d="M299 700h71l287 -700h-97l-95 230h-337l-93 -230h-21zM457 250l-159 386h-2l-160 -386h321zM389 945h84l-120 -174h-18z" glyph-name="Aacute" horiz-adv-x="671" unicode="Á"/>
<glyph d="M299 700h71l287 -700h-97l-95 230h-337l-93 -230h-21zM457 250l-159 386h-2l-160 -386h321zM420 785l-118 125l-118 -125h-26l147 160h61l147 -160h-93z" glyph-name="Acircumflex" horiz-adv-x="671" unicode="Â"/>
<glyph d="M299 700h71l287 -700h-97l-95 230h-337l-93 -230h-21zM457 250l-159 386h-2l-160 -386h321zM177.5 892q27.5 28 69.5 28q27 0 51 -6.5t59 -18.5q30 -11 50 -16t41 -5q23 0 39.5 13t16.5 33h18q0 -44 -27 -72t-69 -28q-27 0 -51 6.5t-59 18.5t-53.5 17t-38.5 5 q-23 0 -39.5 -13t-16.5 -34h-18q0 44 27.5 72z" glyph-name="Atilde" horiz-adv-x="671" unicode="Ã"/>
<glyph d="M299 700h71l287 -700h-97l-95 230h-337l-93 -230h-21zM457 250l-159 386h-2l-160 -386h321zM218 945h94l-42 -174h-9zM360 945h94l-43 -174h-9z" glyph-name="Adieresis" horiz-adv-x="671" unicode="Ä"/>
<glyph d="M299 700h71l287 -700h-97l-95 230h-337l-93 -230h-21zM457 250l-159 386h-2l-160 -386h321zM245 807.5q-37 37.5 -37 90.5q0 35 17 64.5t46.5 47t64.5 17.5t64.5 -17.5t47 -47t17.5 -64.5t-17.5 -64.5t-47 -46.5t-64.5 -17q-54 0 -91 37.5zM418 845q29 20 29 53t-29 53.5 t-82 20.5t-81.5 -20.5t-28.5 -53.5t28.5 -53t81.5 -20t82 20z" glyph-name="Aring" horiz-adv-x="671" unicode="Å"/>
<glyph d="M649 20h297v-20h-386l-95 230h-337l-93 -230h-21l285 700h601v-20h-522l131 -320h305v-20h-296zM136 250h321l-159 386h-2z" glyph-name="AE" horiz-adv-x="965" unicode="Æ"/>
<glyph d="M233.5 31q-80.5 46 -125.5 129t-45 190q0 108 45 190.5t125.5 128.5t184.5 46q84 0 153 -35.5t113.5 -99t55.5 -145.5h-20q-11 74 -49 130.5t-97 88t-131 31.5q-85 0 -150 -42t-101.5 -118t-36.5 -175q0 -98 36.5 -174t102 -118t149.5 -42q72 0 131 31.5t97 88t49 129.5 h20q-11 -82 -55.5 -145.5t-113.5 -99t-153 -35.5q-104 0 -184.5 46zM367 -245h-84l121 174h16z" glyph-name="Ccedilla" horiz-adv-x="794" unicode="Ç"/>
<glyph d="M121 700h400v-20h-310v-320h224v-20h-224v-320h356v-20h-446v700zM305 771l-121 174h84l54 -174h-17z" glyph-name="Egrave" horiz-adv-x="587" unicode="È"/>
<glyph d="M121 700h400v-20h-310v-320h224v-20h-224v-320h356v-20h-446v700zM374 945h84l-120 -174h-18z" glyph-name="Eacute" horiz-adv-x="587" unicode="É"/>
<glyph d="M121 700h400v-20h-310v-320h224v-20h-224v-320h356v-20h-446v700zM405 785l-118 125l-118 -125h-26l147 160h61l147 -160h-93z" glyph-name="Ecircumflex" horiz-adv-x="587" unicode="Ê"/>
<glyph d="M121 700h400v-20h-310v-320h224v-20h-224v-320h356v-20h-446v700zM203 945h94l-42 -174h-9zM345 945h94l-43 -174h-9z" glyph-name="Edieresis" horiz-adv-x="587" unicode="Ë"/>
<glyph d="M121 700h90v-700h-90v700zM150 771l-121 174h84l54 -174h-17z" glyph-name="Igrave" horiz-adv-x="332" unicode="Ì"/>
<glyph d="M121 700h90v-700h-90v700zM219 945h84l-120 -174h-18z" glyph-name="Iacute" horiz-adv-x="332" unicode="Í"/>
<glyph d="M121 700h90v-700h-90v700zM250 785l-118 125l-118 -125h-26l147 160h61l147 -160h-93z" glyph-name="Icircumflex" horiz-adv-x="332" unicode="Î"/>
<glyph d="M121 700h90v-700h-90v700zM48 945h94l-42 -174h-9zM190 945h94l-43 -174h-9z" glyph-name="Idieresis" horiz-adv-x="332" unicode="Ï"/>
<glyph d="M532.5 656q86.5 -44 134 -123.5t47.5 -182.5t-47.5 -182.5t-134 -123.5t-200.5 -44h-211v340h-79v20h79v340h211q114 0 200.5 -44zM488 59q65 39 100 113.5t35 177.5t-35 177.5t-100 114t-152 39.5h-125v-321h149v-20h-149v-320h125q87 0 152 39z" glyph-name="Eth" horiz-adv-x="777" unicode="Ð"/>
<glyph d="M119 700h89l450 -575v575h21v-714h-23l-516 653v-639h-21v700zM240.5 892q27.5 28 69.5 28q27 0 51 -6.5t59 -18.5q30 -11 50 -16t41 -5q23 0 39.5 13t16.5 33h18q0 -44 -27 -72t-69 -28q-27 0 -51 6.5t-59 18.5t-53.5 17t-38.5 5q-23 0 -39.5 -13t-16.5 -34h-18 q0 44 27.5 72z" glyph-name="Ntilde" horiz-adv-x="798" unicode="Ñ"/>
<glyph d="M239.5 32q-82.5 47 -129.5 130.5t-47 187.5q0 105 47 188t129.5 130t185.5 47q104 0 186.5 -47t129 -130t46.5 -188q0 -104 -46.5 -187.5t-129 -130.5t-186.5 -47q-103 0 -185.5 47zM566 46q61 42 95 120.5t34 183.5t-34 183.5t-95 120.5t-141 42t-141 -42t-95 -120.5 t-34 -183.5t34 -183.5t95 -120.5t141 -42t141 42zM409 771l-121 174h84l54 -174h-17z" glyph-name="Ograve" horiz-adv-x="850" unicode="Ò"/>
<glyph d="M239.5 32q-82.5 47 -129.5 130.5t-47 187.5q0 105 47 188t129.5 130t185.5 47q104 0 186.5 -47t129 -130t46.5 -188q0 -104 -46.5 -187.5t-129 -130.5t-186.5 -47q-103 0 -185.5 47zM566 46q61 42 95 120.5t34 183.5t-34 183.5t-95 120.5t-141 42t-141 -42t-95 -120.5 t-34 -183.5t34 -183.5t95 -120.5t141 -42t141 42zM478 945h84l-120 -174h-18z" glyph-name="Oacute" horiz-adv-x="850" unicode="Ó"/>
<glyph d="M239.5 32q-82.5 47 -129.5 130.5t-47 187.5q0 105 47 188t129.5 130t185.5 47q104 0 186.5 -47t129 -130t46.5 -188q0 -104 -46.5 -187.5t-129 -130.5t-186.5 -47q-103 0 -185.5 47zM566 46q61 42 95 120.5t34 183.5t-34 183.5t-95 120.5t-141 42t-141 -42t-95 -120.5 t-34 -183.5t34 -183.5t95 -120.5t141 -42t141 42zM509 785l-118 125l-118 -125h-26l147 160h61l147 -160h-93z" glyph-name="Ocircumflex" horiz-adv-x="850" unicode="Ô"/>
<glyph d="M239.5 32q-82.5 47 -129.5 130.5t-47 187.5q0 105 47 188t129.5 130t185.5 47q104 0 186.5 -47t129 -130t46.5 -188q0 -104 -46.5 -187.5t-129 -130.5t-186.5 -47q-103 0 -185.5 47zM566 46q61 42 95 120.5t34 183.5t-34 183.5t-95 120.5t-141 42t-141 -42t-95 -120.5 t-34 -183.5t34 -183.5t95 -120.5t141 -42t141 42zM266.5 892q27.5 28 69.5 28q27 0 51 -6.5t59 -18.5q30 -11 50 -16t41 -5q23 0 39.5 13t16.5 33h18q0 -44 -27 -72t-69 -28q-27 0 -51 6.5t-59 18.5t-53.5 17t-38.5 5q-23 0 -39.5 -13t-16.5 -34h-18q0 44 27.5 72z" glyph-name="Otilde" horiz-adv-x="850" unicode="Õ"/>
<glyph d="M239.5 32q-82.5 47 -129.5 130.5t-47 187.5q0 105 47 188t129.5 130t185.5 47q104 0 186.5 -47t129 -130t46.5 -188q0 -104 -46.5 -187.5t-129 -130.5t-186.5 -47q-103 0 -185.5 47zM566 46q61 42 95 120.5t34 183.5t-34 183.5t-95 120.5t-141 42t-141 -42t-95 -120.5 t-34 -183.5t34 -183.5t95 -120.5t141 -42t141 42zM307 945h94l-42 -174h-9zM449 945h94l-43 -174h-9z" glyph-name="Odieresis" horiz-adv-x="850" unicode="Ö"/>
<glyph d="M117 202l148 148l-148 148l15 15l148 -148l148 148l15 -15l-148 -148l148 -148l-15 -15l-148 148l-148 -148z" glyph-name="multiply" unicode="×"/>
<glyph d="M289 9q-63 24 -111 68l-74 -77h-27l87 91q-49 49 -75 115.5t-26 143.5q0 105 47 188t129.5 130t185.5 47q73 0 136.5 -24t112.5 -68l73 77h27l-87 -91q48 -49 74 -115.5t26 -143.5q0 -104 -46.5 -187.5t-129 -130.5t-186.5 -47q-73 0 -136 24zM425 696q-80 0 -141 -42 t-95 -120.5t-34 -183.5q0 -59 16.5 -111t46.5 -92l404 424q-66 125 -197 125zM566 46q61 42 95 120.5t34 183.5q0 59 -16.5 110.5t-45.5 91.5l-405 -423q33 -62 83 -93.5t114 -31.5q80 0 141 42z" glyph-name="Oslash" horiz-adv-x="850" unicode="Ø"/>
<glyph d="M242.5 22q-65.5 37 -101 104.5t-35.5 157.5v416h90v-416q0 -130 61 -199.5t168 -69.5q69 0 121.5 34t81.5 96t29 144v411h20v-411q0 -93 -34 -161.5t-98 -105.5t-150 -37q-87 0 -152.5 37zM393 771l-121 174h84l54 -174h-17z" glyph-name="Ugrave" horiz-adv-x="776" unicode="Ù"/>
<glyph d="M242.5 22q-65.5 37 -101 104.5t-35.5 157.5v416h90v-416q0 -130 61 -199.5t168 -69.5q69 0 121.5 34t81.5 96t29 144v411h20v-411q0 -93 -34 -161.5t-98 -105.5t-150 -37q-87 0 -152.5 37zM462 945h84l-120 -174h-18z" glyph-name="Uacute" horiz-adv-x="776" unicode="Ú"/>
<glyph d="M242.5 22q-65.5 37 -101 104.5t-35.5 157.5v416h90v-416q0 -130 61 -199.5t168 -69.5q69 0 121.5 34t81.5 96t29 144v411h20v-411q0 -93 -34 -161.5t-98 -105.5t-150 -37q-87 0 -152.5 37zM493 785l-118 125l-118 -125h-26l147 160h61l147 -160h-93z" glyph-name="Ucircumflex" horiz-adv-x="776" unicode="Û"/>
<glyph d="M242.5 22q-65.5 37 -101 104.5t-35.5 157.5v416h90v-416q0 -130 61 -199.5t168 -69.5q69 0 121.5 34t81.5 96t29 144v411h20v-411q0 -93 -34 -161.5t-98 -105.5t-150 -37q-87 0 -152.5 37zM291 945h94l-42 -174h-9zM433 945h94l-43 -174h-9z" glyph-name="Udieresis" horiz-adv-x="776" unicode="Ü"/>
<glyph d="M274 281l-269 419h95l254 -399l255 399h23l-268 -420v-280h-90v281zM374 945h84l-120 -174h-18z" glyph-name="Yacute" horiz-adv-x="635" unicode="Ý"/>
<glyph d="M208 700v-145h120q127 0 199.5 -53t72.5 -147q0 -93 -72.5 -146.5t-199.5 -53.5h-120v-155h-87v700h87zM464 222.5q50 47.5 50 132.5q0 86 -50 133t-141 47h-115v-360h115q91 0 141 47.5z" glyph-name="Thorn" horiz-adv-x="651" unicode="Þ"/>
<glyph d="M40 480v20h101v57q0 86 59 134.5t163 48.5q102 0 162.5 -48t60.5 -132v-74q-37 5 -69 5q-58 0 -101 -25t-43 -77q0 -30 21 -49t51 -29t95 -27q58 -13 98 -27.5t68 -44t28 -78.5q0 -51 -31.5 -83.5t-78 -47t-92.5 -14.5q-85 0 -146.5 40.5t-75.5 116.5h20 q14 -67 68.5 -101t127.5 -34q56 0 103 23.5t47 71.5q0 35 -22 55t-51.5 29.5t-98.5 26.5q-85 19 -135 50t-50 97q0 64 47.5 97.5t115.5 38.5h28v68q0 72 -45 112t-118 40q-72 0 -114 -33t-42 -94q0 -23 12 -54q9 -28 13.5 -49.5t4.5 -55.5v-634h-80v680h-101z" glyph-name="germandbls" horiz-adv-x="758" unicode="ß"/>
<glyph d="M82.5 24q-41.5 35 -41.5 94q0 74 65.5 106.5t171.5 41.5q73 6 110.5 22.5t37.5 49.5q0 68 -42 107.5t-109 39.5q-71 0 -119.5 -43.5t-60.5 -118.5h-19q12 87 70.5 137t146.5 50q61 0 108.5 -25t74 -71t26.5 -108v-286h69v-20h-146v131q-25 -66 -84.5 -104t-137.5 -38 q-79 0 -120.5 35zM329 44q44 27 69.5 74.5t25.5 106.5l1 62q-27 -25 -116 -35q-98 -11 -142.5 -42t-44.5 -88q0 -51 29.5 -78t79.5 -27q54 0 98 27zM265 571l-121 174h84l54 -174h-17z" glyph-name="agrave" horiz-adv-x="598" unicode="à"/>
<glyph d="M82.5 24q-41.5 35 -41.5 94q0 74 65.5 106.5t171.5 41.5q73 6 110.5 22.5t37.5 49.5q0 68 -42 107.5t-109 39.5q-71 0 -119.5 -43.5t-60.5 -118.5h-19q12 87 70.5 137t146.5 50q61 0 108.5 -25t74 -71t26.5 -108v-286h69v-20h-146v131q-25 -66 -84.5 -104t-137.5 -38 q-79 0 -120.5 35zM329 44q44 27 69.5 74.5t25.5 106.5l1 62q-27 -25 -116 -35q-98 -11 -142.5 -42t-44.5 -88q0 -51 29.5 -78t79.5 -27q54 0 98 27zM334 745h84l-120 -174h-18z" glyph-name="aacute" horiz-adv-x="598" unicode="á"/>
<glyph d="M82.5 24q-41.5 35 -41.5 94q0 74 65.5 106.5t171.5 41.5q73 6 110.5 22.5t37.5 49.5q0 68 -42 107.5t-109 39.5q-71 0 -119.5 -43.5t-60.5 -118.5h-19q12 87 70.5 137t146.5 50q61 0 108.5 -25t74 -71t26.5 -108v-286h69v-20h-146v131q-25 -66 -84.5 -104t-137.5 -38 q-79 0 -120.5 35zM329 44q44 27 69.5 74.5t25.5 106.5l1 62q-27 -25 -116 -35q-98 -11 -142.5 -42t-44.5 -88q0 -51 29.5 -78t79.5 -27q54 0 98 27zM365 585l-118 125l-118 -125h-26l147 160h61l147 -160h-93z" glyph-name="acircumflex" horiz-adv-x="598" unicode="â"/>
<glyph d="M82.5 24q-41.5 35 -41.5 94q0 74 65.5 106.5t171.5 41.5q73 6 110.5 22.5t37.5 49.5q0 68 -42 107.5t-109 39.5q-71 0 -119.5 -43.5t-60.5 -118.5h-19q12 87 70.5 137t146.5 50q61 0 108.5 -25t74 -71t26.5 -108v-286h69v-20h-146v131q-25 -66 -84.5 -104t-137.5 -38 q-79 0 -120.5 35zM329 44q44 27 69.5 74.5t25.5 106.5l1 62q-27 -25 -116 -35q-98 -11 -142.5 -42t-44.5 -88q0 -51 29.5 -78t79.5 -27q54 0 98 27zM122.5 692q27.5 28 69.5 28q27 0 51 -6.5t59 -18.5q30 -11 50 -16t41 -5q23 0 39.5 13t16.5 33h18q0 -44 -27 -72t-69 -28 q-27 0 -51 6.5t-59 18.5t-53.5 17t-38.5 5q-23 0 -39.5 -13t-16.5 -34h-18q0 44 27.5 72z" glyph-name="atilde" horiz-adv-x="598" unicode="ã"/>
<glyph d="M82.5 24q-41.5 35 -41.5 94q0 74 65.5 106.5t171.5 41.5q73 6 110.5 22.5t37.5 49.5q0 68 -42 107.5t-109 39.5q-71 0 -119.5 -43.5t-60.5 -118.5h-19q12 87 70.5 137t146.5 50q61 0 108.5 -25t74 -71t26.5 -108v-286h69v-20h-146v131q-25 -66 -84.5 -104t-137.5 -38 q-79 0 -120.5 35zM329 44q44 27 69.5 74.5t25.5 106.5l1 62q-27 -25 -116 -35q-98 -11 -142.5 -42t-44.5 -88q0 -51 29.5 -78t79.5 -27q54 0 98 27zM163 745h94l-42 -174h-9zM305 745h94l-43 -174h-9z" glyph-name="adieresis" horiz-adv-x="598" unicode="ä"/>
<glyph d="M82.5 24q-41.5 35 -41.5 94q0 74 65.5 106.5t171.5 41.5q73 6 110.5 22.5t37.5 49.5q0 68 -42 107.5t-109 39.5q-71 0 -119.5 -43.5t-60.5 -118.5h-19q12 87 70.5 137t146.5 50q61 0 108.5 -25t74 -71t26.5 -108v-286h69v-20h-146v131q-25 -66 -84.5 -104t-137.5 -38 q-79 0 -120.5 35zM329 44q44 27 69.5 74.5t25.5 106.5l1 62q-27 -25 -116 -35q-98 -11 -142.5 -42t-44.5 -88q0 -51 29.5 -78t79.5 -27q54 0 98 27zM190 607.5q-37 37.5 -37 90.5q0 35 17 64.5t46.5 47t64.5 17.5t64.5 -17.5t47 -47t17.5 -64.5t-17.5 -64.5t-47 -46.5 t-64.5 -17q-54 0 -91 37.5zM363 645q29 20 29 53t-29 53.5t-82 20.5t-81.5 -20.5t-28.5 -53.5t28.5 -53t81.5 -20t82 20z" glyph-name="aring" horiz-adv-x="598" unicode="å"/>
<glyph d="M82.5 24q-41.5 35 -41.5 94q0 74 65.5 106.5t171.5 41.5q73 6 110.5 22.5t37.5 49.5q0 68 -42 107.5t-109 39.5q-71 0 -119.5 -43.5t-60.5 -118.5h-19q12 87 70.5 137t146.5 50q69 0 115.5 -32.5t62.5 -89.5q31 56 87.5 89t126.5 33q75 0 134 -33.5t92.5 -92.5t34.5 -133 v-11h-443q2 -68 28 -118.5t71 -78t102 -27.5q70 0 122 36t71 96h21q-19 -73 -82.5 -115.5t-151.5 -42.5t-154.5 47t-93.5 125q-21 -85 -86 -129t-147 -44q-79 0 -120.5 35zM840.5 383q-23.5 52 -64 80t-91.5 28q-52 0 -93 -28.5t-64.5 -79.5t-25.5 -116v-7h364 q-2 71 -25.5 123zM329 44q44 27 69.5 74.5t25.5 106.5l1 62q-27 -25 -116 -35q-98 -11 -142.5 -42t-44.5 -88q0 -51 29.5 -78t79.5 -27q54 0 98 27z" glyph-name="ae" horiz-adv-x="983" unicode="æ"/>
<glyph d="M176.5 23.5q-59.5 33.5 -93 93t-33.5 133.5q0 75 33.5 134t93 92.5t134.5 33.5q97 0 160.5 -51t80.5 -141h-20q-17 77 -69.5 121.5t-129.5 44.5q-60 0 -106 -29t-71 -82t-25 -123t25 -123t71 -82t106 -29q77 0 129.5 45t69.5 122h20q-17 -90 -80.5 -141.5t-160.5 -51.5 q-75 0 -134.5 33.5zM260 -245h-84l121 174h16z" glyph-name="ccedilla" horiz-adv-x="591" unicode="ç"/>
<glyph d="M178 23.5q-60 33.5 -94 93t-34 133.5t34 133.5t94.5 93t135.5 33.5t134 -33.5t92.5 -92.5t34.5 -133v-11h-443q2 -68 28 -118.5t71 -78t102 -27.5q70 0 122 36t71 96h21q-20 -73 -83 -115.5t-151 -42.5q-75 0 -135 33.5zM469.5 383q-23.5 52 -64.5 80t-92 28 q-52 0 -92.5 -28.5t-64 -79.5t-25.5 -116v-7h364q-2 71 -25.5 123zM290 571l-121 174h84l54 -174h-17z" glyph-name="egrave" horiz-adv-x="612" unicode="è"/>
<glyph d="M178 23.5q-60 33.5 -94 93t-34 133.5t34 133.5t94.5 93t135.5 33.5t134 -33.5t92.5 -92.5t34.5 -133v-11h-443q2 -68 28 -118.5t71 -78t102 -27.5q70 0 122 36t71 96h21q-20 -73 -83 -115.5t-151 -42.5q-75 0 -135 33.5zM469.5 383q-23.5 52 -64.5 80t-92 28 q-52 0 -92.5 -28.5t-64 -79.5t-25.5 -116v-7h364q-2 71 -25.5 123zM359 745h84l-120 -174h-18z" glyph-name="eacute" horiz-adv-x="612" unicode="é"/>
<glyph d="M178 23.5q-60 33.5 -94 93t-34 133.5t34 133.5t94.5 93t135.5 33.5t134 -33.5t92.5 -92.5t34.5 -133v-11h-443q2 -68 28 -118.5t71 -78t102 -27.5q70 0 122 36t71 96h21q-20 -73 -83 -115.5t-151 -42.5q-75 0 -135 33.5zM469.5 383q-23.5 52 -64.5 80t-92 28 q-52 0 -92.5 -28.5t-64 -79.5t-25.5 -116v-7h364q-2 71 -25.5 123zM390 585l-118 125l-118 -125h-26l147 160h61l147 -160h-93z" glyph-name="ecircumflex" horiz-adv-x="612" unicode="ê"/>
<glyph d="M178 23.5q-60 33.5 -94 93t-34 133.5t34 133.5t94.5 93t135.5 33.5t134 -33.5t92.5 -92.5t34.5 -133v-11h-443q2 -68 28 -118.5t71 -78t102 -27.5q70 0 122 36t71 96h21q-20 -73 -83 -115.5t-151 -42.5q-75 0 -135 33.5zM469.5 383q-23.5 52 -64.5 80t-92 28 q-52 0 -92.5 -28.5t-64 -79.5t-25.5 -116v-7h364q-2 71 -25.5 123zM188 745h94l-42 -174h-9zM330 745h94l-43 -174h-9z" glyph-name="edieresis" horiz-adv-x="612" unicode="ë"/>
<glyph d="M96 500h80v-500h-80v500zM120 571l-121 174h84l54 -174h-17z" glyph-name="igrave" horiz-adv-x="272" unicode="ì"/>
<glyph d="M96 500h80v-500h-80v500zM189 745h84l-120 -174h-18z" glyph-name="iacute" horiz-adv-x="272" unicode="í"/>
<glyph d="M96 500h80v-500h-80v500zM220 585l-118 125l-118 -125h-26l147 160h61l147 -160h-93z" glyph-name="icircumflex" horiz-adv-x="272" unicode="î"/>
<glyph d="M96 500h80v-500h-80v500zM18 745h94l-42 -174h-9zM160 745h94l-43 -174h-9z" glyph-name="idieresis" horiz-adv-x="272" unicode="ï"/>
<glyph d="M182 24q-62 34 -97 93t-35 133t35 133.5t97 93t139 33.5q39 0 69.5 -8.5t58.5 -24.5q-18 28 -34 46l-53 67h-185v20h167l-86 100h26l86 -100h154v-20h-136l106 -132q52 -56 74.5 -104t22.5 -104q0 -74 -35 -133t-97 -93t-138 -34q-77 0 -139 34zM419 38.5q43 29.5 67 84 t24 127.5t-24 128t-67 84.5t-98 29.5q-56 0 -99 -29.5t-67 -84.5t-24 -128t24 -127.5t67 -84t99 -29.5q55 0 98 29.5z" glyph-name="eth" horiz-adv-x="641" unicode="ð"/>
<glyph d="M176 500v-125q23 63 72.5 99t115.5 36q100 0 155 -63t55 -178v-269h-80v269q0 103 -40 158.5t-114 55.5q-46 0 -83.5 -28.5t-59 -78t-21.5 -111.5v-265h-80v500h80zM178.5 692q27.5 28 69.5 28q27 0 51 -6.5t59 -18.5q30 -11 50 -16t41 -5q23 0 39.5 13t16.5 33h18 q0 -44 -27 -72t-69 -28q-27 0 -51 6.5t-59 18.5t-53.5 17t-38.5 5q-23 0 -39.5 -13t-16.5 -34h-18q0 44 27.5 72z" glyph-name="ntilde" horiz-adv-x="660" unicode="ñ"/>
<glyph d="M182 24q-62 34 -97 93t-35 133t35 133.5t97 93t139 33.5t138.5 -33.5t96.5 -93t35 -133.5t-35 -133t-97 -93t-138 -34q-77 0 -139 34zM419 38.5q43 29.5 67 84t24 127.5t-24 128t-67 84.5t-98 29.5q-56 0 -99 -29.5t-67 -84.5t-24 -128t24 -127.5t67 -84t99 -29.5 q55 0 98 29.5zM305 571l-121 174h84l54 -174h-17z" glyph-name="ograve" horiz-adv-x="641" unicode="ò"/>
<glyph d="M182 24q-62 34 -97 93t-35 133t35 133.5t97 93t139 33.5t138.5 -33.5t96.5 -93t35 -133.5t-35 -133t-97 -93t-138 -34q-77 0 -139 34zM419 38.5q43 29.5 67 84t24 127.5t-24 128t-67 84.5t-98 29.5q-56 0 -99 -29.5t-67 -84.5t-24 -128t24 -127.5t67 -84t99 -29.5 q55 0 98 29.5zM374 745h84l-120 -174h-18z" glyph-name="oacute" horiz-adv-x="641" unicode="ó"/>
<glyph d="M182 24q-62 34 -97 93t-35 133t35 133.5t97 93t139 33.5t138.5 -33.5t96.5 -93t35 -133.5t-35 -133t-97 -93t-138 -34q-77 0 -139 34zM419 38.5q43 29.5 67 84t24 127.5t-24 128t-67 84.5t-98 29.5q-56 0 -99 -29.5t-67 -84.5t-24 -128t24 -127.5t67 -84t99 -29.5 q55 0 98 29.5zM405 585l-118 125l-118 -125h-26l147 160h61l147 -160h-93z" glyph-name="ocircumflex" horiz-adv-x="641" unicode="ô"/>
<glyph d="M182 24q-62 34 -97 93t-35 133t35 133.5t97 93t139 33.5t138.5 -33.5t96.5 -93t35 -133.5t-35 -133t-97 -93t-138 -34q-77 0 -139 34zM419 38.5q43 29.5 67 84t24 127.5t-24 128t-67 84.5t-98 29.5q-56 0 -99 -29.5t-67 -84.5t-24 -128t24 -127.5t67 -84t99 -29.5 q55 0 98 29.5zM162.5 692q27.5 28 69.5 28q27 0 51 -6.5t59 -18.5q30 -11 50 -16t41 -5q23 0 39.5 13t16.5 33h18q0 -44 -27 -72t-69 -28q-27 0 -51 6.5t-59 18.5t-53.5 17t-38.5 5q-23 0 -39.5 -13t-16.5 -34h-18q0 44 27.5 72z" glyph-name="otilde" horiz-adv-x="641" unicode="õ"/>
<glyph d="M182 24q-62 34 -97 93t-35 133t35 133.5t97 93t139 33.5t138.5 -33.5t96.5 -93t35 -133.5t-35 -133t-97 -93t-138 -34q-77 0 -139 34zM419 38.5q43 29.5 67 84t24 127.5t-24 128t-67 84.5t-98 29.5q-56 0 -99 -29.5t-67 -84.5t-24 -128t24 -127.5t67 -84t99 -29.5 q55 0 98 29.5zM203 745h94l-42 -174h-9zM345 745h94l-43 -174h-9z" glyph-name="odieresis" horiz-adv-x="641" unicode="ö"/>
<glyph d="M258.5 498.5q-8.5 8.5 -8.5 21.5t8.5 21.5t21.5 8.5t21.5 -8.5t8.5 -21.5t-8.5 -21.5t-21.5 -8.5t-21.5 8.5zM80 360h400v-20h-400v20zM258.5 158.5q-8.5 8.5 -8.5 21.5t8.5 21.5t21.5 8.5t21.5 -8.5t8.5 -21.5t-8.5 -21.5t-21.5 -8.5t-21.5 8.5z" glyph-name="divide" unicode="÷"/>
<glyph d="M221 6.5q-46 16.5 -81 47.5l-52 -54h-27l64 66q-36 36 -55.5 83t-19.5 101q0 74 35 133.5t97 93t139 33.5q51 0 95.5 -15t78.5 -44l47 49h27l-59 -61q39 -35 60 -83.5t21 -105.5q0 -74 -35 -133t-97 -93t-138 -34q-54 0 -100 16.5zM321 492q-56 0 -99 -29.5t-67 -84.5 t-24 -128q0 -37 11.5 -71.5t31.5 -60.5l281 292q-46 82 -134 82zM419 38.5q43 29.5 67 84t24 127.5q0 81 -44 143l-282 -293q46 -91 137 -91q55 0 98 29.5z" glyph-name="oslash" horiz-adv-x="641" unicode="ø"/>
<glyph d="M141 53.5q-55 63.5 -55 177.5v269h80v-269q0 -102 40.5 -158t114.5 -56q46 0 83.5 28.5t59 78t21.5 111.5v265h79v-500h-79v126q-23 -64 -73 -100t-116 -36q-100 0 -155 63.5zM309 571l-121 174h84l54 -174h-17z" glyph-name="ugrave" horiz-adv-x="660" unicode="ù"/>
<glyph d="M141 53.5q-55 63.5 -55 177.5v269h80v-269q0 -102 40.5 -158t114.5 -56q46 0 83.5 28.5t59 78t21.5 111.5v265h79v-500h-79v126q-23 -64 -73 -100t-116 -36q-100 0 -155 63.5zM378 745h84l-120 -174h-18z" glyph-name="uacute" horiz-adv-x="660" unicode="ú"/>
<glyph d="M141 53.5q-55 63.5 -55 177.5v269h80v-269q0 -102 40.5 -158t114.5 -56q46 0 83.5 28.5t59 78t21.5 111.5v265h79v-500h-79v126q-23 -64 -73 -100t-116 -36q-100 0 -155 63.5zM409 585l-118 125l-118 -125h-26l147 160h61l147 -160h-93z" glyph-name="ucircumflex" horiz-adv-x="660" unicode="û"/>
<glyph d="M141 53.5q-55 63.5 -55 177.5v269h80v-269q0 -102 40.5 -158t114.5 -56q46 0 83.5 28.5t59 78t21.5 111.5v265h79v-500h-79v126q-23 -64 -73 -100t-116 -36q-100 0 -155 63.5zM207 745h94l-42 -174h-9zM349 745h94l-43 -174h-9z" glyph-name="udieresis" horiz-adv-x="660" unicode="ü"/>
<glyph d="M71 -167.5q-41 42.5 -41 110.5v27h19v-26q0 -59 34.5 -96t89.5 -37q49 0 79.5 30t30.5 79v12q0 26 -9 55.5t-34 80.5l-228 432h88l187 -354q10 -21 21 -49.5t13 -45.5q5 24 14 44l167 405h22l-172 -416q-11 -27 -15.5 -50t-4.5 -53v-24q0 -77 -42 -122t-111 -45 q-67 0 -108 42.5zM329 745h84l-120 -174h-18z" glyph-name="yacute" horiz-adv-x="533" unicode="ý"/>
<glyph d="M176 710v-341q24 66 77.5 103.5t126.5 37.5q66 0 120 -33t85 -92.5t31 -134.5t-31 -134t-85 -92.5t-120 -33.5q-72 0 -126 38t-78 103v-331h-80v910h80zM449 44q40 28 63 81t23 125q0 73 -23 125.5t-63 80.5t-90 28q-53 0 -95.5 -31t-66.5 -84.5t-24 -118.5t24 -118.5 t66.5 -84.5t95.5 -31q50 0 90 28z" glyph-name="thorn" horiz-adv-x="666" unicode="þ"/>
<glyph d="M96 500h80v-500h-80v500z" glyph-name="dotlessi" horiz-adv-x="272" unicode="ı"/>
<glyph d="M-36.5 -194q-34.5 16 -54 44.5t-19.5 62.5h19v-1q0 -43 37.5 -72t89.5 -29q54 0 89.5 31t35.5 90q0 23 -5.5 48t-6.5 30q-8 36 -12.5 64t-4.5 62v364h80v-532q0 -83 -46.5 -130.5t-125.5 -47.5q-42 0 -76.5 16z" glyph-name="uni0237" horiz-adv-x="308" unicode="ȷ"/>
<glyph d="M-316 571l-121 174h84l54 -174h-17z" glyph-name="gravecomb" horiz-adv-x="0" unicode="̀"/>
<glyph d="M-247 745h84l-120 -174h-18z" glyph-name="acutecomb" horiz-adv-x="0" unicode="́"/>
<glyph d="M-216 585l-118 125l-118 -125h-26l147 160h61l147 -160h-93z" glyph-name="uni0302" horiz-adv-x="0" unicode="̂"/>
<glyph d="M-458.5 692q27.5 28 69.5 28q27 0 51 -6.5t59 -18.5q30 -11 50 -16t41 -5q23 0 39.5 13t16.5 33h18q0 -44 -27 -72t-69 -28q-27 0 -51 6.5t-59 18.5t-53.5 17t-38.5 5q-23 0 -39.5 -13t-16.5 -34h-18q0 44 27.5 72z" glyph-name="tildecomb" horiz-adv-x="0" unicode="̃"/>
<glyph d="M-348 745h97l-44 -174h-10z" glyph-name="uni0307" horiz-adv-x="0" unicode="̇"/>
<glyph d="M-418 745h94l-42 -174h-9zM-276 745h94l-43 -174h-9z" glyph-name="uni0308" horiz-adv-x="0" unicode="̈"/>
<glyph d="M-391 607.5q-37 37.5 -37 90.5q0 35 17 64.5t46.5 47t64.5 17.5t64.5 -17.5t47 -47t17.5 -64.5t-17.5 -64.5t-47 -46.5t-64.5 -17q-54 0 -91 37.5zM-218 645q29 20 29 53t-29 53.5t-82 20.5t-81.5 -20.5t-28.5 -53.5t28.5 -53t81.5 -20t82 20z" glyph-name="uni030A" horiz-adv-x="0" unicode="̊"/>
<glyph d="M-344 -245h-84l121 174h16z" glyph-name="uni0327" horiz-adv-x="0" unicode="̧"/>
<glyph d="M80 310h387v-20h-387v20z" glyph-name="endash" horiz-adv-x="547" unicode="–"/>
<glyph d="M108 350l109 -200h-21l-106 194v12l106 194h21zM268 350l109 -200h-21l-106 194v12l106 194h21z" glyph-name="guillemotleft.case" horiz-adv-x="467"/>
<glyph d="M359 350l-109 200h21l106 -194v-12l-106 -194h-21zM199 350l-109 200h21l106 -194v-12l-106 -194h-21z" glyph-name="guillemotright.case" horiz-adv-x="467"/>
<glyph d="M225 33q-84 48 -132 132t-48 185t48 185t132 132t185 48t185 -48t132 -132t48 -185q0 -112 -56 -198h-195v107q-19 -55 -67.5 -85.5t-113.5 -30.5q-60 0 -95 28t-35 75q0 56 47.5 85.5t155.5 36.5q60 4 85 19t25 44q0 49 -34.5 80.5t-87.5 31.5q-56 0 -95 -34.5 t-48 -93.5h-20q10 70 58 110.5t120 40.5q76 0 123.5 -44.5t47.5 -120.5v-229h118q47 79 47 178q0 96 -45.5 175t-124.5 124.5t-175 45.5t-175 -45.5t-124.5 -124.5t-45.5 -175t45.5 -175t124.5 -124.5t175 -45.5q70 0 133 25.5t111 71.5l14 -13q-50 -50 -116.5 -77 t-141.5 -27q-101 0 -185 48zM446.5 192q35.5 22 56.5 60t21 82v47q-28 -22 -94 -29q-77 -8 -112.5 -32t-35.5 -69q0 -39 23 -60t65 -21q41 0 76.5 22z" glyph-name="at.case" horiz-adv-x="820"/>
<glyph d="M-348 745h97l-44 -174h-10z" glyph-name="uni0307.cv01" horiz-adv-x="0"/>
</font>
</defs>
</svg>
