<?xml version="1.0" encoding="UTF-8"?>
<!DOCTYPE svg  PUBLIC '-//W3C//DTD SVG 1.1//EN'  'http://www.w3.org/Graphics/SVG/1.1/DTD/svg11.dtd'>
<svg version="1.1" xmlns="http://www.w3.org/2000/svg">
<defs>
<font id="KyivTypeSans-Regular2" horiz-adv-x="560">
<font-face font-family="s" font-weight="400" ascent="800" bbox="-488 -245 993 1027" cap-height="700" descent="-200" panose-1="0 0 5 0 0 0 0 0 0 0" underline-position="-100" underline-thickness="50" unicode-range="U+0020-2013" units-per-em="1000" x-height="500"/>
<missing-glyph/>
<glyph glyph-name="space" horiz-adv-x="250" unicode=" "/>
<glyph d="M101 700h97l-27 -485h-42zM108.5 9.5q-17.5 17.5 -17.5 43.5t17.5 43t42.5 17q26 0 43 -17t17 -43t-17.5 -43.5t-42.5 -17.5t-42.5 17.5z" glyph-name="exclam" horiz-adv-x="302" unicode="!"/>
<glyph d="M43 707h97l-44 -202h-10zM197 707h97l-44 -202h-10z" glyph-name="quotedbl" horiz-adv-x="336" unicode='"'/>
<glyph d="M220 165h-140v78h140v215h-140v77h140v180h46v-180h168v180h46v-180h141v-77h-141v-215h141v-78h-141v-180h-46v180h-168v-180h-46v180zM434 243v215h-168v-215h168z" glyph-name="numbersign" horiz-adv-x="700" unicode="#"/>
<glyph d="M154.5 57q-74.5 65 -86.5 172h54q14 -91 78.5 -143.5t164.5 -52.5q89 0 140 34.5t51 98.5q0 47 -27.5 75t-70 43t-113.5 30q-81 18 -132.5 37t-88.5 58.5t-37 104.5q0 91 68.5 144.5t178.5 56.5v115h41v-116q107 -6 176 -68.5t79 -168.5h-55q-12 89 -71 139t-152 50 q-81 0 -133 -35.5t-52 -98.5q0 -44 27.5 -70.5t67.5 -40t113 -30.5q86 -19 138.5 -38.5t89 -60t36.5 -108.5q0 -92 -69 -144t-185 -54v-116h-41v116q-115 6 -189.5 71z" glyph-name="dollar" horiz-adv-x="700" unicode="$"/>
<glyph d="M118.5 399q-37.5 22 -59.5 59.5t-22 82.5q0 46 21.5 83.5t59.5 59t83 21.5q46 0 83.5 -21.5t59.5 -59t22 -83.5q0 -45 -22 -82.5t-59.5 -59.5t-83.5 -22q-45 0 -82.5 22zM564 700h47l-412 -700h-47zM278.5 453q30.5 35 30.5 88q0 54 -30.5 88.5t-77.5 34.5t-77.5 -34.5 t-30.5 -88.5q0 -53 30.5 -88t77.5 -35t77.5 35zM479.5 17q-37.5 22 -59.5 59.5t-22 83.5q0 45 22 82.5t59.5 59.5t82.5 22q46 0 83.5 -22t59.5 -59.5t22 -82.5q0 -46 -22 -83.5t-59.5 -59.5t-83.5 -22q-45 0 -82.5 22zM639.5 71q30.5 35 30.5 89q0 53 -30.5 88t-77.5 35 t-77.5 -35t-30.5 -88q0 -54 30.5 -89t77.5 -35t77.5 35z" glyph-name="percent" horiz-adv-x="763" unicode="%"/>
<glyph d="M153.5 12q-57.5 27 -89 75.5t-31.5 112.5q0 88 61.5 143.5t165.5 60.5h5l-191 245v51h495v-50h-393l365 -463q45 79 56 190h53q-12 -140 -73 -233l111 -144h-104l-65 82q-45 -47 -103.5 -72t-128.5 -25q-76 0 -133.5 27zM403 56q48 22 84 63l-190 247h-19 q-75 -3 -120 -47t-45 -112q0 -77 49.5 -125t135.5 -48q57 0 105 22z" glyph-name="ampersand" horiz-adv-x="717" unicode="&amp;"/>
<glyph d="M43 707h97l-44 -202h-10z" glyph-name="quotesingle" horiz-adv-x="182" unicode="'"/>
<glyph d="M237 -56.5q-62 58.5 -96 164t-34 242.5q0 138 34 243.5t96 163.5t143 58v-45q-59 0 -104 -51.5t-69 -146.5t-24 -222t24 -222t69 -146.5t104 -51.5v-45q-81 0 -143 58.5z" glyph-name="parenleft" horiz-adv-x="500" unicode="("/>
<glyph d="M263 757q62 -58 96 -163.5t34 -243.5q0 -137 -34 -242.5t-96 -164t-143 -58.5v45q59 0 104 51.5t69 146.5t24 222t-24 222t-69 146.5t-104 51.5v45q81 0 143 -58z" glyph-name="parenright" horiz-adv-x="500" unicode=")"/>
<glyph d="M185 554l-77 -69l-69 20l19 69h119l-147 45v69l64 17l88 -105l-50 141l63 53l63 -53l-50 -141l88 105l64 -17v-69l-148 -45h119l19 -69l-68 -20l-78 69l9 -100h-37z" glyph-name="asterisk" horiz-adv-x="390" unicode="*"/>
<glyph d="M484 327h-181v-180h-46v180h-180v46h180v181h46v-181h181v-46z" glyph-name="plus" unicode="+"/>
<glyph d="M81 -108q24 24 41 52.5t21 58.5q-8 -8 -19 -8q-24 4 -38.5 20t-14.5 38q0 25 17 42.5t43 17.5t43.5 -17.5t17.5 -47.5q0 -39 -21 -87t-47 -71h-43v2z" glyph-name="comma" horiz-adv-x="262" unicode=","/>
<glyph d="M77 327h250v-53h-250v53z" glyph-name="hyphen" horiz-adv-x="404" unicode="-"/>
<glyph d="M88.5 9.5q-17.5 17.5 -17.5 43.5t17.5 43t42.5 17q26 0 43 -17t17 -43t-17.5 -43.5t-42.5 -17.5t-42.5 17.5z" glyph-name="period" horiz-adv-x="262" unicode="."/>
<glyph d="M380 700h48l-338 -700h-48z" glyph-name="slash" horiz-adv-x="470" unicode="/"/>
<glyph d="M202 32q-69 47 -107.5 130t-38.5 188t38.5 188t107.5 130t155 47q87 0 156 -47t107.5 -130t38.5 -188t-38.5 -188t-107.5 -130t-156 -47q-86 0 -155 47zM468 74q49 40 76.5 112t27.5 164t-27.5 164t-76.5 112t-111 40t-111 -40t-76.5 -112t-27.5 -164t27.5 -164 t76.5 -112t111 -40t111 40z" glyph-name="zero" horiz-adv-x="714" unicode="0"/>
<glyph d="M184 620l-161 -105v59l189 126h57v-700h-85v620z" glyph-name="one" horiz-adv-x="396" unicode="1"/>
<glyph d="M336 244q66 46 101 96q-26 -24 -63 -36.5t-80 -11.5q-75 2 -133.5 29.5t-90.5 74.5t-32 105q0 60 34.5 109t97 77t142.5 28q79 0 141.5 -27.5t98 -76.5t35.5 -111q0 -141 -203 -276l-216 -147h435v-77h-556v46zM411.5 350.5q43.5 21.5 67.5 58.5t24 84q0 80 -53 128 t-138 48q-55 0 -98 -21.5t-67.5 -60.5t-24.5 -89q0 -49 24.5 -87.5t67.5 -60t98 -21.5q56 0 99.5 21.5z" glyph-name="two" horiz-adv-x="621" unicode="2"/>
<glyph d="M148 14.5q-59 28.5 -93 79t-36 114.5h53q2 -49 28 -88t70.5 -60.5t100.5 -21.5t100 23t68 63t24 90q0 72 -42.5 117t-111.5 45q-30 0 -58.5 -9t-48.5 -23l-11 -8l-29 35l276 252h-401v77h501v-50l-277 -255q41 19 84 19q59 -2 105 -28t72 -71t26 -103q0 -65 -33.5 -116.5 t-94 -80.5t-139.5 -29q-74 0 -133 28.5z" glyph-name="three" horiz-adv-x="575" unicode="3"/>
<glyph d="M405 181h-392v46l386 473h89v-449h146v-70h-146v-181h-83v181zM405 251v383l-318 -383h318z" glyph-name="four" horiz-adv-x="638" unicode="4"/>
<glyph d="M171 12q-59 26 -93.5 73t-39.5 109h54q7 -69 62 -112t137 -43q59 0 104.5 24.5t70.5 68t25 99.5q0 52 -24 93.5t-67 64.5t-100 23q-66 0 -115.5 -27t-69.5 -74l-51 1l56 388h427v-75h-387l-38 -248q31 37 82.5 57.5t115.5 20.5q74 0 132.5 -28t91.5 -79t33 -119 q0 -71 -34.5 -126t-96.5 -86t-141 -31q-75 0 -134 26z" glyph-name="five" horiz-adv-x="618" unicode="5"/>
<glyph d="M198.5 32q-67.5 47 -104.5 129.5t-37 188.5t37.5 189t106.5 129.5t160 46.5q66 0 120 -24t88 -67.5t42 -98.5h-57q-11 61 -62.5 99t-124.5 38q-66 0 -117.5 -35t-80.5 -103t-29 -165q0 -31 3 -61q20 73 83.5 115.5t151.5 42.5q72 0 130 -30t91 -84t33 -121 q0 -64 -35 -118t-98.5 -86t-143.5 -32q-89 0 -156.5 47zM451 57.5q44 25.5 69.5 68.5t25.5 95q0 54 -24 97t-67.5 67.5t-98.5 24.5q-54 0 -98.5 -23t-70 -62t-26.5 -86q0 -49 24.5 -97t69 -79t99.5 -31q53 0 97 25.5z" glyph-name="six" horiz-adv-x="677" unicode="6"/>
<glyph d="M296 335.5q86 168.5 200 286.5h-480v78h554v-50q-114 -120 -194.5 -295.5t-95.5 -354.5h-88q18 167 104 335.5z" glyph-name="seven" horiz-adv-x="580" unicode="7"/>
<glyph d="M192.5 10q-65.5 25 -102 70t-36.5 101q0 64 47 111t132 66q-73 17 -117.5 62.5t-44.5 103.5q0 54 34.5 97t96 67t139.5 24t139.5 -24t96 -67t34.5 -97q0 -58 -45 -103.5t-118 -62.5q85 -19 132 -66t47 -111q0 -56 -36.5 -101t-102 -70t-147.5 -25q-83 0 -148.5 25z M438 395.5q43 18.5 67.5 52t24.5 75.5t-24.5 75t-67.5 51.5t-97 18.5q-55 0 -98.5 -18.5t-67.5 -51.5t-24 -75t24 -75.5t67.5 -52t98.5 -18.5q54 0 97 18.5zM444.5 49.5q45.5 19.5 71 54.5t25.5 79t-25.5 79t-71 54.5t-103.5 19.5t-103.5 -19.5t-71.5 -54.5t-26 -79t26 -79 t71.5 -54.5t103.5 -19.5t103.5 19.5z" glyph-name="eight" horiz-adv-x="681" unicode="8"/>
<glyph d="M479 668q68 -47 105 -130t37 -188q0 -106 -38 -189t-107 -129.5t-160 -46.5q-66 0 -120 24.5t-88 67.5t-42 98h57q11 -61 62.5 -99t124.5 -38q66 0 118 35t81 103.5t29 164.5q0 21 -4 61q-20 -72 -83.5 -115t-151.5 -43q-72 0 -130 30t-91 84t-33 121q0 64 35 118 t98.5 86t143.5 32q89 0 157 -47zM226 642.5q-44 -25.5 -69.5 -68.5t-25.5 -95q0 -54 24 -97t67.5 -67.5t98.5 -24.5q54 0 98.5 23t70 62t26.5 86q0 49 -24.5 97t-69 79t-99.5 31q-53 0 -97 -25.5z" glyph-name="nine" horiz-adv-x="677" unicode="9"/>
<glyph d="M88.5 9.5q-17.5 17.5 -17.5 43.5t17.5 43t42.5 17q26 0 43 -17t17 -43t-17.5 -43.5t-42.5 -17.5t-42.5 17.5zM88.5 367.5q-17.5 17.5 -17.5 43.5t17.5 43t42.5 17q26 0 43 -17t17 -43t-17.5 -43.5t-42.5 -17.5t-42.5 17.5z" glyph-name="colon" horiz-adv-x="262" unicode=":"/>
<glyph d="M81 -108q24 24 41 52.5t21 58.5q-8 -8 -19 -8q-24 4 -38.5 20t-14.5 38q0 25 17 42.5t43 17.5t43.5 -17.5t17.5 -47.5q0 -39 -21 -87t-47 -71h-43v2zM88.5 367.5q-17.5 17.5 -17.5 43.5t17.5 43t42.5 17q26 0 43 -17t17 -43t-17.5 -43.5t-42.5 -17.5t-42.5 17.5z" glyph-name="semicolon" horiz-adv-x="262" unicode=";"/>
<glyph d="M484 510l-338 -159l338 -158v-52l-407 191v36l407 192v-50z" glyph-name="less" unicode="&lt;"/>
<glyph d="M77 470h407v-46h-407v46zM77 276h407v-46h-407v46z" glyph-name="equal" unicode="="/>
<glyph d="M77 191l337 158l-337 159v52l407 -192v-36l-407 -191v50z" glyph-name="greater" unicode="&gt;"/>
<glyph d="M236 233q0 58 26 94.5t74 69.5q40 33 60 62t20 74q0 62 -42 96.5t-107 34.5q-80 0 -124 -50.5t-44 -132.5h-53q0 70 28.5 123t81 82t124.5 29q61 0 112 -20.5t81.5 -61t30.5 -97.5t-28.5 -93t-76.5 -64q-41 -28 -64 -49.5t-36.5 -49t-13.5 -66.5h-46q-3 11 -3 19z M228 9.5q-17 17.5 -17 43.5t17 43t43 17q25 0 42.5 -17.5t17.5 -42.5t-17.5 -43t-42.5 -18q-26 0 -43 17.5z" glyph-name="question" horiz-adv-x="557" unicode="?"/>
<glyph d="M225 -119q-84 48 -132 132t-48 185t48 185t132 132t185 48t185 -48t132 -132t48 -185q0 -112 -56 -198h-191v98q-22 -50 -70 -78.5t-109 -28.5q-62 0 -98 28.5t-36 76.5q0 58 50 88t162 37q55 4 77 16t22 36q0 44 -32.5 72.5t-83.5 28.5q-53 0 -88.5 -29.5t-44.5 -81.5 h-42q10 70 58.5 110.5t122.5 40.5q79 0 127 -44.5t48 -119.5v-210h113q40 72 40 158q0 93 -44 169.5t-120.5 120.5t-169.5 44t-169 -44t-120 -120.5t-44 -169.5t44 -169t120 -120t169 -44q68 0 128 23.5t106 66.5l21 -22q-49 -48 -114.5 -74t-140.5 -26q-101 0 -185 48z M448 50.5q36 20.5 57.5 56t21.5 76.5v36q-31 -20 -97 -26q-76 -6 -111.5 -28t-35.5 -62q0 -35 23 -54t64 -19q42 0 78 20.5z" glyph-name="at" horiz-adv-x="820" unicode="@"/>
<glyph d="M301 700h93l285 -700h-96l-85 210h-340l-86 -210h-57zM482 256l-153 373h-3l-153 -373h309z" glyph-name="A" horiz-adv-x="695" unicode="A"/>
<glyph d="M383 700q117 0 183 -48t66 -133q0 -60 -35 -102t-100 -60v-4q78 -15 120 -59t42 -110q0 -85 -67.5 -134.5t-185.5 -49.5h-286v700h263zM504 410q43 37 43 103q0 67 -43.5 103.5t-123.5 36.5h-172v-280h174q79 0 122 37zM525 84q45 37 45 104q0 66 -46 103t-126 37h-190 v-281h191q81 0 126 37z" glyph-name="B" horiz-adv-x="714" unicode="B"/>
<glyph d="M234 31.5q-81 46.5 -126.5 129.5t-45.5 189t45.5 189t126.5 129.5t185 46.5q87 0 158.5 -36t116.5 -100.5t55 -148.5h-56q-10 67 -46 118t-92 79.5t-124 28.5q-81 0 -144.5 -38.5t-98.5 -108t-35 -159.5q0 -89 35.5 -159t98.5 -108.5t144 -38.5q68 0 124 28.5t92 80 t46 118.5h56q-10 -84 -55 -149t-116.5 -101t-158.5 -36q-104 0 -185 46.5z" glyph-name="C" horiz-adv-x="802" unicode="C"/>
<glyph d="M333 700q113 0 199 -44t133.5 -123.5t47.5 -182.5t-47.5 -182.5t-133.5 -123.5t-199 -44h-213v700h213zM485.5 87q64.5 36 99.5 103.5t35 159.5t-35 160t-99 104t-151 36h-125v-599h125q86 0 150.5 36z" glyph-name="D" horiz-adv-x="774" unicode="D"/>
<glyph d="M120 700h413v-49h-324v-277h234v-47h-234v-277h367v-50h-456v700z" glyph-name="E" horiz-adv-x="606" unicode="E"/>
<glyph d="M120 700h428v-52h-338v-278h249v-50h-249v-320h-90v700z" glyph-name="F" horiz-adv-x="557" unicode="F"/>
<glyph d="M228.5 31.5q-78.5 46.5 -122.5 129t-44 188.5q0 107 45.5 190t126.5 129.5t183 46.5q85 0 154 -32.5t113.5 -91t58.5 -136.5h-57q-20 93 -88 148t-167 55q-81 0 -144.5 -39t-98.5 -109.5t-35 -160.5t35.5 -160.5t98 -110t140.5 -39.5q68 0 122.5 31t86.5 86t34 124v38 h-235v46h324v-364h-81v160q-31 -82 -102.5 -128.5t-169.5 -46.5q-99 0 -177.5 46.5z" glyph-name="G" horiz-adv-x="832" unicode="G"/>
<glyph d="M120 700h90v-323h400v323h90v-700h-90v323h-400v-323h-90v700z" glyph-name="H" horiz-adv-x="820" unicode="H"/>
<glyph d="M120 700h90v-700h-90v700z" glyph-name="I" horiz-adv-x="330" unicode="I"/>
<glyph d="M151.5 16.5q-55.5 31.5 -86 89.5t-30.5 135v43h54v-40q0 -90 48 -144t126 -54q76 0 120.5 52.5t44.5 139.5v462h90v-456q0 -79 -29.5 -137.5t-83.5 -90t-126 -31.5t-127.5 31.5z" glyph-name="J" horiz-adv-x="624" unicode="J"/>
<glyph d="M120 700h90v-323h110l270 323h63l-262 -318l289 -382h-108l-251 323h-111v-323h-90v700z" glyph-name="K" horiz-adv-x="707" unicode="K"/>
<glyph d="M120 700h90v-646h358v-54h-448v700z" glyph-name="L" horiz-adv-x="599" unicode="L"/>
<glyph d="M120 700h121l255 -590l254 590h118v-700h-90v635l-270 -635h-63l-270 633v-633h-55v700z" glyph-name="M" horiz-adv-x="987" unicode="M"/>
<glyph d="M119 700h93l436 -573v573h52v-707h-59l-469 613v-606h-53v700z" glyph-name="N" horiz-adv-x="819" unicode="N"/>
<glyph d="M238.5 32.5q-82.5 47.5 -129.5 130.5t-47 187t47 187t129.5 130.5t185.5 47.5t186 -47.5t130 -130.5t47 -187t-47 -187t-130 -130.5t-186 -47.5t-185.5 47.5zM564 78q62 39 96.5 109.5t34.5 162.5t-34.5 162.5t-96.5 109.5t-140 39t-140 -39t-96.5 -109.5t-34.5 -162.5 t34.5 -162.5t96.5 -109.5t140 -39t140 39z" glyph-name="O" horiz-adv-x="848" unicode="O"/>
<glyph d="M337 700q128 0 199.5 -55t71.5 -152q0 -96 -71.5 -151.5t-199.5 -55.5h-127v-286h-90v700h217zM470 375q48 42 48 117q0 74 -48 116.5t-133 42.5h-127v-318h127q85 0 133 42z" glyph-name="P" horiz-adv-x="657" unicode="P"/>
<glyph d="M215.5 48q-72.5 49 -113 127.5t-40.5 174.5q0 104 47 187t129.5 130.5t185.5 47.5t186 -47.5t130 -130.5t47 -187q0 -96 -41 -174.5t-113 -127.5t-164 -58v-190h-90v190q-91 9 -163.5 58zM564 78q62 39 96.5 109.5t34.5 162.5t-34.5 162.5t-96.5 109.5t-140 39t-140 -39 t-96.5 -109.5t-34.5 -162.5t34.5 -162.5t96.5 -109.5t140 -39t140 39z" glyph-name="Q" horiz-adv-x="848" unicode="Q"/>
<glyph d="M342 700q126 0 198.5 -54.5t72.5 -149.5q0 -73 -45.5 -122t-126.5 -66l239 -308h-104l-230 293q-6 -1 -21 -1h-115v-292h-90v700h222zM477.5 380.5q48.5 41.5 48.5 113.5q0 74 -48.5 115t-135.5 41h-132v-311h132q87 0 135.5 41.5z" glyph-name="R" horiz-adv-x="697" unicode="R"/>
<glyph d="M190.5 14.5q-65.5 29.5 -105.5 84.5t-48 130h54q14 -91 79 -143.5t165 -52.5q89 0 140.5 34.5t51.5 98.5q0 47 -27.5 75t-70.5 43t-115 30q-82 18 -133.5 37t-88.5 58.5t-37 104.5q0 64 35 109.5t95 68.5t133 23q118 0 195.5 -63t88.5 -175h-57q-12 89 -71.5 139 t-152.5 50q-81 0 -132.5 -35.5t-51.5 -98.5q0 -45 27 -71t67.5 -39.5t113.5 -30.5q86 -19 139.5 -38.5t90 -60t36.5 -108.5q0 -95 -74 -147t-198 -52q-83 0 -148.5 29.5z" glyph-name="S" horiz-adv-x="655" unicode="S"/>
<glyph d="M282 646h-263v54h617v-54h-264v-646h-90v646z" glyph-name="T" horiz-adv-x="654" unicode="T"/>
<glyph d="M245 23q-67 38 -103.5 107.5t-36.5 162.5v407h90v-405q0 -119 59.5 -185t163.5 -66q68 0 118.5 31t78 88.5t27.5 133.5v403h55v-405q0 -94 -36 -164t-103 -108t-156 -38q-90 0 -157 38z" glyph-name="U" horiz-adv-x="797" unicode="U"/>
<glyph d="M23 700h96l254 -625h3l253 625h58l-285 -700h-95z" glyph-name="V" horiz-adv-x="708" unicode="V"/>
<glyph d="M34 700h94l184 -611l179 611h79l183 -611l185 611h55l-208 -700h-94l-179 600l-175 -600h-94z" glyph-name="W" horiz-adv-x="1025" unicode="W"/>
<glyph d="M290 350l-261 350h106l220 -289l225 289h65l-253 -326l276 -374h-106l-234 311l-241 -311h-65z" glyph-name="X" horiz-adv-x="686" unicode="X"/>
<glyph d="M289 271l-284 429h101l247 -377l248 377h62l-284 -430v-270h-90v271z" glyph-name="Y" horiz-adv-x="667" unicode="Y"/>
<glyph d="M43 47l441 602h-420v51h530v-46l-441 -602h442v-52h-552v47z" glyph-name="Z" horiz-adv-x="637" unicode="Z"/>
<glyph d="M146 800h258v-46h-185v-808h185v-46h-258v900z" glyph-name="bracketleft" horiz-adv-x="500" unicode="["/>
<glyph d="M42 700h48l338 -700h-48z" glyph-name="backslash" horiz-adv-x="470" unicode="\"/>
<glyph d="M354 -100h-258v46h186v808h-186v46h258v-900z" glyph-name="bracketright" horiz-adv-x="500" unicode="]"/>
<glyph d="M261 700h39l172 -300h-51l-141 244l-141 -244h-51z" glyph-name="asciicircum" unicode="^"/>
<glyph d="M30 3h394v-46h-394v46z" glyph-name="underscore" horiz-adv-x="454" unicode="_"/>
<glyph d="M86 24.5q-42 35.5 -42 95.5q0 77 68 110.5t178 41.5q67 5 101 18t34 41q0 60 -40 97t-104 37q-65 0 -109 -38t-55 -104h-47q13 87 72.5 137t149.5 50q95 0 152 -54.5t57 -147.5v-262h69v-46h-141v121q-27 -61 -86.5 -96.5t-135.5 -35.5q-79 0 -121 35.5zM329.5 60 q44.5 25 70 68.5t25.5 96.5l1 48q-25 -23 -117 -31q-97 -9 -140.5 -36.5t-43.5 -78.5q0 -45 28.5 -68.5t77.5 -23.5q54 0 98.5 25z" glyph-name="a" horiz-adv-x="602" unicode="a"/>
<glyph d="M250.5 25q-52.5 35 -77.5 96v-121h-77v710h80v-328q25 59 76.5 93.5t120.5 34.5q68 0 123 -33.5t87 -93t32 -133.5t-32 -133.5t-87 -93t-123 -33.5q-70 0 -122.5 35zM446.5 66.5q40.5 26.5 64 74t23.5 109.5t-23 110t-64 74t-91 26q-51 0 -93 -27.5t-66 -75.5t-24 -107 q0 -58 24 -106t66 -76t93 -28q50 0 90.5 26.5z" glyph-name="b" horiz-adv-x="663" unicode="b"/>
<glyph d="M175.5 24q-59.5 34 -93.5 93t-34 133t34 133.5t93.5 93t134.5 33.5q99 0 164.5 -53t80.5 -144h-50q-14 68 -63 108t-120 40q-56 0 -100 -27t-68.5 -75t-24.5 -109t24.5 -109t68.5 -75t100 -27q71 0 120 40t63 108h50q-15 -90 -80.5 -143.5t-164.5 -53.5q-75 0 -134.5 34z " glyph-name="c" horiz-adv-x="596" unicode="c"/>
<glyph d="M167.5 23.5q-55.5 33.5 -87.5 93t-32 133.5t32 133.5t87.5 93t123.5 33.5q69 0 120.5 -34.5t75.5 -93.5v328h80v-710h-76v121q-26 -61 -78.5 -96t-121.5 -35q-68 0 -123.5 33.5zM400 68q42 28 66 76t24 106q0 59 -24 107t-66 75.5t-93 27.5q-50 0 -90.5 -26t-63.5 -74 t-23 -110t23 -109.5t63.5 -74t90.5 -26.5q51 0 93 28z" glyph-name="d" horiz-adv-x="663" unicode="d"/>
<glyph d="M176 23.5q-60 33.5 -94 93t-34 132.5q0 74 34.5 134t95 93.5t135.5 33.5q74 0 133 -33.5t93 -92.5t34 -133q0 -12 -1 -17h-444q3 -59 28.5 -104t68.5 -69.5t97 -24.5q63 0 111 30.5t67 81.5h51q-20 -70 -84.5 -114t-155.5 -44q-75 0 -135 33.5zM467 373q-24 45 -64.5 70 t-91.5 25q-50 0 -91 -25t-65.5 -70t-26.5 -102v-3h366q-3 60 -27 105z" glyph-name="e" horiz-adv-x="612" unicode="e"/>
<glyph d="M42 454v46h101v57q0 85 51 134t139 49q77 0 125.5 -41.5t48.5 -107.5h-47v2q-1 46 -36 75t-89 29q-59 0 -94.5 -31.5t-35.5 -90.5q0 -16 6 -50l4 -25h219v-46h-215q3 -9 3 -27v-427h-79v454h-101z" glyph-name="f" horiz-adv-x="440" unicode="f"/>
<glyph d="M146 -168q-77 42 -77 115q0 53 43.5 90t121.5 51q-104 11 -162.5 40t-58.5 90q0 28 19.5 48.5t51.5 22.5q21 0 37 -6q-18 27 -18 64q0 68 58 110.5t160 50.5v122h77v-122q106 -5 168 -48t62 -113q0 -75 -71 -118.5t-191 -43.5q-72 0 -111 12.5t-78 35.5q-23 14 -37.5 20 t-34.5 6t-32 -12t-12 -28q0 -42 42.5 -64t103.5 -30t166 -14q130 -7 201.5 -43.5t71.5 -117.5q0 -74 -77.5 -117t-211.5 -43t-211 42zM498.5 255q49.5 34 49.5 92q0 59 -49 93t-133 34q-85 0 -134 -34t-49 -93q0 -58 48.5 -92t134.5 -34q83 0 132.5 34zM508 -137 q56 33 56 89q0 61 -53 93t-154 32q-95 0 -150.5 -33.5t-55.5 -91.5q0 -56 56 -89t150 -33q95 0 151 33z" glyph-name="g" horiz-adv-x="669" unicode="g"/>
<glyph d="M176 710v-322q24 57 72 89.5t110 32.5q101 0 158.5 -63.5t57.5 -175.5v-271h-80v265q0 92 -41.5 143t-115.5 51q-45 0 -82 -25.5t-58 -70.5t-21 -100v-263h-80v710h80z" glyph-name="h" horiz-adv-x="660" unicode="h"/>
<glyph d="M96 500h80v-500h-80v500zM86 745h100l-45 -174h-10z" glyph-name="i" horiz-adv-x="272" unicode="i"/>
<glyph d="M-52.5 -193q-37.5 17 -59 46t-21.5 65h47v-1q0 -36 34 -60.5t81 -24.5q51 0 84 29.5t33 85.5q0 18 -3 40.5t-4 31.5q-10 58 -10 100v381h79v-526q0 -87 -47 -135.5t-130 -48.5q-46 0 -83.5 17zM119 745h100l-45 -174h-10z" glyph-name="j" horiz-adv-x="301" unicode="j"/>
<glyph d="M96 710h80v-436h83l202 226h56l-198 -223l218 -277h-94l-186 227h-81v-227h-80v710z" glyph-name="k" horiz-adv-x="558" unicode="k"/>
<glyph d="M96 710h80v-710h-80v710z" glyph-name="l" horiz-adv-x="272" unicode="l"/>
<glyph d="M173 500v-112q23 57 69 89.5t105 32.5q70 0 117 -36t65 -102q22 64 71 101t113 37q94 0 147.5 -60t53.5 -166v-284h-81v278q0 86 -36.5 133.5t-101.5 47.5q-42 0 -76.5 -25t-54 -68.5t-19.5 -97.5v-268h-81v278q0 86 -36 133.5t-101 47.5q-42 0 -76.5 -25.5t-54.5 -70.5 t-20 -100v-263h-80v500h77z" glyph-name="m" horiz-adv-x="999" unicode="m"/>
<glyph d="M173 500v-114q24 58 73 91t112 33q101 0 158.5 -63.5t57.5 -175.5v-271h-80v265q0 92 -41.5 143t-115.5 51q-45 0 -82 -25.5t-58 -70.5t-21 -100v-263h-80v500h77z" glyph-name="n" horiz-adv-x="660" unicode="n"/>
<glyph d="M179.5 24q-61.5 34 -96.5 93.5t-35 132.5t35 132.5t96.5 93.5t137.5 34t137.5 -34t96.5 -93.5t35 -132.5t-35 -132.5t-96.5 -93.5t-137.5 -34t-137.5 34zM413.5 64q42.5 27 67 75.5t24.5 110.5t-24.5 111t-67 76t-96.5 27t-96.5 -27t-66.5 -75.5t-24 -111.5 q0 -62 24 -110.5t66.5 -75.5t96.5 -27t96.5 27z" glyph-name="o" horiz-adv-x="634" unicode="o"/>
<glyph d="M173 500v-120q25 60 77.5 95t122.5 35q68 0 123 -33.5t87 -93t32 -133.5t-32 -133.5t-87 -93t-123 -33.5q-69 0 -120.5 34.5t-76.5 94.5v-319h-80v700h77zM446.5 66.5q40.5 26.5 64 74t23.5 109.5t-23 110t-64 74t-91 26q-51 0 -93 -27.5t-66 -75.5t-24 -107 q0 -58 24 -106t66 -76t93 -28q50 0 90.5 26.5z" glyph-name="p" horiz-adv-x="663" unicode="p"/>
<glyph d="M487 119q-24 -60 -75.5 -94.5t-120.5 -34.5q-68 0 -123.5 33.5t-87.5 93t-32 133.5t32 133.5t87.5 93t123.5 33.5q69 0 121.5 -35t78.5 -95v120h76v-700h-80v319zM400 68q42 28 66 76t24 106q0 59 -24 107t-66 75.5t-93 27.5q-50 0 -90.5 -26t-63.5 -74t-23 -110 t23 -109.5t63.5 -74t90.5 -26.5q51 0 93 28z" glyph-name="q" horiz-adv-x="663" unicode="q"/>
<glyph d="M173 500v-118q23 59 68.5 93.5t104.5 34.5q77 0 121 -48t44 -137v-23h-79v21q0 65 -28.5 98.5t-82.5 33.5q-40 0 -73.5 -25.5t-52.5 -69t-19 -96.5v-264h-80v500h77z" glyph-name="r" horiz-adv-x="521" unicode="r"/>
<glyph d="M112 33.5q-68 44.5 -79 130.5h50q10 -65 63 -99t126 -34q54 0 99.5 21.5t45.5 68.5q0 26 -16.5 42t-42.5 24t-77 19l-34 8q-61 12 -102 27t-68.5 44.5t-27.5 78.5q0 75 62 111t146 36q90 0 152 -43t71 -126h-50q-10 63 -57.5 95t-117.5 32q-54 0 -96 -22.5t-42 -71.5 q0 -28 20.5 -44t49.5 -24t95 -23q66 -13 107.5 -27t70.5 -43.5t29 -78.5q0 -50 -32 -83t-80.5 -48t-100.5 -15q-96 0 -164 44.5z" glyph-name="s" horiz-adv-x="532" unicode="s"/>
<glyph d="M140 154v300h-118v46h99q11 0 17 6t6 17v97h77l-1 -120h213v-46h-213v-297q0 -61 28.5 -89.5t88.5 -28.5q38 0 96 17v-46q-24 -8 -58.5 -14t-60.5 -6q-174 0 -174 164z" glyph-name="t" horiz-adv-x="467" unicode="t"/>
<glyph d="M143.5 54q-57.5 64 -57.5 176v270h80l1 -264q0 -92 41 -143.5t115 -51.5q45 0 82 25.5t58.5 70.5t21.5 101v262h79v-500h-76v115q-24 -58 -73 -91.5t-113 -33.5q-101 0 -158.5 64z" glyph-name="u" horiz-adv-x="660" unicode="u"/>
<glyph d="M10 500h86l190 -438h2l190 438h52l-217 -500h-86z" glyph-name="v" horiz-adv-x="539" unicode="v"/>
<glyph d="M22 500h80l138 -422l137 422h74l136 -420l138 420h50l-160 -500h-78l-139 424l-138 -424h-78z" glyph-name="w" horiz-adv-x="796" unicode="w"/>
<glyph d="M236 248l-203 252h95l163 -197l167 197h59l-193 -231l214 -269h-96l-174 215l-180 -215h-59z" glyph-name="x" horiz-adv-x="563" unicode="x"/>
<glyph d="M69.5 -166.5q-44.5 43.5 -44.5 118.5v27h48v-29q0 -52 30 -84t78 -32q45 0 72.5 27.5t27.5 73.5v12q0 23 -6.5 46t-24.5 57l-238 450h88l194 -368q19 -40 21 -60q2 12 11 35l162 393h53l-180 -431q-10 -23 -14 -42.5t-4 -46.5v-25q0 -76 -44 -120.5t-115 -44.5 q-70 0 -114.5 43.5z" glyph-name="y" horiz-adv-x="549" unicode="y"/>
<glyph d="M36 40l336 414h-319v46h418v-40l-336 -413h336v-47h-435v40z" glyph-name="z" horiz-adv-x="514" unicode="z"/>
<glyph d="M202.5 -83q-38.5 32 -38.5 99q0 31 16 119q16 86 16 115q0 38 -17.5 57.5t-49.5 19.5h-41v46h41q32 0 49.5 19.5t17.5 57.5q0 28 -16 116t-16 119q0 66 38.5 98t102.5 32q53 0 93 -15v-47q-35 16 -76 16q-37 0 -61.5 -21.5t-24.5 -64.5q0 -18 5.5 -53t7.5 -47 q16 -88 16 -120q0 -91 -76 -113q76 -20 76 -112q0 -32 -16 -120q-2 -12 -7.5 -47t-5.5 -53q0 -44 24.5 -65.5t61.5 -21.5q41 0 76 16v-47q-40 -15 -93 -15q-64 0 -102.5 32z" glyph-name="braceleft" horiz-adv-x="500" unicode="{"/>
<glyph d="M146 800h47v-900h-47v900z" glyph-name="bar" horiz-adv-x="338" unicode="|"/>
<glyph d="M298 783q39 -32 39 -98q0 -31 -16 -119t-16 -116q0 -38 17.5 -57.5t49.5 -19.5h41v-46h-41q-32 0 -49.5 -19.5t-17.5 -57.5q0 -29 16 -115q16 -88 16 -119q0 -67 -39 -99t-103 -32q-51 0 -93 15v47q36 -16 76 -16q38 0 62 21.5t24 65.5q0 28 -13 100q-1 8 -8 50.5 t-7 69.5q0 91 75 112q-75 22 -75 113q0 27 7 69.5t8 50.5q13 72 13 100q0 43 -24 64.5t-62 21.5q-40 0 -76 -16v47q42 15 93 15q64 0 103 -32z" glyph-name="braceright" horiz-adv-x="500" unicode="}"/>
<glyph d="M104.5 373q28.5 28 70.5 28q26 0 50 -7.5t58 -22.5q32 -13 52 -19.5t41 -6.5q25 0 43.5 16.5t18.5 38.5h47q0 -44 -28.5 -72.5t-70.5 -28.5q-26 0 -50 7.5t-59 22.5q-30 13 -50.5 19.5t-41.5 6.5q-25 0 -44 -16t-19 -38h-46q0 44 28.5 72z" glyph-name="asciitilde" unicode="~"/>
<glyph glyph-name="uni00A0" horiz-adv-x="250" unicode=" "/>
<glyph d="M193.5 490.5q17.5 -17.5 17.5 -42.5t-17 -42.5t-43 -17.5q-25 0 -42.5 17.5t-17.5 42.5t17.5 42.5t42.5 17.5t42.5 -17.5zM202 -200h-97l27 485h42z" glyph-name="exclamdown" horiz-adv-x="302" unicode="¡"/>
<glyph d="M477 181q49 40 65 108h49q-15 -86 -74.5 -138t-151.5 -58v-123h-41v123q-69 5 -124 39.5t-85.5 92t-30.5 127.5q0 71 30.5 128t85.5 91.5t124 39.5v119h41v-119q92 -6 151.5 -58t74.5 -138h-49q-16 68 -65 108t-120 40q-56 0 -100 -27t-68.5 -75t-24.5 -109t24.5 -109 t68.5 -75t100 -27q71 0 120 40z" glyph-name="cent" horiz-adv-x="700" unicode="¢"/>
<glyph d="M53.5 14.5q-33.5 29.5 -33.5 75.5q0 44 31.5 73.5t82.5 29.5q27 0 54.5 -9t62.5 -25q1 3 1 10q-3 27 -15 54.5t-33 63.5l-24 45h-133v36h113q-33 69 -33 133t29 112.5t81.5 75.5t121.5 27q70 0 124 -27.5t85.5 -78t34.5 -116.5h-53q-5 80 -55 126t-125 46 q-74 0 -118.5 -45t-44.5 -122q0 -31 7 -59.5t21 -71.5h286v-36h-273l14 -34q18 -43 27 -70.5t9 -56.5q0 -11 -2 -33l21 -12q57 -31 96.5 -47t80.5 -16q55 0 84.5 31.5t29.5 90.5q0 20 -5 50h47q6 -34 6 -64q0 -87 -45.5 -136.5t-118.5 -49.5q-53 0 -101.5 22t-117.5 65 q-19 -40 -54.5 -63.5t-79.5 -23.5q-52 0 -85.5 29.5zM201 41q28 20 41 53q-42 24 -68 35t-51 11q-28 0 -46 -16t-18 -40q0 -28 22 -45.5t56 -17.5q36 0 64 20z" glyph-name="sterling" horiz-adv-x="700" unicode="£"/>
<glyph d="M183 218q-22 27 -35 61t-13 71q0 36 13 70.5t35 62.5l-93 92l35 35l93 -92q27 22 61 34.5t71 12.5t71 -12.5t62 -34.5l92 92l35 -35l-92 -92q22 -28 34.5 -62t12.5 -71t-12.5 -71t-34.5 -61l92 -93l-35 -35l-92 93q-28 -22 -62.5 -35t-70.5 -13q-37 0 -71 13t-61 35 l-93 -93l-35 35zM433 207q38 22 60 60t22 83t-22 83t-60 60t-83 22t-83 -22t-60 -60t-22 -83t22 -83t60 -60t83 -22t83 22z" glyph-name="currency" horiz-adv-x="700" unicode="¤"/>
<glyph d="M305 174h-223v37h221v64l-16 25h-205v36h184l-237 364h100l240 -370l239 370h64l-237 -364h197v-36h-218l-17 -25v-64h235v-37h-237v-174h-90v174z" glyph-name="yen" horiz-adv-x="700" unicode="¥"/>
<glyph d="M146 800h47v-380h-47v380zM146 280h47v-380h-47v380z" glyph-name="brokenbar" horiz-adv-x="338" unicode="¦"/>
<glyph d="M199 -53q-69 47 -80 138h52q10 -68 63.5 -103.5t124.5 -35.5q54 0 100 22.5t46 71.5q0 31 -17.5 49.5t-45.5 28t-80 20.5q-8 1 -24 5q-73 15 -119 30.5t-78 46.5t-32 83q0 54 36 87t95 47q-49 18 -77 46.5t-29 77.5q0 53 30.5 88t78.5 51t101 16q90 0 153 -45.5 t73 -133.5h-51q-11 65 -59.5 98.5t-116.5 33.5q-54 0 -96 -23.5t-42 -73.5q0 -31 20.5 -49t51.5 -27t91 -22q78 -16 124 -30.5t78.5 -45t32.5 -82.5q0 -53 -37 -87t-95 -50q51 -18 79 -47t28 -79q0 -52 -32 -86.5t-81.5 -50.5t-101.5 -16q-95 0 -164 47zM492 228.5 q44 23.5 44 67.5q0 34 -22 54t-57.5 31t-105.5 26l-40 9q-54 -5 -94.5 -27.5t-40.5 -66.5q0 -50 58.5 -76t162.5 -45q51 4 95 27.5z" glyph-name="section" horiz-adv-x="700" unicode="§"/>
<glyph d="M225 33q-84 48 -132 132t-48 185t48 185t132 132t185 48t185 -48t132 -132t48 -185t-48 -185t-132 -132t-185 -48t-185 48zM579.5 61q76.5 44 120.5 120t44 169t-44 169.5t-120.5 120.5t-169.5 44t-169 -44t-120 -120.5t-44 -169.5t44 -169t120 -120t169 -44t169.5 44z M307 169q-48 27 -75 74.5t-27 106.5t27 106.5t75 74.5t108 27q79 0 131.5 -42.5t64.5 -114.5h-43q-11 53 -49.5 84t-94.5 31q-67 0 -109.5 -46.5t-42.5 -119.5t42.5 -119t109.5 -46q56 0 94.5 31t49.5 84h43q-12 -72 -64.5 -115t-131.5 -43q-60 0 -108 27z" glyph-name="copyright" horiz-adv-x="820" unicode="©"/>
<glyph d="M169 300l109 -200h-54l-106 194v12l106 194h54zM354 300l109 -200h-54l-106 194v12l106 194h54z" glyph-name="guillemotleft" horiz-adv-x="542" unicode="«"/>
<glyph d="M484 373v-226h-46v180h-361v46h407z" glyph-name="logicalnot" unicode="¬"/>
<glyph d="M135.5 378.5q-41.5 23.5 -65 65t-23.5 91.5t23.5 91.5t65 65t91.5 23.5t91.5 -23.5t65 -65t23.5 -91.5t-23.5 -91.5t-65 -65t-91.5 -23.5t-91.5 23.5zM309 395q37 21 58 58t21 82t-21 82t-58 58t-82 21t-82 -21t-58.5 -58t-21.5 -82t21.5 -82t58.5 -58t82 -21t82 21z M221 642q38 0 59.5 -16t21.5 -45q0 -41 -43 -57l67 -86h-43l-62 80h-36v-80h-34v204h70zM255.5 551.5q12.5 10.5 12.5 29.5q0 17 -12 26.5t-35 9.5h-36v-76h36q22 0 34.5 10.5z" glyph-name="registered" horiz-adv-x="440" unicode="®"/>
<glyph d="M97.5 478q-29.5 17 -46.5 46.5t-17 63.5t17 63.5t46.5 46.5t63.5 17q53 0 90 -37t37 -90t-37 -90t-90 -37q-34 0 -63.5 17zM226 524q27 27 27 64q0 38 -27 65t-65 27t-64.5 -27t-26.5 -65q0 -37 27 -64t64 -27q38 0 65 27z" glyph-name="degree" horiz-adv-x="322" unicode="°"/>
<glyph d="M303 432h181v-46h-181v-180h-46v180h-180v46h180v181h46v-181zM77 91v46h407v-46h-407z" glyph-name="plusminus" unicode="±"/>
<glyph d="M281 300q-62 0 -112.5 26.5t-79.5 72t-29 101.5t29 101.5t79.5 72t112.5 26.5h96v-900h-87v500h-9z" glyph-name="paragraph" horiz-adv-x="523" unicode="¶"/>
<glyph d="M88.5 258.5q-17.5 17.5 -17.5 43.5t17.5 43t42.5 17q26 0 43 -17t17 -43t-17.5 -43.5t-42.5 -17.5t-42.5 17.5z" glyph-name="periodcentered" horiz-adv-x="262" unicode="·"/>
<glyph d="M374 300l-109 200h53l106 -194v-12l-106 -194h-53zM189 300l-109 200h53l106 -194v-12l-106 -194h-53z" glyph-name="guillemotright" horiz-adv-x="503" unicode="»"/>
<glyph d="M333.5 491.5q17.5 -17.5 17.5 -42.5q0 -26 -17 -43t-43 -17t-43 17t-17 43q0 25 17.5 42.5t42.5 17.5t42.5 -17.5zM325 268q0 -58 -25.5 -94.5t-73.5 -69.5q-41 -33 -61 -62t-20 -75q0 -61 42 -95.5t107 -34.5q80 0 124 50.5t44 132.5h54q0 -70 -28.5 -123.5t-81 -82.5 t-124.5 -29q-61 0 -112 20.5t-81.5 61.5t-30.5 98t28.5 93t76.5 65q41 28 64 49t36.5 48.5t13.5 65.5h46q2 -10 2 -18z" glyph-name="questiondown" horiz-adv-x="557" unicode="¿"/>
<glyph d="M301 700h93l285 -700h-96l-85 210h-340l-86 -210h-57zM482 256l-153 373h-3l-153 -373h309zM315 778l-94 167h82l59 -167h-47z" glyph-name="Agrave" horiz-adv-x="695" unicode="À"/>
<glyph d="M301 700h93l285 -700h-96l-85 210h-340l-86 -210h-57zM482 256l-153 373h-3l-153 -373h309zM392 945h82l-94 -167h-48z" glyph-name="Aacute" horiz-adv-x="695" unicode="Á"/>
<glyph d="M301 700h93l285 -700h-96l-85 210h-340l-86 -210h-57zM482 256l-153 373h-3l-153 -373h309zM442 785l-112 118l-112 -118h-56l146 160h77l147 -160h-90z" glyph-name="Acircumflex" horiz-adv-x="695" unicode="Â"/>
<glyph d="M301 700h93l285 -700h-96l-85 210h-340l-86 -210h-57zM482 256l-153 373h-3l-153 -373h309zM186 894q27 29 69 29q26 0 49.5 -6.5t54.5 -19.5q30 -12 47 -17t35 -5q22 0 37.5 13t15.5 33h42q0 -48 -27.5 -77t-69.5 -29q-26 0 -49.5 6.5t-53.5 19.5q-29 11 -46.5 16.5 t-35.5 5.5q-22 0 -37.5 -13t-15.5 -33h-42q0 48 27 77z" glyph-name="Atilde" horiz-adv-x="695" unicode="Ã"/>
<glyph d="M301 700h93l285 -700h-96l-85 210h-340l-86 -210h-57zM482 256l-153 373h-3l-153 -373h309zM228 945h95l-43 -174h-9zM372 945h94l-43 -174h-9z" glyph-name="Adieresis" horiz-adv-x="695" unicode="Ä"/>
<glyph d="M301 700h93l285 -700h-96l-85 210h-340l-86 -210h-57zM482 256l-153 373h-3l-153 -373h309zM256 807.5q-37 37.5 -37 90.5q0 35 17 64.5t46.5 47t64.5 17.5t64.5 -17.5t47 -47t17.5 -64.5t-17.5 -64.5t-47 -46.5t-64.5 -17q-54 0 -91 37.5zM413.5 845.5 q25.5 20.5 25.5 52.5t-25.5 53t-66.5 21q-42 0 -67 -20.5t-25 -53.5q0 -32 25 -52.5t67 -20.5q41 0 66.5 20.5z" glyph-name="Aring" horiz-adv-x="695" unicode="Å"/>
<glyph d="M658 50h318v-50h-393l-85 210h-340l-86 -210h-57l286 700h632v-49h-514l110 -277h316v-47h-297zM173 256h309l-153 373h-3z" glyph-name="AE" horiz-adv-x="1006" unicode="Æ"/>
<glyph d="M234 31.5q-81 46.5 -126.5 129.5t-45.5 189t45.5 189t126.5 129.5t185 46.5q87 0 158.5 -36t116.5 -100.5t55 -148.5h-56q-10 67 -46 118t-92 79.5t-124 28.5q-81 0 -144.5 -38.5t-98.5 -108t-35 -159.5q0 -89 35.5 -159t98.5 -108.5t144 -38.5q68 0 124 28.5t92 80 t46 118.5h56q-10 -84 -55 -149t-116.5 -101t-158.5 -36q-104 0 -185 46.5zM380 -245h-81l93 167h48z" glyph-name="Ccedilla" horiz-adv-x="802" unicode="Ç"/>
<glyph d="M120 700h413v-49h-324v-277h234v-47h-234v-277h367v-50h-456v700zM294 778l-94 167h82l59 -167h-47z" glyph-name="Egrave" horiz-adv-x="606" unicode="È"/>
<glyph d="M120 700h413v-49h-324v-277h234v-47h-234v-277h367v-50h-456v700zM371 945h82l-94 -167h-48z" glyph-name="Eacute" horiz-adv-x="606" unicode="É"/>
<glyph d="M120 700h413v-49h-324v-277h234v-47h-234v-277h367v-50h-456v700zM421 785l-112 118l-112 -118h-56l146 160h77l147 -160h-90z" glyph-name="Ecircumflex" horiz-adv-x="606" unicode="Ê"/>
<glyph d="M120 700h413v-49h-324v-277h234v-47h-234v-277h367v-50h-456v700zM207 945h95l-43 -174h-9zM351 945h94l-43 -174h-9z" glyph-name="Edieresis" horiz-adv-x="606" unicode="Ë"/>
<glyph d="M120 700h90v-700h-90v700zM133 778l-94 167h82l59 -167h-47z" glyph-name="Igrave" horiz-adv-x="330" unicode="Ì"/>
<glyph d="M120 700h90v-700h-90v700zM210 945h82l-94 -167h-48z" glyph-name="Iacute" horiz-adv-x="330" unicode="Í"/>
<glyph d="M120 700h90v-700h-90v700zM260 785l-112 118l-112 -118h-56l146 160h77l147 -160h-90z" glyph-name="Icircumflex" horiz-adv-x="330" unicode="Î"/>
<glyph d="M120 700h90v-700h-90v700zM46 945h95l-43 -174h-9zM190 945h94l-43 -174h-9z" glyph-name="Idieresis" horiz-adv-x="330" unicode="Ï"/>
<glyph d="M532 656q86 -44 133.5 -123.5t47.5 -182.5t-47.5 -182.5t-133.5 -123.5t-199 -44h-213v332h-75v37h75v331h213q113 0 199 -44zM485.5 87q64.5 36 99.5 103.5t35 159.5t-35 160t-99 104t-151 36h-125v-281h150v-37h-150v-281h125q86 0 150.5 36z" glyph-name="Eth" horiz-adv-x="774" unicode="Ð"/>
<glyph d="M119 700h93l436 -573v573h52v-707h-59l-469 613v-606h-53v700zM249 894q27 29 69 29q26 0 49.5 -6.5t54.5 -19.5q30 -12 47 -17t35 -5q22 0 37.5 13t15.5 33h42q0 -48 -27.5 -77t-69.5 -29q-26 0 -49.5 6.5t-53.5 19.5q-29 11 -46.5 16.5t-35.5 5.5q-22 0 -37.5 -13 t-15.5 -33h-42q0 48 27 77z" glyph-name="Ntilde" horiz-adv-x="819" unicode="Ñ"/>
<glyph d="M238.5 32.5q-82.5 47.5 -129.5 130.5t-47 187t47 187t129.5 130.5t185.5 47.5t186 -47.5t130 -130.5t47 -187t-47 -187t-130 -130.5t-186 -47.5t-185.5 47.5zM564 78q62 39 96.5 109.5t34.5 162.5t-34.5 162.5t-96.5 109.5t-140 39t-140 -39t-96.5 -109.5t-34.5 -162.5 t34.5 -162.5t96.5 -109.5t140 -39t140 39zM392 778l-94 167h82l59 -167h-47z" glyph-name="Ograve" horiz-adv-x="848" unicode="Ò"/>
<glyph d="M238.5 32.5q-82.5 47.5 -129.5 130.5t-47 187t47 187t129.5 130.5t185.5 47.5t186 -47.5t130 -130.5t47 -187t-47 -187t-130 -130.5t-186 -47.5t-185.5 47.5zM564 78q62 39 96.5 109.5t34.5 162.5t-34.5 162.5t-96.5 109.5t-140 39t-140 -39t-96.5 -109.5t-34.5 -162.5 t34.5 -162.5t96.5 -109.5t140 -39t140 39zM469 945h82l-94 -167h-48z" glyph-name="Oacute" horiz-adv-x="848" unicode="Ó"/>
<glyph d="M238.5 32.5q-82.5 47.5 -129.5 130.5t-47 187t47 187t129.5 130.5t185.5 47.5t186 -47.5t130 -130.5t47 -187t-47 -187t-130 -130.5t-186 -47.5t-185.5 47.5zM564 78q62 39 96.5 109.5t34.5 162.5t-34.5 162.5t-96.5 109.5t-140 39t-140 -39t-96.5 -109.5t-34.5 -162.5 t34.5 -162.5t96.5 -109.5t140 -39t140 39zM519 785l-112 118l-112 -118h-56l146 160h77l147 -160h-90z" glyph-name="Ocircumflex" horiz-adv-x="848" unicode="Ô"/>
<glyph d="M238.5 32.5q-82.5 47.5 -129.5 130.5t-47 187t47 187t129.5 130.5t185.5 47.5t186 -47.5t130 -130.5t47 -187t-47 -187t-130 -130.5t-186 -47.5t-185.5 47.5zM564 78q62 39 96.5 109.5t34.5 162.5t-34.5 162.5t-96.5 109.5t-140 39t-140 -39t-96.5 -109.5t-34.5 -162.5 t34.5 -162.5t96.5 -109.5t140 -39t140 39zM263 894q27 29 69 29q26 0 49.5 -6.5t54.5 -19.5q30 -12 47 -17t35 -5q22 0 37.5 13t15.5 33h42q0 -48 -27.5 -77t-69.5 -29q-26 0 -49.5 6.5t-53.5 19.5q-29 11 -46.5 16.5t-35.5 5.5q-22 0 -37.5 -13t-15.5 -33h-42q0 48 27 77z " glyph-name="Otilde" horiz-adv-x="848" unicode="Õ"/>
<glyph d="M238.5 32.5q-82.5 47.5 -129.5 130.5t-47 187t47 187t129.5 130.5t185.5 47.5t186 -47.5t130 -130.5t47 -187t-47 -187t-130 -130.5t-186 -47.5t-185.5 47.5zM564 78q62 39 96.5 109.5t34.5 162.5t-34.5 162.5t-96.5 109.5t-140 39t-140 -39t-96.5 -109.5t-34.5 -162.5 t34.5 -162.5t96.5 -109.5t140 -39t140 39zM305 945h95l-43 -174h-9zM449 945h94l-43 -174h-9z" glyph-name="Odieresis" horiz-adv-x="848" unicode="Ö"/>
<glyph d="M103 206l144 144l-144 144l33 34l144 -144l144 144l34 -34l-144 -144l144 -144l-34 -33l-144 144l-144 -144z" glyph-name="multiply" unicode="×"/>
<glyph d="M298.5 6q-58.5 21 -104.5 60l-63 -66h-60l87 96q-46 49 -71 114t-25 140q0 104 47 187t129.5 130.5t185.5 47.5q66 0 125 -21t106 -60l63 66h60l-88 -95q47 -50 72 -115t25 -140q0 -104 -47 -187t-130 -130.5t-186 -47.5q-67 0 -125.5 21zM524 640.5q-45 23.5 -100 23.5 q-79 0 -141 -39.5t-97 -110.5t-35 -164q0 -56 16.5 -104.5t46.5 -85.5l387 412q-32 45 -77 68.5zM565.5 76.5q62.5 39.5 97.5 110.5t35 163q0 55 -16.5 103.5t-46.5 86.5l-387 -411q32 -45 77 -68.5t99 -23.5q79 0 141.5 39.5z" glyph-name="Oslash" horiz-adv-x="848" unicode="Ø"/>
<glyph d="M245 23q-67 38 -103.5 107.5t-36.5 162.5v407h90v-405q0 -119 59.5 -185t163.5 -66q68 0 118.5 31t78 88.5t27.5 133.5v403h55v-405q0 -94 -36 -164t-103 -108t-156 -38q-90 0 -157 38zM377 778l-94 167h82l59 -167h-47z" glyph-name="Ugrave" horiz-adv-x="797" unicode="Ù"/>
<glyph d="M245 23q-67 38 -103.5 107.5t-36.5 162.5v407h90v-405q0 -119 59.5 -185t163.5 -66q68 0 118.5 31t78 88.5t27.5 133.5v403h55v-405q0 -94 -36 -164t-103 -108t-156 -38q-90 0 -157 38zM454 945h82l-94 -167h-48z" glyph-name="Uacute" horiz-adv-x="797" unicode="Ú"/>
<glyph d="M245 23q-67 38 -103.5 107.5t-36.5 162.5v407h90v-405q0 -119 59.5 -185t163.5 -66q68 0 118.5 31t78 88.5t27.5 133.5v403h55v-405q0 -94 -36 -164t-103 -108t-156 -38q-90 0 -157 38zM504 785l-112 118l-112 -118h-56l146 160h77l147 -160h-90z" glyph-name="Ucircumflex" horiz-adv-x="797" unicode="Û"/>
<glyph d="M245 23q-67 38 -103.5 107.5t-36.5 162.5v407h90v-405q0 -119 59.5 -185t163.5 -66q68 0 118.5 31t78 88.5t27.5 133.5v403h55v-405q0 -94 -36 -164t-103 -108t-156 -38q-90 0 -157 38zM290 945h95l-43 -174h-9zM434 945h94l-43 -174h-9z" glyph-name="Udieresis" horiz-adv-x="797" unicode="Ü"/>
<glyph d="M289 271l-284 429h101l247 -377l248 377h62l-284 -430v-270h-90v271zM381 945h82l-94 -167h-48z" glyph-name="Yacute" horiz-adv-x="667" unicode="Ý"/>
<glyph d="M208 700v-137h129q125 0 196.5 -55.5t71.5 -152.5t-71.5 -152.5t-196.5 -55.5h-129v-147h-88v700h88zM468.5 237.5q48.5 42.5 48.5 116.5q0 75 -48 117t-134 42h-127v-318h127q85 0 133.5 42.5z" glyph-name="Thorn" horiz-adv-x="654" unicode="Þ"/>
<glyph d="M42 454v46h101v55q0 85 60.5 135t165.5 50q103 0 165.5 -49t62.5 -134v-91q-36 4 -74 4q-54 0 -96.5 -22.5t-42.5 -71.5q0 -29 20 -45.5t47 -24.5t90 -23q63 -13 104 -27.5t68.5 -43.5t27.5 -77q0 -50 -31 -83t-77.5 -48t-95.5 -15q-88 0 -150.5 42t-74.5 123h44 q11 -61 61 -92.5t117 -31.5q52 0 96.5 22t44.5 68q0 32 -20 50.5t-49 27t-93 21.5q-59 12 -99 26.5t-66.5 42.5t-26.5 75q0 67 50 102t121 40h28v55q0 64 -44 99t-115 35t-113.5 -32.5t-42.5 -93.5q0 -13 6 -43q11 -46 11 -86v-639h-79v654h-101z" glyph-name="germandbls" horiz-adv-x="764" unicode="ß"/>
<glyph d="M86 24.5q-42 35.5 -42 95.5q0 77 68 110.5t178 41.5q67 5 101 18t34 41q0 60 -40 97t-104 37q-65 0 -109 -38t-55 -104h-47q13 87 72.5 137t149.5 50q95 0 152 -54.5t57 -147.5v-262h69v-46h-141v121q-27 -61 -86.5 -96.5t-135.5 -35.5q-79 0 -121 35.5zM329.5 60 q44.5 25 70 68.5t25.5 96.5l1 48q-25 -23 -117 -31q-97 -9 -140.5 -36.5t-43.5 -78.5q0 -45 28.5 -68.5t77.5 -23.5q54 0 98.5 25zM254 578l-94 167h82l59 -167h-47z" glyph-name="agrave" horiz-adv-x="602" unicode="à"/>
<glyph d="M86 24.5q-42 35.5 -42 95.5q0 77 68 110.5t178 41.5q67 5 101 18t34 41q0 60 -40 97t-104 37q-65 0 -109 -38t-55 -104h-47q13 87 72.5 137t149.5 50q95 0 152 -54.5t57 -147.5v-262h69v-46h-141v121q-27 -61 -86.5 -96.5t-135.5 -35.5q-79 0 -121 35.5zM329.5 60 q44.5 25 70 68.5t25.5 96.5l1 48q-25 -23 -117 -31q-97 -9 -140.5 -36.5t-43.5 -78.5q0 -45 28.5 -68.5t77.5 -23.5q54 0 98.5 25zM331 745h82l-94 -167h-48z" glyph-name="aacute" horiz-adv-x="602" unicode="á"/>
<glyph d="M86 24.5q-42 35.5 -42 95.5q0 77 68 110.5t178 41.5q67 5 101 18t34 41q0 60 -40 97t-104 37q-65 0 -109 -38t-55 -104h-47q13 87 72.5 137t149.5 50q95 0 152 -54.5t57 -147.5v-262h69v-46h-141v121q-27 -61 -86.5 -96.5t-135.5 -35.5q-79 0 -121 35.5zM329.5 60 q44.5 25 70 68.5t25.5 96.5l1 48q-25 -23 -117 -31q-97 -9 -140.5 -36.5t-43.5 -78.5q0 -45 28.5 -68.5t77.5 -23.5q54 0 98.5 25zM381 585l-112 118l-112 -118h-56l146 160h77l147 -160h-90z" glyph-name="acircumflex" horiz-adv-x="602" unicode="â"/>
<glyph d="M86 24.5q-42 35.5 -42 95.5q0 77 68 110.5t178 41.5q67 5 101 18t34 41q0 60 -40 97t-104 37q-65 0 -109 -38t-55 -104h-47q13 87 72.5 137t149.5 50q95 0 152 -54.5t57 -147.5v-262h69v-46h-141v121q-27 -61 -86.5 -96.5t-135.5 -35.5q-79 0 -121 35.5zM329.5 60 q44.5 25 70 68.5t25.5 96.5l1 48q-25 -23 -117 -31q-97 -9 -140.5 -36.5t-43.5 -78.5q0 -45 28.5 -68.5t77.5 -23.5q54 0 98.5 25zM125 694q27 29 69 29q26 0 49.5 -6.5t54.5 -19.5q30 -12 47 -17t35 -5q22 0 37.5 13t15.5 33h42q0 -48 -27.5 -77t-69.5 -29q-26 0 -49.5 6.5 t-53.5 19.5q-29 11 -46.5 16.5t-35.5 5.5q-22 0 -37.5 -13t-15.5 -33h-42q0 48 27 77z" glyph-name="atilde" horiz-adv-x="602" unicode="ã"/>
<glyph d="M86 24.5q-42 35.5 -42 95.5q0 77 68 110.5t178 41.5q67 5 101 18t34 41q0 60 -40 97t-104 37q-65 0 -109 -38t-55 -104h-47q13 87 72.5 137t149.5 50q95 0 152 -54.5t57 -147.5v-262h69v-46h-141v121q-27 -61 -86.5 -96.5t-135.5 -35.5q-79 0 -121 35.5zM329.5 60 q44.5 25 70 68.5t25.5 96.5l1 48q-25 -23 -117 -31q-97 -9 -140.5 -36.5t-43.5 -78.5q0 -45 28.5 -68.5t77.5 -23.5q54 0 98.5 25zM167 745h95l-43 -174h-9zM311 745h94l-43 -174h-9z" glyph-name="adieresis" horiz-adv-x="602" unicode="ä"/>
<glyph d="M86 24.5q-42 35.5 -42 95.5q0 77 68 110.5t178 41.5q67 5 101 18t34 41q0 60 -40 97t-104 37q-65 0 -109 -38t-55 -104h-47q13 87 72.5 137t149.5 50q95 0 152 -54.5t57 -147.5v-262h69v-46h-141v121q-27 -61 -86.5 -96.5t-135.5 -35.5q-79 0 -121 35.5zM329.5 60 q44.5 25 70 68.5t25.5 96.5l1 48q-25 -23 -117 -31q-97 -9 -140.5 -36.5t-43.5 -78.5q0 -45 28.5 -68.5t77.5 -23.5q54 0 98.5 25zM195 607.5q-37 37.5 -37 90.5q0 35 17 64.5t46.5 47t64.5 17.5t64.5 -17.5t47 -47t17.5 -64.5t-17.5 -64.5t-47 -46.5t-64.5 -17 q-54 0 -91 37.5zM352.5 645.5q25.5 20.5 25.5 52.5t-25.5 53t-66.5 21q-42 0 -67 -20.5t-25 -53.5q0 -32 25 -52.5t67 -20.5q41 0 66.5 20.5z" glyph-name="aring" horiz-adv-x="602" unicode="å"/>
<glyph d="M87 25q-43 36 -43 95q0 77 68 110.5t178 41.5q67 5 101 18t34 41q0 60 -40 97t-104 37q-65 0 -109 -38t-55 -104h-47q13 87 72 137t148 50q69 0 116.5 -33t64.5 -91q30 57 87.5 90.5t128.5 33.5q74 0 133 -33.5t93 -92.5t34 -133q0 -12 -1 -17h-445q5 -89 59 -143.5 t136 -54.5q63 0 111 30.5t67 81.5h51q-20 -70 -84.5 -114t-155.5 -44q-83 0 -147.5 43.5t-91.5 114.5q-23 -77 -89 -118t-147 -41q-80 0 -123 36zM841 373q-24 45 -64.5 70t-91.5 25q-50 0 -91 -25t-65.5 -70t-27.5 -102v-3h367q-3 60 -27 105zM329.5 60q44.5 25 70 68.5 t25.5 96.5l1 48q-25 -23 -117 -31q-97 -9 -140.5 -36.5t-43.5 -78.5q0 -45 28.5 -68.5t77.5 -23.5q54 0 98.5 25z" glyph-name="ae" horiz-adv-x="986" unicode="æ"/>
<glyph d="M175.5 24q-59.5 34 -93.5 93t-34 133t34 133.5t93.5 93t134.5 33.5q99 0 164.5 -53t80.5 -144h-50q-14 68 -63 108t-120 40q-56 0 -100 -27t-68.5 -75t-24.5 -109t24.5 -109t68.5 -75t100 -27q71 0 120 40t63 108h50q-15 -90 -80.5 -143.5t-164.5 -53.5q-75 0 -134.5 34z M271 -245h-81l93 167h48z" glyph-name="ccedilla" horiz-adv-x="596" unicode="ç"/>
<glyph d="M176 23.5q-60 33.5 -94 93t-34 132.5q0 74 34.5 134t95 93.5t135.5 33.5q74 0 133 -33.5t93 -92.5t34 -133q0 -12 -1 -17h-444q3 -59 28.5 -104t68.5 -69.5t97 -24.5q63 0 111 30.5t67 81.5h51q-20 -70 -84.5 -114t-155.5 -44q-75 0 -135 33.5zM467 373q-24 45 -64.5 70 t-91.5 25q-50 0 -91 -25t-65.5 -70t-26.5 -102v-3h366q-3 60 -27 105zM273 578l-94 167h82l59 -167h-47z" glyph-name="egrave" horiz-adv-x="612" unicode="è"/>
<glyph d="M176 23.5q-60 33.5 -94 93t-34 132.5q0 74 34.5 134t95 93.5t135.5 33.5q74 0 133 -33.5t93 -92.5t34 -133q0 -12 -1 -17h-444q3 -59 28.5 -104t68.5 -69.5t97 -24.5q63 0 111 30.5t67 81.5h51q-20 -70 -84.5 -114t-155.5 -44q-75 0 -135 33.5zM467 373q-24 45 -64.5 70 t-91.5 25q-50 0 -91 -25t-65.5 -70t-26.5 -102v-3h366q-3 60 -27 105zM350 745h82l-94 -167h-48z" glyph-name="eacute" horiz-adv-x="612" unicode="é"/>
<glyph d="M176 23.5q-60 33.5 -94 93t-34 132.5q0 74 34.5 134t95 93.5t135.5 33.5q74 0 133 -33.5t93 -92.5t34 -133q0 -12 -1 -17h-444q3 -59 28.5 -104t68.5 -69.5t97 -24.5q63 0 111 30.5t67 81.5h51q-20 -70 -84.5 -114t-155.5 -44q-75 0 -135 33.5zM467 373q-24 45 -64.5 70 t-91.5 25q-50 0 -91 -25t-65.5 -70t-26.5 -102v-3h366q-3 60 -27 105zM400 585l-112 118l-112 -118h-56l146 160h77l147 -160h-90z" glyph-name="ecircumflex" horiz-adv-x="612" unicode="ê"/>
<glyph d="M176 23.5q-60 33.5 -94 93t-34 132.5q0 74 34.5 134t95 93.5t135.5 33.5q74 0 133 -33.5t93 -92.5t34 -133q0 -12 -1 -17h-444q3 -59 28.5 -104t68.5 -69.5t97 -24.5q63 0 111 30.5t67 81.5h51q-20 -70 -84.5 -114t-155.5 -44q-75 0 -135 33.5zM467 373q-24 45 -64.5 70 t-91.5 25q-50 0 -91 -25t-65.5 -70t-26.5 -102v-3h366q-3 60 -27 105zM186 745h95l-43 -174h-9zM330 745h94l-43 -174h-9z" glyph-name="edieresis" horiz-adv-x="612" unicode="ë"/>
<glyph d="M96 500h80v-500h-80v500zM104 578l-94 167h82l59 -167h-47z" glyph-name="igrave" horiz-adv-x="272" unicode="ì"/>
<glyph d="M96 500h80v-500h-80v500zM181 745h82l-94 -167h-48z" glyph-name="iacute" horiz-adv-x="272" unicode="í"/>
<glyph d="M96 500h80v-500h-80v500zM231 585l-112 118l-112 -118h-56l146 160h77l147 -160h-90z" glyph-name="icircumflex" horiz-adv-x="272" unicode="î"/>
<glyph d="M96 500h80v-500h-80v500zM17 745h95l-43 -174h-9zM161 745h94l-43 -174h-9z" glyph-name="idieresis" horiz-adv-x="272" unicode="ï"/>
<glyph d="M179.5 24q-61.5 34 -96.5 93t-35 132t34.5 132.5t95 93.5t135.5 34q57 0 108 -29q-12 17 -26 35l-50 65h-173v37h147l-73 93h58l74 -93h145v-37h-120l100 -128q41 -49 62 -97.5t21 -104.5q0 -73 -35 -132.5t-96.5 -93.5t-138.5 -34q-75 0 -136.5 34zM413.5 64 q42.5 27 67 75.5t24.5 110.5t-24.5 111t-67 76t-96.5 27t-96.5 -27t-66.5 -75.5t-24 -111.5q0 -62 24 -110.5t66.5 -75.5t96.5 -27t96.5 27z" glyph-name="eth" horiz-adv-x="634" unicode="ð"/>
<glyph d="M173 500v-114q24 58 73 91t112 33q101 0 158.5 -63.5t57.5 -175.5v-271h-80v265q0 92 -41.5 143t-115.5 51q-45 0 -82 -25.5t-58 -70.5t-21 -100v-263h-80v500h77zM175 694q27 29 69 29q26 0 49.5 -6.5t54.5 -19.5q30 -12 47 -17t35 -5q22 0 37.5 13t15.5 33h42 q0 -48 -27.5 -77t-69.5 -29q-26 0 -49.5 6.5t-53.5 19.5q-29 11 -46.5 16.5t-35.5 5.5q-22 0 -37.5 -13t-15.5 -33h-42q0 48 27 77z" glyph-name="ntilde" horiz-adv-x="660" unicode="ñ"/>
<glyph d="M179.5 24q-61.5 34 -96.5 93.5t-35 132.5t35 132.5t96.5 93.5t137.5 34t137.5 -34t96.5 -93.5t35 -132.5t-35 -132.5t-96.5 -93.5t-137.5 -34t-137.5 34zM413.5 64q42.5 27 67 75.5t24.5 110.5t-24.5 111t-67 76t-96.5 27t-96.5 -27t-66.5 -75.5t-24 -111.5 q0 -62 24 -110.5t66.5 -75.5t96.5 -27t96.5 27zM285 578l-94 167h82l59 -167h-47z" glyph-name="ograve" horiz-adv-x="634" unicode="ò"/>
<glyph d="M179.5 24q-61.5 34 -96.5 93.5t-35 132.5t35 132.5t96.5 93.5t137.5 34t137.5 -34t96.5 -93.5t35 -132.5t-35 -132.5t-96.5 -93.5t-137.5 -34t-137.5 34zM413.5 64q42.5 27 67 75.5t24.5 110.5t-24.5 111t-67 76t-96.5 27t-96.5 -27t-66.5 -75.5t-24 -111.5 q0 -62 24 -110.5t66.5 -75.5t96.5 -27t96.5 27zM362 745h82l-94 -167h-48z" glyph-name="oacute" horiz-adv-x="634" unicode="ó"/>
<glyph d="M179.5 24q-61.5 34 -96.5 93.5t-35 132.5t35 132.5t96.5 93.5t137.5 34t137.5 -34t96.5 -93.5t35 -132.5t-35 -132.5t-96.5 -93.5t-137.5 -34t-137.5 34zM413.5 64q42.5 27 67 75.5t24.5 110.5t-24.5 111t-67 76t-96.5 27t-96.5 -27t-66.5 -75.5t-24 -111.5 q0 -62 24 -110.5t66.5 -75.5t96.5 -27t96.5 27zM412 585l-112 118l-112 -118h-56l146 160h77l147 -160h-90z" glyph-name="ocircumflex" horiz-adv-x="634" unicode="ô"/>
<glyph d="M179.5 24q-61.5 34 -96.5 93.5t-35 132.5t35 132.5t96.5 93.5t137.5 34t137.5 -34t96.5 -93.5t35 -132.5t-35 -132.5t-96.5 -93.5t-137.5 -34t-137.5 34zM413.5 64q42.5 27 67 75.5t24.5 110.5t-24.5 111t-67 76t-96.5 27t-96.5 -27t-66.5 -75.5t-24 -111.5 q0 -62 24 -110.5t66.5 -75.5t96.5 -27t96.5 27zM156 694q27 29 69 29q26 0 49.5 -6.5t54.5 -19.5q30 -12 47 -17t35 -5q22 0 37.5 13t15.5 33h42q0 -48 -27.5 -77t-69.5 -29q-26 0 -49.5 6.5t-53.5 19.5q-29 11 -46.5 16.5t-35.5 5.5q-22 0 -37.5 -13t-15.5 -33h-42 q0 48 27 77z" glyph-name="otilde" horiz-adv-x="634" unicode="õ"/>
<glyph d="M179.5 24q-61.5 34 -96.5 93.5t-35 132.5t35 132.5t96.5 93.5t137.5 34t137.5 -34t96.5 -93.5t35 -132.5t-35 -132.5t-96.5 -93.5t-137.5 -34t-137.5 34zM413.5 64q42.5 27 67 75.5t24.5 110.5t-24.5 111t-67 76t-96.5 27t-96.5 -27t-66.5 -75.5t-24 -111.5 q0 -62 24 -110.5t66.5 -75.5t96.5 -27t96.5 27zM198 745h95l-43 -174h-9zM342 745h94l-43 -174h-9z" glyph-name="odieresis" horiz-adv-x="634" unicode="ö"/>
<glyph d="M249.5 502.5q-12.5 12.5 -12.5 30.5q0 19 12.5 31.5t30.5 12.5q19 0 31 -12.5t12 -31.5q0 -18 -12 -30.5t-31 -12.5q-18 0 -30.5 12.5zM73 373h415v-46h-415v46zM249.5 136.5q-12.5 12.5 -12.5 30.5t12.5 30.5t30.5 12.5q19 0 31 -12.5t12 -30.5t-12 -30.5t-31 -12.5 q-18 0 -30.5 12.5z" glyph-name="divide" unicode="÷"/>
<glyph d="M149 47l-44 -47h-51l66 70q-34 35 -53 81.5t-19 98.5q0 73 35 132.5t96.5 93.5t137.5 34q47 0 89 -14t75 -40l43 44h51l-64 -67q36 -36 55.5 -82.5t19.5 -100.5q0 -73 -35 -132.5t-96.5 -93.5t-137.5 -34q-97 0 -168 57zM317 468q-55 0 -99 -27.5t-69 -77t-25 -113.5 q0 -72 44 -126l270 285q-44 59 -121 59zM416 59.5q44 27.5 69 77t25 113.5q0 38 -11.5 72t-32.5 59l-270 -284q44 -65 121 -65q55 0 99 27.5z" glyph-name="oslash" horiz-adv-x="634" unicode="ø"/>
<glyph d="M143.5 54q-57.5 64 -57.5 176v270h80l1 -264q0 -92 41 -143.5t115 -51.5q45 0 82 25.5t58.5 70.5t21.5 101v262h79v-500h-76v115q-24 -58 -73 -91.5t-113 -33.5q-101 0 -158.5 64zM293 578l-94 167h82l59 -167h-47z" glyph-name="ugrave" horiz-adv-x="660" unicode="ù"/>
<glyph d="M143.5 54q-57.5 64 -57.5 176v270h80l1 -264q0 -92 41 -143.5t115 -51.5q45 0 82 25.5t58.5 70.5t21.5 101v262h79v-500h-76v115q-24 -58 -73 -91.5t-113 -33.5q-101 0 -158.5 64zM370 745h82l-94 -167h-48z" glyph-name="uacute" horiz-adv-x="660" unicode="ú"/>
<glyph d="M143.5 54q-57.5 64 -57.5 176v270h80l1 -264q0 -92 41 -143.5t115 -51.5q45 0 82 25.5t58.5 70.5t21.5 101v262h79v-500h-76v115q-24 -58 -73 -91.5t-113 -33.5q-101 0 -158.5 64zM420 585l-112 118l-112 -118h-56l146 160h77l147 -160h-90z" glyph-name="ucircumflex" horiz-adv-x="660" unicode="û"/>
<glyph d="M143.5 54q-57.5 64 -57.5 176v270h80l1 -264q0 -92 41 -143.5t115 -51.5q45 0 82 25.5t58.5 70.5t21.5 101v262h79v-500h-76v115q-24 -58 -73 -91.5t-113 -33.5q-101 0 -158.5 64zM206 745h95l-43 -174h-9zM350 745h94l-43 -174h-9z" glyph-name="udieresis" horiz-adv-x="660" unicode="ü"/>
<glyph d="M69.5 -166.5q-44.5 43.5 -44.5 118.5v27h48v-29q0 -52 30 -84t78 -32q45 0 72.5 27.5t27.5 73.5v12q0 23 -6.5 46t-24.5 57l-238 450h88l194 -368q19 -40 21 -60q2 12 11 35l162 393h53l-180 -431q-10 -23 -14 -42.5t-4 -46.5v-25q0 -76 -44 -120.5t-115 -44.5 q-70 0 -114.5 43.5zM326 745h82l-94 -167h-48z" glyph-name="yacute" horiz-adv-x="549" unicode="ý"/>
<glyph d="M176 710v-328q25 59 76.5 93.5t120.5 34.5q68 0 123 -33.5t87 -93t32 -133.5t-32 -133.5t-87 -93t-123 -33.5q-69 0 -120.5 34.5t-76.5 94.5v-319h-80v910h80zM446.5 66.5q40.5 26.5 64 74t23.5 109.5t-23 110t-64 74t-91 26q-51 0 -93 -27.5t-66 -75.5t-24 -107 q0 -58 24 -106t66 -76t93 -28q50 0 90.5 26.5z" glyph-name="thorn" horiz-adv-x="663" unicode="þ"/>
<glyph d="M96 500h80v-500h-80v500z" glyph-name="dotlessi" horiz-adv-x="272" unicode="ı"/>
<glyph d="M-52.5 -193q-37.5 17 -59 46t-21.5 65h47v-1q0 -36 34 -60.5t81 -24.5q51 0 84 29.5t33 85.5q0 18 -3 40.5t-4 31.5q-10 58 -10 100v381h79v-526q0 -87 -47 -135.5t-130 -48.5q-46 0 -83.5 17z" glyph-name="uni0237" horiz-adv-x="301" unicode="ȷ"/>
<glyph d="M-332 578l-94 167h82l59 -167h-47z" glyph-name="gravecomb" horiz-adv-x="0" unicode="̀"/>
<glyph d="M-255 745h82l-94 -167h-48z" glyph-name="acutecomb" horiz-adv-x="0" unicode="́"/>
<glyph d="M-205 585l-112 118l-112 -118h-56l146 160h77l147 -160h-90z" glyph-name="uni0302" horiz-adv-x="0" unicode="̂"/>
<glyph d="M-461 694q27 29 69 29q26 0 49.5 -6.5t54.5 -19.5q30 -12 47 -17t35 -5q22 0 37.5 13t15.5 33h42q0 -48 -27.5 -77t-69.5 -29q-26 0 -49.5 6.5t-53.5 19.5q-29 11 -46.5 16.5t-35.5 5.5q-22 0 -37.5 -13t-15.5 -33h-42q0 48 27 77z" glyph-name="tildecomb" horiz-adv-x="0" unicode="̃"/>
<glyph d="M-350 745h100l-45 -174h-10z" glyph-name="uni0307" horiz-adv-x="0" unicode="̇"/>
<glyph d="M-419 745h95l-43 -174h-9zM-275 745h94l-43 -174h-9z" glyph-name="uni0308" horiz-adv-x="0" unicode="̈"/>
<glyph d="M-391 607.5q-37 37.5 -37 90.5q0 35 17 64.5t46.5 47t64.5 17.5t64.5 -17.5t47 -47t17.5 -64.5t-17.5 -64.5t-47 -46.5t-64.5 -17q-54 0 -91 37.5zM-233.5 645.5q25.5 20.5 25.5 52.5t-25.5 53t-66.5 21q-42 0 -67 -20.5t-25 -53.5q0 -32 25 -52.5t67 -20.5 q41 0 66.5 20.5z" glyph-name="uni030A" horiz-adv-x="0" unicode="̊"/>
<glyph d="M-335 -245h-81l93 167h48z" glyph-name="uni0327" horiz-adv-x="0" unicode="̧"/>
<glyph d="M77 323h394v-46h-394v46z" glyph-name="endash" horiz-adv-x="547" unicode="–"/>
<glyph d="M130 350l109 -200h-54l-106 194v12l106 194h54zM315 350l109 -200h-54l-106 194v12l106 194h54z" glyph-name="guillemotleft.case" horiz-adv-x="503"/>
<glyph d="M374 350l-109 200h53l106 -194v-12l-106 -194h-53zM189 350l-109 200h53l106 -194v-12l-106 -194h-53z" glyph-name="guillemotright.case" horiz-adv-x="503"/>
<glyph d="M225 33q-84 48 -132 132t-48 185t48 185t132 132t185 48t185 -48t132 -132t48 -185q0 -112 -56 -198h-191v98q-22 -50 -70 -78.5t-109 -28.5q-62 0 -98 28.5t-36 76.5q0 58 50 88t162 37q55 4 77 16t22 36q0 44 -32.5 72.5t-83.5 28.5q-53 0 -88.5 -29.5t-44.5 -81.5h-42 q10 70 58.5 110.5t122.5 40.5q79 0 127 -44.5t48 -119.5v-210h113q40 72 40 158q0 93 -44 169.5t-120.5 120.5t-169.5 44t-169 -44t-120 -120.5t-44 -169.5t44 -169t120 -120t169 -44q68 0 128 23.5t106 66.5l21 -22q-49 -48 -114.5 -74t-140.5 -26q-101 0 -185 48z M448 202.5q36 20.5 57.5 56t21.5 76.5v36q-31 -20 -97 -26q-76 -6 -111.5 -28t-35.5 -62q0 -35 23 -54t64 -19q42 0 78 20.5z" glyph-name="at.case" horiz-adv-x="820"/>
<glyph d="M-350 745h100l-45 -174h-10z" glyph-name="uni0307.cv01" horiz-adv-x="0"/>
</font>
</defs>
</svg>
