<svg width="48" height="48" viewBox="0 0 48 48" fill="none" xmlns="http://www.w3.org/2000/svg">
<g id="ep:arrow-up-bold">
<path id="Vector" d="M31.4365 23.9999L31.0829 24.3535L16.2361 39.2003C15.7825 39.6715 15.5316 40.3017 15.5373 40.9558C15.543 41.6113 15.8059 42.2383 16.2694 42.7018C16.733 43.1653 17.36 43.4282 18.0155 43.4339C18.6696 43.4396 19.2999 43.1887 19.7711 42.7351L36.7387 25.7674C36.7388 25.7674 36.7388 25.7674 36.7388 25.7673C37.2074 25.2985 37.4707 24.6628 37.4707 23.9999C37.4707 23.337 37.2074 22.7013 36.7388 22.2325L36.7387 22.2324M31.4365 23.9999L36.7387 22.2324M31.4365 23.9999L31.0829 23.6463L16.233 8.7964M31.4365 23.9999L16.233 8.7964M36.7387 22.2324L19.7678 5.26151M36.7387 22.2324L19.7678 5.26151M19.7678 5.26151C19.7678 5.26149 19.7678 5.26147 19.7678 5.26145C19.299 4.79281 18.6632 4.52954 18.0003 4.52954C17.3375 4.52954 16.7018 4.79279 16.233 5.2614C16.2329 5.26144 16.2329 5.26147 16.2328 5.26151M19.7678 5.26151L15.8793 9.1499C15.3169 8.58732 15.001 7.82439 15.001 7.0289C15.001 6.23341 15.3169 5.47048 15.8793 4.9079L16.2328 5.26151M16.2328 5.26151C15.7642 5.73032 15.501 6.36604 15.501 7.0289C15.501 7.69178 15.7643 8.32753 16.2329 8.79635C16.2329 8.79636 16.2329 8.79638 16.233 8.7964M16.2328 5.26151L16.233 8.7964" fill="#FBFBFB" stroke="#242424"/>
</g>
</svg>
