<svg width="48" height="48" viewBox="0 0 48 48" fill="none" xmlns="http://www.w3.org/2000/svg">
<g id="ep:arrow-up-bold">
<path id="Vector" d="M16.5635 24L16.9171 23.6464L31.7638 8.79969C32.2174 8.3285 32.4684 7.69825 32.4627 7.04412C32.457 6.38863 32.1941 5.76159 31.7306 5.29807C31.267 4.83455 30.64 4.57163 29.9845 4.56594C29.3304 4.56025 28.7001 4.81118 28.2289 5.26479L11.2613 22.2325C11.2612 22.2325 11.2612 22.2325 11.2612 22.2325C10.7926 22.7013 10.5293 23.3371 10.5293 24C10.5293 24.6629 10.7926 25.2986 11.2612 25.7674L11.2613 25.7675M16.5635 24L11.2613 25.7675M16.5635 24L16.9171 24.3535L31.767 39.2035M16.5635 24L31.767 39.2035M11.2613 25.7675L28.2322 42.7384M11.2613 25.7675L28.2322 42.7384M28.2322 42.7384C28.2322 42.7384 28.2322 42.7384 28.2322 42.7384C28.701 43.2071 29.3368 43.4703 29.9997 43.4703C30.6625 43.4703 31.2982 43.2071 31.767 42.7385C31.7671 42.7384 31.7671 42.7384 31.7672 42.7384M28.2322 42.7384L32.1207 38.85C32.6831 39.4126 32.999 40.1755 32.999 40.971C32.999 41.7665 32.6831 42.5294 32.1207 43.092L31.7672 42.7384M31.7672 42.7384C32.2358 42.2696 32.499 41.6338 32.499 40.971C32.499 40.3081 32.2357 39.6723 31.7671 39.2035C31.7671 39.2035 31.7671 39.2035 31.767 39.2035M31.7672 42.7384L31.767 39.2035" fill="#FBFBFB" stroke="#242424"/>
</g>
</svg>
