<svg width="32" height="32" viewBox="0 0 32 32" fill="none" xmlns="http://www.w3.org/2000/svg">
<path id="Vector" d="M0.77826 0.847446C1.27723 0.350155 1.9536 0.0708317 2.6588 0.0708317C3.36401 0.0708317 4.04038 0.350155 4.53934 0.847446L15.9645 12.2485L27.3897 0.847446C27.715 0.497893 28.1287 0.242357 28.5873 0.107761C29.0459 -0.0268356 29.5324 -0.0355081 29.9955 0.0826559C30.4586 0.20082 30.8812 0.441446 31.2188 0.779182C31.5564 1.11692 31.7964 1.53926 31.9136 2.00171C32.0322 2.46333 32.0239 2.9483 31.8897 3.40563C31.7554 3.86296 31.5002 4.27574 31.1508 4.60057L19.7256 16.0016L31.1508 27.4026C31.5011 27.7272 31.7571 28.14 31.892 28.5977C32.0269 29.0553 32.0356 29.5407 31.9172 30.0029C31.7988 30.465 31.5576 30.8867 31.2192 31.2236C30.8807 31.5605 30.4575 31.8 29.9941 31.917C29.5315 32.0353 29.0455 32.027 28.5872 31.8931C28.1289 31.7591 27.7152 31.5044 27.3897 31.1557L15.9645 19.7547L4.53934 31.1557C4.03457 31.6245 3.36733 31.8798 2.67785 31.8679C1.98838 31.8561 1.33037 31.5779 0.842127 31.092C0.355162 30.6048 0.0764329 29.9482 0.0645226 29.2601C0.0526123 28.5721 0.308449 27.9063 0.77826 27.4026L12.2034 16.0016L0.77826 4.60057C0.279915 4.10266 0 3.42772 0 2.72401C0 2.0203 0.279915 1.34536 0.77826 0.847446Z" fill="#FBFBFB"/>
</svg>
