<svg width="80" height="166" viewBox="0 0 80 166" fill="none" xmlns="http://www.w3.org/2000/svg">
<g clip-path="url(#clip0_181_20)">
<path d="M16.2569 0.356026C10.4498 4.3417 5.21386 9.09655 0.741467 14.5189C-3.00585 19.0703 -8.14558 26.0373 -4.65493 32.0762C-1.78027 37.0535 5.04704 37.6892 10.2253 37.7845C16.289 37.899 22.3848 37.3396 28.2881 35.9538C34.1914 34.568 39.7803 32.3877 44.7404 29.0694C47.1659 27.4485 49.4181 25.5732 51.3944 23.431C51.8757 22.9098 52.3505 22.3694 52.7997 21.8228C53.2167 21.3142 53.8391 20.7167 54.1087 20.1191C54.5257 19.172 52.9216 17.818 52.2222 17.373C50.1047 16.0254 47.2172 16.108 44.8302 16.5022C41.6347 17.0234 38.574 18.282 35.5582 19.4135C28.795 21.9499 22.1987 24.8931 15.7821 28.1986C9.36543 31.5041 3.08354 35.2291 -2.91602 39.2911C-8.91557 43.353 -14.5558 47.2879 -19.3619 52.3161C-23.4236 56.5624 -29.0831 63.8472 -24.97 69.7462C-23.2953 72.1491 -20.4591 73.6048 -17.777 74.6346C-14.3826 75.9377 -10.8341 76.8467 -7.24083 77.3998C7.51744 79.6691 22.6094 76.4081 36.7516 72.3525C44.1436 70.2357 51.4265 67.7439 58.5554 64.8897C62.1359 63.4594 65.6843 61.9338 69.1878 60.3128C71.7993 59.105 75.1296 57.6494 76.2076 54.7507C76.4193 54.1722 76.4771 53.5365 76.3808 52.9263C76.2461 52.0681 75.3413 51.8647 74.6098 51.566C73.0377 50.9239 71.3758 50.4853 69.6947 50.2374C66.2169 49.7289 62.662 49.9323 59.2035 50.479C55.5588 51.0511 51.9719 51.9664 48.4107 52.9136C44.6698 53.9116 40.9481 54.9922 37.2586 56.1619C29.9436 58.4821 22.7249 61.1201 15.6666 64.1269C9.15368 66.9048 2.76271 70.0387 -3.18552 73.8781C-9.13374 77.7176 -14.4339 81.9321 -18.7074 87.2845C-22.6215 92.1855 -25.7657 98.2372 -25.9261 104.607C-26.0801 110.677 -23.3209 116.227 -18.579 120.028C-13.8371 123.829 -7.36275 125.864 -1.06161 126.029C6.74744 126.226 14.3832 124.077 21.6725 121.522C28.3202 119.195 34.7946 116.417 41.07 113.252C47.3455 110.086 53.39 106.533 59.1778 102.585C62.0974 100.596 64.9528 98.5169 67.7376 96.3428C70.5224 94.1688 73.2623 92.0584 75.7263 89.6238C77.863 87.5133 80.1217 84.7037 79.9741 81.538C79.942 80.8833 79.8073 80.1459 79.48 79.5611C79.095 78.8809 77.94 78.7537 77.2085 78.6139C75.4247 78.2643 73.5767 78.2897 71.7865 78.5376C68.0584 79.0525 64.5293 80.4574 61.0515 81.8177C57.5736 83.178 54.2562 84.532 50.8939 85.9814C37.2521 91.8423 24.0082 98.6376 11.3033 106.291C5.00212 110.092 -1.17069 114.104 -7.19592 118.324C-12.6372 122.139 -18.0336 126.08 -22.814 130.707C-27.5944 135.335 -31.4572 140.268 -33.9533 146.192C-35.2559 149.288 -36.3275 152.74 -35.9232 156.134C-35.5895 158.957 -33.9982 161.36 -31.6497 162.949C-26.9078 166.153 -20.5874 166.108 -15.082 165.936C-7.36275 165.701 0.330807 164.932 7.96019 163.743C23.3986 161.334 38.5162 157.285 53.4285 152.714C60.5959 150.515 67.7183 148.188 74.8408 145.875C75.213 145.754 76.1049 145.436 75.9573 144.896C75.8161 144.381 74.8408 144.489 74.4943 144.597C57.3491 150.172 40.1396 155.715 22.5067 159.586C13.7159 161.512 4.81604 162.993 -4.15443 163.807C-8.50491 164.201 -12.8875 164.468 -17.2572 164.481C-20.3564 164.487 -23.5776 164.239 -26.5036 163.159C-29.4296 162.078 -31.9321 160.12 -32.8625 157.088C-34.0431 153.229 -32.593 148.939 -31.0337 145.385C-28.05 138.577 -22.891 132.939 -17.2957 128.114C-11.1806 122.838 -4.43034 118.255 2.31355 113.824C9.42318 109.152 16.7189 104.753 24.1815 100.653C31.644 96.5526 39.3375 92.7195 47.1466 89.2106C51.0351 87.4625 54.9557 85.797 58.9083 84.2078C62.861 82.6186 66.8136 80.7688 70.9844 80.1014C73.0057 79.7772 75.0526 79.7962 77.0032 80.4701L76.7273 80.1777C78.4534 83.7756 75.5338 87.3926 72.9928 89.7509C70.0219 92.5097 66.7815 95.0397 63.5475 97.4807C57.086 102.356 50.233 106.723 43.0977 110.557C35.9688 114.383 28.5319 117.651 20.8961 120.346C12.824 123.194 3.98829 125.635 -4.63568 124.077C-11.3411 122.863 -18.0657 119.011 -21.2676 112.858C-24.739 106.177 -23.1798 98.4724 -19.5608 92.1982C-15.653 85.4347 -9.64066 80.1268 -3.21118 75.7597C3.53271 71.1765 10.899 67.5977 18.4257 64.4701C26.7224 61.0248 35.2245 58.0498 43.8613 55.5643C47.9936 54.3756 52.158 53.2251 56.3737 52.3605C60.2879 51.5532 64.4074 51.0511 68.3857 51.6931C70.3299 52.0046 72.1843 52.5957 73.9361 53.4793L73.6666 53.1996C74.4302 56.0538 71.1705 57.8464 69.0145 58.8571C65.7099 60.4018 62.3605 61.8575 58.9789 63.2369C52.235 65.9894 45.3499 68.4113 38.3622 70.4836C25.0028 74.4439 10.7514 77.8447 -3.28176 76.3C-6.72108 75.925 -10.1476 75.2321 -13.4457 74.1769C-16.2305 73.2806 -19.1758 72.1745 -21.3318 70.134C-26.7025 65.0613 -21.8644 57.7892 -17.963 53.4666C-13.5356 48.5592 -7.94666 44.618 -2.5246 40.8739C2.89746 37.1298 8.98043 33.4111 15.0313 30.1755C21.0822 26.9399 27.3128 24.073 33.6909 21.5558C36.6811 20.3734 39.729 19.1148 42.8346 18.2693C44.9393 17.6972 47.4867 17.3031 49.54 18.2503C50.5153 18.6952 51.234 19.4453 51.6382 20.4243L51.7281 20.0556C44.4195 30.2581 31.9584 34.8096 19.8053 36.0237C16.7446 36.3288 13.6646 36.4305 10.591 36.3479C7.51744 36.2653 4.54012 35.9856 1.81305 34.7397C-0.914024 33.4937 -2.99302 31.0782 -3.24968 27.9697C-3.53843 24.518 -1.74819 21.1108 0.151138 18.3393C4.79037 11.582 11.0273 5.71476 17.7905 1.07434C18.1434 0.832781 18.5091 0.413236 18.0086 0.114469C17.5531 -0.158871 16.6483 0.0699721 16.2505 0.343312L16.2569 0.356026Z" fill="#FBFBFB"/>
</g>
<defs>
<clipPath id="clip0_181_20">
<rect width="116" height="166" fill="white" transform="translate(-36)"/>
</clipPath>
</defs>
</svg>
