<svg width="25" height="50" viewBox="0 0 25 50" fill="none" xmlns="http://www.w3.org/2000/svg">
<g id="Frame" clip-path="url(#clip0_181_41)">
<path id="Vector" d="M3.0064 48.8092C2.72766 36.7416 2.75421 24.6674 3.08604 12.6064C3.13249 10.9499 3.18558 9.30013 3.23868 7.64367C3.29177 5.9872 3.51741 4.18438 3.3515 2.50131C3.25859 1.58992 0.822961 2.28177 0.690229 3.02685C0.424766 4.53696 0.491132 6.14021 0.438039 7.66363C0.384947 9.18704 0.338491 10.6439 0.298671 12.1274C0.212396 15.161 0.14603 18.1945 0.0929372 21.228C2.50216e-05 27.2552 -0.0265213 33.2757 0.0265713 39.3028C0.0597542 42.7222 0.112847 46.1415 0.192486 49.5609C0.212396 50.4457 3.02631 49.8935 2.99976 48.8092H3.0064Z" fill="#FBFBFB"/>
<path id="Vector_2" d="M24.3296 47.2259C24.6814 35.3379 24.7942 23.4499 24.6681 11.562C24.6349 8.13594 24.5752 4.70992 24.5022 1.28389C24.4823 0.478944 21.9139 0.97788 21.9404 1.97575C22.1993 13.7972 22.2258 25.6253 22.0134 37.4467C21.9537 40.8196 21.8674 44.1924 21.7679 47.5585C21.7347 48.6096 24.3097 48.0907 24.3296 47.2392V47.2259Z" fill="#FBFBFB"/>
<path id="Vector_3" d="M1.99083 4.11788C4.89765 4.09127 7.85093 3.28632 10.7047 2.80734C14.8392 2.10883 19.0269 1.4702 23.2279 1.45689C23.7787 1.45689 24.6216 1.27728 24.9202 0.758382C25.2189 0.239489 24.668 0 24.2234 0C19.9627 0.0133049 15.7286 0.612028 11.5342 1.31054C9.75563 1.60325 7.98366 1.92922 6.21169 2.22858C5.55467 2.34167 4.89765 2.44811 4.24063 2.54125C3.9818 2.57451 3.72298 2.60777 3.45751 2.63438C3.33142 2.64768 3.20532 2.66099 3.07259 2.66764C2.99295 2.66764 3.27169 2.66764 2.98632 2.66764C2.43548 2.66764 1.59927 2.84061 1.29399 3.36615C0.988705 3.8917 1.54618 4.12453 1.99083 4.12453V4.11788Z" fill="#FBFBFB"/>
<path id="Vector_4" d="M3.68328 48.6563C7.95724 41.8242 10.9503 34.2603 14.6535 27.1222C15.211 26.0445 12.6559 26.3172 12.2644 27.069C8.56117 34.2071 5.56807 41.7709 1.29411 48.603C0.975555 49.1153 1.57285 49.3348 1.99095 49.3614C2.52851 49.388 3.37136 49.1552 3.68328 48.6629V48.6563Z" fill="#FBFBFB"/>
<path id="Vector_5" d="M11.8262 27.681C15.1047 34.094 18.8344 40.2874 22.5376 46.4676C22.969 47.1861 25.4644 46.3745 24.9202 45.4631C21.2767 39.3894 17.6199 33.3023 14.3946 26.9958C13.9499 26.1177 11.4545 26.9492 11.8328 27.6877L11.8262 27.681Z" fill="#FBFBFB"/>
</g>
<defs>
<clipPath id="clip0_181_41">
<rect width="25" height="50" fill="white"/>
</clipPath>
</defs>
</svg>
