<svg width="29" height="34" viewBox="0 0 29 34" fill="none" xmlns="http://www.w3.org/2000/svg">
<g id="Frame" clip-path="url(#clip0_248_284)">
<path id="Vector" d="M7.51072 12.6766C13.0081 9.57621 18.5054 6.47581 24.0028 3.37541C25.5615 2.49505 27.1271 1.62165 28.6753 0.720414C28.8885 0.598625 29.0633 0.344608 28.7977 0.181063C28.532 0.0175174 28.0637 0.174103 27.8156 0.309811C22.2763 3.34062 16.8034 6.50017 11.3061 9.60057L6.61605 12.2451C6.39238 12.3704 6.21414 12.6418 6.49023 12.8088C6.76632 12.9759 7.25909 12.8193 7.51771 12.6731L7.51072 12.6766Z" fill="#FBFBFB"/>
<path id="Vector_2" d="M27.6473 0.567082C27.553 7.8431 27.3887 15.1191 27.1511 22.3917C27.0847 24.469 27.0078 26.5464 26.9309 28.6238C26.9099 29.1736 28.2624 28.9022 28.2799 28.4568C28.5595 21.1842 28.7657 13.9117 28.902 6.63565C28.9404 4.55828 28.9719 2.47743 28.9998 0.400057C29.0068 -0.153213 27.6543 0.125162 27.6508 0.567082H27.6473Z" fill="#FBFBFB"/>
<path id="Vector_3" d="M6.42382 12.6555C12.1623 16.5215 17.3766 21.0799 22.6607 25.5234C24.1425 26.7691 25.6348 28.0079 27.1446 29.2223C27.3857 29.4172 27.7737 29.3511 28.0393 29.2362C28.1721 29.1806 28.6404 28.8917 28.3992 28.6969C22.9683 24.3264 17.796 19.6358 12.2462 15.4114C10.6945 14.2318 9.11483 13.0905 7.49673 12.0014C7.13327 11.7578 5.88562 12.2902 6.42382 12.6521V12.6555Z" fill="#FBFBFB"/>
<path id="Vector_4" d="M27.5564 0.36881C23.6038 4.73234 19.721 9.15849 15.9082 13.6403C14.8213 14.9174 13.7414 16.2014 12.665 17.4889C12.4553 17.7394 12.8432 17.8751 13.0319 17.8855C13.3535 17.9029 13.7169 17.7672 13.9231 17.5202C17.6975 13.0035 21.5383 8.54259 25.4525 4.14427C26.5674 2.89158 27.6892 1.64237 28.8145 0.396648C29.0382 0.14959 28.6258 0.0104028 28.4476 -3.62755e-05C28.1156 -0.0174347 27.7766 0.125232 27.5564 0.365331V0.36881Z" fill="#FBFBFB"/>
<path id="Vector_5" d="M25.9949 1.25607C23.6813 6.45124 21.4726 11.6986 19.3827 16.9877C18.7886 18.4875 18.2049 19.9907 17.6283 21.4974C17.5164 21.7862 18.0616 21.8001 18.2119 21.7862C18.495 21.7549 18.8689 21.6192 18.9808 21.3304C21.0113 16.0169 23.1501 10.7452 25.4043 5.52217C26.0438 4.03982 26.6903 2.56443 27.3474 1.08905C27.4732 0.803713 26.9 0.786314 26.7637 0.800233C26.4667 0.83503 26.1242 0.970738 25.9949 1.25607Z" fill="#FBFBFB"/>
<path id="Vector_6" d="M17.4741 21.1809C16.5201 22.5902 15.4961 23.9438 14.4966 25.3218C14.3183 25.5653 14.6468 25.6906 14.8426 25.6976C15.1466 25.708 15.4926 25.5897 15.6883 25.3496C16.7612 24.0273 17.7363 22.618 18.6903 21.2088C18.8616 20.9547 18.5436 20.833 18.3374 20.826C18.0508 20.819 17.6454 20.9269 17.4741 21.1809Z" fill="#FBFBFB"/>
<path id="Vector_7" d="M13.1023 18.0003C13.4203 20.8293 13.658 23.6826 14.0843 26.5012C14.1507 26.9396 15.4019 26.6265 15.3669 26.1602C15.1503 23.3173 14.7449 20.4813 14.4233 17.6489C14.3744 17.2139 13.0464 17.5062 13.1023 18.0003Z" fill="#FBFBFB"/>
<path id="Vector_8" d="M16.2582 25.9446C16.8488 25.4052 17.4604 24.8902 18.0929 24.3996C18.7255 23.909 19.3755 23.4949 20.0361 23.0112C20.2318 22.865 20.1933 22.6423 19.9732 22.5693C19.6936 22.4753 19.3476 22.5693 19.1029 22.7119C18.3795 23.1295 17.698 23.6515 17.0375 24.1595C16.377 24.6675 15.7759 25.179 15.1783 25.7253C15.1049 25.7915 15.014 25.9063 15.0455 26.0142C15.0769 26.122 15.2097 26.1777 15.3076 26.1986C15.6116 26.2647 16.0275 26.1568 16.2617 25.9446H16.2582Z" fill="#FBFBFB"/>
<path id="Vector_9" d="M17.4704 23.9297C17.8863 23.5331 18.3057 23.1398 18.7216 22.7397C18.788 22.6736 18.8719 22.5761 18.8439 22.4718C18.8159 22.3674 18.6936 22.3186 18.6028 22.3012C18.449 22.2734 18.2847 22.2838 18.1379 22.3291C17.9912 22.3743 17.8339 22.43 17.7221 22.5379C17.2992 22.9311 16.8798 23.3278 16.4604 23.7244C16.3905 23.7906 16.3067 23.8915 16.3346 23.9959C16.3626 24.1002 16.4884 24.1524 16.5793 24.1698C16.733 24.1977 16.9008 24.1872 17.0511 24.142C17.2013 24.0968 17.3586 24.0376 17.4704 23.9297Z" fill="#FBFBFB"/>
<path id="Vector_10" d="M15.887 24.5806L15.7612 24.6432C15.6214 24.7128 15.852 24.598 15.7402 24.6537L16.4881 25.0121C17.1871 24.2535 17.914 23.5228 18.6549 22.8025C18.7213 22.7364 18.8052 22.6389 18.7772 22.5345C18.7492 22.4301 18.6269 22.3814 18.5361 22.364C18.253 22.3118 17.8686 22.3954 17.6519 22.6007C16.9005 23.307 16.1806 24.0482 15.4851 24.8103C15.4292 24.8729 15.3243 24.9773 15.3628 25.0782C15.3942 25.1617 15.4641 25.2035 15.548 25.2313C15.8206 25.3183 16.1351 25.2313 16.3763 25.0956C16.4706 25.0434 16.565 24.9982 16.6559 24.9494C16.8271 24.859 17.0228 24.5841 16.7642 24.4658C16.4811 24.3405 16.1421 24.4518 15.8835 24.5806H15.887Z" fill="#FBFBFB"/>
<path id="Vector_11" d="M18.1866 23.4635C18.4592 23.0285 18.7318 22.5935 18.9939 22.1516C19.0429 22.0646 19.0638 21.9742 18.9939 21.8906C18.924 21.8071 18.7563 21.7793 18.6515 21.7793C18.4837 21.7793 18.309 21.8071 18.1552 21.8767C18.0294 21.9324 17.8931 22.0055 17.8162 22.1238C17.5331 22.5553 17.264 22.9972 16.9914 23.4356C16.939 23.5226 16.9215 23.6166 16.9914 23.7001C17.0613 23.7836 17.2326 23.8114 17.3374 23.8114C17.5086 23.8114 17.6869 23.7836 17.8407 23.7105C17.9665 23.6548 18.1098 23.5818 18.1866 23.46V23.4635Z" fill="#FBFBFB"/>
<path id="Vector_12" d="M18.0018 22.6389C18.1905 22.8686 18.3792 23.0982 18.5749 23.3244C18.6134 23.3627 18.6623 23.3905 18.7182 23.401C18.7811 23.4253 18.8475 23.4358 18.9174 23.4358C19.0013 23.4358 19.0817 23.4288 19.1621 23.4114C19.2494 23.3975 19.3333 23.3731 19.4137 23.3383L19.557 23.2653C19.6339 23.22 19.7003 23.1643 19.7527 23.0913L19.7946 23.0008C19.8086 22.9382 19.7946 22.8825 19.7492 22.8338C19.5675 22.6006 19.3788 22.371 19.1935 22.1448C19.1516 22.103 19.1062 22.0787 19.0502 22.0682C18.9873 22.0439 18.9174 22.0334 18.8475 22.0334C18.7637 22.0334 18.6798 22.0404 18.5994 22.0578C18.512 22.0717 18.4282 22.0961 18.3443 22.1309L18.201 22.204C18.1241 22.2492 18.0577 22.3083 18.0018 22.3779L17.9564 22.4719C17.9424 22.538 17.9564 22.5937 18.0018 22.6424V22.6389Z" fill="#FBFBFB"/>
<path id="Vector_13" d="M1.74749 17.4853L0.125892 19.0999C0.0594909 19.166 -0.0243847 19.26 0.00357381 19.3643C0.0315324 19.4618 0.153851 19.5174 0.241221 19.5314C0.391499 19.5592 0.55226 19.5488 0.699042 19.5035C0.845825 19.4583 1.00309 19.4061 1.10794 19.2982L2.73303 17.6837C2.79943 17.6175 2.8833 17.5236 2.85535 17.4192C2.82739 17.3218 2.70507 17.2661 2.6177 17.2522C2.46742 17.2243 2.30666 17.2348 2.15988 17.28C2.01309 17.3252 1.85583 17.3774 1.75098 17.4853H1.74749Z" fill="#FBFBFB"/>
<path id="Vector_14" d="M6.89891 20.3353L3.9423 23.2826C3.8759 23.3487 3.79202 23.4426 3.81998 23.5505C3.84794 23.6479 3.97026 23.7036 4.06112 23.721C4.33721 23.7732 4.73213 23.6932 4.93832 23.4879L7.89843 20.5406C7.96483 20.4745 8.04871 20.377 8.02075 20.2727C7.99279 20.1717 7.87047 20.1195 7.77961 20.1021C7.50352 20.05 7.10511 20.13 6.89891 20.3388V20.3353Z" fill="#FBFBFB"/>
<path id="Vector_15" d="M17.2996 27.7505C16.377 28.7631 15.4543 29.7791 14.5352 30.7917C14.4688 30.8613 14.3814 30.9518 14.4129 31.0597C14.4408 31.1606 14.5666 31.2128 14.654 31.2302C14.9196 31.2789 15.3425 31.2058 15.5382 30.9936C16.4643 29.981 17.387 28.9649 18.3096 27.9523C18.376 27.8792 18.4634 27.7922 18.4354 27.6809C18.4074 27.58 18.2816 27.5243 18.1908 27.5069C17.9217 27.4582 17.4953 27.5313 17.2996 27.7435V27.7505Z" fill="#FBFBFB"/>
<path id="Vector_16" d="M26.169 30.8822C25.2464 31.7696 24.3272 32.6569 23.4046 33.5442C23.3382 33.6103 23.2508 33.7077 23.2788 33.8121C23.3068 33.9165 23.4326 33.9687 23.5234 33.9826C23.8065 34.0348 24.1944 33.9513 24.4111 33.746C25.3372 32.8587 26.2599 31.9714 27.1825 31.0841C27.2524 31.018 27.3363 30.917 27.3083 30.8127C27.2804 30.7083 27.1545 30.6561 27.0637 30.6387C26.7771 30.5865 26.3857 30.67 26.169 30.8788V30.8822Z" fill="#FBFBFB"/>
</g>
<defs>
<clipPath id="clip0_248_284">
<rect width="29" height="34" fill="white"/>
</clipPath>
</defs>
</svg>
