<svg fill="none" height="170" viewBox="0 0 171 170" width="171" xmlns="http://www.w3.org/2000/svg"><g clip-rule="evenodd" fill="#000" fill-rule="evenodd"><path d="m93.2228 155.693c6.0541 2.212 12.0242 4.453 18.1392 6.488 1.314.442 2.726-.262 3.161-1.569.443-1.314-.269-2.733-1.575-3.169-6.08-2.028-12-4.248-18.0116-6.446-1.3003-.471-2.7343.198-3.2054 1.484-.4709 1.3.1915 2.741 1.4918 3.212z"/><path d="m84.0695 103.179c19.0195-7.2856 37.6585-15.528 56.5095-23.2145 1.28-.526 1.891-1.9837 1.372-3.2569-.526-1.2801-1.977-1.8974-3.264-1.3784-18.816 7.679-37.42 15.9139-56.4039 23.1779-1.2946.4979-1.9336 1.9419-1.4429 3.2289.4978 1.295 1.9416 1.934 3.2293 1.443z"/><path d="m34.9345 48.6146c9.9067-14.0823 19.4346-28.4637 29.4982-42.4349.7986-1.12072.5448-2.68002-.569-3.48573-1.1209-.81269-2.6872-.55173-3.4929.56202-10.0704 13.99251-19.6123 28.38831-29.5258 42.49191-.7913 1.1277-.5235 2.687.6042 3.4784 1.1348.7983 2.687.5232 3.4853-.6117z"/></g></svg>