<svg width="123" height="167" viewBox="0 0 123 167" fill="none" xmlns="http://www.w3.org/2000/svg">
<g id="Highlight_04">
<g id="Group">
<g id="Group_2">
<path id="Vector" fill-rule="evenodd" clip-rule="evenodd" d="M117.986 39.6026C116.719 33.2831 115.52 27.0203 114.068 20.741C113.761 19.389 112.424 18.5511 111.081 18.8607C109.729 19.168 108.889 20.5148 109.199 21.8571C110.637 28.1027 111.828 34.3122 113.085 40.5883C113.361 41.9434 114.679 42.8184 116.023 42.5501C117.378 42.2742 118.262 40.9577 117.986 39.6026Z" fill="black"/>
</g>
<g id="Group_3">
<path id="Vector_2" fill-rule="evenodd" clip-rule="evenodd" d="M77.9406 74.7861C61.8095 62.3523 45.0601 50.7415 28.6744 38.6599C27.5583 37.8416 25.9961 38.0806 25.18 39.1869C24.3616 40.303 24.5909 41.8627 25.7048 42.6909C42.0657 54.7462 58.7903 66.3306 74.8846 78.7458C75.9843 79.5912 77.5495 79.3839 78.3927 78.294C79.238 77.1943 79.0305 75.6293 77.9406 74.7861Z" fill="black"/>
</g>
<g id="Group_4">
<path id="Vector_3" fill-rule="evenodd" clip-rule="evenodd" d="M56.9852 145.159C39.8035 144.045 22.564 143.41 5.3952 142.104C4.02253 142.006 2.82409 143.036 2.717 144.406C2.60769 145.786 3.64679 146.987 5.01723 147.094C22.2077 148.395 39.4668 149.035 56.6703 150.144C58.0451 150.231 59.2363 149.19 59.3239 147.815C59.4137 146.43 58.3699 145.249 56.9852 145.159Z" fill="black"/>
</g>
</g>
</g>
</svg>
