<svg width="57" height="59" viewBox="0 0 57 59" fill="none" xmlns="http://www.w3.org/2000/svg">
<g clip-path="url(#clip0_181_39)">
<path d="M26.3316 57.6964C20.7025 53.7042 15.7093 48.8294 11.5729 43.2621C9.45782 40.4173 7.55693 37.4028 5.95054 34.239C4.34415 31.0751 3.04565 27.5378 2.73776 23.8783C2.17553 17.0889 4.78591 10.1501 9.99328 5.77774C12.3292 3.8156 15.1672 2.38303 18.1591 1.8263C21.151 1.26957 24.8457 1.48683 27.369 3.59833C29.8924 5.70984 30.8094 9.26749 30.6354 12.54C30.5484 14.2577 30.2137 15.9686 29.6648 17.5913C29.1695 19.051 28.3663 20.8231 26.8871 21.4884L28.788 21.6853C28.0852 18.9153 28.8014 16.0365 30.3476 13.6874C31.8937 11.3383 34.3702 9.5866 36.9873 8.45276C39.7315 7.25783 42.8975 6.23942 45.8961 6.15115C48.647 6.06968 51.679 7.12883 53.0646 9.7156C53.8075 11.1006 54.0083 12.7369 54.0953 14.2849C54.1823 15.8329 54.1489 17.4419 54.0083 19.0171C53.7272 22.1063 53.0378 25.1479 52.0338 28.081C49.9923 34.0013 46.6122 39.3582 42.5092 44.0225C37.911 49.2639 32.4158 53.548 26.7466 57.5199C26.3651 57.7914 25.9701 58.2531 26.5123 58.5858C27.021 58.8981 27.9714 58.6265 28.4266 58.3278C39.6044 50.9681 50.066 41.1234 54.6977 28.1285C55.8356 24.9375 56.5852 21.6039 56.8463 18.2227C57.0939 15.0181 57.2813 11.1074 55.4808 8.3034C53.8008 5.68947 50.5345 4.61675 47.6028 4.54885C44.0822 4.46738 40.4745 5.53332 37.1948 6.77578C33.9151 8.01824 30.6554 9.91249 28.4333 12.764C26.3383 15.4594 25.2205 19.0239 26.0639 22.4118C26.2379 23.1043 27.5899 22.7784 27.9647 22.6087C31.1909 21.1693 32.5162 17.6999 33.0851 14.3867C33.6206 11.2704 33.48 7.84172 31.9138 5.03769C28.1923 -1.59557 18.8016 -0.672207 12.945 2.09108C6.36552 5.18706 1.59991 11.2636 0.341569 18.5418C-0.314373 22.3167 -0.0265619 26.2207 1.14476 29.8598C2.31609 33.4989 4.30399 37.0905 6.39899 40.3834C10.9772 47.5802 16.9409 53.84 23.8484 58.7555C24.3638 59.1222 25.0666 59.0203 25.6154 58.7827C25.8497 58.6808 26.8336 58.0562 26.3316 57.6964V57.6964Z" fill="black"/>
</g>
<defs>
<clipPath id="clip0_181_39">
<rect width="57" height="59" fill="white"/>
</clipPath>
</defs>
</svg>
