<svg width="577" height="25" viewBox="0 0 577 25" fill="none" xmlns="http://www.w3.org/2000/svg">
<path d="M125.58 5.09066C180.389 4.35844 235.228 3.88773 290.066 3.67853C344.905 3.46932 399.237 3.53906 453.807 3.8703C484.806 4.06207 515.836 4.32358 546.836 4.67225L551.042 1.09833C480.271 1.81312 409.53 2.70224 338.789 3.7657C268.047 4.82915 197.306 6.06695 126.565 7.49652C86.8528 8.29847 47.1708 9.13529 7.45894 10.0418C5.13173 10.0941 1.64091 10.4428 0.32812 11.7678C-0.895159 13.0056 1.37238 13.6506 3.25206 13.6158C76.977 12.5174 150.762 12.4128 224.516 13.3194C298.271 14.2259 371.966 16.1611 445.572 19.09C486.925 20.7287 528.248 22.6987 569.511 24.9826C571.749 25.1046 575.448 24.4596 576.642 23.2566C577.955 21.9491 575.508 21.4958 573.718 21.4087C500.291 17.3466 426.686 14.2782 353.02 12.2211C279.355 10.1639 205.571 9.13529 131.816 9.11786C90.3734 9.11786 48.9311 9.41423 7.48878 10.0418L3.28189 13.6158C73.9934 11.9944 144.735 10.5649 215.476 9.29219C286.217 8.03696 356.959 6.93864 427.7 6.03208C467.412 5.5265 507.154 5.05579 546.865 4.65482C549.193 4.63738 552.713 4.23641 553.996 2.92888C555.279 1.62134 552.922 1.09833 551.072 1.0809C496.204 0.48815 441.395 0.122041 386.556 0.0348727C331.717 -0.0522961 277.386 0.104608 222.816 0.540451C191.816 0.784524 160.787 1.11577 129.787 1.53418C127.46 1.56904 123.939 1.95259 122.656 3.26012C121.433 4.49791 123.7 5.14296 125.58 5.10809V5.09066Z" fill="black"/>
</svg>
