<svg width="169" height="85" viewBox="0 0 169 85" fill="none" xmlns="http://www.w3.org/2000/svg">
<path d="M1.4 47.75H6.4V23.25H1.4V18H20.35C23.8833 18 26.6667 18.8 28.7 20.4C30.7333 22 31.75 24.2 31.75 27C31.75 28.9 31.25 30.5667 30.25 32C29.25 33.4333 27.8333 34.4667 26 35.1V35.55C28.3 36.0833 30.05 37.0833 31.25 38.55C32.4833 39.9833 33.1 41.8 33.1 44C33.1 46.8 32.0833 49 30.05 50.6C28.0167 52.2 25.2167 53 21.65 53H1.4V47.75ZM20.8 47.75C22.7667 47.75 24.3 47.3333 25.4 46.5C26.5333 45.6333 27.1 44.4667 27.1 43C27.1 41.5 26.5 40.3 25.3 39.4C24.1 38.5 22.6 38.05 20.8 38.05H11.9V47.75H20.8ZM19.5 33.05C21.4667 33.05 23.0167 32.6 24.15 31.7C25.2833 30.8 25.85 29.5833 25.85 28.05C25.85 26.5833 25.2833 25.4167 24.15 24.55C23.0167 23.6833 21.4667 23.25 19.5 23.25H11.9V33.05H19.5ZM36.0191 47.75H41.0191V23.25H36.0191V18H53.3191C57.3525 18 60.5358 18.9 62.8691 20.7C65.2025 22.5 66.3691 24.9667 66.3691 28.1C66.3691 30.5 65.6858 32.5333 64.3191 34.2C62.9525 35.8333 61.0358 36.9667 58.5691 37.6L67.2191 47.75H71.2691V53H54.2691V47.75H60.0191L52.8691 39.25H46.5191V47.75H50.1691V53H36.0191V47.75ZM53.3691 34.4C55.6358 34.4 57.4191 33.9 58.7191 32.9C60.0525 31.8667 60.7191 30.4833 60.7191 28.75C60.7191 26.9833 60.0525 25.5833 58.7191 24.55C57.4191 23.5167 55.6358 23 53.3691 23H46.5191V34.4H53.3691ZM66.4453 47.75H70.8953L81.0953 23.35L81.0453 23.25H75.5953V18H89.9453L101.745 47.75H106.345V53H90.0953V47.75H95.7953L93.4453 41.75H78.7453L76.2953 47.75H82.3453V53H66.4453V47.75ZM91.4953 36.75L86.4953 23.95H86.0453L80.7953 36.75H91.4953ZM102.743 23.25H98.1426V18H114.893V23.25H108.993L118.793 47.7H118.943L128.693 23.25H122.693V18H139.093V23.25H134.643L122.493 53H114.893L102.743 23.25ZM161.613 53H136.263V47.75H141.263V23.25H136.263V18H159.913V15.25H165.163V30.6H159.913V23.35C159.913 23.3167 159.897 23.3 159.863 23.3C159.863 23.2667 159.847 23.25 159.813 23.25H146.563V33H151.163C151.197 33 151.213 33 151.213 33C151.247 32.9667 151.263 32.95 151.263 32.95V29.35H155.763V41.6H151.263V38.05C151.263 38.05 151.247 38.05 151.213 38.05C151.213 38.0167 151.197 38 151.163 38H146.563V47.8H161.413C161.447 47.8 161.463 47.8 161.463 47.8C161.463 47.7667 161.463 47.75 161.463 47.75C161.497 47.75 161.513 47.7333 161.513 47.7V40.35H166.863V56H161.613V53Z" fill="#FBFBFB"/>
<path d="M123.74 76.2C122.833 76.2 122.047 75.9667 121.38 75.5C120.713 75.0333 120.22 74.38 119.9 73.54V76H117.8V61.8H119.9V68.44C120.22 67.6 120.713 66.9533 121.38 66.5C122.047 66.0333 122.833 65.8 123.74 65.8C124.607 65.8 125.393 66.02 126.1 66.46C126.807 66.9 127.36 67.5133 127.76 68.3C128.173 69.0867 128.38 69.9867 128.38 71C128.38 72.0133 128.173 72.9133 127.76 73.7C127.36 74.4867 126.807 75.1 126.1 75.54C125.393 75.98 124.607 76.2 123.74 76.2ZM123.16 75.62C124.08 75.62 124.82 75.22 125.38 74.42C125.953 73.62 126.24 72.48 126.24 71C126.24 69.5067 125.953 68.36 125.38 67.56C124.82 66.76 124.08 66.36 123.16 66.36C122.52 66.36 121.947 66.5667 121.44 66.98C120.933 67.38 120.533 67.94 120.24 68.66C119.96 69.3667 119.82 70.1467 119.82 71C119.82 71.8533 119.96 72.6333 120.24 73.34C120.533 74.0467 120.933 74.6067 121.44 75.02C121.947 75.42 122.52 75.62 123.16 75.62ZM131.14 66H133.24V76H131.14V66ZM130.96 61.1H133.46L132.3 64.7H132.1L130.96 61.1ZM136.843 61.8H138.943V70.8H140.283L144.623 66H145.143L141.783 69.64L146.123 76H143.703L140.263 71.2H138.943V76H136.843V61.8ZM152.494 76.2C151.481 76.2 150.568 75.98 149.754 75.54C148.954 75.0867 148.328 74.4667 147.874 73.68C147.421 72.8933 147.194 72 147.194 71C147.194 70 147.421 69.1067 147.874 68.32C148.328 67.5333 148.961 66.92 149.774 66.48C150.588 66.0267 151.508 65.8 152.534 65.8C153.561 65.8 154.468 66.02 155.254 66.46C156.041 66.9 156.654 67.5133 157.094 68.3C157.548 69.0867 157.781 69.98 157.794 70.98V71.2H149.354C149.408 72.6 149.768 73.6933 150.434 74.48C151.101 75.2533 151.981 75.64 153.074 75.64C153.954 75.64 154.728 75.4067 155.394 74.94C156.061 74.46 156.514 73.8133 156.754 73H157.174C156.908 73.9867 156.354 74.7667 155.514 75.34C154.688 75.9133 153.681 76.2 152.494 76.2ZM155.674 70.8C155.634 69.3333 155.328 68.1933 154.754 67.38C154.181 66.5667 153.434 66.16 152.514 66.16C151.581 66.16 150.821 66.5667 150.234 67.38C149.661 68.1933 149.361 69.2667 149.334 70.6V70.8H155.674ZM163.722 76.22C162.469 76.22 161.402 75.9267 160.522 75.34C159.642 74.74 159.122 73.8933 158.962 72.8H159.382C159.529 73.76 159.989 74.5 160.762 75.02C161.549 75.5267 162.469 75.78 163.522 75.78C164.269 75.78 164.935 75.64 165.522 75.36C166.122 75.0667 166.422 74.6267 166.422 74.04C166.422 73.6667 166.302 73.36 166.062 73.12C165.835 72.88 165.535 72.6933 165.162 72.56C164.802 72.4133 164.282 72.2467 163.602 72.06L162.982 71.88C161.875 71.6 160.975 71.2333 160.282 70.78C159.602 70.3267 159.262 69.6533 159.262 68.76C159.262 67.76 159.669 67.0133 160.482 66.52C161.309 66.0267 162.275 65.78 163.382 65.78C164.569 65.78 165.555 66.0733 166.342 66.66C167.129 67.2467 167.589 68.0667 167.722 69.12H167.322C167.162 68.1867 166.742 67.4733 166.062 66.98C165.382 66.4733 164.542 66.22 163.542 66.22C162.795 66.22 162.149 66.3733 161.602 66.68C161.055 66.9733 160.782 67.4333 160.782 68.06C160.782 68.4067 160.902 68.6933 161.142 68.92C161.395 69.1467 161.715 69.3333 162.102 69.48C162.489 69.6267 163.042 69.8 163.762 70L164.182 70.12C164.915 70.2933 165.549 70.4933 166.082 70.72C166.615 70.9333 167.075 71.2467 167.462 71.66C167.849 72.06 168.042 72.5867 168.042 73.24C168.042 73.9333 167.815 74.5067 167.362 74.96C166.922 75.4 166.369 75.72 165.702 75.92C165.049 76.12 164.389 76.22 163.722 76.22Z" fill="#FBFBFB"/>
<rect y="81" width="169" height="4" fill="#FBFBFB"/>
</svg>
