<svg width="36" height="24" viewBox="0 0 36 24" fill="none" xmlns="http://www.w3.org/2000/svg">
<path d="M33.7682 0.613633C32.8561 1.78636 32.0417 3.12197 31.325 4.62045C30.6083 6.11894 30.0871 7.55227 29.7614 8.92045C29.8265 8.92045 29.8917 8.92045 29.9568 8.92045C31.7159 9.37651 33.0841 10.2561 34.0614 11.5591C35.0386 12.797 35.5273 14.2303 35.5273 15.8591C35.5273 17.097 35.2341 18.3023 34.6477 19.475C34.0614 20.5826 33.2144 21.4947 32.1068 22.2114C30.9992 22.928 29.7288 23.2864 28.2955 23.2864C26.2106 23.2864 24.4189 22.6348 22.9205 21.3318C21.4871 19.9636 20.7705 18.1068 20.7705 15.7614C20.7705 13.3508 21.4545 10.6144 22.8227 7.55227C24.2561 4.49015 25.9174 2.17727 27.8068 0.613633H33.7682ZM13.9295 0.613633C13.0174 1.78636 12.203 3.12197 11.4864 4.62045C10.7697 6.11894 10.2485 7.55227 9.92273 8.92045C9.98788 8.92045 10.053 8.92045 10.1182 8.92045C11.8773 9.37651 13.2455 10.2561 14.2227 11.5591C15.2 12.797 15.6886 14.2303 15.6886 15.8591C15.6886 17.097 15.3955 18.3023 14.8091 19.475C14.2227 20.5826 13.3758 21.4947 12.2682 22.2114C11.1606 22.928 9.89015 23.2864 8.45682 23.2864C6.37197 23.2864 4.5803 22.6348 3.08182 21.3318C1.64848 19.9636 0.931818 18.1068 0.931818 15.7614C0.931818 13.3508 1.61591 10.6144 2.98409 7.55227C4.41742 4.49015 6.07879 2.17727 7.96818 0.613633H13.9295Z" fill="#242424"/>
</svg>
