<svg width="102" height="52" viewBox="0 0 102 52" fill="none" xmlns="http://www.w3.org/2000/svg">
<path d="M0.84497 28.8314H3.86272V14.0444H0.84497V10.8757H12.2822C14.4148 10.8757 16.0947 11.3586 17.3219 12.3243C18.5491 13.2899 19.1627 14.6178 19.1627 16.3077C19.1627 17.4544 18.8609 18.4604 18.2574 19.3254C17.6538 20.1905 16.7988 20.8142 15.6923 21.1964V21.468C17.0805 21.7899 18.1367 22.3935 18.8609 23.2787C19.6053 24.1438 19.9775 25.2402 19.9775 26.568C19.9775 28.258 19.3639 29.5858 18.1367 30.5515C16.9095 31.5172 15.2195 32 13.0669 32H0.84497V28.8314ZM12.5538 28.8314C13.7408 28.8314 14.6663 28.5799 15.3302 28.0769C16.0142 27.5538 16.3562 26.8497 16.3562 25.9645C16.3562 25.0592 15.9941 24.3349 15.2698 23.7917C14.5456 23.2485 13.6402 22.9769 12.5538 22.9769H7.18225V28.8314H12.5538ZM11.7692 19.9592C12.9562 19.9592 13.8917 19.6876 14.5757 19.1444C15.2598 18.6012 15.6018 17.8669 15.6018 16.9414C15.6018 16.0562 15.2598 15.3521 14.5757 14.829C13.8917 14.3059 12.9562 14.0444 11.7692 14.0444H7.18225V19.9592H11.7692ZM21.7394 28.8314H24.7571V14.0444H21.7394V10.8757H32.1808C34.6151 10.8757 36.5364 11.4189 37.9447 12.5053C39.353 13.5917 40.0571 15.0805 40.0571 16.9716C40.0571 18.4201 39.6447 19.6473 38.8198 20.6533C37.995 21.6391 36.8382 22.3231 35.3494 22.7053L40.5701 28.8314H43.0145V32H32.7542V28.8314H36.2246L31.9092 23.7012H28.0766V28.8314H30.2796V32H21.7394V28.8314ZM32.211 20.774C33.579 20.774 34.6553 20.4722 35.44 19.8686C36.2447 19.245 36.6471 18.4101 36.6471 17.3639C36.6471 16.2976 36.2447 15.4527 35.44 14.829C34.6553 14.2053 33.579 13.8935 32.211 13.8935H28.0766V20.774H32.211ZM40.1031 28.8314H42.7889L48.9451 14.1047L48.9149 14.0444H45.6256V10.8757H54.2865L61.4084 28.8314H64.1847V32H54.3771V28.8314H57.8173L56.3989 25.2101H47.5268L46.0481 28.8314H49.6995V32H40.1031V28.8314ZM55.222 22.1923L52.2043 14.4669H51.9327L48.764 22.1923H55.222ZM62.0103 14.0444H59.234V10.8757H69.3435V14.0444H65.7825L71.6973 28.8012H71.7878L77.6724 14.0444H74.0511V10.8757H83.9494V14.0444H81.2636L73.9304 32H69.3435L62.0103 14.0444ZM97.5417 32H82.2417V28.8314H85.2595V14.0444H82.2417V10.8757H96.5157V9.21597H99.6843V18.4805H96.5157V14.1047C96.5157 14.0846 96.5057 14.0746 96.4855 14.0746C96.4855 14.0544 96.4755 14.0444 96.4554 14.0444H88.4583V19.929H91.2346C91.2548 19.929 91.2648 19.929 91.2648 19.929C91.2849 19.9089 91.295 19.8988 91.295 19.8988V17.726H94.011V25.1195H91.295V22.9769C91.295 22.9769 91.2849 22.9769 91.2648 22.9769C91.2648 22.9568 91.2548 22.9467 91.2346 22.9467H88.4583V28.8615H97.421C97.4412 28.8615 97.4512 28.8615 97.4512 28.8615C97.4512 28.8414 97.4512 28.8314 97.4512 28.8314C97.4713 28.8314 97.4814 28.8213 97.4814 28.8012V24.3651H100.71V33.8107H97.5417V32Z" fill="#FBFBFB"/>
<path d="M74.6832 46.316C74.136 46.316 73.6612 46.1752 73.2588 45.8935C72.8565 45.6119 72.5587 45.2176 72.3656 44.7106V46.1953H71.0981V37.6249H72.3656V41.6325C72.5587 41.1255 72.8565 40.7352 73.2588 40.4616C73.6612 40.1799 74.136 40.0391 74.6832 40.0391C75.2063 40.0391 75.6811 40.1719 76.1076 40.4374C76.5341 40.703 76.8681 41.0732 77.1095 41.548C77.3589 42.0228 77.4837 42.566 77.4837 43.1776C77.4837 43.7892 77.3589 44.3324 77.1095 44.8071C76.8681 45.2819 76.5341 45.6521 76.1076 45.9177C75.6811 46.1832 75.2063 46.316 74.6832 46.316ZM74.3331 45.966C74.8884 45.966 75.335 45.7245 75.673 45.2417C76.0191 44.7589 76.1921 44.0708 76.1921 43.1776C76.1921 42.2763 76.0191 41.5842 75.673 41.1013C75.335 40.6185 74.8884 40.3771 74.3331 40.3771C73.9469 40.3771 73.6008 40.5018 73.295 40.7513C72.9892 40.9927 72.7478 41.3307 72.5708 41.7653C72.4018 42.1918 72.3173 42.6625 72.3173 43.1776C72.3173 43.6926 72.4018 44.1634 72.5708 44.5899C72.7478 45.0164 72.9892 45.3544 73.295 45.6038C73.6008 45.8453 73.9469 45.966 74.3331 45.966ZM79.1494 40.1598H80.4168V46.1953H79.1494V40.1598ZM79.0407 37.2024H80.5496L79.8495 39.3752H79.7288L79.0407 37.2024ZM82.5915 37.6249H83.859V43.0569H84.6677L87.2871 40.1598H87.601L85.573 42.3567L88.1924 46.1953H86.7319L84.6556 43.2983H83.859V46.1953H82.5915V37.6249ZM92.0379 46.316C91.4263 46.316 90.8751 46.1832 90.3842 45.9177C89.9013 45.6441 89.5231 45.2699 89.2495 44.7951C88.9759 44.3203 88.8391 43.7811 88.8391 43.1776C88.8391 42.574 88.9759 42.0348 89.2495 41.56C89.5231 41.0853 89.9054 40.7151 90.3963 40.4495C90.8871 40.1759 91.4424 40.0391 92.0621 40.0391C92.6817 40.0391 93.2289 40.1719 93.7037 40.4374C94.1785 40.703 94.5487 41.0732 94.8142 41.548C95.0879 42.0228 95.2287 42.5619 95.2367 43.1655V43.2983H90.1428C90.175 44.1432 90.3922 44.8031 90.7946 45.2779C91.197 45.7447 91.7281 45.978 92.388 45.978C92.9191 45.978 93.3858 45.8372 93.7882 45.5555C94.1906 45.2658 94.4642 44.8755 94.609 44.3847H94.8625C94.7016 44.9802 94.3676 45.4509 93.8606 45.797C93.3617 46.143 92.7541 46.316 92.0379 46.316ZM93.9572 43.0569C93.9331 42.1716 93.748 41.4836 93.4019 40.9927C93.0559 40.5018 92.6052 40.2564 92.05 40.2564C91.4867 40.2564 91.028 40.5018 90.6739 40.9927C90.3279 41.4836 90.1468 42.1314 90.1307 42.9361V43.0569H93.9572ZM98.8143 46.3281C98.0578 46.3281 97.414 46.1511 96.8829 45.797C96.3518 45.4348 96.0379 44.9238 95.9414 44.264H96.1949C96.2834 44.8434 96.561 45.29 97.0278 45.6038C97.5026 45.9096 98.0578 46.0625 98.6936 46.0625C99.1442 46.0625 99.5466 45.978 99.9007 45.809C100.263 45.632 100.444 45.3664 100.444 45.0124C100.444 44.787 100.371 44.6019 100.227 44.4571C100.09 44.3122 99.9087 44.1996 99.6834 44.1191C99.4661 44.0306 99.1523 43.93 98.7418 43.8173L98.3676 43.7087C97.6997 43.5397 97.1565 43.3184 96.7381 43.0448C96.3276 42.7712 96.1224 42.3648 96.1224 41.8256C96.1224 41.2221 96.3679 40.7714 96.8588 40.4737C97.3577 40.1759 97.9411 40.027 98.6091 40.027C99.3253 40.027 99.9208 40.2041 100.396 40.5582C100.87 40.9122 101.148 41.4071 101.228 42.0429H100.987C100.89 41.4796 100.637 41.049 100.227 40.7513C99.8162 40.4455 99.3092 40.2926 98.7056 40.2926C98.255 40.2926 97.8647 40.3851 97.5347 40.5702C97.2048 40.7473 97.0398 41.0249 97.0398 41.4031C97.0398 41.6124 97.1123 41.7854 97.2571 41.9222C97.41 42.059 97.6031 42.1716 97.8365 42.2602C98.0699 42.3487 98.4039 42.4533 98.8384 42.574L99.0919 42.6464C99.5345 42.7511 99.9168 42.8718 100.239 43.0086C100.561 43.1373 100.838 43.3264 101.072 43.5759C101.305 43.8173 101.422 44.1352 101.422 44.5295C101.422 44.948 101.285 45.294 101.011 45.5676C100.746 45.8332 100.412 46.0263 100.009 46.147C99.615 46.2677 99.2166 46.3281 98.8143 46.3281Z" fill="#FBFBFB"/>
<rect y="48.8877" width="102" height="2.4142" fill="#FBFBFB"/>
</svg>
