<svg width="16" height="16" viewBox="0 0 16 16" fill="none" xmlns="http://www.w3.org/2000/svg">
<g id="Frame" clip-path="url(#clip0_248_301)">
<path id="Vector" d="M1.07814 2.37361L13.3655 15.1552C13.7905 15.596 15.4276 14.9349 14.9713 14.462L2.67948 1.68035C2.25455 1.2396 0.617421 1.90072 1.07367 2.37361H1.07814Z" fill="#FBFBFB"/>
<path id="Vector_2" d="M2.35732 15.2883C6.64695 11.1013 10.8963 6.87744 15.1144 2.61231C15.3738 2.35061 15.3022 2.07974 14.9489 1.98333C14.5955 1.88691 14.0006 2.04301 13.7277 2.31848C9.51416 6.58361 5.26032 10.812 0.970688 14.9991C0.706779 15.2608 0.787294 15.5317 1.13619 15.6281C1.51192 15.7291 2.07552 15.5684 2.35732 15.2929V15.2883Z" fill="#FBFBFB"/>
<path id="Vector_3" d="M0.523475 9.21431C5.28277 9.24645 10.0421 9.26023 14.8014 9.26941C15.1726 9.26941 15.7407 9.14545 15.942 8.78734C16.1433 8.42924 15.772 8.26396 15.4723 8.26396C10.713 8.25936 5.95372 8.241 1.19443 8.20886C0.82764 8.20886 0.255093 8.33282 0.0538075 8.69093C-0.147479 9.04904 0.223782 9.20972 0.523475 9.21431Z" fill="#FBFBFB"/>
<path id="Vector_4" d="M9.01768 15.3709C9.12056 10.385 9.17871 5.39446 9.1966 0.408521C9.1966 -0.326056 7.47001 0.0504147 7.47001 0.628894C7.4566 5.61942 7.39397 10.6054 7.29109 15.5913C7.27767 16.3213 9.00873 15.954 9.01768 15.3709Z" fill="#FBFBFB"/>
</g>
<defs>
<clipPath id="clip0_248_301">
<rect width="16" height="16" fill="white"/>
</clipPath>
</defs>
</svg>
